<?xml version="1.0" encoding="utf-8"?>
<!-- Generator: Adobe Illustrator 25.3.1, SVG Export Plug-In . SVG Version: 6.00 Build 0)  -->
<svg version="1.1" id="Layer_1" xmlns="http://www.w3.org/2000/svg" xmlns:xlink="http://www.w3.org/1999/xlink" x="0px" y="0px"
	 viewBox="0 0 309.6 120.3" style="enable-background:new 0 0 309.6 120.3;" xml:space="preserve">
<style type="text/css">
	.st0{fill:#8258A3;}
	.st1{fill:#BFAA52;}
	.st2{fill:#A84A61;}
	.st3{fill:#231F20;}
</style>
<g>
	<polygon class="st0" points="309.6,70.5 309.6,57.3 298.1,50.7 286.7,57.3 286.7,59.7 291.2,70.1 291.7,73.4 298.1,77.1 	"/>
	<polygon class="st1" points="270.9,85.7 270.9,85 264,86.3 261,84.7 259.3,78.9 256.3,59.2 255.2,58.5 239.5,67.6 239.5,85.7 
		255.2,94.7 	"/>
	<polygon class="st2" points="301.6,27.5 301.6,9.3 285.9,0.3 270.2,9.3 270.2,27.5 285.9,36.5 	"/>
	<g>
		<path class="st3" d="M230.2,54.6c1.7-0.3,1.8-0.3,2.2-0.5c0.5-0.2,0.9-0.1,1,0.1c0.1,0.3,1.1,0.6,1.4,0.3c0.1-0.1,0.2-0.1,0.3,0
			c0.2,0.2,0.6,0.2,0.6,0c0-0.2,0.2-0.2,0.7-0.3c0.2,0,0.5,0,0.8,0.2c0.5,0.3,0.5,0.2,0.2-0.2c-0.3-0.3-0.2-0.5,0.1-0.3
			c0.1,0.1,0.4,0.1,0.6,0.1s0.3,0.1,0.4,0.1c0.1,0.2,0.8,0.5,0.9,0.4c0,0-0.1-0.2-0.2-0.3c-0.2-0.2-0.3-0.2-0.1-0.3
			c0.8-0.3,1-0.4,1.2-0.2c0.3,0.3,1.1,0.7,1.1,0.6c0-0.1,0-0.1-0.1-0.1c-0.2,0-0.6-0.4-0.7-0.6c0-0.1,0.1-0.2,0.7-0.3
			c0.2,0,1.2,0.3,1.3,0.5c0.1,0.1,0.6,0.4,0.7,0.3c0.1-0.1-1.1-1-1.2-1.1c-0.2-0.3-1.8,0.3-2.4-0.1c-0.7-0.5-0.2,0.3-1.2,0.3h-0.5
			c1.5-0.8,1.4-0.8,2.5-0.8c0.5,0,1,0,1-0.1c0.2-0.2,0.6-0.4,0.7-0.3c0.1,0.2,0.3,0.1,0.3-0.1c0-0.2,0.2-0.3,0.7-0.6
			c0.4-0.2,0.7-0.4,0.8-0.5c0.1-0.1,0.2-0.2,0.3-0.2c0.1,0,1.7-1.2,2.1-1.2c0.1,0,0.2-0.1,0.3-0.2c0-0.1,0.1-0.1,0.1-0.1
			c0,0,0,0.2-0.1,0.4c-0.2,0.3-0.3,0.5-0.4,1.1c-0.1,0.5-0.4,1-0.7,1.7c-0.2,0.5-0.5,0.8-0.7,1l-0.3-0.3c-1.2-1.1-3.3-0.4-1.7-0.4
			c0.8,0,0.8,0.3,1.6,0.8c0.4,0.2,0.4,0.2,0.2,0.6c-0.2,0.5,0,0.6,0.2,0.1c0.3-0.6,0.8-0.2,0.4-0.6l-0.3-0.2l0.3-0.3
			c0.3-0.3,0.7-0.4,0.7-0.1c0,0.1,0.1,0.1,0.2,0.1c0.1,0,0.4,0.2,0.7,0.4c0.4,0.3,0.5,0.3,0.5,0.2c0-0.1,0-0.2-0.1-0.2
			c0,0-1-1-1.3-1c-0.6,0-0.1-0.3,0.8-2.2c1.1-2.3,0.6-1.1,3-1.7c0.5-0.1,1.5-0.5,1.5-0.5c0.8-0.1,0.4-0.3,1.6-0.9
			c0.5-0.2,1.1-0.5,1.3-0.7c0.5-0.3,0.7-0.4,0.7-0.4c0.2,0.2,0.2,3.7,0.5,6.6c0.1,0.8,0.1,2.5,0.2,2.5c0.3,0.2,0.2,1.9-0.1,2.3
			c-0.2,0.2-0.5,0.6-0.8,0.8c-0.6,0.7-0.2,0.1-0.7,0.7c-0.5,0.6-0.6,0-0.7,0.5c0,0.2-0.2,0.3-0.3,0.4c-0.4,0.1-0.6,1.5-0.3,2.6
			c0.2,0.7,0.4,2.9,0.2,2.9c-0.1,0,0,0.1,0,0.2c0.3,0.4-0.2-0.1-0.2,0.2c0,0.4,0.4,0,0.3,0.2c0,0,0.2,1.5,0.2,2.3
			c0.1,1.6,0.2,0.8,0.4,2.3c0.2,1.2,0.3,1.9,0.6,2.8c0.2,0.8,0.3,2.9,0.1,2.7c-0.2-0.2-0.8,0.2-0.1,0.3l0.3,0c0,1.6,0,2.5-0.2,2.6
			c-0.1,0.1-0.1,0.1,0,0.2c0.2,0.2,0.3,0.5,0.1,0.5c-0.2,0-0.2,0.3,0,0.4c0.1,0,0.2,1.2,0,1.5c0,0.1,0,0.1,0,0.1
			c0.1,0,0.1,1.2,0,1.5c-0.1,0.1,0,0.2,0.1,0.3c0.2,0.1,0.2,3.4,0,3.5c-0.3,0.2-0.2,3.6-0.5,5.7c-0.2,1,0.1,1.5-0.9,2.4
			c-0.7,0.7-0.8,1-0.3,1.2c0.7,0.3,1.4-0.1,1.4-0.7c0-0.3,0.8-1.5,1-1.5c0.1,0,0.2,0,0.3,0c0.2,0,0.2-0.2,0-0.3
			c-0.2,0-0.1-0.1,0.1-0.4c0.3-0.4,0.6-0.4,0.8-0.1c0,0.1,0.1,0.1,0.2,0c0,0,0-0.2-0.2-0.3c-0.3-0.3-0.3-0.4,0-0.7
			c0.2-0.3,0.2-0.3,0.6-0.1c0.5,0.3,0.6,0.2,0.2-0.2c-0.4-0.4-0.4-0.5-0.1-1c0.1-0.2,0.2-0.3,0.2-0.3c0,0.1,0.2,0.2,0.5,0.3
			c0.6,0.2,0.5-0.1-0.1-0.4c-0.6-0.3-0.1-0.7,0.2-1.1l0.6,0.3c0.6,0.3,1,0.3,0.5,0c-0.4-0.3-0.9-0.8-0.9-0.9c0-0.2-0.4-0.3-0.6-0.1
			c-0.2,0.2-0.2,0.5,0,0.5c0.4,0-0.1,0.6-0.6,0.8c-0.3,0.1-0.4,0.4-0.2,0.5c0.2,0.1-1.4,1.7-1.6,1.7c-0.1,0-0.1,0.1-0.1,0.2
			s0.1,0.2,0.1,0.2c0.2,0,0.1,0.2-0.1,0.3c-0.4,0.1,0.1,0-0.1-0.5c-0.2-0.5,0.4-0.8,0.4-1.9c0-0.3,0.1-0.6,0.1-0.7
			c0.1-0.1,0.1-0.1,0-0.2c-0.2-0.2,0.1-1.1,0-1.6c-0.1-0.5,0.2-0.2,0.2-0.5c0-0.1-0.1-0.2-0.1-0.2c-0.1,0-0.1-0.4,0-1.3
			c0.1-1.6,0.1-2.3,0.3-2.3c0.3-0.1-0.3-0.3,0-0.5c0.2-0.1,0.1-0.9-0.1-4c0-0.3-0.1-0.9-0.2-1.3c-0.3-1.5-0.4-6.2-0.1-6.3
			c0.4-0.1-0.5-0.4-0.2-0.6c0.2-0.2-0.3-0.8-0.2-1.3c0.1-0.4-0.3-1.5-0.3-2.2c0-0.7-0.4-0.6-0.2-0.9c0.2-0.2,0-0.1-0.1-1.7
			c-0.1-1.9-0.3-3-0.1-3c0.2,0,1-1.2,1.2-1.6c0.3-0.6,0.4-0.4,0.4,0.3c0,0.4,0,0.7,0,0.7c0.1,0,0.1,0.2,0,0.3c0,0.1,0,0.3,0.1,0.3
			c0.1,0,0.1,0.3,0.1,0.6c0,0.7,0,0.5,0.1,1.1c0.3,2.7,1.3,7.2,1,7.3c-0.1,0-0.1,0.1-0.1,0.3c0.1,0.3,0.5,2,0.5,2.4
			c0,0.2,0.1,0.4,0.1,0.4c0.1,0.1,0.2,0.5,0.2,1c0,0.5,0.2,1.2,0.3,1.6c0.1,0.4,0.2,0.8,0.2,0.8c-0.1,0.2,0.2,0.4,0.2,0.6
			c-0.2,0.4,1,3.6,1.3,4.5c0.1,0.3,0.2,0.6,0.3,0.7c0.1,0.1,0.1,0.2,0,0.2c-0.1,0-0.1,1.1,0.1,1.4c0.2,0.4,2.2,1.3,2.8,1.3
			c1,0-0.1,0.3,1.8,0.2c0.6,0,2.9-0.1,3.5-0.5c0.3-0.2,0.6-0.1,1.1,0.1c0.6,0.3,1.1,0.3,1.1,0.2c0-0.1-0.1-0.1-0.2-0.1
			c-0.1,0-0.3-0.1-0.5-0.2l-0.3-0.2c0.5,0,0.9,0,1.9,0.3c1.2,0.4,1.6,0.3,0.7-0.1c-1-0.5-0.2-0.7,0.9-0.2c0.5,0.2,0.9,0.3,1,0.3
			c0.2,0-0.8-0.7-1-0.7c-0.2,0,0.5-0.5,1.6-0.1c0.5,0.2,0.6,0.2,0.6,0.1c0-0.1-0.2-0.2-0.4-0.3c-0.4-0.1-0.5-0.3-0.1-0.6
			c0.2-0.2,0.6-0.1,1.4,0.3c1,0.4,0.7,0,0.6,0c-0.2,0-1-0.6-0.9-0.7c0.2-0.2,0.6-0.1,1.5,0.2c1,0.4,1.3,0.3,0.6-0.1
			c-0.9-0.6-1-0.7-0.8-0.8c0.3-0.2,1,0,2.4,0.6c0.5,0.2,0.2-0.2-0.5-0.6c-1.2-0.8-0.1-1.1,1.7-0.6c0.4,0.1,0.8,0.2,1,0.2
			c0.4-0.1,1.2,0.6,1.2,0.1c0-0.3,1.2-0.3,1.7-0.1c1.6,0.8,2.5,1,1.5,0.4c-0.7-0.5-0.8-0.7-0.3-0.8c0.4-0.1,1.2-0.1,1.2,0
			c0.1,0.2,1.4,0.8,1.4,0.6c0-0.1-0.3-0.4-0.7-0.6c-0.4-0.2-0.3-0.3,0-0.5c0.3-0.2,0.4-0.2,0.7,0c0.6,0.3,0.7,0.2,0.7,0.3
			c0,0.2,0.7,0.2,1,0.4c0.2,0.2,0.4,0,0.2-0.1c-0.2-0.1-0.4-0.4-0.6-0.4c-0.2,0-0.2-0.3-0.5-0.4c-0.3-0.1-0.3-0.2,0.1-0.4
			c0.3-0.1,0.4-0.1,1.1,0.2c1.5,0.7,1.2,0.1,1,0.1c-0.1,0-0.2-0.1-0.3-0.2c0-0.1-0.1-0.2-0.2-0.2c-0.1,0-0.2-0.1-0.4-0.2
			c-0.6-0.5,0.2-0.9,0.8-0.4c0.5,0.4,0.2,0,1.1,0.4c0.3,0.2,0.6,0.3,0.6,0.3c0-0.2-0.2-0.4-0.3-0.4c-0.1,0-0.4-0.2-0.6-0.4
			c-0.7-0.5-0.4-0.8,0.5-0.5c2,0.8,0.6-0.3,0.3-0.2c-0.3,0.1-0.5-0.9,0.5-0.5c1.7,0.8,1.6,0.3,1.4,0.3c-0.2-0.1-0.6-0.5-0.9-0.7
			c-0.6-0.3,1-0.3,1.5-0.3l-0.2-0.3c-0.1-0.1-0.4-0.3-0.6-0.5c-0.5-0.3-0.1-0.7,0.9-0.7c0.3,0,0.3-0.1,0-0.4
			c-0.1-0.1-0.2-0.3-0.2-0.4c0.1-0.2-0.9,0-0.6-0.3c0.4-0.4,2.7-0.2,1.4-0.6c-0.6-0.2-0.6-1.1,0-1.1c0.8,0,0.2-0.2-0.7-0.2
			c-1.4,0-2.3-0.4-1.2-0.6c0.2,0,0.5-0.1,0.7-0.1c0.8-0.2,0.2,0.9,0.9,0.4c0.1-0.1,0.1-0.2,0-0.3c-0.2-0.2-0.1-0.3,0.2-0.3
			c0.2,0,0.5-0.2-0.5-0.2c-0.5,0-0.8,0-0.8-0.2c0-0.1-0.1-0.2-0.2-0.2c-0.3,0-0.1-0.2-0.4-0.2c-0.4,0-0.1-0.2,0.4-0.3
			c0.3,0,0.7-0.1,0.8-0.2c0.4-0.1-0.1,0.8,0.2,0.8c0.2,0-0.1-0.7,0.4-0.6c0.3,0.1,0.3-0.1,0.1-0.2c-0.1,0-0.1-0.1,0.1-0.1
			c0.3,0,0.3-0.3-0.1-0.2c-0.4,0.1-0.5-0.2-1.1-0.6l-0.3-0.2c1.3-0.1,1.3-0.1,1.7,0c0.4,0.1-0.5-0.7-1-1c-0.5-0.3-0.4-0.4,0.4-0.5
			c1-0.1,0.8-0.2-0.4-0.2c-1.6,0-2.1-0.6-0.7-0.7c0.6-0.1,0.6-0.1,0.7,0.2c0.1,0.2,0.1,0.3,0.2,0.2c0.1-0.2,0.3-0.1,0.9,0.1
			l-0.3-0.3c-0.8-0.7,0-0.3,0-0.6c0-0.1-0.2-0.1-0.4-0.1c-0.3,0-0.5,0-0.9-0.3c-1.3-1,0.6-0.3,0.6-0.6c0-0.1,0.2,0,0.4,0.2
			c0.6,0.3,0.7,0.3,0.3-0.1l-0.3-0.3c0.2,0.1,0.5,0.2,0.7,0.6c0.2,0.4,1.4,1.2,1.4,1.5c0,0.2,0.7,0.8,1,1.4c0.3,0.5,0.7,0.8,1.4,1.9
			c0.6,0.9,0.8,1,0.8,1.2c0,0.2,0.5,0.4,0.5,0.6c0,0.2,1,1.4,1,1.5c0,0.1,0.1,0.1,0.1,0.1c0.2,0,1,0.8,1,1c0,0.1,0,0.1,0.1,0.1
			s0.2,0.2,0.4,0.5c0.4,0.7,0.8,0.8,1.5,1.9c1.1,1.8,1,0.7,1.9,0.7c1.5,0.1-0.6-1.7-0.9-1.7c-0.2,0,0-0.4-0.3-0.4
			c-0.3,0-0.1-0.5-0.4-0.5c-0.3,0-0.1-0.2-0.5-0.6c-0.4-0.4-0.3-0.8-1.1-1.7c-0.7-0.9-0.3-0.6-0.8-1.2c-0.2-0.2-0.3-0.4-0.3-0.5
			c0-0.1-0.1-0.2-0.2-0.2c-0.2-0.1-0.3-0.3-0.6-0.8c-0.9-1.3,1.7,1,0.2-0.7c-0.8-1-1.1-1.2-1.2-1.2c-0.1,0-0.1-0.1-0.2-0.2
			c-0.1-0.2,0.4-0.1,0.5,0.1c0,0.1,0.1,0.1,0.2,0.1c0.5,0-0.5-0.8-1.3-1.6c-0.4-0.4-0.5-0.4-0.6-0.3c-0.2,0.3-0.1,0.5,0.1,0.6
			c0.1,0.1,0.2,0.2,0.2,0.2c0,0.2,0.9,2,1,2c0.1,0,0.1,0.1,0.1,0.2c0,0.1,0.1,0.3,0.3,0.5c0.2,0.3,0.2,0.4,0.1,0.6
			c-0.1,0.2-0.1,0.2-0.1,0.1c0-0.3-0.2-0.1-0.3-0.5c-0.1-0.4-0.4,0.1-0.3-0.3c0.2-0.4-0.7-0.3-0.7-0.9c0-0.1-0.1-0.2-0.2-0.2
			c-0.2,0-0.9-0.8-1.1-1.3c-0.1-0.3-1.2-1.7-1-1.9c0-0.1,0-0.1-0.1-0.1c-0.1,0-0.1-0.1-0.1-0.2c0-0.4-0.4-0.3-0.4-0.6
			c0-0.2-0.6-0.5-0.6-0.7c0-0.2-0.5-0.5-0.4-0.8c0.1-0.4-1.4-1.3-0.6-1.2c0.1,0,0.1-0.2,0-0.2c-0.1,0-0.1-0.1,0-0.2
			c0-0.1,0-0.2-0.2-0.2c-0.4,0,0-0.2-0.3-0.3c-0.4-0.1-0.2-0.4,0.2-0.4c0.5,0,0.3-0.2-0.2-0.2c-0.3,0-0.5,0-0.7,0
			c-0.2,0-0.5-0.5-0.5-0.7c0-0.2,1.3,0,1.5,0.1c0.1,0.1,0.2,0.2,0.3,0.2c0.2,0-0.2-0.3-0.1-0.5c0-0.1,0-0.1-0.2-0.1
			c-0.3,0-1.3-0.8-1.1-0.9c0.1-0.1,0.8,0,0.8-0.2c0-0.2-0.7,0-0.8-0.3c-0.1-0.3-0.4,0.3-0.6,0.1c-0.1-0.2-0.8-0.4-0.9-0.7
			c-0.1-0.3,1.2-0.3,1.7,0.1c0.4,0.3,0.7,0.2,0.3-0.1c-0.3-0.2-0.2-0.4,0.1-0.4c0.7,0,0.6-0.2-0.1-0.3c-0.4,0-0.7-0.1-0.8-0.2
			c0-0.1-0.1-0.1-0.2-0.1c-0.2,0-0.7-0.5-0.9-0.6l0.3,0c0.6,0,0.7-0.3,0.6,0.2c-0.1,0.6,0-0.5,0.6-0.4c0.7,0.2-1.9-1.3-0.1-1.3
			c0.8,0,0.3-0.2-0.5-0.3c-0.7,0-0.9-0.1-1.2-0.4c-0.2-0.2-0.5-0.3-0.6-0.3c-0.2,0-0.2-0.2,0-0.3c0.6-0.2,1.4,0.1,1.3,0.6
			c0,0.2,0,0.3,0.1,0.3c0.2,0,0.1-0.5,0.3-0.5c0.2,0-0.3-0.4-0.5-0.5l0.5,0c0.6,0,0.8-0.2-0.3-0.2c-0.7,0-1-0.1-0.9-0.6
			c0-0.1-0.1-0.1-0.2-0.1c-0.3,0.1-0.4-0.3,1-0.3c0.8,0,0.1-0.6,0-0.4c-0.1,0.2-1.9,0-2.1-0.2c-0.1-0.1-0.2-0.2-0.3-0.2
			c-0.3,0-0.6-0.4-0.4-0.6c0.6-0.2,0.9-0.3,1.1-0.1c1.1,1,2.3,1.3,1,0.3c-0.7-0.5-0.7-0.6,0.6-0.7c0.6-0.1,0.5-0.2-0.1-0.2
			c-0.9,0-0.7-0.2-0.4-0.2c0.3,0,0.3-0.2,0-0.4c-0.4-0.2-0.2-0.3,0.4-0.3c0.5,0,0.1-0.2-0.5-0.2c-0.3,0-0.5,0-0.5-0.1
			c0,0-0.1-0.2-0.3-0.3c-0.7-0.4-0.2-0.7,1.1-0.6c0.5,0,0.7-0.3-1.9-0.2c-0.4,0-0.2-0.4-0.4-0.4c-0.1,0-0.2-0.1-0.3-0.2
			c-0.2-0.3,1-0.5,1.7-0.3c0.6,0.2,0.6,0.1,0.1-0.3c-0.8-0.7-1.1-1-1-1c0.3-0.1-0.6-1.1,0-1.1c0.2,0,0.7-0.2-0.8-0.2
			c-1.2,0.1-2.2-0.4-1.6-0.7c0.4-0.2,1.2-0.2,1.4,0.1c0.3,0.4,0.7,0,0.5,0.2c-0.2,0.3,0.7,0.2,0-0.2c-0.4-0.2-0.4-0.4,0.1-0.4
			c0.7-0.1,0.5-0.3-0.2-0.2c-0.7,0.1-0.7,0.1-0.6-0.2c0.1-0.2,0-0.2,0-0.1c-0.1,0.1-0.2,0.1-0.6-0.2c-0.5-0.4-0.5-0.5,0.1-0.5
			c1.7,0,1.1-0.8,0.9-0.4c-0.4,0.7-5.3-1.1-1.6-1.1c0.8,0,0.3-0.1,0.9-0.2c0.3,0,0.3-0.1-0.1-0.1c-0.4,0-1.6-0.7-1.6-0.9
			c0-0.1,0.9-0.3,1-0.3l-0.7,0c-1,0-0.7-0.2-1.4-0.6c-0.3-0.1-0.3-0.2-0.2-0.3c0.3-0.2,1.3-0.3,1.4-0.1c0.3,0.4,0.6-0.4,0.2-0.4
			c-0.4,0-0.9-0.7-1.2-0.7c-0.4,0-0.5-0.2,1.4-0.7l-0.7,0c-1.3,0-1.5,0-1.8-0.3c-0.1-0.1-0.3-0.3-0.4-0.3c-0.1,0,0-0.1,0.2-0.2
			c0.4-0.2,1.5-0.2,1.5,0c0,0.1,0.1,0.1,0.2,0.1c0.1,0,0.6,0.1,1,0.3c0.4,0.2,0.9,0.4,1,0.4c0.1,0,0.3,0.1,0.3,0.1
			c0.1,0.2,0.9,0.1,1.1,0.1l-0.4-0.3c-0.5-0.4-0.3-0.1-1-0.6c-0.5-0.3-0.8-0.4-1.1-0.4l0.3-0.1c0.5-0.2,0.2-0.3-0.4-0.2
			c-0.3,0-0.6,0.1-0.6,0c0-0.1-0.9-0.5-1-0.5L288,36c0.9-0.3,1.3-0.4,1.6-0.4c0.3,0,0.8-0.4,1.1-0.4c0.3,0,1.1-0.3,1.7-0.5
			c0.6-0.1,2.3-0.6,3.2-0.9c0.7-0.2,0-0.7,4-0.9c1.8-0.1,1.9-0.1,2.8-0.5c0.4-0.2,3.1-0.3,3.1-0.2c0,0.1-1.1,1-1.2,1
			c0,0-0.2,0.1-0.3,0.2c-0.2,0.2-0.5,0.2-0.3,0c0.1-0.1,0-0.1-0.1,0c-0.1,0.1-0.1,0.2-0.1,0.2c0,0.1-0.2,0.3-0.4,0.5
			c-0.3,0.2-0.5,0.4-0.5,0.5c0,0.1,0,0.1-0.1,0.1c-0.1,0-1.3,1.2-1.6,1.3c-0.3,0.1-0.2,0.4,0.4,0c0.5-0.3,0.6-0.3,1.7,0.3
			c0.6,0.3,0.7,0.2,0.2-0.3c-0.3-0.3-0.6-0.5-0.6-0.5c-0.2,0,0-0.3,0.3-0.5c0.7-0.4,1.3,0.3,1.7,0.5c0.4,0.1,0.2-0.1-0.2-0.4
			c-0.2-0.1-0.4-0.3-0.4-0.4c0-0.3-0.7-0.1-0.1-0.5c0.3-0.2,0.4-0.2,1,0.1c0.8,0.4,0.8,0.4,0.7,0.1c-0.1-0.1-0.2-0.2-0.3-0.2
			c-0.1,0-0.5-0.4-0.5-0.5c0-0.3,0.7-0.4,1.2-0.1c0.6,0.3,0.7,0.2,0.2-0.2c-0.6-0.6-0.4-0.8,0.4-0.4c0.5,0.3,0.6,0.1,0.2-0.3
			c-0.3-0.3,0-0.7,0.4-0.7c0.3,0,1-0.6,1.1-0.8c0.1-0.3-0.9-0.5-1.3-0.3c-0.2,0.1-0.6,0.3-0.9,0.3c-2.4,0.3-3.2,0.6-4.4,0.4
			c-0.6-0.1-1.2,0.1-2.9,0.4c-4.4,0.9-5.4,1-5.6,0.9c-0.1-0.1-0.1-0.1-0.3,0c-0.1,0.1-0.2,0.2-0.3,0.1c-0.1,0-0.2,0-0.2,0.1
			c0,0.1-0.9,0.3-3.1,0.8c-2.3,0.6-2.3,0.5-2.6,0.7c-1.2,0.4-1.3,0.4-1.7,0.1c-0.5-0.3-0.5-0.3,0.6-0.4c0.7-0.1,0.9,0,0.9,0.1
			c0,0.1,0,0.1,0.1,0c0.2-0.3,0.6-0.1,0.6-0.3c0-0.2-0.9,0.1-1.2-0.3c-0.2-0.3-0.4-0.1-0.5-0.4c-0.1-0.2,0.2-0.3,0.6-0.3
			c0.2,0,0.3,0,0.3-0.1c0-0.1-1,0-1.1-0.2c0-0.1-0.2-0.1-0.3,0c-0.2,0.1-0.8-0.4-0.7-0.5c0.1-0.1,2.1-0.3,0.2-0.4
			c-0.9,0-1-0.2-1.8-0.7l0.4-0.1c0.3-0.1,0.5-0.1,1,0.3c0.7,0.5,0.9,0.4,0.3-0.1c-0.7-0.7,0.1-0.2,0.3-0.5c0.1-0.1-0.1-0.1-0.4-0.1
			c-0.7,0.1-1.4-0.5-1-0.8c0.2-0.1,0.2-0.2-0.2-0.2c-0.3,0-0.5,0-0.5-0.1c0-0.2-1.3-0.8-0.4-0.8c0.3,0,0.3-0.3-0.3-0.2
			c-0.3,0.1-0.5,0-0.7-0.2c-0.9-0.8-2-1.1-1.2-0.3c1,1,0,0.3-0.2,0.6c-0.1,0.2-0.7-0.2-0.7,0c0,0.2,0.5,0.7,0.7,0.7
			c0.3,0,0.2,0.2-0.1,0.3c-0.5,0.2-0.1,0.6,0.6,0.6c0.6,0,0.7,0.2,0.3,0.3c-0.4,0.1-0.7,0.1-1.1-0.1c-0.6-0.3-0.9-0.2-0.5,0.2
			c0.2,0.2,0.2,0.2-0.1,0.2c-0.4,0-0.3,0.4,0.1,0.4c0.6,0,0.5,0,1.4,0.5l-0.8,0.1c-1.2,0.1-1,0.5-1.3,0.1c-0.1-0.1-0.3-0.2-0.4-0.2
			s-0.2-0.1-0.2-0.1c0-0.1-0.2-0.2-0.3-0.2c-0.4-0.1-1.4-0.6-2.4-1.3c-1.9-1.2-1.8-0.4-1.7-3.9c0-0.9-0.3-0.7-0.2-1.3
			c0.1-0.6-0.1-0.1-0.1-0.9c0-0.3,0-0.5,0.1-0.5c0.1,0.1,0.3-0.2,0.2-0.4c-0.2-0.2-0.2-1.5,0-1.7c0.1-0.1,0.2-0.3,0.2-0.4
			c0-0.5,0.6-0.1,0.2-0.5c-0.4-0.4,0.2-0.2,0-0.5c-0.1-0.2,0.2-1.6,0.3-1.6c0.1,0,0.1-0.1,0-0.2c-0.1-0.4,0.3-0.5,0.4-1.8
			c0-0.3,0.1-0.7,0.3-0.9c0.2-0.2,0.2-0.4,0.1-0.4c-0.2-0.1-0.2-0.5,0-0.7c0.1-0.1,0.1-0.4,0.2-0.7c0.1-0.8,0.3-0.9,0.1-1.1
			c-0.1-0.1-0.1-0.2,0.1-0.3c0.2-0.1,0.2-0.1,0-0.6c-0.4-0.9,0.2-0.9-0.4-1.5c-0.5-0.4-0.1-0.4-0.2-1.1c0-0.5,0.2,0,0.2-0.5
			c0-0.5-0.3,0.1-0.1-0.8c0.2-1.2,0.2-2.1,0.3-0.9c0.1,0.4,0.5,2.8,0.5,2.8c0,0.1,0.3,1.1,0.4,1.4c0.2,0.3,0.1,0.5-0.1,0.7
			c-0.2,0.2-0.2,0.2,0.1,0.1c0.3-0.1,0.3-0.1,0.2,0.4c-0.1,0.4,1.1,1.9,1.6,1.9c0.1,0,0.2,0.1,0.4,0.3c0.2,0.2,0.8,0.6-0.2-0.9
			c-0.7-1-1.4-1.1-1.4-1.6c0-0.5,0.3,0,1.3,0.7l0.6,0.4c-0.1-0.3-0.3-0.7-0.9-1.2c-0.3-0.3-0.5-0.5-0.4-0.5c0,0,0-0.1-0.1-0.2
			c-0.1-0.1-0.3-0.2-0.4-0.2c-0.2,0-0.4-0.6-0.3-0.7c0,0,0.2,0.1,0.3,0.2c0.2,0.2,1.2,0.7,1.3,0.7c0.1,0,0.1-0.4-0.1-0.4
			c-0.1,0-0.3-0.2-0.4-0.4c-0.1-0.2-0.3-0.4-0.3-0.4c-0.1,0-0.1-0.6-0.2-0.5c-0.1,0.1-0.4-0.4-0.5-0.3c-0.1,0.1-0.4-0.4-0.4-0.7
			c0-0.1,0.9,0.3,1,0.6c0.1,0.2,0.5,0.3,0.7,0.3l-0.3-0.3c-0.3-0.3-1-1-1-1.2c0-0.1-0.5-0.5-0.6-0.5c-0.1,0-0.1-0.2-0.1-0.5l0-0.6
			c0.6,0.4,1.8,1.2,1.2,0.5c-0.1-0.1-0.2-0.3-0.2-0.4c0-0.1-0.1-0.1-0.1-0.1s-0.1-0.1-0.1-0.1c0-0.1-0.2-0.3-0.4-0.5
			c-0.2-0.2-0.4-0.4-0.3-0.5c0.1-0.1,0.5-0.1,0.5,0c0,0.1,0.4,0.3,0.4,0.2c0.1-0.1-0.4-0.8-0.9-1.4c-0.4-0.4,0-0.3,0.1-0.2
			c0.1,0.2,0.6,0.2,0.6,0c0-0.1,0-0.1-0.1-0.1c-0.1,0-0.6-0.9-0.3-0.8c0.4,0.1,0.6,0,0.4-0.3c-0.2-0.2-0.3-1.1-0.2-1.6
			c0.1-0.5-0.2-1.2-0.5-0.9c-0.1,0.1-0.3,0.2-0.3,0.2c0,0-0.1-0.2-0.2-0.4c-0.4-0.7-0.9-0.4-0.7,0.4c0.2,0.7,0,3.6-0.3,4
			c-0.2,0.2-0.2,0.7-0.1,0.9c0.1,0.1,0,0.2,0,0.3C274,6,274,6.3,274,6.5c0.1,0.8-0.3-0.1-0.1,0.7c0.1,0.3,0.1,1-0.1,0.9
			c-0.2-0.1-0.1,0.1,0.1,0.4c0.1,0.1,0.2,0.2,0,0.3c-0.2,0.2-0.1,1-0.4,1.3c-0.1,0.1-0.2,0.5-0.2,0.8c0,0.3-0.1,0.7-0.1,0.7
			c0,0,0,0.1,0,0.2c0.2,0.2,0.2,0.7,0,0.9c-0.2,0.1-0.2,0.2,0,0.3c0.2,0.1,0.1,2.4-0.2,3.2c-0.3,0.8,0,0.8-0.2,1.1
			c-0.3,0.3,0.2,0.3,0.1,0.8c-0.1,0.6-0.3,1.6-0.5,1.7c-0.3,0.2,0.2,0.1,0.2,0.4c0,0.1-0.1,0.1-0.1,0c-0.2-0.1-0.2-0.1-0.4,2.9
			c-0.1,0.8-0.2,1.3-0.3,1.5c-0.1,0.1-0.1,0.3-0.1,0.3c0,0.1-0.1,0.2-0.2,0.2c-0.3,0.1-0.3,0.1,0,0.3c0.3,0.2,0.1,0.1-0.2,1.2
			l-0.2,0.7c-0.1-0.1-0.5-0.5-0.7-0.5c-0.1,0-0.1-0.1-0.1-0.2c0-0.1-0.4-0.3-0.8-0.6c-1.2-0.6-1.4-1-1.7-1c-0.1,0-0.3,0-0.3-0.1
			c-0.1-0.1-1.3-1-1.4-1c-0.1,0-0.1-0.1-0.2-0.2c0-0.1-0.1-0.2-0.2-0.2c-0.5,0-1.1-0.5-1-0.9c0-0.1,0-0.2-0.2-0.2
			c-0.5,0,0-0.8-0.8,0c-0.3,0.3-0.4,0.3-0.5,0.2c-0.2-0.1-0.2-0.1-0.1,0.2c0.3,1.2-1.4,0.9-1.6,1.3c0,0.1-0.1,0.1-0.2,0.1
			c-0.1,0-0.5,0.2-0.9,0.4c-0.8,0.5-1.1,0.4-1.1-0.2c0-1-1.6,0-1.6,1c0,0.4-0.8,0.9-0.8,1.2c0,0.3-0.4,0.6-0.5,1
			c-0.3,1.5-0.9,1.9-1.4,0.9c-0.3-0.5-0.3-0.6-1.2-1.4c-1.4-1.4-1-1.5-1.6-2.7c-0.2-0.4-0.4-0.9-0.3-1c0-0.1,0-0.2-0.1-0.1
			c-0.2,0.1-0.2-0.3-0.6-0.7c-0.4-0.4-0.1-0.6-0.4-0.9c-0.3-0.3,0-0.6-0.5-0.8c-0.4-0.2-0.1-0.3-0.5-0.5c-0.5-0.3,0-0.7-0.5-0.7
			c-0.4,0-0.2-0.2-0.4-0.2c-0.2,0-0.5-0.5-0.8-0.5c-0.2,0-0.1-0.4-0.3-0.4s-0.1-0.4-0.2-0.4c-0.1,0-0.1-0.1-0.1-0.1
			c0-0.2-0.7-1.7-0.9-1.7c-0.1,0-0.1-0.1-0.1-0.3c0-0.2-0.1-0.4-0.2-0.5c-0.1-0.1-0.3-0.4-0.4-0.6s-0.2-0.4-0.3-0.4
			c-0.2,0,0-0.4-0.2-0.6c-0.2-0.1,0.1-0.4-0.2-0.4c-0.3,0-0.1-0.5-0.3-0.5c-0.2,0-0.4-0.6-0.5-0.7c-0.2-0.2-0.6-0.9-0.6-1
			c0-0.1,1,0.6,1.4,1c0.5,0.5,0.3,0.1,1,0.7c0.5,0.5,0.9,0.8,2.1,1.7c2.7,2.2-1.2-1.6-1.2-1.8c0-0.1-0.8-0.7-1.2-1
			c-0.1-0.1-0.2-0.3-0.3-0.4c-0.1-0.6-0.6-0.2-0.7-0.6c0-0.1-0.1-0.2-0.2-0.2c-0.2,0-1-0.6-1.8-1.4c-1-1-0.9-0.6-1.6-1.3
			c-0.4-0.3,0-0.6-0.9-0.6h-0.6c0.1,0.5,0.1,0.7,0.8,1.4c0.4,0.3,0.7,0.7,0.7,0.8c0,0.1,0.1,0.1,0.2,0.1c0.2,0,0.3,0.4,0.7,0.8
			c1.2,1.3,1.5,2.2,2,2.9c0.2,0.3,0.2,0.4,0.1,0.5c-0.1,0.2,0.3,1.2,0.6,1.5c0,0,0.7,1.4,1.3,2.1c0.4,0.5,0.4,0.6,0.1,0.7
			c-0.2,0.1-0.2,0.1,0.2,0.1c0.8,0.1,0.7,0.5,1.3,1.1c0.3,0.4,1.9,4.1,2.1,4.1c0.1,0,0.1,0.1,0.1,0.2c0,0.1,0.1,0.4,0.3,0.5
			c0.2,0.2,0.3,0.4,0.2,0.5c0,0.1,0,0.2,0.1,0.2c0.2,0,0.6,0.6,0.6,0.8c0,0.1,0.2,0.4,0.4,0.6c0.5,0.5,0.9,1.3,0.9,1.6
			c0,0.1,0.1,0.4,0.2,0.5c0.4,0.4,0.2,0.6,0.4,0.9c0.1,0.1,0.2,0.2,0.2,0.4c0,0.1,0.2,0.6,0.6,1c0.3,0.5,0.6,0.9,0.6,0.9
			c0,0.1-1,2.2-1.2,2.3c0,0-0.5,1.3-1.7,3.9c-2.8,5.9-3.4,8.6-4.3,9c-0.3,0.1-0.3,0.2-0.1,0.2c0.3,0.1-0.5,0.5-0.9,0.5
			c-0.3,0-0.1,0.2-0.4,0.2c-0.6,0-4,2.1-4.1,2.1c-0.4,0.2-0.6,0.4-0.8,0.7c-0.2,0.4-0.7,0.6-0.8,0.4c-0.1-0.1-0.1-0.1-0.3,0
			c-0.1,0.1-0.4,0.3-0.8,0.3c-0.6,0.1-3.6,0.9-4.4,0.9c-0.4,0-2,0.2-2.1,0.2c-0.1,0-0.2,0-0.3,0.1c-0.2,0.2-1.3,0.1-1.7-0.1
			c-0.5-0.3-1.1,0-1,0.4c0,0.3,0,0.4-0.5,0.6C227.6,54.5,228.6,54.9,230.2,54.6z M254.4,59.8c0-0.2,0.2,0,0.3-0.4
			c0.1-0.2,0.4-0.4,0.5-0.4C255.3,59.1,254.4,60,254.4,59.8z M302.4,73.5c0.1-0.1,0.4,0,0.5,0.3c0,0.1,0,0.3,0,0.2
			C302.7,74,302.3,73.6,302.4,73.5z M259.1,74.6c-0.7,0-0.2-3.3-0.1-2.6C259.3,74,259.3,74.6,259.1,74.6z M259.4,77.3
			c-0.1-0.3,0-0.3,0.2-0.2c0.1,0,0.2,0.2,0.2,0.2C259.8,77.6,259.5,77.5,259.4,77.3z M260.3,76.3c-0.2-0.3-0.1-0.6,0.1-0.5
			c0.2,0.1,0.2,0.9,0.4,1.2c0.1,0.2,0.1,0.3,0.2,1c0.1,0.3,0,0.5,0,0.5c-0.3,0-0.4-0.3-0.5-1.1C260.5,76.9,260.4,76.4,260.3,76.3z
			 M275.9,83.2c-0.3-0.1-0.1,0.2-0.5,0.2c-0.2,0-0.3,0.1-0.4,0.2c-0.1,0.2-0.7,0.3-1.2,0.3c-0.1,0-0.3,0.1-0.4,0.2
			c-0.2,0.2-1.1,0.5-1.3,0.4c-0.1,0-0.2,0-0.2,0c0,0.1-0.4,0.2-0.8,0.2c-1.1,0.1-1.3,0.2-1.9,0.2c-0.7,0.1-0.7,0.3-1.1,0.4
			c-1.5,0.2-2.9,0.9-3.5,0.5c-0.4-0.3-1.8,0.2-2.4-1c-0.1-0.1-0.3-0.3-0.4-0.3c-0.3,0-0.4-0.2-0.3-0.4c0.2-0.3-0.8-1.8-0.7-2.3
			c0-0.1,0-0.2-0.1-0.2c-0.2-0.1-0.2-0.3,0-0.3c0.1,0,0.1,0.1,0.1,0.2s0.1,0.2,0.2,0.2c0.5,0.1,0.4,1.5,1.2,2.4
			c0.1,0.2,0.3,0.5,0.3,0.7c0,0.2,0.1,0.4,0.2,0.3c0.1-0.1,0.1-0.7,0-0.9c-0.1-0.1-0.1-0.4-0.2-0.9c-0.1-1.4,0,0.3,0.4,0.3
			c0.5,0,0.6,1.5,0.9,1.3c0.2-0.2-0.2-0.6,0-0.9c0.2-0.3-0.3-0.2-0.3-0.5c0-0.1,0-0.1,0.2,0c0.2,0.2,0.3,0.1,0.2-0.3
			c-0.4-1.3-0.7-2.9-0.5-2.8c0.1,0,0.1-0.1,0.1-0.4c0-0.6,0.2-0.4,0.3,0.3c0,0.3,0.2,0.8,0.3,1c0.4,0.9-0.4,0.3-0.1,1.5
			c0.2,0.8,0.3,1.3,0.4,1.3c0.1,0,0.1,0.2,0.2,0.4c0.2,0.8,0.3,0.4,0.2-0.7c0-1.5-0.1-1.5-0.2-1.9c0-0.2-0.6-1.7-0.6-2.3l0-0.3
			c0.1,0.2,0.3,0.8,0.5,0.8c0.1,0,0.1-0.2,0.1-0.4c-0.1-0.4-0.1-0.4,0.1-0.1c0.2,0.4,0.1,0.7,0.4,1.6c0.3,0.9,0.1,1.3,0.3,1.9
			c0.1,0.3,0.1,0.4-0.1,0.5c-0.2,0.1-0.2,0.1,0.1,0.2c0.2,0.1,0.3,0.2,0.4,0.7c0.2,0.7,0.4,0.8,0.4,0.3c0-0.6,0.4-0.4,0.1-0.9
			c-0.3-0.5-0.1-1.3-0.4-1.6c-0.3-0.3,0-1-0.2-1.2c-0.1,0-0.1-0.1-0.1-0.2c0-0.1,0-0.3-0.1-0.5c-0.2-0.4-0.2-1.1,0.1-0.4
			c0.2,0.3,0.3,0.4,0.3,0.3c0.1-0.1,0.1-0.1,0.1,0.1c0,0.5,0.5,0.2,0.3,0.8c-0.1,0.2-0.1,0.4,0,0.4c0.1,0,0.1,0.1,0.1,0.2
			c0,0.1,0,0.2,0,0.3c0.3,0.4,0.4,1.2,0.2,1.4c-0.6,0.6,0.3,0,0.4,0.5c0.1,0.4,0.3,0.3,0.3-0.1c0-0.9,0.8-1,0.9-0.2
			c0.5,2.1,0.5-1.9-0.2-2.7c-0.3-0.3-0.3-0.8-0.4-1.1l0.3,0.3c0.2,0.1,0.3,0.3,0.4,0.3c0.3,0,0.8,1.7,0.6,2.1
			c-0.2,0.5,0.2-0.1,0.4,0.6c0.3,1.8,0.9,1,0.6,0.8c-0.2-0.3,0.2-1.8-0.7-2.6c-0.5-0.4,0.5-0.2,1,1.5c0.6,2.1,0.5-0.5,0.2-0.8
			c-0.2-0.2-0.2-0.2,0.2-0.1c0.2,0.1,0.4,0.2,0.5,0.3c0.1,0.1,0.1,0.2,0.2,0.1c0.1-0.1,0.6,0.2,0.6,0.4c0,0.1,0.9,2,0.6,0.6
			c-0.2-1-0.3-0.8,1.5-0.6c0.6,0.1,0.6,0.1,0.4,0.2c-0.3,0.2-0.1,0.2,0.6,0c0.3-0.1,0.8-0.2,1.1-0.2l0.6-0.1
			C276.3,83,276.2,83.3,275.9,83.2z M261.4,79.7c0,0.8,1.5,3.4,0.8,2.8c-0.2-0.1-0.2-0.1-0.3,0c-0.1,0.3-0.3,0.2-0.3-0.2
			c0-0.4-1-3.9-0.5-3.5c0.1,0,0.1,0.2,0,0.3C261.1,79.3,261.4,79.4,261.4,79.7z M265.2,79.5c0,0.1-0.1,0-0.2-0.3
			C264.6,78,265.3,79.1,265.2,79.5z M265.3,71.5c0.2,0,0.6,3.6,0.8,4.4c0,0.1,0,0.2,0,0.2c-0.1,0-0.6-2.2-0.7-3.1
			C265.3,71.9,265.2,71.5,265.3,71.5z M267.1,80.5c0,0.1,0.1,0.2,0.1,0.2c0.2,0,0,0.2,0.2,0.6c0.4,0.8,0.5,1.8,0.1,1.8
			c-0.1,0-0.2,0.1-0.2,0.1c0,0.1-0.2,0.2-0.2-0.1c0-1.1-0.5-2.4-0.5-3l0-0.3l0.2,0.3C267,80.2,267.1,80.4,267.1,80.5z M267.4,77.1
			c0,0.1,0.1,0.3,0.1,0.3c0.1,0,0.2,0.4,0.3,1.1c0,0.2,0.1,0.5,0.2,0.6c0.1,0.1,0.1,0.3,0.1,0.3c0,0-0.1,0-0.1-0.1
			c0-0.1-0.1-0.2-0.3-0.2c-0.7-0.1-0.5-1.5-0.7-2.2C266.9,76.3,267.4,76.4,267.4,77.1z M280.3,81.7c-0.3,0-1,0-1.2-0.1
			c-0.1-0.1-0.2-0.1-0.2,0c-0.1,0.2-0.1,0.2-0.4,0.1c-0.4-0.1-0.1-1.5,0.3-1.5c0.1,0,0.1-0.2,0.1-0.5c0-0.9,0.2-0.6,0.2,0.3
			c0,1.4,0.1,1.6,0.2,1.7c0.3,0.1,0.1-1.2,0.6-1.4c0.4-0.2,0.5-0.1,0.3,0.2c-0.1,0.2-0.1,0.2,0,0.3c0.1,0,0.2,0.3,0.2,0.6V81.7
			L280.3,81.7z M279,77.9c0.1,0.4-0.1,1.1-0.1,0.5c0-0.2,0-0.5-0.1-0.7C278.7,77.1,278.9,77.5,279,77.9z M280.1,78.4
			c0.1,0.1,0.1,1.4,0.1,1.4C279.9,79.8,279.9,78.3,280.1,78.4z M281,81.8c-0.6,0,0-3.1,0-1.6c0,0.5,0.2,0.2,0.2-0.2
			c0-0.7,0.1-0.8,0.2-0.8c0.2,0,0.3,1.1,0.1,1.4c-0.1,0.1-0.1,0.3,0,0.3c0.2,0.2,0.1,0.8-0.1,0.8C280.9,81.6,281.4,81.8,281,81.8z
			 M290.8,58.9c0,0.3-1.1,0.1-1.5-0.2c-0.4-0.4-0.3-0.5,0.6-0.4C290.4,58.4,290.8,58.6,290.8,58.9z M290.1,57.1
			c0-0.2,0.5-0.1,0.6,0.1c0,0.1,0.1,0.3,0,0.3C290.6,57.6,290.1,57.2,290.1,57.1z M292.1,69.3c-0.3-0.2-0.3-0.3,0.1-0.3
			c0.3,0,1.1,0.3,1.1,0.4C293.3,69.6,292.3,69.5,292.1,69.3z M293.3,70.8c0,0.1-1.3,0.1-1.4,0c-0.2-0.2-0.1-0.5,0.2-0.5
			C292.3,70.3,293.2,70.6,293.3,70.8z M291.1,67.1c-0.3-0.1-0.3-0.3,0.1-0.3c0.2,0,0.4,0,0.6,0C292.4,66.7,292.1,67.3,291.1,67.1z
			 M281.6,39.1c0.4-0.1,0.5,0,0.8,0.2c0.7,0.6,0.9,0.6,0.6,0.6c-1.2,0.1-1.4,0.1-1.8-0.3C280.9,39.3,280.9,39.2,281.6,39.1z
			 M279.9,38.6l0.5-0.2c0.3-0.1,0.6-0.2,0.6-0.2c0.1,0,0.5,0.4,0.4,0.4C281.4,38.5,280,38.6,279.9,38.6z M286.3,50.6
			c0.3,0,0.9,0.2,0.9,0.3C287.2,51.2,285.8,50.7,286.3,50.6z M288.3,53.6c0.2,0.3,0.1,0.2-0.3,0.1C285.6,53,287.8,52.5,288.3,53.6z
			 M286.5,47.4c-0.5-0.1-0.5-0.4,0.1-0.4c0.3,0,0.5,0.1,0.6,0.2C287.3,47.4,286.9,47.5,286.5,47.4z M285,44.6c0-0.1,1.1-0.2,1.4,0
			c0.3,0.1,0.1,0.4,0.4,0.4c0.1,0,0,0.1-0.4,0.1C285.9,45.1,285,44.8,285,44.6z M285.2,46.3c-0.1-0.2-0.6-0.1-0.6-0.2
			c0-0.2,0.7-0.2,1,0C286.2,46.3,285.4,46.5,285.2,46.3z M285,42.2c-0.1,0.1-0.7-0.3-0.6-0.4c0.2-0.2,1.2-0.1,1.4,0.2
			C286.2,42.4,285.3,42,285,42.2z M283,40.9c-0.3-0.3-0.1-0.4,0.6-0.3c0.5,0,1,0.3,1,0.4C284.6,41.2,283.2,41.1,283,40.9z M282.8,42
			c0.4,0,1,0.3,0.9,0.4c-0.3,0.2-1.8,0.1-1.8-0.2C281.8,42.1,282.3,42,282.8,42z M284.1,43.2c1-0.2,0.9,0.7,0.6,0.7
			c-0.3,0-0.4,0.2-0.9-0.2c-0.2-0.2-0.4-0.3-0.4-0.2c0,0-0.1,0-0.1-0.1C283.3,43.2,283.4,43.3,284.1,43.2z M284.9,49.5
			c0.3-0.1,0.8,0,0.8,0.2c0.1,0.2-0.4,0.2-0.8,0l-0.3-0.1L284.9,49.5z M285.4,51.9c0.2-0.1,0.9-0.1,1.1,0.1c0.2,0.2,0.2,0.2-0.4,0.2
			C285.5,52.2,285.1,52,285.4,51.9z M287.8,54.7c0.2,0.2,0.2,0.2-0.3,0.2c-0.3,0-0.6,0-0.6-0.1c0-0.1-0.2-0.2-0.3-0.2
			C286,54.5,287.5,54.5,287.8,54.7z M289.1,57.4l0.4,0.3l-0.3,0c-0.2,0-0.6,0-0.8,0c-0.4,0-1.1-0.3-1.1-0.6
			C287.2,56.9,288.8,57.1,289.1,57.4z M288.9,59.8c0.5,0,1.3,0.3,1.3,0.4c0,0.2-1.3,0-1.6-0.2l-0.3-0.2H288.9z M290.8,62.6
			c0,0.2-1.3,0.2-1.5,0c-0.2-0.2-0.2-0.2,0.4-0.2C290.3,62.3,290.8,62.4,290.8,62.6z M291.5,64.8l0.3,0.2l-0.7,0
			C289.4,65,290.8,64.2,291.5,64.8z M292.6,65.6c0.4,0,0.6,0.3,0.3,0.4C291.9,66.3,291.4,65.6,292.6,65.6z M290.6,63.4l0.7,0
			c0.6,0,1.6,0.2,1.6,0.5C292.9,64,291.7,64.1,290.6,63.4z M291.7,61.4c0,0.1-0.1,0.1-0.1,0.1c-0.1-0.1-0.8,0.3-1,0
			c-0.1-0.1-0.2-0.2-0.3-0.2c-0.2,0-0.2-0.2,0-0.3c0.1,0,0.3,0,0.6,0C291.2,60.9,291.8,61.2,291.7,61.4z M291,60.1
			c-0.5-0.3-0.5-0.4,0.1-0.4c0.5,0,1,0.3,0.7,0.5C291.7,60.3,291.4,60.3,291,60.1z M288.8,56.1c-0.2-0.1-0.4-0.2-0.5-0.2
			s-0.2-0.1-0.1-0.1c0.1-0.2,1.1-0.1,1.1,0.1c0.1,0.2,0.3,0,0.5,0.3C290,56.4,289.1,56.4,288.8,56.1z M289.4,50.6
			c0.1,0,0.3,0.1,0.3,0.2c0.1,0.3-0.1,0.3-0.3,0.1C289.1,50.6,289.1,50.6,289.4,50.6z M288.5,49.1c0.3-0.2,1.3,0,1.6,0.3l0.3,0.3
			C288.8,49.7,288.4,49.2,288.5,49.1z M288.1,48.1c0.1,0,0.4,0,0.5,0.2l0.3,0.2C287.8,48.4,287.8,48.2,288.1,48.1z M286.4,45.8
			l0.7,0c0.7,0,1.7,0.1,1.7,0.3C288.8,46.3,287.6,46.4,286.4,45.8z M286.6,43.5c0-0.1-0.1-0.2-0.2-0.2c-0.7-0.1-0.7-0.4-0.1-0.5
			c0.5-0.1,0.6-0.1,0.7,0.1c0.1,0.1,0.3,0.3,0.5,0.4c0.2,0.1,0.3,0.2,0.3,0.2C287.8,43.7,286.6,43.7,286.6,43.5z M286,40.8
			c-0.4,0.2-1.4-0.4-0.6-0.5c0.6,0,0.9-0.1,1.4,0.2l0.4,0.2l-0.4,0.1C286.2,41,286.5,40.6,286,40.8z M283.6,39.4
			c-0.5-0.3-0.4-0.5,0.2-0.5c0.5-0.1,0.6,0,0.9,0.2c0.2,0.2,0.4,0.3,0.5,0.3s0.2,0.1,0.3,0.2C285.8,39.9,284.1,39.7,283.6,39.4z
			 M282.9,38.4c-0.6,0-0.7,0-0.6-0.3c0-0.1-0.1-0.1-0.2-0.1c-0.1,0-0.2,0-0.3-0.1c-0.1-0.3,1.5-0.3,1.7,0.3
			C283.5,38.4,283.4,38.4,282.9,38.4z M282.2,33.6c0.6,0,0.9,0.1,0.9,0.2C283.2,34.4,280.7,33.6,282.2,33.6z M282,35.1
			c0.1,0.1,0.3,0.2,0.4,0.2c0.1,0,0.2,0,0.2,0.1c0,0.3-1.2,0.2-1.8-0.1c-0.6-0.3-0.5-0.5,0.3-0.5C281.6,34.8,281.8,34.9,282,35.1z
			 M280.2,36.7c0-0.1-0.1-0.2-0.3-0.2c-0.5-0.1-0.2-0.3,0.3-0.3C282,36.2,280.2,37,280.2,36.7z M280.4,40c0.3,0.2,0.1,0.3-0.3,0.2
			c-0.2-0.1-0.3-0.1-0.3,0c0,0-0.1,0-0.2-0.1c-0.2-0.2-0.2-0.2-0.1-0.3C279.9,39.4,279.8,39.7,280.4,40z M282.1,41.2
			c0,0.2-1.3,0.2-1.4,0c0-0.1-0.2-0.1-0.3-0.1C279.5,41.1,282.1,40.4,282.1,41.2z M282.7,43.7l0.4,0.3l-0.6,0
			C280.3,44,281.7,42.9,282.7,43.7z M282.6,46.1c0.3-0.2,0.7-0.1,1.1,0.1c0.3,0.3,0.2,0.4-0.4,0.3C282.5,46.4,282.4,46.3,282.6,46.1
			z M283.4,44.7c0.3-0.1,0.9,0.1,1,0.4C284.5,45.5,282.4,45,283.4,44.7z M285,50.9c0.2,0.2,0.2,0.2-0.4,0.2
			C283.3,51.1,284.5,50.3,285,50.9z M285.1,53.1c0.3-0.1,0.8,0.2,0.8,0.4c0,0.2-0.6,0.2-0.6,0c0-0.1-0.1-0.1-0.2-0.1
			C284.8,53.4,284.8,53.2,285.1,53.1z M287.7,56.4l-0.4,0c-0.6,0-0.7-0.3-1-0.2c-0.2,0.1-0.4-0.1-0.4-0.3
			C285.9,55.7,286.4,55.6,287.7,56.4z M287.5,58.5c0.6,0.1,0.8,0.3,0.5,0.5c-0.2,0.2-0.3,0.2-0.6,0
			C286.7,58.8,286.8,58.4,287.5,58.5z M289.4,61.6l-0.6,0c-0.6,0-0.7,0-0.7-0.3C288.1,61.1,288.5,60.9,289.4,61.6z M289.8,63.8
			c0.3,0.3-0.4,0.2-0.6,0C288.9,63.5,289.6,63.6,289.8,63.8z M290.7,66l0.4,0.2l-0.6,0C289.2,66.1,290.1,65.7,290.7,66z M291.2,68.2
			c0.3,0,0.4,0.2,0.2,0.2c-0.4,0-0.5-0.1-0.5-0.3C290.8,67.8,290.8,68.2,291.2,68.2z M292.9,77.1c-0.1,0-0.2,0.1-0.2,0.3
			c0,0.2-0.3,1.1-0.2-0.2c0-2.9-1.1-2.7-0.6-2.2c0.2,0.2,0.3,2.9,0.1,3.1c-0.1,0-0.1,0.2-0.1,0.3c0.1,0.3-0.3,0.6-0.6,0.8l0.1-0.8
			c0.1-0.9,0.1-2.9,0-3.8c0-0.3,0-0.6,0.1-0.6c0.2,0-0.1-0.2,0.2-0.2c0.6,0,0.7,0.4,0.4,0.3c-0.3-0.2-0.1,0.3,0.2,0.6
			c0.2,0.2,0.3,0.4,0.4,0.7c0,0.7,0.4,0.6,0.3,1.2c0,0.2,0,0.4,0,0.4c0.1,0,0.1,0.1,0.1,0.1C293.1,77.1,293,77.1,292.9,77.1z
			 M294.3,78.4c-0.5,0.2-0.9,0-0.7-0.3c0.1-0.1,0.2-0.1,0.5,0C294.4,78.3,294.5,78.3,294.3,78.4z M295.1,77l-0.4,0.1
			c-0.4,0.1-0.8-0.1-0.8-0.3C294,76.3,294.8,76.8,295.1,77z M294,75c0.3-0.1,1,0.1,1,0.3c0,0.2,0.4,0.1,0.5,0.2
			c0.1,0.1-1.5,0.2-1.8,0C293.4,75.4,293.6,75.1,294,75z M294.3,73.2c-0.2,0-1.1-0.1-1.3,0c-0.2,0.1-0.5-0.2-0.4-0.5
			c0.1-0.3,0.8-0.2,1.2,0.1L294.3,73.2z M295.4,71.9c-2.1,0-1.9,0-2.6-0.4C294.5,71.1,294,71.3,295.4,71.9z M295.8,70.8
			c0.1,0.1-0.1,0.1-0.2,0c-0.2-0.1-1.8,0.1-2.1-0.7C293.4,69.8,295.1,70.3,295.8,70.8z M294.6,68.3c0,0.2-1.9,0-2.1-0.2
			c-0.3-0.3-0.6-0.1-0.3-0.4C292.4,67.4,294.6,68,294.6,68.3z M294.9,67c-0.2,0.2-1.2,0.1-1.5-0.1c-0.9-0.5,0.2-0.2,0.7-0.3
			C294.2,66.5,295,66.9,294.9,67z M295.8,66.9c0,0.3-0.5,0-0.5-0.4C295.3,66.2,295.9,66.2,295.8,66.9z M295.3,65.8
			c0,0.2-1,0.1-1.3-0.1l-0.3-0.2l0.4,0C294.9,65.4,295.3,65.6,295.3,65.8z M294.5,65c-1.6,0-1.5,0-2.2-0.4
			C293.5,64.3,293.6,64.3,294.5,65z M294.7,61.5c-0.3,0.2-0.4,0.1-0.7-0.3C293.2,60.2,295,61.4,294.7,61.5z M293.7,63.6
			c-0.6-0.3-0.7-0.5-0.2-0.5C294,63.2,295,64.4,293.7,63.6z M293.6,62.7c-0.1,0-2.5-0.1-1.7-0.6C292.6,61.7,293.7,62.8,293.6,62.7z
			 M293.4,58.9c-0.4,0-0.6-0.2-0.6-0.5c0-0.1,0.4-0.1,0.5,0.1C293.4,58.8,294.1,58.9,293.4,58.9z M292.7,56.8c0.3,0,0.5,0,0.6,0
			c0,0.1,0.1,0.1,0.2,0.1c0.1,0,0.4,0.2,0.6,0.4l0.4,0.4c-1.1,0.1-1.4,0.1-1.5-0.1c-0.1-0.1-0.2-0.2-0.3-0.2
			C292.2,57.3,292.1,56.9,292.7,56.8z M292.3,54.5c0.1,0.1,0.2,0.2,0.3,0.2s0.2,0.1,0.2,0.1c0,0.1-0.2,0.2-0.3,0.1
			c0,0-0.3-0.1-0.6-0.1c-0.3,0-0.5-0.1-0.6-0.2c0-0.1-0.2-0.2-0.3-0.2C290.7,54.5,291.9,53.9,292.3,54.5z M290.1,52
			c-0.4-0.1-0.4-0.3,0.1-0.5c0.3-0.1,1.2,0.3,1.2,0.4C291.4,52.1,290.4,52.1,290.1,52z M292.3,51.3c0.6,0,0.9,0.2,0.7,0.4
			c-0.1,0.1-0.1,0.2-0.1,0.3c0.2,0.2-0.4,0.1-0.9-0.2C291.4,51.5,291.5,51.3,292.3,51.3z M291.8,50.6c0,0.1,0.1,0.2,0.3,0.2
			c0.4,0.2-0.8,0.1-1.2-0.1c-0.7-0.2-0.7-0.4-0.1-0.5C291.2,50.2,291.8,50.4,291.8,50.6z M291.2,48.4c-1,0-0.4-0.1-1.1-0.1
			c-0.5,0-0.9-0.3-0.7-0.4C290.5,47.3,293.1,48.5,291.2,48.4z M291.1,46.5c0.3,0,0.5,0.2,0.5,0.7c0,0.2-0.3,0.2-0.4,0
			c0-0.1-0.2-0.2-0.4-0.3C290.3,46.7,290.5,46.5,291.1,46.5z M290.6,47.4l-1,0c-1.5,0-2-0.3-0.8-0.5
			C289.6,46.6,289.5,46.7,290.6,47.4z M288.4,44.2c0.3-0.1,0.4-0.1,0.8,0.2c0.2,0.2,0.6,0.4,0.7,0.5c0.2,0.1-0.6,0.2-1.2,0.1
			c-0.5-0.1-1.2-0.6-1-0.7c0.1,0,0.2,0,0.3,0C288,44.3,288.2,44.3,288.4,44.2z M287.3,41.4c0.7-0.2,0.8-0.1,1.7,0.6
			c0.3,0.3-1.8,0.1-2.2-0.1c-0.3-0.2-0.4-0.4-0.2-0.3C286.6,41.5,287,41.5,287.3,41.4z M287.8,39.2c0.4,0.1,0.4,0.3,0,0.3
			c-0.2,0-0.5,0-0.7,0c-0.8,0.1-0.9-0.7-1.3-0.7c-0.4,0,0.1-0.3,0.6-0.3C287.4,38.5,287,39,287.8,39.2z M286.8,36.7
			c0.3,0.2,0.2,0.1-0.9,0.2C284.6,37,286.3,36.4,286.8,36.7z M285.5,37.6c0,0,0.2,0.2,0.4,0.3l0.4,0.3c-0.4,0-1.4,0-1.4-0.1
			c0-0.1-0.1-0.1-0.2-0.1c-0.2,0-0.7-0.1-0.7-0.3C284,37.6,285.5,37.4,285.5,37.6z M285.3,33.5c0.2,0.2,0.4,0.3,0.5,0.3
			c0.1,0,0.1,0,0.1,0.1c-0.2,0.2-1.6,0.1-2,0c-0.5-0.3-0.4-0.5,0.2-0.5C284.9,33.4,284.9,33.2,285.3,33.5z M284.1,32.7l0.4,0.3
			l-0.9,0C281.1,33,283.3,31.9,284.1,32.7z M283,30.5c0.5,0.4,0.1,0.3,0,0.2c0-0.1-0.2-0.1-0.3-0.1C281.4,30.5,281.9,29.6,283,30.5z
			 M280.7,29.2c0.1,0,0.3,0,0.4,0c0.1,0,0.3,0.1,0.5,0.3c0.3,0.3,0.2,0.4-0.5,0.2C280.7,29.4,280.5,29.2,280.7,29.2z M281,31.4
			c0.1,0,0.4,0,0.7-0.1c0.5-0.1,0.6,0.1,1.3,0.6l-0.8,0C281.4,31.9,280.3,31.4,281,31.4z M280.6,32.8c0.2,0.1,0.3,0.1,0.5,0
			c0.2-0.1,1,0,0.8,0.2c-0.2,0.2-1.4,0.2-1.7-0.1C279.9,32.6,280.1,32.5,280.6,32.8z M280.2,34.2c-0.5,0-0.7,0.2-1.3-0.2l-0.4-0.3
			C280.4,33.9,280.8,34.2,280.2,34.2z M273.6,30.5c0.4,0.3,0.4,0.1,0.6,0.5c0.2,0.4,0.5,0.1,0.8,0.4c0.2,0.3,0.5,0.1,0.7,0.4
			c0.2,0.3,0.6,0.2,1.2,0.6c1.3,0.9,1.7,0.7,1.5,1.1c-0.1,0.3-0.1,0.3-1.5-0.7c-0.3-0.2-0.5-0.3-0.6-0.3c-0.1,0.1,0.4,0.4,0.8,0.8
			c0.4,0.4,1,0.7,1.3,1c0.3,0.4,0.6,0.2,0.4,0.4c-0.5,0.5,0.6,0.1,1.1,0.8c0.4,0.4,0.8,0.3-0.1,0.4c-0.9,0.1-0.7-0.1-1.4-0.4
			c-0.2-0.1-0.4-0.2-0.4-0.2c0-0.1-1.2-0.6-1.3-0.6c-0.1,0.1,0.7,0.9,1,1.1c0.2,0.1,0.3,0.3,0.3,0.5c0,0.3,0,0.3,0.3,0.2
			c0.4-0.1,1.3,0.6,1,0.8c-0.4,0.2-0.2-0.1-0.7,0c-0.2,0-0.3,0.1-0.2,0.2c0,0.1,0,0.1,0,0.1c-0.1,0-0.4-0.5-0.4-0.7
			c0-0.1-0.1-0.2-0.2-0.2c-0.2-0.1-0.6-0.8-0.5-0.8c0,0,0-0.1-0.2-0.3c-0.4-0.4-0.7-0.9-0.7-1.2c0-0.1-0.1-0.3-0.2-0.4
			c-0.3-0.2,0-0.5-0.5-0.7c-0.2-0.1-0.3-0.2-0.3-0.3c0-0.1-0.1-0.1-0.1-0.1c-0.2,0-0.7-0.5-0.7-0.6c0-0.2-0.8-0.9-1-0.9
			C272.9,31.2,273,30,273.6,30.5z M272.1,26.3c0-1,0.4,1.8,0.1,1.6c-0.1,0-0.1,0-0.1,0.1c0,0.2-0.2,0.2-0.4,0
			C271.5,27.6,272.1,26.5,272.1,26.3z M272.1,29.8c0,0.4-0.2,0.4-0.6-0.1C270.8,28.5,272.1,29.2,272.1,29.8z M271.7,32.5
			c-0.2,0.3-0.6,0-0.7-0.5c0-0.2-0.2-0.4-0.4-0.5c-0.4-0.2-1-1.2-0.1-0.4C270.6,31.3,271.9,32.2,271.7,32.5z M270.8,33.6
			c-0.2-0.3-0.3-0.6-0.4-0.6c-0.1,0-0.2-0.2-0.3-0.4c-0.1-0.2-0.4-0.6-0.7-0.9c-0.3-0.3-0.6-0.7-0.7-0.9c-0.1-0.2-0.2-0.4-0.2-0.4
			c-0.2,0-1.4-2.2,1,0.7c1,1.2,0.9,1,1.2,1.7c0.3,0.8,0.6,0.9,0.5,1.2C271.1,34.1,271,34,270.8,33.6z M270.8,36
			c-0.5-1.2-1.7-3.5-1.7-3.5c-0.1-0.7,0.6,0.6,1.6,2.8C271.1,36.4,271,36.5,270.8,36z M268.7,32.1c0-0.2-1-1.1-0.6-1.1
			c0.1,0,0.3,0.3,0.5,0.6C269.2,32.5,268.7,32.3,268.7,32.1z M267.1,26c0.2,0.2,0.3,0.3,0.3,0.2c0-0.1,0.7,0.3,0.7,0.4
			c0,0.1,0.1,0.1,0.1,0.1s0.4,0.2,0.6,0.4c1.7,1.3,2,1.3,1.8,2.1c-0.2,0.7-0.9-0.3-1.4-0.3c-0.2,0,0-0.2-0.4-0.3
			c-0.1,0-0.2-0.2-0.2-0.3c0-0.1,0-0.2-0.1-0.2c-0.2,0-0.3,0-0.2-0.1c0.1-0.1,0.1-0.1-0.1-0.2c-1-0.4-0.5-1.3-1-1.2
			c-0.3,0.1-0.5-0.4-0.5-0.3c0,0.1-0.3-0.2-0.6-0.6C266,25.3,266.7,25.6,267.1,26z M267.3,30.1c0-0.1,0-0.2-0.1-0.2
			c-0.2,0-1-1.3-0.9-1.5c0.2-0.5,0.2,0.3,0.5,0.5c0.1,0,0.1,0.2,0.1,0.3s0.1,0.3,0.2,0.5c0.1,0.1,0.2,0.3,0.2,0.4s0,0.1,0.1,0.1
			s0.2,0.1,0.2,0.3C268.1,31.2,267.3,30.5,267.3,30.1z M266.2,27.5c0.1,0.1,0.2,0.3,0.2,0.4c0,0.2-0.3,0.3-0.3-0.2
			C266,27.3,266,27.3,266.2,27.5z M259.6,25.7l0,0.5c0,0.6-0.1,0.9-0.3,0.5C259.3,26.3,259.5,25.9,259.6,25.7z M256.3,49.4l0.2,0.4
			c0.2-0.4,0.3-0.5,0.2-2.3c-0.1-3.2-0.1-3.6,0-3.6c0.1,0.1,0.1,0,0-0.1c-0.6-0.7,0.4-7.5,0.4-7.6c0-0.5,0.2-0.7,0.2-0.1
			c0,0.9,0.4-0.1,0.1,1.9c-0.4,3.8-0.2,4.9-0.5,5.1c-0.1,0.1-0.1,0.1,0,0.3c0.1,0.1,0.2,0.4,0.2,0.9c0,1.1,0.2,2.2,0.2,3.3
			c0,1,0.2,0.7,0.2,1.2c0,0.7,0.4,1.1,0.3,0.3c0-0.3,0-0.6,0.1-0.7c0.1-0.2,0-0.3,0-0.3c-0.2,0-0.2-2.7,0-2.6
			c0.1,0.1,0.2-0.2-0.1-0.3c-0.3-0.1-0.1-2.6-0.3-3c-0.1-0.3,0.1-0.6,0.1-0.8c-0.1-0.5,0-3.2,0.1-3.5c0.1-0.2,0.2-0.8,0.2-1.5
			c0-1.2,0.3-2.2,0.3-1.1c0,0.5,0.2,0.5,0.3,0c0.1-0.4,0,2,0.2,2c0.2,0,0.1-0.5,0.2-1.4c0.1-0.7,0.4-4.1,0.4-4.1
			c0.1-0.2-0.3-0.4-0.5,0.8c-0.3,2.4-0.7,0.4-0.5-0.3c0.3-1.3,0.1-1.8-0.2-0.6c-0.1,0.5-0.5,1.6-0.5,1.6c0,0.1-0.1,0.1-0.1,0.1
			c-0.1-0.1-0.1-1.6,0.1-2.1c0.1-0.3-0.3-0.4-0.4,0.3c-0.1,0.3-0.2,0.5-0.3,0.5c-0.3,0.1-0.3-1.6,0-1.7c0.2-0.1,0.1-0.4,0.3-0.4
			c0.1,0,0.2-0.2,0.3-0.4c0.2-0.4,0.3-0.5,0.4-0.1c0,0.3,0.7-1,0.7-1.4c0-0.1,0.1,0,0.2,0.2c0.3,0.7,0,0.1,0.4-0.5
			c0.1-0.2,0.2-0.4,0.2-0.5c0-0.4,0.2,0,0.2,0.4c0,0.4,0.3,1.8,0.4-1.9c0-0.7,0.5,0.3,0.6,1.3c0.1,0.6,0.3,0.5,0.3-0.1
			c0-2.8,0.7-1.9,0.5-1.5c-0.2,0.4,0.4,1.7,0.5,2c0,0.1,0-0.4,0-1.2c-0.1-1.1,0.1-2.2,0.2-1.3c0.1,0.9,0.2,1.2,0.3,1.5
			c0.1,0.2,0.2,0.4,0.2,0.5c0,0.1,0,0.2,0.1,0.2c0.1,0.1,0.8,1.6,0.8,1.8c0,0.3,0.7,2.1,1,2.5c0.1,0.2,0.3,0.5,0.4,0.6
			c0.1,0.1,2.4,3.2,2.4,3.9c0,0,0.6,1.3,0.7,1.9c0.1,0.8,0.2,0.1,0.4,1.3c0,0.4,0.1,0.8,0.2,0.8c0.2,0.1,0.1,0.5-0.1,0.5
			c-0.1,0-0.1,0.1,0.1,0.2c0.3,0.3,0.3,4.1-0.1,5.6c-0.1,0.4,0.3,0.3,0.3-0.3c0-0.2,0.1-0.6,0.2-0.8c0.3-0.8,0.5-4,0.2-4.4
			c-0.1-0.2-0.1-1.8-0.3-2.2c-0.2-0.4-0.6-2-0.8-2.4c-0.6-1.1-1.1-2.1-1.1-2.1c-0.4-0.9-0.3-0.3-0.9-1.4c-0.4-0.7-1-1.4-1-1.4
			c0-0.1-0.6-0.9-0.5-1.1c0-0.1,0-0.2-0.1-0.2c-0.1,0-0.2-0.2-0.3-0.4c-0.2-0.6-0.4-0.2-0.4-0.7c0-0.2-0.1-0.3-0.1-0.4
			c-0.1-0.1-0.5-1.2-0.6-1.4c0,0-0.1-0.2-0.4-1.1c-0.4-1.5-0.2-1.5,0.3-0.1c0.1,0.5,0.5,1.3,0.7,1.8c0.6,1.3,0.3,1.3,0.6,1.4
			c0.4,0.1,0.4,1,0.7,1.3c0.2,0.2-0.1,0.5,0.1,0.4c0.2-0.1,0,0,0.5,0.5c0.5,0.6,0.6,0.8,1.2,1.5c0.9,1.1,2.5,4.4,2.4,5
			c0,0.1,0,0.2,0.1,0.3c0.2,0.2,0.2,0.6,0.3,0.9c0.2,0.4,0.3,1.7,0.2,1.7c-0.1,0,0,0.2,0.1,0.5c0.3,0.6,0.4,5,0.7,4.6
			c0.1-0.1,0.2-6.5-0.7-8.2c-0.3-0.7-0.2-1-0.4-1.2c-0.1-0.1-1.7-3.2-2.2-3.7c-0.2-0.2-0.6-0.9-0.7-0.9c-0.1,0-0.1-0.4-0.2-0.4
			c-0.2,0-0.1-0.4-0.2-0.4c-0.1,0-0.4-0.9-0.5-0.8c-0.1,0.1-0.4-0.3-0.4-0.6c0-0.1,0-0.2-0.1-0.2c-0.3-0.1-0.7-1.7-1-1.9
			c-0.5-0.5-0.9-2.5-0.7-2.1c0.1,0.3,1.1,1.3,1.1,1.6c0,0.3,0.2,0.1,0.2,0.4c0,0.1,0,0.2,0.1,0.2s0.2,0.2,0.3,0.5
			c0.2,0.8,0.8,1.3,1,2c0.1,0.2,0.3,0.6,0.5,0.8c0.9,0.9,2.3,3.4,2.2,3.8c0,0.1,0,0.2,0.1,0.3c0.2,0.1,0.9,1.6,0.9,2
			c0,0.5,0.2,0.4,0.5,1.4c0.3,1.1,0.4,1,0.5,1.8c0.1,1,0.2,0.6,0.3,2c0.1,1.9,0.2,1.5,0.2,5.8c0,3.2,0.1,3.8,0.3,3.6
			c0.1-0.1,0.1-2.2,0.2-5.8c0-0.8,0-1.4-0.1-1.5c-0.1-0.1-0.1-0.6,0.1-0.7c0.1-0.1,0.1-0.1,0-0.2c-0.2-0.1-0.3-2.7-0.2-2.8
			c0.1-0.1,0.4,1.7,0.5,2.2c0.1,0.4-0.3,0.2,0,0.5c0.1,0.1,0.2,0.3,0.1,0.3c-0.1,0.2-0.2,5.9-0.1,6c0.1,0.2,0.1,0.9,0.3,1.8
			c0.2,1,0,7.2,0,7.4c0,0-0.1,8.2,0.2,11c0.1,0.9,0.2,4.1,0.3,4.2c0.1,0.1,0,1.7,0.2,1.9c0.1,0.2,0.5,1.9,0.4,2
			c-0.1,0.2-0.3,0.1-0.3-0.1c0-0.3-0.4-0.3-0.4-0.5c0-0.4-0.4-0.3-0.3-0.8c0-0.2,0-0.3-0.1-0.3c-0.1,0-0.1-0.1-0.1-0.1
			c0-0.1,0-0.3-0.1-0.5c-0.1-0.2-0.1-0.7-0.2-1c-0.1-0.9-0.3-0.2-0.2-0.8c0-0.2,0-0.4,0-0.5c-0.1,0-0.1-0.1-0.1-0.2
			c0-0.1,0-0.2,0-0.3c-0.3-0.6-0.5-8.1-0.2-8.2c0.2-0.1,0.2-0.4,0-0.7c-0.1-0.2-0.1-0.3-0.1-0.5c0.1-0.2,0.1-0.3,0-0.4
			c-0.1-0.2-0.3-3.6-0.2-3.8c0.1-0.2,0.1-2.2-0.1-2.6c-0.1-0.2,0-0.2,0.2-0.2c0.4-0.1,0.3-0.2,0.2-0.7c0-0.5-0.3-0.5-0.3,0.1
			c0,0.4,0,0.4-0.1,0.2c-0.2-0.5,0.2-0.4,0.1-1.1c-0.2-1.7-0.2-4.8-0.4-5c-0.3-0.3-0.1,4.9-0.3,5.4c0,0.1,0,0.2,0,0.2
			c0.1,0,0.1,1,0.1,2.3c0,1.8,0,2.3-0.1,2.3c-0.1,0-0.1,0,0,0.1c0.3,0.2,0.2,4.4,0.3,4.7c0.1,0.2-0.2,0-0.2-0.3
			c0-0.2-0.1-0.2-0.2-0.2c-0.1,0.1-0.2,0.2-0.1,0.5c0.1,0.5,0.2,0.5,0.3,0.3c0.1-0.2,0.2,0,0.2,0.6c0,1.5,0.4,4.8,0.4,7.4
			c0,0.9,0.1,1.6,0.1,1.6c0,0,0.1,0.3,0.1,0.7c0,0.9,0.2,1.2,0.3,2c0.1,0.8,0.3,1.4,0.1,1.4c-0.1,0-0.1-0.2-0.1-0.4
			c0-0.2-0.1-0.4-0.3-0.5c-0.5-0.4,0.3-0.3-0.2-0.6c-0.4-0.2-0.3-0.7-0.6-2c-0.2-0.6-0.2-0.7,0-0.9c0.2-0.3,0.1-1-0.2-1.1
			c-0.3-0.2-0.1-0.3-0.3-1c-0.1-0.7-0.1-1.5-0.3-3.3c-0.2-1.6-0.2-5.8-0.3-6c-0.2-0.3,0.6-1.1,0.1-1.1c-0.1,0-0.2-0.1-0.1-0.2
			c0.1-0.1,0.1-0.6,0.1-1.2c-0.1-0.9,0-0.9,0.2-1c0.2-0.1,0.3-0.1,0.2-0.4c-0.1-0.4-0.3-0.7-0.3-0.3c0,0.5,0,0.6-0.1,0.4
			c-0.2-0.4,0.2-1.3,0-1.6c-0.1-0.1-0.1-0.2,0-0.2c0.1-0.1,0.1-2,0-2.4c-0.1-0.4,0.3-0.8,0.1-0.9c-0.2-0.1-0.1-3.8-0.2-3.9
			c-0.3-0.3-0.4,4.9-0.4,5.3c0,1.6-0.1,2.1-0.1,2.1c0.1,0.1,0.1,5.6,0.2,5.7c0,0,0,0.2-0.1,0.3c-0.1,0.1-0.1,0.2,0,0.3
			c0.2,0.2,0.2,1.4,0,1.5c-0.1,0.1-0.1,0.1,0,0.3c0.1,0.1,0.1,0.4,0.1,0.6c0,0.2,0,0.4,0.1,0.4c0.1,0,0.1,0.1,0,0.2
			c0,0.1,0,0.4,0,0.5c0.1,0.4-0.1,1.1-0.1,0.8c0-0.2-0.1-0.2-0.1-0.1c-0.2,0.2-0.1,1.3,0.2,1.3c0.1,0,0.2,0,0.2,0.2
			c0,0.4,0.4,3.5,0.4,3.6c0.2,0.3,0.6,4.1,0.9,5.6c0.2,0.8,0.3,1.5,0.2,1.6c0,0.1,0,0.3,0.1,0.4c0.2,0.3-0.1,0.5,0.2,0.6
			c0.1,0,0.2,0.1,0.2,0.2c-0.1,0.3,0,0.4,0.2,0.3c0.3-0.3-0.2-0.7,0-1c0.2-0.2,0.3-0.7,0.2-0.8c-0.1-0.1,0-0.8,0.1-0.8
			c0.1,0,0.3,1.6,0.3,2.5c0,0.8,0.5,0.9,0.5,0.1c0-0.6,0.2-1.9,0.3-2.2c0-0.1,0-0.2,0-0.3c-0.1-0.1-0.2-0.4,0-0.4
			c0.2,0,0.5,1.1,0.6,2.2c0.1,1.8,0.5,2.1,0.5,0.4c0-0.5,0-1,0.1-1.3c0.1-1-0.8-3.3-0.8-4.4c0-0.6-0.2-0.1-0.3-1.1
			c-0.1-1.1-0.1-0.3-0.2-1.5c-0.1-1.3-0.3-0.7-0.3-2.2c0-1.6-0.3-1.6,0-1.5c0.4,0.2,0.3-0.5-0.1-1c-0.1-0.1-0.1-0.6-0.1-1.4
			c0-0.3-0.1-4.4,0.1-4.6c0.1-0.1,0.1-0.2,0.1-0.3c-0.1-0.1-0.1-0.9-0.1-1.7c0.1-2.9,0-7.9-0.1-8.9c-0.1-0.7-0.1-1,0.1-1
			c0.2,0,0.3,0.6,0.2,1c0,0.2,0,0.4,0,0.4c0.2,0,0.1,0.7,0.3,0.9c0.2,0.2,0.2,1.4,0.5,2.4c0.3,1,0.2,1,0.4,1.6
			c0.1,0.6,0.1,0.7,0.4,1.4c0.3,0.8,0,0.8,0.2,0.9c0.3,0.1,0.1,0.3,0.5,0.8c0.2,0.2,0.8,1.2,1.6,1.2c0.3,0,0.4,0,0.4,0.2
			c0,0.1,0,0.2,0,0.2c0.2,0,0.2,0.8,0,1.2c-0.1,0.3-0.2,0.3-0.5,0.2l-0.4-0.1c0,0.4,0,2.4,0.8,2.4c0.4,0,0.2,0.4,0.5,0.4
			c0.2,0,0.8,0.7,0.8,1c0,0.1,0.1,0.3,0.3,0.5c0.2,0.2,0.3,0.5,0.3,0.7c0,0.3,0.3,0.7,0.4,0.5c0.3-2.3-1.1-5.6-0.4-5.6
			c0.3,0,0.2,0.3,0.3,1c0.1,0.7,0.3,4.4,0.6,4.9c0.2,0.3,0-1.8-0.2-5c-0.1-1.2-0.1-0.9-0.2-1.7c-0.4-3.3-0.9-3.3-0.7-2.1
			c0.2,0.7,0.2,0.9,0.3,1.9c0.1,0.8,0.1,0.8-0.2,0.6c-0.3-0.2-0.5-1.1-0.3-1.3c0-0.1,0-0.2,0-0.2c-0.1,0-0.2-0.3-0.2-0.6
			c-0.3-2.2-1.2-3.5-0.7-2c0.3,1.1-0.6,0.1-0.8-0.8c-0.2-0.6-0.5-1.7-0.6-2.1c-0.1-0.3-0.4,0.3-0.4,0c0-0.3-0.9-1.4-0.6-1.7
			c0.1-0.1,0.1-0.2-0.1-0.3c-0.1-0.1-0.3-0.4-0.4-0.7c-0.2-0.8-0.4-0.7-0.3-1.2c0.1-0.5-0.2-0.3-0.1-0.6c0.1-0.3-0.2-0.1-0.2-0.3
			c0.1-0.4-0.4-0.9-0.3-1.2c0.1-0.3-0.4-0.7-0.3-0.9c0.1-0.1-0.3-1.5-0.5-1.5c0,0-0.2,0-0.3,0c-0.2,0-0.2,1.4,0,1.7
			c0,0.1,0,0.1-0.1,0.1c-0.3,0-0.2,0.4-0.1,0.4c0.1,0,0.1,0.8,0,1.2c-0.1,0.3-0.1,0.6-0.3-2c0-0.3,0-0.8,0.1-1
			c0.1-0.2,0.1-0.3,0-0.3c-0.1,0,0-1.2,0-1.2c0.1,0,0.2-4.2-0.1-4.6c-0.1-0.2,0-1.6-0.2-1.6c-0.1,0-0.3-1.8-0.5-1.8
			c-0.2,0-0.1-0.4,0-0.4c0.1,0,1,2.6,1.2,3.5c0.1,0.5,0.4,0.5,0.3,0.1c-0.1-0.4-0.3-2.1-0.2-2.3c0-0.1,0-0.2-0.1-0.2
			c-0.1,0-0.2-1.6-0.4-1.7c-0.2-0.1,0.3-0.4,0-0.4c-0.2,0-0.1-0.4-0.2-0.5c-0.1,0-0.3-0.5-0.6-1.1c-0.7-1.5-0.5-1.7,0.3-0.3
			c0.4,0.7,0,0.6,0.3,0.9c0.2,0.3,0.7,1.6,0.6,1.8c0,0.1,0,0.1,0.1,0.1c0.2,0,0.1,0.6,0.2,0.6c0.2,0,0.3,0.6,0.2,0.8
			c-0.1,0.1-0.1,1.3,0,1.6c0,0.1-0.1,0.5,0.2,0.4c0.3-0.1,0.2,0.7,0.5,0.7c0.1,0,0.1-1.3,0-1.5c-0.1-0.2-0.2-1.3-0.1-1.4
			c0,0,0.1,0.1,0.2,0.3c0.1,0.5,0.3,0.4,0.3-0.1c0-0.4-0.2-0.7-0.5-0.6c-0.1,0-0.2-0.1-0.2-0.5c0-0.3-0.1-0.7-0.2-0.8
			c-0.1-0.2-0.1-0.4-0.1-0.5c0-0.2-0.3-0.9-0.4-1.3c-0.1-0.4-0.3-0.2-0.2-0.5c0.1-0.3,0.8,1.4,1,1.6c0.1,0.1,0.1,0.2,0.1,0.3
			c0,0.1,0.1,0.4,0.2,0.7c0.1,0.3,0.3,0.7,0.3,0.9c0.1,0.5,0.4,0.5,0.3,0c0-0.2,0-0.4,0.1-0.4c0.1,0,0.1-0.1,0-0.2
			c-0.2-0.1-0.2-1.2-0.3-1.2c-0.1,0.1-0.3-0.4-0.2-0.5c0.1-0.1,0.3,0.1,0.4,0.5c0,0.2,0.2,0.5,0.2,0.6c0.5,0.6,0.8,1.4,0.6,1.6
			c-0.3,0.2-0.2,0.7,0.1,1c0.2,0.2,0.2,0.1,0.1-0.3c-0.1-0.5,0.1-0.7,0.2-0.3c0.1,0.2,0.3,0.3,0.2,0c-0.2-0.8-0.1-1.2,0.2-0.5
			c0.2,0.4,0.7,1.4,0.9,1.9c0.1,0.2,0.2,0.3,0.3,0.3s0.1,0.1,0.1,0.1c0,0.1,0.1,0.3,0.3,0.6c0.2,0.2,0.4,0.8,0.5,1.3
			c0.1,0.5,0.3,0.9,0.4,1c0.1,0.1,0.2,0.3,0.2,0.5c0.1,0.5,0.3,0.1,0.4,0.8c0,0.3,0.2,0.6,0.3,0.7c0.1,0.1,0.2,0.3,0.2,0.4
			c0,0.3,0.5,1.1,0.5,1.4c0,0.5,1.2,2.5,1.1,2.9c-0.1,0.3,0.3,0.2,0.3,0.5c0,0.4,0.2,0.2,0.2,0.8c0,0.6,0.4,0.6,0.3,1
			c-0.1,0.2,0.4,0.9,0.5,0.8c0.1-0.1,0.3,0.6,0.3,1c0,0.4,0.4,0.4,0.7,1.3c0.3,0.9,0.4,0.9,0.4,1.3c0,0.4,0.3,0.4,0.5,1
			c0.2,0.7,0.3,0.6,0.3,0.9c0.1,0.4,0.3,0.2,0.3,0.9c0,0.2,0,0.4,0.1,0.4c0.1,0,0.1,0.1,0.1,0.2c0,0.1,0.1,0.2,0.2,0.3
			s0.2,0.3,0.3,0.5c0.1,0.6,0.6,1.3,0.7,1.7c0.1,0.6,1,1.8,0.5,1.8c-0.4,0-0.5,0.8-0.2,1.3c0.2,0.2,0.4,0.4,0.4,0.4
			c0.2,0,0.2,0.7,0.4,0.8c0.3,0.1,0,0.4,0.4,0.4l0.3,0c-0.3,0.1-0.8,0.3-0.4,0.7c0.1,0.1,0.2,0.3,0.1,0.5c-0.1,0.3,0.3,0.8,0.4,0.7
			c0,0,0.2,0.1,0.3,0.4c0.1,0.3,0.3,0.4,0.4,0.4c0.2,0,0.7,0.6,0.7,0.8c0,0.2-0.2,0.4-0.4,0.4c-0.2,0-0.3,0.6-0.1,0.8
			c0.1,0.1,0.1,0.1,0,0.2c-0.3,0.2,0.3,0.9,0.4,0.8c0.2-0.2-0.4,0.9,0.1,1.2c0.1,0.1,0.1,0.4,0.2,0.8c0,5.3,0.1,5.1-0.8,5.3
			c-0.3,0.1-1,0.6-0.8,0.6c0.1,0,0,0.1-0.1,0.2c-0.9,1.1-0.1-2.5-0.2-3.9c-0.1-1.6-0.1-2.3,0-2.3c0.1,0,0.1,0,0-0.1
			c-0.3-0.2-0.6-3.4-1-3.1c0,0,0.4,2.6,0.3,2.8c-0.1,0.1,0,0.3,0,0.3c0.1,0.1,0.1,1.2,0.1,3.3c0,1.7,0.1,3.1,0.1,3.1
			c0.5,0-0.9,0.7-1.5,0.8c-0.4,0-0.8,0.1-0.9,0.2c-0.1,0.1-0.3,0.1-0.4,0.1c-0.6-0.2-0.7,0.8-0.6-1.1c0.2-2.1,0-1.4,0.1-2.8
			c0-0.9-0.7-5.4-0.5-1.6c0.1,2,0,2.9,0.2,3c0.1,0,0.1,0.1,0,0.1c-0.1,0-0.1,0.4-0.1,1c0,1.5,0,1.6-0.5,1.5c-0.3,0-0.4,0-0.5,0.1
			c-0.1,0.2-0.3,0.1-1.7,0c-1.2-0.1-1.4-0.2-0.8-0.3c0.1,0,0.3-0.2,0.3-0.4c0.2-0.7,0.6-0.3,0.3-0.7c-0.4-0.5,0.2-1.4,0.2-0.8
			c0,0.4,0.4-0.2,0.4,0c0,0.2-0.3,0.2-0.1,0.5c0.2,0.2,0,1.4-0.2,1.4c-0.1,0-0.2,0.1-0.2,0.2c0,0.2,1,0,0.7,0
			c-0.3-0.1-0.3-0.1,0-0.3c0.1-0.1,0.2-0.4,0.2-1.5c0-0.8,0.1-1.4,0.1-1.5c0.1,0,0.1-0.1,0-0.2c-0.1-0.1-0.1-0.2-0.1-0.2
			c0.1-0.2,0.2-1.1,0.1-1.1c-0.1,0-0.3-0.8-0.4-1.8c0-0.1-0.1-0.1-0.1-0.1c-0.1,0-0.1,1.4,0,2.3c0.1,0.9,0,1.2-0.3,1
			c-0.4-0.3-0.5,0.1-0.4-0.2c0-0.1,0-0.2,0-0.3c-0.1,0-0.1-0.4-0.1-0.8c0.1-1.1-0.2-0.9-0.4-2.1c-0.2-2-0.4,0.3-0.1,2.3
			c0.2,1.3-0.3,1.7-0.3,1.1c0-0.6-0.6-0.3-0.6-1.2c0-1.1-1-6.3-0.8-2.9c0.1,1.7,0.1,2.5,0.2,2.7c0.1,0.1,0.1,1.2,0,1.2
			c-0.1,0-0.1-0.1-0.1-0.2c0-0.1,0-0.2,0-0.3c-0.2-0.1-0.6-1.1-0.6-1.1c0.1-0.1-0.5-3.2-0.7-3.4c-0.1-0.1-0.2-0.6-0.4-1.1
			c-0.3-0.9-0.3-0.9-0.3-0.4c0,0.3,0,0.5,0.1,0.6c0.5,0.4,0.8,4.8,0.8,5.2l-0.3-0.6c-0.4-0.9-0.1-0.5-0.3-1.3
			c-0.1-0.5-0.5-3.7-0.8-4c-0.2-0.2,0.1,2.3,0.2,5.2c0,1,0.3,1.2,0.1,1.2c-0.2,0,0-0.4-0.3-0.8c-0.3-0.4-0.7-1.9-0.5-1.8
			c0.2,0.1,0.3-0.5,0.2-0.9c-0.1-0.4-0.3-0.4-0.3-0.1c0,0.1-0.1-0.2-0.1-0.6c-0.2-1.4-0.2-1.2-0.3-2.4c-0.2-2.9-0.5,0.2-0.2,1.8
			c0.3,1.7,0.4,4.6,0.2,4.5c-0.1,0-0.2-0.2-0.2-0.5c0-0.2-0.1-0.5-0.2-0.6c-0.2-0.2-0.4-0.8-0.6-2.2c-0.2-1.5-0.2-1-0.4-2.6
			c-0.3-1.7-0.4-1.5-0.5-6.3c-0.1-4.8-0.4,1.6-0.2,3.9c0.1,0.6,0.1,2.2,0.3,3.9c0.2,1.7,0.2,2.2,0.3,2.5c0.2,0.3,0.1,0.2,0.2,0.7
			c0.1,0.5-0.2,0.7-0.1,0.4c0-0.2,0-0.2-0.2-0.2c-0.4,0-0.4,0.4-0.1,1.4c0.1,0.5,0.3,1.1,0.3,1.3c0,0.4,0.3,0.8,0.4,0.5
			c0-0.1,0.1,0.2,0.1,0.7c0,1,0.1,1.2,0.3,1.2c0.3,0,0.1-0.9,0.3-1.2c0.3-0.3,0.1-2.6,0.3-2.4c0.1,0.1,0.1,1,0.2,1.9
			c0.1,0.8-0.3,0.7-0.1,1c0.1,0.1,0.1,0.2,0.1,0.4c0,0.8,0.4,0.1,0.5-0.9c0.1-1,0.3-0.7,0.2-0.5c-0.1,0.4,0.3,0.9,0.3,0.2
			c0-0.2,0-0.3,0.1-0.2c0.1,0.2,0.1,1.8-0.1,1.9c-0.2,0.1,0.1,0.3-0.2,0.3c-1.8,0.1-1,0.3-2.2,0.3c-0.4,0-0.7,0-0.7,0.1
			c0,0.1-0.8,0.1-0.9,0c0,0-1-0.1-1.1-0.2c-0.2-0.1-1.9-0.6-1.9-0.7c0-0.1-0.2-0.2-0.4-0.2c-0.3-0.1-0.4-0.2-0.4-0.6
			c0-0.2,0-0.8-0.1-1.3c0-0.9,0.2-1.3,0.4-0.6c0.1,0.6,0.3,0.8,0.3,1.3c0,0.5,0.3,1.2,0.5,1c0.1-0.1,0.1-0.2,0-0.4
			c-0.2-0.5,0.3-0.2,0.2-0.6c-0.2-0.5-0.1-1.8-0.4-2.2c-0.6-0.5-0.4-1.6-0.6-2.1c-0.2-0.5-0.1-2.4-0.4-2.6c-0.2-0.2,0.1,0-0.1-0.3
			c-0.2-0.3-0.1-1.7-0.3-2.1c-0.2-0.6-0.3-3-0.4-4.4c-0.2-3.6-0.1-8.3-0.1-8.3c-0.2-0.5,0.3,0,0.2-0.6c0-0.2-0.1-0.4-0.1-0.4
			c-0.1,0,0-3.7,0.1-3.8c0.1,0,0.1-0.2,0-0.4c-0.1-0.4-0.1-1.3,0-2.2c0.1-0.9,0.2-1.8,0.3-1.9c0.1,0,0.1-0.2,0.1-0.4
			c0-0.2,0-0.7,0-1.2c0.2-1.6-0.1-2.7-0.4,0.7c-0.1,0.7-0.2,0.5-0.2,1.1c0,0.5-0.4,2.9-0.4,3.7c0,0.4-0.2,1.1-0.4,1.1
			c-0.1,0-0.1,0.1,0,0.2c0.3,0.3-0.2,7.6-0.1,8.7c0.1,1.7,0.1,2.9,0,2.9c-0.1,0.1-0.1,0.2,0.1,0.4c0.1,0.2,0.2,0.8,0.2,1.7
			c0,0.7,0.1,1.3,0.1,1.3c0.1,0,0.2,0.2-0.1,0.2c-0.5,0,0.1,0.2,0.2,0.8c0.2,1,0.3,1.8,0.3,2c0,0.5,0.1,1,0.2,1.1
			c0.1,0.2,0,0.7,0.2,1.3c0.1,0.6,0.1,0.8,0.3,1.5c0.1,0.3,0.1,0.5,0.1,0.6c0,0.1,0,0.2,0,0.3c0.1,0.1,0.2,0.4,0.3,0.7
			c0.2,0.7,0,0.9-0.3,0.3c-0.3-0.8-0.6-0.8-0.5-1.2c0-0.2,0-0.4-0.1-0.6c-0.2-0.4-0.5-1.9-0.4-2c0.1-0.1-0.4-0.3,0-0.5
			c0.1-0.1,0.1-0.1,0-0.2c-0.2-0.1-0.5-2-0.7-5.3c-0.2-2-0.2-6.5-0.1-6.5c0.1,0,0.1-0.1,0-0.2c-0.2-0.2-0.2-1.8,0-1.9
			c0.1,0,0.1-0.2,0-0.3c-0.3-0.4,0.3-0.6,0.1-0.7c-0.2-0.1-0.1-1.3,0-5.1c0-2,0.2-5,0.1-5c-0.1,0-0.3,0.4-0.2,0.5c0,0,0,0.6-0.1,1.1
			c-0.3,2.5-0.2,3.9-0.5,4.1c-0.4,0.3,0.3,0.1,0.2,0.7c-0.2,1.2-0.2,8.1-0.3,9c-0.2,1,0.3,0.5,0.2,1.8c0,1,0.2,1.4,0,1.4
			c-0.1,0-0.1,0-0.1,0.1c0.1,0.2,0.2,1,0.2,2c0,1.4,0.2,0.4,0.2,1.8c0,1.6,0.2,0.6,0.3,2.7c0,0.8,0.2,0.5,0.2,1.4
			c0.1,1.7,1.1,5.2,0.8,5.2c-0.9,0-0.2-2.3-0.8-2.8c-0.4-0.4-0.2-1-0.4-1.6c-0.3-0.9-0.7-3.5-0.6-3.7c0.1,0,0-0.1-0.1-0.2
			c-0.3-0.2-0.2-1.1-0.4-1.4c0-0.1,0-0.2,0.1-0.3c0.2-0.1,0.1-0.7,0-0.9c-0.1-0.1-0.1,0-0.3-4.3c0-0.6,0-1,0.1-1
			c0.1,0,0.1-0.1,0.1-0.2c-0.2-0.3-0.2-3.1,0-3.6c0.1-0.3,0.2-0.5,0.1-0.6c-0.1-0.1-0.2,0.5-0.3,0.5c-0.1,0-0.1,0,0-0.1
			c0.1-0.1,0.2-2.4,0.2-2.7c0-0.3,0-1,0-1.5c0-0.5,0.4-0.4,0.1-0.6c-0.2-0.2-0.2-0.8,0-1c0.2-0.2,0.2-0.4,0-0.4
			c-0.2,0-0.2-2.2,0-2.4c0-0.1,0-0.2,0-0.2c-0.1,0-0.1-0.4-0.1-0.8c0.1-1.2-0.2-1.3-0.3-0.1c-0.1,1.6-0.2,1.7-0.2,2.6
			c0,0.4-0.1,0.8-0.1,0.9c-0.1,0.1,0,0.2,0,0.2c0.2,0,0.2,0.3,0,0.2c-0.1,0-0.1,0.4-0.1,1c0,0.7-0.1,1.2-0.2,1.3
			c-0.1,0.1-0.1,0.2,0,0.2c0.1,0,0.1,1.2,0,1.6c0,0.1,0,0.3,0,0.3c0.1,0.1,0.1,0.5-0.1,0.9c-0.2,0.4,0.1,0.4,0.1,2.4
			c0,4.5,0.2,5.2,0.3,7.2c0,2.7,0.2,0.7,0.4,3.5c0.1,0.5,0.2,0.7,0.2,1.5c0.1,1.1,0.3,2,0.1,2.1c-0.3,0.2-0.5-2.3-0.6-2.5
			c-0.2-0.3,0-1.8-0.3-1.9c-0.2-0.1-0.1-0.9-0.3-1.4c-0.2-0.6,0.3-0.4,0-0.7c-0.1-0.1-0.2-0.2-0.2-0.4c0-0.4-0.2-3.4-0.2-3.5
			c-0.1-0.1,0.2-1,0.1-1c-0.1,0-0.1-2.2-0.2-2.5c0-0.1,0-0.2,0.1-0.3c0.1,0,0.1-0.1,0.1-0.2c-0.2-0.3,0.1-6.6,0.1-10.1
			c0-1.1,0-1.1,0.4-1.1c0.1,0,0.1,0-0.1-0.2c-0.1-0.1-0.3-0.2-0.3-0.2c-0.2,0-0.1-2.3,0.1-2.8c0.2-0.5,0.3-1.1,0.3-1.8
			c0-0.2,0-0.3,0.1-0.3c0.3,0-0.2-1.6-0.2-2.8c0-0.2-0.3-0.7-0.3,2.2c-0.1,3.9-0.3,1.3-0.5,5.1c0,0.7-0.1,1.4-0.2,1.5
			c-0.1,0.1-0.1,0.3-0.1,0.4c0.1,0.2-0.2,1.2-0.2-0.2c0-1.3,0.4-1.2,0.1-1.4c-0.2-0.2-0.2-0.7,0.1-2c0.2-1,0.3-3.1,0.1-4
			c-0.2-1.2-0.3-1.1-0.3,0.9c0,1.2,0,1.2-0.2,0.9c-0.1-0.2-0.3-0.4-0.4-0.4c-0.2-0.1-0.2-0.5,0-0.5c0.4,0,0.4-0.6,0-0.2
			c-0.3,0.2-0.3,0.1-0.4-0.5c-0.1-0.7-0.2-1.3-0.3-1.3c-0.1,0.1,0.1,2,0.2,2.4c0,0.1,0,0.2-0.2,0.2c-0.2,0-0.3-0.1-0.4-0.9
			c-0.4-2.5-0.5-2.6-0.4-0.9c0.1,2.4,0.1,3.7,0.2,5.1c0.1,1.3-0.2,1-0.2,0.4c0-0.5,0-0.3-0.4-4c-0.3-2.3-0.3-2.2-0.3-2.6l0-0.3
			c-0.1,0.3-0.2,0.5-0.2,1.4c0,0.5-0.1,0.8-0.2,0.8c-0.1,0-0.1,0.1,0,0.2c0.2,0.3,0.2,1.3,0.2,1.4c0.1,0.1,0.5,3.3,0.3,3.3
			c-0.1,0-0.1-0.1-0.1-0.2c0-0.3-0.3-0.5-0.4-0.3c-0.1,0.2-0.1-0.7-0.1-1.1c-0.3-3.8-0.5-3.7-0.5-5.6c0-0.5-0.1-0.7-0.1-0.6
			c-0.1,0.1-0.2,3.6-0.1,3.9c0.1,0.3,0.2,2.5,0.3,3c0.2,0.5,0.2,2,0,2c-0.1,0-0.1,0.1,0,0.2c0.1,0.2,0.1,1.9,0,1.9
			c-0.1,0-0.1,0,0,0.1c0.2,0.1-0.1,0.3,0,0.6c0.1,0.3-0.3,0.5-0.1,0.6c0.3,0.1-0.3,0.3,0,0.6c0.3,0.3,0,2.4,0.5,3
			c0.2,0.2,0.2,0.3,0.1,0.6c-0.2,0.4,0.5,0.5,0.9,0.1c0.1-0.1,0.3-0.2,0.4-0.2c0.1,0,0.1,0,0.1,0c0,0,0-0.3,0.1-0.6
			c0.1-0.3,0.2-0.7,0.1-1.1c-0.1-1.2-0.2-4.7-0.1-4.8c0.1-0.1,0.3,0.4,0.3,1.2c0,0.9,0.1,1.8,0.1,2.8c0,1,0.3,0.5,0.2,0.3
			c-0.1-0.2,0.2-0.6,0.1,0.7c-0.4,4.8,0.1,4.8-0.7,4.9c-0.3,0.1-0.5,0.2-0.5,0.4c-0.1,0.3-0.3,0.4-0.3,0.1c0-0.1-0.3-0.1-0.1,0.3
			c0.2,0.4,0.2-0.2,0.4,0.1c0,0.1,0,0.2,0,0.2c-0.2,0.1,0.2,1.9,0.4,1.9c0,0,0.1,0.1,0.1,0.2c0,0.3,0.4,1.6,0.5,1.8
			c0.2,0.2,0.1,2.5,0.3,2.7c0,0,0.1,0,0.1-0.1c0-0.4,0.2-0.2,0.2,0.2c0,0.7-0.2,0.2-0.2,0.5c0,0.4,0.3,0,0.3,0.3c0,0.4,0.2,1,0,0.7
			c-0.2-0.3-0.1,0.2,0,0.2c0.1,0,0.2,0.7,0.3,1.2c0.2,0.6-0.3-0.3-0.3,0.2c0,0.1,0.1,0.3,0.2,0.4c0.1,0.1,0.4,1.3,0.5,2.5
			c0,0.1,0.1,0.4,0.2,0.6c0.4,1,0.3,1.6-0.2,1.1c-0.5-0.5-0.3-1.1-0.9-2.7c-0.2-0.6-0.3-2-0.2-2c0.1,0,0.1-0.1,0.1-0.2
			c0-0.1,0-0.2-0.1-0.1c-0.2,0.1-0.4-0.3-0.4-1.3c-0.1-1.5-0.2-1-0.4-1.5c-0.1-0.3,0.1,1.9,0.1,2.5c0,0.2,0.1,0.5,0.1,0.6
			c0.1,0.1,0,0.2,0,0.2c-0.1,0-0.1,0.3,0.1,0.6c0.3,1,0.7,3,0.7,3.6c0,0.2,0,0.3,0.1,0.3c0.2,0,0.3,0.5,0.1,0.7
			c-0.3,0.3-0.1,0.7-0.3,0.3c-0.1-0.1-0.1-0.3-0.1-0.4c0-0.1,0-0.2,0-0.2c-0.2-0.2-0.2-1.3-0.7-2.9c-0.1-0.4-0.1-1.8-0.3-1.9
			c-0.1-0.1-0.1-0.7,0.1-0.9c0.1-0.1,0.1-0.1,0-0.1c-0.4,0-0.4-2-0.5-2.2c-0.2-0.1-0.1-0.9-0.3-0.7c-0.2,0.1,0,0.4,0.1,1.8
			c0.2,2.8,0.5,3,0.3,3.4c-0.1,0.1-0.1,0.3,0,0.4c0.1,0.1,0.2,0.6,0.3,1.2c0.1,0.6,0.2,1.1,0.2,1.1c0.3,0.2,0.5,1.7,0.3,2
			c-0.3,0.4-0.1,0.3-0.4-0.9c-0.2-0.9,0-0.6-0.2-1.1c-0.1-0.2-0.1-0.5-0.1-0.6c0-0.1,0-0.3,0-0.4c-0.2-0.2-0.7-3.4-0.7-3.6
			c-0.1-0.7-0.3-1.8-0.2-2c0.1-0.2-0.2-0.1-0.2-0.3c0.1-0.7-0.4-3.2-0.6-3.2c-0.1,0,0,1.5,0.1,1.8c0.1,0.2,0.4,3.7,0.3,3.8
			c0,0.1,0,0.1,0.1,0.1c0.1,0,0.1,0.3,0.1,0.8c0,0.4,0.1,1,0.2,1.3c0.1,0.5,0.4,2.3,0.5,2.4c0.2,0.3,0,1.9,0.4,2.2
			c0.4,0.3-0.3,0.2-0.1,0.5c0.2,0.2,0.3,1.1,0.7,1.5c0.8,1-0.7,1.1-0.4,0.1c0.1-0.5-0.2-0.2-0.4-1.5c-0.2-1.3-0.5-2.2-0.5-2.7
			c0-0.2-0.1-0.5-0.2-0.7c-0.1-0.3-0.3-1.3-0.5-2.4c-0.1-0.6-0.5-2.1-0.4-2.4c0-0.1,0-0.3-0.1-0.3c-0.1,0-0.1-0.3-0.1-0.7
			c0-0.6-0.3-2.2-0.4-2.3c-0.1-0.1,0,4.1,0.1,4.3c0.1,0.1,0.1,1,0.2,1.2c0.2,0.3,0.2,0.7,0.1,0.7c-0.1,0-0.2,0.1-0.2,0.1
			c-0.1,0.3-0.7-3.4-0.6-3.8c0.1-0.3-0.1-0.4-0.3-0.2c-0.2,0.4-1.2-0.3-0.9-0.5c0.1-0.1,0.1-0.2-0.1-0.3c-0.1-0.1-0.2-0.3-0.1-0.7
			c0.1-0.8-0.2-0.1-0.2-1c0-1.1-0.5-2.4-0.3-2.8c0.3-0.4-0.4-0.4-0.1-0.7c0.2-0.3-0.1-0.2-0.2-1.2c0-0.1-0.7-3.5-0.5-4.4
			c0.1-0.6-0.3,0-0.3-0.8c0-0.7-0.2-3.3-0.3-4c-0.3-2.8-0.3-2.2-0.4-3.7c0-0.6-0.1-1.1-0.1-1.1c-0.1-0.1-0.2-1.9-0.1-2.1
			c0-0.1,0-0.1,0-0.2c-0.2-0.1-0.2-6.8,0-6.9c0,0,0.1-0.2,0-0.3c-0.1-0.3,0.3-1.4,0.5-1.3c0,0-0.2,7.2,0.2,9
			C256.7,49.3,255.9,48.4,256.3,49.4z M278.2,58.1l0.1,0.3c0.1,0.3,0.3,2,0.4,3c0,0.4,0,0.5-0.3,0.5h-0.3
			C278.1,58.1,277.8,59,278.2,58.1z M277.7,79c-0.1-1.5,0.1-1.2,0.2-0.4C278,79.5,277.8,79.4,277.7,79z M275.3,78.8
			c0-0.6,0.1-0.6,0.2,0.1C275.6,79.5,275.3,79.5,275.3,78.8z M264.8,59.7c-0.1,0.1-0.1-1.8,0.1-2.7C265,56.1,264.8,59.6,264.8,59.7z
			 M265,54.8c0,0,0,0.3,0,0.7c0,0.4-0.1,0.8-0.1,0.8C264.8,56.2,264.9,54.9,265,54.8z M264.6,53.6c0-0.7,0.2-0.6,0.2-0.2
			C264.8,53.7,264.6,54.4,264.6,53.6z M264.9,62.4c0.1,2.6,0.1,3-0.1,2.6C264.6,64.5,264.7,56.1,264.9,62.4z M265,66
			c0,0.8,0.2,3.3,0.1,3.3c-0.1,0-0.1-0.5-0.1-0.9C264.6,65.3,265,64.9,265,66z M262.9,50.7c0.1,0,0.1,0.2,0.1,0.5
			C263.1,52.7,262.7,50.8,262.9,50.7z M262.2,50.5c0.3-0.2,0.1,0.2,0.2,0.9c0,0.1,0.2,2.3,0.1,2.3c-0.1,0-0.3-0.7-0.3-1.1
			c0-0.2-0.1-0.3-0.1-0.3c-0.2,0-0.2-0.5,0-0.5C262.5,51.8,261.8,50.8,262.2,50.5z M256.3,30.2l0,0.3c0.1,0.4-0.2,0.8-0.3,0.5
			C256,30.8,256.2,30.4,256.3,30.2z M249.4,44.2c0-0.1,0.1-0.3,0.1-0.4c0.1-0.4,0.5-0.2,0.1,0.3C249.5,44.3,249.3,44.4,249.4,44.2z
			 M248.1,47.2c0.1,0,0.1-0.2,0.1-0.4c0-0.5,0.5,0,0.5-0.3c0-0.2,0.8-1.2,0.4-1.2c-0.2,0-0.1,0.2-0.2,0.2c-0.2,0,0.4-1,0.4-0.5
			c0,0.3,0.3,0.1,0.3-0.2c0-0.2,0.1-0.4,0.2-0.4c0.1,0,0.6-1.1,0.7-1.1c0.2-0.2-0.3-0.6-0.3,0c0,0.5-0.4,0,0-0.6
			c0.3-0.4,0.4-1,0.4-0.5c0,0.1,0,0.3-0.1,0.3c-0.2,0.1-0.2,0.3,0,0.3c0.1,0,0.1-0.1,0.2-0.2c0-0.1,0.3-0.6,0.6-1.1
			c0.9-1.6,0.6-1.4,2.8-4.5c0.2-0.3,0.4-0.6,0.4-0.6c0-0.1,0-0.1,0.1-0.2c0.4-0.2,1.8-3.1-0.4,0.3c-1.2,1.8-1.9,2.7-1.9,2.8
			c0,0.1-1.2,2.2-1.3,2.4c-0.4,0.5,0.3-1.3,1.1-2.8c0.3-0.6,0.5-1,0.6-1c0.1,0,0.1-0.1,0.1-0.2c0-0.1,0.1-0.4,0.3-0.7
			c0.5-0.8,1.1-2.5,1.4-2.9c0.4-0.4,0.1-1.4,1-0.4c0.5,0.6,0.6,1.1,0.3,1.1c-0.1,0-0.1,0.1-0.1,0.3c0,0.2-0.1,0.3-0.2,0.4
			c-0.3,0.2-0.8,1.5-0.8,2.2c0,0.9-0.5,3.4-0.4,3.8c0.1,0.3,0.1,1.4,0.2,2.4c0.2,1.3-0.3,0.7-0.8,1.2c-0.1,0.1-0.3,0.2-0.4,0.2
			c-0.1,0-0.1,0-0.1,0c0.2,0.3-3,1.6-3.5,1.4c-0.1,0-0.2,0-0.2,0.1c0,0.3-0.2-0.2-0.4,0c-0.2,0.2-1,0.6-1,0.5
			C248,47.3,248.1,47.2,248.1,47.2z"/>
		<path class="st3" d="M270.1,84.1c-0.2,0.2,0.5,0,1.2-0.3c0.3-0.1,0.6-0.3,0.6-0.3C271.7,83.4,270.2,83.9,270.1,84.1z"/>
		<path class="st3" d="M271,83.2c0,0.1,0.1,0.2,0.1,0.2c0.2,0,0.1-0.4-0.1-0.4c-0.1,0-0.2-0.1-0.2-0.2c0-0.1-0.1-0.2-0.1-0.2
			C270.4,82.5,271,83,271,83.2z"/>
		<path class="st3" d="M283.8,77.2c0.2,0.2,0.3,3.2,0.1,3.7c-0.4,0.8,0.2,0.1,0.2,0.6c0,0.2,0,0.2,0.2,0c0.3-0.4,0.3-4,0-5.1
			c-0.3-1.2-0.1-1.7-0.3-1.7c-0.2,0,0.1,1.4-0.1,1.5c-0.1,0.1-0.1,0.1,0,0.2c0.2,0.2,0.2,0.5,0,0.6
			C283.6,77.1,283.6,77.1,283.8,77.2z"/>
		<path class="st3" d="M286.2,75.7c0,0.4,0,1.1,0,1.6c0,0.6,0,0.8,0.1,0.8c0.1,0,0.1,0.1,0.1,0.2c-0.2,0.4,0.1,5,0.3,1.8
			c0.1-1.7,0.2-2.7,0.1-3.4c-0.1-0.3-0.2-0.8-0.2-1.1C286.4,74.7,286.2,74.8,286.2,75.7z"/>
		<path class="st3" d="M287,70.1c0,0.3,0,0.7,0.2,1.6c0.2,0.7,0.4,2.9,0.4,2.9c0.1,0.2-0.3,0.5-0.1,0.7c0.2,0.1,0.1,2.9,0,3.2
			c-0.1,0.1-0.1,0.2,0,0.3c0.1,0,0.1,0.6,0.1,1.2c0,1,0.1,1.4,0.3,1c0.2-0.6,0.1-3,0.3-2.9c0.1,0.1,0.3-0.2,0.1-0.3
			c-0.2-0.1-0.1-1.6-0.3-2.1c-0.1-0.2,0-0.3,0-0.3c0.1,0,0.1-0.1,0-0.2c0,0-0.6-3.5-0.9-4.6L287,70.1z"/>
		<path class="st3" d="M283.6,79.9c0.2-0.1,0.1-0.4-0.1-0.5C283.2,79.3,283.3,80.1,283.6,79.9z"/>
		<path class="st3" d="M290,79.5c0.5,0,0.3-5,0.5-5.2c0.1-0.1,0.1-0.3-0.1-0.3c-0.1,0-0.2-0.1-0.1-0.3c0.1-0.5-0.2-0.1-0.2-0.6
			c0-0.1-0.6-2.6-0.1,2.1C290,75.8,290,79.5,290,79.5z"/>
		<path class="st3" d="M283.4,74.4c0.1,0,0-1-0.1-1.1c-0.1-0.1-0.1,0.1-0.1,0.6C283.3,74.2,283.4,74.4,283.4,74.4z"/>
		<path class="st3" d="M285.9,70.9c0.3,1.3,0.3,2,0.5,2.9c0.4,1.9,0.1-1.4-0.4-3.8c-0.1-0.3-0.2-0.9-0.3-1.4
			C285.5,67.3,285.2,67.4,285.9,70.9z"/>
		<path class="st3" d="M281.7,73.8c0.1,0,0.1-0.2,0.1-0.4C281.6,72,281.5,73.8,281.7,73.8z"/>
		<path class="st3" d="M284.5,72.7c0.1,0.4,0.3,0.2,0.2-0.2C284.5,71.9,284.4,72.3,284.5,72.7z"/>
		<path class="st3" d="M284.8,71.3c0.4,1.9,0.5,1.3,0.5,1.2c-0.1-0.3-0.2-1.4-0.5-3c0,0-0.7-4.5-0.7-4.5c-0.1-0.1,0,1.7,0.2,2.8
			C284.4,69.3,284.4,69.6,284.8,71.3z"/>
		<path class="st3" d="M279.6,72c-0.1-0.2-0.3,0-0.2,0.3C279.6,72.9,279.9,72.4,279.6,72z"/>
		<path class="st3" d="M272.3,71.2c-0.1,0.1,0,0.6,0,0.9c0,0.2,0.2,0.1,0.3-0.1C272.7,71.8,272.4,71,272.3,71.2z"/>
		<path class="st3" d="M282,71.1c-0.1,0-0.1,0.4,0,0.7c0,0.1,0.3,0,0.3-0.1C282.3,71.5,282.1,71.1,282,71.1z"/>
		<path class="st3" d="M283.8,70.3c-0.1-0.2-0.1-0.2-0.1,0.2C283.7,71.3,284.1,71,283.8,70.3z"/>
		<path class="st3" d="M283.1,70.2c0.3,1.2,0.3,0.6,0-1.3c-0.2-1.2-0.2-1.3,0-1.3c0.4,0-0.1-1.4-0.1-0.6c0,0.7-0.1,0-0.3-1.6
			C281.8,57.4,282.2,66.3,283.1,70.2z"/>
		<path class="st3" d="M258.5,66.5c-0.1,0.2-0.2,0.6-0.1,0.8c0.1,0.3,0.2,2.3,0.3,2.9c0.2,1.1,0.5-0.7-0.2-3.4L258.5,66.5z"/>
		<path class="st3" d="M276.9,69.9c-0.1-0.4-0.2-0.2-0.2,0.3C276.8,70.8,277.2,70.8,276.9,69.9z"/>
		<path class="st3" d="M273.6,69.8c0,0.7,0.2,0.8,0.2-0.1C273.8,68.9,273.6,69.1,273.6,69.8z"/>
		<path class="st3" d="M279.9,70.3c0.1,0,0-0.9-0.2-1c-0.1-0.1-0.2,0.3,0,0.8C279.7,70.1,279.8,70.3,279.9,70.3z"/>
		<path class="st3" d="M278.9,69.8c-0.1,0-0.1-0.2-0.1-0.4c0-0.4-0.2,0-0.2,0.4C278.5,70.4,279.2,70,278.9,69.8z"/>
		<path class="st3" d="M288.2,69.1c-0.2-0.2-0.2,0.3,0,0.6C288.3,70.1,288.4,69.3,288.2,69.1z"/>
		<path class="st3" d="M287.3,69.5c0-0.2,0-0.4,0-0.5c-0.1-0.3,0-0.4-0.2-0.4c-0.2,0-0.2,0.4,0,0.8
			C287.3,69.8,287.3,69.8,287.3,69.5z"/>
		<path class="st3" d="M281.5,68.5c0.4,1.9,0.2-2.4-0.2-5.1c0-0.3-0.1-0.7-0.1-1c0-0.6-0.1-0.1-0.3-1.1c-0.3-1.5-0.5-1.2-0.2,0.4
			C281.2,64.6,281.3,67.4,281.5,68.5z"/>
		<path class="st3" d="M276.8,68.1c0,0.3,0,0.5,0.1,0.6C277.3,69.2,276.8,66.8,276.8,68.1z"/>
		<path class="st3" d="M259.2,66.7c-0.1,0,0,1.6,0.1,1.8c0,0.1,0.1,0,0.2,0C259.6,68.3,259.4,66.7,259.2,66.7z"/>
		<path class="st3" d="M276.2,68.2c0-0.2,0-0.4-0.1-0.4c0-0.3-0.3,0.1-0.3,0.4C275.9,68.7,276.3,68.7,276.2,68.2z"/>
		<path class="st3" d="M262.2,67.1c-0.1-0.4-0.2,0.1-0.2,0.7C262.1,68.7,262.6,68.7,262.2,67.1z"/>
		<path class="st3" d="M263.1,68.4c0.5,0-0.5-1.4-0.3-0.6C262.9,68.2,262.8,68.4,263.1,68.4z"/>
		<path class="st3" d="M286.1,67.2c-0.2-0.1-0.3,0-0.2,0.3C286.1,68.2,286.4,67.4,286.1,67.2z"/>
		<path class="st3" d="M287.6,67.2c-0.1-0.8-0.3-0.8-0.2,0C287.4,67.8,287.7,67.8,287.6,67.2z"/>
		<path class="st3" d="M278.3,67.4c0.1,0,0-0.8-0.1-1c-0.1-0.1-0.2,0.1-0.1,0.5C278.1,67.2,278.2,67.4,278.3,67.4z"/>
		<path class="st3" d="M280.7,66.8c0,0.3,0,0.5,0.1,0.5c0.1,0,0.1-0.3,0-0.7C280.8,66.3,280.7,66.3,280.7,66.8z"/>
		<path class="st3" d="M276.5,66.2c0-0.7-0.2-0.7-0.2,0C276.3,66.8,276.5,66.8,276.5,66.2z"/>
		<path class="st3" d="M258.4,66.2c0-0.1-0.1-0.3-0.1-0.4s-0.1-0.2-0.1-0.2c-0.1,0-0.2,0.5,0,0.7C258.3,66.5,258.5,66.4,258.4,66.2z
			"/>
		<path class="st3" d="M260.1,64.8c0,0.7,0,1.5,0.2,1.5c0.3,0,0.3-0.2,0-0.9L260.1,64.8z"/>
		<path class="st3" d="M262.4,65.8c-0.2-0.2-0.1-0.9-0.3-0.9c-0.1,0-0.2,0.4,0,1C262.2,66.5,262.7,66.1,262.4,65.8z"/>
		<path class="st3" d="M286.2,65c-0.2-0.4-0.2-0.3-0.1,0.3C286.2,65.9,286.6,65.8,286.2,65z"/>
		<path class="st3" d="M277.1,64.8c-0.3-0.3-0.4,0-0.1,0.3C277.3,65.4,277.6,65.2,277.1,64.8z"/>
		<path class="st3" d="M258.7,63.7c-0.1,0-0.1,0.7,0.1,1.1c0.1,0.2,0.3,0.3,0.3,0.2C259.1,64.7,258.8,63.7,258.7,63.7z"/>
		<path class="st3" d="M261.4,65.1c0.2,0,0.2-0.9,0-1.1c-0.2-0.2,0,0.7-0.1,0.9c0,0-0.1,0.1-0.1,0.2
			C261.2,65.1,261.3,65.1,261.4,65.1z"/>
		<path class="st3" d="M270.6,64.8c0,0.1,0.1,0.1,0.2,0.1C271.1,64.7,270.1,63.3,270.6,64.8z"/>
		<path class="st3" d="M284.6,64c-0.1,0.1,0,0.4,0,0.5C285.1,65.5,284.8,63.6,284.6,64z"/>
		<path class="st3" d="M273.6,64c0-0.2-0.2-0.3-0.1,0.3c0,0.3,0.1,0.4,0.3,0.4C274.3,64.7,273.6,64.3,273.6,64z"/>
		<path class="st3" d="M275.7,64.1c0-0.1-0.1-0.2-0.1-0.2c0-0.4-0.2-0.1-0.2,0.3C275.4,65.3,275.9,64.3,275.7,64.1z"/>
		<path class="st3" d="M259.7,64.3c0,0.3,0.2,0.2,0.3-0.1c0.1-0.2-0.2-1-0.3-1.2C259.5,62.9,259.7,64,259.7,64.3z"/>
		<path class="st3" d="M285.6,63.4c-0.1-0.5-0.1-0.5-0.2-0.1c0,0.2,0,0.4,0,0.5C285.6,64.2,285.7,63.8,285.6,63.4z"/>
		<path class="st3" d="M258.3,62.7c-0.1-0.1-0.1-0.3-0.2-0.6c-0.1-0.6-0.3-0.5-0.2,0.2c0,0.3,0.1,0.6,0.1,0.6c0,0.1,0.1,0.1,0.2,0.1
			C258.4,63,258.5,62.8,258.3,62.7z"/>
		<path class="st3" d="M260.6,62.8c0.2,0.2,0.3,0,0.2-0.8c0-0.1-0.1-0.1-0.1-0.1C260.5,61.9,260.5,62.7,260.6,62.8z"/>
		<path class="st3" d="M275,62.6c0.2,0,0.3-0.6,0.1-0.8c-0.1-0.2-0.3,0.2-0.3,0.6C274.8,62.5,274.9,62.6,275,62.6z"/>
		<path class="st3" d="M261.4,61.5c0,0.1,0,0.3,0,0.4c0,0.2,0.4,0.4,0.4,0.1c0-0.3-0.3-0.9-0.5-0.9C261,61.2,261.3,61.3,261.4,61.5z
			"/>
		<path class="st3" d="M259.3,61.1c0,0.3,0,0.5,0.1,0.6C260,62.2,259.3,59.8,259.3,61.1z"/>
		<path class="st3" d="M284.3,61.2c-0.2-0.4-0.3-0.3-0.2,0.2C284.2,61.9,284.5,61.7,284.3,61.2z"/>
		<path class="st3" d="M282.7,60.7c0,0.2,0,0.4,0.1,0.5c0.2,0.2,0.4-0.1,0.3-0.3c-0.1-0.1-0.1-0.4-0.2-0.5c-0.1-0.5-0.5-0.4-0.3-0.2
			C282.6,60.3,282.7,60.5,282.7,60.7z"/>
		<path class="st3" d="M284.4,60.5c0-0.4-0.2-0.6-0.2-0.1C284.2,60.9,284.4,60.9,284.4,60.5z"/>
		<path class="st3" d="M260.2,60.4c0.1,0,0.2-0.1,0.1-0.4c-0.1-0.6-0.3-0.7-0.3-0.1C260.1,60.3,260.1,60.4,260.2,60.4z"/>
		<path class="st3" d="M273.9,59.7c0,0.2,0,0.3-0.1,0.3c-0.1,0-0.1,0.1-0.1,0.1c0.1,0.2,0.5,0.1,0.5-0.1c0-0.1,0-0.3,0-0.5
			C274.2,59.2,273.9,59.3,273.9,59.7z"/>
		<path class="st3" d="M258.2,59.8c0,0.4,0.2,0.5,0.3,0.2c0-0.1,0-0.3-0.1-0.4C258.2,59.4,258.2,59.4,258.2,59.8z"/>
		<path class="st3" d="M283.3,58c-0.1-0.2-0.1,0.2,0,0.6C283.6,59.5,283.5,58.3,283.3,58z"/>
		<path class="st3" d="M259.5,58.7c0.2,0,0.1-0.5-0.1-0.8C259.1,57.6,259.1,58.7,259.5,58.7z"/>
		<path class="st3" d="M282.1,57.5c0.1,0,0.1-0.1,0-0.6c-0.4-1.3-0.4-0.2-0.2,0.5C281.9,57.4,282,57.5,282.1,57.5z"/>
		<path class="st3" d="M258.3,56.9c0-0.4-0.2-0.6-0.3-0.3C257.9,57.1,258.3,57.3,258.3,56.9z"/>
		<path class="st3" d="M259.2,56.1l0,0.4c0,0.2,0,0.5,0.1,0.5C259.4,57.2,259.7,57.1,259.2,56.1z"/>
		<path class="st3" d="M273.7,56.3c0.1-0.1,0-0.6-0.2-0.6c-0.1,0-0.1,0.5,0,0.7C273.6,56.3,273.7,56.3,273.7,56.3z"/>
		<path class="st3" d="M272.5,53.1c-0.2-0.2-0.1-0.5-0.2-0.8l-0.1,0.3c-0.1,0.2-0.1,0.4-0.1,0.5C272.2,53.5,272.7,53.3,272.5,53.1z"
			/>
		<path class="st3" d="M258.5,52.1c-0.2,0-0.2,0.2-0.2,0.5C258.5,53.2,258.7,52.1,258.5,52.1z"/>
		<path class="st3" d="M259.4,45.1c0.1,0,0.2,0.5,0.2,1.6c0,2.3,0.1,0.3,0.6,4.6c0.2,1.7,0.5,1,0.3-0.6c-0.2-1.7-0.6-4.4-0.5-7.8
			c0-0.3-0.1-2.9-0.3-0.6c-0.1,0.7,0,2.3-0.2,2.5C259.3,45,259.3,45.1,259.4,45.1z"/>
		<path class="st3" d="M258.9,51.6c0.1,0,0.1-0.7,0-0.8c-0.2-0.1-0.3,0.3-0.1,0.5C258.8,51.4,258.9,51.6,258.9,51.6z"/>
		<path class="st3" d="M258.6,40.7c0,0.1-0.4,3.6,0,7c0.2,1.7,0.2,1.8,0.3,2.1c0.3,0.9,0.3,1.9,0.5,1.4c0.2-0.4-0.1-0.5-0.1-1.1
			c0-0.7-0.2-1.6,0-2c0.2-0.4-0.1-0.1-0.1-0.5c0-0.4-0.1-3-0.1-3.3c0-0.5-0.1-2.5-0.1-3.9C258.8,40.2,258.6,40.2,258.6,40.7z"/>
		<path class="st3" d="M257.4,51.2c0.2,0,0.1-0.6,0-0.7C256.9,50.3,257.2,51.2,257.4,51.2z"/>
		<path class="st3" d="M258,49.5c-0.2-0.1-0.2,0.1-0.2,0.5C258,50.9,258.3,49.7,258,49.5z"/>
		<path class="st3" d="M278.5,50.2c0.1,0,0-0.6-0.1-0.7C278.2,49.2,278.3,50.2,278.5,50.2z"/>
		<path class="st3" d="M266.2,48.6c0.2-0.4,0-0.8,0.4-0.9c0.4-0.1,0-0.2,0.3-1.1c0.5-1.7-0.3-7.5-0.3-2.4c0,1.4,0,2.3-0.2,2.9
			C266.1,48.4,266,48.9,266.2,48.6z"/>
		<path class="st3" d="M277.1,47.8c0.3,0.7,0.3,0.9,0.4,0.5C277.6,47.2,276.8,47.1,277.1,47.8z"/>
		<path class="st3" d="M257.2,48.1c0-0.3-0.4-0.7-0.4-0.4c0,0.1,0,0.3,0.1,0.4C257,48.3,257.2,48.3,257.2,48.1z"/>
		<path class="st3" d="M277.8,47.5l0.1,0.3l0-0.3C278.1,46.7,277.6,47,277.8,47.5z"/>
		<path class="st3" d="M268,45.3c-0.1-0.4,0.2-0.7,0.2-1.4c0-0.6,0.4-0.7-0.3-3.4c0,0-0.2,4.2-0.5,5.8c-0.1,0.4-0.1,0.9-0.1,1
			C267.3,48.1,268.1,45.8,268,45.3z"/>
		<path class="st3" d="M275.9,45.9c-0.2,0-0.1,0.3,0,0.6c0.1,0.1,0.2,0.2,0.2,0.2C276.2,46.6,276,45.9,275.9,45.9z"/>
		<path class="st3" d="M277.1,46.5c0.1,0.3,0.4,0.4,0.4,0.1C277.5,45.7,276.7,45.4,277.1,46.5z"/>
		<path class="st3" d="M276.1,44.8c-0.1,0.1-0.1,0.2,0.1,0.4c0.1,0.1,0.2,0.2,0.1,0.2c0,0-0.1,0.1,0,0.1c0.1,0.2,0.3-0.1,0.2-0.5
			C276.4,44.6,276.3,44.6,276.1,44.8z"/>
		<path class="st3" d="M277.4,45.1c0.1,0.3,0.1,0.3,0.2,0.1C277.7,44.4,277,44.2,277.4,45.1z"/>
		<path class="st3" d="M274.9,44c0,0.2,0.1,0.4,0.1,0.5c0,0.1,0.1,0.1,0.2,0.1c0.1,0,0.1-0.1,0-0.6C275,43.4,274.8,43.4,274.9,44z"
			/>
		<path class="st3" d="M276.3,43.9c0.1,0.3,0.2,0.3,0.2,0.2C276.8,43.3,276,43,276.3,43.9z"/>
		<path class="st3" d="M273.7,42.8c-0.1,0.1-0.1,0.2,0,0.7c0.2,0.8,0.3,0.8,0.3,0C274,42.8,274,42.7,273.7,42.8z"/>
		<path class="st3" d="M275.3,42.9c0-0.2-0.1-0.4-0.1-0.5c0-0.3-0.6-0.4-0.2,0.4C275.2,43.3,275.4,43.3,275.3,42.9z"/>
		<path class="st3" d="M276.7,42.4c-0.2,0.1,0.1,0.7,0.3,0.6c0.1,0,0.1-0.1,0.1-0.1C276.9,42.7,276.8,42.3,276.7,42.4z"/>
		<path class="st3" d="M277.4,42.9c0.2-0.2,0-0.8-0.2-0.7c-0.1,0-0.1,0.3,0,0.7C277.3,42.9,277.3,43,277.4,42.9z"/>
		<path class="st3" d="M276.4,41.8c0.1-0.4-0.1-1.1-0.3-1.1c-0.2,0-0.3,0.1-0.2,0.4C276.2,41.6,276.3,42.2,276.4,41.8z"/>
		<path class="st3" d="M260.5,41.5c0.1,0.4,0.3,0.3,0.3,0c0-0.2-0.2-0.4-0.3-0.3C260.4,41.2,260.5,41.4,260.5,41.5z"/>
		<path class="st3" d="M274.4,41.8c0.1-0.1-0.1-1.1-0.2-1.1C273.9,40.5,274.2,42,274.4,41.8z"/>
		<path class="st3" d="M275.2,40.6c0-0.1-0.5-0.1-0.5,0c0,0,0.1,0.3,0.2,0.6C275.2,41.9,275.3,41.7,275.2,40.6z"/>
		<path class="st3" d="M260,40.8c0.1-0.3,0.1-0.4-0.1-0.4c-0.2,0-0.3,0.4-0.1,0.5C259.8,41,259.9,40.9,260,40.8z"/>
		<path class="st3" d="M258.2,39.6c0.1,0,0.1,0.2,0.1,0.4c0,0.2,0.1,0.3,0.1,0.3c0.2-0.1,0.2-1-0.1-1
			C258.2,39.3,258,39.5,258.2,39.6z"/>
		<path class="st3" d="M275.2,38.8c-0.3,0-0.3,0.6,0,0.7c0.4,0.2,0.4,1.5,0.6,0.2C275.8,39.1,275.6,38.8,275.2,38.8z"/>
		<path class="st3" d="M259.3,38.2c-0.1,0-0.1,0.1-0.1,0.4C259.3,39.6,259.6,38.2,259.3,38.2z"/>
		<path class="st3" d="M258.8,37.4c-0.2-0.2-0.2,0-0.2,0.5C258.7,38.8,259,37.6,258.8,37.4z"/>
		<path class="st3" d="M259.9,35.8c-0.1,0.1-0.1,0.2,0,0.4c0.1,0.4,0.6,0.3,0.5,0.1c-0.1-0.3-0.1-2.2,0-2.5c0.1-0.2,0.1-0.3,0-0.3
			c-0.2,0,0-1.8-0.2-1.8c-0.2,0-0.1,1.2-0.3,1.5c-0.2,0.5-0.2,1-0.1,1.8C260,35.4,260,35.7,259.9,35.8z"/>
		<path class="st3" d="M264.5,33.2c0.2,0.3,1.1,2.1,1.2,2.1c0.1,0.1,0.3,1,0.5,1c0.1,0,0-0.9-0.1-1.3c-0.1-0.1-0.1-0.3-0.1-0.5
			c0-0.4-0.2-0.1-0.2-0.4c0-0.3-0.2-0.1-0.2-0.4c0-0.3-0.3-0.2-0.4-0.6c-0.2-0.6-0.3-0.3-1-1.7c-0.3-0.7-0.4-1-0.7-2.1
			c0-0.2-0.1-0.3-0.2-0.3c-0.2,0-0.2,0.2-0.1,0.7C263.4,30.6,263.2,31.2,264.5,33.2z"/>
		<path class="st3" d="M261.1,32.2c-0.2-2.6-0.7,0.5,0,3C261.9,38.4,261.2,33.8,261.1,32.2z"/>
		<path class="st3" d="M262.6,31.7c0,0.5,0.1,0.8,0.2,0.8c0.1,0,0.8,1.4,1,1.9c0.2,0.4,0.3,0.6,0.5,1c0.5,1.1,0.6,0.4,0.4,0.1
			c-0.2-0.4-0.2-1-0.6-1.8c-0.7-1.2-0.9-1.7-0.9-1.9c0-0.1,0-0.3-0.1-0.3c-0.2-0.1-0.2-1.9-0.6-1.5c-0.1,0.1-0.1,0.2,0,0.5
			C262.4,30.7,262.5,31.2,262.6,31.7z"/>
		<path class="st3" d="M262.5,35.6c0,0.1,0.1,0.2,0.1,0.2c0.2,0,0.2-1,0-1c-0.2,0,0-0.8-0.1-0.9c-0.2-0.1-0.1-0.9-0.2-0.9
			c-0.1,0-0.5-2.2-0.5-2.6c0,0-0.1-0.1-0.1-0.1c-0.3,0,0.2,3.6,0.6,4.6C262.4,35.2,262.5,35.5,262.5,35.6z"/>
		<path class="st3" d="M259.1,88.7l0.2-0.3c0.2,0.1,1,0.5,1.1,0.6c0.2,0.3,0.5,0,0.2-0.2c-0.2-0.2-0.5-0.8-0.7-0.8
			c-0.3,0-0.6-0.7-1.1-0.6c-0.4,0.1-0.3,0.4,0,0.6c0.4,0.2,0.4,0.3,0.1,0.6C258.6,89,258.9,89,259.1,88.7z"/>
		<path class="st3" d="M259.7,86.6c-0.2,0.1-0.1,0.7,0.1,0.7c0.4,0,1.6,0.8,1.6,0.5C261.3,87.6,259.8,86.5,259.7,86.6z"/>
		<path class="st3" d="M260.6,86c-0.4,0-0.2,0.3,0.3,0.5C262.5,87.2,260.8,86,260.6,86z"/>
		<path class="st3" d="M300.9,68.4c0.1,0.2,0.3,0.2,0.3,0.1c0-0.3-0.8-1.2-0.9-1.1c0,0-0.1,0-0.1-0.1c0-0.2-0.3-0.5-0.5-0.4
			c-0.2,0.1-0.1-0.2-0.2-0.1C298.8,67.2,300.7,68,300.9,68.4z"/>
		<path class="st3" d="M299.8,66c1.1,0.7,0.1-0.2-0.8-1.2c-0.5-0.5-0.9-0.6-0.9-0.3C298,64.9,299.5,65.9,299.8,66z"/>
		<path class="st3" d="M298,63.7c1.2,0.9,1.3,0.8,0.3-0.3c-0.5-0.5-0.8-0.7-0.9-0.7C297,62.8,297.2,63.1,298,63.7z"/>
		<path class="st3" d="M297.4,61.5c0,0.2,0.3,0.2,0.3,0c0.1-0.2-1.1-1.3-1.3-1.1C296.2,60.7,297.4,61.2,297.4,61.5z"/>
		<path class="st3" d="M296.4,59.3c0.4,0.2,0.5,0.1,0.2-0.2c-0.1-0.1-0.3-0.2-0.4-0.2C296,59,296,59.1,296.4,59.3z"/>
		<path class="st3" d="M248.2,52.6c-0.9-0.8-1.5-0.4,0.8,1C250,54.2,248.8,53.1,248.2,52.6z"/>
		<path class="st3" d="M251.3,52.8c-0.1,0.1-0.8-0.4-1-0.6c-0.2-0.2-0.7,0-0.6,0.2c0.1,0.1,1.1,0.8,1.2,0.8c0.1,0,0.1,0,0.1,0.1
			s0.1,0.2,0.3,0.2c0.5,0.2,0.7,0.1,0.2-0.2c-0.2-0.1-0.2-0.2-0.2-0.4C251.3,52.8,251.3,52.8,251.3,52.8z"/>
		<path class="st3" d="M253.4,53.2c0-0.1-1-1-1.1-1c0,0-0.1-0.1-0.2-0.3c-0.1-0.5-0.1,0.1-0.4-0.1c-0.2-0.2-0.4,0.1-0.1,0.3
			C252.4,52.6,253.4,53.6,253.4,53.2z"/>
		<path class="st3" d="M244.9,52.5c0.1-0.1,0-0.1-0.1,0c-0.3,0.1-0.9,0-0.9,0.2C243.8,52.8,244.7,52.7,244.9,52.5z"/>
		<path class="st3" d="M254.5,52.4c0.2,0.2,0.3,0.1,0.1-0.2c-0.1-0.2-0.7-0.6-0.9-0.6c-0.2,0,0,0.4,0.3,0.5
			C254.2,52.1,254.5,52.3,254.5,52.4z"/>
		<path class="st3" d="M290.9,42.7c-0.3-0.3-0.7-0.3-0.7-0.1c0,0.2,0.5,0.3,0.8,0.5c0.7,0.7,0.9,0.3,0.5,0
			C291.3,43,291.1,42.8,290.9,42.7z"/>
		<path class="st3" d="M291.9,41.9c-0.3-0.3-0.5-0.4-0.6-0.3c-0.2,0.2,0,0.4,0.8,0.9C293.8,43.5,292.6,42.5,291.9,41.9z"/>
		<path class="st3" d="M294.4,42c-0.3-0.1-1.3-1.3-1.7-0.8c-0.1,0.1,0.1,0.3,0.8,0.7C294.8,42.5,294.5,42,294.4,42z"/>
		<path class="st3" d="M295.3,41.5c0.1,0.1,0.4,0.1,0.4,0c0-0.1,0-0.1-0.1-0.1s-0.3-0.2-0.6-0.4c-1.2-0.8-1.4-0.1-0.3,0.2
			C295,41.3,295.3,41.4,295.3,41.5z"/>
		<path class="st3" d="M297.5,40.7c-0.2,0-1.1-1.1-1.6-0.9c-0.3,0.1-0.4,0.4-0.2,0.4c0.2,0,1.1,0.4,1.5,0.6
			C297.7,41.2,297.6,40.7,297.5,40.7z"/>
		<path class="st3" d="M297.3,38.9c-0.2,0.1-0.3,0.6,0,0.6c0.1,0,0.4,0.1,0.7,0.3c0.8,0.4,1.1,0.3,0.5-0.1c-0.2-0.1-0.2-0.2-0.2-0.3
			c0.1-0.1,0-0.1-0.1-0.1C297.7,39.5,297.6,38.8,297.3,38.9z"/>
		<path class="st3" d="M298.7,38.6C298.7,38.7,298.7,38.6,298.7,38.6c-0.1-0.3-0.6-0.2-0.7,0.1c0,0.2,0,0.2,0.2,0.2
			c0.2,0,0.5,0.1,0.7,0.2c0.6,0.3,0.9,0.3,0.5,0c-0.2-0.1-0.4-0.3-0.5-0.4C298.9,38.6,298.8,38.6,298.7,38.6z"/>
		<path class="st3" d="M299.8,38c-0.1,0-0.2-0.1-0.3-0.2c-0.2-0.2-0.6-0.2-0.6,0.1c0,0.1,0.3,0.3,0.6,0.4
			C301.2,39.2,300,38,299.8,38z"/>
		<path class="st3" d="M299.9,37.4c-0.4,0.5,0.3,0.3,0.9,0.7C302.1,38.7,300.4,36.8,299.9,37.4z"/>
		<path class="st3" d="M301.1,36.6c-0.2,0.3-0.2,0.3,0.5,0.6C303.9,38.3,301.3,36.3,301.1,36.6z"/>
		<path class="st3" d="M280.2,26c0,0.4,3,2.8,3,2.4c0-0.1-0.7-0.8-0.8-0.8C282.2,27.6,280.2,25.3,280.2,26z"/>
		<path class="st3" d="M280.5,24.3c-0.4-0.2-0.8,0.1,0.9,1.2c0.4,0.2,0.7,0.6,0.8,0.5c0.1-0.1,0-0.2-0.9-0.9
			C280.8,24.6,280.9,24.5,280.5,24.3z"/>
		<path class="st3" d="M254.6,24.9c0.1-0.1-0.8-0.9-1-0.9C253.2,24,254.6,25,254.6,24.9z"/>
		<path class="st3" d="M280.2,22.5c0-0.1-0.1-0.2-0.2-0.2c-0.3,0-0.9-0.8-0.9-0.4c0,0.7,1.3,1.3,1.7,1.8c0.3,0.3,0.9,0.5-0.1-0.5
			C280.5,22.9,280.2,22.6,280.2,22.5z"/>
		<path class="st3" d="M265.7,22.9c0.2-0.1,0.2-0.1-0.1-0.2c-0.3-0.1-1-0.3-0.6,0.1C265.1,23.1,265.3,23.1,265.7,22.9z"/>
		<path class="st3" d="M252.9,22.6c0-0.1-0.8-0.9-1-0.9C251.4,21.7,252.9,22.9,252.9,22.6z"/>
		<path class="st3" d="M279,19.8c-0.5-0.3-0.6,0.1-0.1,0.5c0.9,0.8,1.9,1.6,1.9,1.3C280.7,21.4,279.4,20.1,279,19.8z"/>
		<path class="st3" d="M250.3,19.6c0,0.1,0.4,0.5,1.2,1.1c0.7,0.5,0.9,0.6,0.9,0.4c0-0.1-0.1-0.1-0.1-0.1c-0.1,0-0.3-0.2-0.6-0.5
			C250.9,19.7,250.3,19.3,250.3,19.6z"/>
		<path class="st3" d="M278.4,17.5c0.1-0.2-1.2-0.5-0.5,0.2c0.5,0.4,0.2,0.6,0.6,0.7c0.4,0.1,1.6,1.3,1.6,0.9c0,0-1.3-1.3-1.4-1.5
			C278.7,17.6,278.3,17.7,278.4,17.5z"/>
		<path class="st3" d="M250.2,18.1c0.7,0.4,0.9,0.4,0.3,0c-0.2-0.2-0.6-0.5-0.9-0.8C248.3,16.1,247.1,16,250.2,18.1z"/>
		<path class="st3" d="M277.5,14.8c-0.1,0-0.3-0.1-0.4-0.1c-0.8-0.2,0.5,1.3,1.7,2.1c0.5,0.3,0.5,0,0-0.4c-0.2-0.2-0.4-0.4-0.4-0.4
			C278.4,15.8,277.7,14.9,277.5,14.8z"/>
	</g>
</g>
<g>
	<path class="st3" d="M8.9,90.9L8.9,90.9V91c0,1.2,0.2,2.4,0.7,3.6c0.5,1.2,1.1,2.2,2,3.1c0.8,0.9,1.8,1.7,3,2.2
		c1.1,0.6,2.4,0.9,3.7,0.9c1.2,0,2.4-0.1,3.5-0.4c1.1-0.3,2.2-1,3.3-1.9c0.4-0.3,0.8-0.6,1.2-0.8c0.4-0.3,0.9-0.5,1.3-0.6
		c0.5-0.1,1-0.1,1.5,0c0.5,0.1,1.1,0.4,1.7,0.9c0.4,0.3,0.7,0.7,0.9,1.2c0.2,0.5,0.3,0.9,0.3,1.4c0,0.5-0.1,1-0.3,1.5
		c-0.2,0.5-0.5,1-1,1.4c-1.5,1.5-3.2,2.7-5.3,3.4c-2,0.8-4.2,1.2-6.4,1.2c-2.4,0-4.6-0.4-6.8-1.3c-2.1-0.9-3.9-2.1-5.5-3.6
		c-1.6-1.5-2.8-3.3-3.7-5.4c-0.9-2.1-1.4-4.3-1.4-6.7v0l0-0.1l0,0c0-2.4,0.5-4.6,1.4-6.7c0.9-2.1,2.2-3.9,3.7-5.5
		c1.6-1.6,3.4-2.8,5.5-3.7c2.1-0.9,4.4-1.4,6.8-1.4c2.3,0,4.4,0.4,6.4,1.2c2,0.8,3.8,1.9,5.3,3.4c0.4,0.4,0.8,0.9,1,1.4
		c0.2,0.5,0.3,1,0.3,1.5c0,0.5-0.1,1-0.3,1.4c-0.2,0.5-0.5,0.9-0.9,1.2c-0.6,0.5-1.1,0.8-1.7,0.9s-1,0.1-1.5,0
		c-0.5-0.1-0.9-0.3-1.3-0.6c-0.4-0.3-0.8-0.6-1.2-0.8c-1.1-0.9-2.2-1.5-3.3-1.8c-1.1-0.3-2.3-0.5-3.5-0.5c-1.3,0-2.6,0.4-3.7,0.9
		c-1.1,0.6-2.1,1.3-3,2.2c-0.8,0.9-1.5,2-2,3.1C9.1,88.5,8.9,89.7,8.9,90.9z"/>
	<path class="st3" d="M44.2,77.9c1.3-1.3,2.7-2.2,4.3-3s3.2-1.1,4.9-1.1c2.1,0,4,0.4,5.7,1.3c1.7,0.8,3.2,2,4.4,3.5
		c1.2,1.5,2.2,3.2,2.9,5.3c0.7,2,1,4.2,1,6.6v13.8c0,1-0.3,1.9-1,2.5c-0.7,0.7-1.5,1-2.6,1c-1,0-1.9-0.3-2.6-1c-0.7-0.7-1-1.5-1-2.5
		V90.6c0-1.4-0.2-2.8-0.5-3.9c-0.3-1.2-0.9-2.2-1.5-3.1c-0.7-0.9-1.5-1.5-2.4-2c-1-0.5-2-0.7-3.2-0.7c-1.2,0-2.3,0.2-3.3,0.7
		c-1,0.5-1.9,1.1-2.6,1.9c-0.7,0.8-1.3,1.7-1.8,2.8c-0.4,1.1-0.7,2.3-0.7,3.5v14.3c0,1-0.3,1.9-1,2.5c-0.7,0.7-1.5,1-2.5,1
		c-0.5,0-1-0.1-1.4-0.3c-0.4-0.2-0.8-0.4-1.2-0.8c-0.3-0.3-0.6-0.7-0.8-1.1c-0.2-0.4-0.3-0.9-0.3-1.4V65.3c0-0.5,0.1-1,0.3-1.4
		c0.2-0.4,0.4-0.8,0.8-1.2c0.3-0.3,0.7-0.6,1.2-0.8c0.4-0.2,0.9-0.3,1.4-0.3c0.5,0,1,0.1,1.4,0.3s0.8,0.4,1.1,0.8
		c0.3,0.3,0.6,0.7,0.8,1.2c0.2,0.4,0.3,0.9,0.3,1.4V77.9z"/>
	<path class="st3" d="M81.6,77.5c1.5-1.2,3.2-2,5-2.7c1.8-0.6,3.7-1,5.8-1h0.1c1.2,0,2.1,0.3,2.7,1c0.6,0.7,1,1.5,1,2.6
		c0,1-0.4,1.9-1.1,2.6c-0.7,0.7-1.6,1-2.6,1h-0.1c-1.5,0-2.9,0.3-4.2,0.8c-1.3,0.6-2.4,1.3-3.4,2.3c-1,1-1.7,2.1-2.3,3.5
		c-0.6,1.3-0.8,2.7-0.8,4.2v12.3c0,1-0.3,1.9-1,2.5s-1.5,1-2.5,1c-0.5,0-0.9-0.1-1.4-0.3c-0.4-0.2-0.8-0.4-1.2-0.8
		c-0.3-0.3-0.6-0.7-0.8-1.1c-0.2-0.4-0.3-0.9-0.3-1.4V77.4c0-0.5,0.1-1,0.3-1.4c0.2-0.4,0.5-0.8,0.8-1.1c0.3-0.3,0.7-0.6,1.2-0.8
		c0.4-0.2,0.9-0.3,1.4-0.3s1,0.1,1.4,0.3c0.4,0.2,0.8,0.5,1.1,0.8c0.3,0.3,0.6,0.7,0.7,1.1C81.5,76.4,81.6,76.9,81.6,77.5L81.6,77.5
		z"/>
	<path class="st3" d="M113.4,95.9l8.9-19.9c0.2-0.5,0.5-0.8,0.8-1.2c0.3-0.3,0.7-0.6,1.2-0.7c0.4-0.2,0.9-0.3,1.3-0.3
		c0.5,0,0.9,0.1,1.4,0.3c0.5,0.2,0.9,0.5,1.2,0.8c0.3,0.3,0.6,0.7,0.8,1.2c0.2,0.4,0.2,0.9,0.2,1.4c0,0.5-0.1,0.9-0.3,1.4
		l-17.9,39.3c-0.2,0.5-0.5,0.8-0.8,1.2c-0.3,0.3-0.7,0.6-1.2,0.7c-0.4,0.2-0.9,0.3-1.4,0.3c-0.5,0-0.9-0.1-1.4-0.3
		c-0.9-0.4-1.5-1.1-1.7-1.9c-0.2-0.9-0.1-1.8,0.3-2.8l4.9-11L98.1,78.9c-0.2-0.5-0.3-0.9-0.3-1.4c0-0.5,0.1-0.9,0.2-1.4
		s0.4-0.8,0.7-1.2c0.3-0.3,0.7-0.6,1.2-0.8c0.5-0.2,0.9-0.3,1.4-0.3c0.5,0,0.9,0.1,1.3,0.3s0.8,0.4,1.2,0.8c0.3,0.3,0.6,0.7,0.8,1.2
		L113.4,95.9z"/>
	<path class="st3" d="M139.3,92.2c-1.4-0.6-2.6-1.3-3.6-2.1c-1.1-0.8-1.9-1.7-2.6-2.8c-0.6-1.1-1-2.3-1-3.7c0-1.5,0.3-2.9,1-4.1
		c0.7-1.2,1.5-2.3,2.6-3.1c1.1-0.9,2.4-1.5,3.8-2c1.4-0.5,2.9-0.7,4.4-0.7c1,0,2,0.1,3.1,0.3c1.1,0.2,2.1,0.5,3,0.9
		c1,0.4,1.8,0.9,2.6,1.5c0.8,0.6,1.4,1.3,1.8,2.1c0.3,0.7,0.5,1.4,0.4,2c-0.1,0.6-0.3,1.1-0.8,1.6c-0.4,0.5-1,0.8-1.6,1
		c-0.6,0.2-1.3,0.1-1.9-0.2c-0.5-0.4-1-0.7-1.4-1.1c-0.5-0.3-0.9-0.7-1.4-0.9c-0.5-0.3-1-0.5-1.5-0.6c-0.5-0.2-1.1-0.3-1.7-0.3
		c-1.5,0-2.7,0.3-3.7,0.8c-1,0.6-1.5,1.4-1.5,2.6c0,0.6,0.2,1.1,0.5,1.5s0.7,0.8,1.3,1.2c0.5,0.3,1.2,0.6,1.9,0.9
		c0.7,0.3,1.6,0.5,2.4,0.8c1.4,0.5,2.8,0.9,4.1,1.5c1.3,0.5,2.4,1.2,3.4,1.9c1,0.8,1.8,1.7,2.4,2.8c0.6,1.1,0.9,2.4,0.9,3.9
		c0,1.4-0.3,2.8-0.9,4c-0.6,1.2-1.5,2.3-2.5,3.2c-1.1,0.9-2.4,1.6-3.8,2.2s-3.1,0.8-4.8,0.8c-1.1,0-2.3-0.1-3.5-0.3
		c-1.2-0.2-2.4-0.6-3.5-1.1c-1.1-0.5-2.1-1.1-3.1-1.9c-0.9-0.8-1.7-1.7-2.2-2.8c-0.4-0.7-0.6-1.4-0.6-2c0-0.6,0.2-1.1,0.4-1.6
		c0.3-0.5,0.6-0.8,1.1-1.1c0.5-0.3,1-0.4,1.6-0.5c0.6,0,1.2,0.1,1.8,0.3c0.6,0.3,1.2,0.7,1.7,1.3c0.8,1.1,1.6,2,2.6,2.5
		c1,0.5,2.2,0.8,3.7,0.8c0.6,0,1.3-0.1,1.9-0.3s1.2-0.4,1.7-0.7c0.5-0.3,0.9-0.7,1.2-1.1c0.3-0.4,0.4-1,0.4-1.5
		c0-0.7-0.2-1.3-0.6-1.8c-0.4-0.5-0.9-0.9-1.4-1.2c-0.6-0.3-1.2-0.6-1.9-0.8c-0.7-0.2-1.3-0.4-1.9-0.6
		C142.1,93.3,140.7,92.8,139.3,92.2z"/>
	<path class="st3" d="M159.6,91c0-2.4,0.5-4.6,1.4-6.7c0.9-2.1,2.1-3.9,3.7-5.5c1.6-1.6,3.4-2.8,5.5-3.7s4.3-1.4,6.7-1.4
		c2.4,0,4.6,0.4,6.6,1.3c2.1,0.9,3.9,2.1,5.4,3.7c1.5,1.5,2.8,3.4,3.7,5.4c0.9,2.1,1.4,4.3,1.4,6.6v13.2c0,0.5-0.1,1-0.3,1.4
		c-0.2,0.4-0.4,0.8-0.8,1.2c-0.3,0.3-0.7,0.6-1.2,0.8c-0.5,0.2-0.9,0.3-1.4,0.3c-1,0-1.8-0.3-2.4-0.9c-0.6-0.6-1-1.4-1.1-2.3
		c-1.4,1.1-3,2-4.6,2.7c-1.7,0.7-3.5,1-5.3,1c-2.4,0-4.6-0.5-6.7-1.4s-3.9-2.1-5.5-3.7s-2.8-3.4-3.7-5.5
		C160.1,95.6,159.6,93.4,159.6,91z M166.8,91c0,1.4,0.3,2.7,0.8,3.9c0.5,1.2,1.2,2.3,2.1,3.2c0.9,0.9,2,1.6,3.2,2.1
		c1.2,0.5,2.5,0.8,3.9,0.8c1.4,0,2.7-0.3,3.9-0.8c1.2-0.5,2.3-1.2,3.2-2.1c0.9-0.9,1.6-2,2.1-3.2c0.5-1.2,0.8-2.5,0.8-3.9
		c0-1.4-0.3-2.7-0.8-3.9c-0.5-1.2-1.2-2.3-2.1-3.2c-0.9-0.9-2-1.6-3.2-2.1s-2.5-0.8-3.9-0.8c-1.4,0-2.7,0.3-3.9,0.8
		s-2.3,1.2-3.2,2.1c-0.9,0.9-1.6,2-2.1,3.2C167.1,88.3,166.8,89.6,166.8,91z"/>
	<path class="st3" d="M208.3,104.2c0,1-0.3,1.8-1,2.5c-0.7,0.7-1.5,1-2.5,1c-1,0-1.9-0.3-2.6-1c-0.7-0.7-1-1.5-1-2.5v-39
		c0-1,0.3-1.8,1-2.5c0.7-0.7,1.5-1,2.6-1c1,0,1.9,0.3,2.5,1c0.7,0.7,1,1.5,1,2.5V104.2z"/>
	<path class="st3" d="M215.4,64.5c0.2-0.5,0.5-0.9,0.9-1.3c0.4-0.4,0.8-0.6,1.3-0.8c0.5-0.2,1-0.3,1.5-0.3c0.6,0,1.1,0.1,1.5,0.3
		c0.5,0.2,0.9,0.5,1.3,0.8c0.4,0.4,0.6,0.8,0.9,1.3c0.2,0.5,0.3,1,0.3,1.6c0,0.6-0.1,1.1-0.3,1.5c-0.2,0.5-0.5,0.9-0.9,1.3
		c-0.4,0.4-0.8,0.6-1.3,0.8c-0.5,0.2-1,0.3-1.5,0.3c-0.6,0-1.1-0.1-1.5-0.3c-0.5-0.2-0.9-0.5-1.3-0.8c-0.4-0.4-0.6-0.8-0.9-1.3
		c-0.2-0.5-0.3-1-0.3-1.5C215.1,65.5,215.2,65,215.4,64.5z M222.7,104.2c0,1-0.3,1.9-1,2.5c-0.7,0.7-1.5,1-2.5,1
		c-0.5,0-0.9-0.1-1.4-0.3c-0.4-0.2-0.8-0.4-1.2-0.8c-0.3-0.3-0.6-0.7-0.8-1.1c-0.2-0.4-0.3-0.9-0.3-1.4V77.4c0-0.5,0.1-1,0.3-1.4
		c0.2-0.4,0.5-0.8,0.8-1.1c0.3-0.3,0.7-0.6,1.2-0.8c0.4-0.2,0.9-0.3,1.4-0.3c0.5,0,1,0.1,1.4,0.3c0.4,0.2,0.8,0.5,1.1,0.8
		c0.3,0.3,0.6,0.7,0.7,1.1c0.2,0.4,0.3,0.9,0.3,1.4V104.2z"/>
	<path class="st3" d="M235.6,92.2c-1.4-0.6-2.6-1.3-3.6-2.1c-1.1-0.8-1.9-1.7-2.6-2.8c-0.6-1.1-1-2.3-1-3.7c0-1.5,0.3-2.9,1-4.1
		c0.7-1.2,1.5-2.3,2.6-3.1c1.1-0.9,2.4-1.5,3.8-2c1.4-0.5,2.9-0.7,4.4-0.7c1,0,2,0.1,3.1,0.3c1.1,0.2,2.1,0.5,3,0.9
		c1,0.4,1.8,0.9,2.6,1.5c0.8,0.6,1.4,1.3,1.8,2.1c0.3,0.7,0.5,1.4,0.4,2c-0.1,0.6-0.3,1.1-0.8,1.6c-0.4,0.5-1,0.8-1.6,1
		c-0.6,0.2-1.3,0.1-1.9-0.2c-0.5-0.4-1-0.7-1.4-1.1c-0.5-0.3-0.9-0.7-1.4-0.9c-0.5-0.3-1-0.5-1.5-0.6c-0.5-0.2-1.1-0.3-1.7-0.3
		c-1.5,0-2.7,0.3-3.7,0.8c-1,0.6-1.5,1.4-1.5,2.6c0,0.6,0.2,1.1,0.5,1.5s0.7,0.8,1.3,1.2c0.5,0.3,1.2,0.6,1.9,0.9
		c0.7,0.3,1.6,0.5,2.4,0.8c1.4,0.5,2.8,0.9,4.1,1.5c1.3,0.5,2.4,1.2,3.4,1.9s1.8,1.7,2.4,2.8c0.6,1.1,0.9,2.4,0.9,3.9
		c0,1.4-0.3,2.8-0.9,4c-0.6,1.2-1.5,2.3-2.5,3.2c-1.1,0.9-2.4,1.6-3.8,2.2s-3.1,0.8-4.8,0.8c-1.1,0-2.3-0.1-3.5-0.3
		c-1.2-0.2-2.4-0.6-3.5-1.1c-1.1-0.5-2.1-1.1-3.1-1.9c-0.9-0.8-1.7-1.7-2.2-2.8c-0.4-0.7-0.6-1.4-0.6-2c0-0.6,0.2-1.1,0.4-1.6
		c0.3-0.5,0.6-0.8,1.1-1.1c0.5-0.3,1-0.4,1.6-0.5c0.6,0,1.2,0.1,1.8,0.3c0.6,0.3,1.2,0.7,1.7,1.3c0.8,1.1,1.6,2,2.6,2.5
		c1,0.5,2.2,0.8,3.7,0.8c0.6,0,1.3-0.1,1.9-0.3s1.2-0.4,1.7-0.7c0.5-0.3,0.9-0.7,1.2-1.1c0.3-0.4,0.4-1,0.4-1.5
		c0-0.7-0.2-1.3-0.6-1.8c-0.4-0.5-0.9-0.9-1.4-1.2c-0.6-0.3-1.2-0.6-1.9-0.8c-0.7-0.2-1.3-0.4-1.9-0.6
		C238.3,93.3,236.9,92.8,235.6,92.2z"/>
</g>
</svg>
