<?xml version="1.0" encoding="utf-8"?>
<!-- Generator: Adobe Illustrator 25.3.1, SVG Export Plug-In . SVG Version: 6.00 Build 0)  -->
<svg version="1.1" id="Layer_1" xmlns="http://www.w3.org/2000/svg" xmlns:xlink="http://www.w3.org/1999/xlink" x="0px" y="0px"
	 viewBox="0 0 432.48 181.35" style="enable-background:new 0 0 432.48 181.35;" xml:space="preserve">
<style type="text/css">
	.st0{fill:#8258A3;}
	.st1{fill:#BFAA52;}
	.st2{fill:#A84A61;}
	.st3{fill:#231F20;}
	.st4{fill:none;}
	.st5{font-family:'MyriadPro-Regular';}
	.st6{font-size:72px;}
</style>
<polygon class="st0" points="422.31,129.58 422.31,105.66 401.59,93.7 380.88,105.66 380.88,110 389.1,128.75 389.94,134.81 
	401.59,141.54 "/>
<polygon class="st1" points="352.43,156.95 352.43,155.8 340.04,158.14 334.48,155.23 331.53,144.66 326.16,109.08 324.1,107.89 
	295.78,124.24 295.78,156.95 324.1,173.3 "/>
<polygon class="st2" points="407.87,51.82 407.87,19.12 379.55,2.77 351.23,19.12 351.23,51.82 379.55,68.17 "/>
<g>
	<path class="st3" d="M278.89,100.83c3.11-0.54,3.3-0.58,3.93-0.82c0.94-0.36,1.68-0.27,1.81,0.21c0.14,0.54,2,1.01,2.46,0.63
		c0.21-0.17,0.36-0.17,0.55,0.02c0.37,0.37,1.06,0.32,1.06-0.08c0-0.41,0.29-0.33,1.18-0.47c0.4-0.06,0.9,0.07,1.39,0.37
		c0.87,0.54,0.99,0.37,0.28-0.38c-0.55-0.59-0.43-0.88,0.23-0.53c0.25,0.13,0.7,0.24,1,0.24c0.31,0,0.61,0.09,0.68,0.21
		c0.19,0.31,1.5,0.92,1.65,0.78c0.07-0.07-0.12-0.31-0.42-0.54c-0.43-0.32-0.48-0.44-0.22-0.52c1.47-0.47,1.77-0.66,2.2-0.28
		c0.6,0.53,2.02,1.25,2.02,1.02c0-0.12-0.08-0.22-0.17-0.23c-0.27-0.01-1.14-0.8-1.21-1.1c-0.06-0.26,0.17-0.35,1.27-0.48
		c0.42-0.05,2.09,0.62,2.33,0.93c0.19,0.25,1.14,0.7,1.25,0.59c0.13-0.13-1.98-1.75-2.18-2.02c-0.44-0.62-3.17,0.47-4.3-0.27
		c-1.27-0.83-0.3,0.58-2.16,0.58h-0.89c2.67-1.42,2.61-1.51,4.57-1.48c0.95,0.01,1.8-0.07,1.89-0.19c0.29-0.41,1.13-0.77,1.27-0.54
		c0.23,0.37,0.55,0.24,0.55-0.22c0-0.31,0.35-0.6,1.2-1c0.66-0.31,1.32-0.71,1.47-0.89c0.15-0.18,0.36-0.33,0.47-0.33
		c0.1,0,3-2.22,3.75-2.22c0.22,0,0.45-0.12,0.5-0.28c0.05-0.15,0.17-0.21,0.26-0.13c0.09,0.08,0,0.39-0.2,0.69
		c-0.34,0.51-0.49,0.99-0.66,2.04c-0.15,0.93-0.8,1.82-1.32,3c-0.4,0.9-0.87,1.45-1.21,1.88l-0.51-0.47
		c-2.2-2.02-5.92-0.74-3.15-0.74c1.5,0,1.45,0.56,2.94,1.37c0.64,0.35,0.67,0.42,0.45,1.07c-0.33,0.93-0.09,1.1,0.35,0.25
		c0.58-1.12,1.42-0.43,0.64-1.06l-0.46-0.38l0.62-0.62c0.58-0.58,1.32-0.67,1.32-0.16c0,0.11,0.16,0.2,0.36,0.2
		c0.2,0,0.75,0.31,1.22,0.68c0.65,0.51,0.86,0.6,0.86,0.33c0-0.19-0.08-0.35-0.17-0.35c-0.09,0-1.89-1.75-2.32-1.76
		c-1.09-0.03-0.26-0.56,1.46-4.06c2.02-4.12,1.06-1.9,5.35-3.15c0.88-0.26,2.66-0.88,2.78-0.9c1.43-0.18,0.69-0.5,2.94-1.57
		c0.88-0.42,1.91-0.96,2.28-1.21c0.85-0.56,1.22-0.74,1.31-0.64c0.33,0.38,0.43,6.74,0.97,11.85c0.15,1.43,0.19,4.47,0.32,4.56
		c0.58,0.44,0.44,3.52-0.19,4.17c-0.35,0.36-0.97,1.02-1.36,1.46c-1.11,1.23-0.4,0.15-1.29,1.21c-0.9,1.07-1.1,0.07-1.33,0.99
		c-0.08,0.3-0.31,0.6-0.52,0.65c-0.79,0.21-1.07,2.71-0.52,4.71c0.34,1.23,0.65,5.22,0.41,5.22c-0.11,0-0.07,0.15,0.08,0.34
		c0.56,0.67-0.45-0.26-0.45,0.44c0,0.63,0.79-0.04,0.59,0.28c-0.04,0.06,0.32,2.74,0.42,4.16c0.21,2.9,0.31,1.37,0.75,4.22
		c0.34,2.22,0.59,3.44,1.03,4.99c0.39,1.39,0.59,5.24,0.25,4.91c-0.39-0.39-1.51,0.31-0.22,0.46l0.61,0.07
		c0,2.86,0.06,4.56-0.28,4.75c-0.23,0.13-0.22,0.22,0.06,0.45c0.39,0.32,0.47,0.9,0.12,0.9c-0.31,0-0.28,0.61,0.03,0.71
		c0.26,0.09,0.32,2.24,0.07,2.63c-0.07,0.11-0.04,0.21,0.06,0.21c0.24,0,0.21,2.25-0.03,2.64c-0.11,0.18-0.07,0.37,0.12,0.48
		c0.37,0.23,0.38,6.17,0,6.41c-0.51,0.32-0.29,6.52-0.92,10.34c-0.3,1.83,0.1,2.75-1.58,4.37c-1.23,1.2-1.36,1.75-0.47,2.1
		c1.21,0.48,2.5-0.19,2.5-1.3c0-0.49,1.49-2.73,1.84-2.77c0.15-0.02,0.4-0.04,0.55-0.06c0.41-0.04,0.34-0.43-0.09-0.51
		c-0.31-0.06-0.27-0.19,0.23-0.78c0.59-0.7,1.13-0.77,1.51-0.2c0.09,0.13,0.23,0.16,0.31,0.07c0.09-0.09-0.06-0.35-0.32-0.57
		c-0.58-0.5-0.59-0.66-0.07-1.33c0.39-0.51,0.42-0.51,1.13-0.15c0.93,0.48,1.05,0.34,0.35-0.41c-0.67-0.72-0.68-0.81-0.11-1.74
		c0.24-0.4,0.44-0.62,0.44-0.48c0,0.13,0.39,0.4,0.88,0.59c1.01,0.4,0.89-0.19-0.14-0.74c-1-0.54-0.21-1.31,0.37-2.02l1.02,0.6
		c1.01,0.59,1.72,0.58,0.87-0.01c-0.78-0.55-1.66-1.41-1.66-1.62c0-0.34-0.7-0.49-1.03-0.23c-0.35,0.29-0.41,0.86-0.08,0.86
		c0.65,0-0.21,1.17-1.05,1.43c-0.51,0.16-0.68,0.69-0.27,0.83c0.28,0.09-2.49,3.07-2.85,3.07c-0.14,0-0.26,0.15-0.26,0.33
		s0.1,0.33,0.22,0.33c0.42,0,0.22,0.39-0.25,0.52c-0.74,0.19,0.11-0.05-0.2-0.89c-0.37-0.98,0.68-1.43,0.68-3.38
		c0-0.61,0.11-1.17,0.24-1.25c0.15-0.09,0.16-0.23,0.03-0.36c-0.3-0.3,0.17-2.02,0.07-2.94c-0.09-0.86,0.32-0.36,0.32-0.91
		c0-0.18-0.11-0.33-0.24-0.33c-0.16,0-0.19-0.75-0.08-2.39c0.18-2.9,0.18-4.12,0.52-4.23c0.53-0.18-0.55-0.58,0.01-0.92
		c0.35-0.22,0.2-1.69-0.1-7.25c-0.03-0.63-0.17-1.67-0.31-2.33c-0.54-2.63-0.72-11.23-0.24-11.42c0.65-0.25-0.85-0.72-0.42-1.15
		c0.37-0.37-0.49-1.44-0.32-2.3c0.15-0.78-0.59-2.77-0.59-3.97c0-1.31-0.73-1.14-0.28-1.59c0.34-0.34-0.07-0.17-0.24-3.07
		c-0.21-3.5-0.51-5.33-0.2-5.33c0.27,0,1.85-2.08,2.22-2.94c0.46-1.06,0.8-0.75,0.66,0.61c-0.07,0.69-0.03,1.28,0.09,1.35
		c0.12,0.07,0.16,0.32,0.09,0.54c-0.07,0.22-0.02,0.48,0.12,0.56c0.14,0.08,0.23,0.57,0.21,1.07c-0.05,1.23,0.04,0.98,0.13,1.92
		c0.47,4.86,2.4,12.99,1.74,13.25c-0.19,0.07-0.22,0.24-0.1,0.48c0.26,0.5,0.91,3.57,0.9,4.26c0,0.31,0.1,0.67,0.23,0.8
		c0.13,0.13,0.29,0.97,0.35,1.88c0.07,0.9,0.31,2.22,0.55,2.93c0.24,0.71,0.37,1.39,0.29,1.51c-0.2,0.32,0.45,0.72,0.28,1.17
		c-0.3,0.77,1.84,6.5,2.3,8.13c0.16,0.55,0.38,1.12,0.5,1.28c0.13,0.18,0.13,0.28-0.01,0.28c-0.27,0-0.12,1.91,0.21,2.58
		c0.32,0.66,3.92,2.3,5.05,2.3c1.8,0-0.09,0.6,3.21,0.35c1.06-0.08,5.18-0.18,6.4-0.82c0.54-0.28,1.1-0.25,1.97,0.1
		c1.16,0.47,1.97,0.62,1.97,0.37c0-0.12-0.12-0.23-0.28-0.23c-0.15,0-0.53-0.2-0.83-0.44l-0.55-0.43c0.82,0,1.62-0.09,3.47,0.54
		c2.16,0.73,2.92,0.59,1.19-0.24c-1.76-0.84-0.44-1.18,1.68-0.44c0.89,0.31,1.67,0.56,1.73,0.56c0.28,0-1.45-1.32-1.75-1.34
		c-0.45-0.03,0.98-0.93,2.98-0.1c0.93,0.39,1.02,0.4,1.02,0.09c0-0.13-0.3-0.34-0.67-0.47c-0.77-0.27-0.85-0.63-0.24-1.01
		c0.45-0.28,1.01-0.18,2.51,0.47c1.75,0.75,1.32-0.09,1.05-0.09c-0.38,0-1.77-1.02-1.61-1.18c0.28-0.28,1.14-0.14,2.63,0.42
		c1.82,0.68,2.31,0.6,1.11-0.19c-1.65-1.08-1.81-1.26-1.44-1.49c0.54-0.34,1.73-0.06,4.27,1c0.87,0.37,0.3-0.3-0.95-1.09
		c-2.17-1.38-0.2-2.06,3.05-1.05c0.72,0.22,1.5,0.38,1.72,0.35c0.78-0.11,2.11,1.11,2.11,0.26c0-0.47,2.14-0.55,3-0.11
		c2.88,1.48,4.59,1.87,2.78,0.64c-1.22-0.83-1.38-1.19-0.61-1.39c0.7-0.19,2.11-0.17,2.2,0.03c0.15,0.33,2.52,1.37,2.59,1.15
		c0.09-0.26-0.5-0.78-1.24-1.09c-0.65-0.27-0.63-0.53,0.07-0.99c0.53-0.34,0.63-0.35,1.31-0.03c1.01,0.48,1.23,0.29,1.23,0.55
		c0,0.29,1.3,0.4,1.73,0.74c0.39,0.31,0.69-0.09,0.32-0.22c-0.43-0.16-0.8-0.73-1.15-0.73c-0.38,0-0.28-0.58-0.92-0.78
		c-0.57-0.18-0.53-0.41,0.1-0.76c0.46-0.25,0.71-0.2,2.01,0.41c2.78,1.29,2.21,0.24,1.78,0.24c-0.19,0-0.4-0.15-0.47-0.33
		c-0.07-0.18-0.22-0.33-0.34-0.33c-0.11,0-0.42-0.19-0.67-0.43c-1.03-0.96,0.32-1.55,1.46-0.65c0.87,0.69,0.34-0.04,1.93,0.77
		c0.6,0.3,1.08,0.51,1.08,0.45c0-0.35-0.32-0.8-0.56-0.8c-0.16,0-0.69-0.33-1.17-0.74c-1.17-0.98-0.67-1.49,0.89-0.91
		c3.66,1.36,1.12-0.49,0.61-0.41c-0.62,0.1-0.86-1.64,0.83-0.84c3.04,1.45,2.85,0.62,2.58,0.52c-0.37-0.13-1.13-0.9-1.63-1.18
		c-1.1-0.62,1.82-0.55,2.77-0.54l-0.44-0.46c-0.24-0.25-0.72-0.63-1.05-0.84c-0.94-0.6-0.1-1.26,1.58-1.26
		c0.59,0,0.59-0.1,0.02-0.67c-0.25-0.25-0.4-0.54-0.34-0.64c0.24-0.39-1.56,0.02-1.06-0.48c0.72-0.72,4.8-0.33,2.51-1.13
		c-1.09-0.38-1.12-1.96-0.03-1.97c1.52-0.01,0.44-0.35-1.18-0.37c-2.57-0.03-4.15-0.79-2.2-1.07c0.35-0.05,0.96-0.16,1.35-0.24
		c1.47-0.31,0.42,1.55,1.61,0.8c0.25-0.16,0.26-0.27,0.06-0.52c-0.31-0.37-0.13-0.61,0.44-0.61c0.41,0,0.97-0.44-0.93-0.44
		c-0.99,0-1.37-0.09-1.47-0.33c-0.07-0.18-0.27-0.33-0.44-0.33c-0.47,0-0.14-0.44-0.64-0.44c-0.81,0-0.23-0.4,0.78-0.53
		c0.61-0.08,1.28-0.21,1.48-0.29c0.68-0.26-0.11,1.49,0.31,1.49c0.45,0-0.15-1.25,0.65-1.05c0.48,0.13,0.62-0.18,0.17-0.36
		c-0.17-0.07-0.12-0.12,0.11-0.13c0.49-0.02,0.59-0.52-0.15-0.34c-0.75,0.19-0.86-0.34-1.91-1.06l-0.55-0.38
		c2.42-0.11,2.29-0.14,3,0.08c0.69,0.21-0.82-1.27-1.83-1.79c-0.94-0.48-0.75-0.71,0.72-0.88c1.8-0.2,1.52-0.35-0.78-0.43
		c-2.85-0.09-3.74-1-1.28-1.31c1.12-0.14,1.16-0.12,1.31,0.44c0.1,0.39,0.2,0.49,0.31,0.31c0.19-0.31,0.55-0.14,1.66,0.24
		l-0.61-0.53c-1.36-1.18,0.06-0.55,0.06-1.06c0-0.15-0.27-0.21-0.72-0.14c-0.57,0.09-0.92-0.04-1.66-0.59
		c-2.42-1.8,1.05-0.59,1.05-1.08c0-0.09,0.32,0.03,0.72,0.28c1,0.61,1.23,0.55,0.59-0.14l-0.54-0.59c0.35,0.18,0.99,0.44,1.21,1.04
		c0.28,0.74,2.45,2.25,2.45,2.69c0,0.43,1.29,1.52,1.78,2.46c0.49,0.92,1.31,1.49,2.58,3.37c1.16,1.71,1.41,1.78,1.41,2.12
		c0,0.39,0.89,0.81,0.89,1.12c0,0.3,1.78,2.46,1.78,2.79c0,0.13,0.11,0.23,0.24,0.23c0.28,0,1.76,1.52,1.76,1.81
		c0,0.1,0.08,0.19,0.18,0.19c0.1,0,0.39,0.37,0.66,0.83c0.72,1.27,1.47,1.51,2.64,3.36c2,3.17,1.76,1.19,3.47,1.32
		c2.73,0.21-1.11-3.07-1.64-3.07c-0.31,0-0.05-0.67-0.54-0.67c-0.5,0-0.16-0.89-0.67-0.89c-0.47,0-0.1-0.36-0.85-1.13
		c-0.8-0.81-0.61-1.51-1.92-3.08c-1.29-1.54-0.61-1.16-1.45-2.14c-0.31-0.35-0.55-0.76-0.55-0.91c0-0.15-0.13-0.35-0.28-0.44
		c-0.35-0.23-0.5-0.58-1.14-1.49c-1.62-2.29,3.01,1.8,0.31-1.24c-1.52-1.72-2.02-2.22-2.21-2.22c-0.1,0-0.24-0.14-0.3-0.31
		c-0.13-0.34,0.65-0.24,0.86,0.11c0.07,0.11,0.21,0.2,0.33,0.2c0.82,0-0.93-1.49-2.3-2.83c-0.69-0.68-0.88-0.76-1.05-0.49
		c-0.32,0.51-0.25,0.85,0.23,1.1c0.24,0.13,0.44,0.33,0.44,0.43c0,0.4,1.59,3.56,1.79,3.56c0.12,0,0.21,0.14,0.21,0.3
		c0,0.17,0.21,0.57,0.47,0.9c0.38,0.48,0.43,0.69,0.24,1.08c-0.19,0.39-0.24,0.41-0.25,0.1c-0.02-0.59-0.35-0.15-0.57-0.84
		c-0.22-0.7-0.72,0.1-0.48-0.52c0.29-0.75-1.18-0.49-1.18-1.57c0-0.19-0.13-0.35-0.3-0.35c-0.35,0-1.58-1.47-1.98-2.37
		c-0.25-0.57-2.09-2.98-1.81-3.43c0.06-0.1,0.01-0.19-0.12-0.19c-0.13,0-0.24-0.2-0.24-0.45c0-0.66-0.67-0.55-0.67-1.01
		c0-0.44-1.11-0.91-1.11-1.29c0-0.42-0.99-0.88-0.8-1.39c0.25-0.65-2.47-2.31-1.15-2.1c0.22,0.03,0.23-0.42-0.05-0.42
		c-0.12,0-0.16-0.15-0.09-0.33c0.09-0.23-0.02-0.33-0.35-0.33c-0.71,0-0.01-0.37-0.55-0.58c-0.63-0.24-0.39-0.75,0.36-0.75
		c0.96,0,0.61-0.28-0.42-0.35c-0.46-0.03-0.99-0.06-1.19-0.08c-0.29-0.02-0.87-0.86-0.87-1.25c0-0.28,2.41-0.07,2.66,0.23
		c0.15,0.18,0.38,0.33,0.5,0.33c0.33,0-0.38-0.54-0.17-0.88c0.08-0.13-0.07-0.23-0.37-0.24c-0.54-0.01-2.26-1.39-2.02-1.63
		c0.22-0.22,1.4-0.04,1.4-0.36c0-0.34-1.25-0.09-1.39-0.5c-0.18-0.52-0.74,0.54-1.01,0.15c-0.25-0.34-1.45-0.81-1.55-1.3
		c-0.13-0.62,2.12-0.47,3.13,0.21c0.8,0.54,1.18,0.45,0.5-0.12c-0.48-0.4-0.41-0.67,0.17-0.67c1.19-0.01,1.04-0.39-0.19-0.49
		c-0.71-0.06-1.32-0.22-1.37-0.36c-0.05-0.14-0.2-0.26-0.34-0.26c-0.32,0-1.26-0.82-1.59-1.09l0.59-0.01
		c1.04-0.01,1.27-0.5,1.16,0.37c-0.13,1.1,0.05-0.99,1.11-0.7c1.28,0.35-3.51-2.34-0.22-2.34c1.45,0,0.62-0.4-0.98-0.47
		c-1.19-0.06-1.58-0.18-2.21-0.69c-0.42-0.34-0.9-0.62-1.05-0.62c-0.4,0-0.35-0.37,0.07-0.53c1.15-0.44,2.54,0.2,2.37,1.09
		c-0.06,0.32,0,0.55,0.14,0.55c0.36,0,0.12-0.89,0.53-0.89c0.34-0.01-0.61-0.7-0.83-0.87l0.83,0c1.01-0.01,1.36-0.45-0.48-0.45
		c-1.32,0-1.73-0.27-1.6-1.05c0.03-0.16-0.1-0.22-0.3-0.14c-0.55,0.21-0.71-0.58,1.79-0.58c1.52,0,0.2-1.04-0.02-0.68
		c-0.22,0.36-3.51,0.08-3.73-0.32c-0.1-0.18-0.31-0.33-0.47-0.33c-0.58,0-1.1-0.81-0.64-0.99c1.1-0.45,1.63-0.52,1.9-0.26
		c1.91,1.88,4.19,2.3,1.81,0.61c-1.28-0.9-1.18-1.02,1.06-1.21c1.1-0.09,0.93-0.38-0.23-0.38c-1.63,0-1.18-0.44-0.7-0.44
		c0.58,0,0.57-0.36-0.02-0.68c-0.65-0.35-0.41-0.56,0.72-0.63c0.93-0.05,0.19-0.31-0.83-0.29c-0.57,0.01-0.98-0.04-0.9-0.11
		c0.07-0.07-0.18-0.3-0.57-0.51c-1.24-0.67-0.29-1.21,1.98-1.14c0.93,0.03,1.31-0.6-3.43-0.44c-0.77,0.03-0.31-0.64-0.78-0.64
		c-0.15,0-0.4-0.19-0.55-0.43c-0.36-0.57,1.78-0.91,2.99-0.47c1.01,0.37,1.09,0.21,0.22-0.49c-1.5-1.2-2.05-1.77-1.79-1.87
		c0.51-0.2-1.12-2.07,0.07-2.07c0.43,0,1.19-0.4-1.39-0.27c-2.1,0.1-3.91-0.7-2.86-1.26c0.74-0.4,2.14-0.29,2.57,0.19
		c0.59,0.65,1.19-0.01,0.92,0.42c-0.29,0.48,1.31,0.31-0.02-0.41c-0.74-0.39-0.7-0.65,0.12-0.81c1.2-0.24,0.97-0.54-0.33-0.42
		c-1.21,0.11-1.25,0.1-1.11-0.38c0.1-0.35,0.08-0.41-0.07-0.19c-0.17,0.25-0.36,0.19-1-0.32c-0.91-0.73-0.87-0.98,0.17-0.98
		c3.15,0,2-1.36,1.58-0.69c-0.77,1.24-9.55-1.92-2.84-2.07c1.4-0.03,0.56-0.27,1.55-0.42c0.54-0.08,0.52-0.1-0.15-0.13
		c-0.68-0.03-2.88-1.25-2.9-1.61c-0.01-0.17,1.66-0.53,1.88-0.59L385,76.06c-1.8-0.04-1.22-0.41-2.49-1.07
		c-0.5-0.26-0.59-0.38-0.35-0.51c0.58-0.31,2.38-0.48,2.53-0.23c0.45,0.73,1.02-0.66,0.32-0.66c-0.78,0-1.63-1.33-2.17-1.33
		c-0.65,0-0.98-0.41,2.52-1.31l-1.33,0.01c-2.42,0.02-2.69-0.02-3.17-0.47c-0.26-0.24-0.61-0.45-0.76-0.46
		c-0.16-0.01,0.01-0.16,0.38-0.32c0.81-0.37,2.77-0.43,2.77-0.08c0,0.14,0.15,0.19,0.34,0.11c0.19-0.07,1,0.17,1.81,0.53
		c0.8,0.36,1.64,0.66,1.86,0.66c0.22,0,0.46,0.1,0.54,0.22c0.17,0.28,1.63,0.21,2,0.21l-0.67-0.55c-0.97-0.79-0.54-0.25-1.85-1.08
		c-0.97-0.61-1.47-0.66-1.92-0.74l0.5-0.16c0.83-0.27,0.36-0.5-0.7-0.34c-0.55,0.08-1.03,0.09-1.06,0.02
		c-0.08-0.17-1.61-0.86-1.84-0.96l1.11-0.3c1.66-0.46,2.37-0.75,2.82-0.75c0.52,0,1.45-0.66,1.95-0.67c0.48-0.01,1.93-0.63,3.11-0.9
		c1.04-0.24,4.22-1.12,5.82-1.55c1.35-0.36,0.07-1.23,7.27-1.63c3.17-0.18,3.5-0.24,5.04-0.93c0.72-0.32,5.61-0.57,5.61-0.28
		c0,0.17-1.9,1.75-2.11,1.75c-0.08,0-0.29,0.15-0.48,0.33c-0.39,0.39-0.84,0.45-0.61,0.08c0.1-0.16,0.06-0.2-0.11-0.09
		c-0.15,0.09-0.23,0.28-0.17,0.43c0.05,0.14-0.29,0.55-0.76,0.91c-0.47,0.36-0.86,0.73-0.86,0.83c0,0.1-0.09,0.18-0.2,0.18
		c-0.17,0-2.39,2.15-2.83,2.4c-0.48,0.27-0.43,0.73,0.72,0.06c0.88-0.52,1.08-0.48,3.05,0.54c1.13,0.59,1.28,0.34,0.34-0.56
		c-0.5-0.49-1.01-0.89-1.13-0.89c-0.38,0-0.05-0.55,0.51-0.83c1.22-0.64,2.29,0.59,3.15,0.9c0.64,0.23,0.44-0.23-0.28-0.66
		c-0.37-0.22-0.67-0.51-0.67-0.66c0-0.57-1.22-0.13-0.15-0.85c0.63-0.42,0.64-0.41,1.84,0.17c1.45,0.71,1.5,0.72,1.2,0.15
		c-0.13-0.24-0.35-0.44-0.48-0.44c-0.24,0-0.83-0.64-0.84-0.92c-0.03-0.52,1.32-0.65,2.19-0.21c1.03,0.53,1.18,0.34,0.36-0.43
		c-1.07-1-0.65-1.41,0.65-0.64c0.89,0.53,1.1,0.19,0.29-0.46c-0.59-0.48-0.08-1.33,0.81-1.34c0.51-0.01,1.85-1.04,1.95-1.51
		c0.13-0.59-1.69-0.93-2.41-0.45c-0.34,0.23-1.08,0.47-1.63,0.54c-4.39,0.56-5.79,1.03-8,0.65c-0.99-0.17-2.25,0.15-5.32,0.76
		c-7.9,1.57-9.81,1.86-10.03,1.54c-0.15-0.23-0.25-0.22-0.46,0.06c-0.15,0.19-0.4,0.31-0.55,0.26c-0.15-0.05-0.28,0-0.28,0.11
		c0,0.26-1.67,0.53-5.66,1.51c-4.14,1.02-4.08,0.95-4.77,1.18c-2.2,0.75-2.35,0.77-3.08,0.23c-0.85-0.63-0.9-0.6,1.03-0.77
		c1.27-0.11,1.6-0.08,1.61,0.15c0,0.2,0.09,0.16,0.23-0.09c0.33-0.56,1.09-0.27,1.09-0.63c0-0.43-1.62,0.17-2.1-0.49
		c-0.43-0.58-0.67-0.22-0.86-0.7c-0.14-0.35,0.29-0.57,1.09-0.57c0.3,0,0.54-0.08,0.54-0.18c0-0.26-1.77-0.07-1.93-0.32
		c-0.06-0.1-0.3-0.12-0.53-0.04c-0.43,0.14-1.52-0.65-1.26-0.91c0.22-0.22,3.74-0.53,0.38-0.67c-1.55-0.07-1.84-0.38-3.2-1.29
		l0.72-0.21c0.62-0.18,0.86-0.12,1.77,0.48c1.26,0.82,1.54,0.73,0.54-0.19c-1.33-1.21,0.15-0.28,0.53-0.9
		c0.1-0.16-0.17-0.2-0.81-0.14c-1.23,0.12-2.53-0.98-1.81-1.53c0.35-0.27,0.3-0.3-0.44-0.3c-0.46,0-0.83-0.09-0.83-0.18
		c0-0.27-2.26-1.38-0.64-1.38c0.55,0,0.47-0.46-0.55-0.29c-0.58,0.09-0.86,0.01-1.28-0.4c-1.55-1.5-3.56-1.93-2.12-0.45
		c1.78,1.83-0.04,0.56-0.38,1.12c-0.25,0.4-1.24-0.35-1.24,0.03c0,0.34,0.94,1.33,1.26,1.33c0.45,0,0.35,0.4-0.15,0.55
		c-0.97,0.31-0.24,1,1.04,1c1.02,0,1.28,0.3,0.46,0.53c-0.8,0.21-1.34,0.16-2.02-0.19c-1.12-0.58-1.58-0.39-0.88,0.37
		c0.35,0.38,0.34,0.41-0.11,0.41c-0.77,0-0.59,0.66,0.19,0.69c1.01,0.04,0.82,0,2.55,0.95l-1.41,0.16
		c-2.18,0.25-1.78,0.83-2.37,0.19c-0.22-0.24-0.54-0.44-0.7-0.44c-0.16,0-0.3-0.1-0.3-0.22c0-0.12-0.27-0.28-0.61-0.36
		c-0.69-0.17-2.46-1.11-4.26-2.28c-3.39-2.19-3.21-0.75-3.12-6.99c0.02-1.61-0.55-1.34-0.4-2.36c0.15-1-0.14-0.17-0.2-1.67
		c-0.02-0.55,0.04-0.95,0.14-0.89c0.22,0.13,0.48-0.45,0.29-0.64c-0.32-0.32-0.27-2.75,0.06-3.02c0.18-0.15,0.33-0.51,0.33-0.8
		c0-0.97,1.05-0.17,0.33-0.89c-0.64-0.64,0.32-0.45,0-0.96c-0.2-0.32,0.31-2.89,0.58-2.89c0.1,0,0.12-0.16,0.05-0.35
		c-0.26-0.69,0.56-0.98,0.69-3.25c0.03-0.58,0.24-1.32,0.46-1.65c0.27-0.41,0.32-0.63,0.14-0.69c-0.32-0.11-0.34-0.99-0.03-1.3
		c0.13-0.13,0.26-0.67,0.3-1.21c0.11-1.45,0.49-1.65,0.15-2.07c-0.2-0.24-0.18-0.36,0.09-0.51c0.32-0.18,0.32-0.27,0-1.04
		c-0.69-1.66,0.42-1.71-0.66-2.7c-0.87-0.81-0.23-0.76-0.29-1.93c-0.04-0.94,0.4-0.05,0.4-0.94c0-0.95-0.46,0.12-0.17-1.4
		c0.42-2.14,0.32-3.83,0.61-1.6c0.1,0.74,0.84,5.08,0.83,5.09c-0.04,0.2,0.51,2.07,0.74,2.51c0.29,0.56,0.25,0.86-0.19,1.21
		c-0.36,0.29-0.34,0.3,0.14,0.17c0.5-0.14,0.52-0.11,0.38,0.65c-0.14,0.75,2.06,3.46,2.82,3.47c0.1,0,0.41,0.26,0.7,0.57
		c0.41,0.44,1.4,1.11-0.38-1.54c-1.22-1.83-2.61-2.08-2.61-2.81c0-0.99,0.53-0.06,2.28,1.23l1.06,0.78
		c-0.26-0.51-0.53-1.17-1.59-2.22c-0.5-0.49-0.83-0.89-0.74-0.89c0.09,0-0.02-0.2-0.24-0.44c-0.22-0.24-0.53-0.44-0.7-0.44
		c-0.28,0-0.68-1.03-0.48-1.23c0.05-0.05,0.3,0.09,0.55,0.32c0.42,0.39,2.12,1.35,2.39,1.35c0.21,0,0.19-0.67-0.2-0.67
		c-0.18,0-0.5-0.3-0.71-0.67c-0.22-0.37-0.47-0.67-0.57-0.67c-0.23,0-0.14-1-0.32-0.82c-0.19,0.19-0.7-0.79-0.98-0.62
		c-0.19,0.12-0.65-0.76-0.65-1.24c0-0.24,1.56,0.58,1.89,0.99c0.26,0.33,0.92,0.51,1.29,0.62l-0.53-0.6
		c-0.54-0.61-1.75-1.87-1.75-2.09c0-0.26-0.9-0.94-1.08-0.82c-0.1,0.06-0.19-0.34-0.21-0.89l-0.04-1c1.1,0.74,3.31,2.22,2.15,0.94
		c-0.2-0.22-0.37-0.52-0.37-0.67c0-0.14-0.1-0.26-0.22-0.26s-0.22-0.11-0.22-0.25c0-0.14-0.34-0.58-0.77-0.97
		c-0.42-0.4-0.7-0.78-0.63-0.86c0.21-0.21,0.95-0.16,0.95,0.06c0,0.21,0.67,0.54,0.81,0.4c0.21-0.21-0.63-1.44-1.7-2.49
		c-0.77-0.76-0.05-0.58,0.11-0.32c0.18,0.29,1,0.29,1,0c0-0.12-0.08-0.22-0.18-0.22c-0.2,0-1.16-1.69-0.61-1.48
		c0.67,0.26,1.08-0.08,0.66-0.53c-0.39-0.43-0.56-1.98-0.32-2.87c0.27-0.98-0.37-2.14-0.9-1.65c-0.24,0.22-0.46,0.35-0.5,0.3
		c-0.03-0.05-0.2-0.37-0.37-0.7c-0.64-1.28-1.7-0.67-1.25,0.72c0.42,1.29,0.03,6.52-0.53,7.2c-0.28,0.34-0.36,1.29-0.15,1.64
		c0.1,0.17,0.09,0.4-0.04,0.53c-0.13,0.13-0.17,0.58-0.1,1.01c0.24,1.46-0.5-0.18-0.24,1.2c0.11,0.57,0.25,1.86-0.14,1.62
		c-0.34-0.21-0.26,0.26,0.11,0.63c0.27,0.27,0.28,0.39,0.06,0.63c-0.42,0.44-0.2,1.82-0.71,2.39c-0.19,0.21-0.38,0.89-0.42,1.53
		c-0.04,0.63-0.14,1.21-0.22,1.29c-0.08,0.08-0.06,0.26,0.05,0.39c0.35,0.43,0.37,1.34,0.02,1.63c-0.28,0.23-0.29,0.3-0.03,0.48
		c0.41,0.27,0.2,4.39-0.29,5.73c-0.51,1.4,0.07,1.45-0.35,1.95c-0.48,0.57,0.29,0.52,0.11,1.46c-0.21,1.1-0.48,2.9-0.83,3.15
		c-0.49,0.35,0.28,0.21,0.28,0.64c0,0.12-0.09,0.16-0.21,0.09c-0.41-0.25-0.41-0.23-0.8,5.32c-0.11,1.52-0.3,2.38-0.62,2.75
		c-0.17,0.2-0.27,0.47-0.22,0.61c0.05,0.14-0.14,0.31-0.42,0.39c-0.49,0.14-0.5,0.15-0.09,0.47c0.59,0.45,0.13,0.24-0.29,2.19
		l-0.28,1.3c-0.25-0.24-0.93-0.93-1.25-0.93c-0.14,0-0.27-0.12-0.27-0.28c0-0.15-0.69-0.61-1.53-1.02c-2.22-1.09-2.47-1.81-3.1-1.81
		c-0.24,0-0.47-0.08-0.51-0.17c-0.11-0.24-2.37-1.83-2.6-1.83c-0.11,0-0.26-0.15-0.33-0.33c-0.07-0.18-0.27-0.33-0.43-0.33
		c-0.99,0-2.05-0.99-1.79-1.66c0.09-0.23-0.02-0.33-0.34-0.33c-0.91,0-0.04-1.49-1.46,0c-0.52,0.54-0.69,0.61-0.96,0.39
		c-0.28-0.23-0.3-0.17-0.17,0.43c0.48,2.2-2.49,1.67-2.89,2.32c-0.06,0.1-0.25,0.18-0.42,0.18c-0.17,0-0.91,0.36-1.66,0.81
		c-1.39,0.83-1.97,0.74-2-0.28c-0.05-1.86-2.89,0-2.89,1.89c0,0.66-1.47,1.7-1.38,2.24c0.09,0.53-0.78,1.04-0.92,1.83
		c-0.5,2.73-1.58,3.46-2.5,1.68c-0.46-0.88-0.61-1.08-2.1-2.58c-2.45-2.49-1.84-2.69-2.89-4.85c-0.38-0.78-0.63-1.55-0.57-1.73
		c0.08-0.2,0.01-0.27-0.18-0.2c-0.42,0.16-0.35-0.49-1.01-1.26c-0.66-0.76-0.26-1.12-0.77-1.55c-0.55-0.46-0.07-1.1-0.83-1.45
		c-0.74-0.34-0.17-0.63-0.84-0.99c-0.86-0.46,0.04-1.33-0.88-1.33c-0.66,0-0.28-0.44-0.74-0.44c-0.45,0-0.95-0.89-1.4-0.89
		c-0.43,0-0.19-0.67-0.52-0.67s-0.11-0.67-0.44-0.67c-0.12,0-0.22-0.11-0.22-0.25c0-0.43-1.35-3.08-1.57-3.08
		c-0.12,0-0.21-0.23-0.21-0.52c0-0.29-0.19-0.69-0.42-0.9c-0.23-0.21-0.54-0.68-0.69-1.03c-0.15-0.36-0.36-0.65-0.46-0.65
		c-0.29,0-0.09-0.79-0.43-1.01c-0.36-0.22,0.16-0.77-0.32-0.77c-0.47,0-0.21-0.89-0.55-0.89c-0.33,0-0.66-1.12-0.88-1.33
		c-0.32-0.31-1.11-1.56-1.11-1.77c0-0.27,1.74,1.02,2.52,1.86c0.82,0.88,0.57,0.2,1.73,1.29c0.94,0.89,1.64,1.41,3.7,3.05
		c4.93,3.91-2.17-2.93-2.19-3.25c-0.01-0.19-1.47-1.33-2.24-1.74c-0.22-0.12-0.43-0.47-0.46-0.78c-0.12-0.99-1.02-0.34-1.23-1.14
		c-0.06-0.23-0.26-0.43-0.43-0.43c-0.4,0-1.81-1.09-3.22-2.5c-1.78-1.76-1.61-1.03-2.96-2.28c-0.63-0.58-0.03-1-1.57-1h-1.03
		c0.17,0.84,0.1,1.27,1.5,2.57c0.67,0.62,1.22,1.24,1.22,1.39c0,0.15,0.15,0.26,0.33,0.26c0.44,0,0.6,0.73,1.32,1.49
		c2.18,2.3,2.7,4,3.53,5.23c0.33,0.48,0.36,0.69,0.16,0.93c-0.23,0.28,0.54,2.22,1.11,2.78c0,0,1.22,2.47,2.28,3.72
		c0.74,0.88,0.75,1.06,0.11,1.28c-0.42,0.15-0.36,0.19,0.39,0.26c1.39,0.13,1.22,0.91,2.29,2.04c0.63,0.66,3.39,7.35,3.83,7.35
		c0.11,0,0.21,0.18,0.21,0.39c0,0.21,0.23,0.64,0.52,0.95c0.28,0.31,0.48,0.68,0.43,0.83c-0.05,0.15,0.06,0.27,0.23,0.27
		c0.36,0,1.17,1.08,1.09,1.46c-0.03,0.13,0.33,0.65,0.79,1.15c0.91,0.99,1.6,2.26,1.6,2.95c0,0.24,0.2,0.64,0.44,0.88
		c0.65,0.65,0.27,1.14,0.78,1.55c0.18,0.15,0.33,0.44,0.33,0.64c0,0.2,0.45,1.04,1,1.88c0.55,0.84,1,1.57,1,1.64
		c0,0.26-1.88,3.96-2.15,4.24c0,0-0.87,2.42-3.08,7.03c-5.14,10.73-6.19,15.54-7.74,16.21c-0.55,0.24-0.59,0.29-0.22,0.38
		c0.46,0.1-0.95,0.84-1.59,0.84c-0.46,0-0.14,0.44-0.65,0.44c-1.13,0-7.24,3.71-7.46,3.81c-0.73,0.33-1.16,0.7-1.4,1.19
		c-0.36,0.76-1.21,1.15-1.5,0.7c-0.13-0.2-0.25-0.18-0.46,0.09c-0.15,0.2-0.77,0.48-1.38,0.62c-1.05,0.25-6.51,1.6-7.98,1.55
		c-0.66-0.02-3.68,0.34-3.73,0.3c-0.1-0.06-0.32,0.02-0.5,0.17c-0.36,0.3-2.31,0.13-3.05-0.26c-0.86-0.46-1.94-0.04-1.88,0.74
		c0.05,0.63-0.03,0.72-0.89,1.01C274.31,100.71,275.99,101.34,278.89,100.83z M322.65,110.28c0-0.43,0.35-0.07,0.55-0.7
		c0.12-0.37,0.75-0.81,0.9-0.64C324.19,109.04,322.65,110.62,322.65,110.28z M409.28,134.94c0.24-0.24,0.76,0.08,0.88,0.56
		c0.07,0.25,0.06,0.46-0.02,0.45C409.86,135.93,409.14,135.08,409.28,134.94z M331.08,136.85c-1.2,0-0.39-5.88-0.2-4.64
		C331.47,135.94,331.52,136.85,331.08,136.85z M331.66,141.82c-0.18-0.46-0.07-0.57,0.39-0.39c0.2,0.08,0.36,0.28,0.36,0.45
		C332.42,142.3,331.83,142.26,331.66,141.82z M333.29,139.93c-0.3-0.57-0.18-1.12,0.19-0.89c0.4,0.25,0.44,1.68,0.65,2.25
		c0.16,0.44,0.14,0.61,0.39,1.83c0.09,0.46,0.08,0.83-0.02,0.83c-0.5-0.01-0.69-0.46-0.83-1.96
		C333.59,141.1,333.42,140.17,333.29,139.93z M361.47,152.49c-0.63-0.2-0.13,0.34-0.96,0.34c-0.3,0-0.62,0.14-0.72,0.3
		c-0.17,0.29-1.26,0.59-2.16,0.6c-0.24,0-0.53,0.13-0.67,0.29c-0.31,0.37-2.06,0.87-2.38,0.67c-0.13-0.08-0.31-0.05-0.38,0.08
		s-0.74,0.3-1.47,0.38c-2.05,0.24-2.27,0.33-3.5,0.44c-1.24,0.11-1.23,0.61-2.01,0.7c-2.75,0.34-5.27,1.69-6.37,0.97
		c-0.73-0.49-3.29,0.38-4.41-1.72c-0.14-0.27-0.45-0.49-0.69-0.49c-0.53,0-0.78-0.38-0.49-0.73c0.43-0.52-1.46-3.2-1.32-4.08
		c0.02-0.14-0.06-0.32-0.19-0.4c-0.29-0.18-0.3-0.56-0.01-0.56c0.12,0,0.22,0.14,0.22,0.31c0,0.17,0.19,0.36,0.43,0.42
		c0.83,0.22,0.79,2.71,2.22,4.36c0.25,0.28,0.51,0.85,0.59,1.26c0.08,0.41,0.23,0.69,0.34,0.62c0.25-0.16,0.26-1.27,0-1.55
		c-0.11-0.12-0.25-0.81-0.31-1.54c-0.23-2.58,0.04,0.55,0.72,0.55c0.83,0,1.08,2.78,1.57,2.29c0.37-0.37-0.32-1.09,0-1.67
		c0.33-0.59-0.46-0.39-0.46-0.86c0-0.19,0.08-0.19,0.3-0.01c0.42,0.35,0.57,0.1,0.36-0.59c-0.7-2.26-1.22-5.25-0.88-5.04
		c0.13,0.08,0.22-0.19,0.22-0.67c0-1.11,0.36-0.79,0.55,0.5c0.09,0.58,0.3,1.4,0.47,1.81c0.68,1.63-0.74,0.53-0.15,2.64
		c0.4,1.42,0.48,2.27,0.68,2.27c0.09,0,0.24,0.35,0.32,0.78c0.27,1.46,0.49,0.78,0.43-1.32c-0.08-2.62-0.23-2.64-0.39-3.47
		c-0.08-0.39-1.03-3.02-1-4.13l0.02-0.63c0.12,0.28,0.58,1.44,0.85,1.44c0.12,0,0.17-0.32,0.1-0.72c-0.11-0.69-0.1-0.7,0.15-0.17
		c0.37,0.8,0.25,1.27,0.76,2.96c0.48,1.63,0.22,2.31,0.54,3.42c0.17,0.58,0.14,0.76-0.17,0.94c-0.33,0.2-0.32,0.24,0.11,0.36
		c0.36,0.1,0.55,0.42,0.74,1.22c0.29,1.19,0.66,1.45,0.66,0.47c0-1.12,0.72-0.79,0.14-1.63c-0.58-0.83-0.14-2.4-0.7-2.86
		c-0.59-0.49,0.06-1.86-0.34-2.12c-0.12-0.07-0.16-0.21-0.1-0.31c0.06-0.1-0.04-0.49-0.23-0.87c-0.39-0.79-0.39-1.92,0.24-0.64
		c0.28,0.57,0.47,0.75,0.59,0.55c0.13-0.2,0.18-0.17,0.18,0.1c0.01,0.85,0.99,0.29,0.47,1.43c-0.2,0.43-0.21,0.65-0.04,0.71
		c0.13,0.04,0.18,0.18,0.11,0.29c-0.07,0.12-0.04,0.33,0.07,0.48c0.56,0.75,0.79,2.12,0.42,2.49c-1.04,1.04,0.57-0.03,0.71,0.94
		c0.11,0.77,0.48,0.59,0.48-0.23c0-1.55,1.37-1.82,1.69-0.34c0.82,3.82,0.97-3.4-0.37-4.82c-0.5-0.53-0.62-1.43-0.73-1.96l0.52,0.49
		c0.29,0.27,0.59,0.49,0.66,0.49c0.52,0,1.45,3.13,1.12,3.75c-0.44,0.81,0.44-0.16,0.67,1.02c0.61,3.23,1.56,1.89,1.14,1.38
		c-0.44-0.54,0.34-3.25-1.26-4.65c-0.85-0.74,0.95-0.28,1.78,2.63c1.08,3.79,0.88-0.97,0.4-1.5c-0.35-0.39-0.34-0.4,0.32-0.17
		c0.38,0.13,0.74,0.39,0.81,0.58c0.1,0.25,0.21,0.28,0.42,0.1c0.26-0.22,1.04,0.35,1.04,0.75c0,0.22,1.58,3.68,1.09,1.16
		c-0.35-1.82-0.48-1.45,2.63-1.12c1.04,0.11,1.13,0.16,0.78,0.42c-0.51,0.39-0.15,0.39,1.07,0c0.54-0.17,1.45-0.36,2.02-0.42
		l1.04-0.1C362.2,152.15,361.96,152.65,361.47,152.49z M335.24,146.19c-0.03,1.48,2.73,6.11,1.47,5.07
		c-0.29-0.24-0.39-0.24-0.46-0.03c-0.17,0.51-0.5,0.29-0.5-0.33c0-0.65-1.84-6.97-0.85-6.35c0.12,0.07,0.15,0.28,0.08,0.47
		C334.79,145.5,335.25,145.65,335.24,146.19z M342.15,145.84c-0.04,0.2-0.2-0.05-0.36-0.56C341.1,143.03,342.3,145.09,342.15,145.84
		z M342.35,131.31c0.35,0,1.08,6.58,1.51,7.94c0.05,0.15,0.01,0.28-0.08,0.28c-0.21,0-1.09-3.93-1.26-5.66
		C342.34,132.06,342.1,131.31,342.35,131.31z M345.51,147.65c0,0.16,0.1,0.3,0.23,0.3c0.33,0,0.01,0.34,0.36,1
		c0.74,1.37,0.84,3.22,0.17,3.22c-0.18,0-0.32,0.1-0.32,0.22c0,0.26-0.41,0.38-0.42-0.17c-0.01-1.97-0.89-4.42-0.9-5.36l-0.01-0.53
		l0.44,0.51C345.32,147.12,345.51,147.49,345.51,147.65z M346.18,141.44c0,0.26,0.1,0.51,0.21,0.55c0.2,0.07,0.36,0.66,0.57,2.01
		c0.05,0.33,0.2,0.82,0.34,1.07c0.14,0.26,0.19,0.53,0.12,0.6c-0.07,0.07-0.13,0.02-0.13-0.11c0-0.13-0.22-0.28-0.49-0.31
		c-1.33-0.19-0.9-2.62-1.27-3.9C345.15,140.01,346.17,140.26,346.18,141.44z M369.49,149.84c-0.49,0-1.81,0.05-2.21-0.21
		c-0.21-0.14-0.35-0.12-0.41,0.06c-0.09,0.27-0.13,0.28-0.77,0.11c-0.65-0.17-0.19-2.73,0.49-2.73c0.13,0,0.23-0.39,0.23-0.87
		c0-1.62,0.41-1.17,0.45,0.48c0.05,2.59,0.09,2.9,0.37,2.99c0.49,0.16,0.17-2.12,1.09-2.61c0.65-0.35,0.93-0.14,0.51,0.38
		c-0.24,0.29-0.25,0.4-0.03,0.47c0.16,0.05,0.28,0.48,0.28,1.02V149.84L369.49,149.84z M367.1,142.96c0.14,0.78-0.24,1.97-0.26,0.97
		c-0.01-0.32-0.08-0.92-0.16-1.33C366.48,141.5,366.96,142.15,367.1,142.96z M369.04,143.84c0.25,0.16,0.22,2.56,0.12,2.56
		C368.69,146.4,368.75,143.66,369.04,143.84z M370.6,149.95c-1.04,0-0.01-5.62-0.01-2.96c0,0.82,0.32,0.42,0.35-0.44
		c0.05-1.34,0.09-1.48,0.4-1.48c0.42,0,0.57,1.91,0.19,2.45c-0.18,0.26-0.2,0.45-0.06,0.54c0.45,0.28,0.26,1.44-0.23,1.44
		C370.55,149.51,371.31,149.95,370.6,149.95z M388.35,108.65c0,0.49-2.07,0.27-2.77-0.3c-0.8-0.64-0.53-0.84,1.03-0.74
		C387.58,107.67,388.35,108.14,388.35,108.65z M387.02,105.32c0-0.42,0.86-0.2,1,0.25c0.08,0.25,0.11,0.5,0.06,0.55
		C387.95,106.26,387.02,105.56,387.02,105.32z M390.74,127.45c-0.53-0.4-0.49-0.58,0.13-0.58c0.49,0,1.92,0.59,1.92,0.79
		C392.79,127.89,391.09,127.71,390.74,127.45z M392.79,130.02c0.01,0.18-2.35,0.19-2.53,0c-0.33-0.33-0.1-0.94,0.36-0.94
		C391.16,129.09,392.78,129.78,392.79,130.02z M388.96,123.38c-0.58-0.15-0.47-0.51,0.17-0.54c0.31-0.01,0.77-0.04,1.04-0.05
		C391.25,122.74,390.68,123.83,388.96,123.38z M371.77,72.84c0.69-0.12,0.96-0.06,1.47,0.36c1.28,1.04,1.71,1.02,1.02,1.07
		c-2.23,0.15-2.5,0.1-3.17-0.57C370.51,73.13,370.57,73.05,371.77,72.84z M368.71,72.03l0.89-0.43c0.49-0.24,1-0.44,1.14-0.44
		c0.22-0.01,0.92,0.65,0.72,0.67C371.35,71.84,368.82,72.03,368.71,72.03z M380.27,93.62c0.53-0.08,1.65,0.3,1.65,0.56
		C381.92,94.74,379.37,93.76,380.27,93.62z M383.93,98.94c0.28,0.52,0.25,0.39-0.46,0.21C379.01,98.01,382.95,97.11,383.93,98.94z
		 M380.6,87.81c-0.99-0.24-0.83-0.71,0.22-0.63c0.52,0.04,0.99,0.18,1.03,0.32C381.96,87.82,381.3,87.98,380.6,87.81z M377.92,82.69
		c0-0.24,1.97-0.3,2.53-0.08c0.54,0.21,0.16,0.68,0.74,0.81c0.21,0.05-0.09,0.13-0.67,0.18C379.45,83.7,377.92,83.16,377.92,82.69z
		 M378.25,85.8c-0.21-0.33-1-0.12-1-0.44c0-0.29,1.24-0.28,1.8,0.01C380.04,85.9,378.55,86.29,378.25,85.8z M377.81,78.5
		c-0.25,0.19-1.28-0.55-1.06-0.77c0.34-0.34,2.22-0.13,2.6,0.28C380.09,78.84,378.38,78.08,377.81,78.5z M374.33,76.03
		c-0.46-0.5-0.18-0.64,1.04-0.53c0.91,0.08,1.88,0.48,1.88,0.78C377.26,76.65,374.71,76.43,374.33,76.03z M373.93,78.05
		c0.7,0,1.78,0.52,1.54,0.74c-0.46,0.41-3.31,0.13-3.31-0.33C372.15,78.24,373.03,78.04,373.93,78.05z M376.22,80.18
		c1.84-0.36,1.61,1.19,1.17,1.19c-0.61,0-0.74,0.42-1.62-0.31c-0.37-0.31-0.73-0.5-0.81-0.42c-0.08,0.08-0.14,0.02-0.14-0.13
		C374.81,80.16,375.06,80.4,376.22,80.18z M377.7,91.63c0.6-0.24,1.37-0.06,1.51,0.35c0.1,0.29-0.64,0.31-1.51,0.04l-0.55-0.17
		L377.7,91.63z M378.53,95.96c0.44-0.23,1.57-0.13,1.96,0.16c0.4,0.3,0.34,0.33-0.72,0.33C378.74,96.46,378.07,96.19,378.53,95.96z
		 M382.87,100.99c0.36,0.27,0.29,0.31-0.63,0.38c-0.57,0.05-1.08,0-1.14-0.1c-0.06-0.1-0.33-0.27-0.59-0.38
		C379.77,100.6,382.36,100.61,382.87,100.99z M385.29,105.89l0.66,0.55l-0.63,0.02c-0.34,0.01-1,0.03-1.45,0.06
		c-0.73,0.04-1.96-0.63-1.96-1.06C381.92,105.02,384.67,105.38,385.29,105.89z M384.89,110.22c0.91,0,2.35,0.48,2.35,0.78
		c0,0.35-2.42,0.06-2.89-0.34l-0.51-0.44H384.89z M388.35,115.2c0.01,0.36-2.28,0.38-2.73,0.03c-0.36-0.28-0.3-0.32,0.67-0.4
		C387.48,114.73,388.34,114.89,388.35,115.2z M389.72,119.31l0.52,0.43l-1.19-0.04C385.79,119.58,388.37,118.2,389.72,119.31z
		 M391.6,120.65c0.73,0,1.11,0.57,0.48,0.74C390.29,121.88,389.39,120.67,391.6,120.65z M388.02,116.77l1.21-0.07
		c1.15-0.07,2.9,0.45,2.9,0.85C392.13,117.82,389.99,118.01,388.02,116.77z M389.99,113.14c-0.07,0.12-0.18,0.17-0.23,0.11
		c-0.23-0.23-1.44,0.46-1.87-0.07c-0.14-0.17-0.39-0.31-0.56-0.31c-0.38,0-0.41-0.43-0.03-0.47c0.15-0.01,0.62-0.05,1.04-0.09
		C389.15,112.26,390.21,112.79,389.99,113.14z M388.64,110.7c-0.97-0.5-0.91-0.71,0.22-0.71c0.9,0,1.72,0.59,1.34,0.98
		C389.97,111.2,389.39,111.1,388.64,110.7z M384.67,103.51c-0.27-0.21-0.66-0.39-0.86-0.39c-0.2,0-0.31-0.1-0.23-0.21
		c0.18-0.29,1.96-0.12,2.07,0.19c0.12,0.37,0.52,0.08,0.94,0.58C386.99,104.17,385.33,104.02,384.67,103.51z M385.89,93.57
		c0.23,0,0.48,0.15,0.55,0.33c0.18,0.48-0.21,0.62-0.61,0.22C385.36,93.66,385.38,93.57,385.89,93.57z M384.3,90.83
		c0.53-0.33,2.35,0.05,2.9,0.59l0.57,0.57C384.76,91.97,383.96,91.04,384.3,90.83z M383.43,89.08c0.23-0.06,0.65,0.07,0.95,0.29
		l0.53,0.4C382.88,89.71,382.94,89.21,383.43,89.08z M380.47,85.03l1.33-0.07c1.31-0.07,3,0.26,3,0.59
		C384.8,85.76,382.66,86.06,380.47,85.03z M380.87,80.87c0.03-0.14-0.15-0.29-0.39-0.35c-1.19-0.26-1.28-0.64-0.2-0.91
		c0.94-0.24,1.06-0.22,1.33,0.16c0.16,0.23,0.6,0.55,0.98,0.71c0.38,0.16,0.63,0.33,0.57,0.4C382.9,81.12,380.82,81.11,380.87,80.87
		z M379.78,75.99c-0.71,0.38-2.45-0.8-1.14-0.87c1.03-0.06,1.68-0.2,2.6,0.34l0.77,0.45l-0.76,0.16
		C379.99,76.33,380.52,75.6,379.78,75.99z M375.32,73.36c-0.88-0.55-0.77-0.83,0.39-0.99c0.97-0.13,1.15-0.09,1.7,0.43
		c0.34,0.32,0.73,0.57,0.87,0.57s0.37,0.14,0.52,0.32C379.27,74.26,376.3,73.98,375.32,73.36z M374.17,71.6
		c-1.06,0-1.22-0.07-1.15-0.51c0.02-0.1-0.14-0.15-0.34-0.11c-0.2,0.04-0.41-0.05-0.46-0.19c-0.19-0.55,2.68-0.47,2.99,0.53
		C375.27,71.52,374.97,71.6,374.17,71.6z M372.88,62.94c1.08,0,1.71,0.16,1.71,0.44C374.59,64.32,370.19,62.94,372.88,62.94z
		 M372.48,65.61c0.22,0.24,0.54,0.44,0.7,0.44c0.16,0,0.3,0.09,0.3,0.2c0,0.53-2.14,0.36-3.27-0.26c-1.06-0.58-0.89-0.83,0.58-0.83
		C371.8,65.16,372.17,65.26,372.48,65.61z M369.26,68.51c0-0.13-0.25-0.3-0.55-0.37c-0.83-0.21-0.44-0.54,0.62-0.53
		C372.46,67.62,369.26,69.05,369.26,68.51z M369.57,74.41c0.54,0.3,0.17,0.52-0.47,0.27c-0.27-0.1-0.5-0.13-0.5-0.05
		c0,0.08-0.2-0.04-0.45-0.27c-0.34-0.31-0.38-0.45-0.17-0.59C368.69,73.33,368.59,73.87,369.57,74.41z M372.59,76.71
		c0,0.29-2.38,0.28-2.55-0.01c-0.08-0.12-0.36-0.22-0.62-0.23C367.89,76.45,372.59,75.1,372.59,76.71z M373.71,81.22l0.7,0.59
		l-1.01-0.04C369.43,81.63,371.92,79.72,373.71,81.22z M373.49,85.57c0.53-0.33,1.33-0.25,1.9,0.21c0.63,0.49,0.33,0.69-0.72,0.46
		C373.4,85.97,373.12,85.81,373.49,85.57z M374.94,83.01c0.63-0.16,1.65,0.24,1.8,0.69C376.97,84.39,373.13,83.46,374.94,83.01z
		 M377.98,94.18c0.33,0.36,0.29,0.39-0.65,0.39C374.79,94.57,376.99,93.09,377.98,94.18z M378.09,98.18
		c0.53-0.12,1.39,0.28,1.39,0.64c0,0.41-1.11,0.35-1.11,0.08c0-0.12-0.15-0.22-0.33-0.22C377.57,98.68,377.61,98.29,378.09,98.18z
		 M382.69,103.99l-0.67,0c-1,0-1.32-0.52-1.76-0.36c-0.3,0.11-0.79-0.24-0.79-0.56C379.47,102.81,380.39,102.57,382.69,103.99z
		 M382.39,107.89c1.07,0.19,1.45,0.56,0.94,0.93c-0.45,0.33-0.47,0.33-1.1,0.08C381.01,108.4,381.12,107.67,382.39,107.89z
		 M385.8,113.51l-1.05-0.02c-1.13-0.02-1.28-0.08-1.28-0.54C383.47,112.65,384.28,112.28,385.8,113.51z M386.58,117.43
		c0.46,0.56-0.81,0.36-1.11,0C385,116.88,386.27,117.07,386.58,117.43z M388.25,121.42l0.66,0.35l-1.08-0.06
		C385.51,121.58,387.13,120.83,388.25,121.42z M389.02,125.31c0.56,0,0.81,0.45,0.29,0.43c-0.66-0.03-0.96-0.22-0.94-0.61
		C388.4,124.59,388.42,125.31,389.02,125.31z M392.24,141.52c-0.2,0-0.33,0.21-0.34,0.5c0,0.42-0.46,1.94-0.43-0.28
		c0.07-5.28-1.99-4.95-1.09-4.05c0.32,0.32,0.48,5.32,0.17,5.51c-0.12,0.07-0.16,0.31-0.1,0.52c0.15,0.47-0.59,1.05-1.03,1.46
		l0.15-1.44c0.16-1.54,0.17-5.18,0.01-6.93c-0.06-0.61,0-1.06,0.12-1.06c0.33,0-0.2-0.44,0.27-0.44c1.17,0,1.19,0.79,0.81,0.55
		c-0.48-0.3-0.19,0.61,0.37,1.12c0.39,0.36,0.61,0.81,0.64,1.32c0.07,1.2,0.65,1.11,0.5,2.11c-0.05,0.37-0.02,0.67,0.09,0.67
		c0.1,0,0.18,0.1,0.18,0.22C392.57,141.42,392.42,141.52,392.24,141.52z M394.68,143.81c-0.89,0.34-1.59,0.07-1.25-0.48
		c0.13-0.21,0.33-0.21,0.9,0.03C394.91,143.61,394.98,143.7,394.68,143.81z M396.19,141.23l-0.69,0.1c-0.8,0.12-1.38-0.14-1.38-0.62
		C394.12,140.09,395.63,140.95,396.19,141.23z M394.06,137.64c0.6-0.15,1.84,0.24,1.84,0.57c0,0.29,0.81,0.11,0.97,0.38
		c0.16,0.26-2.78,0.28-3.24,0.02C393.13,138.33,393.35,137.82,394.06,137.64z M394.68,134.44c-0.39-0.02-1.95-0.14-2.26,0.04
		c-0.33,0.2-0.82-0.42-0.66-0.84c0.21-0.54,1.49-0.4,2.25,0.24L394.68,134.44z M396.59,132.09c-3.73,0.06-3.42,0.09-4.77-0.76
		C395.13,130.66,394.11,130.95,396.59,132.09z M397.43,130.12c0.22,0.17-0.13,0.25-0.4,0.09c-0.43-0.26-3.26,0.18-3.75-1.29
		C393.07,128.24,396.18,129.14,397.43,130.12z M395.23,125.61c0,0.31-3.48-0.01-3.83-0.35c-0.61-0.61-1.02-0.24-0.63-0.7
		C391.24,124,395.23,124.95,395.23,125.61z M395.82,123.25c-0.33,0.33-2.16,0.18-2.79-0.22c-1.55-0.98,0.32-0.36,1.21-0.63
		C394.53,122.31,395.98,123.09,395.82,123.25z M397.42,123.1c-0.09,0.6-0.85-0.07-0.85-0.75
		C396.57,121.82,397.62,121.72,397.42,123.1z M396.57,121.12c0,0.39-1.88,0.19-2.41-0.26l-0.52-0.44l0.75-0.03
		C395.81,120.35,396.57,120.6,396.57,121.12z M395.12,119.54c-2.84-0.02-2.79-0.08-4-0.75
		C393.18,118.33,393.38,118.39,395.12,119.54z M395.41,113.36c-0.49,0.31-0.74,0.21-1.26-0.49
		C392.72,110.94,395.86,113.08,395.41,113.36z M393.51,117.16c-1.09-0.62-1.19-0.89-0.34-0.89
		C394.18,116.27,395.86,118.49,393.51,117.16z M393.35,115.5c-0.22-0.04-4.52-0.25-3.02-1.06
		C391.69,113.72,393.67,115.56,393.35,115.5z M393.08,108.66c-0.63,0.01-1.17-0.44-1.17-0.98c0-0.25,0.65-0.12,0.82,0.17
		C393.11,108.5,394.29,108.65,393.08,108.66z M391.73,104.85c0.53-0.05,0.99-0.01,1.03,0.09c0.04,0.1,0.2,0.18,0.36,0.18
		c0.16,0,0.65,0.29,1.1,0.65l0.81,0.65c-2.01,0.12-2.47,0.21-2.7-0.24c-0.11-0.21-0.34-0.39-0.5-0.39
		C390.87,105.78,390.78,104.94,391.73,104.85z M391.03,100.7c0.12,0.23,0.37,0.42,0.55,0.42s0.33,0.1,0.33,0.22
		c0,0.23-0.29,0.3-0.47,0.12c-0.05-0.05-0.52-0.12-1.03-0.15c-0.52-0.03-0.98-0.18-1.04-0.34c-0.06-0.16-0.29-0.3-0.51-0.31
		C388.15,100.63,390.42,99.56,391.03,100.7z M387.17,96.14c-0.73-0.26-0.67-0.6,0.15-0.82c0.52-0.14,2.14,0.47,2.14,0.8
		C389.46,96.31,387.69,96.32,387.17,96.14z M391.13,94.91c1.13,0,1.63,0.28,1.26,0.72c-0.14,0.17-0.2,0.38-0.12,0.46
		c0.33,0.33-0.77,0.11-1.67-0.33C389.51,95.21,389.69,94.91,391.13,94.91z M390.13,93.62c0,0.11,0.22,0.28,0.5,0.39
		c0.73,0.29-1.37,0.2-2.24-0.09c-1.19-0.4-1.27-0.71-0.24-0.85C389.06,92.94,390.13,93.24,390.13,93.62z M389.13,89.72
		c-1.82-0.02-0.77-0.24-1.98-0.27c-0.91-0.02-1.66-0.52-1.18-0.78C387.82,87.63,392.52,89.76,389.13,89.72z M388.83,86.25
		c0.56,0,0.85,0.42,0.86,1.27c0,0.39-0.59,0.35-0.74-0.06c-0.07-0.18-0.4-0.44-0.74-0.57C387.48,86.63,387.84,86.26,388.83,86.25z
		 M387.96,87.75l-1.88-0.02c-2.7-0.02-3.54-0.57-1.48-0.96C386.24,86.47,386,86.49,387.96,87.75z M384.03,82.03
		c0.51-0.19,0.71-0.13,1.41,0.41c0.45,0.35,1,0.74,1.24,0.87c0.42,0.23-1.08,0.3-2.16,0.1c-0.84-0.16-2.21-1.08-1.82-1.23
		c0.2-0.08,0.45-0.09,0.55-0.03C383.35,82.2,383.7,82.15,384.03,82.03z M382.1,76.97c1.22-0.27,1.45-0.19,3,1.08
		c0.59,0.48-3.27,0.26-4.01-0.23c-0.47-0.31-0.69-0.72-0.33-0.63C380.84,77.21,381.45,77.11,382.1,76.97z M382.88,73.05
		c0.77,0.19,0.76,0.54-0.02,0.56c-0.34,0.01-0.89,0.04-1.24,0.06c-1.42,0.1-1.64-1.19-2.31-1.19c-0.8,0,0.18-0.53,1.14-0.61
		C382.19,71.73,381.55,72.72,382.88,73.05z M381.17,68.46c0.56,0.33,0.3,0.21-1.66,0.38C377.23,69.05,380.2,67.89,381.17,68.46z
		 M378.86,70.05c0.03,0.06,0.34,0.34,0.7,0.61l0.64,0.5c-0.69,0-2.5,0.05-2.5-0.23c0-0.13-0.12-0.22-0.28-0.2
		c-0.42,0.05-1.28-0.26-1.28-0.46C376.15,70.07,378.78,69.86,378.86,70.05z M378.45,62.82c0.33,0.31,0.72,0.56,0.85,0.56
		s0.18,0.06,0.11,0.14c-0.29,0.29-2.97,0.24-3.56-0.06c-0.95-0.5-0.76-0.96,0.39-0.96C377.71,62.5,377.67,62.11,378.45,62.82z
		 M376.27,61.25l0.65,0.57l-1.58,0.01C370.79,61.85,374.76,59.92,376.27,61.25z M374.26,57.29c0.92,0.76,0.16,0.59,0,0.33
		c-0.08-0.12-0.32-0.22-0.55-0.22C371.44,57.39,372.24,55.63,374.26,57.29z M370.19,54.93c0.16-0.01,0.46-0.05,0.66-0.09
		c0.2-0.04,0.6,0.17,0.87,0.46c0.55,0.58,0.38,0.64-0.84,0.29C370.14,55.38,369.7,54.96,370.19,54.93z M370.71,58.95
		c0.24,0,0.79-0.06,1.22-0.13c0.89-0.14,1.14,0.15,2.31,1.02l-1.43,0C371.41,59.83,369.38,58.97,370.71,58.95z M369.94,61.4
		c0.3,0.16,0.56,0.16,0.86,0c0.45-0.24,1.77,0.09,1.49,0.37c-0.38,0.38-2.49,0.28-3.03-0.15C368.63,61.12,369.13,60.96,369.94,61.4z
		 M369.18,64.05c-0.89,0-1.29,0.41-2.3-0.32l-0.72-0.52C369.56,63.41,370.34,64.05,369.18,64.05z M357.24,57.24
		c0.64,0.58,0.7,0.17,1.1,0.81c0.41,0.66,0.96,0.26,1.38,0.78c0.4,0.49,0.94,0.19,1.31,0.64c0.38,0.45,1.13,0.34,2.13,1.01
		c2.4,1.62,3.15,1.3,2.77,2.02c-0.26,0.48-0.1,0.55-2.63-1.21c-0.51-0.35-0.99-0.58-1.07-0.49c-0.17,0.17,0.78,0.75,1.41,1.38
		c0.74,0.74,1.82,1.2,2.29,1.85c0.53,0.74,1.17,0.27,0.72,0.72c-0.93,0.93,1.03,0.26,2.07,1.38c0.73,0.79,1.41,0.6-0.11,0.79
		c-1.66,0.21-1.24-0.1-2.61-0.68c-0.4-0.17-0.72-0.37-0.72-0.44c0-0.19-2.23-1.16-2.36-1.03c-0.16,0.16,1.24,1.59,1.86,1.91
		c0.32,0.16,0.5,0.46,0.5,0.82c0,0.47,0.08,0.54,0.46,0.42c0.81-0.26,2.39,1,1.72,1.36c-0.76,0.41-0.33-0.13-1.18,0.03
		c-0.3,0.06-0.49,0.19-0.42,0.3s0.07,0.2,0.01,0.2c-0.19,0-0.8-0.97-0.8-1.26c0-0.15-0.13-0.35-0.28-0.45
		c-0.35-0.22-1.11-1.4-0.9-1.4c0.09,0-0.04-0.22-0.29-0.5c-0.7-0.79-1.19-1.67-1.19-2.13c0-0.23-0.15-0.55-0.33-0.7
		c-0.54-0.44-0.08-0.92-0.89-1.29c-0.31-0.14-0.55-0.35-0.55-0.48s-0.1-0.23-0.22-0.23c-0.29,0-1.33-0.91-1.33-1.17
		c0-0.32-1.48-1.71-1.82-1.71C356.05,58.5,356.29,56.39,357.24,57.24z M354.62,49.69c0-1.77,0.74,3.25,0.21,2.93
		c-0.12-0.07-0.21-0.03-0.21,0.1c0,0.33-0.34,0.29-0.65-0.08C353.53,52.12,354.62,50.06,354.62,49.69z M354.62,56.04
		c0,0.8-0.42,0.72-1.03-0.2C352.17,53.7,354.62,54.98,354.62,56.04z M353.82,60.97c-0.3,0.48-1.13-0.08-1.31-0.88
		c-0.08-0.35-0.36-0.75-0.64-0.9c-0.74-0.4-1.8-2.09-0.15-0.65C351.95,58.73,354.15,60.44,353.82,60.97z M352.17,62.89
		c-0.29-0.58-0.61-1.05-0.7-1.05s-0.32-0.29-0.5-0.64c-0.18-0.35-0.78-1.07-1.33-1.59c-0.55-0.53-1.11-1.29-1.25-1.69
		c-0.13-0.41-0.33-0.74-0.44-0.74c-0.32,0-2.57-4,1.75,1.22c1.86,2.25,1.69,1.79,2.16,3c0.57,1.47,1.06,1.59,0.93,2.15
		C352.72,63.83,352.55,63.65,352.17,62.89z M352.21,67.34c-0.91-2.21-3.1-6.27-3.1-6.27c-0.22-1.31,1.12,0.99,2.95,5.07
		C352.87,67.96,352.56,68.2,352.21,67.34z M348.4,60.28c0-0.34-1.73-2.02-1.06-1.98c0.15,0.01,0.6,0.51,0.98,1.11
		C349.34,60.98,348.4,60.5,348.4,60.28z M345.57,49.14c0.34,0.31,0.61,0.5,0.61,0.41c0-0.21,1.33,0.46,1.33,0.75
		c0,0.12,0.11,0.22,0.26,0.22s0.66,0.3,1.17,0.67c3.07,2.26,3.64,2.41,3.32,3.71c-0.32,1.28-1.68-0.61-2.46-0.61
		c-0.44,0-0.06-0.34-0.73-0.55c-0.24-0.08-0.44-0.28-0.44-0.46c0-0.17-0.08-0.31-0.17-0.29c-0.43,0.07-0.58-0.05-0.29-0.24
		c0.26-0.17,0.21-0.25-0.27-0.43c-1.75-0.66-0.95-2.38-1.77-2.16c-0.58,0.15-0.82-0.75-0.83-0.47c-0.01,0.17-0.53-0.32-1.11-1.04
		C343.67,48,344.79,48.4,345.57,49.14z M345.96,56.57c0-0.16-0.09-0.28-0.19-0.28c-0.42,0-1.74-2.33-1.58-2.78
		c0.31-0.84,0.31,0.54,0.86,0.88c0.13,0.08,0.24,0.32,0.24,0.53c0,0.21,0.2,0.6,0.44,0.87c0.24,0.26,0.44,0.58,0.44,0.71
		s0.08,0.23,0.19,0.23c0.1,0,0.3,0.25,0.44,0.55C347.39,58.57,345.96,57.28,345.96,56.57z M343.89,51.97c0.16,0.22,0.3,0.54,0.3,0.7
		c0,0.3-0.59,0.62-0.59-0.4C343.59,51.63,343.62,51.6,343.89,51.97z M332.07,48.63l0.08,0.97c0.09,1.1-0.26,1.71-0.48,0.83
		C331.51,49.78,331.88,49.06,332.07,48.63z M326.06,91.36l0.33,0.77c0.29-0.77,0.52-0.89,0.36-4.2c-0.27-5.71-0.26-6.58,0.09-6.45
		c0.27,0.1,0.27,0.07,0.01-0.24c-1.02-1.23,0.68-13.56,0.68-13.78c0-0.93,0.44-1.25,0.44-0.24c0,1.68,0.67-0.09,0.26,3.43
		c-0.79,6.77-0.41,8.83-0.95,9.19c-0.27,0.17-0.26,0.25,0.02,0.48c0.23,0.19,0.33,0.69,0.33,1.6c0,1.93,0.36,3.97,0.42,5.93
		c0.06,1.85,0.36,1.22,0.36,2.19c0,1.34,0.71,1.92,0.63,0.48c-0.03-0.46,0.03-1.06,0.12-1.33c0.1-0.29,0.08-0.5-0.04-0.5
		c-0.28,0-0.33-4.95-0.03-4.77c0.26,0.16,0.34-0.3-0.11-0.48c-0.57-0.22-0.13-4.65-0.46-5.47c-0.23-0.57,0.22-1.03,0.13-1.38
		c-0.2-0.85,0-5.76,0.26-6.28c0.18-0.36,0.32-1.49,0.35-2.79c0.05-2.15,0.46-3.93,0.48-2.04c0.01,0.88,0.3,0.89,0.51,0.01
		c0.16-0.66,0.06,3.66,0.38,3.66c0.41,0,0.12-0.88,0.45-2.55c0.23-1.19,0.72-7.39,0.72-7.39c0.09-0.28-0.58-0.74-0.82,1.4
		c-0.49,4.39-1.21,0.67-0.92-0.46c0.59-2.34,0.19-3.27-0.31-1.04c-0.21,0.96-0.9,2.93-0.9,2.93c0,0.14-0.11,0.19-0.25,0.1
		c-0.26-0.16-0.15-2.96,0.14-3.7c0.2-0.49-0.46-0.74-0.67,0.48c-0.1,0.57-0.28,0.9-0.55,0.97c-0.49,0.13-0.55-2.95-0.06-3.12
		c0.4-0.13,0.16-0.72,0.5-0.72c0.13,0,0.34-0.3,0.47-0.67c0.27-0.78,0.63-0.88,0.64-0.17c0.01,0.53,1.28-1.86,1.33-2.5
		c0.01-0.18,0.16,0.02,0.32,0.44c0.48,1.24,0.05,0.1,0.78-0.83c0.24-0.31,0.44-0.72,0.44-0.9c0-0.67,0.3-0.03,0.35,0.75
		c0.05,0.7,0.46,3.16,0.75-3.51c0.05-1.28,0.86,0.62,1,2.37c0.09,1.09,0.59,0.97,0.57-0.13c-0.09-4.98,1.3-3.4,0.88-2.62
		c-0.34,0.64,0.8,3.03,0.96,3.55c0.06,0.18,0.05-0.79-0.02-2.16c-0.1-1.97,0.24-3.92,0.41-2.33c0.16,1.58,0.28,2.14,0.55,2.66
		c0.18,0.34,0.32,0.78,0.32,0.98c0,0.2,0.08,0.4,0.17,0.44c0.22,0.1,1.38,2.86,1.38,3.29c0,0.51,1.35,3.8,1.87,4.55
		c0.25,0.36,0.56,0.83,0.68,1.03c0.13,0.22,4.33,5.82,4.33,6.97c0,0,1.07,2.32,1.24,3.38c0.24,1.53,0.44,0.24,0.67,2.28
		c0.08,0.74,0.24,1.39,0.34,1.46c0.32,0.2,0.21,0.98-0.14,0.98c-0.26,0-0.23,0.1,0.11,0.45c0.58,0.58,0.51,7.42-0.12,10.15
		c-0.16,0.7,0.56,0.5,0.56-0.52c0-0.42,0.13-1.08,0.3-1.48c0.6-1.44,0.91-7.22,0.43-8c-0.23-0.37-0.13-3.3-0.46-4
		c-0.34-0.73-1.08-3.53-1.52-4.39c-1.04-2.02-2.05-3.72-2.06-3.74c-0.8-1.55-0.47-0.55-1.54-2.44c-0.69-1.22-1.81-2.53-1.81-2.53
		c0-0.22-1.14-1.57-0.96-2.03c0.07-0.18,0.01-0.32-0.13-0.32s-0.36-0.3-0.49-0.67c-0.36-1.02-0.63-0.4-0.63-1.21
		c0-0.3-0.09-0.6-0.2-0.67c-0.16-0.1-0.96-2.12-1.01-2.56c0,0-0.26-0.41-0.65-1.92c-0.69-2.64-0.29-2.79,0.52-0.19
		c0.27,0.85,0.85,2.3,1.3,3.22c1.13,2.31,0.54,2.35,1.13,2.5c0.7,0.18,0.74,1.78,1.18,2.32c0.32,0.39-0.25,0.89,0.15,0.64
		c0.31-0.19,0.09,0,0.87,0.89c0.92,1.04,1.13,1.5,2.18,2.73c1.65,1.93,4.59,8,4.34,8.98c-0.03,0.1,0.06,0.32,0.19,0.48
		c0.34,0.41,0.28,1.13,0.5,1.66c0.31,0.78,0.55,3,0.34,3.13c-0.14,0.08-0.08,0.41,0.15,0.85c0.54,1.05,0.81,9.07,1.28,8.3
		c0.14-0.22,0.39-11.66-1.19-14.81c-0.63-1.27-0.29-1.74-0.7-2.18c-0.13-0.14-3.02-5.73-4.03-6.74c-0.34-0.34-1.13-1.65-1.29-1.65
		c-0.2,0-0.11-0.67-0.4-0.67c-0.34,0-0.12-0.67-0.4-0.67c-0.24,0-0.77-1.57-0.89-1.44c-0.16,0.16-0.69-0.62-0.7-1.04
		c0-0.2-0.08-0.4-0.17-0.44c-0.59-0.26-1.35-3.1-1.72-3.51c-0.87-0.98-1.59-4.46-1.3-3.77c0.23,0.54,2.07,2.31,2.07,2.91
		c0,0.63,0.44,0.24,0.44,0.75c0,0.18,0.08,0.33,0.17,0.33s0.3,0.42,0.46,0.93c0.43,1.37,1.41,2.4,1.79,3.53
		c0.14,0.41,0.53,1.05,0.87,1.42c1.56,1.67,4.15,6.09,3.97,6.79c-0.06,0.22,0.02,0.45,0.17,0.51c0.39,0.15,1.67,2.95,1.67,3.65
		c0,0.83,0.43,0.64,0.99,2.6c0.58,2.04,0.77,1.72,0.94,3.29c0.21,1.87,0.45,1.07,0.63,3.62c0.24,3.44,0.35,2.66,0.41,10.44
		c0.04,5.71,0.13,6.82,0.49,6.45c0.11-0.11,0.24-3.88,0.35-10.55c0.02-1.37-0.02-2.56-0.11-2.65c-0.24-0.24-0.17-1.14,0.1-1.31
		c0.16-0.1,0.17-0.2,0.03-0.29c-0.28-0.18-0.56-4.85-0.3-5.01c0.26-0.16,0.63,3.12,0.82,4.04c0.15,0.76-0.55,0.34-0.03,0.85
		c0.19,0.19,0.28,0.47,0.19,0.61c-0.2,0.31-0.29,10.59-0.1,10.91c0.19,0.31,0.19,1.68,0.47,3.32c0.31,1.78-0.06,13,0.01,13.33
		c0,0-0.12,14.83,0.3,19.87c0.13,1.54,0.4,7.43,0.48,7.56c0.14,0.22,0.08,3.08,0.4,3.49c0.26,0.33,0.82,3.41,0.67,3.65
		c-0.2,0.32-0.52,0.16-0.52-0.25c0-0.61-0.67-0.52-0.67-0.99c0-0.64-0.78-0.47-0.55-1.51c0.09-0.4,0.05-0.63-0.11-0.63
		c-0.14,0-0.19-0.1-0.11-0.23c0.08-0.12,0.04-0.55-0.09-0.94c-0.13-0.39-0.26-1.18-0.29-1.75c-0.1-1.56-0.54-0.39-0.33-1.48
		c0.08-0.38,0.04-0.75-0.08-0.83c-0.12-0.07-0.16-0.23-0.09-0.34c0.07-0.11,0.03-0.38-0.08-0.6c-0.55-1.05-0.9-14.65-0.38-14.85
		c0.43-0.16,0.44-0.75,0.04-1.31c-0.22-0.3-0.25-0.58-0.11-0.96c0.12-0.33,0.12-0.63-0.01-0.79c-0.27-0.32-0.58-6.43-0.35-6.8
		c0.26-0.42,0.1-3.93-0.22-4.69c-0.11-0.28-0.02-0.39,0.36-0.44c0.65-0.09,0.48-0.39,0.44-1.29c-0.05-0.96-0.47-0.82-0.49,0.17
		c-0.01,0.78-0.03,0.8-0.26,0.31c-0.43-0.89,0.3-0.78,0.14-1.94c-0.44-3.16-0.43-8.73-0.76-9.08c-0.47-0.5-0.19,8.84-0.54,9.7
		c-0.09,0.21-0.07,0.39,0.03,0.39s0.22,1.85,0.26,4.11c0.06,3.29,0.01,4.11-0.22,4.11c-0.23,0-0.24,0.04-0.01,0.18
		c0.49,0.31,0.32,8.01,0.63,8.51c0.21,0.34-0.35,0.09-0.35-0.48c0-0.29-0.11-0.38-0.34-0.29c-0.26,0.1-0.31,0.31-0.2,0.83
		c0.19,0.87,0.29,0.98,0.54,0.58c0.25-0.41,0.42,0.01,0.4,1c-0.05,2.7,0.65,8.75,0.75,13.28c0.04,1.57,0.13,2.89,0.21,2.94
		c0.08,0.05,0.15,0.58,0.15,1.18c0.01,1.54,0.36,2.18,0.56,3.57c0.22,1.53,0.51,2.44,0.17,2.44c-0.14,0-0.25-0.29-0.25-0.64
		c0-0.41-0.18-0.76-0.5-0.99c-0.98-0.68,0.6-0.51-0.33-1.01c-0.64-0.34-0.5-1.31-1.09-3.66c-0.29-1.14-0.29-1.34,0-1.66
		c0.43-0.49,0.23-1.75-0.33-2.05c-0.56-0.3-0.25-0.57-0.48-1.87c-0.22-1.26-0.22-2.63-0.59-6.04c-0.31-2.88-0.29-10.5-0.55-10.92
		c-0.29-0.48,1.05-2.02,0.2-2.02c-0.25,0-0.29-0.1-0.14-0.39c0.11-0.21,0.16-1.15,0.1-2.08c-0.1-1.6-0.07-1.7,0.39-1.82
		c0.41-0.11,0.47-0.23,0.34-0.75c-0.19-0.78-0.62-1.26-0.56-0.62c0.08,0.83-0.02,1.14-0.22,0.65c-0.31-0.76,0.37-2.42-0.02-2.88
		c-0.13-0.15-0.15-0.33-0.05-0.39c0.22-0.13,0.2-3.61-0.02-4.3c-0.25-0.77,0.5-1.36,0.13-1.59c-0.34-0.21-0.12-6.84-0.35-7.06
		c-0.45-0.45-0.68,8.91-0.69,9.51c-0.06,2.81-0.22,3.79-0.22,3.79c0.12,0.12,0.23,10.14,0.4,10.31c0.08,0.08,0.03,0.28-0.11,0.45
		c-0.19,0.23-0.19,0.37,0,0.56c0.32,0.32,0.34,2.53,0.02,2.73c-0.16,0.1-0.15,0.24,0.02,0.45c0.14,0.17,0.22,0.66,0.17,1.09
		c-0.05,0.43,0,0.78,0.1,0.78c0.11,0,0.13,0.19,0.06,0.41c-0.07,0.23-0.05,0.65,0.06,0.94c0.25,0.7-0.11,2-0.15,1.43
		c-0.02-0.3-0.1-0.36-0.26-0.2c-0.41,0.41-0.17,2.42,0.29,2.34c0.25-0.04,0.39,0.08,0.39,0.33c0,0.72,0.66,6.32,0.76,6.48
		c0.35,0.57,1.02,7.38,1.59,10.18c0.28,1.38,0.45,2.65,0.38,2.83c-0.07,0.18,0,0.48,0.14,0.66c0.41,0.49-0.12,0.91,0.35,1.09
		c0.18,0.07,0.31,0.2,0.29,0.3c-0.09,0.58,0.03,0.77,0.34,0.52c0.59-0.49-0.35-1.31,0.07-1.85c0.3-0.39,0.49-1.25,0.29-1.37
		c-0.21-0.13-0.02-1.45,0.2-1.45c0.16,0,0.5,2.8,0.54,4.44c0.04,1.4,0.91,1.56,0.94,0.17c0.02-1.09,0.39-3.44,0.62-3.97
		c0.09-0.2,0.05-0.43-0.08-0.51c-0.27-0.17-0.32-0.79-0.07-0.79c0.4,0,0.95,2.03,1.06,3.88c0.19,3.32,0.84,3.81,0.93,0.71
		c0.03-0.88,0.07-1.9,0.09-2.26c0.13-1.85-1.36-5.91-1.36-7.89c0-1.01-0.35-0.16-0.52-1.99c-0.17-1.93-0.14-0.48-0.29-2.77
		c-0.16-2.44-0.55-1.18-0.51-4.04c0.04-2.81-0.47-2.88,0.05-2.68c0.72,0.28,0.57-0.96-0.21-1.78c-0.17-0.18-0.27-1.1-0.27-2.55
		c0-0.58-0.14-7.86,0.23-8.31c0.13-0.15,0.18-0.36,0.11-0.47c-0.1-0.16-0.16-1.54-0.13-3.05c0.1-5.22-0.01-14.28-0.19-16.15
		c-0.12-1.26-0.09-1.72,0.1-1.72c0.35,0,0.58,1.02,0.41,1.8c-0.08,0.35-0.05,0.64,0.07,0.64c0.3,0,0.14,1.23,0.46,1.63
		c0.31,0.38,0.36,2.55,0.84,4.37c0.46,1.74,0.42,1.87,0.66,2.89c0.24,1.03,0.22,1.26,0.66,2.57c0.47,1.4-0.05,1.38,0.41,1.56
		c0.51,0.2,0.09,0.5,0.88,1.43c0.34,0.41,1.42,2.2,2.95,2.2c0.61,0,0.75,0.08,0.66,0.33c-0.07,0.18-0.03,0.33,0.09,0.33
		c0.28,0,0.28,1.36,0,2.09c-0.18,0.48-0.31,0.55-0.87,0.43l-0.66-0.13c0.03,0.7-0.03,4.26,1.47,4.27c0.77,0,0.29,0.67,0.82,0.67
		c0.34,0,1.45,1.32,1.45,1.72c0,0.13,0.25,0.54,0.56,0.9c0.31,0.36,0.58,0.93,0.6,1.25c0.05,0.56,0.59,1.29,0.64,0.87
		c0.54-4.12-1.92-10.07-0.77-10.07c0.53,0,0.4,0.46,0.58,1.89c0.16,1.28,0.62,8.01,1.09,8.77c0.33,0.54-0.08-3.18-0.36-8.99
		c-0.11-2.25-0.25-1.58-0.43-3.11c-0.7-5.93-1.69-5.98-1.21-3.87c0.29,1.24,0.3,1.6,0.51,3.5c0.16,1.38,0.15,1.4-0.3,1.12
		c-0.48-0.3-0.87-1.93-0.58-2.42c0.09-0.14,0.06-0.33-0.06-0.4c-0.12-0.08-0.28-0.59-0.35-1.14c-0.48-3.91-2.08-6.39-1.28-3.61
		c0.55,1.92-1.01,0.18-1.49-1.5c-0.32-1.1-0.86-3.02-1.07-3.74c-0.17-0.58-0.75,0.53-0.75-0.02c0-0.49-1.69-2.44-1.03-3.1
		c0.2-0.2,0.17-0.33-0.11-0.53c-0.2-0.15-0.49-0.72-0.63-1.26c-0.4-1.5-0.76-1.33-0.61-2.1c0.16-0.83-0.32-0.61-0.13-1.11
		c0.19-0.48-0.41-0.18-0.34-0.6c0.12-0.75-0.79-1.65-0.56-2.25c0.18-0.47-0.67-1.35-0.49-1.66c0.15-0.25-0.6-2.73-0.82-2.71
		c-0.08,0.01-0.31,0.01-0.49,0.01c-0.34,0-0.33,2.57,0.01,3.12c0.07,0.11-0.03,0.21-0.22,0.21c-0.48,0-0.4,0.67-0.12,0.67
		c0.27,0,0.27,1.49,0,2.11c-0.24,0.56-0.18,1-0.53-3.53c-0.05-0.6,0-1.37,0.1-1.72c0.1-0.36,0.09-0.63-0.02-0.63
		c-0.24,0-0.08-2.11,0.03-2.11c0.22,0,0.37-7.51-0.17-8.39c-0.17-0.28-0.09-2.82-0.28-2.82c-0.25,0-0.62-3.33-0.92-3.33
		c-0.27,0-0.26-0.67-0.02-0.67c0.21,0,1.78,4.68,2.14,6.38c0.19,0.87,0.65,0.98,0.48,0.11c-0.15-0.79-0.47-3.86-0.44-4.22
		c0.01-0.15-0.05-0.28-0.15-0.28c-0.17,0-0.43-2.85-0.7-3.01c-0.37-0.23,0.51-0.76,0.06-0.76c-0.36,0-0.15-0.81-0.43-0.92
		c-0.1-0.04-0.6-0.95-1.11-2.03c-1.32-2.75-0.86-3.12,0.57-0.46c0.71,1.31,0.04,1,0.55,1.59c0.45,0.51,1.33,2.92,1.16,3.18
		c-0.07,0.11-0.02,0.21,0.11,0.21c0.34,0,0.14,1.11,0.43,1.11c0.3,0,0.52,1.12,0.28,1.41c-0.17,0.2-0.18,2.33-0.02,2.81
		c0.09,0.25-0.19,0.94,0.28,0.76c0.54-0.21,0.4,1.23,0.82,1.23c0.25,0,0.21-2.37-0.05-2.78c-0.19-0.31-0.3-2.28-0.13-2.45
		c0.07-0.07,0.2,0.17,0.28,0.55c0.18,0.82,0.56,0.69,0.56-0.19c0-0.67-0.43-1.18-0.92-1.08c-0.21,0.04-0.31-0.2-0.32-0.82
		c-0.01-0.49-0.14-1.17-0.28-1.52c-0.14-0.35-0.24-0.75-0.22-0.89c0.06-0.35-0.55-1.53-0.8-2.33c-0.23-0.72-0.61-0.33-0.42-0.83
		c0.22-0.56,1.43,2.45,1.86,2.89c0.11,0.12,0.21,0.37,0.21,0.57c0,0.2,0.19,0.75,0.42,1.23c0.23,0.48,0.49,1.2,0.57,1.6
		c0.2,0.92,0.65,0.96,0.51,0.05c-0.05-0.37-0.01-0.73,0.11-0.8c0.12-0.07,0.1-0.2-0.06-0.29c-0.32-0.2-0.32-2.19-0.46-2.11
		c-0.17,0.1-0.48-0.81-0.33-0.96c0.21-0.21,0.54,0.24,0.68,0.9c0.08,0.4,0.27,0.87,0.42,1.05c0.93,1.14,1.43,2.58,1,2.89
		c-0.47,0.34-0.39,1.2,0.18,1.77c0.3,0.3,0.32,0.23,0.22-0.61c-0.11-0.91,0.16-1.3,0.43-0.61c0.15,0.4,0.55,0.45,0.42,0.06
		c-0.45-1.45-0.16-2.15,0.36-0.89c0.31,0.74,1.2,2.6,1.65,3.44c0.18,0.34,0.42,0.61,0.54,0.61s0.21,0.12,0.21,0.27
		c0,0.15,0.25,0.62,0.55,1.06c0.3,0.44,0.72,1.49,0.92,2.34c0.2,0.85,0.49,1.7,0.64,1.88c0.15,0.18,0.33,0.61,0.41,0.94
		c0.23,0.98,0.51,0.17,0.72,1.49c0.08,0.48,0.33,1.05,0.56,1.26c0.23,0.21,0.42,0.54,0.42,0.73c0.01,0.52,0.86,1.94,0.87,2.55
		c0.02,0.9,2.16,4.53,1.91,5.16c-0.18,0.47,0.54,0.37,0.54,0.98c0,0.65,0.44,0.33,0.44,1.42c0,1.09,0.75,1.1,0.59,1.72
		c-0.11,0.44,0.66,1.59,0.95,1.41c0.19-0.12,0.47,1,0.46,1.87c-0.01,0.79,0.65,0.8,1.21,2.39c0.55,1.57,0.78,1.67,0.78,2.37
		c0,0.78,0.51,0.65,0.91,1.88c0.4,1.24,0.49,1.07,0.59,1.69c0.12,0.74,0.6,0.38,0.57,1.55c-0.01,0.44,0.07,0.79,0.18,0.79
		c0.11,0,0.2,0.15,0.2,0.34c0,0.19,0.15,0.4,0.33,0.47c0.18,0.07,0.39,0.49,0.47,0.94c0.2,1.17,1.16,2.43,1.26,3.07
		c0.19,1.17,1.75,3.18,0.98,3.18c-0.72,0-0.89,1.53-0.27,2.34c0.32,0.42,0.67,0.77,0.78,0.77c0.3,0,0.34,1.3,0.8,1.48
		c0.5,0.19,0.08,0.73,0.81,0.75l0.5,0.02c-0.5,0.24-1.51,0.6-0.65,1.32c0.23,0.19,0.31,0.5,0.23,0.89c-0.11,0.56,0.49,1.49,0.78,1.2
		c0.06-0.06,0.31,0.26,0.56,0.72c0.25,0.46,0.57,0.8,0.73,0.77c0.3-0.07,1.34,1.02,1.34,1.39c-0.01,0.41-0.37,0.8-0.68,0.73
		c-0.42-0.09-0.56,1.15-0.16,1.41c0.25,0.16,0.25,0.22,0,0.38c-0.45,0.29,0.53,1.61,0.74,1.42c0.32-0.29-0.66,1.69,0.09,2.15
		c0.15,0.09,0.27,0.68,0.27,1.36c0.06,9.56,0.12,9.17-1.38,9.64c-0.55,0.17-1.73,1-1.43,1c0.09,0,0.04,0.15-0.11,0.33
		c-1.6,1.92-0.22-4.46-0.39-6.99c-0.19-2.92-0.17-4.22,0.05-4.22c0.16,0,0.16-0.05,0-0.17c-0.48-0.34-1.15-6.19-1.75-5.58
		c-0.03,0.03,0.71,4.72,0.51,5.11c-0.11,0.21-0.08,0.46,0.06,0.6c0.16,0.16,0.25,2.16,0.27,5.91c0.01,3.13,0.11,5.67,0.22,5.67
		c0.83,0-1.6,1.3-2.69,1.44c-0.7,0.09-1.4,0.26-1.55,0.39c-0.15,0.12-0.46,0.18-0.69,0.12c-1.06-0.28-1.26,1.38-1.01-1.98
		c0.29-3.88,0.07-2.49,0.1-5.07c0.02-1.57-1.34-9.78-0.9-2.89c0.23,3.69,0.01,5.28,0.33,5.42c0.14,0.06,0.15,0.11,0.01,0.12
		c-0.13,0.01-0.21,0.77-0.2,1.83c0.03,2.74-0.04,2.92-0.95,2.78c-0.53-0.09-0.79-0.03-0.88,0.19c-0.16,0.41-0.59,0.15-3.08,0.01
		c-2.1-0.12-2.61-0.33-1.47-0.63c0.25-0.06,0.48-0.39,0.57-0.78c0.27-1.24,1.16-0.59,0.48-1.35c-0.74-0.82,0.3-2.57,0.3-1.45
		c0,0.67,0.67-0.42,0.67,0.04c0,0.44-0.62,0.34-0.21,0.83c0.36,0.43,0.05,2.54-0.36,2.54c-0.17,0-0.31,0.13-0.31,0.29
		c0,0.44,1.72,0.09,1.28-0.01c-0.48-0.11-0.49-0.26-0.05-0.59c0.27-0.2,0.34-0.78,0.36-2.75c0.01-1.39,0.12-2.56,0.24-2.63
		c0.14-0.08,0.12-0.2-0.05-0.31c-0.15-0.09-0.2-0.29-0.11-0.44c0.22-0.35,0.3-2,0.1-2c-0.15,0-0.46-1.51-0.64-3.16
		c-0.01-0.09-0.11-0.17-0.23-0.17c-0.17,0-0.16,2.53,0.02,4.22c0.17,1.56-0.03,2.23-0.55,1.89c-0.72-0.47-0.93,0.11-0.75-0.39
		c0.08-0.21,0.04-0.44-0.08-0.52c-0.12-0.07-0.18-0.75-0.14-1.5c0.12-2.06-0.4-1.62-0.65-3.77c-0.41-3.62-0.66,0.49-0.16,4.22
		c0.3,2.28-0.59,3.14-0.59,1.96c0-1.03-1.14-0.58-1.11-2.2c0.04-2.05-1.83-11.46-1.42-5.26c0.21,3.1,0.18,4.6,0.37,4.79
		c0.27,0.27,0.2,2.09-0.08,2.09c-0.14,0-0.18-0.16-0.1-0.37c0.08-0.2,0.06-0.43-0.03-0.5c-0.29-0.21-1.17-1.94-1.05-2.06
		c0.14-0.14-0.94-5.71-1.19-6.17c-0.1-0.18-0.43-1.08-0.72-2c-0.52-1.61-0.54-1.64-0.61-0.81c-0.05,0.55,0.04,0.94,0.25,1.11
		c0.84,0.67,1.42,8.64,1.47,9.36l-0.54-1.1c-0.78-1.58-0.17-0.87-0.56-2.35c-0.24-0.88-0.9-6.75-1.41-7.25
		c-0.3-0.3,0.23,4.09,0.42,9.47c0.06,1.77,0.47,2.22,0.12,2.22c-0.36,0-0.08-0.78-0.6-1.51c-0.52-0.74-1.33-3.48-0.96-3.25
		c0.27,0.17,0.5-0.9,0.34-1.56c-0.16-0.64-0.5-0.73-0.63-0.17c-0.05,0.21-0.17-0.31-0.27-1.17c-0.28-2.46-0.33-2.14-0.47-4.26
		c-0.34-5.22-0.85,0.29-0.33,3.28c0.52,2.99,0.81,8.28,0.45,8.16c-0.16-0.05-0.33-0.44-0.38-0.86c-0.04-0.42-0.22-0.87-0.38-0.99
		c-0.38-0.29-0.68-1.46-1.02-3.99c-0.35-2.63-0.28-1.84-0.76-4.77c-0.51-3.1-0.65-2.75-0.82-11.38c-0.17-8.74-0.75,2.92-0.32,7.05
		c0.12,1.17,0.27,3.94,0.61,7.1c0.34,3.1,0.28,3.9,0.57,4.45c0.29,0.55,0.17,0.39,0.4,1.28c0.22,0.86-0.36,1.26-0.21,0.67
		c0.08-0.32,0-0.43-0.35-0.43c-0.69,0-0.76,0.71-0.24,2.58c0.25,0.91,0.46,1.93,0.46,2.28c0,0.79,0.58,1.47,0.74,0.88
		c0.06-0.21,0.1,0.37,0.1,1.31c-0.01,1.79,0.1,2.19,0.62,2.19c0.56,0,0.1-1.69,0.58-2.17c0.51-0.51,0.16-4.66,0.58-4.4
		c0.23,0.14,0.25,1.83,0.35,3.35c0.1,1.38-0.54,1.3-0.12,1.72c0.14,0.14,0.26,0.44,0.26,0.66c0,1.38,0.63,0.11,0.82-1.64
		c0.19-1.79,0.57-1.32,0.44-0.96c-0.26,0.69,0.52,1.7,0.53,0.28c0-0.43,0.07-0.61,0.18-0.45c0.25,0.4,0.11,3.26-0.17,3.35
		c-0.37,0.12,0.21,0.47-0.39,0.51c-3.31,0.2-1.85,0.48-3.99,0.51c-0.65,0.01-1.18,0.07-1.18,0.13c0,0.1-1.53,0.18-1.63,0.08
		c0,0-1.83-0.21-2.04-0.33c-0.36-0.2-3.44-1.08-3.44-1.35c0-0.11-0.3-0.3-0.67-0.43c-0.57-0.2-0.67-0.35-0.7-1.04
		c-0.02-0.45-0.06-1.48-0.1-2.29c-0.07-1.59,0.42-2.39,0.69-1.12c0.21,1,0.54,1.36,0.54,2.29c0,0.88,0.63,2.1,0.93,1.8
		c0.15-0.15,0.15-0.37-0.01-0.67c-0.45-0.84,0.61-0.35,0.32-1.09c-0.33-0.87-0.13-3.25-0.8-3.89c-1.01-0.96-0.69-2.96-1.12-3.77
		c-0.44-0.82-0.15-4.3-0.67-4.63c-0.44-0.28,0.15,0-0.17-0.59c-0.31-0.58-0.22-3.02-0.5-3.77c-0.36-0.99-0.58-5.39-0.75-7.93
		c-0.43-6.49-0.13-14.93-0.13-14.93c-0.35-0.93,0.45,0.03,0.42-1.16c-0.01-0.37-0.1-0.67-0.19-0.67c-0.22,0,0-6.75,0.23-6.84
		c0.1-0.04,0.11-0.39,0.03-0.78c-0.16-0.79-0.14-2.34,0.06-4.04c0.21-1.71,0.3-3.31,0.57-3.4c0.12-0.04,0.16-0.34,0.1-0.67
		c-0.06-0.33-0.03-1.29,0.07-2.15c0.33-2.81-0.13-4.78-0.68,1.24c-0.11,1.25-0.31,0.81-0.33,1.98c-0.01,0.87-0.78,5.31-0.74,6.66
		c0.03,0.76-0.39,2-0.67,2c-0.15,0-0.14,0.11,0.02,0.3c0.46,0.55-0.36,13.7-0.21,15.79c0.22,3.01,0.23,5.19,0.03,5.31
		c-0.17,0.1-0.14,0.35,0.1,0.8c0.23,0.44,0.35,1.42,0.39,2.98c0.03,1.28,0.12,2.33,0.22,2.33c0.22,0,0.28,0.44-0.16,0.44
		c-0.86,0,0.25,0.43,0.42,1.39c0.31,1.75,0.53,3.21,0.54,3.6c0.02,0.85,0.16,1.78,0.29,2c0.19,0.32,0.08,1.34,0.32,2.4
		c0.26,1.15,0.16,1.4,0.5,2.69c0.13,0.48,0.18,0.96,0.12,1.06c-0.06,0.1-0.03,0.31,0.09,0.46c0.11,0.15,0.33,0.7,0.48,1.24
		c0.38,1.33-0.02,1.69-0.51,0.46c-0.58-1.45-1.11-1.4-0.93-2.1c0.07-0.27-0.02-0.78-0.19-1.13c-0.36-0.74-0.88-3.4-0.69-3.58
		c0.26-0.26-0.64-0.6-0.08-0.96c0.24-0.15,0.25-0.25,0.06-0.37c-0.38-0.24-0.84-3.63-1.3-9.49c-0.29-3.69-0.35-11.65-0.09-11.65
		c0.18,0,0.2-0.09,0.05-0.28c-0.28-0.37-0.34-3.21-0.06-3.38c0.13-0.08,0.12-0.29-0.04-0.55c-0.46-0.74,0.62-1.11,0.13-1.27
		c-0.34-0.11-0.14-2.4,0.02-9.28c0.08-3.64,0.38-8.99,0.14-8.99c-0.23,0-0.51,0.64-0.38,0.85c0.05,0.08,0,1-0.1,2.03
		c-0.46,4.48-0.28,7.04-0.84,7.49c-0.76,0.59,0.52,0.18,0.31,1.35c-0.39,2.15-0.28,14.68-0.57,16.25c-0.34,1.84,0.51,0.96,0.44,3.28
		c-0.06,1.89,0.41,2.49,0.03,2.49c-0.14,0-0.2,0.09-0.14,0.2c0.22,0.36,0.41,1.89,0.44,3.52c0.04,2.55,0.3,0.66,0.31,3.26
		c0.01,2.88,0.36,1.01,0.57,4.9c0.08,1.38,0.32,0.81,0.38,2.45c0.12,3.16,1.98,9.43,1.4,9.41c-1.66-0.06-0.38-4.06-1.41-5.1
		c-0.74-0.75-0.35-1.89-0.71-2.89c-0.58-1.6-1.3-6.4-0.99-6.59c0.13-0.08,0.06-0.25-0.16-0.41c-0.57-0.42-0.36-2.01-0.64-2.47
		c-0.08-0.14-0.01-0.37,0.17-0.52c0.31-0.26,0.25-1.27-0.09-1.55c-0.19-0.16-0.1,0.07-0.6-7.81c-0.07-1.07-0.02-1.76,0.13-1.85
		c0.13-0.08,0.18-0.24,0.11-0.35c-0.33-0.53-0.29-5.61,0.05-6.46c0.19-0.48,0.28-0.93,0.2-1.02c-0.21-0.21-0.31,0.83-0.61,0.83
		c-0.12,0-0.15-0.09-0.09-0.2c0.12-0.19,0.44-4.27,0.38-4.91c-0.04-0.47,0.03-1.81,0.02-2.66c-0.01-0.93,0.7-0.67,0.23-1.15
		c-0.38-0.38-0.35-1.41,0.06-1.74c0.41-0.34,0.43-0.67,0.06-0.67c-0.29,0-0.36-3.95-0.08-4.41c0.08-0.12,0.05-0.28-0.05-0.34
		c-0.11-0.07-0.15-0.72-0.1-1.46c0.15-2.19-0.29-2.37-0.48-0.2c-0.26,2.89-0.36,2.98-0.41,4.74c-0.02,0.73-0.12,1.46-0.22,1.61
		c-0.1,0.16-0.08,0.28,0.06,0.28c0.32,0,0.29,0.5,0.07,0.37c-0.09-0.06-0.19,0.79-0.21,1.89c-0.03,1.26-0.15,2.12-0.33,2.35
		c-0.2,0.24-0.21,0.38-0.05,0.43c0.25,0.08,0.23,2.15-0.02,2.95c-0.07,0.22-0.03,0.47,0.08,0.54c0.23,0.14,0.12,0.85-0.24,1.6
		c-0.36,0.76,0.21,0.69,0.23,4.41c0.03,8.16,0.45,9.38,0.51,13.07c0.08,4.94,0.28,1.3,0.75,6.31c0.09,0.97,0.29,1.23,0.43,2.71
		c0.18,1.95,0.47,3.67,0.19,3.85c-0.51,0.31-0.85-4.18-1.04-4.47c-0.29-0.47-0.08-3.3-0.52-3.47c-0.4-0.15-0.15-1.54-0.51-2.47
		c-0.4-1.04,0.51-0.69-0.08-1.18c-0.18-0.15-0.32-0.44-0.31-0.65c0.04-0.74-0.32-6.15-0.42-6.31c-0.15-0.24,0.41-1.72,0.14-1.72
		c-0.27,0-0.14-3.97-0.34-4.49c-0.07-0.19-0.03-0.41,0.11-0.5c0.13-0.08,0.19-0.22,0.14-0.31c-0.35-0.57,0.13-11.94,0.19-18.28
		c0.02-1.9,0.07-2.03,0.79-1.96c0.24,0.02,0.22-0.06-0.1-0.31c-0.24-0.19-0.5-0.34-0.58-0.34c-0.34,0-0.22-4.21,0.14-5.05
		c0.36-0.83,0.57-2.07,0.56-3.22c0-0.34,0.07-0.61,0.17-0.61c0.57,0-0.33-2.92-0.4-4.98c-0.01-0.39-0.46-1.25-0.57,3.9
		c-0.15,7.07-0.59,2.35-0.87,9.22c-0.05,1.24-0.21,2.47-0.35,2.74c-0.14,0.27-0.2,0.62-0.14,0.8c0.12,0.31-0.3,2.18-0.27-0.35
		c0.03-2.43,0.65-2.09,0.12-2.5c-0.41-0.32-0.37-1.25,0.15-3.6c0.41-1.84,0.49-5.51,0.15-7.2c-0.43-2.18-0.51-1.9-0.47,1.65
		c0.03,2.17,0.02,2.21-0.36,1.66c-0.21-0.31-0.51-0.63-0.67-0.73c-0.39-0.24-0.37-0.82,0.03-0.82c0.69,0,0.74-1.05,0.01-0.44
		c-0.46,0.38-0.56,0.24-0.65-0.92c-0.1-1.31-0.37-2.43-0.55-2.31c-0.16,0.1,0.1,3.65,0.31,4.31c0.08,0.26-0.01,0.39-0.29,0.41
		c-0.34,0.03-0.46-0.24-0.69-1.56c-0.79-4.52-0.88-4.73-0.73-1.59c0.2,4.28,0.21,6.75,0.34,9.16c0.13,2.26-0.28,1.76-0.32,0.78
		c-0.03-0.97-0.02-0.5-0.78-7.16c-0.47-4.13-0.46-3.98-0.52-4.66l-0.05-0.55c-0.16,0.5-0.35,0.89-0.38,2.61
		c-0.01,0.95-0.11,1.5-0.27,1.5c-0.16,0-0.15,0.12,0.05,0.36c0.42,0.51,0.32,2.31,0.42,2.53c0.11,0.22,0.9,5.99,0.46,5.99
		c-0.13,0-0.24-0.14-0.24-0.31c0-0.47-0.59-0.9-0.74-0.54c-0.15,0.37-0.19-1.21-0.27-2.04c-0.63-6.87-0.91-6.65-0.97-10.09
		c-0.02-0.87-0.1-1.25-0.24-1.1c-0.26,0.26-0.45,6.49-0.21,6.97c0.24,0.49,0.3,4.52,0.59,5.33c0.32,0.88,0.37,3.55,0.07,3.55
		c-0.15,0-0.18,0.12-0.08,0.28c0.26,0.42,0.23,3.5-0.03,3.5c-0.12,0-0.11,0.08,0.04,0.17c0.41,0.26-0.18,0.6,0,1.08
		c0.21,0.54-0.63,0.84-0.11,1.01c0.58,0.19-0.49,0.52,0,1.01c0.55,0.55,0.04,4.36,0.95,5.36c0.34,0.38,0.37,0.55,0.16,1.01
		c-0.33,0.73,0.93,0.81,1.68,0.11c0.26-0.24,0.6-0.41,0.76-0.37c0.16,0.04,0.23,0.03,0.15-0.01c-0.08-0.05,0.01-0.5,0.18-1.02
		c0.21-0.6,0.28-1.33,0.19-2.04c-0.25-2.16-0.37-8.51-0.15-8.64c0.27-0.17,0.48,0.79,0.49,2.21c0.01,1.6,0.13,3.19,0.18,5.12
		c0.04,1.84,0.51,0.93,0.4,0.52c-0.11-0.43,0.39-1.12,0.19,1.3c-0.71,8.58,0.27,8.6-1.27,8.91c-0.45,0.09-0.82,0.34-0.95,0.64
		c-0.23,0.51-0.56,0.67-0.56,0.26c0-0.26-0.56-0.17-0.2,0.5c0.43,0.8,0.44-0.32,0.73,0.14c0.08,0.13,0.04,0.29-0.08,0.37
		c-0.32,0.2,0.33,3.45,0.69,3.45c0.09,0,0.16,0.17,0.15,0.39c-0.01,0.55,0.68,2.98,0.94,3.29c0.37,0.45,0.13,4.53,0.51,4.91
		c0.08,0.08,0.15-0.02,0.15-0.22c0-0.72,0.33-0.36,0.39,0.42c0.09,1.19-0.29,0.3-0.29,0.98c0,0.65,0.57-0.07,0.57,0.6
		c0.01,0.79,0.41,1.73,0.02,1.19c-0.41-0.58-0.25,0.44-0.05,0.44c0.26,0,0.4,1.27,0.63,2.22c0.28,1.16-0.61-0.53-0.61,0.34
		c0,0.22,0.14,0.5,0.32,0.64c0.27,0.21,0.71,2.39,0.89,4.46c0.02,0.24,0.14,0.69,0.27,1c0.78,1.86,0.54,2.89-0.45,1.91
		c-0.99-0.99-0.6-1.9-1.6-4.9c-0.37-1.09-0.58-3.66-0.31-3.66c0.11,0,0.2-0.16,0.2-0.35c0-0.19-0.09-0.29-0.2-0.22
		c-0.39,0.24-0.64-0.47-0.79-2.32c-0.22-2.64-0.39-1.85-0.63-2.77c-0.16-0.59,0.13,3.35,0.16,4.55c0.01,0.43,0.1,0.89,0.19,1.04
		c0.09,0.14,0.07,0.32-0.04,0.39c-0.13,0.08-0.1,0.49,0.09,1.07c0.56,1.72,1.28,5.49,1.24,6.54c-0.01,0.27,0.07,0.5,0.18,0.5
		c0.36,0,0.46,0.98,0.13,1.34c-0.51,0.56-0.23,1.18-0.57,0.59c-0.13-0.22-0.18-0.54-0.11-0.71c0.07-0.17,0.04-0.36-0.07-0.43
		c-0.44-0.27-0.4-2.37-1.29-5.23c-0.23-0.74-0.27-3.17-0.58-3.48c-0.25-0.24-0.17-1.3,0.12-1.58c0.17-0.17,0.18-0.27,0.03-0.27
		c-0.67,0-0.65-3.7-0.96-3.88c-0.35-0.22-0.09-1.55-0.46-1.32c-0.29,0.18-0.03,0.73,0.11,3.21c0.29,4.97,0.86,5.47,0.52,6.09
		c-0.14,0.24-0.13,0.48,0.03,0.66c0.13,0.16,0.36,1.13,0.5,2.15s0.33,1.91,0.43,1.98c0.46,0.31,0.87,3.13,0.53,3.62
		c-0.46,0.66-0.27,0.61-0.76-1.69c-0.34-1.57-0.07-1.14-0.44-2.03c-0.15-0.36-0.22-0.86-0.16-1.1c0.06-0.24,0.03-0.54-0.08-0.67
		c-0.33-0.41-1.2-6.23-1.24-6.45c-0.19-1.31-0.52-3.26-0.39-3.61c0.16-0.42-0.35-0.13-0.31-0.55c0.12-1.22-0.67-5.72-1.01-5.72
		c-0.26,0-0.04,2.72,0.27,3.31c0.22,0.43,0.7,6.66,0.53,6.93c-0.06,0.1-0.01,0.19,0.12,0.19c0.14,0,0.24,0.56,0.24,1.39
		c0,0.76,0.14,1.85,0.31,2.41c0.26,0.85,0.72,4.21,0.83,4.34c0.42,0.52,0.05,3.43,0.75,3.94c0.78,0.57-0.62,0.29-0.16,0.86
		c0.35,0.42,0.57,2.02,1.18,2.79c1.37,1.74-1.26,2.05-0.78,0.16c0.22-0.87-0.38-0.43-0.79-2.72c-0.42-2.35-0.95-3.93-0.93-4.82
		c0.01-0.36-0.12-0.91-0.28-1.22c-0.26-0.5-0.63-2.29-0.9-4.35c-0.15-1.15-0.84-3.8-0.66-4.34c0.07-0.22,0.02-0.46-0.11-0.53
		c-0.13-0.08-0.23-0.61-0.24-1.18c-0.01-1.17-0.5-3.96-0.75-4.2c-0.17-0.17,0.01,7.4,0.18,7.68c0.17,0.27,0.13,1.81,0.35,2.13
		c0.33,0.49,0.39,1.22,0.1,1.22c-0.16,0-0.33,0.11-0.37,0.24c-0.19,0.56-1.32-6.18-1.15-6.84c0.13-0.5-0.21-0.7-0.48-0.28
		c-0.42,0.68-2.14-0.5-1.71-0.93c0.18-0.18,0.15-0.34-0.1-0.59c-0.24-0.24-0.31-0.62-0.24-1.3c0.17-1.49-0.28-0.11-0.28-1.76
		c0-2-0.9-4.33-0.48-5c0.45-0.73-0.64-0.64-0.17-1.22c0.41-0.5-0.23-0.43-0.32-2.2c-0.01-0.22-1.21-6.35-0.98-7.91
		c0.17-1.15-0.52-0.08-0.49-1.36c0.04-1.31-0.43-6.03-0.54-7.27c-0.49-5.12-0.59-3.96-0.65-6.66c-0.02-1.04-0.1-1.94-0.19-2
		c-0.2-0.15-0.29-3.42-0.1-3.72c0.08-0.13,0.04-0.27-0.08-0.31c-0.43-0.14-0.4-12.25,0.03-12.52c0.09-0.05,0.11-0.29,0.04-0.53
		c-0.14-0.54,0.58-2.49,0.86-2.31c0,0-0.3,12.94,0.41,16.23C326.8,91.34,325.33,89.62,326.06,91.36z M365.68,107.22l0.12,0.55
		c0.12,0.53,0.52,3.59,0.71,5.38c0.08,0.79,0.05,0.83-0.53,0.83h-0.62C365.45,107.15,364.87,108.73,365.68,107.22z M364.8,144.97
		c-0.13-2.71,0.19-2.1,0.28-0.77C365.19,145.79,364.83,145.63,364.8,144.97z M360.39,144.59c0-1.09,0.19-1.03,0.34,0.12
		C360.86,145.77,360.39,145.83,360.39,144.59z M341.4,109.97c-0.23,0.23-0.14-3.34,0.13-4.82
		C341.83,103.45,341.45,109.92,341.4,109.97z M341.84,101.17c0.06-0.06,0.08,0.51,0.06,1.26c-0.02,0.75-0.13,1.36-0.24,1.36
		C341.48,103.78,341.64,101.37,341.84,101.17z M341.12,98.95c0.02-1.31,0.41-1.07,0.4-0.32C341.51,99.28,341.1,100.38,341.12,98.95z
		 M341.56,114.99c0.12,4.68,0.1,5.43-0.14,4.75C341.07,118.73,341.26,103.48,341.56,114.99z M341.72,121.43
		c0,1.44,0.28,5.88,0.15,5.88c-0.18,0-0.17-0.86-0.25-1.55C341.04,120.08,341.73,119.36,341.72,121.43z M338.08,93.87
		c0.13-0.04,0.23,0.36,0.24,0.92C338.36,97.32,337.72,94,338.08,93.87z M336.76,93.34c0.48-0.4,0.26,0.32,0.43,1.68
		c0.02,0.17,0.44,4.11,0.27,4.11c-0.18,0-0.61-1.34-0.61-1.92c0-0.29-0.1-0.52-0.22-0.52c-0.29,0-0.31-0.89,0.03-0.89
		C337.18,95.79,336.06,93.92,336.76,93.34z M326.08,56.84l0.08,0.49c0.11,0.7-0.31,1.44-0.51,0.91
		C325.48,57.8,325.89,57.18,326.08,56.84z M313.65,81.98c0.07-0.15,0.19-0.45,0.27-0.67c0.26-0.73,0.9-0.34,0.22,0.55
		C313.79,82.31,313.45,82.39,313.65,81.98z M311.33,87.47c0.12-0.08,0.22-0.39,0.22-0.69c0-0.99,0.88,0.03,0.89-0.57
		c0.01-0.37,1.48-2.18,0.66-2.18c-0.34,0-0.11,0.44-0.44,0.44c-0.43,0,0.66-1.77,0.66-0.89c0,0.52,0.47,0.17,0.59-0.44
		c0.07-0.37,0.2-0.67,0.27-0.67c0.13,0,1.04-1.9,1.22-2.03c0.43-0.3-0.52-1.08-0.52,0.06c0,0.85-0.78-0.02,0.09-1.11
		c0.58-0.74,0.75-1.86,0.78-0.98c0.01,0.27-0.08,0.55-0.2,0.62c-0.27,0.17-0.29,0.55-0.03,0.55c0.11,0,0.26-0.17,0.33-0.39
		c0.07-0.21,0.58-1.14,1.12-2.05c1.67-2.81,1.15-2.49,5.04-8.14c0.35-0.51,0.64-1.02,0.64-1.15c0-0.12,0.07-0.26,0.17-0.3
		c0.75-0.33,3.28-5.54-0.76,0.54c-2.2,3.3-3.4,4.92-3.4,5.12c0,0.13-2.12,4.02-2.37,4.35c-0.7,0.93,0.6-2.35,1.97-4.98
		c0.58-1.11,0.9-1.88,1.12-1.88c0.09,0,0.17-0.16,0.17-0.35c0-0.19,0.24-0.77,0.53-1.28c0.83-1.45,2.04-4.51,2.61-5.16
		c0.71-0.81,0.12-2.58,1.81-0.67c0.89,1,1.16,1.9,0.56,1.9c-0.11,0-0.2,0.24-0.2,0.54c0,0.3-0.12,0.62-0.28,0.72
		c-0.56,0.36-1.47,2.78-1.49,3.95c-0.02,1.62-0.95,6.14-0.65,6.9c0.24,0.6,0.14,2.48,0.41,4.31c0.35,2.43-0.6,1.3-1.44,2.23
		c-0.22,0.25-0.55,0.4-0.71,0.34c-0.17-0.06-0.25-0.03-0.19,0.07c0.3,0.49-5.51,2.83-6.36,2.56c-0.22-0.07-0.39-0.01-0.39,0.14
		c0,0.48-0.45-0.36-0.79-0.03c-0.42,0.4-1.87,1.11-1.87,0.91C311.11,87.7,311.21,87.54,311.33,87.47z"/>
	<path class="st3" d="M350.95,154.01c-0.32,0.31,0.82,0.01,2.12-0.56c0.6-0.26,1.05-0.52,1-0.56
		C353.95,152.76,351.23,153.74,350.95,154.01z"/>
	<path class="st3" d="M352.62,152.53c0,0.17,0.1,0.31,0.22,0.31c0.35,0,0.26-0.67-0.11-0.81c-0.18-0.07-0.33-0.27-0.33-0.44
		c0-0.17-0.1-0.31-0.22-0.31C351.46,151.28,352.62,152.11,352.62,152.53z"/>
	<path class="st3" d="M375.65,141.68c0.43,0.3,0.54,5.83,0.13,6.62c-0.74,1.43,0.35,0.24,0.37,1.15c0.01,0.37,0.02,0.37,0.31,0
		c0.52-0.69,0.56-7.29,0.05-9.29c-0.56-2.23-0.12-3.08-0.62-3.08c-0.45,0,0.2,2.53-0.21,2.79c-0.17,0.1-0.17,0.22,0,0.39
		c0.33,0.33,0.31,0.98-0.04,1.12C375.43,141.46,375.43,141.52,375.65,141.68z"/>
	<path class="st3" d="M380.12,138.85c0.01,0.79-0.03,2.06-0.09,2.81c-0.08,1.08-0.03,1.39,0.24,1.5c0.2,0.08,0.27,0.24,0.17,0.4
		c-0.45,0.73,0.23,9.04,0.48,3.24c0.13-3.04,0.38-4.83,0.09-6.1c-0.12-0.54-0.27-1.41-0.34-1.92
		C380.48,137.19,380.11,137.24,380.12,138.85z"/>
	<path class="st3" d="M381.51,128.75c-0.01,0.6-0.09,1.32,0.29,2.92c0.29,1.23,0.7,5.23,0.7,5.23c0.18,0.3-0.52,0.94-0.14,1.17
		c0.28,0.17,0.25,5.15-0.03,5.7c-0.11,0.21-0.12,0.42-0.02,0.48c0.09,0.06,0.16,1.01,0.14,2.12c-0.02,1.78,0.18,2.55,0.46,1.74
		c0.36-1.05,0.23-5.36,0.57-5.16c0.23,0.14,0.59-0.33,0.24-0.54c-0.36-0.22-0.23-2.98-0.5-3.73c-0.1-0.29-0.09-0.55,0.04-0.63
		c0.12-0.07,0.16-0.23,0.09-0.35c0,0-1.05-6.34-1.64-8.3L381.51,128.75z"/>
	<path class="st3" d="M375.29,146.49c0.31-0.19,0.22-0.7-0.14-0.84C374.61,145.45,374.74,146.83,375.29,146.49z"/>
	<path class="st3" d="M386.9,145.73c0.97,0,0.48-9.09,0.85-9.46c0.26-0.26,0.17-0.53-0.18-0.53c-0.25,0-0.3-0.15-0.2-0.55
		c0.22-0.88-0.35-0.24-0.36-1.05c0-0.22-1.02-4.62-0.23,3.81C386.89,139.05,386.9,145.73,386.9,145.73z"/>
	<path class="st3" d="M375.08,136.63c0.19,0,0.03-1.75-0.19-1.98c-0.21-0.23-0.27,0.17-0.15,1.04
		C374.82,136.21,374.97,136.63,375.08,136.63z"/>
	<path class="st3" d="M379.55,130.2c0.48,2.41,0.49,3.54,0.86,5.27c0.73,3.48,0.26-2.51-0.71-6.94c-0.11-0.49-0.32-1.64-0.46-2.55
		C378.86,123.68,378.3,123.95,379.55,130.2z"/>
	<path class="st3" d="M371.95,135.52c0.15,0,0.2-0.31,0.13-0.79C371.75,132.29,371.5,135.52,371.95,135.52z"/>
	<path class="st3" d="M376.94,133.42c0.19,0.75,0.59,0.44,0.35-0.45C377.05,132.06,376.76,132.69,376.94,133.42z"/>
	<path class="st3" d="M377.48,131.03c0.69,3.46,0.9,2.41,0.81,2.11c-0.14-0.52-0.45-2.55-0.93-5.38c-0.01-0.09-1.27-8.12-1.34-8.18
		c-0.19-0.17,0.05,3.1,0.36,5.07C376.8,127.3,376.85,127.87,377.48,131.03z"/>
	<path class="st3" d="M368.18,132.23c-0.26-0.41-0.48,0-0.32,0.6C368.13,133.86,368.67,133.01,368.18,132.23z"/>
	<path class="st3" d="M355.01,130.78c-0.09,0.17-0.08,1.12,0.02,1.7c0.05,0.32,0.42,0.16,0.52-0.22
		C355.66,131.81,355.18,130.48,355.01,130.78z"/>
	<path class="st3" d="M372.56,130.64c-0.16,0-0.15,0.79,0.02,1.28c0.05,0.14,0.46,0.04,0.46-0.11
		C373.03,131.34,372.74,130.64,372.56,130.64z"/>
	<path class="st3" d="M375.7,129.2c-0.15-0.36-0.19-0.28-0.21,0.39C375.47,130.98,376.25,130.48,375.7,129.2z"/>
	<path class="st3" d="M374.41,129.03c0.47,2.18,0.51,1.03,0.09-2.28c-0.29-2.26-0.29-2.33,0-2.33c0.69,0-0.13-2.52-0.13-1.09
		c0,1.2-0.22,0.06-0.54-2.8C372.19,105.8,372.87,121.87,374.41,129.03z"/>
	<path class="st3" d="M330.14,122.32c-0.11,0.38-0.34,1.05-0.15,1.44c0.22,0.48,0.38,4.15,0.58,5.29c0.37,2.04,0.97-1.28-0.29-6.18
		L330.14,122.32z"/>
	<path class="st3" d="M363.3,128.42c-0.21-0.75-0.44-0.29-0.3,0.61C363.16,130.13,363.74,130.02,363.3,128.42z"/>
	<path class="st3" d="M357.28,128.32c0,1.3,0.44,1.37,0.44-0.14C357.72,126.6,357.28,127.1,357.28,128.32z"/>
	<path class="st3" d="M368.65,129.09c0.26,0,0.02-1.56-0.29-1.88c-0.23-0.24-0.27,0.6-0.06,1.38
		C368.37,128.86,368.53,129.09,368.65,129.09z"/>
	<path class="st3" d="M366.83,128.31c-0.12-0.08-0.23-0.41-0.24-0.74c-0.02-0.75-0.39-0.04-0.41,0.79
		C366.14,129.35,367.36,128.64,366.83,128.31z"/>
	<path class="st3" d="M383.71,127.02c-0.29-0.29-0.34,0.47-0.07,1.11C383.91,128.8,383.99,127.3,383.71,127.02z"/>
	<path class="st3" d="M382.08,127.79c0.05-0.28,0.02-0.68-0.07-0.89c-0.24-0.54-0.02-0.71-0.32-0.71c-0.3,0-0.28,0.72,0.04,1.48
		C381.99,128.29,382,128.3,382.08,127.79z"/>
	<path class="st3" d="M371.51,125.92c0.64,3.34,0.33-4.35-0.37-9.27c-0.08-0.55-0.16-1.32-0.18-1.72c-0.05-1.05-0.17-0.14-0.58-2
		c-0.61-2.75-0.91-2.2-0.36,0.64C371.06,118.95,371.12,123.88,371.51,125.92z"/>
	<path class="st3" d="M363.05,125.24c0,0.49,0.06,0.95,0.14,1.03C364.07,127.14,363.05,122.87,363.05,125.24z"/>
	<path class="st3" d="M331.28,122.65c-0.2,0-0.04,2.82,0.18,3.18c0.06,0.1,0.22,0.09,0.34-0.04
		C332.07,125.52,331.59,122.65,331.28,122.65z"/>
	<path class="st3" d="M362.05,125.37c-0.04-0.34-0.09-0.69-0.1-0.79c-0.04-0.49-0.46,0.18-0.46,0.75
		C361.5,126.2,362.16,126.21,362.05,125.37z"/>
	<path class="st3" d="M336.7,123.45c-0.21-0.75-0.45,0.1-0.34,1.26C336.51,126.34,337.49,126.21,336.7,123.45z"/>
	<path class="st3" d="M338.3,125.76c0.99,0-0.88-2.59-0.47-1.05C338.03,125.45,337.88,125.76,338.3,125.76z"/>
	<path class="st3" d="M379.9,123.64c-0.35-0.22-0.49,0.02-0.32,0.55C379.95,125.36,380.44,123.97,379.9,123.64z"/>
	<path class="st3" d="M382.51,123.62c-0.22-1.37-0.6-1.39-0.43-0.03C382.22,124.67,382.69,124.73,382.51,123.62z"/>
	<path class="st3" d="M365.76,123.98c0.2,0,0.05-1.53-0.18-1.76c-0.23-0.24-0.33,0.23-0.19,0.96
		C365.47,123.62,365.64,123.98,365.76,123.98z"/>
	<path class="st3" d="M370.17,122.82c-0.01,0.52,0.08,0.94,0.2,0.94c0.26,0,0.26-0.53,0-1.33
		C370.22,121.96,370.19,122.01,370.17,122.82z"/>
	<path class="st3" d="M362.61,121.76c0-1.18-0.44-1.18-0.44,0C362.16,122.94,362.61,122.94,362.61,121.76z"/>
	<path class="st3" d="M329.89,121.85c-0.07-0.19-0.13-0.49-0.13-0.67s-0.1-0.31-0.22-0.31c-0.25,0-0.31,0.95-0.07,1.18
		C329.74,122.34,330.02,122.2,329.89,121.85z"/>
	<path class="st3" d="M332.89,119.21c0.03,1.31,0.01,2.77,0.34,2.77c0.48,0,0.5-0.32,0.07-1.56L332.89,119.21z"/>
	<path class="st3" d="M337.14,121c-0.39-0.39-0.1-1.68-0.5-1.68c-0.25,0-0.29,0.73-0.08,1.75
		C336.81,122.37,337.67,121.53,337.14,121z"/>
	<path class="st3" d="M380.04,119.65c-0.34-0.74-0.41-0.53-0.2,0.53C380.05,121.27,380.7,121.11,380.04,119.65z"/>
	<path class="st3" d="M363.72,119.21c-0.5-0.46-0.67,0.02-0.18,0.51C364.07,120.25,364.52,119.94,363.72,119.21z"/>
	<path class="st3" d="M330.4,117.32c-0.2,0-0.12,1.22,0.14,2.02c0.11,0.36,0.55,0.61,0.55,0.32
		C331.09,119.13,330.56,117.32,330.4,117.32z"/>
	<path class="st3" d="M335.25,119.72c0.43-0.09,0.44-1.64,0.02-2.06c-0.35-0.36,0.01,1.32-0.25,1.58c-0.09,0.09-0.16,0.25-0.16,0.36
		C334.86,119.71,335.04,119.76,335.25,119.72z"/>
	<path class="st3" d="M351.86,119.28c0.05,0.16,0.18,0.23,0.29,0.17C352.8,119.04,351.03,116.59,351.86,119.28z"/>
	<path class="st3" d="M377.15,117.84c-0.09,0.22-0.06,0.66,0.09,0.97C377.99,120.46,377.47,117.08,377.15,117.84z"/>
	<path class="st3" d="M357.28,117.85c0-0.35-0.39-0.61-0.26,0.47c0.07,0.58,0.2,0.78,0.51,0.78
		C358.58,119.1,357.28,118.34,357.28,117.85z"/>
	<path class="st3" d="M361.1,117.89c-0.08-0.13-0.15-0.31-0.16-0.39c-0.02-0.75-0.34-0.23-0.34,0.55
		C360.61,120.23,361.42,118.39,361.1,117.89z"/>
	<path class="st3" d="M332.2,118.35c0,0.46,0.38,0.36,0.51-0.13c0.12-0.45-0.28-1.86-0.61-2.17
		C331.85,115.82,332.2,117.85,332.2,118.35z"/>
	<path class="st3" d="M378.95,116.71c-0.25-0.81-0.26-0.82-0.33-0.2c-0.04,0.35-0.02,0.78,0.05,0.96
		C378.95,118.18,379.2,117.51,378.95,116.71z"/>
	<path class="st3" d="M329.77,115.46c-0.11-0.13-0.24-0.59-0.28-1.02c-0.11-1.11-0.51-0.85-0.43,0.28c0.04,0.52,0.11,1.01,0.17,1.11
		c0.06,0.09,0.18,0.17,0.27,0.17C329.83,115.99,329.97,115.7,329.77,115.46z"/>
	<path class="st3" d="M333.9,115.62c0.45,0.45,0.54,0.02,0.32-1.46c-0.01-0.09-0.12-0.17-0.25-0.17
		C333.73,113.99,333.66,115.39,333.9,115.62z"/>
	<path class="st3" d="M359.83,115.32c0.37,0,0.46-1.01,0.14-1.52c-0.2-0.31-0.46,0.32-0.47,1.13
		C359.5,115.15,359.65,115.32,359.83,115.32z"/>
	<path class="st3" d="M335.22,113.27c0.01,0.15,0.04,0.48,0.06,0.72c0.03,0.42,0.7,0.66,0.7,0.26c0-0.59-0.54-1.59-0.85-1.58
		C334.61,112.67,335.18,112.85,335.22,113.27z"/>
	<path class="st3" d="M331.53,112.58c0,0.49,0.07,0.96,0.15,1.04C332.68,114.62,331.53,110.24,331.53,112.58z"/>
	<path class="st3" d="M376.59,112.78c-0.3-0.8-0.49-0.62-0.31,0.31C376.48,114.05,376.91,113.6,376.59,112.78z"/>
	<path class="st3" d="M373.7,111.89c0,0.38,0.06,0.76,0.13,0.83c0.29,0.29,0.73-0.1,0.54-0.47c-0.11-0.2-0.26-0.64-0.33-0.98
		c-0.18-0.84-0.98-0.72-0.61-0.34C373.58,111.08,373.7,111.51,373.7,111.89z"/>
	<path class="st3" d="M376.81,111.45c0-0.68-0.44-1.08-0.44-0.14C376.37,112.24,376.81,112.15,376.81,111.45z"/>
	<path class="st3" d="M333.19,111.33c0.25,0,0.29-0.17,0.19-0.72c-0.21-1.13-0.52-1.26-0.52-0.21
		C332.86,111.07,332.95,111.33,333.19,111.33z"/>
	<path class="st3" d="M357.9,110.07c0.04,0.33-0.04,0.59-0.18,0.59c-0.14,0-0.19,0.11-0.11,0.23c0.19,0.31,0.89,0.17,0.86-0.18
		c-0.01-0.15-0.04-0.53-0.06-0.85C358.38,109.07,357.81,109.31,357.9,110.07z"/>
	<path class="st3" d="M329.53,110.17c0,0.75,0.36,0.97,0.59,0.36c0.07-0.19-0.03-0.51-0.23-0.71
		C329.56,109.49,329.53,109.51,329.53,110.17z"/>
	<path class="st3" d="M374.79,107.01c-0.27-0.28-0.26,0.36,0.02,1.08C375.43,109.72,375.23,107.47,374.79,107.01z"/>
	<path class="st3" d="M331.77,108.22c0.32,0,0.23-0.95-0.14-1.44C331.21,106.23,331.13,108.22,331.77,108.22z"/>
	<path class="st3" d="M372.66,106c0.25,0,0.24-0.2-0.05-1.11c-0.75-2.37-0.72-0.38-0.34,0.83C372.32,105.88,372.49,106,372.66,106z"
		/>
	<path class="st3" d="M329.75,104.95c-0.01-0.64-0.36-1.06-0.48-0.57C329.01,105.38,329.76,105.62,329.75,104.95z"/>
	<path class="st3" d="M331.35,103.45l-0.02,0.8c-0.01,0.44,0.05,0.86,0.13,0.95C331.72,105.45,332.17,105.34,331.35,103.45z"/>
	<path class="st3" d="M357.53,103.84c0.22-0.22-0.01-1.17-0.28-1.17c-0.23,0-0.27,0.97-0.04,1.19
		C357.29,103.94,357.44,103.93,357.53,103.84z"/>
	<path class="st3" d="M355.3,98.16c-0.28-0.28-0.26-0.98-0.27-1.37l-0.23,0.62c-0.12,0.34-0.17,0.76-0.1,0.94
		C354.86,98.77,355.64,98.5,355.3,98.16z"/>
	<path class="st3" d="M329.99,96.24c-0.33,0-0.45,0.32-0.31,0.85C330.01,98.34,330.48,96.24,329.99,96.24z"/>
	<path class="st3" d="M331.7,83.75c0.2,0.07,0.28,0.86,0.28,2.92c0,4.11,0.14,0.63,1.02,8.35c0.36,3.15,0.91,1.88,0.56-1.05
		c-0.35-2.99-1.02-7.98-0.95-14.02c0.01-0.6-0.14-5.24-0.53-1.14c-0.11,1.17-0.05,4.1-0.4,4.53
		C331.48,83.58,331.48,83.68,331.7,83.75z"/>
	<path class="st3" d="M330.72,95.35c0.18,0,0.12-1.33-0.07-1.44c-0.35-0.22-0.51,0.46-0.23,0.98
		C330.55,95.14,330.68,95.35,330.72,95.35z"/>
	<path class="st3" d="M330.25,75.79c0.01,0.22-0.71,6.52-0.04,12.57c0.34,3.02,0.32,3.22,0.49,3.77c0.48,1.6,0.53,3.46,0.86,2.59
		c0.29-0.79-0.26-0.96-0.25-1.97c0.02-1.22-0.39-2.88-0.02-3.58c0.4-0.75-0.2-0.16-0.2-0.98c0-0.73-0.24-5.48-0.23-5.88
		c0.04-0.82-0.13-4.47-0.21-7.12C330.64,74.86,330.22,74.9,330.25,75.79z"/>
	<path class="st3" d="M328,94.68c0.28,0,0.25-1.05-0.04-1.23C327.23,93,327.73,94.68,328,94.68z"/>
	<path class="st3" d="M329.11,91.7c-0.31-0.19-0.43,0.14-0.3,0.82C329.12,94.19,329.6,92,329.11,91.7z"/>
	<path class="st3" d="M366.17,92.91c0.2,0,0.07-1.05-0.15-1.31C365.62,91.13,365.71,92.91,366.17,92.91z"/>
	<path class="st3" d="M343.94,89.91c0.34-0.71,0.08-1.36,0.66-1.55c0.65-0.2,0.03-0.45,0.46-1.98c0.86-3.08-0.61-13.59-0.51-4.41
		c0.03,2.51-0.06,4.22-0.28,5.27C343.8,89.61,343.65,90.52,343.94,89.91z"/>
	<path class="st3" d="M363.66,88.52c0.57,1.2,0.56,1.63,0.67,0.82C364.59,87.44,363.08,87.33,363.66,88.52z"/>
	<path class="st3" d="M327.76,89.06c0-0.48-0.65-1.25-0.66-0.78c0,0.2,0.05,0.53,0.13,0.72C327.39,89.43,327.76,89.47,327.76,89.06z
		"/>
	<path class="st3" d="M364.89,88.02l0.24,0.55l0.09-0.63C365.4,86.62,364.48,87.08,364.89,88.02z"/>
	<path class="st3" d="M347.15,84.11c-0.19-0.77,0.34-1.35,0.45-2.54c0.09-1.01,0.69-1.32-0.55-6.09c0,0-0.35,7.52-0.85,10.54
		c-0.13,0.79-0.24,1.59-0.24,1.76C345.95,89.02,347.38,85.01,347.15,84.11z"/>
	<path class="st3" d="M361.48,85.14c-0.28,0-0.26,0.59,0.04,1.14c0.13,0.25,0.29,0.4,0.35,0.33
		C362.05,86.44,361.71,85.14,361.48,85.14z"/>
	<path class="st3" d="M363.71,86.12c0.23,0.61,0.67,0.78,0.67,0.25C364.38,84.81,362.98,84.22,363.71,86.12z"/>
	<path class="st3" d="M361.77,83.18c-0.2,0.2-0.18,0.36,0.1,0.67c0.2,0.22,0.29,0.4,0.21,0.4c-0.09,0-0.09,0.11-0.01,0.25
		c0.25,0.4,0.47-0.17,0.36-0.92C362.33,82.86,362.17,82.77,361.77,83.18z"/>
	<path class="st3" d="M364.2,83.74c0.26,0.61,0.26,0.61,0.35,0.11C364.79,82.48,363.53,82.14,364.2,83.74z"/>
	<path class="st3" d="M359.62,81.66c0.08,0.39,0.19,0.78,0.25,0.87c0.05,0.09,0.19,0.17,0.31,0.17c0.26,0,0.26-0.14-0.03-1.17
		C359.87,80.52,359.4,80.65,359.62,81.66z"/>
	<path class="st3" d="M362.22,81.56c0.21,0.55,0.29,0.62,0.4,0.33C363.15,80.38,361.57,79.84,362.22,81.56z"/>
	<path class="st3" d="M357.54,79.56c-0.22,0.13-0.22,0.43-0.03,1.32c0.32,1.5,0.63,1.47,0.56-0.07
		C358.02,79.47,357.95,79.31,357.54,79.56z"/>
	<path class="st3" d="M360.3,79.76c-0.07-0.27-0.13-0.67-0.14-0.89c0-0.53-1.11-0.77-0.39,0.79
		C360.11,80.38,360.49,80.45,360.3,79.76z"/>
	<path class="st3" d="M362.84,78.81c-0.31,0.19,0.24,1.24,0.47,1.09c0.11-0.07,0.16-0.19,0.11-0.27
		C363.26,79.34,363.12,78.63,362.84,78.81z"/>
	<path class="st3" d="M364.18,79.66c0.29-0.29,0.01-1.45-0.32-1.33c-0.24,0.08-0.24,0.56-0.01,1.24
		C363.92,79.79,364.02,79.81,364.18,79.66z"/>
	<path class="st3" d="M362.33,77.74c0.15-0.65-0.16-1.92-0.47-1.92c-0.45,0-0.58,0.24-0.35,0.63
		C362.02,77.34,362.17,78.39,362.33,77.74z"/>
	<path class="st3" d="M333.65,77.23c0.16,0.64,0.54,0.58,0.54-0.08c0-0.42-0.38-0.81-0.58-0.6
		C333.56,76.6,333.57,76.91,333.65,77.23z"/>
	<path class="st3" d="M358.76,77.74c0.17-0.17-0.16-1.9-0.39-2.04C357.77,75.32,358.4,78.1,358.76,77.74z"/>
	<path class="st3" d="M360.19,75.54c-0.02-0.18-0.91-0.24-0.91-0.06c0,0.06,0.16,0.51,0.36,1C360.21,77.92,360.45,77.5,360.19,75.54
		z"/>
	<path class="st3" d="M332.67,75.88c0.24-0.61,0.22-0.73-0.14-0.73c-0.34,0-0.46,0.68-0.17,0.97
		C332.44,76.21,332.59,76.1,332.67,75.88z"/>
	<path class="st3" d="M329.53,73.71c0.12,0.08,0.23,0.44,0.23,0.81c0,0.39,0.09,0.61,0.22,0.53c0.36-0.22,0.28-1.89-0.1-1.89
		C329.47,73.15,329.24,73.52,329.53,73.71z"/>
	<path class="st3" d="M360.15,72.26c-0.53,0-0.6,1-0.08,1.19c0.78,0.3,0.76,2.67,1.05,0.41C361.24,72.83,360.91,72.26,360.15,72.26z
		"/>
	<path class="st3" d="M331.46,71.15c-0.2,0-0.26,0.24-0.2,0.78C331.48,73.79,332.12,71.15,331.46,71.15z"/>
	<path class="st3" d="M330.5,69.76c-0.29-0.29-0.44,0.06-0.35,0.83C330.36,72.35,330.93,70.18,330.5,69.76z"/>
	<path class="st3" d="M332.58,66.91c-0.11,0.11-0.14,0.41-0.06,0.66c0.2,0.64,1.05,0.45,0.91,0.11c-0.21-0.56-0.16-3.97,0.07-4.56
		c0.17-0.44,0.17-0.61,0-0.61c-0.4,0,0.06-3.32-0.3-3.33c-0.31-0.01-0.24,2.11-0.54,2.77c-0.38,0.85-0.42,1.78-0.14,3.27
		C332.68,66.13,332.71,66.78,332.58,66.91z"/>
	<path class="st3" d="M340.94,62.16c0.42,0.63,2.07,3.81,2.19,3.86c0.25,0.11,0.53,1.81,0.85,1.81c0.24,0,0.05-1.65-0.26-2.26
		c-0.11-0.21-0.19-0.58-0.19-0.83c0-0.7-0.44-0.26-0.44-0.79c0-0.51-0.44-0.15-0.44-0.67c0-0.54-0.55-0.29-0.77-1.14
		c-0.28-1.13-0.6-0.62-1.87-3.13c-0.61-1.2-0.81-1.78-1.29-3.77c-0.07-0.27-0.2-0.5-0.3-0.5c-0.39,0-0.43,0.45-0.12,1.26
		C338.87,57.55,338.55,58.6,340.94,62.16z"/>
	<path class="st3" d="M334.73,60.3c-0.37-4.74-1.27,0.86-0.04,5.47C336.24,71.59,334.97,63.29,334.73,60.3z"/>
	<path class="st3" d="M337.42,59.45c0.08,0.82,0.23,1.5,0.33,1.5c0.24,0,1.36,2.51,1.8,3.38c0.36,0.72,0.53,1.04,0.88,1.83
		c0.9,2.04,0.99,0.77,0.69,0.18c-0.34-0.66-0.29-1.88-1.05-3.23c-1.27-2.26-1.65-3.06-1.65-3.47c0-0.24-0.09-0.49-0.19-0.56
		c-0.37-0.23-0.38-3.42-1.16-2.64c-0.19,0.19-0.2,0.43-0.02,0.89C337.16,57.67,337.34,58.62,337.42,59.45z"/>
	<path class="st3" d="M337.3,66.54c0,0.22,0.1,0.4,0.22,0.4c0.3,0,0.28-1.78,0.02-1.78c-0.3,0,0.03-1.5-0.26-1.68
		c-0.29-0.18-0.1-1.58-0.41-1.69c-0.16-0.06-0.9-3.95-0.9-4.73c0-0.06-0.1-0.11-0.23-0.11c-0.6,0,0.3,6.47,1.16,8.31
		C337.12,65.74,337.3,66.31,337.3,66.54z"/>
	<path class="st3" d="M331.11,162.37l0.3-0.45c0.35,0.17,1.82,0.85,2,1.13c0.32,0.52,0.91,0.03,0.27-0.38
		c-0.44-0.28-0.95-1.4-1.32-1.4c-0.56,0-1.13-1.26-1.93-1.01c-0.63,0.2-0.59,0.74,0.09,1.05c0.65,0.3,0.69,0.55,0.19,1.11
		C330.24,162.95,330.7,162.98,331.11,162.37z"/>
	<path class="st3" d="M332.14,158.53c-0.28,0.18-0.19,1.19,0.11,1.19c0.64,0.01,2.85,1.48,2.82,0.94
		C335.05,160.39,332.33,158.41,332.14,158.53z"/>
	<path class="st3" d="M333.76,157.5c-0.63,0-0.36,0.51,0.47,0.87C337.19,159.68,334.29,157.5,333.76,157.5z"/>
	<path class="st3" d="M406.62,125.7c0.18,0.28,0.6,0.39,0.6,0.16c0-0.47-1.42-2.16-1.64-1.94c-0.07,0.07-0.13,0.01-0.13-0.14
		c0-0.4-0.62-0.96-0.89-0.8c-0.34,0.21-0.11-0.43-0.45-0.22C402.84,123.54,406.19,125.04,406.62,125.7z"/>
	<path class="st3" d="M404.57,121.48c2.06,1.35,0.15-0.36-1.39-2.1c-0.82-0.92-1.56-1.13-1.69-0.47
		C401.38,119.51,404.09,121.16,404.57,121.48z"/>
	<path class="st3" d="M401.45,117.18c2.23,1.56,2.37,1.39,0.47-0.54c-0.92-0.93-1.42-1.28-1.68-1.18
		C399.63,115.7,399.93,116.13,401.45,117.18z"/>
	<path class="st3" d="M400.34,113.26c0,0.36,0.48,0.3,0.6-0.07c0.14-0.43-2.01-2.29-2.31-1.99
		C398.04,111.78,400.34,112.72,400.34,113.26z"/>
	<path class="st3" d="M398.51,109.25c0.78,0.29,0.89,0.19,0.4-0.35c-0.21-0.24-0.53-0.38-0.7-0.31
		C397.73,108.78,397.83,109,398.51,109.25z"/>
	<path class="st3" d="M311.47,97.21c-1.66-1.45-2.77-0.68,1.53,1.83C314.79,100.09,312.56,98.17,311.47,97.21z"/>
	<path class="st3" d="M316.99,97.62c-0.15,0.13-1.43-0.65-1.89-1.15c-0.35-0.39-1.27-0.06-1.07,0.38c0.11,0.24,1.91,1.38,2.18,1.38
		c0.12,0,0.23,0.08,0.23,0.19s0.22,0.3,0.5,0.43c0.91,0.44,1.21,0.17,0.39-0.34c-0.29-0.18-0.39-0.41-0.3-0.66
		C317.11,97.63,317.09,97.53,316.99,97.62z"/>
	<path class="st3" d="M320.88,98.25c0-0.22-1.76-1.79-2.01-1.79c-0.09,0-0.22-0.22-0.31-0.5c-0.25-0.82-0.16,0.26-0.68-0.17
		c-0.42-0.35-0.76,0.23-0.24,0.54C319.03,97.17,320.88,98.93,320.88,98.25z"/>
	<path class="st3" d="M305.45,97.06c0.15-0.15,0.09-0.18-0.18-0.08c-0.61,0.22-1.7,0.06-1.7,0.35
		C303.56,97.59,305.15,97.37,305.45,97.06z"/>
	<path class="st3" d="M322.9,96.82c0.37,0.45,0.5,0.21,0.18-0.31c-0.25-0.4-1.31-1.16-1.62-1.16c-0.42,0-0.03,0.65,0.53,0.88
		C322.34,96.38,322.75,96.65,322.9,96.82z"/>
	<path class="st3" d="M388.55,79.35c-0.52-0.45-1.31-0.57-1.31-0.2c0,0.32,0.88,0.48,1.36,0.92c1.3,1.2,1.65,0.51,0.9,0.01
		C389.25,79.91,388.82,79.58,388.55,79.35z"/>
	<path class="st3" d="M390.3,77.92c-0.61-0.54-0.88-0.66-1.04-0.47c-0.33,0.4,0.01,0.77,1.45,1.59
		C393.74,80.79,391.6,79.07,390.3,77.92z"/>
	<path class="st3" d="M394.79,78.07c-0.62-0.21-2.37-2.37-3.07-1.53c-0.19,0.23,0.13,0.49,1.47,1.2
		C395.58,79.01,395.02,78.15,394.79,78.07z"/>
	<path class="st3" d="M396.47,77.18c0.16,0.27,0.76,0.24,0.76-0.03c0-0.12-0.08-0.22-0.19-0.22c-0.1,0-0.63-0.3-1.17-0.66
		c-2.17-1.47-2.59-0.14-0.54,0.44C395.9,76.86,396.41,77.07,396.47,77.18z"/>
	<path class="st3" d="M400.39,75.82c-0.43,0-1.94-1.98-2.93-1.67c-0.55,0.17-0.77,0.78-0.29,0.78c0.34,0,1.93,0.65,2.73,1.11
		C400.79,76.56,400.61,75.82,400.39,75.82z"/>
	<path class="st3" d="M400.03,72.56c-0.42,0.16-0.49,1.04-0.08,1.04c0.15,0,0.73,0.24,1.28,0.53c1.39,0.73,1.99,0.62,0.86-0.17
		c-0.29-0.2-0.4-0.43-0.3-0.61c0.12-0.2,0.06-0.23-0.24-0.12C400.8,73.52,400.7,72.3,400.03,72.56z"/>
	<path class="st3" d="M402.69,71.99c-0.07,0.07-0.13,0.01-0.13-0.14c0-0.42-0.98-0.19-1.07,0.26c-0.05,0.28,0.07,0.39,0.44,0.4
		c0.28,0.01,0.87,0.2,1.29,0.43c1.03,0.56,1.62,0.57,0.89,0c-0.31-0.23-0.72-0.57-0.92-0.75C402.98,72,402.76,71.92,402.69,71.99z"
		/>
	<path class="st3" d="M404.57,70.93c-0.11,0-0.36-0.16-0.56-0.35c-0.36-0.36-1.01-0.28-1.01,0.12c0,0.12,0.47,0.46,1.05,0.75
		C407.06,72.96,405.04,70.93,404.57,70.93z"/>
	<path class="st3" d="M404.86,69.72c-0.7,0.96,0.46,0.52,1.7,1.19C408.85,72.15,405.64,68.64,404.86,69.72z"/>
	<path class="st3" d="M406.97,68.3c-0.3,0.47-0.27,0.5,0.97,1.12C412.05,71.48,407.27,67.83,406.97,68.3z"/>
	<path class="st3" d="M369.26,49.19c0,0.75,5.33,5.05,5.33,4.32c0-0.16-1.3-1.45-1.46-1.45C372.82,52.07,369.26,47.87,369.26,49.19z
		"/>
	<path class="st3" d="M369.77,46.13c-0.75-0.42-1.53,0.19,1.59,2.21c0.69,0.45,1.23,1.08,1.5,0.92c0.19-0.12-0.02-0.35-1.54-1.68
		C370.28,46.69,370.47,46.52,369.77,46.13z"/>
	<path class="st3" d="M323.07,47.28c0.15-0.15-1.4-1.65-1.72-1.65C320.41,45.62,322.93,47.42,323.07,47.28z"/>
	<path class="st3" d="M369.26,42.86c0-0.19-0.13-0.34-0.29-0.34c-0.46,0-1.71-1.45-1.71-0.68c0,1.25,2.28,2.31,3.16,3.17
		c0.46,0.45,1.66,0.88-0.16-0.87C369.71,43.63,369.26,43.04,369.26,42.86z"/>
	<path class="st3" d="M342.96,43.64c0.4-0.16,0.38-0.2-0.22-0.34c-0.47-0.11-1.86-0.57-1.15,0.23
		C341.88,43.87,342.31,43.91,342.96,43.64z"/>
	<path class="st3" d="M319.99,43.02c0-0.24-1.52-1.61-1.78-1.61C317.25,41.41,319.99,43.68,319.99,43.02z"/>
	<path class="st3" d="M366.98,38.01c-0.97-0.6-1.15,0.16-0.22,0.94c1.7,1.44,3.39,2.87,3.39,2.35
		C370.15,40.96,367.8,38.52,366.98,38.01z"/>
	<path class="st3" d="M315.33,37.6c0,0.24,0.73,0.91,2.21,2.02c1.25,0.93,1.56,1.07,1.56,0.69c0-0.12-0.12-0.22-0.26-0.22
		c-0.14,0-0.62-0.37-1.05-0.83C316.34,37.73,315.33,37.06,315.33,37.6z"/>
	<path class="st3" d="M366.03,33.89c0.18-0.3-2.2-0.83-0.88,0.42c0.85,0.8,0.33,1.01,1.09,1.2c0.79,0.2,2.8,2.3,2.8,1.61
		c0-0.02-2.43-2.41-2.44-2.74C366.6,33.96,365.85,34.18,366.03,33.89z"/>
	<path class="st3" d="M315.08,34.89c1.17,0.8,1.57,0.76,0.58-0.06c-0.37-0.3-1.12-0.95-1.66-1.44
		C311.67,31.3,309.56,31.13,315.08,34.89z"/>
	<path class="st3" d="M364.32,29.06c-0.15-0.03-0.51-0.13-0.8-0.21c-1.36-0.4,0.92,2.32,3.12,3.72c0.84,0.53,0.81-0.01-0.03-0.71
		c-0.36-0.3-0.66-0.64-0.67-0.77C365.91,30.74,364.63,29.12,364.32,29.06z"/>
</g>
<rect x="13.77" y="63.83" class="st4" width="261.74" height="70.48"/>
<text transform="matrix(1 0 0 1 13.7711 114.9521)" class="st3 st5 st6">chrysalis</text>
</svg>
