<?xml version="1.0" encoding="utf-8"?>
<!-- Generator: Adobe Illustrator 27.0.1, SVG Export Plug-In . SVG Version: 6.00 Build 0)  -->
<svg version="1.1" id="Layer_1" xmlns="http://www.w3.org/2000/svg" xmlns:xlink="http://www.w3.org/1999/xlink" x="0px" y="0px"
	 viewBox="0 0 226.8 255.2" style="enable-background:new 0 0 226.8 255.2;" xml:space="preserve">
<style type="text/css">
	.st0{fill:#6BA240;}
	.st1{fill:#56D1D9;}
	.st2{fill:#B34791;}
	.st3{fill:#8258A3;}
	.st4{fill:#CEB25A;}
	.st5{fill:#A84A61;}
	.st6{fill:#FFFFFF;}
	.st7{fill:#231F20;}
</style>
<g>
	<polygon class="st0" points="72.8,143.6 72.8,115.3 48.4,101.3 24,115.3 24,143.6 48.4,157.6 	"/>
	<polygon class="st1" points="120.4,99.5 120.4,64.3 90,46.9 59.6,64.3 59.6,99.5 90,117 	"/>
	<polygon class="st2" points="226.8,122.1 226.8,89.5 198.6,73.3 170.4,89.5 170.4,122.1 198.6,138.3 	"/>
	<polygon class="st3" points="200.5,188.4 200.5,148.5 165.7,128.6 131.3,148.5 131.3,155.8 144.9,187.2 146.4,197.1 165.7,208.3 	
		"/>
	<polygon class="st4" points="107.7,228.4 107.7,226.6 90.2,229.9 82.6,225.8 78.3,211.1 72.7,191.7 69.7,169 67.9,159.5 
		28.2,182.5 28.2,228.4 67.9,251.1 	"/>
	<polygon class="st5" points="190.6,56.1 190.6,18.8 158.4,0.4 126.3,18.8 126.3,56.1 158.4,74.5 	"/>
	<polygon class="st6" points="81.7,74.2 86.2,72.8 92.4,75.8 97.9,81 101.2,84.8 108.5,89 117.3,96.7 122.8,104.1 128.3,115.4 
		132.7,125.2 139.2,145 145.2,163.7 150.5,176.6 156.5,191.1 164.7,203.6 164.4,207.9 156.7,214.6 155.5,216.4 153.5,217.4 
		152.2,218.4 151.7,218.4 151.3,218.4 150.7,218.4 150.6,218.6 150,219 149.2,219.4 148.1,219.8 146.2,220.1 144.8,220.5 
		144.2,221.1 143.6,221.3 142.6,221 141.8,220.8 140.9,220.7 139.3,220.8 138.5,221.3 138.2,221.6 138.1,221.7 137.8,221.7 
		137.2,221.6 135.9,221 135.3,221 136.1,221.3 135,221.6 134,221.5 132.7,220.5 130.2,219.5 127.1,219.6 124.6,220.4 122.8,221.3 
		122.4,222.4 119.3,223.5 115.9,224.5 106.6,227.2 97.5,228.5 93,229.4 86.1,228.3 83.3,226.2 81.1,219.6 79.3,211.2 76.4,204.7 
		73.1,192.6 72.7,191.7 72.2,186.5 70.7,174.7 69.1,164 69,164.4 68.8,162.9 67.9,162 68.1,160.8 68,157.5 68.5,153 67.7,146.4 
		66.4,130.1 65.3,122.1 66,113.7 67.9,107 72,97.7 69.9,93.1 67.9,89.4 73.3,81.6 77.4,76.5 	"/>
	<g>
		<path class="st7" d="M4.7,149.6c4.3-0.8,4.6-0.8,5.6-1.3c1.3-0.5,2.3-0.3,2.5,0.3c0.3,0.8,2.8,1.5,3.5,0.8c0.3-0.3,0.5-0.3,0.8,0
			c0.5,0.5,1.5,0.5,1.5,0s0.5-0.5,1.8-0.8c0.5,0,1.3,0,2,0.5c1.3,0.8,1.3,0.5,0.5-0.5c-0.8-0.8-0.5-1.3,0.3-0.8
			c0.3,0.3,1,0.3,1.5,0.3s0.8,0.3,1,0.3c0.3,0.5,2,1.3,2.3,1c0,0-0.3-0.5-0.5-0.8c-0.5-0.5-0.8-0.5-0.3-0.8c2-0.8,2.5-1,3-0.5
			c0.8,0.8,2.8,1.8,2.8,1.5s0-0.3-0.3-0.3c-0.5,0-1.5-1-1.8-1.5c0-0.3,0.3-0.5,1.8-0.8c0.5,0,3,0.8,3.3,1.3c0.3,0.3,1.5,1,1.8,0.8
			c0.3-0.3-2.8-2.5-3-2.8c-0.5-0.8-4.6,0.8-6.1-0.3c-1.8-1.3-0.5,0.8-3,0.8h-1.3c3.8-2,3.5-2,6.3-2c1.3,0,2.5,0,2.5-0.3
			c0.5-0.5,1.5-1,1.8-0.8c0.3,0.5,0.8,0.3,0.8-0.3c0-0.5,0.5-0.8,1.8-1.5c1-0.5,1.8-1,2-1.3c0.3-0.3,0.5-0.5,0.8-0.5s4.3-3,5.3-3
			c0.3,0,0.5-0.3,0.8-0.5c0-0.3,0.3-0.3,0.3-0.3s0,0.5-0.3,1c-0.5,0.8-0.8,1.3-1,2.8c-0.3,1.3-1,2.5-1.8,4.3c-0.5,1.3-1.3,2-1.8,2.5
			l-0.8-0.8c-3-2.8-8.4-1-4.3-1c2,0,2,0.8,4,2c1,0.5,1,0.5,0.5,1.5c-0.5,1.3,0,1.5,0.5,0.3c0.8-1.5,2-0.5,1-1.5l-0.8-0.5l0.8-0.8
			c0.8-0.8,1.8-1,1.8-0.3c0,0.3,0.3,0.3,0.5,0.3c0.3,0,1,0.5,1.8,1c1,0.8,1.3,0.8,1.3,0.5s0-0.5-0.3-0.5c0,0-2.5-2.5-3.3-2.5
			c-1.5,0-0.3-0.8,2-5.6c2.8-5.8,1.5-2.8,7.6-4.3c1.3-0.3,3.8-1.3,3.8-1.3c2-0.3,1-0.8,4-2.3c1.3-0.5,2.8-1.3,3.3-1.8
			c1.3-0.8,1.8-1,1.8-1c0.5,0.5,0.5,9.4,1.3,16.7c0.3,2,0.3,6.3,0.5,6.3c0.8,0.5,0.5,4.8-0.3,5.8c-0.5,0.5-1.3,1.5-2,2
			c-1.5,1.8-0.5,0.3-1.8,1.8c-1.3,1.5-1.5,0-1.8,1.3c0,0.5-0.5,0.8-0.8,1c-1,0.3-1.5,3.8-0.8,6.6c0.5,1.8,1,7.3,0.5,7.3
			c-0.3,0,0,0.3,0,0.5c0.8,1-0.5-0.3-0.5,0.5c0,1,1,0,0.8,0.5c0,0,0.5,3.8,0.5,5.8c0.3,4,0.5,2,1,5.8c0.5,3,0.8,4.8,1.5,7.1
			c0.5,2,0.8,7.3,0.3,6.8c-0.5-0.5-2,0.5-0.3,0.8h0.8c0,4,0,6.3-0.5,6.6c-0.3,0.3-0.3,0.3,0,0.5c0.5,0.5,0.8,1.3,0.3,1.3
			c-0.5,0-0.5,0.8,0,1c0.3,0,0.5,3,0,3.8c0,0.3,0,0.3,0,0.3c0.3,0,0.3,3,0,3.8c-0.3,0.3,0,0.5,0.3,0.8c0.5,0.3,0.5,8.6,0,8.9
			c-0.8,0.5-0.5,9.1-1.3,14.4c-0.5,2.5,0.3,3.8-2.3,6.1c-1.8,1.8-2,2.5-0.8,3c1.8,0.8,3.5-0.3,3.5-1.8c0-0.8,2-3.8,2.5-3.8
			c0.3,0,0.5,0,0.8,0c0.5,0,0.5-0.5,0-0.8c-0.5,0-0.3-0.3,0.3-1c0.8-1,1.5-1,2-0.3c0,0.3,0.3,0.3,0.5,0c0,0,0-0.5-0.5-0.8
			c-0.8-0.8-0.8-1,0-1.8c0.5-0.8,0.5-0.8,1.5-0.3c1.3,0.8,1.5,0.5,0.5-0.5c-1-1-1-1.3-0.3-2.5c0.3-0.5,0.5-0.8,0.5-0.8
			c0,0.3,0.5,0.5,1.3,0.8c1.5,0.5,1.3-0.3-0.3-1c-1.5-0.8-0.3-1.8,0.5-2.8l1.5,0.8c1.5,0.8,2.5,0.8,1.3,0c-1-0.8-2.3-2-2.3-2.3
			c0-0.5-1-0.8-1.5-0.3s-0.5,1.3,0,1.3c1,0-0.3,1.5-1.5,2c-0.8,0.3-1,1-0.5,1.3c0.5,0.3-3.5,4.3-4,4.3c-0.3,0-0.3,0.3-0.3,0.5
			s0.3,0.5,0.3,0.5c0.5,0,0.3,0.5-0.3,0.8c-1,0.3,0.3,0-0.3-1.3c-0.5-1.3,1-2,1-4.8c0-0.8,0.3-1.5,0.3-1.8c0.3-0.3,0.3-0.3,0-0.5
			c-0.5-0.5,0.3-2.8,0-4c-0.3-1.3,0.5-0.5,0.5-1.3c0-0.3-0.3-0.5-0.3-0.5c-0.3,0-0.3-1,0-3.3c0.3-4,0.3-5.8,0.8-5.8
			c0.8-0.3-0.8-0.8,0-1.3c0.5-0.3,0.3-2.3-0.3-10.1c0-0.8-0.3-2.3-0.5-3.3c-0.8-3.8-1-15.7-0.3-15.9c1-0.3-1.3-1-0.5-1.5
			c0.5-0.5-0.8-2-0.5-3.3c0.3-1-0.8-3.8-0.8-5.6s-1-1.5-0.5-2.3c0.5-0.5,0-0.3-0.3-4.3c-0.3-4.8-0.8-7.6-0.3-7.6c0.5,0,2.5-3,3-4
			c0.8-1.5,1-1,1,0.8c0,1,0,1.8,0,1.8c0.3,0,0.3,0.5,0,0.8c0,0.3,0,0.8,0.3,0.8s0.3,0.8,0.3,1.5c0,1.8,0,1.3,0.3,2.8
			c0.8,6.8,3.3,18.2,2.5,18.5c-0.3,0-0.3,0.3-0.3,0.8c0.3,0.8,1.3,5.1,1.3,6.1c0,0.5,0.3,1,0.3,1c0.3,0.3,0.5,1.3,0.5,2.5
			c0,1.3,0.5,3,0.8,4c0.3,1,0.5,2,0.5,2c-0.3,0.5,0.5,1,0.5,1.5c-0.5,1,2.5,9.1,3.3,11.4c0.3,0.8,0.5,1.5,0.8,1.8
			c0.3,0.3,0.3,0.5,0,0.5c-0.3,0-0.3,2.8,0.3,3.5c0.5,1,5.6,3.3,7.1,3.3c2.5,0-0.3,0.8,4.6,0.5c1.5,0,7.3-0.3,8.9-1.3
			c0.8-0.5,1.5-0.3,2.8,0.3c1.5,0.8,2.8,0.8,2.8,0.5c0-0.3-0.3-0.3-0.5-0.3s-0.8-0.3-1.3-0.5l-0.8-0.5c1.3,0,2.3,0,4.8,0.8
			c3,1,4,0.8,1.8-0.3c-2.5-1.3-0.5-1.8,2.3-0.5c1.3,0.5,2.3,0.8,2.5,0.8c0.5,0-2-1.8-2.5-1.8c-0.5,0,1.3-1.3,4-0.3
			c1.3,0.5,1.5,0.5,1.5,0.3c0-0.3-0.5-0.5-1-0.8c-1-0.3-1.3-0.8-0.3-1.5c0.5-0.5,1.5-0.3,3.5,0.8c2.5,1,1.8,0,1.5,0
			c-0.5,0-2.5-1.5-2.3-1.8c0.5-0.5,1.5-0.3,3.8,0.5c2.5,1,3.3,0.8,1.5-0.3c-2.3-1.5-2.5-1.8-2-2c0.8-0.5,2.5,0,6.1,1.5
			c1.3,0.5,0.5-0.5-1.3-1.5c-3-2-0.3-2.8,4.3-1.5c1,0.3,2,0.5,2.5,0.5c1-0.3,3,1.5,3,0.3c0-0.8,3-0.8,4.3-0.3c4,2,6.3,2.5,3.8,1
			c-1.8-1.3-2-1.8-0.8-2c1-0.3,3-0.3,3,0c0.3,0.5,3.5,2,3.5,1.5c0-0.3-0.8-1-1.8-1.5c-1-0.5-0.8-0.8,0-1.3c0.8-0.5,1-0.5,1.8,0
			c1.5,0.8,1.8,0.5,1.8,0.8c0,0.5,1.8,0.5,2.5,1c0.5,0.5,1,0,0.5-0.3c-0.5-0.3-1-1-1.5-1s-0.5-0.8-1.3-1c-0.8-0.3-0.8-0.5,0.3-1
			c0.8-0.3,1-0.3,2.8,0.5c3.8,1.8,3,0.3,2.5,0.3c-0.3,0-0.5-0.3-0.8-0.5c0-0.3-0.3-0.5-0.5-0.5s-0.5-0.3-1-0.5c-1.5-1.3,0.5-2.3,2-1
			c1.3,1,0.5,0,2.8,1c0.8,0.5,1.5,0.8,1.5,0.8c0-0.5-0.5-1-0.8-1c-0.3,0-1-0.5-1.5-1c-1.8-1.3-1-2,1.3-1.3c5.1,2,1.5-0.8,0.8-0.5
			c-0.8,0.3-1.3-2.3,1.3-1.3c4.3,2,4,0.8,3.5,0.8c-0.5-0.3-1.5-1.3-2.3-1.8c-1.5-0.8,2.5-0.8,3.8-0.8l-0.5-0.8
			c-0.3-0.3-1-0.8-1.5-1.3c-1.3-0.8-0.3-1.8,2.3-1.8c0.8,0,0.8-0.3,0-1c-0.3-0.3-0.5-0.8-0.5-1c0.3-0.5-2.3,0-1.5-0.8
			c1-1,6.8-0.5,3.5-1.5c-1.5-0.5-1.5-2.8,0-2.8c2,0,0.5-0.5-1.8-0.5c-3.5,0-5.8-1-3-1.5c0.5,0,1.3-0.3,1.8-0.3c2-0.5,0.5,2.3,2.3,1
			c0.3-0.3,0.3-0.5,0-0.8c-0.5-0.5-0.3-0.8,0.5-0.8c0.5,0,1.3-0.5-1.3-0.5c-1.3,0-2,0-2-0.5c0-0.3-0.3-0.5-0.5-0.5
			c-0.8,0-0.3-0.5-1-0.5c-1,0-0.3-0.5,1-0.8c0.8,0,1.8-0.3,2-0.5c1-0.3-0.3,2,0.5,2c0.5,0-0.3-1.8,1-1.5c0.8,0.3,0.8-0.3,0.3-0.5
			c-0.3,0-0.3-0.3,0.3-0.3c0.8,0,0.8-0.8-0.3-0.5c-1,0.3-1.3-0.5-2.8-1.5l-0.8-0.5c3.3-0.3,3.3-0.3,4.3,0c1,0.3-1.3-1.8-2.5-2.5
			c-1.3-0.8-1-1,1-1.3c2.5-0.3,2-0.5-1-0.5c-4,0-5.3-1.5-1.8-1.8c1.5-0.3,1.5-0.3,1.8,0.5c0.3,0.5,0.3,0.8,0.5,0.5
			c0.3-0.5,0.8-0.3,2.3,0.3l-0.8-0.8c-2-1.8,0-0.8,0-1.5c0-0.3-0.5-0.3-1-0.3c-0.8,0-1.3,0-2.3-0.8c-3.3-2.5,1.5-0.8,1.5-1.5
			c0-0.3,0.5,0,1,0.5c1.5,0.8,1.8,0.8,0.8-0.3l-0.8-0.8c0.5,0.3,1.3,0.5,1.8,1.5s3.5,3,3.5,3.8c0,0.5,1.8,2,2.5,3.5
			c0.8,1.3,1.8,2,3.5,4.8c1.5,2.3,2,2.5,2,3c0,0.5,1.3,1,1.3,1.5c0,0.5,2.5,3.5,2.5,3.8c0,0.3,0.3,0.3,0.3,0.3c0.5,0,2.5,2,2.5,2.5
			c0,0.3,0,0.3,0.3,0.3s0.5,0.5,1,1.3c1,1.8,2,2,3.8,4.8c2.8,4.6,2.5,1.8,4.8,1.8c3.8,0.3-1.5-4.3-2.3-4.3c-0.5,0,0-1-0.8-1
			c-0.8,0-0.3-1.3-1-1.3c-0.8,0-0.3-0.5-1.3-1.5s-0.8-2-2.8-4.3c-1.8-2.3-0.8-1.5-2-3c-0.5-0.5-0.8-1-0.8-1.3s-0.3-0.5-0.5-0.5
			c-0.5-0.3-0.8-0.8-1.5-2c-2.3-3.3,4.3,2.5,0.5-1.8c-2-2.5-2.8-3-3-3s-0.3-0.3-0.5-0.5c-0.3-0.5,1-0.3,1.3,0.3
			c0,0.3,0.3,0.3,0.5,0.3c1.3,0-1.3-2-3.3-4c-1-1-1.3-1-1.5-0.8c-0.5,0.8-0.3,1.3,0.3,1.5c0.3,0.3,0.5,0.5,0.5,0.5
			c0,0.5,2.3,5.1,2.5,5.1s0.3,0.3,0.3,0.5c0,0.3,0.3,0.8,0.8,1.3c0.5,0.8,0.5,1,0.3,1.5c-0.3,0.5-0.3,0.5-0.3,0.3
			c0-0.8-0.5-0.3-0.8-1.3c-0.3-1-1,0.3-0.8-0.8c0.5-1-1.8-0.8-1.8-2.3c0-0.3-0.3-0.5-0.5-0.5c-0.5,0-2.3-2-2.8-3.3
			c-0.3-0.8-3-4.3-2.5-4.8c0-0.3,0-0.3-0.3-0.3s-0.3-0.3-0.3-0.5c0-1-1-0.8-1-1.5c0-0.5-1.5-1.3-1.5-1.8s-1.3-1.3-1-2
			c0.3-1-3.5-3.3-1.5-3c0.3,0,0.3-0.5,0-0.5s-0.3-0.3,0-0.5c0-0.3,0-0.5-0.5-0.5c-1,0,0-0.5-0.8-0.8c-1-0.3-0.5-1,0.5-1
			c1.3,0,0.8-0.5-0.5-0.5c-0.8,0-1.3,0-1.8,0s-1.3-1.3-1.3-1.8s3.3,0,3.8,0.3c0.3,0.3,0.5,0.5,0.8,0.5c0.5,0-0.5-0.8-0.3-1.3
			c0-0.3,0-0.3-0.5-0.3c-0.8,0-3.3-2-2.8-2.3c0.3-0.3,2,0,2-0.5s-1.8,0-2-0.8c-0.3-0.8-1,0.8-1.5,0.3c-0.3-0.5-2-1-2.3-1.8
			c-0.3-0.8,3-0.8,4.3,0.3c1,0.8,1.8,0.5,0.8-0.3c-0.8-0.5-0.5-1,0.3-1c1.8,0,1.5-0.5-0.3-0.8c-1,0-1.8-0.3-2-0.5
			c0-0.3-0.3-0.3-0.5-0.3c-0.5,0-1.8-1.3-2.3-1.5h0.8c1.5,0,1.8-0.8,1.5,0.5c-0.3,1.5,0-1.3,1.5-1c1.8,0.5-4.8-3.3-0.3-3.3
			c2,0,0.8-0.5-1.3-0.8c-1.8,0-2.3-0.3-3-1c-0.5-0.5-1.3-0.8-1.5-0.8c-0.5,0-0.5-0.5,0-0.8c1.5-0.5,3.5,0.3,3.3,1.5
			c0,0.5,0,0.8,0.3,0.8c0.5,0,0.3-1.3,0.8-1.3c0.5,0-0.8-1-1.3-1.3h1.3c1.5,0,2-0.5-0.8-0.5c-1.8,0-2.5-0.3-2.3-1.5
			c0-0.3-0.3-0.3-0.5-0.3c-0.8,0.3-1-0.8,2.5-0.8c2,0,0.3-1.5,0-1c-0.3,0.5-4.8,0-5.3-0.5c-0.3-0.3-0.5-0.5-0.8-0.5
			c-0.8,0-1.5-1-1-1.5c1.5-0.5,2.3-0.8,2.8-0.3c2.8,2.5,5.8,3.3,2.5,0.8c-1.8-1.3-1.8-1.5,1.5-1.8c1.5-0.3,1.3-0.5-0.3-0.5
			c-2.3,0-1.8-0.5-1-0.5c0.8,0,0.8-0.5,0-1c-1-0.5-0.5-0.8,1-0.8c1.3,0,0.3-0.5-1.3-0.5c-0.8,0-1.3,0-1.3-0.3c0,0-0.3-0.5-0.8-0.8
			c-1.8-1-0.5-1.8,2.8-1.5c1.3,0,1.8-0.8-4.8-0.5c-1,0-0.5-1-1-1c-0.3,0-0.5-0.3-0.8-0.5c-0.5-0.8,2.5-1.3,4.3-0.8
			c1.5,0.5,1.5,0.3,0.3-0.8c-2-1.8-2.8-2.5-2.5-2.5c0.8-0.3-1.5-2.8,0-2.8c0.5,0,1.8-0.5-2-0.5c-3,0.3-5.6-1-4-1.8
			c1-0.5,3-0.5,3.5,0.3c0.8,1,1.8,0,1.3,0.5c-0.5,0.8,1.8,0.5,0-0.5c-1-0.5-1-1,0.3-1c1.8-0.3,1.3-0.8-0.5-0.5
			c-1.8,0.3-1.8,0.3-1.5-0.5c0.3-0.5,0-0.5,0-0.3c-0.3,0.3-0.5,0.3-1.5-0.5c-1.3-1-1.3-1.3,0.3-1.3c4.3,0,2.8-2,2.3-1
			c-1,1.8-13.4-2.8-4-2.8c2,0,0.8-0.3,2.3-0.5c0.8,0,0.8-0.3-0.3-0.3s-4-1.8-4-2.3c0-0.3,2.3-0.8,2.5-0.8h-1.8
			c-2.5,0-1.8-0.5-3.5-1.5c-0.8-0.3-0.8-0.5-0.5-0.8c0.8-0.5,3.3-0.8,3.5-0.3c0.8,1,1.5-1,0.5-1s-2.3-1.8-3-1.8
			c-1,0-1.3-0.5,3.5-1.8h-1.8c-3.3,0-3.8,0-4.6-0.8c-0.3-0.3-0.8-0.8-1-0.8s0-0.3,0.5-0.5c1-0.5,3.8-0.5,3.8,0
			c0,0.3,0.3,0.3,0.5,0.3c0.3,0,1.5,0.3,2.5,0.8c1,0.5,2.3,1,2.5,1s0.8,0.3,0.8,0.3c0.3,0.5,2.3,0.3,2.8,0.3l-1-0.8
			c-1.3-1-0.8-0.3-2.5-1.5c-1.3-0.8-2-1-2.8-1l0.8-0.3c1.3-0.5,0.5-0.8-1-0.5c-0.8,0-1.5,0.3-1.5,0c0-0.3-2.3-1.3-2.5-1.3l2.3,0.3
			c2.3-0.8,3.3-1,4-1c0.8,0,2-1,2.8-1c0.8,0,2.8-0.8,4.3-1.3c1.5-0.3,5.8-1.5,8.1-2.3c1.8-0.5,0-1.8,10.1-2.3
			c4.6-0.3,4.8-0.3,7.1-1.3c1-0.5,7.8-0.8,7.8-0.5c0,0.3-2.8,2.5-3,2.5c0,0-0.5,0.3-0.8,0.5c-0.5,0.5-1.3,0.5-0.8,0
			c0.3-0.3,0-0.3-0.3,0s-0.3,0.5-0.3,0.5c0,0.3-0.5,0.8-1,1.3c-0.8,0.5-1.3,1-1.3,1.3c0,0.3,0,0.3-0.3,0.3s-3.3,3-4,3.3
			c-0.8,0.3-0.5,1,1,0c1.3-0.8,1.5-0.8,4.3,0.8c1.5,0.8,1.8,0.5,0.5-0.8c-0.8-0.8-1.5-1.3-1.5-1.3c-0.5,0,0-0.8,0.8-1.3
			c1.8-1,3.3,0.8,4.3,1.3c1,0.3,0.5-0.3-0.5-1c-0.5-0.3-1-0.8-1-1c0-0.8-1.8-0.3-0.3-1.3c0.8-0.5,1-0.5,2.5,0.3c2,1,2,1,1.8,0.3
			c-0.3-0.3-0.5-0.5-0.8-0.5c-0.3,0-1.3-1-1.3-1.3c0-0.8,1.8-1,3-0.3c1.5,0.8,1.8,0.5,0.5-0.5c-1.5-1.5-1-2,1-1
			c1.3,0.8,1.5,0.3,0.5-0.8c-0.8-0.8,0-1.8,1-1.8c0.8,0,2.5-1.5,2.8-2c0.3-0.8-2.3-1.3-3.3-0.8c-0.5,0.3-1.5,0.8-2.3,0.8
			c-6.1,0.8-8.1,1.5-11.1,1c-1.5-0.3-3,0.3-7.3,1c-11.1,2.3-13.7,2.5-14.2,2.3c-0.3-0.3-0.3-0.3-0.8,0c-0.3,0.3-0.5,0.5-0.8,0.3
			c-0.3,0-0.5,0-0.5,0.3s-2.3,0.8-7.8,2c-5.8,1.5-5.8,1.3-6.6,1.8c-3,1-3.3,1-4.3,0.3c-1.3-0.8-1.3-0.8,1.5-1c1.8-0.3,2.3,0,2.3,0.3
			c0,0.3,0,0.3,0.3,0c0.5-0.8,1.5-0.3,1.5-0.8s-2.3,0.3-3-0.8c-0.5-0.8-1-0.3-1.3-1c-0.3-0.5,0.5-0.8,1.5-0.8c0.5,0,0.8,0,0.8-0.3
			c0-0.3-2.5,0-2.8-0.5c0-0.3-0.5-0.3-0.8,0c-0.5,0.3-2-1-1.8-1.3c0.3-0.3,5.3-0.8,0.5-1c-2.3,0-2.5-0.5-4.6-1.8l1-0.3
			c0.8-0.3,1.3-0.3,2.5,0.8c1.8,1.3,2.3,1,0.8-0.3c-1.8-1.8,0.3-0.5,0.8-1.3c0.3-0.3-0.3-0.3-1-0.3c-1.8,0.3-3.5-1.3-2.5-2
			c0.5-0.3,0.5-0.5-0.5-0.5c-0.8,0-1.3,0-1.3-0.3c0-0.5-3.3-2-1-2c0.8,0,0.8-0.8-0.8-0.5c-0.8,0.3-1.3,0-1.8-0.5
			c-2.3-2-5.1-2.8-3-0.8c2.5,2.5,0,0.8-0.5,1.5c-0.3,0.5-1.8-0.5-1.8,0s1.3,1.8,1.8,1.8c0.8,0,0.5,0.5-0.3,0.8
			c-1.3,0.5-0.3,1.5,1.5,1.5c1.5,0,1.8,0.5,0.8,0.8c-1,0.3-1.8,0.3-2.8-0.3c-1.5-0.8-2.3-0.5-1.3,0.5c0.5,0.5,0.5,0.5-0.3,0.5
			c-1,0-0.8,1,0.3,1c1.5,0,1.3,0,3.5,1.3l-2,0.3c-3,0.3-2.5,1.3-3.3,0.3c-0.3-0.3-0.8-0.5-1-0.5c-0.3,0-0.5-0.3-0.5-0.3
			c0-0.3-0.5-0.5-0.8-0.5c-1-0.3-3.5-1.5-6.1-3.3c-4.8-3-4.6-1-4.3-9.9c0-2.3-0.8-1.8-0.5-3.3c0.3-1.5-0.3-0.3-0.3-2.3
			c0-0.8,0-1.3,0.3-1.3c0.3,0.3,0.8-0.5,0.5-1c-0.5-0.5-0.5-3.8,0-4.3c0.3-0.3,0.5-0.8,0.5-1c0-1.3,1.5-0.3,0.5-1.3
			c-1-1,0.5-0.5,0-1.3c-0.3-0.5,0.5-4,0.8-4c0.3,0,0.3-0.3,0-0.5c-0.3-1,0.8-1.3,1-4.6c0-0.8,0.3-1.8,0.8-2.3c0.5-0.5,0.5-1,0.3-1
			c-0.5-0.3-0.5-1.3,0-1.8c0.3-0.3,0.3-1,0.5-1.8c0.3-2,0.8-2.3,0.3-2.8c-0.3-0.3-0.3-0.5,0.3-0.8c0.5-0.3,0.5-0.3,0-1.5
			c-1-2.3,0.5-2.3-1-3.8c-1.3-1-0.3-1-0.5-2.8c0-1.3,0.5,0,0.5-1.3s-0.8,0.3-0.3-2c0.5-3,0.5-5.3,0.8-2.3c0.3,1,1.3,7.1,1.3,7.1
			c0,0.3,0.8,2.8,1,3.5c0.5,0.8,0.3,1.3-0.3,1.8c-0.5,0.5-0.5,0.5,0.3,0.3c0.8-0.3,0.8-0.3,0.5,1c-0.3,1,2.8,4.8,4,4.8
			c0.3,0,0.5,0.3,1,0.8c0.5,0.5,2,1.5-0.5-2.3c-1.8-2.5-3.5-2.8-3.5-4c0-1.3,0.8,0,3.3,1.8l1.5,1c-0.3-0.8-0.8-1.8-2.3-3
			c-0.8-0.8-1.3-1.3-1-1.3c0,0,0-0.3-0.3-0.5c-0.3-0.3-0.8-0.5-1-0.5c-0.5,0-1-1.5-0.8-1.8c0,0,0.5,0.3,0.8,0.5
			c0.5,0.5,3,1.8,3.3,1.8c0.3,0,0.3-1-0.3-1c-0.3,0-0.8-0.5-1-1s-0.8-1-0.8-1c-0.3,0-0.3-1.5-0.5-1.3s-1-1-1.3-0.8s-1-1-1-1.8
			c0-0.3,2.3,0.8,2.5,1.5c0.3,0.5,1.3,0.8,1.8,0.8l-0.8-0.8c-0.8-0.8-2.5-2.5-2.5-3c0-0.3-1.3-1.3-1.5-1.3s-0.3-0.5-0.3-1.3v-1.5
			c1.5,1,4.6,3,3,1.3c-0.3-0.3-0.5-0.8-0.5-1c0-0.3-0.3-0.3-0.3-0.3l-0.3-0.3c0-0.3-0.5-0.8-1-1.3c-0.5-0.5-1-1-0.8-1.3
			c0.3-0.3,1.3-0.3,1.3,0c0,0.3,1,0.8,1,0.5c0.3-0.3-1-2-2.3-3.5c-1-1,0-0.8,0.3-0.5c0.3,0.5,1.5,0.5,1.5,0c0-0.3,0-0.3-0.3-0.3
			s-1.5-2.3-0.8-2c1,0.3,1.5,0,1-0.8c-0.5-0.5-0.8-2.8-0.5-4c0.3-1.3-0.5-3-1.3-2.3c-0.3,0.3-0.8,0.5-0.8,0.5s-0.3-0.5-0.5-1
			c-1-1.8-2.3-1-1.8,1c0.5,1.8,0,9.1-0.8,10.1c-0.5,0.5-0.5,1.8-0.3,2.3c0.3,0.3,0,0.5,0,0.8c-0.5,1-0.5,1.8-0.5,2.3
			c0.3,2-0.8-0.3-0.3,1.8c0.3,0.8,0.3,2.5-0.3,2.3c-0.5-0.3-0.3,0.3,0.3,1c0.3,0.3,0.5,0.5,0,0.8c-0.5,0.5-0.3,2.5-1,3.3
			c-0.3,0.3-0.5,1.3-0.5,2s-0.3,1.8-0.3,1.8s0,0.3,0,0.5c0.5,0.5,0.5,1.8,0,2.3c-0.5,0.3-0.5,0.5,0,0.8c0.5,0.3,0.3,6.1-0.5,8.1
			c-0.8,2,0,2-0.5,2.8c-0.8,0.8,0.5,0.8,0.3,2c-0.3,1.5-0.8,4-1.3,4.3c-0.8,0.5,0.5,0.3,0.5,1c0,0.3-0.3,0.3-0.3,0
			c-0.5-0.3-0.5-0.3-1,7.3c-0.3,2-0.5,3.3-0.8,3.8c-0.3,0.3-0.3,0.8-0.3,0.8c0,0.3-0.3,0.5-0.5,0.5c-0.8,0.3-0.8,0.3,0,0.8
			c0.8,0.5,0.3,0.3-0.5,3l-0.5,1.8c-0.3-0.3-1.3-1.3-1.8-1.3c-0.3,0-0.3-0.3-0.3-0.5s-1-0.8-2-1.5c-3-1.5-3.5-2.5-4.3-2.5
			c-0.3,0-0.8,0-0.8-0.3c-0.3-0.3-3.3-2.5-3.5-2.5s-0.3-0.3-0.5-0.5c0-0.3-0.3-0.5-0.5-0.5c-1.3,0-2.8-1.3-2.5-2.3
			c0-0.3,0-0.5-0.5-0.5c-1.3,0,0-2-2,0c-0.8,0.8-1,0.8-1.3,0.5c-0.5-0.3-0.5-0.3-0.3,0.5c0.8,3-3.5,2.3-4,3.3c0,0.3-0.3,0.3-0.5,0.3
			s-1.3,0.5-2.3,1c-2,1.3-2.8,1-2.8-0.5c0-2.5-4,0-4,2.5c0,1-2,2.3-2,3s-1,1.5-1.3,2.5c-0.8,3.8-2.3,4.8-3.5,2.3
			c-0.8-1.3-0.8-1.5-3-3.5c-3.5-3.5-2.5-3.8-4-6.8c-0.5-1-1-2.3-0.8-2.5c0-0.3,0-0.5-0.3-0.3c-0.5,0.3-0.5-0.8-1.5-1.8
			c-1-1-0.3-1.5-1-2.3c-0.8-0.8,0-1.5-1.3-2c-1-0.5-0.3-0.8-1.3-1.3c-1.3-0.8,0-1.8-1.3-1.8c-1,0-0.5-0.5-1-0.5
			c-0.5,0-1.3-1.3-2-1.3c-0.5,0-0.3-1-0.8-1s-0.3-1-0.5-1c-0.3,0-0.3-0.3-0.3-0.3c0-0.5-1.8-4.3-2.3-4.3c-0.3,0-0.3-0.3-0.3-0.8
			c0-0.5-0.3-1-0.5-1.3c-0.3-0.3-0.8-1-1-1.5s-0.5-1-0.8-1c-0.5,0,0-1-0.5-1.5c-0.5-0.3,0.3-1-0.5-1s-0.3-1.3-0.8-1.3
			s-1-1.5-1.3-1.8c-0.5-0.5-1.5-2.3-1.5-2.5s2.5,1.5,3.5,2.5c1.3,1.3,0.8,0.3,2.5,1.8c1.3,1.3,2.3,2,5.3,4.3c6.8,5.6-3-4-3-4.6
			c0-0.3-2-1.8-3-2.5c-0.3-0.3-0.5-0.8-0.8-1c-0.3-1.5-1.5-0.5-1.8-1.5c0-0.3-0.3-0.5-0.5-0.5c-0.5,0-2.5-1.5-4.6-3.5
			c-2.5-2.5-2.3-1.5-4-3.3c-1-0.8,0-1.5-2.3-1.5H29c0.3,1.3,0.3,1.8,2,3.5c1,0.8,1.8,1.8,1.8,2s0.3,0.3,0.5,0.3c0.5,0,0.8,1,1.8,2
			c3,3.3,3.8,5.6,5.1,7.3c0.5,0.8,0.5,1,0.3,1.3c-0.3,0.5,0.8,3,1.5,3.8c0,0,1.8,3.5,3.3,5.3c1,1.3,1,1.5,0.3,1.8
			C44.9,58,44.9,58,45.9,58c2,0.3,1.8,1.3,3.3,2.8c0.8,1,4.8,10.4,5.3,10.4c0.3,0,0.3,0.3,0.3,0.5c0,0.3,0.3,1,0.8,1.3
			c0.5,0.5,0.8,1,0.5,1.3c0,0.3,0,0.5,0.3,0.5c0.5,0,1.5,1.5,1.5,2c0,0.3,0.5,1,1,1.5c1.3,1.3,2.3,3.3,2.3,4c0,0.3,0.3,1,0.5,1.3
			c1,1,0.5,1.5,1,2.3c0.3,0.3,0.5,0.5,0.5,1c0,0.3,0.5,1.5,1.5,2.5c0.8,1.3,1.5,2.3,1.5,2.3c0,0.3-2.5,5.6-3,5.8
			c0,0-1.3,3.3-4.3,9.9c-7.1,14.9-8.6,21.8-10.9,22.8c-0.8,0.3-0.8,0.5-0.3,0.5c0.8,0.3-1.3,1.3-2.3,1.3c-0.8,0-0.3,0.5-1,0.5
			c-1.5,0-10.1,5.3-10.4,5.3c-1,0.5-1.5,1-2,1.8c-0.5,1-1.8,1.5-2,1c-0.3-0.3-0.3-0.3-0.8,0c-0.3,0.3-1,0.8-2,0.8
			c-1.5,0.3-9.1,2.3-11.1,2.3c-1,0-5.1,0.5-5.3,0.5s-0.5,0-0.8,0.3c-0.5,0.5-3.3,0.3-4.3-0.3c-1.3-0.8-2.8,0-2.5,1
			c0,0.8,0,1-1.3,1.5C-1.9,149.4,0.6,150.4,4.7,149.6z M65.9,162.8c0-0.5,0.5,0,0.8-1c0.3-0.5,1-1,1.3-1
			C68.2,161,65.9,163.3,65.9,162.8z M187.4,197.5c0.3-0.3,1,0,1.3,0.8c0,0.3,0,0.8,0,0.5C188.2,198.7,187.1,197.7,187.4,197.5z
			 M77.8,200.3c-1.8,0-0.5-8.4-0.3-6.6C78.3,198.7,78.3,200.3,77.8,200.3z M78.6,207.1c-0.3-0.8,0-0.8,0.5-0.5
			c0.3,0,0.5,0.5,0.5,0.5C79.6,207.9,78.8,207.6,78.6,207.1z M80.8,204.6c-0.5-0.8-0.3-1.5,0.3-1.3c0.5,0.3,0.5,2.3,1,3
			c0.3,0.5,0.3,0.8,0.5,2.5c0.3,0.8,0,1.3,0,1.3c-0.8,0-1-0.8-1.3-2.8C81.3,206.1,81.1,204.8,80.8,204.6z M120.3,222
			c-0.8-0.3-0.3,0.5-1.3,0.5c-0.5,0-0.8,0.3-1,0.5c-0.3,0.5-1.8,0.8-3,0.8c-0.3,0-0.8,0.3-1,0.5c-0.5,0.5-2.8,1.3-3.3,1
			c-0.3,0-0.5,0-0.5,0c0,0.3-1,0.5-2,0.5c-2.8,0.3-3.3,0.5-4.8,0.5c-1.8,0.3-1.8,0.8-2.8,1c-3.8,0.5-7.3,2.3-8.9,1.3
			c-1-0.8-4.6,0.5-6.1-2.5c-0.3-0.3-0.8-0.8-1-0.8c-0.8,0-1-0.5-0.8-1c0.5-0.8-2-4.6-1.8-5.8c0-0.3,0-0.5-0.3-0.5
			c-0.5-0.3-0.5-0.8,0-0.8c0.3,0,0.3,0.3,0.3,0.5c0,0.3,0.3,0.5,0.5,0.5c1.3,0.3,1,3.8,3,6.1c0.3,0.5,0.8,1.3,0.8,1.8
			c0,0.5,0.3,1,0.5,0.8c0.3-0.3,0.3-1.8,0-2.3c-0.3-0.3-0.3-1-0.5-2.3c-0.3-3.5,0,0.8,1,0.8c1.3,0,1.5,3.8,2.3,3.3
			c0.5-0.5-0.5-1.5,0-2.3c0.5-0.8-0.8-0.5-0.8-1.3c0-0.3,0-0.3,0.5,0c0.5,0.5,0.8,0.3,0.5-0.8c-1-3.3-1.8-7.3-1.3-7.1
			c0.3,0,0.3-0.3,0.3-1c0-1.5,0.5-1,0.8,0.8c0,0.8,0.5,2,0.8,2.5c1,2.3-1,0.8-0.3,3.8c0.5,2,0.8,3.3,1,3.3s0.3,0.5,0.5,1
			c0.5,2,0.8,1,0.5-1.8c0-3.8-0.3-3.8-0.5-4.8c0-0.5-1.5-4.3-1.5-5.8v-0.8c0.3,0.5,0.8,2,1.3,2c0.3,0,0.3-0.5,0.3-1
			c-0.3-1-0.3-1,0.3-0.3c0.5,1,0.3,1.8,1,4c0.8,2.3,0.3,3.3,0.8,4.8c0.3,0.8,0.3,1-0.3,1.3c-0.5,0.3-0.5,0.3,0.3,0.5
			c0.5,0.3,0.8,0.5,1,1.8c0.5,1.8,1,2,1,0.8c0-1.5,1-1,0.3-2.3c-0.8-1.3-0.3-3.3-1-4c-0.8-0.8,0-2.5-0.5-3c-0.3,0-0.3-0.3-0.3-0.5
			c0-0.3,0-0.8-0.3-1.3c-0.5-1-0.5-2.8,0.3-1c0.5,0.8,0.8,1,0.8,0.8c0.3-0.3,0.3-0.3,0.3,0.3c0,1.3,1.3,0.5,0.8,2
			c-0.3,0.5-0.3,1,0,1s0.3,0.3,0.3,0.5s0,0.5,0,0.8c0.8,1,1,3,0.5,3.5c-1.5,1.5,0.8,0,1,1.3c0.3,1,0.8,0.8,0.8-0.3
			c0-2.3,2-2.5,2.3-0.5c1.3,5.3,1.3-4.8-0.5-6.8c-0.8-0.8-0.8-2-1-2.8l0.8,0.8c0.5,0.3,0.8,0.8,1,0.8c0.8,0,2,4.3,1.5,5.3
			c-0.5,1.3,0.5-0.3,1,1.5c0.8,4.6,2.3,2.5,1.5,2c-0.5-0.8,0.5-4.6-1.8-6.6c-1.3-1,1.3-0.5,2.5,3.8c1.5,5.3,1.3-1.3,0.5-2
			c-0.5-0.5-0.5-0.5,0.5-0.3c0.5,0.3,1,0.5,1.3,0.8c0.3,0.3,0.3,0.5,0.5,0.3s1.5,0.5,1.5,1c0,0.3,2.3,5.1,1.5,1.5
			c-0.5-2.5-0.8-2,3.8-1.5c1.5,0.3,1.5,0.3,1,0.5c-0.8,0.5-0.3,0.5,1.5,0c0.8-0.3,2-0.5,2.8-0.5l1.5-0.3
			C121.3,221.5,121.1,222.3,120.3,222z M83.6,213.2c0,2,3.8,8.6,2,7.1c-0.5-0.3-0.5-0.3-0.8,0c-0.3,0.8-0.8,0.5-0.8-0.5
			c0-1-2.5-9.9-1.3-8.9c0.3,0,0.3,0.5,0,0.8C82.9,212.2,83.6,212.4,83.6,213.2z M93.2,212.7c0,0.3-0.3,0-0.5-0.8
			C91.7,208.9,93.5,211.7,93.2,212.7z M93.5,192.4c0.5,0,1.5,9.1,2,11.1c0,0.3,0,0.5,0,0.5c-0.3,0-1.5-5.6-1.8-7.8
			C93.5,193.4,93.2,192.4,93.5,192.4z M98.1,215.2c0,0.3,0.3,0.5,0.3,0.5c0.5,0,0,0.5,0.5,1.5c1,2,1.3,4.6,0.3,4.6
			c-0.3,0-0.5,0.3-0.5,0.3c0,0.3-0.5,0.5-0.5-0.3c0-2.8-1.3-6.1-1.3-7.6v-0.8l0.5,0.8C97.8,214.4,98.1,214.9,98.1,215.2z
			 M98.8,206.6c0,0.3,0.3,0.8,0.3,0.8c0.3,0,0.5,1,0.8,2.8c0,0.5,0.3,1.3,0.5,1.5c0.3,0.3,0.3,0.8,0.3,0.8s-0.3,0-0.3-0.3
			c0-0.3-0.3-0.5-0.8-0.5c-1.8-0.3-1.3-3.8-1.8-5.6C97.5,204.6,98.8,204.8,98.8,206.6z M131.5,218.2c-0.8,0-2.5,0-3-0.3
			c-0.3-0.3-0.5-0.3-0.5,0c-0.3,0.5-0.3,0.5-1,0.3c-1-0.3-0.3-3.8,0.8-3.8c0.3,0,0.3-0.5,0.3-1.3c0-2.3,0.5-1.5,0.5,0.8
			c0,3.5,0.3,4,0.5,4.3c0.8,0.3,0.3-3,1.5-3.5c1-0.5,1.3-0.3,0.8,0.5c-0.3,0.5-0.3,0.5,0,0.8c0.3,0,0.5,0.8,0.5,1.5v0.8H131.5z
			 M128.2,208.6c0.3,1-0.3,2.8-0.3,1.3c0-0.5,0-1.3-0.3-1.8C127.4,206.6,127.9,207.6,128.2,208.6z M131,209.9
			c0.3,0.3,0.3,3.5,0.3,3.5C130.4,213.4,130.4,209.6,131,209.9z M133.2,218.5c-1.5,0,0-7.8,0-4c0,1.3,0.5,0.5,0.5-0.5
			c0-1.8,0.3-2,0.5-2c0.5,0,0.8,2.8,0.3,3.5c-0.3,0.3-0.3,0.8,0,0.8c0.5,0.5,0.3,2-0.3,2C133,218,134.2,218.5,133.2,218.5z
			 M158,160.5c0,0.8-2.8,0.3-3.8-0.5c-1-1-0.8-1.3,1.5-1C157,159.3,158,159.8,158,160.5z M156.3,156c0-0.5,1.3-0.3,1.5,0.3
			c0,0.3,0.3,0.8,0,0.8C157.5,157.2,156.3,156.2,156.3,156z M161.3,186.8c-0.8-0.5-0.8-0.8,0.3-0.8c0.8,0,2.8,0.8,2.8,1
			C164.4,187.6,161.8,187.4,161.3,186.8z M164.4,190.6c0,0.3-3.3,0.3-3.5,0c-0.5-0.5-0.3-1.3,0.5-1.3
			C161.8,189.4,164.1,190.1,164.4,190.6z M158.8,181.3c-0.8-0.3-0.8-0.8,0.3-0.8c0.5,0,1,0,1.5,0
			C162.1,180.3,161.3,181.8,158.8,181.3z M134.8,110.4c1-0.3,1.3,0,2,0.5c1.8,1.5,2.3,1.5,1.5,1.5c-3,0.3-3.5,0.3-4.6-0.8
			C133,110.9,133,110.7,134.8,110.4z M130.4,109.1l1.3-0.5c0.8-0.3,1.5-0.5,1.5-0.5c0.3,0,1.3,1,1,1
			C134.2,108.9,130.7,109.1,130.4,109.1z M146.6,139.5c0.8,0,2.3,0.5,2.3,0.8C148.9,141,145.4,139.8,146.6,139.5z M151.7,147.1
			c0.5,0.8,0.3,0.5-0.8,0.3C144.9,145.6,150.4,144.3,151.7,147.1z M147.2,131.4c-1.3-0.3-1.3-1,0.3-1c0.8,0,1.3,0.3,1.5,0.5
			C149.2,131.4,148.2,131.7,147.2,131.4z M143.4,124.3c0-0.3,2.8-0.5,3.5,0c0.8,0.3,0.3,1,1,1c0.3,0,0,0.3-1,0.3
			C145.6,125.6,143.4,124.8,143.4,124.3z M143.9,128.6c-0.3-0.5-1.5-0.3-1.5-0.5c0-0.5,1.8-0.5,2.5,0
			C146.4,128.6,144.4,129.1,143.9,128.6z M143.4,118.3c-0.3,0.3-1.8-0.8-1.5-1c0.5-0.5,3-0.3,3.5,0.5
			C146.4,118.8,144.1,117.7,143.4,118.3z M138.3,115c-0.8-0.8-0.3-1,1.5-0.8c1.3,0,2.5,0.8,2.5,1C142.3,115.7,138.8,115.5,138.3,115
			z M137.8,117.7c1,0,2.5,0.8,2.3,1c-0.8,0.5-4.6,0.3-4.6-0.5C135.3,118,136.5,117.7,137.8,117.7z M141.1,120.8
			c2.5-0.5,2.3,1.8,1.5,1.8s-1,0.5-2.3-0.5c-0.5-0.5-1-0.8-1-0.5c0,0-0.3,0-0.3-0.3C139.1,120.8,139.3,121,141.1,120.8z
			 M143.1,136.7c0.8-0.3,2,0,2,0.5c0.3,0.5-1,0.5-2,0l-0.8-0.3L143.1,136.7z M144.4,142.8c0.5-0.3,2.3-0.3,2.8,0.3
			c0.5,0.5,0.5,0.5-1,0.5C144.6,143.6,143.6,143.1,144.4,142.8z M150.4,149.9c0.5,0.5,0.5,0.5-0.8,0.5c-0.8,0-1.5,0-1.5-0.3
			c0-0.3-0.5-0.5-0.8-0.5C145.9,149.4,149.7,149.4,150.4,149.9z M153.7,156.7l1,0.8H154c-0.5,0-1.5,0-2,0c-1,0-2.8-0.8-2.8-1.5
			C148.9,155.5,153,156,153.7,156.7z M153.2,162.8c1.3,0,3.3,0.8,3.3,1c0,0.5-3.3,0-4-0.5l-0.8-0.5H153.2z M158,169.9
			c0,0.5-3.3,0.5-3.8,0s-0.5-0.5,1-0.5C156.8,169.1,158,169.4,158,169.9z M159.8,175.5l0.8,0.5h-1.8
			C154.5,176,158,173.9,159.8,175.5z M162.6,177.5c1,0,1.5,0.8,0.8,1C160.8,179.3,159.6,177.5,162.6,177.5z M157.5,171.9h1.8
			c1.5,0,4,0.5,4,1.3C163.4,173.4,160.3,173.7,157.5,171.9z M160.3,166.9c0,0.3-0.3,0.3-0.3,0.3c-0.3-0.3-2,0.8-2.5,0
			c-0.3-0.3-0.5-0.5-0.8-0.5c-0.5,0-0.5-0.5,0-0.8c0.3,0,0.8,0,1.5,0C159,165.6,160.6,166.3,160.3,166.9z M158.5,163.6
			c-1.3-0.8-1.3-1,0.3-1c1.3,0,2.5,0.8,1.8,1.3C160.3,164.1,159.6,164.1,158.5,163.6z M153,153.4c-0.5-0.3-1-0.5-1.3-0.5
			s-0.5-0.3-0.3-0.3c0.3-0.5,2.8-0.3,2.8,0.3c0.3,0.5,0.8,0,1.3,0.8C156,154.2,153.7,154.2,153,153.4z M154.5,139.5
			c0.3,0,0.8,0.3,0.8,0.5c0.3,0.8-0.3,0.8-0.8,0.3C153.7,139.5,153.7,139.5,154.5,139.5z M152.2,135.7c0.8-0.5,3.3,0,4,0.8l0.8,0.8
			C153,137.2,152,136,152.2,135.7z M151.2,133.2c0.3,0,1,0,1.3,0.5l0.8,0.5C150.4,133.9,150.4,133.4,151.2,133.2z M146.9,127.4h1.8
			c1.8,0,4.3,0.3,4.3,0.8C153,128.6,149.9,128.9,146.9,127.4z M147.4,121.5c0-0.3-0.3-0.5-0.5-0.5c-1.8-0.3-1.8-1-0.3-1.3
			c1.3-0.3,1.5-0.3,1.8,0.3c0.3,0.3,0.8,0.8,1.3,1s0.8,0.5,0.8,0.5C150.4,122.1,147.4,122.1,147.4,121.5z M145.9,114.7
			c-1,0.5-3.5-1-1.5-1.3c1.5,0,2.3-0.3,3.5,0.5l1,0.5l-1,0.3C146.4,115.2,147.2,114.2,145.9,114.7z M139.8,111.2
			c-1.3-0.8-1-1.3,0.5-1.3c1.3-0.3,1.5,0,2.3,0.5c0.5,0.5,1,0.8,1.3,0.8c0.3,0,0.5,0.3,0.8,0.5C145.4,112.4,141.1,111.9,139.8,111.2
			z M138,108.6c-1.5,0-1.8,0-1.5-0.8c0-0.3-0.3-0.3-0.5-0.3s-0.5,0-0.8-0.3c-0.3-0.8,3.8-0.8,4.3,0.8
			C139.6,108.6,139.3,108.6,138,108.6z M136.3,96.5c1.5,0,2.3,0.3,2.3,0.5C138.8,98.5,132.5,96.5,136.3,96.5z M135.8,100.3
			c0.3,0.3,0.8,0.5,1,0.5s0.5,0,0.5,0.3c0,0.8-3,0.5-4.6-0.3c-1.5-0.8-1.3-1.3,0.8-1.3C134.8,99.5,135.3,99.8,135.8,100.3z
			 M131.2,104.3c0-0.3-0.3-0.5-0.8-0.5c-1.3-0.3-0.5-0.8,0.8-0.8C135.8,103.1,131.2,105.1,131.2,104.3z M131.7,112.7
			c0.8,0.5,0.3,0.8-0.8,0.5c-0.5-0.3-0.8-0.3-0.8,0c0,0-0.3,0-0.5-0.3c-0.5-0.5-0.5-0.5-0.3-0.8
			C130.4,111.2,130.2,111.9,131.7,112.7z M136,115.7c0,0.5-3.3,0.5-3.5,0c0-0.3-0.5-0.3-0.8-0.3C129.4,115.5,136,113.7,136,115.7z
			 M137.5,122.1l1,0.8H137C131.5,122.8,135,120,137.5,122.1z M137.3,128.1c0.8-0.5,1.8-0.3,2.8,0.3c0.8,0.8,0.5,1-1,0.8
			C137,128.9,136.8,128.6,137.3,128.1z M139.3,124.6c0.8-0.3,2.3,0.3,2.5,1C142.1,126.6,136.8,125.3,139.3,124.6z M143.4,140.3
			c0.5,0.5,0.5,0.5-1,0.5C139.1,140.8,142.1,138.8,143.4,140.3z M143.6,145.8c0.8-0.3,2,0.5,2,1s-1.5,0.5-1.5,0
			c0-0.3-0.3-0.3-0.5-0.3C142.9,146.6,142.9,146.1,143.6,145.8z M150.2,154.2h-1c-1.5,0-1.8-0.8-2.5-0.5c-0.5,0.3-1-0.3-1-0.8
			C145.6,152.4,146.9,152.2,150.2,154.2z M149.7,159.5c1.5,0.3,2,0.8,1.3,1.3c-0.5,0.5-0.8,0.5-1.5,0
			C147.7,160.3,147.9,159.3,149.7,159.5z M154.5,167.4H153c-1.5,0-1.8,0-1.8-0.8C151.2,166.1,152.2,165.6,154.5,167.4z M155.5,172.9
			c0.8,0.8-1,0.5-1.5,0C153.2,172.2,155,172.4,155.5,172.9z M157.8,178.5l1,0.5h-1.5C154,178.7,156.3,177.7,157.8,178.5z M159,184.1
			c0.8,0,1,0.5,0.5,0.5c-1,0-1.3-0.3-1.3-0.8C158,183.1,158,184.1,159,184.1z M163.4,206.6c-0.3,0-0.5,0.3-0.5,0.8
			c0,0.5-0.8,2.8-0.5-0.5c0-7.3-2.8-6.8-1.5-5.6c0.5,0.5,0.8,7.3,0.3,7.8c-0.3,0-0.3,0.5-0.3,0.8c0.3,0.8-0.8,1.5-1.5,2l0.3-2
			c0.3-2.3,0.3-7.3,0-9.6c0-0.8,0-1.5,0.3-1.5c0.5,0-0.3-0.5,0.5-0.5c1.5,0,1.8,1,1,0.8c-0.8-0.5-0.3,0.8,0.5,1.5
			c0.5,0.5,0.8,1,1,1.8c0,1.8,1,1.5,0.8,3c0,0.5,0,1,0,1c0.3,0,0.3,0.3,0.3,0.3C163.9,206.6,163.6,206.6,163.4,206.6z M166.9,209.9
			c-1.3,0.5-2.3,0-1.8-0.8c0.3-0.3,0.5-0.3,1.3,0C167.1,209.6,167.4,209.6,166.9,209.9z M168.9,206.3l-1,0.3c-1,0.3-2-0.3-2-0.8
			C166.1,204.6,168.2,205.8,168.9,206.3z M166.1,201.3c0.8-0.3,2.5,0.3,2.5,0.8c0,0.5,1,0.3,1.3,0.5c0.3,0.3-3.8,0.5-4.6,0
			C164.6,202.3,165.1,201.5,166.1,201.3z M166.9,196.7c-0.5,0-2.8-0.3-3.3,0c-0.5,0.3-1.3-0.5-1-1.3c0.3-0.8,2-0.5,3,0.3
			L166.9,196.7z M169.7,193.4c-5.3,0-4.8,0-6.6-1C167.4,191.4,166.1,191.9,169.7,193.4z M170.7,190.6c0.3,0.3-0.3,0.3-0.5,0
			c-0.5-0.3-4.6,0.3-5.3-1.8C164.6,188.1,168.9,189.4,170.7,190.6z M167.7,184.3c0,0.5-4.8,0-5.3-0.5c-0.8-0.8-1.5-0.3-0.8-1
			C162.1,182,167.7,183.6,167.7,184.3z M168.4,181c-0.5,0.5-3,0.3-3.8-0.3c-2.3-1.3,0.5-0.5,1.8-0.8
			C166.6,179.8,168.7,180.8,168.4,181z M170.7,180.8c0,0.8-1.3,0-1.3-1C169.4,179,170.9,179,170.7,180.8z M169.4,178
			c0,0.5-2.5,0.3-3.3-0.3l-0.8-0.5h1C168.4,177,169.4,177.5,169.4,178z M167.4,176c-4,0-3.8,0-5.6-1
			C164.9,174.2,165.1,174.2,167.4,176z M167.9,167.1c-0.8,0.5-1,0.3-1.8-0.8C164.1,163.8,168.7,166.9,167.9,167.1z M165.4,172.4
			c-1.5-0.8-1.8-1.3-0.5-1.3C166.1,171.4,168.7,174.4,165.4,172.4z M165.1,170.1c-0.3,0-6.3-0.3-4.3-1.5
			C162.6,167.6,165.4,170.4,165.1,170.1z M164.6,160.5c-1,0-1.5-0.5-1.5-1.3c0-0.3,1-0.3,1.3,0.3
			C164.6,160.3,166.4,160.5,164.6,160.5z M162.8,155.2c0.8,0,1.3,0,1.5,0c0,0.3,0.3,0.3,0.5,0.3s1,0.5,1.5,1l1,1
			c-2.8,0.3-3.5,0.3-3.8-0.3c-0.3-0.3-0.5-0.5-0.8-0.5C161.6,156.5,161.3,155.5,162.8,155.2z M161.8,149.4c0.3,0.3,0.5,0.5,0.8,0.5
			s0.5,0.3,0.5,0.3c0,0.3-0.5,0.5-0.8,0.3c0,0-0.8-0.3-1.5-0.3c-0.8,0-1.3-0.3-1.5-0.5c0-0.3-0.5-0.5-0.8-0.5
			C157.8,149.4,160.8,147.9,161.8,149.4z M156.3,143.1c-1-0.3-1-0.8,0.3-1.3c0.8-0.3,3,0.8,3,1C159.6,143.3,157,143.3,156.3,143.1z
			 M161.8,141.3c1.5,0,2.3,0.5,1.8,1c-0.3,0.3-0.3,0.5-0.3,0.8c0.5,0.5-1,0.3-2.3-0.5C159.6,141.8,159.8,141.3,161.8,141.3z
			 M160.6,139.5c0,0.3,0.3,0.5,0.8,0.5c1,0.5-2,0.3-3-0.3c-1.8-0.5-1.8-1-0.3-1.3C159,138.5,160.6,139,160.6,139.5z M159,133.9
			c-2.5,0-1-0.3-2.8-0.3c-1.3,0-2.3-0.8-1.8-1C157.3,131.2,163.9,134.2,159,133.9z M158.8,129.1c0.8,0,1.3,0.5,1.3,1.8
			c0,0.5-0.8,0.5-1,0c0-0.3-0.5-0.5-1-0.8C156.8,129.6,157.3,129.1,158.8,129.1z M157.5,131.4H155c-3.8,0-5.1-0.8-2-1.3
			C155,129.4,154.7,129.6,157.5,131.4z M152,123.3c0.8-0.3,1-0.3,2,0.5c0.5,0.5,1.5,1,1.8,1.3c0.5,0.3-1.5,0.5-3,0.3
			c-1.3-0.3-3-1.5-2.5-1.8c0.3,0,0.5,0,0.8,0C151,123.6,151.5,123.6,152,123.3z M149.2,116.2c1.8-0.5,2-0.3,4.3,1.5
			c0.8,0.8-4.6,0.3-5.6-0.3c-0.8-0.5-1-1-0.5-0.8C147.4,116.5,148.4,116.5,149.2,116.2z M150.4,110.7c1,0.3,1,0.8,0,0.8
			c-0.5,0-1.3,0-1.8,0c-2,0.3-2.3-1.8-3.3-1.8s0.3-0.8,1.5-0.8C149.4,108.9,148.4,110.2,150.4,110.7z M147.9,104.3
			c0.8,0.5,0.5,0.3-2.3,0.5C142.3,105.1,146.6,103.6,147.9,104.3z M144.6,106.6c0,0,0.5,0.5,1,0.8l1,0.8c-1,0-3.5,0-3.5-0.3
			c0-0.3-0.3-0.3-0.5-0.3c-0.5,0-1.8-0.3-1.8-0.8C140.8,106.6,144.6,106.1,144.6,106.6z M144.1,96.2c0.5,0.5,1,0.8,1.3,0.8
			s0.3,0,0.3,0.3c-0.5,0.5-4,0.3-5.1,0c-1.3-0.8-1-1.3,0.5-1.3C143.1,96,143.1,95.5,144.1,96.2z M141.1,94.2l1,0.8h-2.3
			C133.5,95,139.1,92.2,141.1,94.2z M138.3,88.6c1.3,1,0.3,0.8,0,0.5c0-0.3-0.5-0.3-0.8-0.3C134.2,88.6,135.5,86.4,138.3,88.6z
			 M132.5,85.3c0.3,0,0.8,0,1,0s0.8,0.3,1.3,0.8c0.8,0.8,0.5,1-1.3,0.5C132.5,85.9,132,85.3,132.5,85.3z M133.2,90.9
			c0.3,0,1,0,1.8-0.3c1.3-0.3,1.5,0.3,3.3,1.5h-2C134.2,92.2,131.5,90.9,133.2,90.9z M132.2,94.5c0.5,0.3,0.8,0.3,1.3,0
			c0.5-0.3,2.5,0,2,0.5s-3.5,0.5-4.3-0.3C130.4,94,131,93.7,132.2,94.5z M131.2,98c-1.3,0-1.8,0.5-3.3-0.5l-1-0.8
			C131.7,97.2,132.7,98,131.2,98z M114.5,88.6c1,0.8,1,0.3,1.5,1.3c0.5,1,1.3,0.3,2,1c0.5,0.8,1.3,0.3,1.8,1c0.5,0.8,1.5,0.5,3,1.5
			c3.3,2.3,4.3,1.8,3.8,2.8c-0.3,0.8-0.3,0.8-3.8-1.8c-0.8-0.5-1.3-0.8-1.5-0.8c-0.3,0.3,1,1,2,2c1,1,2.5,1.8,3.3,2.5
			c0.8,1,1.5,0.5,1,1c-1.3,1.3,1.5,0.3,2.8,2c1,1,2,0.8-0.3,1c-2.3,0.3-1.8-0.3-3.5-1c-0.5-0.3-1-0.5-1-0.5c0-0.3-3-1.5-3.3-1.5
			c-0.3,0.3,1.8,2.3,2.5,2.8c0.5,0.3,0.8,0.8,0.8,1.3c0,0.8,0,0.8,0.8,0.5c1-0.3,3.3,1.5,2.5,2c-1,0.5-0.5-0.3-1.8,0
			c-0.5,0-0.8,0.3-0.5,0.5c0,0.3,0,0.3,0,0.3c-0.3,0-1-1.3-1-1.8c0-0.3-0.3-0.5-0.5-0.5c-0.5-0.3-1.5-2-1.3-2c0,0,0-0.3-0.5-0.8
			c-1-1-1.8-2.3-1.8-3c0-0.3-0.3-0.8-0.5-1c-0.8-0.5,0-1.3-1.3-1.8c-0.5-0.3-0.8-0.5-0.8-0.8s-0.3-0.3-0.3-0.3
			c-0.5,0-1.8-1.3-1.8-1.5c0-0.5-2-2.3-2.5-2.3C112.7,90.4,113,87.4,114.5,88.6z M110.7,78c0-2.5,1,4.6,0.3,4c-0.3,0-0.3,0-0.3,0.3
			c0,0.5-0.5,0.5-1,0C109.2,81.3,110.7,78.5,110.7,78z M110.7,86.9c0,1-0.5,1-1.5-0.3C107.4,83.6,110.7,85.3,110.7,86.9z
			 M109.7,93.7c-0.5,0.8-1.5,0-1.8-1.3c0-0.5-0.5-1-1-1.3c-1-0.5-2.5-3-0.3-1C106.9,90.7,110.2,92.9,109.7,93.7z M107.4,96.5
			c-0.5-0.8-0.8-1.5-1-1.5s-0.5-0.5-0.8-1c-0.3-0.5-1-1.5-1.8-2.3c-0.8-0.8-1.5-1.8-1.8-2.3c-0.3-0.5-0.5-1-0.5-1
			c-0.5,0-3.5-5.6,2.5,1.8c2.5,3,2.3,2.5,3,4.3c0.8,2,1.5,2.3,1.3,3C108.2,97.8,107.9,97.5,107.4,96.5z M107.4,102.6
			c-1.3-3-4.3-8.9-4.3-8.9c-0.3-1.8,1.5,1.5,4,7.1C108.2,103.6,107.9,103.8,107.4,102.6z M102.1,92.7c0-0.5-2.5-2.8-1.5-2.8
			c0.3,0,0.8,0.8,1.3,1.5C103.4,93.7,102.1,93.2,102.1,92.7z M98.1,77.2c0.5,0.5,0.8,0.8,0.8,0.5s1.8,0.8,1.8,1s0.3,0.3,0.3,0.3
			s1,0.5,1.5,1c4.3,3.3,5.1,3.3,4.6,5.3c-0.5,1.8-2.3-0.8-3.5-0.8c-0.5,0,0-0.5-1-0.8c-0.3,0-0.5-0.5-0.5-0.8c0-0.3,0-0.5-0.3-0.5
			c-0.5,0-0.8,0-0.5-0.3c0.3-0.3,0.3-0.3-0.3-0.5c-2.5-1-1.3-3.3-2.5-3C97.5,79,97,77.8,97,78s-0.8-0.5-1.5-1.5
			C95.3,75.5,97,76.2,98.1,77.2z M98.6,87.6c0-0.3,0-0.5-0.3-0.5c-0.5,0-2.5-3.3-2.3-3.8c0.5-1.3,0.5,0.8,1.3,1.3
			c0.3,0,0.3,0.5,0.3,0.8s0.3,0.8,0.5,1.3C98.3,86.9,98.6,87.4,98.6,87.6c0,0.3,0,0.3,0.3,0.3c0.3,0,0.5,0.3,0.5,0.8
			C100.6,90.4,98.6,88.6,98.6,87.6z M95.8,81c0.3,0.3,0.5,0.8,0.5,1c0,0.5-0.8,0.8-0.8-0.5C95.3,80.5,95.3,80.5,95.8,81z M79.1,76.5
			v1.3c0,1.5-0.3,2.3-0.8,1.3C78.3,78,78.8,77,79.1,76.5z M70.7,136.5l0.5,1c0.5-1,0.8-1.3,0.5-5.8c-0.3-8.1-0.3-9.1,0-9.1
			c0.3,0.3,0.3,0,0-0.3c-1.5-1.8,1-19,1-19.2c0-1.3,0.5-1.8,0.5-0.3c0,2.3,1-0.3,0.3,4.8c-1,9.6-0.5,12.4-1.3,12.9
			c-0.3,0.3-0.3,0.3,0,0.8c0.3,0.3,0.5,1,0.5,2.3c0,2.8,0.5,5.6,0.5,8.4c0,2.5,0.5,1.8,0.5,3c0,1.8,1,2.8,0.8,0.8
			c0-0.8,0-1.5,0.3-1.8c0.3-0.5,0-0.8,0-0.8c-0.5,0-0.5-6.8,0-6.6c0.3,0.3,0.5-0.5-0.3-0.8c-0.8-0.3-0.3-6.6-0.8-7.6
			c-0.3-0.8,0.3-1.5,0.3-2c-0.3-1.3,0-8.1,0.3-8.9c0.3-0.5,0.5-2,0.5-3.8c0-3,0.8-5.6,0.8-2.8c0,1.3,0.5,1.3,0.8,0
			c0.3-1,0,5.1,0.5,5.1s0.3-1.3,0.5-3.5c0.3-1.8,1-10.4,1-10.4c0.3-0.5-0.8-1-1.3,2c-0.8,6.1-1.8,1-1.3-0.8c0.8-3.3,0.3-4.6-0.5-1.5
			c-0.3,1.3-1.3,4-1.3,4c0,0.3-0.3,0.3-0.3,0.3c-0.3-0.3-0.3-4,0.3-5.3c0.3-0.8-0.8-1-1,0.8c-0.3,0.8-0.5,1.3-0.8,1.3
			c-0.8,0.3-0.8-4,0-4.3c0.5-0.3,0.3-1,0.8-1c0.3,0,0.5-0.5,0.8-1c0.5-1,0.8-1.3,1-0.3c0,0.8,1.8-2.5,1.8-3.5c0-0.3,0.3,0,0.5,0.5
			c0.8,1.8,0,0.3,1-1.3c0.3-0.5,0.5-1,0.5-1.3c0-1,0.5,0,0.5,1c0,1,0.8,4.6,1-4.8c0-1.8,1.3,0.8,1.5,3.3c0.3,1.5,0.8,1.3,0.8-0.3
			c0-7.1,1.8-4.8,1.3-3.8c-0.5,1,1,4.3,1.3,5.1c0,0.3,0-1,0-3c-0.3-2.8,0.3-5.6,0.5-3.3s0.5,3,0.8,3.8c0.3,0.5,0.5,1,0.5,1.3
			s0,0.5,0.3,0.5c0.3,0.3,2,4,2,4.6c0,0.8,1.8,5.3,2.5,6.3c0.3,0.5,0.8,1.3,1,1.5c0.3,0.3,6.1,8.1,6.1,9.9c0,0,1.5,3.3,1.8,4.8
			c0.3,2,0.5,0.3,1,3.3c0,1,0.3,2,0.5,2c0.5,0.3,0.3,1.3-0.3,1.3c-0.3,0-0.3,0.3,0.3,0.5c0.8,0.8,0.8,10.4-0.3,14.2
			c-0.3,1,0.8,0.8,0.8-0.8c0-0.5,0.3-1.5,0.5-2c0.8-2,1.3-10.1,0.5-11.1c-0.3-0.5-0.3-4.6-0.8-5.6c-0.5-1-1.5-5.1-2-6.1
			c-1.5-2.8-2.8-5.3-2.8-5.3c-1-2.3-0.8-0.8-2.3-3.5c-1-1.8-2.5-3.5-2.5-3.5c0-0.3-1.5-2.3-1.3-2.8c0-0.3,0-0.5-0.3-0.5
			s-0.5-0.5-0.8-1c-0.5-1.5-1-0.5-1-1.8c0-0.5-0.3-0.8-0.3-1c-0.3-0.3-1.3-3-1.5-3.5c0,0-0.3-0.5-1-2.8c-1-3.8-0.5-3.8,0.8-0.3
			c0.3,1.3,1.3,3.3,1.8,4.6c1.5,3.3,0.8,3.3,1.5,3.5c1,0.3,1,2.5,1.8,3.3c0.5,0.5-0.3,1.3,0.3,1c0.5-0.3,0,0,1.3,1.3
			c1.3,1.5,1.5,2,3,3.8c2.3,2.8,6.3,11.1,6.1,12.7c0,0.3,0,0.5,0.3,0.8c0.5,0.5,0.5,1.5,0.8,2.3c0.5,1,0.8,4.3,0.5,4.3
			c-0.3,0,0,0.5,0.3,1.3c0.8,1.5,1,12.7,1.8,11.6c0.3-0.3,0.5-16.5-1.8-20.8c-0.8-1.8-0.5-2.5-1-3c-0.3-0.3-4.3-8.1-5.6-9.4
			c-0.5-0.5-1.5-2.3-1.8-2.3s-0.3-1-0.5-1c-0.5,0-0.3-1-0.5-1s-1-2.3-1.3-2c-0.3,0.3-1-0.8-1-1.5c0-0.3,0-0.5-0.3-0.5
			c-0.8-0.3-1.8-4.3-2.5-4.8c-1.3-1.3-2.3-6.3-1.8-5.3c0.3,0.8,2.8,3.3,2.8,4c0,0.8,0.5,0.3,0.5,1c0,0.3,0,0.5,0.3,0.5
			s0.5,0.5,0.8,1.3c0.5,2,2,3.3,2.5,5.1c0.3,0.5,0.8,1.5,1.3,2c2.3,2.3,5.8,8.6,5.6,9.6c0,0.3,0,0.5,0.3,0.8c0.5,0.3,2.3,4,2.3,5.1
			c0,1.3,0.5,1,1.3,3.5c0.8,2.8,1,2.5,1.3,4.6c0.3,2.5,0.5,1.5,0.8,5.1c0.3,4.8,0.5,3.8,0.5,14.7c0,8.1,0.3,9.6,0.8,9.1
			c0.3-0.3,0.3-5.6,0.5-14.7c0-2,0-3.5-0.3-3.8c-0.3-0.3-0.3-1.5,0.3-1.8c0.3-0.3,0.3-0.3,0-0.5c-0.5-0.3-0.8-6.8-0.5-7.1
			c0.3-0.3,1,4.3,1.3,5.6c0.3,1-0.8,0.5,0,1.3c0.3,0.3,0.5,0.8,0.3,0.8c-0.3,0.5-0.5,14.9-0.3,15.2c0.3,0.5,0.3,2.3,0.8,4.6
			c0.5,2.5,0,18.2,0,18.7c0,0-0.3,20.8,0.5,27.8c0.3,2.3,0.5,10.4,0.8,10.6c0.3,0.3,0,4.3,0.5,4.8c0.3,0.5,1.3,4.8,1,5.1
			c-0.3,0.5-0.8,0.3-0.8-0.3c0-0.8-1-0.8-1-1.3c0-1-1-0.8-0.8-2c0-0.5,0-0.8-0.3-0.8s-0.3-0.3-0.3-0.3c0-0.3,0-0.8-0.3-1.3
			c-0.3-0.5-0.3-1.8-0.5-2.5c-0.3-2.3-0.8-0.5-0.5-2c0-0.5,0-1,0-1.3c-0.3,0-0.3-0.3-0.3-0.5c0-0.3,0-0.5,0-0.8
			c-0.8-1.5-1.3-20.5-0.5-20.8c0.5-0.3,0.5-1,0-1.8c-0.3-0.5-0.3-0.8-0.3-1.3c0.3-0.5,0.3-0.8,0-1c-0.3-0.5-0.8-9.1-0.5-9.6
			c0.3-0.5,0.3-5.6-0.3-6.6c-0.3-0.5,0-0.5,0.5-0.5c1-0.3,0.8-0.5,0.5-1.8c0-1.3-0.8-1.3-0.8,0.3c0,1,0,1-0.3,0.5
			c-0.5-1.3,0.5-1,0.3-2.8c-0.5-4.3-0.5-12.1-1-12.7c-0.8-0.8-0.3,12.4-0.8,13.7c0,0.3,0,0.5,0,0.5c0.3,0,0.3,2.5,0.3,5.8
			c0,4.6,0,5.8-0.3,5.8s-0.3,0,0,0.3c0.8,0.5,0.5,11.1,0.8,11.9c0.3,0.5-0.5,0-0.5-0.8c0-0.5-0.3-0.5-0.5-0.5
			c-0.3,0.3-0.5,0.5-0.3,1.3c0.3,1.3,0.5,1.3,0.8,0.8c0.3-0.5,0.5,0,0.5,1.5c0,3.8,1,12.1,1,18.7c0,2.3,0.3,4,0.3,4s0.3,0.8,0.3,1.8
			c0,2.3,0.5,3,0.8,5.1c0.3,2,0.8,3.5,0.3,3.5c-0.3,0-0.3-0.5-0.3-1s-0.3-1-0.8-1.3c-1.3-1,0.8-0.8-0.5-1.5c-1-0.5-0.8-1.8-1.5-5.1
			c-0.5-1.5-0.5-1.8,0-2.3c0.5-0.8,0.3-2.5-0.5-2.8c-0.8-0.5-0.3-0.8-0.8-2.5c-0.3-1.8-0.3-3.8-0.8-8.4c-0.5-4-0.5-14.7-0.8-15.2
			c-0.5-0.8,1.5-2.8,0.3-2.8c-0.3,0-0.5-0.3-0.3-0.5c0.3-0.3,0.3-1.5,0.3-3c-0.3-2.3,0-2.3,0.5-2.5c0.5-0.3,0.8-0.3,0.5-1
			c-0.3-1-0.8-1.8-0.8-0.8c0,1.3,0,1.5-0.3,1c-0.5-1,0.5-3.3,0-4c-0.3-0.3-0.3-0.5,0-0.5c0.3-0.3,0.3-5.1,0-6.1s0.8-2,0.3-2.3
			c-0.5-0.3-0.3-9.6-0.5-9.9c-0.8-0.8-1,12.4-1,13.4c0,4-0.3,5.3-0.3,5.3c0.3,0.3,0.3,14.2,0.5,14.4c0,0,0,0.5-0.3,0.8
			c-0.3,0.3-0.3,0.5,0,0.8c0.5,0.5,0.5,3.5,0,3.8c-0.3,0.3-0.3,0.3,0,0.8c0.3,0.3,0.3,1,0.3,1.5c0,0.5,0,1,0.3,1s0.3,0.3,0,0.5
			c0,0.3,0,1,0,1.3c0.3,1-0.3,2.8-0.3,2c0-0.5-0.3-0.5-0.3-0.3c-0.5,0.5-0.3,3.3,0.5,3.3c0.3,0,0.5,0,0.5,0.5c0,1,1,8.9,1,9.1
			c0.5,0.8,1.5,10.4,2.3,14.2c0.5,2,0.8,3.8,0.5,4c0,0.3,0,0.8,0.3,1c0.5,0.8-0.3,1.3,0.5,1.5c0.3,0,0.5,0.3,0.5,0.5
			c-0.3,0.8,0,1,0.5,0.8c0.8-0.8-0.5-1.8,0-2.5c0.5-0.5,0.8-1.8,0.5-2c-0.3-0.3,0-2,0.3-2s0.8,4,0.8,6.3c0,2,1.3,2.3,1.3,0.3
			c0-1.5,0.5-4.8,0.8-5.6c0-0.3,0-0.5,0-0.8c-0.3-0.3-0.5-1,0-1s1.3,2.8,1.5,5.6c0.3,4.6,1.3,5.3,1.3,1c0-1.3,0-2.5,0.3-3.3
			c0.3-2.5-2-8.4-2-11.1c0-1.5-0.5-0.3-0.8-2.8c-0.3-2.8-0.3-0.8-0.5-3.8c-0.3-3.3-0.8-1.8-0.8-5.6c0-4-0.8-4,0-3.8
			c1,0.5,0.8-1.3-0.3-2.5c-0.3-0.3-0.3-1.5-0.3-3.5c0-0.8-0.3-11.1,0.3-11.6c0.3-0.3,0.3-0.5,0.3-0.8c-0.3-0.3-0.3-2.3-0.3-4.3
			c0.3-7.3,0-20-0.3-22.5c-0.3-1.8-0.3-2.5,0.3-2.5s0.8,1.5,0.5,2.5c0,0.5,0,1,0,1c0.5,0,0.3,1.8,0.8,2.3c0.5,0.5,0.5,3.5,1.3,6.1
			c0.8,2.5,0.5,2.5,1,4c0.3,1.5,0.3,1.8,1,3.5c0.8,2,0,2,0.5,2.3c0.8,0.3,0.3,0.8,1.3,2c0.5,0.5,2,3,4,3c0.8,0,1,0,1,0.5
			c0,0.3,0,0.5,0,0.5c0.5,0,0.5,2,0,3c-0.3,0.8-0.5,0.8-1.3,0.5l-1-0.3c0,1,0,6.1,2,6.1c1,0,0.5,1,1.3,1c0.5,0,2,1.8,2,2.5
			c0,0.3,0.3,0.8,0.8,1.3c0.5,0.5,0.8,1.3,0.8,1.8c0,0.8,0.8,1.8,1,1.3c0.8-5.8-2.8-14.2-1-14.2c0.8,0,0.5,0.8,0.8,2.5
			c0.3,1.8,0.8,11.1,1.5,12.4c0.5,0.8,0-4.6-0.5-12.7c-0.3-3-0.3-2.3-0.5-4.3c-1-8.4-2.3-8.4-1.8-5.3c0.5,1.8,0.5,2.3,0.8,4.8
			c0.3,2,0.3,2-0.5,1.5c-0.8-0.5-1.3-2.8-0.8-3.3c0-0.3,0-0.5,0-0.5c-0.3,0-0.5-0.8-0.5-1.5c-0.8-5.6-3-8.9-1.8-5.1
			c0.8,2.8-1.5,0.3-2-2c-0.5-1.5-1.3-4.3-1.5-5.3c-0.3-0.8-1,0.8-1,0s-2.3-3.5-1.5-4.3c0.3-0.3,0.3-0.5-0.3-0.8
			c-0.3-0.3-0.8-1-1-1.8c-0.5-2-1-1.8-0.8-3c0.3-1.3-0.5-0.8-0.3-1.5c0.3-0.8-0.5-0.3-0.5-0.8c0.3-1-1-2.3-0.8-3
			c0.3-0.8-1-1.8-0.8-2.3c0.3-0.3-0.8-3.8-1.3-3.8c0,0-0.5,0-0.8,0c-0.5,0-0.5,3.5,0,4.3c0,0.3,0,0.3-0.3,0.3c-0.8,0-0.5,1-0.3,1
			s0.3,2,0,3c-0.3,0.8-0.3,1.5-0.8-5.1c0-0.8,0-2,0.3-2.5s0.3-0.8,0-0.8s0-3,0-3c0.3,0,0.5-10.6-0.3-11.6c-0.3-0.5,0-4-0.5-4
			c-0.3,0-0.8-4.6-1.3-4.6c-0.5,0-0.3-1,0-1c0.3,0,2.5,6.6,3,8.9c0.3,1.3,1,1.3,0.8,0.3s-0.8-5.3-0.5-5.8c0-0.3,0-0.5-0.3-0.5
			c-0.3,0-0.5-4-1-4.3c-0.5-0.3,0.8-1,0-1c-0.5,0-0.3-1-0.5-1.3c-0.3,0-0.8-1.3-1.5-2.8c-1.8-3.8-1.3-4.3,0.8-0.8
			c1,1.8,0,1.5,0.8,2.3c0.5,0.8,1.8,4,1.5,4.6c0,0.3,0,0.3,0.3,0.3c0.5,0,0.3,1.5,0.5,1.5c0.5,0,0.8,1.5,0.5,2c-0.3,0.3-0.3,3.3,0,4
			c0,0.3-0.3,1.3,0.5,1c0.8-0.3,0.5,1.8,1.3,1.8c0.3,0,0.3-3.3,0-3.8s-0.5-3.3-0.3-3.5c0,0,0.3,0.3,0.5,0.8c0.3,1.3,0.8,1,0.8-0.3
			c0-1-0.5-1.8-1.3-1.5c-0.3,0-0.5-0.3-0.5-1.3c0-0.8-0.3-1.8-0.5-2c-0.3-0.5-0.3-1-0.3-1.3c0-0.5-0.8-2.3-1-3.3
			c-0.3-1-0.8-0.5-0.5-1.3c0.3-0.8,2,3.5,2.5,4c0.3,0.3,0.3,0.5,0.3,0.8c0,0.3,0.3,1,0.5,1.8c0.3,0.8,0.8,1.8,0.8,2.3
			c0.3,1.3,1,1.3,0.8,0c0-0.5,0-1,0.3-1s0.3-0.3,0-0.5c-0.5-0.3-0.5-3-0.8-3c-0.3,0.3-0.8-1-0.5-1.3c0.3-0.3,0.8,0.3,1,1.3
			c0,0.5,0.5,1.3,0.5,1.5c1.3,1.5,2,3.5,1.5,4c-0.8,0.5-0.5,1.8,0.3,2.5c0.5,0.5,0.5,0.3,0.3-0.8c-0.3-1.3,0.3-1.8,0.5-0.8
			c0.3,0.5,0.8,0.8,0.5,0c-0.5-2-0.3-3,0.5-1.3c0.5,1,1.8,3.5,2.3,4.8c0.3,0.5,0.5,0.8,0.8,0.8c0.3,0,0.3,0.3,0.3,0.3
			c0,0.3,0.3,0.8,0.8,1.5c0.5,0.5,1,2,1.3,3.3s0.8,2.3,1,2.5c0.3,0.3,0.5,0.8,0.5,1.3c0.3,1.3,0.8,0.3,1,2c0,0.8,0.5,1.5,0.8,1.8
			c0.3,0.3,0.5,0.8,0.5,1c0,0.8,1.3,2.8,1.3,3.5c0,1.3,3,6.3,2.8,7.3c-0.3,0.8,0.8,0.5,0.8,1.3c0,1,0.5,0.5,0.5,2
			c0,1.5,1,1.5,0.8,2.5c-0.3,0.5,1,2.3,1.3,2c0.3-0.3,0.8,1.5,0.8,2.5s1,1,1.8,3.3c0.8,2.3,1,2.3,1,3.3s0.8,1,1.3,2.5
			c0.5,1.8,0.8,1.5,0.8,2.3c0.3,1,0.8,0.5,0.8,2.3c0,0.5,0,1,0.3,1c0.3,0,0.3,0.3,0.3,0.5s0.3,0.5,0.5,0.8c0.3,0.3,0.5,0.8,0.8,1.3
			c0.3,1.5,1.5,3.3,1.8,4.3c0.3,1.5,2.5,4.6,1.3,4.6c-1,0-1.3,2-0.5,3.3c0.5,0.5,1,1,1,1c0.5,0,0.5,1.8,1,2c0.8,0.3,0,1,1,1h0.8
			c-0.8,0.3-2,0.8-1,1.8c0.3,0.3,0.5,0.8,0.3,1.3c-0.3,0.8,0.8,2,1,1.8c0,0,0.5,0.3,0.8,1c0.3,0.8,0.8,1,1,1c0.5,0,1.8,1.5,1.8,2
			c0,0.5-0.5,1-1,1c-0.5,0-0.8,1.5-0.3,2c0.3,0.3,0.3,0.3,0,0.5c-0.8,0.5,0.8,2.3,1,2c0.5-0.5-1,2.3,0.3,3c0.3,0.3,0.3,1,0.5,2
			c0,13.4,0.3,12.9-2,13.4c-0.8,0.3-2.5,1.5-2,1.5c0.3,0,0,0.3-0.3,0.5c-2.3,2.8-0.3-6.3-0.5-9.9c-0.3-4-0.3-5.8,0-5.8s0.3,0,0-0.3
			c-0.8-0.5-1.5-8.6-2.5-7.8c0,0,1,6.6,0.8,7.1c-0.3,0.3,0,0.8,0,0.8c0.3,0.3,0.3,3,0.3,8.4c0,4.3,0.3,7.8,0.3,7.8
			c1.3,0-2.3,1.8-3.8,2c-1,0-2,0.3-2.3,0.5c-0.3,0.3-0.8,0.3-1,0.3c-1.5-0.5-1.8,2-1.5-2.8c0.5-5.3,0-3.5,0.3-7.1
			c0-2.3-1.8-13.7-1.3-4c0.3,5.1,0,7.3,0.5,7.6c0.3,0,0.3,0.3,0,0.3c-0.3,0-0.3,1-0.3,2.5c0,3.8,0,4-1.3,3.8c-0.8,0-1,0-1.3,0.3
			c-0.3,0.5-0.8,0.3-4.3,0c-3-0.3-3.5-0.5-2-0.8c0.3,0,0.8-0.5,0.8-1c0.5-1.8,1.5-0.8,0.8-1.8c-1-1.3,0.5-3.5,0.5-2c0,1,1-0.5,1,0
			c0,0.5-0.8,0.5-0.3,1.3c0.5,0.5,0,3.5-0.5,3.5c-0.3,0-0.5,0.3-0.5,0.5c0,0.5,2.5,0,1.8,0c-0.8-0.3-0.8-0.3,0-0.8
			c0.3-0.3,0.5-1,0.5-3.8c0-2,0.3-3.5,0.3-3.8c0.3,0,0.3-0.3,0-0.5c-0.3-0.3-0.3-0.5-0.3-0.5c0.3-0.5,0.5-2.8,0.3-2.8s-0.8-2-1-4.6
			c0-0.3-0.3-0.3-0.3-0.3c-0.3,0-0.3,3.5,0,5.8s0,3-0.8,2.5c-1-0.8-1.3,0.3-1-0.5c0-0.3,0-0.5,0-0.8c-0.3,0-0.3-1-0.3-2
			c0.3-2.8-0.5-2.3-1-5.3c-0.5-5.1-1,0.8-0.3,5.8c0.5,3.3-0.8,4.3-0.8,2.8c0-1.5-1.5-0.8-1.5-3c0-2.8-2.5-15.9-2-7.3
			c0.3,4.3,0.3,6.3,0.5,6.8c0.3,0.3,0.3,3,0,3c-0.3,0-0.3-0.3-0.3-0.5c0-0.3,0-0.5,0-0.8c-0.5-0.3-1.5-2.8-1.5-2.8
			c0.3-0.3-1.3-8.1-1.8-8.6c-0.3-0.3-0.5-1.5-1-2.8c-0.8-2.3-0.8-2.3-0.8-1c0,0.8,0,1.3,0.3,1.5c1.3,1,2,12.1,2,13.2l-0.8-1.5
			c-1-2.3-0.3-1.3-0.8-3.3c-0.3-1.3-1.3-9.4-2-10.1c-0.5-0.5,0.3,5.8,0.5,13.2c0,2.5,0.8,3,0.3,3c-0.5,0,0-1-0.8-2
			c-0.8-1-1.8-4.8-1.3-4.6c0.5,0.3,0.8-1.3,0.5-2.3c-0.3-1-0.8-1-0.8-0.3c0,0.3-0.3-0.5-0.3-1.5c-0.5-3.5-0.5-3-0.8-6.1
			c-0.5-7.3-1.3,0.5-0.5,4.6c0.8,4.3,1,11.6,0.5,11.4c-0.3,0-0.5-0.5-0.5-1.3c0-0.5-0.3-1.3-0.5-1.5c-0.5-0.5-1-2-1.5-5.6
			c-0.5-3.8-0.5-2.5-1-6.6c-0.8-4.3-1-3.8-1.3-15.9c-0.3-12.1-1,4-0.5,9.9c0.3,1.5,0.3,5.6,0.8,9.9c0.5,4.3,0.5,5.6,0.8,6.3
			c0.5,0.8,0.3,0.5,0.5,1.8s-0.5,1.8-0.3,1c0-0.5,0-0.5-0.5-0.5c-1,0-1,1-0.3,3.5c0.3,1.3,0.8,2.8,0.8,3.3c0,1,0.8,2,1,1.3
			c0-0.3,0.3,0.5,0.3,1.8c0,2.5,0.3,3,0.8,3c0.8,0,0.3-2.3,0.8-3c0.8-0.8,0.3-6.6,0.8-6.1c0.3,0.3,0.3,2.5,0.5,4.8
			c0.3,2-0.8,1.8-0.3,2.5c0.3,0.3,0.3,0.5,0.3,1c0,2,1,0.3,1.3-2.3s0.8-1.8,0.5-1.3c-0.3,1,0.8,2.3,0.8,0.5c0-0.5,0-0.8,0.3-0.5
			c0.3,0.5,0.3,4.6-0.3,4.8c-0.5,0.3,0.3,0.8-0.5,0.8c-4.6,0.3-2.5,0.8-5.6,0.8c-1,0-1.8,0-1.8,0.3c0,0.3-2,0.3-2.3,0
			c0,0-2.5-0.3-2.8-0.5c-0.5-0.3-4.8-1.5-4.8-1.8s-0.5-0.5-1-0.5c-0.8-0.3-1-0.5-1-1.5c0-0.5,0-2-0.3-3.3c0-2.3,0.5-3.3,1-1.5
			c0.3,1.5,0.8,2,0.8,3.3s0.8,3,1.3,2.5c0.3-0.3,0.3-0.5,0-1c-0.5-1.3,0.8-0.5,0.5-1.5c-0.5-1.3-0.3-4.6-1-5.6c-1.5-1.3-1-4-1.5-5.3
			s-0.3-6.1-1-6.6c-0.5-0.5,0.3,0-0.3-0.8c-0.5-0.8-0.3-4.3-0.8-5.3c-0.5-1.5-0.8-7.6-1-11.1c-0.5-9.1-0.3-21-0.3-21
			c-0.5-1.3,0.8,0,0.5-1.5c0-0.5-0.3-1-0.3-1c-0.3,0,0-9.4,0.3-9.6c0.3,0,0.3-0.5,0-1c-0.3-1-0.3-3.3,0-5.6s0.5-4.6,0.8-4.8
			c0.3,0,0.3-0.5,0.3-1s0-1.8,0-3c0.5-4-0.3-6.8-1,1.8c-0.3,1.8-0.5,1.3-0.5,2.8c0,1.3-1,7.3-1,9.4c0,1-0.5,2.8-1,2.8
			c-0.3,0-0.3,0.3,0,0.5c0.8,0.8-0.5,19.2-0.3,22c0.3,4.3,0.3,7.3,0,7.3c-0.3,0.3-0.3,0.5,0.3,1c0.3,0.5,0.5,2,0.5,4.3
			c0,1.8,0.3,3.3,0.3,3.3c0.3,0,0.5,0.5-0.3,0.5c-1.3,0,0.3,0.5,0.5,2c0.5,2.5,0.8,4.6,0.8,5.1c0,1.3,0.3,2.5,0.5,2.8
			c0.3,0.5,0,1.8,0.5,3.3c0.3,1.5,0.3,2,0.8,3.8c0.3,0.8,0.3,1.3,0.3,1.5s0,0.5,0,0.8c0.3,0.3,0.5,1,0.8,1.8c0.5,1.8,0,2.3-0.8,0.8
			c-0.8-2-1.5-2-1.3-3c0-0.5,0-1-0.3-1.5c-0.5-1-1.3-4.8-1-5.1c0.3-0.3-1-0.8,0-1.3c0.3-0.3,0.3-0.3,0-0.5
			c-0.5-0.3-1.3-5.1-1.8-13.4c-0.5-5.1-0.5-16.5-0.3-16.5s0.3-0.3,0-0.5c-0.5-0.5-0.5-4.6,0-4.8c0.3,0,0.3-0.5,0-0.8
			c-0.8-1,0.8-1.5,0.3-1.8c-0.5-0.3-0.3-3.3,0-12.9c0-5.1,0.5-12.7,0.3-12.7c-0.3,0-0.8,1-0.5,1.3c0,0,0,1.5-0.3,2.8
			c-0.8,6.3-0.5,9.9-1.3,10.4c-1,0.8,0.8,0.3,0.5,1.8c-0.5,3-0.5,20.5-0.8,22.8c-0.5,2.5,0.8,1.3,0.5,4.6c0,2.5,0.5,3.5,0,3.5
			c-0.3,0-0.3,0-0.3,0.3c0.3,0.5,0.5,2.5,0.5,5.1c0,3.5,0.5,1,0.5,4.6c0,4,0.5,1.5,0.8,6.8c0,2,0.5,1.3,0.5,3.5
			c0.3,4.3,2.8,13.2,2,13.2c-2.3,0-0.5-5.8-2-7.1c-1-1-0.5-2.5-1-4c-0.8-2.3-1.8-8.9-1.5-9.4c0.3,0,0-0.3-0.3-0.5
			c-0.8-0.5-0.5-2.8-1-3.5c0-0.3,0-0.5,0.3-0.8c0.5-0.3,0.3-1.8,0-2.3c-0.3-0.3-0.3,0-0.8-10.9c0-1.5,0-2.5,0.3-2.5s0.3-0.3,0.3-0.5
			c-0.5-0.8-0.5-7.8,0-9.1c0.3-0.8,0.5-1.3,0.3-1.5c-0.3-0.3-0.5,1.3-0.8,1.3c-0.3,0-0.3,0,0-0.3c0.3-0.3,0.5-6.1,0.5-6.8
			c0-0.8,0-2.5,0-3.8c0-1.3,1-1,0.3-1.5c-0.5-0.5-0.5-2,0-2.5s0.5-1,0-1s-0.5-5.6,0-6.1c0-0.3,0-0.5,0-0.5c-0.3,0-0.3-1-0.3-2
			c0.3-3-0.5-3.3-0.8-0.3c-0.3,4-0.5,4.3-0.5,6.6c0,1-0.3,2-0.3,2.3c-0.3,0.3,0,0.5,0,0.5c0.5,0,0.5,0.8,0,0.5c-0.3,0-0.3,1-0.3,2.5
			c0,1.8-0.3,3-0.5,3.3c-0.3,0.3-0.3,0.5,0,0.5c0.3,0,0.3,3,0,4c0,0.3,0,0.8,0,0.8c0.3,0.3,0.3,1.3-0.3,2.3c-0.5,1,0.3,1,0.3,6.1
			c0,11.4,0.5,13.2,0.8,18.2c0,6.8,0.5,1.8,1,8.9c0.3,1.3,0.5,1.8,0.5,3.8c0.3,2.8,0.8,5.1,0.3,5.3c-0.8,0.5-1.3-5.8-1.5-6.3
			c-0.5-0.8,0-4.6-0.8-4.8c-0.5-0.3-0.3-2.3-0.8-3.5c-0.5-1.5,0.8-1,0-1.8c-0.3-0.3-0.5-0.5-0.5-1c0-1-0.5-8.6-0.5-8.9
			c-0.3-0.3,0.5-2.5,0.3-2.5s-0.3-5.6-0.5-6.3c0-0.3,0-0.5,0.3-0.8c0.3,0,0.3-0.3,0.3-0.5c-0.5-0.8,0.3-16.7,0.3-25.6
			c0-2.8,0-2.8,1-2.8c0.3,0,0.3,0-0.3-0.5c-0.3-0.3-0.8-0.5-0.8-0.5c-0.5,0-0.3-5.8,0.3-7.1c0.5-1.3,0.8-2.8,0.8-4.6
			c0-0.5,0-0.8,0.3-0.8c0.8,0-0.5-4-0.5-7.1c0-0.5-0.8-1.8-0.8,5.6c-0.3,9.9-0.8,3.3-1.3,12.9c0,1.8-0.3,3.5-0.5,3.8s-0.3,0.8-0.3,1
			c0.3,0.5-0.5,3-0.5-0.5c0-3.3,1-3,0.3-3.5c-0.5-0.5-0.5-1.8,0.3-5.1c0.5-2.5,0.8-7.8,0.3-10.1c-0.5-3-0.8-2.8-0.8,2.3
			c0,3,0,3-0.5,2.3c-0.3-0.5-0.8-1-1-1c-0.5-0.3-0.5-1.3,0-1.3c1,0,1-1.5,0-0.5c-0.8,0.5-0.8,0.3-1-1.3c-0.3-1.8-0.5-3.3-0.8-3.3
			c-0.3,0.3,0.3,5.1,0.5,6.1c0,0.3,0,0.5-0.5,0.5c-0.5,0-0.8-0.3-1-2.3c-1-6.3-1.3-6.6-1-2.3c0.3,6.1,0.3,9.4,0.5,12.9
			c0.3,3.3-0.5,2.5-0.5,1c0-1.3,0-0.8-1-10.1c-0.8-5.8-0.8-5.6-0.8-6.6v-0.8c-0.3,0.8-0.5,1.3-0.5,3.5c0,1.3-0.3,2-0.5,2
			c-0.3,0-0.3,0.3,0,0.5c0.5,0.8,0.5,3.3,0.5,3.5c0.3,0.3,1.3,8.4,0.8,8.4c-0.3,0-0.3-0.3-0.3-0.5c0-0.8-0.8-1.3-1-0.8
			c-0.3,0.5-0.3-1.8-0.3-2.8c-0.8-9.6-1.3-9.4-1.3-14.2c0-1.3-0.3-1.8-0.3-1.5c-0.3,0.3-0.5,9.1-0.3,9.9s0.5,6.3,0.8,7.6
			c0.5,1.3,0.5,5.1,0,5.1c-0.3,0-0.3,0.3,0,0.5c0.3,0.5,0.3,4.8,0,4.8s-0.3,0,0,0.3c0.5,0.3-0.3,0.8,0,1.5s-0.8,1.3-0.3,1.5
			c0.8,0.3-0.8,0.8,0,1.5c0.8,0.8,0,6.1,1.3,7.6c0.5,0.5,0.5,0.8,0.3,1.5c-0.5,1,1.3,1.3,2.3,0.3c0.3-0.3,0.8-0.5,1-0.5
			c0.3,0,0.3,0,0.3,0s0-0.8,0.3-1.5s0.5-1.8,0.3-2.8c-0.3-3-0.5-11.9-0.3-12.1c0.3-0.3,0.8,1,0.8,3c0,2.3,0.3,4.6,0.3,7.1
			c0,2.5,0.8,1.3,0.5,0.8c-0.3-0.5,0.5-1.5,0.3,1.8c-1,12.1,0.3,12.1-1.8,12.4c-0.8,0.3-1.3,0.5-1.3,1c-0.3,0.8-0.8,1-0.8,0.3
			c0-0.3-0.8-0.3-0.3,0.8c0.5,1,0.5-0.5,1,0.3c0,0.3,0,0.5,0,0.5c-0.5,0.3,0.5,4.8,1,4.8c0,0,0.3,0.3,0.3,0.5c0,0.8,1,4,1.3,4.6
			c0.5,0.5,0.3,6.3,0.8,6.8c0,0,0.3,0,0.3-0.3c0-1,0.5-0.5,0.5,0.5c0,1.8-0.5,0.5-0.5,1.3c0,1,0.8,0,0.8,0.8c0,1,0.5,2.5,0,1.8
			c-0.5-0.8-0.3,0.5,0,0.5s0.5,1.8,0.8,3c0.5,1.5-0.8-0.8-0.8,0.5c0,0.3,0.3,0.8,0.5,1c0.3,0.3,1,3.3,1.3,6.3c0,0.3,0.3,1,0.5,1.5
			c1,2.5,0.8,4-0.5,2.8s-0.8-2.8-2.3-6.8c-0.5-1.5-0.8-5.1-0.5-5.1c0.3,0,0.3-0.3,0.3-0.5c0-0.3,0-0.5-0.3-0.3c-0.5,0.3-1-0.8-1-3.3
			c-0.3-3.8-0.5-2.5-1-3.8c-0.3-0.8,0.3,4.8,0.3,6.3c0,0.5,0.3,1.3,0.3,1.5c0.3,0.3,0,0.5,0,0.5c-0.3,0-0.3,0.8,0.3,1.5
			c0.8,2.5,1.8,7.6,1.8,9.1c0,0.5,0,0.8,0.3,0.8c0.5,0,0.8,1.3,0.3,1.8c-0.8,0.8-0.3,1.8-0.8,0.8c-0.3-0.3-0.3-0.8-0.3-1
			c0-0.3,0-0.5,0-0.5c-0.5-0.5-0.5-3.3-1.8-7.3c-0.3-1-0.3-4.6-0.8-4.8c-0.3-0.3-0.3-1.8,0.3-2.3c0.3-0.3,0.3-0.3,0-0.3
			c-1,0-1-5.1-1.3-5.6c-0.5-0.3-0.3-2.3-0.8-1.8c-0.5,0.3,0,1,0.3,4.6c0.5,7.1,1.3,7.6,0.8,8.6c-0.3,0.3-0.3,0.8,0,1
			c0.3,0.3,0.5,1.5,0.8,3c0.3,1.5,0.5,2.8,0.5,2.8c0.8,0.5,1.3,4.3,0.8,5.1c-0.8,1-0.3,0.8-1-2.3c-0.5-2.3,0-1.5-0.5-2.8
			c-0.3-0.5-0.3-1.3-0.3-1.5s0-0.8,0-1c-0.5-0.5-1.8-8.6-1.8-9.1c-0.3-1.8-0.8-4.6-0.5-5.1c0.3-0.5-0.5-0.3-0.5-0.8
			c0.3-1.8-1-8.1-1.5-8.1c-0.3,0,0,3.8,0.3,4.6c0.3,0.5,1,9.4,0.8,9.6c0,0.3,0,0.3,0.3,0.3c0.3,0,0.3,0.8,0.3,2c0,1,0.3,2.5,0.5,3.3
			c0.3,1.3,1,5.8,1.3,6.1c0.5,0.8,0,4.8,1,5.6c1,0.8-0.8,0.5-0.3,1.3c0.5,0.5,0.8,2.8,1.8,3.8c2,2.5-1.8,2.8-1,0.3
			c0.3-1.3-0.5-0.5-1-3.8c-0.5-3.3-1.3-5.6-1.3-6.8c0-0.5-0.3-1.3-0.5-1.8c-0.3-0.8-0.8-3.3-1.3-6.1c-0.3-1.5-1.3-5.3-1-6.1
			c0-0.3,0-0.8-0.3-0.8s-0.3-0.8-0.3-1.8c0-1.5-0.8-5.6-1-5.8c-0.3-0.3,0,10.4,0.3,10.9c0.3,0.3,0.3,2.5,0.5,3
			c0.5,0.8,0.5,1.8,0.3,1.8s-0.5,0.3-0.5,0.3c-0.3,0.8-1.8-8.6-1.5-9.6c0.3-0.8-0.3-1-0.8-0.5c-0.5,1-3-0.8-2.3-1.3
			c0.3-0.3,0.3-0.5-0.3-0.8c-0.3-0.3-0.5-0.8-0.3-1.8c0.3-2-0.5-0.3-0.5-2.5c0-2.8-1.3-6.1-0.8-7.1c0.8-1-1-1-0.3-1.8
			c0.5-0.8-0.3-0.5-0.5-3c0-0.3-1.8-8.9-1.3-11.1c0.3-1.5-0.8,0-0.8-2c0-1.8-0.5-8.4-0.8-10.1c-0.8-7.1-0.8-5.6-1-9.4
			c0-1.5-0.3-2.8-0.3-2.8c-0.3-0.3-0.5-4.8-0.3-5.3c0-0.3,0-0.3,0-0.5c-0.5-0.3-0.5-17.2,0-17.5c0,0,0.3-0.5,0-0.8
			c-0.3-0.8,0.8-3.5,1.3-3.3c0,0-0.5,18.2,0.5,22.8C71.7,136.2,69.7,133.9,70.7,136.5z M126.1,158.5l0.3,0.8c0.3,0.8,0.8,5.1,1,7.6
			c0,1,0,1.3-0.8,1.3h-0.8C125.9,158.5,125.1,160.8,126.1,158.5z M124.9,211.4c-0.3-3.8,0.3-3,0.5-1
			C125.6,212.7,125.1,212.4,124.9,211.4z M118.8,210.9c0-1.5,0.3-1.5,0.5,0.3C119.6,212.7,118.8,212.7,118.8,210.9z M92.2,162.5
			c-0.3,0.3-0.3-4.6,0.3-6.8C92.7,153.4,92.2,162.3,92.2,162.5z M92.7,150.1c0,0,0,0.8,0,1.8c0,1-0.3,2-0.3,2
			C92.2,153.7,92.5,150.4,92.7,150.1z M91.7,147.1c0-1.8,0.5-1.5,0.5-0.5C92.2,147.4,91.7,149.1,91.7,147.1z M92.5,169.4
			c0.3,6.6,0.3,7.6-0.3,6.6C91.7,174.7,92,153.4,92.5,169.4z M92.7,178.5c0,2,0.5,8.4,0.3,8.4s-0.3-1.3-0.3-2.3
			C91.7,176.7,92.7,175.7,92.7,178.5z M87.4,139.8c0.3,0,0.3,0.5,0.3,1.3C87.9,144.8,86.9,140,87.4,139.8z M85.6,139.3
			c0.8-0.5,0.3,0.5,0.5,2.3c0,0.3,0.5,5.8,0.3,5.8s-0.8-1.8-0.8-2.8c0-0.5-0.3-0.8-0.3-0.8c-0.5,0-0.5-1.3,0-1.3
			C86.4,142.6,84.6,140,85.6,139.3z M70.7,87.9v0.8c0.3,1-0.5,2-0.8,1.3C70,89.4,70.5,88.4,70.7,87.9z M53.2,123.3
			c0-0.3,0.3-0.8,0.3-1c0.3-1,1.3-0.5,0.3,0.8C53.5,123.6,53,123.8,53.2,123.3z M50,130.9c0.3,0,0.3-0.5,0.3-1c0-1.3,1.3,0,1.3-0.8
			c0-0.5,2-3,1-3c-0.5,0-0.3,0.5-0.5,0.5c-0.5,0,1-2.5,1-1.3c0,0.8,0.8,0.3,0.8-0.5c0-0.5,0.3-1,0.5-1c0.3,0,1.5-2.8,1.8-2.8
			c0.5-0.5-0.8-1.5-0.8,0c0,1.3-1,0,0-1.5c0.8-1,1-2.5,1-1.3c0,0.3,0,0.8-0.3,0.8c-0.5,0.3-0.5,0.8,0,0.8c0.3,0,0.3-0.3,0.5-0.5
			c0-0.3,0.8-1.5,1.5-2.8c2.3-4,1.5-3.5,7.1-11.4c0.5-0.8,1-1.5,1-1.5c0-0.3,0-0.3,0.3-0.5c1-0.5,4.6-7.8-1,0.8
			c-3,4.6-4.8,6.8-4.8,7.1c0,0.3-3,5.6-3.3,6.1c-1,1.3,0.8-3.3,2.8-7.1c0.8-1.5,1.3-2.5,1.5-2.5s0.3-0.3,0.3-0.5s0.3-1,0.8-1.8
			c1.3-2,2.8-6.3,3.5-7.3c1-1,0.3-3.5,2.5-1c1.3,1.5,1.5,2.8,0.8,2.8c-0.3,0-0.3,0.3-0.3,0.8s-0.3,0.8-0.5,1c-0.8,0.5-2,3.8-2,5.6
			c0,2.3-1.3,8.6-1,9.6c0.3,0.8,0.3,3.5,0.5,6.1c0.5,3.3-0.8,1.8-2,3c-0.3,0.3-0.8,0.5-1,0.5c-0.3,0-0.3,0-0.3,0
			c0.5,0.8-7.6,4-8.9,3.5c-0.3,0-0.5,0-0.5,0.3c0,0.8-0.5-0.5-1,0c-0.5,0.5-2.5,1.5-2.5,1.3C49.7,131.2,50,130.9,50,130.9z"/>
		<path class="st7" d="M105.6,224.3c-0.5,0.5,1.3,0,3-0.8c0.8-0.3,1.5-0.8,1.5-0.8C109.7,222.5,105.9,223.8,105.6,224.3z"/>
		<path class="st7" d="M107.9,222c0,0.3,0.3,0.5,0.3,0.5c0.5,0,0.3-1-0.3-1c-0.3,0-0.5-0.3-0.5-0.5c0-0.3-0.3-0.5-0.3-0.5
			C106.4,220.3,107.9,221.5,107.9,222z"/>
		<path class="st7" d="M140.3,206.8c0.5,0.5,0.8,8.1,0.3,9.4c-1,2,0.5,0.3,0.5,1.5c0,0.5,0,0.5,0.5,0c0.8-1,0.8-10.1,0-12.9
			c-0.8-3-0.3-4.3-0.8-4.3c-0.5,0,0.3,3.5-0.3,3.8c-0.3,0.3-0.3,0.3,0,0.5c0.5,0.5,0.5,1.3,0,1.5
			C139.8,206.6,139.8,206.6,140.3,206.8z"/>
		<path class="st7" d="M146.4,203c0,1,0,2.8,0,4c0,1.5,0,2,0.3,2s0.3,0.3,0.3,0.5c-0.5,1,0.3,12.7,0.8,4.6c0.3-4.3,0.5-6.8,0.3-8.6
			c-0.3-0.8-0.5-2-0.5-2.8C146.9,200.5,146.4,200.8,146.4,203z"/>
		<path class="st7" d="M148.4,188.9c0,0.8,0,1.8,0.5,4c0.5,1.8,1,7.3,1,7.3c0.3,0.5-0.8,1.3-0.3,1.8c0.5,0.3,0.3,7.3,0,8.1
			c-0.3,0.3-0.3,0.5,0,0.8c0.3,0,0.3,1.5,0.3,3c0,2.5,0.3,3.5,0.8,2.5c0.5-1.5,0.3-7.6,0.8-7.3c0.3,0.3,0.8-0.5,0.3-0.8
			c-0.5-0.3-0.3-4-0.8-5.3c-0.3-0.5,0-0.8,0-0.8c0.3,0,0.3-0.3,0-0.5c0,0-1.5-8.9-2.3-11.6L148.4,188.9z"/>
		<path class="st7" d="M139.8,213.7c0.5-0.3,0.3-1-0.3-1.3C138.8,212.2,139.1,214.2,139.8,213.7z"/>
		<path class="st7" d="M156,212.7c1.3,0,0.8-12.7,1.3-13.2c0.3-0.3,0.3-0.8-0.3-0.8c-0.3,0-0.5-0.3-0.3-0.8c0.3-1.3-0.5-0.3-0.5-1.5
			c0-0.3-1.5-6.6-0.3,5.3C156,203.3,156,212.7,156,212.7z"/>
		<path class="st7" d="M139.3,199.8c0.3,0,0-2.5-0.3-2.8c-0.3-0.3-0.3,0.3-0.3,1.5C139.1,199.2,139.3,199.8,139.3,199.8z"/>
		<path class="st7" d="M145.6,190.9c0.8,3.3,0.8,5.1,1.3,7.3c1,4.8,0.3-3.5-1-9.6c-0.3-0.8-0.5-2.3-0.8-3.5
			C144.6,181.8,143.9,182,145.6,190.9z"/>
		<path class="st7" d="M135,198.2c0.3,0,0.3-0.5,0.3-1C134.8,193.7,134.5,198.2,135,198.2z"/>
		<path class="st7" d="M142.1,195.5c0.3,1,0.8,0.5,0.5-0.5C142.1,193.4,141.8,194.4,142.1,195.5z"/>
		<path class="st7" d="M142.9,191.9c1,4.8,1.3,3.3,1.3,3c-0.3-0.8-0.5-3.5-1.3-7.6l-1.8-11.4c-0.3-0.3,0,4.3,0.5,7.1
			C141.8,186.8,141.8,187.6,142.9,191.9z"/>
		<path class="st7" d="M129.7,193.7c-0.3-0.5-0.8,0-0.5,0.8C129.7,196,130.4,194.7,129.7,193.7z"/>
		<path class="st7" d="M111.2,191.7c-0.3,0.3,0,1.5,0,2.3c0,0.5,0.5,0.3,0.8-0.3C112.2,193.2,111.5,191.2,111.2,191.7z"/>
		<path class="st7" d="M135.8,191.4c-0.3,0-0.3,1,0,1.8c0,0.3,0.8,0,0.8-0.3C136.5,192.4,136,191.4,135.8,191.4z"/>
		<path class="st7" d="M140.3,189.4c-0.3-0.5-0.3-0.5-0.3,0.5C140.1,191.9,141.1,191.2,140.3,189.4z"/>
		<path class="st7" d="M138.5,189.1c0.8,3,0.8,1.5,0-3.3c-0.5-3-0.5-3.3,0-3.3c1,0-0.3-3.5-0.3-1.5c0,1.8-0.3,0-0.8-4
			C135.3,156.7,136.3,179.3,138.5,189.1z"/>
		<path class="st7" d="M76.3,179.8c-0.3,0.5-0.5,1.5-0.3,2c0.3,0.8,0.5,5.8,0.8,7.3c0.5,2.8,1.3-1.8-0.5-8.6L76.3,179.8z"/>
		<path class="st7" d="M122.9,188.4c-0.3-1-0.5-0.5-0.5,0.8C122.6,190.6,123.6,190.6,122.9,188.4z"/>
		<path class="st7" d="M114.5,188.1c0,1.8,0.5,2,0.5-0.3C115,185.8,114.5,186.3,114.5,188.1z"/>
		<path class="st7" d="M130.4,189.4c0.3,0,0-2.3-0.5-2.5c-0.3-0.3-0.5,0.8,0,2C129.9,188.9,130.2,189.4,130.4,189.4z"/>
		<path class="st7" d="M127.9,188.1c-0.3,0-0.3-0.5-0.3-1c0-1-0.5,0-0.5,1C126.9,189.6,128.7,188.6,127.9,188.1z"/>
		<path class="st7" d="M151.5,186.3c-0.5-0.5-0.5,0.8,0,1.5C151.7,188.9,152,186.8,151.5,186.3z"/>
		<path class="st7" d="M149.2,187.4c0-0.5,0-1,0-1.3c-0.3-0.8,0-1-0.5-1s-0.5,1,0,2S149.2,188.1,149.2,187.4z"/>
		<path class="st7" d="M134.5,184.8c1,4.8,0.5-6.1-0.5-12.9c0-0.8-0.3-1.8-0.3-2.5c0-1.5-0.3-0.3-0.8-2.8c-0.8-3.8-1.3-3-0.5,1
			C133.7,175,134,182,134.5,184.8z"/>
		<path class="st7" d="M122.6,183.8c0,0.8,0,1.3,0.3,1.5C123.9,186.6,122.6,180.5,122.6,183.8z"/>
		<path class="st7" d="M78.1,180.3c-0.3,0,0,4,0.3,4.6c0,0.3,0.3,0,0.5,0C79.1,184.3,78.6,180.3,78.1,180.3z"/>
		<path class="st7" d="M121.1,184.1c0-0.5,0-1-0.3-1c0-0.8-0.8,0.3-0.8,1C120.3,185.3,121.3,185.3,121.1,184.1z"/>
		<path class="st7" d="M85.6,181.3c-0.3-1-0.5,0.3-0.5,1.8C85.4,185.3,86.7,185.3,85.6,181.3z"/>
		<path class="st7" d="M87.9,184.6c1.3,0-1.3-3.5-0.8-1.5C87.4,184.1,87.2,184.6,87.9,184.6z"/>
		<path class="st7" d="M146.1,181.5c-0.5-0.3-0.8,0-0.5,0.8C146.1,184.1,146.9,182,146.1,181.5z"/>
		<path class="st7" d="M149.9,181.5c-0.3-2-0.8-2-0.5,0C149.4,183.1,150.2,183.1,149.9,181.5z"/>
		<path class="st7" d="M126.4,182c0.3,0,0-2-0.3-2.5c-0.3-0.3-0.5,0.3-0.3,1.3C125.9,181.5,126.1,182,126.4,182z"/>
		<path class="st7" d="M132.5,180.5c0,0.8,0,1.3,0.3,1.3s0.3-0.8,0-1.8C132.7,179.3,132.5,179.3,132.5,180.5z"/>
		<path class="st7" d="M121.8,179c0-1.8-0.5-1.8-0.5,0C121.3,180.5,121.8,180.5,121.8,179z"/>
		<path class="st7" d="M76,179c0-0.3-0.3-0.8-0.3-1c0-0.3-0.3-0.5-0.3-0.5c-0.3,0-0.5,1.3,0,1.8C75.8,179.8,76.3,179.5,76,179z"/>
		<path class="st7" d="M80.3,175.5c0,1.8,0,3.8,0.5,3.8c0.8,0,0.8-0.5,0-2.3L80.3,175.5z"/>
		<path class="st7" d="M86.2,178c-0.5-0.5-0.3-2.3-0.8-2.3c-0.3,0-0.5,1,0,2.5C85.6,179.8,86.9,178.7,86.2,178z"/>
		<path class="st7" d="M146.4,176c-0.5-1-0.5-0.8-0.3,0.8S147.4,178,146.4,176z"/>
		<path class="st7" d="M123.4,175.5c-0.8-0.8-1,0-0.3,0.8C123.9,177,124.6,176.5,123.4,175.5z"/>
		<path class="st7" d="M76.8,172.7c-0.3,0-0.3,1.8,0.3,2.8c0.3,0.5,0.8,0.8,0.8,0.5C77.8,175.2,77,172.7,76.8,172.7z"/>
		<path class="st7" d="M83.6,176.2c0.5,0,0.5-2.3,0-2.8c-0.5-0.5,0,1.8-0.3,2.3c0,0-0.3,0.3-0.3,0.5
			C83.1,176.2,83.4,176.2,83.6,176.2z"/>
		<path class="st7" d="M106.9,175.5c0,0.3,0.3,0.3,0.5,0.3C108.2,175.2,105.6,171.7,106.9,175.5z"/>
		<path class="st7" d="M142.3,173.4c-0.3,0.3,0,1,0,1.3C143.6,177.2,142.9,172.4,142.3,173.4z"/>
		<path class="st7" d="M114.5,173.4c0-0.5-0.5-0.8-0.3,0.8c0,0.8,0.3,1,0.8,1C116.3,175.2,114.5,174.2,114.5,173.4z"/>
		<path class="st7" d="M119.8,173.7c0-0.3-0.3-0.5-0.3-0.5c0-1-0.5-0.3-0.5,0.8C119.1,176.7,120.3,174.2,119.8,173.7z"/>
		<path class="st7" d="M79.3,174.2c0,0.8,0.5,0.5,0.8-0.3c0.3-0.5-0.5-2.5-0.8-3C78.8,170.6,79.3,173.4,79.3,174.2z"/>
		<path class="st7" d="M144.9,171.9c-0.3-1.3-0.3-1.3-0.5-0.3c0,0.5,0,1,0,1.3C144.9,173.9,145.1,172.9,144.9,171.9z"/>
		<path class="st7" d="M75.8,170.1c-0.3-0.3-0.3-0.8-0.5-1.5c-0.3-1.5-0.8-1.3-0.5,0.5c0,0.8,0.3,1.5,0.3,1.5c0,0.3,0.3,0.3,0.5,0.3
			C76,170.9,76.3,170.4,75.8,170.1z"/>
		<path class="st7" d="M81.6,170.4c0.5,0.5,0.8,0,0.5-2c0-0.3-0.3-0.3-0.3-0.3C81.3,168.1,81.3,170.1,81.6,170.4z"/>
		<path class="st7" d="M118,169.9c0.5,0,0.8-1.5,0.3-2c-0.3-0.5-0.8,0.5-0.8,1.5C117.5,169.6,117.8,169.9,118,169.9z"/>
		<path class="st7" d="M83.6,167.1c0,0.3,0,0.8,0,1c0,0.5,1,1,1,0.3c0-0.8-0.8-2.3-1.3-2.3C82.6,166.3,83.4,166.6,83.6,167.1z"/>
		<path class="st7" d="M78.3,166.1c0,0.8,0,1.3,0.3,1.5C80.1,168.9,78.3,162.8,78.3,166.1z"/>
		<path class="st7" d="M141.6,166.3c-0.5-1-0.8-0.8-0.5,0.5C141.3,168.1,142.1,167.6,141.6,166.3z"/>
		<path class="st7" d="M137.5,165.1c0,0.5,0,1,0.3,1.3c0.5,0.5,1-0.3,0.8-0.8c-0.3-0.3-0.3-1-0.5-1.3c-0.3-1.3-1.3-1-0.8-0.5
			C137.3,164.1,137.5,164.6,137.5,165.1z"/>
		<path class="st7" d="M141.8,164.6c0-1-0.5-1.5-0.5-0.3C141.3,165.6,141.8,165.6,141.8,164.6z"/>
		<path class="st7" d="M80.6,164.3c0.3,0,0.5-0.3,0.3-1c-0.3-1.5-0.8-1.8-0.8-0.3C80.3,164.1,80.3,164.3,80.6,164.3z"/>
		<path class="st7" d="M115.3,162.5c0,0.5,0,0.8-0.3,0.8c-0.3,0-0.3,0.3-0.3,0.3c0.3,0.5,1.3,0.3,1.3-0.3c0-0.3,0-0.8,0-1.3
			C116,161.3,115.3,161.5,115.3,162.5z"/>
		<path class="st7" d="M75.5,162.8c0,1,0.5,1.3,0.8,0.5c0-0.3,0-0.8-0.3-1C75.5,161.8,75.5,161.8,75.5,162.8z"/>
		<path class="st7" d="M139.1,158.2c-0.3-0.5-0.3,0.5,0,1.5C139.8,162,139.6,159,139.1,158.2z"/>
		<path class="st7" d="M78.8,160c0.5,0,0.3-1.3-0.3-2C77.8,157.2,77.8,160,78.8,160z"/>
		<path class="st7" d="M136,157c0.3,0,0.3-0.3,0-1.5c-1-3.3-1-0.5-0.5,1.3C135.5,156.7,135.8,157,136,157z"/>
		<path class="st7" d="M75.8,155.5c0-1-0.5-1.5-0.8-0.8C74.8,156,75.8,156.5,75.8,155.5z"/>
		<path class="st7" d="M78.1,153.4v1c0,0.5,0,1.3,0.3,1.3C78.6,156.2,79.3,156,78.1,153.4z"/>
		<path class="st7" d="M114.8,153.9c0.3-0.3,0-1.5-0.5-1.5c-0.3,0-0.3,1.3,0,1.8C114.5,153.9,114.8,153.9,114.8,153.9z"/>
		<path class="st7" d="M111.7,145.8c-0.5-0.5-0.3-1.3-0.5-2l-0.3,0.8c-0.3,0.5-0.3,1-0.3,1.3C111,146.9,112.2,146.3,111.7,145.8z"/>
		<path class="st7" d="M76.3,143.3c-0.5,0-0.5,0.5-0.5,1.3C76.3,146.1,76.8,143.3,76.3,143.3z"/>
		<path class="st7" d="M78.6,125.6c0.3,0,0.5,1.3,0.5,4c0,5.8,0.3,0.8,1.5,11.6c0.5,4.3,1.3,2.5,0.8-1.5c-0.5-4.3-1.5-11.1-1.3-19.7
			c0-0.8-0.3-7.3-0.8-1.5c-0.3,1.8,0,5.8-0.5,6.3C78.3,125.3,78.3,125.6,78.6,125.6z"/>
		<path class="st7" d="M77.3,142c0.3,0,0.3-1.8,0-2c-0.5-0.3-0.8,0.8-0.3,1.3C77,141.5,77.3,142,77.3,142z"/>
		<path class="st7" d="M76.5,114.5c0,0.3-1,9.1,0,17.7c0.5,4.3,0.5,4.6,0.8,5.3c0.8,2.3,0.8,4.8,1.3,3.5c0.5-1-0.3-1.3-0.3-2.8
			c0-1.8-0.5-4,0-5.1c0.5-1-0.3-0.3-0.3-1.3s-0.3-7.6-0.3-8.4c0-1.3-0.3-6.3-0.3-9.9C77,113.2,76.5,113.2,76.5,114.5z"/>
		<path class="st7" d="M73.5,141c0.5,0,0.3-1.5,0-1.8C72.2,138.8,73,141,73.5,141z"/>
		<path class="st7" d="M75,136.7c-0.5-0.3-0.5,0.3-0.5,1.3C75,140.3,75.8,137.2,75,136.7z"/>
		<path class="st7" d="M126.9,138.5c0.3,0,0-1.5-0.3-1.8C126.1,136,126.4,138.5,126.9,138.5z"/>
		<path class="st7" d="M95.8,134.5c0.5-1,0-2,1-2.3c1-0.3,0-0.5,0.8-2.8c1.3-4.3-0.8-19-0.8-6.1c0,3.5,0,5.8-0.5,7.3
			C95.5,133.9,95.3,135.2,95.8,134.5z"/>
		<path class="st7" d="M123.4,132.4c0.8,1.8,0.8,2.3,1,1.3C124.6,130.9,122.6,130.7,123.4,132.4z"/>
		<path class="st7" d="M73,133.2c0-0.8-1-1.8-1-1c0,0.3,0,0.8,0.3,1C72.5,133.7,73,133.7,73,133.2z"/>
		<path class="st7" d="M125.1,131.7l0.3,0.8v-0.8C125.9,129.6,124.6,130.4,125.1,131.7z"/>
		<path class="st7" d="M100.3,126.1c-0.3-1,0.5-1.8,0.5-3.5c0-1.5,1-1.8-0.8-8.6c0,0-0.5,10.6-1.3,14.7c-0.3,1-0.3,2.3-0.3,2.5
			C98.6,133.2,100.6,127.4,100.3,126.1z"/>
		<path class="st7" d="M120.3,127.6c-0.5,0-0.3,0.8,0,1.5c0.3,0.3,0.5,0.5,0.5,0.5C121.1,129.4,120.6,127.6,120.3,127.6z"/>
		<path class="st7" d="M123.4,129.1c0.3,0.8,1,1,1,0.3C124.4,127.1,122.3,126.4,123.4,129.1z"/>
		<path class="st7" d="M120.8,124.8c-0.3,0.3-0.3,0.5,0.3,1c0.3,0.3,0.5,0.5,0.3,0.5c0,0-0.3,0.3,0,0.3c0.3,0.5,0.8-0.3,0.5-1.3
			C121.6,124.3,121.3,124.3,120.8,124.8z"/>
		<path class="st7" d="M124.1,125.6c0.3,0.8,0.3,0.8,0.5,0.3C124.9,123.8,123.1,123.3,124.1,125.6z"/>
		<path class="st7" d="M117.8,122.8c0,0.5,0.3,1,0.3,1.3s0.3,0.3,0.5,0.3s0.3-0.3,0-1.5C118,121.3,117.5,121.3,117.8,122.8z"/>
		<path class="st7" d="M121.3,122.6c0.3,0.8,0.5,0.8,0.5,0.5C122.6,121,120.6,120.3,121.3,122.6z"/>
		<path class="st7" d="M114.8,119.8c-0.3,0.3-0.3,0.5,0,1.8c0.5,2,0.8,2,0.8,0C115.5,119.8,115.5,119.5,114.8,119.8z"/>
		<path class="st7" d="M118.8,120c0-0.5-0.3-1-0.3-1.3c0-0.8-1.5-1-0.5,1C118.6,121,119.1,121,118.8,120z"/>
		<path class="st7" d="M122.3,118.8c-0.5,0.3,0.3,1.8,0.8,1.5c0.3,0,0.3-0.3,0.3-0.3C122.9,119.5,122.6,118.5,122.3,118.8z"/>
		<path class="st7" d="M124.1,120c0.5-0.5,0-2-0.5-1.8c-0.3,0-0.3,0.8,0,1.8C123.9,120,123.9,120.3,124.1,120z"/>
		<path class="st7" d="M121.6,117.2c0.3-1-0.3-2.8-0.8-2.8c-0.5,0-0.8,0.3-0.5,1C121.1,116.7,121.3,118.3,121.6,117.2z"/>
		<path class="st7" d="M81.3,116.5c0.3,1,0.8,0.8,0.8,0c0-0.5-0.5-1-0.8-0.8C81.1,115.7,81.3,116.2,81.3,116.5z"/>
		<path class="st7" d="M116.5,117.2c0.3-0.3-0.3-2.8-0.5-2.8C115.3,114,116,117.7,116.5,117.2z"/>
		<path class="st7" d="M118.6,114.2c0-0.3-1.3-0.3-1.3,0c0,0,0.3,0.8,0.5,1.5C118.6,117.5,118.8,117,118.6,114.2z"/>
		<path class="st7" d="M80.1,114.7c0.3-0.8,0.3-1-0.3-1s-0.8,1-0.3,1.3C79.6,115.2,79.8,115,80.1,114.7z"/>
		<path class="st7" d="M75.5,111.7c0.3,0,0.3,0.5,0.3,1s0.3,0.8,0.3,0.8c0.5-0.3,0.5-2.5-0.3-2.5C75.5,110.9,75,111.4,75.5,111.7z"
			/>
		<path class="st7" d="M118.6,109.6c-0.8,0-0.8,1.5,0,1.8c1,0.5,1,3.8,1.5,0.5C120.1,110.4,119.6,109.6,118.6,109.6z"/>
		<path class="st7" d="M78.3,108.1c-0.3,0-0.3,0.3-0.3,1C78.3,111.7,79.1,108.1,78.3,108.1z"/>
		<path class="st7" d="M77,106.1c-0.5-0.5-0.5,0-0.5,1.3C76.8,109.6,77.5,106.6,77,106.1z"/>
		<path class="st7" d="M79.8,102.1c-0.3,0.3-0.3,0.5,0,1c0.3,1,1.5,0.8,1.3,0.3c-0.3-0.8-0.3-5.6,0-6.3c0.3-0.5,0.3-0.8,0-0.8
			c-0.5,0,0-4.6-0.5-4.6c-0.5,0-0.3,3-0.8,3.8c-0.5,1.3-0.5,2.5-0.3,4.6C80.1,101,80.1,101.8,79.8,102.1z"/>
		<path class="st7" d="M91.5,95.5c0.5,0.8,2.8,5.3,3,5.3c0.3,0.3,0.8,2.5,1.3,2.5c0.3,0,0-2.3-0.3-3.3c-0.3-0.3-0.3-0.8-0.3-1.3
			c0-1-0.5-0.3-0.5-1c0-0.8-0.5-0.3-0.5-1s-0.8-0.5-1-1.5c-0.5-1.5-0.8-0.8-2.5-4.3c-0.8-1.8-1-2.5-1.8-5.3c0-0.5-0.3-0.8-0.5-0.8
			c-0.5,0-0.5,0.5-0.3,1.8C88.7,88.9,88.2,90.4,91.5,95.5z"/>
		<path class="st7" d="M82.9,92.9c-0.5-6.6-1.8,1.3,0,7.6C84.9,108.6,83.1,97,82.9,92.9z"/>
		<path class="st7" d="M86.7,91.7c0,1.3,0.3,2,0.5,2c0.3,0,2,3.5,2.5,4.8c0.5,1,0.8,1.5,1.3,2.5c1.3,2.8,1.5,1,1,0.3
			c-0.5-1-0.5-2.5-1.5-4.6c-1.8-3-2.3-4.3-2.3-4.8c0-0.3,0-0.8-0.3-0.8c-0.5-0.3-0.5-4.8-1.5-3.8c-0.3,0.3-0.3,0.5,0,1.3
			C86.2,89.1,86.4,90.4,86.7,91.7z"/>
		<path class="st7" d="M86.4,101.5c0,0.3,0.3,0.5,0.3,0.5c0.5,0,0.5-2.5,0-2.5c-0.5,0,0-2-0.3-2.3C85.9,97,86.2,95,85.9,95
			s-1.3-5.6-1.3-6.6l-0.3-0.3c-0.8,0,0.5,9.1,1.5,11.6C86.2,100.5,86.4,101.3,86.4,101.5z"/>
		<path class="st7" d="M77.8,236l0.5-0.8c0.5,0.3,2.5,1.3,2.8,1.5c0.5,0.8,1.3,0,0.5-0.5c-0.5-0.5-1.3-2-1.8-2
			c-0.8,0-1.5-1.8-2.8-1.5c-1,0.3-0.8,1,0,1.5c1,0.5,1,0.8,0.3,1.5C76.5,236.7,77.3,236.7,77.8,236z"/>
		<path class="st7" d="M79.3,230.6c-0.5,0.3-0.3,1.8,0.3,1.8c1,0,4,2,4,1.3C83.4,233.2,79.6,230.4,79.3,230.6z"/>
		<path class="st7" d="M81.6,229.1c-1,0-0.5,0.8,0.8,1.3C86.4,232.2,82.1,229.1,81.6,229.1z"/>
		<path class="st7" d="M183.6,184.6c0.3,0.5,0.8,0.5,0.8,0.3c0-0.8-2-3-2.3-2.8c0,0-0.3,0-0.3-0.3c0-0.5-0.8-1.3-1.3-1
			s-0.3-0.5-0.5-0.3C178.3,181.5,183.1,183.6,183.6,184.6z"/>
		<path class="st7" d="M180.8,178.5c2.8,1.8,0.3-0.5-2-3c-1.3-1.3-2.3-1.5-2.3-0.8C176.3,175.7,180.1,178.2,180.8,178.5z"/>
		<path class="st7" d="M176.3,172.7c3,2.3,3.3,2,0.8-0.8c-1.3-1.3-2-1.8-2.3-1.8C173.7,170.4,174.2,171.2,176.3,172.7z"/>
		<path class="st7" d="M174.7,167.1c0,0.5,0.8,0.5,0.8,0c0.3-0.5-2.8-3.3-3.3-2.8C171.7,165.1,174.7,166.3,174.7,167.1z"/>
		<path class="st7" d="M172.2,161.5c1,0.5,1.3,0.3,0.5-0.5c-0.3-0.3-0.8-0.5-1-0.5C171.2,160.8,171.2,161,172.2,161.5z"/>
		<path class="st7" d="M50.2,144.6c-2.3-2-3.8-1,2,2.5C54.8,148.6,51.7,145.8,50.2,144.6z"/>
		<path class="st7" d="M58.1,145.1c-0.3,0.3-2-1-2.5-1.5c-0.5-0.5-1.8,0-1.5,0.5c0.3,0.3,2.8,2,3,2c0.3,0,0.3,0,0.3,0.3
			s0.3,0.5,0.8,0.5c1.3,0.5,1.8,0.3,0.5-0.5c-0.5-0.3-0.5-0.5-0.5-1C58.1,145.1,58.1,145.1,58.1,145.1z"/>
		<path class="st7" d="M63.4,146.1c0-0.3-2.5-2.5-2.8-2.5c0,0-0.3-0.3-0.5-0.8c-0.3-1.3-0.3,0.3-1-0.3c-0.5-0.5-1,0.3-0.3,0.8
			C60.8,144.6,63.4,147.1,63.4,146.1z"/>
		<path class="st7" d="M41.9,144.3c0.3-0.3,0-0.3-0.3,0c-0.8,0.3-2.3,0-2.3,0.5C39.1,145.1,41.4,144.8,41.9,144.3z"/>
		<path class="st7" d="M66.2,144.1c0.5,0.5,0.8,0.3,0.3-0.5c-0.3-0.5-1.8-1.5-2.3-1.5c-0.5,0,0,1,0.8,1.3
			C65.4,143.3,66.2,143.8,66.2,144.1z"/>
		<path class="st7" d="M158.3,119.5c-0.8-0.8-1.8-0.8-1.8-0.3s1.3,0.8,2,1.3c1.8,1.8,2.3,0.8,1.3,0
			C159.3,120.3,158.8,119.8,158.3,119.5z"/>
		<path class="st7" d="M160.8,117.5c-0.8-0.8-1.3-1-1.5-0.8c-0.5,0.5,0,1,2,2.3C165.6,121.5,162.6,119,160.8,117.5z"/>
		<path class="st7" d="M167.1,117.7c-0.8-0.3-3.3-3.3-4.3-2c-0.3,0.3,0.3,0.8,2,1.8C168.2,119,167.4,117.7,167.1,117.7z"/>
		<path class="st7" d="M169.4,116.5c0.3,0.3,1,0.3,1,0c0-0.3,0-0.3-0.3-0.3s-0.8-0.5-1.5-1c-3-2-3.5-0.3-0.8,0.5
			C168.7,116,169.4,116.2,169.4,116.5z"/>
		<path class="st7" d="M175,114.5c-0.5,0-2.8-2.8-4-2.3c-0.8,0.3-1,1-0.5,1c0.5,0,2.8,1,3.8,1.5C175.5,115.7,175.2,114.5,175,114.5z
			"/>
		<path class="st7" d="M174.5,109.9c-0.5,0.3-0.8,1.5,0,1.5c0.3,0,1,0.3,1.8,0.8c2,1,2.8,0.8,1.3-0.3c-0.5-0.3-0.5-0.5-0.5-0.8
			c0.3-0.3,0-0.3-0.3-0.3C175.5,111.4,175.2,109.6,174.5,109.9z"/>
		<path class="st7" d="M178,109.1C178,109.4,178,109.1,178,109.1c-0.3-0.8-1.5-0.5-1.8,0.3c0,0.5,0,0.5,0.5,0.5
			c0.5,0,1.3,0.3,1.8,0.5c1.5,0.8,2.3,0.8,1.3,0c-0.5-0.3-1-0.8-1.3-1C178.5,109.1,178.3,109.1,178,109.1z"/>
		<path class="st7" d="M180.8,107.6c-0.3,0-0.5-0.3-0.8-0.5c-0.5-0.5-1.5-0.5-1.5,0.3c0,0.3,0.8,0.8,1.5,1
			C184.4,110.7,181.3,107.6,180.8,107.6z"/>
		<path class="st7" d="M181.1,106.1c-1,1.3,0.8,0.8,2.3,1.8C186.6,109.4,182.3,104.6,181.1,106.1z"/>
		<path class="st7" d="M184.1,104.1c-0.5,0.8-0.5,0.8,1.3,1.5C191.2,108.4,184.6,103.3,184.1,104.1z"/>
		<path class="st7" d="M131.2,77.2c0,1,7.6,7.1,7.6,6.1c0-0.3-1.8-2-2-2C136.3,81.3,131.2,75.5,131.2,77.2z"/>
		<path class="st7" d="M132,72.9c-1-0.5-2,0.3,2.3,3c1,0.5,1.8,1.5,2,1.3c0.3-0.3,0-0.5-2.3-2.3C132.7,73.7,133,73.5,132,72.9z"/>
		<path class="st7" d="M66.4,74.5c0.3-0.3-2-2.3-2.5-2.3C62.9,72.2,66.4,74.7,66.4,74.5z"/>
		<path class="st7" d="M131.2,68.4c0-0.3-0.3-0.5-0.5-0.5c-0.8,0-2.3-2-2.3-1c0,1.8,3.3,3.3,4.3,4.6c0.8,0.8,2.3,1.3-0.3-1.3
			C132,69.4,131.2,68.6,131.2,68.4z"/>
		<path class="st7" d="M94.5,69.4c0.5-0.3,0.5-0.3-0.3-0.5c-0.8-0.3-2.5-0.8-1.5,0.3C93,69.9,93.5,69.9,94.5,69.4z"/>
		<path class="st7" d="M62.1,68.6c0-0.3-2-2.3-2.5-2.3C58.3,66.4,62.1,69.4,62.1,68.6z"/>
		<path class="st7" d="M128.2,61.6c-1.3-0.8-1.5,0.3-0.3,1.3c2.3,2,4.8,4,4.8,3.3C132.5,65.6,129.2,62.3,128.2,61.6z"/>
		<path class="st7" d="M55.5,61.1c0,0.3,1,1.3,3,2.8c1.8,1.3,2.3,1.5,2.3,1c0-0.3-0.3-0.3-0.3-0.3c-0.3,0-0.8-0.5-1.5-1.3
			C57,61.3,55.5,60.3,55.5,61.1z"/>
		<path class="st7" d="M126.7,55.7c0.3-0.5-3-1.3-1.3,0.5c1.3,1,0.5,1.5,1.5,1.8c1,0.3,4,3.3,4,2.3c0,0-3.3-3.3-3.5-3.8
			C127.4,56,126.4,56.2,126.7,55.7z"/>
		<path class="st7" d="M55.3,57.3c1.8,1,2.3,1,0.8,0c-0.5-0.5-1.5-1.3-2.3-2C50.5,52.2,47.4,51.9,55.3,57.3z"/>
		<path class="st7" d="M124.4,48.9c-0.3,0-0.8-0.3-1-0.3c-2-0.5,1.3,3.3,4.3,5.3c1.3,0.8,1.3,0,0-1c-0.5-0.5-1-1-1-1
			C126.7,51.4,124.9,49.2,124.4,48.9z"/>
	</g>
</g>
</svg>
