<?xml version="1.0" encoding="utf-8"?>
<!-- Generator: Adobe Illustrator 27.0.1, SVG Export Plug-In . SVG Version: 6.00 Build 0)  -->
<svg version="1.1" id="Layer_1" xmlns="http://www.w3.org/2000/svg" xmlns:xlink="http://www.w3.org/1999/xlink" x="0px" y="0px"
	 viewBox="0 0 283.7 336.5" style="enable-background:new 0 0 283.7 336.5;" xml:space="preserve">
<style type="text/css">
	.st0{fill:none;}
	.st1{enable-background:new    ;}
	.st2{fill:#8DBF67;}
	.st3{fill:#56D1D9;}
	.st4{fill:#CC62AA;}
	.st5{fill:#BA526B;}
	.st6{fill:#E3C872;}
	.st7{fill:#9F6BC7;}
	.st8{fill:#1F1F1F;}
</style>
<g>
	<rect y="241" class="st0" width="283.7" height="81.2"/>
	<g class="st1">
		<path d="M26,282.4L26,282.4v0.1c0,1.2,0.2,2.4,0.7,3.5c0.5,1.1,1.1,2.2,1.9,3.1c0.8,0.9,1.8,1.6,2.9,2.2c1.1,0.6,2.3,0.8,3.7,0.9
			c1.2,0,2.4-0.1,3.5-0.4c1.1-0.3,2.2-0.9,3.2-1.8c0.4-0.3,0.7-0.6,1.1-0.8c0.4-0.3,0.8-0.5,1.3-0.6c0.5-0.1,1-0.1,1.5,0
			c0.5,0.1,1.1,0.4,1.6,0.9c0.4,0.3,0.7,0.7,0.8,1.2c0.2,0.4,0.3,0.9,0.3,1.4c0,0.5-0.1,0.9-0.3,1.4c-0.2,0.5-0.5,0.9-1,1.4
			c-1.4,1.5-3.2,2.6-5.1,3.4c-2,0.8-4.1,1.1-6.3,1.1c-2.4,0-4.6-0.4-6.6-1.3c-2.1-0.9-3.9-2-5.4-3.5c-1.5-1.5-2.8-3.3-3.7-5.3
			c-0.9-2-1.3-4.2-1.3-6.5v0l0-0.1l0,0c0-2.4,0.4-4.6,1.3-6.6c0.9-2,2.1-3.8,3.7-5.4c1.5-1.5,3.3-2.7,5.4-3.6
			c2.1-0.9,4.3-1.3,6.6-1.3c2.2,0,4.3,0.4,6.3,1.1c2,0.8,3.7,1.9,5.1,3.4c0.4,0.4,0.7,0.9,1,1.4c0.2,0.5,0.3,1,0.3,1.4
			c0,0.5-0.1,0.9-0.3,1.4c-0.2,0.4-0.5,0.8-0.8,1.2c-0.6,0.5-1.1,0.8-1.6,0.9c-0.5,0.1-1,0.1-1.5,0c-0.5-0.1-0.9-0.3-1.3-0.6
			c-0.4-0.3-0.8-0.5-1.1-0.8c-1.1-0.9-2.1-1.5-3.2-1.8c-1.1-0.3-2.3-0.5-3.5-0.5c-1.3,0-2.5,0.3-3.6,0.9c-1.1,0.6-2.1,1.3-2.9,2.2
			c-0.8,0.9-1.5,1.9-1.9,3.1C26.2,280,26,281.1,26,282.4z"/>
		<path d="M60.6,269.6c1.3-1.2,2.7-2.2,4.2-2.9c1.5-0.7,3.1-1.1,4.8-1.1c2,0,3.9,0.4,5.6,1.2c1.7,0.8,3.1,2,4.3,3.4
			c1.2,1.4,2.1,3.2,2.8,5.2c0.7,2,1,4.2,1,6.5v13.6c0,1-0.3,1.8-1,2.5c-0.7,0.7-1.5,1-2.5,1c-1,0-1.8-0.3-2.5-1
			c-0.7-0.7-1-1.5-1-2.5V282c0-1.4-0.2-2.7-0.5-3.9c-0.3-1.2-0.8-2.2-1.5-3c-0.6-0.8-1.4-1.5-2.4-1.9c-0.9-0.4-2-0.7-3.2-0.7
			c-1.2,0-2.2,0.2-3.2,0.7c-1,0.4-1.8,1.1-2.6,1.8c-0.7,0.8-1.3,1.7-1.7,2.8c-0.4,1.1-0.7,2.2-0.7,3.5v14c0,1-0.3,1.8-1,2.5
			c-0.7,0.7-1.5,1-2.5,1c-0.5,0-1-0.1-1.4-0.3c-0.4-0.2-0.8-0.4-1.1-0.7c-0.3-0.3-0.6-0.7-0.7-1.1c-0.2-0.4-0.3-0.9-0.3-1.4v-38.1
			c0-0.5,0.1-1,0.3-1.4c0.2-0.4,0.4-0.8,0.8-1.1s0.7-0.6,1.1-0.8c0.4-0.2,0.9-0.3,1.4-0.3c0.5,0,1,0.1,1.4,0.3
			c0.4,0.2,0.8,0.4,1.1,0.8c0.3,0.3,0.6,0.7,0.7,1.1c0.2,0.4,0.3,0.9,0.3,1.4V269.6z"/>
		<path d="M97.2,269.2c1.5-1.1,3.1-2,4.9-2.6c1.8-0.6,3.6-0.9,5.6-0.9h0.1c1.2,0,2,0.3,2.7,1c0.6,0.7,1,1.5,1,2.5
			c0,1-0.4,1.8-1.1,2.5s-1.6,1-2.6,1h-0.1c-1.4,0-2.8,0.3-4.1,0.8c-1.3,0.6-2.4,1.3-3.4,2.3c-1,1-1.7,2.1-2.3,3.4
			c-0.6,1.3-0.8,2.7-0.8,4.2v12.1c0,1-0.3,1.8-1,2.5c-0.7,0.7-1.5,1-2.5,1c-0.5,0-0.9-0.1-1.4-0.3s-0.8-0.4-1.1-0.7
			c-0.3-0.3-0.6-0.7-0.8-1.1c-0.2-0.4-0.3-0.9-0.3-1.4v-26.2c0-0.5,0.1-1,0.3-1.4c0.2-0.4,0.4-0.8,0.8-1.1c0.3-0.3,0.7-0.6,1.1-0.8
			c0.4-0.2,0.9-0.3,1.4-0.3c0.5,0,1,0.1,1.4,0.3c0.4,0.2,0.8,0.4,1.1,0.8c0.3,0.3,0.5,0.7,0.7,1.1C97.1,268.1,97.2,268.6,97.2,269.2
			L97.2,269.2z"/>
		<path d="M128.3,287.2l8.7-19.5c0.2-0.4,0.5-0.8,0.8-1.1c0.3-0.3,0.7-0.6,1.1-0.7c0.4-0.2,0.8-0.2,1.3-0.2c0.5,0,0.9,0.1,1.4,0.3
			c0.4,0.2,0.8,0.5,1.2,0.8c0.3,0.3,0.6,0.7,0.7,1.1c0.2,0.4,0.2,0.9,0.2,1.3s-0.1,0.9-0.3,1.4l-17.6,38.5c-0.2,0.4-0.5,0.8-0.8,1.1
			c-0.3,0.3-0.7,0.6-1.1,0.7c-0.4,0.2-0.9,0.2-1.3,0.2c-0.5,0-0.9-0.1-1.4-0.3c-0.9-0.4-1.5-1-1.7-1.9c-0.2-0.9-0.1-1.8,0.3-2.7
			l4.8-10.8l-11.3-24.9c-0.2-0.4-0.3-0.9-0.3-1.4c0-0.5,0.1-0.9,0.2-1.3c0.2-0.4,0.4-0.8,0.7-1.1s0.7-0.6,1.1-0.8
			c0.4-0.2,0.9-0.3,1.4-0.3s0.9,0.1,1.3,0.2c0.4,0.2,0.8,0.4,1.1,0.7c0.3,0.3,0.6,0.7,0.8,1.2L128.3,287.2z"/>
		<path d="M153.7,283.6c-1.3-0.6-2.5-1.2-3.6-2c-1-0.8-1.9-1.7-2.5-2.7s-0.9-2.3-0.9-3.7c0-1.5,0.3-2.8,1-4s1.5-2.2,2.6-3.1
			s2.3-1.5,3.7-1.9c1.4-0.5,2.9-0.7,4.4-0.7c1,0,2,0.1,3,0.3s2,0.5,3,0.9c0.9,0.4,1.8,0.9,2.5,1.5c0.8,0.6,1.3,1.3,1.7,2.1
			c0.3,0.7,0.4,1.3,0.4,1.9s-0.3,1.1-0.7,1.5c-0.4,0.5-1,0.8-1.6,1c-0.6,0.2-1.3,0.1-1.9-0.2c-0.5-0.4-1-0.7-1.4-1
			c-0.4-0.3-0.9-0.6-1.4-0.9c-0.5-0.3-0.9-0.5-1.4-0.6c-0.5-0.2-1.1-0.2-1.7-0.2c-1.4,0-2.6,0.3-3.6,0.8s-1.4,1.4-1.4,2.5
			c0,0.6,0.2,1.1,0.5,1.5c0.3,0.4,0.7,0.8,1.3,1.1c0.5,0.3,1.2,0.6,1.9,0.9c0.7,0.3,1.5,0.5,2.4,0.8c1.4,0.4,2.8,0.9,4,1.4
			c1.3,0.5,2.4,1.2,3.4,1.9s1.8,1.7,2.3,2.7s0.9,2.3,0.9,3.8c0,1.4-0.3,2.7-0.9,3.9s-1.4,2.3-2.5,3.2c-1.1,0.9-2.3,1.6-3.8,2.1
			c-1.4,0.5-3,0.8-4.7,0.8c-1.1,0-2.3-0.1-3.4-0.3c-1.2-0.2-2.3-0.6-3.4-1.1c-1.1-0.5-2.1-1.1-3-1.9c-0.9-0.8-1.6-1.7-2.2-2.7
			c-0.4-0.7-0.6-1.3-0.5-1.9s0.2-1.1,0.4-1.6c0.3-0.4,0.6-0.8,1.1-1.1c0.5-0.3,1-0.4,1.5-0.5c0.6,0,1.1,0.1,1.7,0.3
			c0.6,0.3,1.1,0.7,1.6,1.3c0.8,1.1,1.6,1.9,2.6,2.4c1,0.5,2.2,0.8,3.6,0.8c0.6,0,1.3-0.1,1.9-0.2c0.6-0.2,1.2-0.4,1.6-0.7
			c0.5-0.3,0.9-0.7,1.1-1.1c0.3-0.4,0.4-0.9,0.4-1.5c0-0.7-0.2-1.3-0.6-1.7c-0.4-0.5-0.8-0.9-1.4-1.2s-1.2-0.6-1.9-0.8
			c-0.7-0.2-1.3-0.4-1.9-0.6C156.4,284.7,155.1,284.2,153.7,283.6z"/>
		<path d="M173.7,282.4c0-2.3,0.4-4.5,1.3-6.5c0.9-2,2.1-3.8,3.6-5.3c1.5-1.5,3.3-2.7,5.4-3.6s4.2-1.3,6.5-1.3s4.5,0.4,6.5,1.3
			s3.8,2.1,5.3,3.6c1.5,1.5,2.7,3.3,3.6,5.3c0.9,2,1.4,4.2,1.4,6.5v12.9c0,0.5-0.1,1-0.3,1.4c-0.2,0.4-0.4,0.8-0.8,1.1
			c-0.3,0.3-0.7,0.6-1.1,0.8c-0.4,0.2-0.9,0.3-1.4,0.3c-0.9,0-1.7-0.3-2.3-0.9c-0.6-0.6-1-1.4-1.1-2.3c-1.4,1.1-2.9,2-4.6,2.6
			c-1.6,0.6-3.4,1-5.2,1c-2.3,0-4.5-0.4-6.5-1.3s-3.8-2.1-5.4-3.6c-1.5-1.5-2.7-3.3-3.6-5.3C174.1,286.9,173.7,284.8,173.7,282.4z
			 M180.7,282.5c0,1.3,0.3,2.6,0.8,3.8c0.5,1.2,1.2,2.2,2.1,3.1c0.9,0.9,1.9,1.6,3.1,2.1c1.2,0.5,2.5,0.8,3.8,0.8
			c1.4,0,2.6-0.3,3.8-0.8c1.2-0.5,2.2-1.2,3.1-2.1c0.9-0.9,1.6-1.9,2.1-3.1c0.5-1.2,0.8-2.5,0.8-3.8c0-1.4-0.3-2.6-0.8-3.8
			c-0.5-1.2-1.2-2.2-2.1-3.1s-1.9-1.6-3.1-2.1c-1.2-0.5-2.5-0.8-3.8-0.8c-1.3,0-2.6,0.3-3.8,0.8c-1.2,0.5-2.2,1.2-3.1,2.1
			c-0.9,0.9-1.6,1.9-2.1,3.1C180.9,279.8,180.7,281.1,180.7,282.5z"/>
		<path d="M221.3,295.4c0,1-0.3,1.8-1,2.5s-1.5,1-2.5,1c-1,0-1.8-0.3-2.5-1c-0.7-0.7-1-1.5-1-2.5v-38.2c0-1,0.3-1.8,1-2.5
			c0.7-0.7,1.5-1,2.5-1c1,0,1.8,0.3,2.5,1s1,1.5,1,2.5V295.4z"/>
		<path d="M228.3,256.5c0.2-0.5,0.5-0.9,0.8-1.3c0.4-0.4,0.8-0.6,1.2-0.8s1-0.3,1.5-0.3s1,0.1,1.5,0.3s0.9,0.5,1.2,0.8
			c0.4,0.4,0.6,0.8,0.8,1.3c0.2,0.5,0.3,1,0.3,1.5s-0.1,1-0.3,1.5c-0.2,0.5-0.5,0.9-0.8,1.2c-0.4,0.4-0.8,0.6-1.2,0.8
			c-0.5,0.2-1,0.3-1.5,0.3s-1-0.1-1.5-0.3c-0.5-0.2-0.9-0.5-1.2-0.8c-0.4-0.4-0.6-0.8-0.8-1.2c-0.2-0.5-0.3-1-0.3-1.5
			S228.1,256.9,228.3,256.5z M235.4,295.3c0,1-0.3,1.8-1,2.5c-0.7,0.7-1.5,1-2.5,1c-0.5,0-0.9-0.1-1.4-0.3c-0.4-0.2-0.8-0.4-1.1-0.7
			c-0.3-0.3-0.6-0.7-0.8-1.1c-0.2-0.4-0.3-0.9-0.3-1.4v-26.2c0-0.5,0.1-1,0.3-1.4c0.2-0.4,0.4-0.8,0.8-1.1c0.3-0.3,0.7-0.6,1.1-0.8
			c0.4-0.2,0.9-0.3,1.4-0.3c0.5,0,1,0.1,1.4,0.3c0.4,0.2,0.8,0.4,1.1,0.8s0.5,0.7,0.7,1.1c0.2,0.4,0.3,0.9,0.3,1.4V295.3z"/>
		<path d="M248.1,283.6c-1.3-0.6-2.5-1.2-3.6-2c-1-0.8-1.9-1.7-2.5-2.7s-0.9-2.3-0.9-3.7c0-1.5,0.3-2.8,1-4s1.5-2.2,2.6-3.1
			s2.3-1.5,3.7-1.9c1.4-0.5,2.9-0.7,4.4-0.7c1,0,2,0.1,3,0.3s2,0.5,3,0.9c0.9,0.4,1.8,0.9,2.5,1.5c0.8,0.6,1.3,1.3,1.7,2.1
			c0.3,0.7,0.4,1.3,0.4,1.9s-0.3,1.1-0.7,1.5c-0.4,0.5-1,0.8-1.6,1c-0.6,0.2-1.3,0.1-1.9-0.2c-0.5-0.4-1-0.7-1.4-1
			c-0.4-0.3-0.9-0.6-1.4-0.9c-0.5-0.3-0.9-0.5-1.4-0.6c-0.5-0.2-1.1-0.2-1.7-0.2c-1.4,0-2.6,0.3-3.6,0.8s-1.4,1.4-1.4,2.5
			c0,0.6,0.2,1.1,0.5,1.5c0.3,0.4,0.7,0.8,1.3,1.1c0.5,0.3,1.2,0.6,1.9,0.9c0.7,0.3,1.5,0.5,2.4,0.8c1.4,0.4,2.8,0.9,4,1.4
			c1.3,0.5,2.4,1.2,3.4,1.9s1.8,1.7,2.3,2.7s0.9,2.3,0.9,3.8c0,1.4-0.3,2.7-0.9,3.9s-1.4,2.3-2.5,3.2c-1.1,0.9-2.3,1.6-3.8,2.1
			c-1.4,0.5-3,0.8-4.7,0.8c-1.1,0-2.3-0.1-3.4-0.3c-1.2-0.2-2.3-0.6-3.4-1.1c-1.1-0.5-2.1-1.1-3-1.9c-0.9-0.8-1.6-1.7-2.2-2.7
			c-0.4-0.7-0.6-1.3-0.5-1.9s0.2-1.1,0.4-1.6c0.3-0.4,0.6-0.8,1.1-1.1c0.5-0.3,1-0.4,1.5-0.5c0.6,0,1.1,0.1,1.7,0.3
			c0.6,0.3,1.1,0.7,1.6,1.3c0.8,1.1,1.6,1.9,2.6,2.4c1,0.5,2.2,0.8,3.6,0.8c0.6,0,1.3-0.1,1.9-0.2c0.6-0.2,1.2-0.4,1.6-0.7
			c0.5-0.3,0.9-0.7,1.1-1.1c0.3-0.4,0.4-0.9,0.4-1.5c0-0.7-0.2-1.3-0.6-1.7c-0.4-0.5-0.8-0.9-1.4-1.2s-1.2-0.6-1.9-0.8
			c-0.7-0.2-1.3-0.4-1.9-0.6C250.8,284.7,249.4,284.2,248.1,283.6z"/>
	</g>
	<g>
		<polygon class="st2" points="200.2,205.2 200.2,180.7 179.1,168.6 158,180.7 158,205.2 179.1,217.3 		"/>
		<polygon class="st3" points="200.4,78 200.4,47.5 174.2,32.5 147.9,47.5 147.9,78 174.2,93.1 		"/>
		<polygon class="st4" points="75.5,144.7 75.5,116.5 51.1,102.5 26.8,116.5 26.8,144.7 51.1,158.7 		"/>
		<polygon class="st5" points="137,66.5 137,34.3 109.2,18.4 81.4,34.3 81.4,66.5 109.2,82.4 		"/>
		<polygon class="st6" points="115.9,228.4 115.9,188.4 81.4,168.6 46.9,188.4 46.9,228.4 81.4,248.2 		"/>
		<polygon class="st7" points="264.2,173.3 264.2,134.3 230.5,115 196.8,134.3 196.8,173.3 230.5,192.6 		"/>
		<g>
			<path class="st8" d="M125.5,91.2C125.6,91.2,125.6,91.2,125.5,91.2C125.6,91.1,125.6,91.1,125.5,91.2L125.5,91.2z"/>
			<path class="st8" d="M146.6,88.6L146.6,88.6L146.6,88.6z"/>
			<path class="st8" d="M115.7,106.6c-2-1.2-4.1-2.2-6.4-2.8c-0.9-0.2-1.6-0.5-2.2-1.1c-1.2-1.2-2.7-1.9-4.4-1.8
				c-0.5,0-1-0.2-1.4-0.5c-0.6-0.4-1.2-1-1.8-1.2c-1-0.3-1.9-0.7-2.8-1.1c-0.8-0.4-1.6-0.4-2.4,0.1c-0.3,0.2-0.4,0.4-0.2,0.7
				c0.3,0.1,0.6,0.3,0.8,0.4c-0.1,0.4-0.2,0.8-0.3,1.3c0.4,0,0.6,0,0.8,0c1.9-0.4,3.7,0.4,5.4,1c0.3,0.1,0.5,0.2,0.7,0.5
				c1.1,1.4,2.8,1.9,4.4,2.4c0.5,0.2,1.1,0.4,1.6,0.6c1.1,0.6,2.3,1.1,3.5,1.7c1.6,0.7,3.2,1.5,4.9,1.8c0.6,0.1,1.1,0.5,1.5,1
				c0.1,0.1,0.2,0.2,0.3,0.4c-0.2-1-0.6-2-1-2.9C116.4,107,116.1,106.8,115.7,106.6z"/>
			<path class="st8" d="M158.1,106.7c2-1.2,4.1-2.2,6.4-2.8c0.9-0.2,1.6-0.5,2.2-1.1c1.2-1.2,2.7-1.9,4.4-1.8c0.5,0,1-0.2,1.4-0.5
				c0.6-0.4,1.2-1,1.8-1.2c1-0.3,1.9-0.7,2.8-1.1c0.8-0.4,1.6-0.4,2.4,0.1c0.3,0.2,0.4,0.4,0.2,0.7c-0.3,0.1-0.6,0.3-0.8,0.4
				c0.1,0.4,0.2,0.8,0.3,1.3c-0.4,0-0.6,0-0.8,0c-1.9-0.4-3.7,0.4-5.4,1c-0.3,0.1-0.5,0.2-0.7,0.5c-1.1,1.4-2.8,1.9-4.4,2.4
				c-0.5,0.2-1.1,0.4-1.6,0.6c-1.1,0.6-2.3,1.1-3.5,1.7c-1.6,0.7-3.2,1.5-4.9,1.8c-0.6,0.1-1.1,0.5-1.5,1c-0.1,0.1-0.2,0.2-0.3,0.4
				c0.2-1,0.6-2,1-2.9C157.5,107,157.8,106.8,158.1,106.7z"/>
			<path class="st8" d="M146.6,88.6L146.6,88.6L146.6,88.6z"/>
			<path class="st8" d="M146.6,88.6L146.6,88.6L146.6,88.6z"/>
			<path class="st8" d="M164.1,111.1c-0.3,0.1-0.7,0.3-1,0.4c0,0,0,0,0-0.1l-0.2,0.2c-2.8,1.2-5.5,2.3-8.3,3.5
				c-1.3,0.6-2.5,0.1-3.7-0.6c0.6-0.7,1-1.3,1.6-1.9c0.3-0.3,0.6-0.5,1-0.7c1.3-0.6,2.4-1.3,3.2-2.4c0.3-0.4,0.7-0.7,1.2-0.8
				c1.5-0.3,2.9-0.8,4.2-1.5c0-0.2,0-0.3,0-0.3l-0.8-1.8c-1.2,0.6-2.3,1.2-3.4,1.8c-0.4,0.2-0.7,0.3-1.1,0.2
				c-1.7-0.3-3.1,0.5-4.4,1.4c-0.4,0.3-0.7,0.6-1,0.9c-0.2,0.2-0.5,0.2-0.8,0.4c-0.1-1.5-0.2-2.9-0.3-4.2c0-0.5,0-0.9-0.1-1.3
				c-0.4-1.4-0.6-2.8-1.3-4c-0.4-0.7-0.3-1.4,0.2-2c0.8-1.1,1.6-2.2,2.3-3.4c0.5-0.9,1.2-1.6,2.1-2.2c0.6-0.4,1.2-0.8,1.8-1.3
				c0.7-0.6,1.4-0.9,2.3-0.9c0.4,0,0.8,0,1.1-0.1c0.3-0.5-0.1-0.7-0.2-1c0-0.3,0.1-0.7,0.2-1c-0.8-0.3-1.4-0.1-2,0.4
				c-0.4,0.3-0.8,0.7-1.3,0.8c-0.7,0.2-1.3,0.7-1.8,1.2c-0.7,0.7-1.4,1.5-2.4,1.9c-0.2,0.1-0.5,0.3-0.6,0.6c-0.6,0.7-1.2,1.3-2,1.8
				c-0.8,0.4-1.5,1-2.2,1.6c-1.3-0.6-1.4-1.7-1.6-2.9c0.5,0,0.9-0.1,1.3-0.1c0.9-0.1,1.4-0.8,2-1.2c0.4-0.3,0.4-0.8,0.4-1.2
				c-0.3-0.1-0.4-0.3-0.2-0.5c0.1-0.1,0.2-0.2,0.3-0.4l0,0c0.1-0.1,0.1-0.2,0.2-0.3c-0.1,0-0.2,0.1-0.4,0.1c-0.6,0.1-1.1,0.6-2,0.6
				c0.5-0.3,0.8-0.5,1.1-0.8c-0.1-0.1-0.1-0.2-0.2-0.3c-0.3,0-0.6,0.1-0.9,0.1c0.8-0.5,1.6-1.1,2.4-1.6c0-0.1-0.1-0.1-0.1-0.2
				c-0.5,0.1-1.1,0.3-1.6,0.4c-0.1,0.1-0.2,0.1-0.3,0.2l0,0l0,0l0,0c0.1-0.1,0.2-0.1,0.3-0.2c0.5-0.3,1-0.7,1.5-1s1-0.5,1.5-0.7
				c0.2-0.1,0.5-0.2,0.2-0.5c-0.9,0.3-0.9,0.3-1.5,0.2c0.4-0.3,0.7-0.6,1-0.9c0.3-0.2,0.4-0.4,0-0.6c0.4-0.5,1-1,0.8-1.8
				c-0.2-0.6,0-1,0.2-1.5c0.1-0.3,0.4-0.7,0.2-1.2c-0.7,0.2-0.7,1-1.1,1.3c-0.6,0.1-1.1,0.3-1.6,0.4c-0.5,1.1-0.6,2.3-1.7,3.3
				c0.1-0.7,0.2-1,0.3-1.4s0.3-0.7,0.4-1.1c0.1-0.3,0.6-0.6,0.2-1.1c-0.8,0.3-0.8,1.3-1.3,1.8c-0.4-0.6,0.1-1.3-0.3-1.9
				c-0.8,1.1-0.3,2.4-0.7,3.8c-0.1-0.9-0.2-1.6-0.2-2.3c0-0.1-0.2-0.1-0.4-0.2c-0.3,1.5,0,3.1-0.3,4.5c-0.1-1.2-0.2-2.4-0.3-3.7
				c0-0.1-0.2-0.1-0.3-0.2c-0.1,0.1-0.3,0.2-0.3,0.4c0,0.6-0.1,1.2-0.1,1.9c0,0.7,0,1.5,0,2.2c0,0.6-0.2,1.2-0.8,1.9
				c0-1.1,0-2,0-2.8c0-0.9,0.6-1.7,0.4-2.6c-0.7,0-0.5,0.7-0.9,1l0,0c-0.3-0.1-0.5-0.3-0.7,0.1c-0.3,0.6-0.4,1.2-0.4,1.8
				c0,0.6,0,1.2,0,1.9c-0.2-0.2-0.3-0.2-0.3-0.3c-0.1-0.8-0.1-1.5-0.2-2.3c-0.6,0.2-0.3,0.9-0.7,1.2c-0.6,0.5-0.5,1.1-0.3,1.7
				s0.4,1.3,0.4,2.1c-1.7-0.6-3.3-0.4-4.9-0.2c-0.4-1.1,0.5-2,0.3-3.1c-0.3-0.4-0.7-0.8-1.1-1.3c-0.4,0.6,0.1,1.3-0.6,1.9
				c0-0.4-0.1-0.6-0.1-0.9c0.1-0.8,0-1.6-0.3-2.3c-0.1-0.2-0.1-0.5-0.6-0.2c0,0.2,0,0.5,0,0.7c-0.2-0.5-0.5-1-0.7-1.5
				c0-0.1-0.2-0.1-0.4-0.1c-0.2,0.6,0.1,1.1,0.2,1.6c0.1,0.6,0.1,1.2,0.1,1.9c0,0.5,0.1,1.1-0.1,1.8c-0.6-1-0.8-1.8-0.8-2.8
				s0-1.9,0-2.9c0-0.2-0.1-0.3-0.2-0.5c-0.1,0-0.1,0-0.2,0c-0.1,1.4-0.2,2.8-0.3,4.1c-0.4-0.7-0.3-1.4-0.3-2.1
				c0-0.9,0.1-1.8-0.1-2.7c-0.5,0.1-0.3,0.5-0.4,0.7c-0.1,0.2-0.2,0.5-0.2,0.7c-0.2-0.7-0.2-1.5-0.3-2.2c0-0.3-0.1-0.6-0.6-0.4
				c0,0.4,0.1,0.8,0.1,1.2c0,0.3,0.2,0.7-0.2,1c-0.8-1.9-0.8-1.9-1.7-2.3c0.2,0.5,0.4,0.9,0.6,1.3c0.2,0.5,0.4,0.9,0.5,1.4
				c0.1,0.2,0.2,0.4-0.2,0.5c-0.9-0.8-0.8-2.1-1.4-3c-0.4-0.1-0.7-0.2-1-0.3c-0.1,0-0.2,0.2-0.3,0.3c-0.3-0.5-0.6-1-0.9-1.4
				c-0.1-0.1-0.3-0.2-0.6-0.4c-0.1,1,0.5,1.5,0.6,2.2c-0.2,0.3-0.3,0.7-0.5,1c0.3,0.4,0.5,0.7,0.7,1c-0.4,0.1-0.5,0.2-0.2,0.5
				c0.1,0.1,0.3,0.1,0.4,0.2c0.4,0.4,0.9,0.9,1.3,1.3c-0.3,0-0.6,0-0.9-0.1l0,0c-0.2-0.1-0.5-0.2-0.7-0.3c0,0,0,0-0.1,0.1l0.1-0.1
				c-0.1,0-0.2-0.1-0.4-0.1c0.1,0.1,0.2,0.2,0.3,0.3l0,0c0.2,0.1,0.4,0.2,0.6,0.4c0.9,0.5,1.8,0.9,2.6,1.4c0.2,0.1,0.6,0.2,0.7,0.7
				c-0.6-0.3-1-0.5-1.5-0.7s-1.1-0.3-1.7-0.5c0.3,0.2,0.7,0.5,1,0.7c0.4,0.3,0.8,0.6,1.3,0.9c-0.3-0.1-0.7-0.2-1.1-0.3
				c-0.4-0.1-0.8-0.2-1.3-0.3c0.9,0.6,1.9,1.2,2.8,1.8c0,0,0,0.1-0.1,0.1c-0.6-0.2-1.1-0.4-1.7-0.6l-0.1,0.1
				c0.2,0.3,0.4,0.5,0.6,0.8c-0.3,0.1-0.4,0.1-0.6,0.1c0,0.6,0.3,1.1,0.7,1.4c0.8,0.6,1.5,1.1,2.6,1.1c0.1,0,0.3,0.1,0.5,0.3
				c-0.3,1-0.4,2.1-1.6,2.7c-0.8-0.5-1.5-1.2-2.3-1.6c-0.6-0.4-1.1-0.8-1.5-1.3c-0.3-0.4-0.7-0.8-1.1-1c-0.7-0.4-1.3-0.9-1.8-1.5
				c-0.5-0.5-1-1-1.6-1.3c-0.8-0.3-1.5-0.7-2.2-1.2c-0.5-0.4-1.1-0.5-1.7-0.1c0.2,0.4,0.6,0.8,0.1,1.2c-0.1,0.1-0.1,0.4-0.2,0.7
				c0.6,0,1,0,1.4,0.1c0.5,0.1,1.1,0.2,1.6,0.5c1.1,0.7,2.1,1.5,3.1,2.3c0.2,0.2,0.4,0.4,0.6,0.6c1,1.4,1.9,2.8,2.9,4.2
				c0.5,0.7,0.5,1.4,0.2,2.2c-0.9,2.1-1.6,4.4-1.4,6.7c0.1,0.9-0.1,1.8-0.4,2.6c-0.7,0-0.9-0.5-1.3-0.9c-1.4-1.2-2.9-2-4.8-1.8
				c-0.2,0-0.4,0-0.6,0c0.4,0.9,0.8,1.9,1,2.9c0.7,0.9,1.7,1.5,2.8,2c0.4,0.2,0.8,0.4,1.1,0.8c0.5,0.6,1,1.2,1.5,1.8
				c-1.5,0.8-2.8,1.1-4.4,0.4c-1.8-0.9-3.8-1.5-5.6-2.4c-4.2-1.9-8.4-3.7-12.5-5.7c-3.8-1.8-7.3-4.1-10.8-6.4
				c-3.7-2.4-7.4-4.9-11.1-7.3c-3.8-2.5-7.8-4.8-12.1-6.6c-1.3-0.6-2.6-1.1-4-1.4c-1.7-0.4-3.3-0.7-5-1.1c-1.1-0.2-2-0.6-3-1.1
				c-3.6-2.2-7.4-4.1-11.4-5.6c-1.1-0.4-2.1-0.7-3.2-1c-3.3-0.8-6.6-1-9.9-1.2c-0.7-0.1-1.4,0-2,0c-4.2,0.1-7.7,3.9-8.1,7
				c-0.2,1.8-0.6,3.6-0.2,5.4c0.1,0.4,0.1,0.8,0,1.2c-0.5,2.2,0,4.3,1,6.3c0.3,0.6,0.5,1.1,0.5,1.8c0,0.9,0.3,1.8,1,2.5
				s1,1.4,1.2,2.3c0.1,0.5,0.4,1.1,0.6,1.6c0.7,1.4,1.5,2.8,2.3,4.1c0.5,0.9,1.3,1.7,2.3,2.2c0.5,0.3,0.9,0.6,1.1,1.2
				c0.6,1.4,1.4,2.7,2.3,3.9c0.6,0.8,1.3,1.5,2.3,2c0.3,0.2,0.7,0.4,1,0.7c1.7,2.1,3.8,3.8,5.8,5.5c0.9,0.8,2,1.5,3.1,2.1
				c0.3,0.1,0.6,0.4,0.8,0.6c1,1.4,2.3,2.5,3.6,3.6c1.1,0.9,2.3,1.4,3.7,1.5c0.4,0,0.8,0.1,1.1,0.2c2.2,1.1,4.6,1.2,6.9,1.4
				c0.8,0.1,1.6,0,2.4-0.1c1.4-0.1,2.8-0.3,4.2-0.5c0.7-0.1,1.3,0.1,1.8,0.8c-1.9,0.4-3.4,1.2-4.7,2.2c-0.2,0.2-0.5,0.3-0.8,0.4
				c-2.2,0.8-4.2,2.1-6.2,3.5c-0.7,0.5-1.4,1.1-1.8,1.8c-0.6,1.1-1.3,2.1-2,3.1c-0.8,1.2-0.8,2.4-0.2,3.7c0.2,0.4,0.4,0.7,0.6,1
				c0.1,0.3,0.3,0.6,0.3,0.9c0,1.3,0.6,2.4,1.3,3.4c2,2.7,4.5,4.9,7.8,6.2c0.2,1.3,1.1,1.9,2.2,2.3c0.7,0.3,1.3,0.6,2.1,0.8
				c1.6,0.5,3.3,0.7,4.9,1.4c1.5,0.7,3,1.5,4.6,2.1c0.7,0.3,1.4,0.4,2.2,0.3c0.4,0,0.8-0.1,1.2-0.1c0.7,0.6,1.5,1.1,2.4,1.2
				c1,0,2,0.2,3,0.5c0.3,0.1,0.6,0.1,0.8,0.1c1.5,0,3.1,0.1,4.6,0.1c0.6,0,1.1,0,1.6,0.3c0.9,0.5,1.9,0.6,2.9,0.8
				c1.2,0.2,2.4,0,3.6-0.1c1.7-0.1,3.2-0.7,4.6-1.7c0.3-0.2,0.6-0.5,1-0.6c1.2-0.2,2-1,2.8-1.8c1-1.1,2-2.2,2.7-3.5
				c1.3-2.1,2.6-4.2,3.8-6.5c1-2,2.1-3.9,3.6-5.5c0.3-0.4,0.6-0.8,0.8-1.3c0.9-2.4,2.1-4.8,3.3-7.1c0.1-0.2,0.2-0.6,0.6-0.4
				c0,0.8,0,1.6,0,2.4c-0.2,2.7-0.4,5.3-0.6,8c0,0.4-0.1,0.8-0.2,1.2c-0.3,1.8-0.8,3.7-1,5.5s-0.5,3.5-0.9,5.2
				c-0.6,2.8-1.1,5.5-1.9,8.3c-0.4,1.6-0.6,3.2-0.3,4.9c0.1,0.6,0.1,1.1-0.1,1.7c-0.7,2.4-0.2,1.8-2.1,3.5c-0.2,0.2-0.4,0.4-0.6,0.6
				c-0.1,0.2-0.2,0.4-0.3,0.6c-0.1,0.4,0.2,0.8,0.6,0.6s0.6-0.1,0.9,0.2c0.1,0.1,0.3,0.1,0.6,0.2c0.1-0.5,0.2-0.9,0.3-1.3
				c0.1-0.3,0.1-0.6,0.3-0.8c0.8-0.5,0.9-1.4,1-2.2c0.2-0.7,0.2-1.5,0.4-2.2c0.2-0.8,0.3-1.6,0.2-2.3c-0.3-1.5,0.1-2.8,0.7-4.1
				c0.4-0.9,0.8-1.8,1.1-2.7c0.9-2.8,1.4-5.7,1.7-8.6c0.1-1,0.2-2,0.5-3c0.6-1.7,1-3.3,1.4-5.1c0.3-1.4,0.7-2.9,1.1-4.3
				c0.1-0.3,0.2-0.6,0.4-0.9c0.1,1,0.1,1.9,0,2.8c-0.3,2.3-0.2,4.5,0.2,6.8c0.2,0.8,0.2,1.6,0.1,2.3c-0.2,1.7-0.3,3.5-0.4,5.2
				c-0.1,0.9,0,1.9,0.4,2.6c0.5,0.9,0.5,1.7,0.5,2.6c-0.1,2-0.2,4-0.2,5.9c0,0.9,0,1.7,0.4,2.5c0.3,0.6,0.3,1.2,0.3,1.8
				c0,1.5-0.1,2.9-0.1,4.4c0,1.6,0.4,3.1,1.1,4.4c0.5,0.8,0.5,1.6,0.6,2.4c0.1,1.6,0.2,3.3,0.3,4.9c0.1,0.8,0.2,1.7,0.8,2.4
				c0.4,0.5,0.5,1.1,0.6,1.7c0.2,1.2,0.3,2.5,0.7,3.7c0.4,1.3,0.7,2.5,0.7,3.8c0,0.9,0.1,1.7,0.6,2.4c0.6,0.8,0.7,1.6,0.8,2.5
				c0.1,1.2,0.3,2.5,0.6,3.7c0.8,2.6,3.9,3.4,5.9,1.5c0.6-0.6,0.9-1.3,1.1-2.1c0.1-0.9,0.3-1.8,0.4-2.7c0.1-1.1,0.3-2.1,0.9-3
				c0.3-0.4,0.4-1.1,0.5-1.6c0.2-1.7,0.3-3.5,1-5.1c0.3-0.6,0.3-1.3,0.4-2c0.1-1.1,0.2-2.2,0.9-3.2c0.2-0.3,0.3-0.7,0.4-1.1
				c0.1-0.9,0.3-1.9,0.4-2.9c0.1-1.2,0-2.4,0.1-3.6c0-0.4,0.1-0.8,0.3-1.1c1.4-2.2,1.6-4.5,1.5-7c0-0.8-0.1-1.6-0.1-2.4
				c0-0.6,0-1.2,0.3-1.8c0.2-0.6,0.4-1.2,0.4-1.8c0-2.4-0.1-4.7-0.2-7.1c0-0.6,0-1.1,0.3-1.6c0.5-0.8,0.7-1.8,0.6-2.8
				c-0.1-1.3-0.2-2.6-0.2-3.9c-0.1-1.3-0.4-2.6-0.1-3.9c0.5-2.6,0.4-5.2,0.2-7.8c-0.1-0.7-0.2-1.5-0.1-2.5c0.8,2.3,1.3,4.4,1.8,6.4
				c0.3,1.4,0.7,2.7,1.2,4.1c0.2,0.7,0.4,1.4,0.5,2.1c0.4,4.5,1.2,8.9,3.1,13c0.5,1.2,0.7,2.4,0.6,3.6c-0.1,0.6,0,1.2,0.1,1.9
				c0.1,0.9,0.4,1.9,0.6,2.8c0.1,0.7,0.2,1.4,0.9,2c0.3,0.2,0.3,0.7,0.5,1.1c0.1,0.3,0,0.8,0.5,1c0.5-0.1,0.9-0.7,1.5-0.3
				c0,0,0.3-0.2,0.3-0.3c0.1-0.4,0-0.8-0.3-1.1c-0.4-0.4-0.7-0.7-1.1-1c-0.7-0.6-1.1-1.3-1.3-2.1c-0.3-1-0.4-2-0.3-3
				c0.2-1.2,0.1-2.5-0.2-3.7c-1.3-4.8-2.4-9.5-2.9-14.4c0-0.3-0.1-0.6-0.2-0.8c-0.3-1.4-0.6-2.8-0.8-4.2c-0.3-2.3-0.5-4.6-0.7-6.9
				c-0.1-1.2-0.1-2.5-0.1-3.7c0-0.3,0.1-0.5,0.1-1.1c0.3,0.4,0.5,0.6,0.6,0.8c1,2.1,2.1,4.2,3,6.3c0.4,0.8,0.8,1.6,1.4,2.3
				c1.1,1.3,2,2.8,2.8,4.4c1.3,2.7,2.8,5.3,4.6,7.7c0.8,1.1,1.8,2.2,2.8,3.2c0.4,0.4,1,0.9,1.5,1.1c0.8,0.3,1.4,0.6,2.1,1.1
				c0.5,0.3,1.1,0.6,1.7,0.8c1.8,0.7,3.7,0.9,5.7,0.8c1.2-0.1,2.4-0.3,3.4-0.9c0.5-0.3,1.1-0.3,1.6-0.3c2.3,0,4.6,0.2,6.9-0.6
				c0.3-0.1,0.7-0.1,1-0.1c0.8,0,1.6-0.2,2.2-0.7c0.5-0.4,1-0.5,1.6-0.4c1,0.2,1.9,0,2.8-0.4c1.3-0.6,2.6-1.2,3.8-1.8
				c0.5-0.3,1-0.5,1.6-0.5c2.3-0.3,4.4-1.2,6.4-2.1c0.6-0.3,1.1-0.7,1.3-1.4c0.1-0.2,0.2-0.4,0.3-0.5c3.5-1.5,6.1-3.8,8.1-6.9
				c0.4-0.7,0.8-1.4,0.8-2.2s0.3-1.4,0.7-2c0.9-1.5,1-3-0.1-4.4c-0.2-0.3-0.5-0.6-0.7-1c-0.2-0.3-0.5-0.6-0.6-1
				c-0.4-1.3-1.4-2.2-2.5-2.9s-2.3-1.4-3.5-2.1c-1.7-1-3.6-1.7-5.2-2.8c-0.8-0.5-1.8-0.7-2.7-1.1c1.1-0.8,1.1-0.8,2-0.7
				c3,0.4,5.9,0.7,9,0.3c1.3-0.2,2.6-0.4,3.8-0.9c0.6-0.3,1.2-0.5,1.9-0.5c1-0.1,2-0.4,2.8-1c1.5-1.1,3.1-2.3,4.2-3.9
				c0.2-0.3,0.5-0.6,0.9-0.8c3.3-1.8,6-4.4,8.6-7.2c0.4-0.4,0.7-0.8,1.3-1.1c1-0.4,1.7-1.1,2.3-2c0.9-1.2,1.8-2.5,2.3-3.9
				c0.2-0.5,0.5-0.9,1-1.1c1.3-0.6,2.1-1.6,2.7-2.7c0.5-0.9,1.1-1.9,1.6-2.8c0.6-1.2,1.2-2.4,1.3-3.9c0.3-0.3,0.6-0.5,0.9-0.8
				c0.6-0.7,1-1.4,1-2.3c0-0.8,0.3-1.5,0.7-2.2c0.9-1.9,1.4-4,0.9-6.1c-0.1-0.3-0.1-0.6,0-0.8c0.4-1.9,0.1-3.8-0.2-5.7
				c-0.2-1.4-0.8-2.6-1.7-3.7c-1.8-2.1-4.1-3.4-6.9-3.3c-0.6,0-1.1,0-1.7,0c-2.5,0.2-5.1,0.4-7.6,0.8s-4.8,1.1-7.1,2.1
				c-3.2,1.3-6.3,2.9-9.2,4.7c-1.3,0.8-2.6,1.3-4.1,1.5c-3.2,0.6-6.4,1.3-9.4,2.8c-0.2,0.1-0.5,0.1-0.9,0.2 M150.8,93.9L150.8,93.9
				L150.8,93.9c-0.1,0.1-0.2,0.1-0.2,0.2C150.6,94,150.7,94,150.8,93.9z M120.9,160.7c0,0.1,0,0.2,0,0.3
				C120.9,160.8,120.9,160.8,120.9,160.7z M143.2,94.1c0.1,0.1,0.2,0.2,0.3,0.3C143.4,94.4,143.3,94.2,143.2,94.1z M153.6,164
				c0-0.1,0-0.2,0-0.3C153.6,163.8,153.6,163.9,153.6,164z M151.9,154.9c0.1,0.4,0.3,0.7,0.5,1.1l0,0
				C152.2,155.6,152,155.3,151.9,154.9c-0.1-0.4-0.3-0.7-0.4-1.1C151.6,154.2,151.7,154.6,151.9,154.9z"/>
			<path class="st8" d="M150.3,87.4c-0.6,0-1.2,0.2-1.7,0.6c0,0.1,0.1,0.1,0.1,0.2C149.3,88.1,149.9,87.9,150.3,87.4z"/>
			<path class="st8" d="M150.3,87.4L150.3,87.4L150.3,87.4L150.3,87.4z"/>
			<path class="st8" d="M124.3,88.5c-0.1,0-0.2,0-0.3,0c0.1,0.1,0.1,0.2,0.2,0.2s0.2,0,0.3,0C124.5,88.7,124.4,88.6,124.3,88.5z"/>
			<polygon class="st8" points="124.5,88.8 124.5,88.8 124.5,88.8 			"/>
			<path class="st8" d="M150.6,87.3c-0.1,0-0.1,0.1-0.2,0.1L150.6,87.3C150.5,87.4,150.6,87.3,150.6,87.3z"/>
			<path class="st8" d="M150.3,87.4L150.3,87.4C150.4,87.4,150.4,87.4,150.3,87.4C150.4,87.4,150.4,87.4,150.3,87.4z"/>
			<path class="st8" d="M124.7,89.7C124.7,89.7,124.8,89.7,124.7,89.7L124.7,89.7C124.8,89.8,124.8,89.8,124.7,89.7z"/>
			<path class="st8" d="M124.9,89.8c0.2,0.1,0.4,0.2,0.6,0.4l0.1-0.1C125.4,90,125.2,89.9,124.9,89.8z"/>
			<path class="st8" d="M124.9,89.8L124.9,89.8L124.9,89.8L124.9,89.8z"/>
			<path class="st8" d="M148.1,89.6c0.2-0.1,0.4-0.3,0.6-0.4l0,0c0.2-0.1,0.4-0.3,0.6-0.4c0.1,0,0.2,0,0.3,0s0.1-0.1,0.2-0.2
				c-0.1,0-0.2-0.1-0.3,0c-0.1,0-0.2,0.1-0.2,0.2l0,0c-0.2,0.1-0.5,0.2-0.7,0.3l0.1,0.1l-0.1-0.1c-0.2,0.1-0.5,0.2-0.7,0.3l0,0
				c-0.2,0.1-0.5,0.2-0.7,0.3c0.1,0.1,0.1,0.2,0.2,0.3C147.6,89.8,147.9,89.7,148.1,89.6z"/>
			<path class="st8" d="M125.5,91.2L125.5,91.2C125.5,91.1,125.5,91.1,125.5,91.2C125.5,91.1,125.5,91.1,125.5,91.2z"/>
			<path class="st8" d="M125.3,91c0.1,0,0.1,0.1,0.2,0.1C125.5,91.1,125.5,91,125.3,91C125.4,91,125.4,91,125.3,91z"/>
			<path class="st8" d="M123.9,87.4L123.9,87.4c0.2,0.1,0.4,0.2,0.7,0.4c0,0,0,0,0.1,0l0,0C124.3,87.6,124.1,87.5,123.9,87.4z"/>
			<path class="st8" d="M123.9,87.4L123.9,87.4C123.8,87.4,123.8,87.4,123.9,87.4C123.8,87.4,123.8,87.4,123.9,87.4z"/>
			<path class="st8" d="M123.6,87.3c0.1,0,0.1,0,0.2,0.1C123.8,87.4,123.8,87.4,123.6,87.3C123.7,87.3,123.7,87.3,123.6,87.3z"/>
			<path class="st8" d="M148.3,91.2L148.3,91.2L148.3,91.2L148.3,91.2C148.3,91.1,148.4,91.1,148.3,91.2
				C148.4,91.1,148.3,91.1,148.3,91.2C148.3,91.1,148.3,91.1,148.3,91.2L148.3,91.2C148.3,91.1,148.3,91.1,148.3,91.2L148.3,91.2
				L148.3,91.2z"/>
			<path class="st8" d="M148.5,91c-0.1,0-0.1,0.1-0.2,0.1C148.4,91.1,148.4,91.1,148.5,91C148.5,91.1,148.5,91.1,148.5,91z"/>
			<path class="st8" d="M147,88.4L147,88.4c-0.1,0-0.2,0.1-0.3,0.2C146.8,88.5,146.9,88.5,147,88.4z"/>
		</g>
	</g>
</g>
</svg>
