<?xml version="1.0" encoding="utf-8"?>
<!-- Generator: Adobe Illustrator 27.0.1, SVG Export Plug-In . SVG Version: 6.00 Build 0)  -->
<svg version="1.1" id="Layer_1" xmlns="http://www.w3.org/2000/svg" xmlns:xlink="http://www.w3.org/1999/xlink" x="0px" y="0px"
	 viewBox="0 0 283.7 336.5" style="enable-background:new 0 0 283.7 336.5;" xml:space="preserve">
<style type="text/css">
	.st0{fill:#8DBF67;}
	.st1{fill:#56D1D9;}
	.st2{fill:#CC62AA;}
	.st3{fill:#9F6BC7;}
	.st4{fill:#E3C872;}
	.st5{fill:#BA526B;}
	.st6{opacity:0.88;}
	.st7{fill:#FFFFFF;}
	.st8{fill:#231F20;}
	.st9{fill:#6BA240;}
	.st10{fill:#B34791;}
	.st11{fill:#8258A3;}
	.st12{fill:#CEB25A;}
	.st13{fill:#A84A61;}
	.st14{fill:none;}
</style>
<g>
	<rect y="242.2" class="st14" width="283.7" height="81.2"/>
	<path d="M26,283.6L26,283.6v0.1c0,1.2,0.2,2.4,0.7,3.5c0.5,1.1,1.1,2.2,1.9,3.1c0.8,0.9,1.8,1.6,2.9,2.2c1.1,0.6,2.3,0.8,3.7,0.9
		c1.2,0,2.4-0.1,3.5-0.4c1.1-0.3,2.2-0.9,3.2-1.8c0.4-0.3,0.7-0.6,1.1-0.8c0.4-0.3,0.8-0.5,1.3-0.6c0.5-0.1,1-0.1,1.5,0
		c0.5,0.1,1.1,0.4,1.6,0.9c0.4,0.3,0.7,0.7,0.8,1.2c0.2,0.4,0.3,0.9,0.3,1.4c0,0.5-0.1,0.9-0.3,1.4c-0.2,0.5-0.5,0.9-1,1.4
		c-1.4,1.5-3.2,2.6-5.2,3.4c-2,0.8-4.1,1.1-6.3,1.1c-2.4,0-4.6-0.4-6.6-1.3c-2.1-0.9-3.9-2-5.4-3.5s-2.8-3.3-3.7-5.3
		c-0.9-2-1.3-4.2-1.3-6.5v0l0-0.1l0,0c0-2.4,0.4-4.6,1.3-6.6c0.9-2,2.1-3.8,3.7-5.4s3.3-2.7,5.4-3.6c2.1-0.9,4.3-1.3,6.6-1.3
		c2.2,0,4.3,0.4,6.3,1.1c2,0.8,3.7,1.9,5.2,3.4c0.4,0.4,0.7,0.9,1,1.4c0.2,0.5,0.3,1,0.3,1.4c0,0.5-0.1,0.9-0.3,1.4
		c-0.2,0.4-0.5,0.8-0.8,1.2c-0.6,0.5-1.1,0.8-1.6,0.9c-0.5,0.1-1,0.1-1.5,0c-0.5-0.1-0.9-0.3-1.3-0.6s-0.8-0.5-1.1-0.8
		c-1.1-0.9-2.1-1.5-3.2-1.8s-2.3-0.5-3.5-0.5c-1.3,0-2.5,0.3-3.6,0.9c-1.1,0.6-2.1,1.3-2.9,2.2s-1.5,1.9-1.9,3.1
		C26.2,281.2,26,282.4,26,283.6z"/>
	<path d="M60.6,270.8c1.3-1.2,2.7-2.2,4.2-2.9c1.5-0.7,3.1-1.1,4.8-1.1c2,0,3.9,0.4,5.6,1.2s3.1,2,4.3,3.4c1.2,1.4,2.1,3.2,2.8,5.2
		c0.7,2,1,4.2,1,6.5v13.6c0,1-0.3,1.8-1,2.5c-0.7,0.7-1.5,1-2.5,1s-1.8-0.3-2.5-1c-0.7-0.7-1-1.5-1-2.5v-13.4c0-1.4-0.2-2.7-0.5-3.9
		s-0.8-2.2-1.5-3c-0.6-0.8-1.4-1.5-2.4-1.9c-0.9-0.4-2-0.7-3.2-0.7c-1.2,0-2.2,0.2-3.2,0.7c-1,0.4-1.8,1.1-2.6,1.8
		c-0.7,0.8-1.3,1.7-1.7,2.8c-0.4,1.1-0.7,2.2-0.7,3.5v14c0,1-0.3,1.8-1,2.5c-0.7,0.7-1.5,1-2.5,1c-0.5,0-1-0.1-1.4-0.3
		c-0.4-0.2-0.8-0.4-1.1-0.7c-0.3-0.3-0.6-0.7-0.7-1.1c-0.2-0.4-0.3-0.9-0.3-1.4v-38.1c0-0.5,0.1-1,0.3-1.4c0.2-0.4,0.4-0.8,0.8-1.1
		c0.3-0.3,0.7-0.6,1.1-0.8c0.4-0.2,0.9-0.3,1.4-0.3c0.5,0,1,0.1,1.4,0.3c0.4,0.2,0.8,0.4,1.1,0.8c0.3,0.3,0.6,0.7,0.7,1.1
		c0.2,0.4,0.3,0.9,0.3,1.4V270.8z"/>
	<path d="M97.2,270.4c1.5-1.1,3.1-2,4.9-2.6c1.8-0.6,3.6-0.9,5.6-0.9h0.1c1.2,0,2,0.3,2.7,1s1,1.5,1,2.5c0,1-0.4,1.8-1.1,2.5
		c-0.7,0.7-1.6,1-2.6,1h-0.1c-1.4,0-2.8,0.3-4.1,0.8s-2.4,1.3-3.4,2.3s-1.7,2.1-2.3,3.4c-0.6,1.3-0.8,2.7-0.8,4.2v12.1
		c0,1-0.3,1.8-1,2.5c-0.7,0.7-1.5,1-2.5,1c-0.5,0-0.9-0.1-1.4-0.3c-0.4-0.2-0.8-0.4-1.1-0.7c-0.3-0.3-0.6-0.7-0.8-1.1
		c-0.2-0.4-0.3-0.9-0.3-1.4v-26.2c0-0.5,0.1-1,0.3-1.4c0.2-0.4,0.4-0.8,0.8-1.1s0.7-0.6,1.1-0.8c0.4-0.2,0.9-0.3,1.4-0.3
		c0.5,0,1,0.1,1.4,0.3c0.4,0.2,0.8,0.4,1.1,0.8s0.5,0.7,0.7,1.1C97.1,269.4,97.2,269.9,97.2,270.4L97.2,270.4z"/>
	<path d="M128.3,288.5l8.7-19.5c0.2-0.4,0.5-0.8,0.8-1.1c0.3-0.3,0.7-0.6,1.1-0.7c0.4-0.2,0.8-0.2,1.3-0.2c0.5,0,0.9,0.1,1.4,0.3
		c0.4,0.2,0.8,0.5,1.2,0.8c0.3,0.3,0.6,0.7,0.7,1.1c0.2,0.4,0.2,0.9,0.2,1.3s-0.1,0.9-0.3,1.4l-17.6,38.5c-0.2,0.4-0.5,0.8-0.8,1.1
		s-0.7,0.6-1.1,0.7c-0.4,0.2-0.9,0.2-1.3,0.2c-0.5,0-0.9-0.1-1.4-0.3c-0.9-0.4-1.5-1-1.7-1.9c-0.2-0.9-0.1-1.8,0.3-2.7l4.8-10.8
		l-11.3-24.9c-0.2-0.4-0.3-0.9-0.3-1.4c0-0.5,0.1-0.9,0.2-1.3c0.2-0.4,0.4-0.8,0.7-1.1s0.7-0.6,1.1-0.8c0.4-0.2,0.9-0.3,1.4-0.3
		c0.5,0,0.9,0.1,1.3,0.2c0.4,0.2,0.8,0.4,1.1,0.7c0.3,0.3,0.6,0.7,0.8,1.2L128.3,288.5z"/>
	<path d="M153.7,284.8c-1.3-0.6-2.5-1.2-3.6-2c-1-0.8-1.9-1.7-2.5-2.7c-0.6-1-0.9-2.3-0.9-3.7c0-1.5,0.3-2.8,1-4
		c0.6-1.2,1.5-2.2,2.6-3.1c1.1-0.8,2.3-1.5,3.7-1.9c1.4-0.5,2.9-0.7,4.4-0.7c1,0,2,0.1,3,0.3c1,0.2,2,0.5,3,0.9
		c0.9,0.4,1.8,0.9,2.5,1.5c0.8,0.6,1.3,1.3,1.7,2.1c0.3,0.7,0.4,1.3,0.4,1.9s-0.3,1.1-0.7,1.5c-0.4,0.5-1,0.8-1.6,1
		c-0.6,0.2-1.3,0.1-1.9-0.2c-0.5-0.4-1-0.7-1.4-1c-0.4-0.3-0.9-0.6-1.4-0.9c-0.5-0.3-0.9-0.5-1.4-0.6c-0.5-0.2-1.1-0.2-1.7-0.2
		c-1.4,0-2.6,0.3-3.6,0.8c-1,0.5-1.4,1.4-1.4,2.5c0,0.6,0.2,1.1,0.5,1.5c0.3,0.4,0.7,0.8,1.3,1.1c0.5,0.3,1.2,0.6,1.9,0.9
		c0.7,0.3,1.5,0.5,2.4,0.8c1.4,0.4,2.8,0.9,4,1.4c1.3,0.5,2.4,1.2,3.4,1.9s1.8,1.7,2.3,2.7s0.9,2.3,0.9,3.8c0,1.4-0.3,2.7-0.9,3.9
		s-1.4,2.3-2.5,3.2c-1.1,0.9-2.3,1.6-3.8,2.1c-1.4,0.5-3,0.8-4.7,0.8c-1.1,0-2.3-0.1-3.4-0.3s-2.3-0.6-3.4-1.1
		c-1.1-0.5-2.1-1.1-3-1.9c-0.9-0.8-1.6-1.7-2.2-2.7c-0.4-0.7-0.6-1.3-0.5-1.9c0-0.6,0.2-1.1,0.4-1.6c0.3-0.4,0.6-0.8,1.1-1.1
		c0.5-0.3,1-0.4,1.5-0.5c0.6,0,1.1,0.1,1.7,0.3s1.1,0.7,1.6,1.3c0.8,1.1,1.6,1.9,2.6,2.4c1,0.5,2.2,0.8,3.6,0.8
		c0.6,0,1.3-0.1,1.9-0.2c0.6-0.2,1.2-0.4,1.6-0.7c0.5-0.3,0.9-0.7,1.1-1.1c0.3-0.4,0.4-0.9,0.4-1.5c0-0.7-0.2-1.3-0.6-1.7
		c-0.4-0.5-0.8-0.9-1.4-1.2s-1.2-0.6-1.9-0.8c-0.7-0.2-1.3-0.4-1.9-0.6C156.4,285.9,155.1,285.4,153.7,284.8z"/>
	<path d="M173.7,283.7c0-2.3,0.4-4.5,1.3-6.5c0.9-2,2.1-3.8,3.6-5.3c1.5-1.5,3.3-2.7,5.4-3.6s4.2-1.3,6.5-1.3s4.5,0.4,6.5,1.3
		s3.8,2.1,5.3,3.6s2.7,3.3,3.6,5.3c0.9,2,1.4,4.2,1.4,6.5v12.9c0,0.5-0.1,1-0.3,1.4c-0.2,0.4-0.4,0.8-0.8,1.1
		c-0.3,0.3-0.7,0.6-1.1,0.8c-0.4,0.2-0.9,0.3-1.4,0.3c-0.9,0-1.7-0.3-2.3-0.9c-0.6-0.6-1-1.4-1.1-2.3c-1.4,1.1-2.9,2-4.5,2.6
		c-1.6,0.6-3.4,1-5.2,1c-2.3,0-4.5-0.4-6.5-1.3s-3.8-2.1-5.4-3.6c-1.5-1.5-2.7-3.3-3.6-5.3C174.1,288.2,173.7,286,173.7,283.7z
		 M180.7,283.7c0,1.3,0.3,2.6,0.8,3.8s1.2,2.2,2.1,3.1c0.9,0.9,1.9,1.6,3.1,2.1c1.2,0.5,2.5,0.8,3.8,0.8c1.4,0,2.6-0.3,3.8-0.8
		c1.2-0.5,2.2-1.2,3.1-2.1c0.9-0.9,1.6-1.9,2.1-3.1s0.8-2.5,0.8-3.8c0-1.4-0.3-2.6-0.8-3.8s-1.2-2.2-2.1-3.1s-1.9-1.6-3.1-2.1
		c-1.2-0.5-2.5-0.8-3.8-0.8c-1.3,0-2.6,0.3-3.8,0.8c-1.2,0.5-2.2,1.2-3.1,2.1s-1.6,1.9-2.1,3.1S180.7,282.3,180.7,283.7z"/>
	<path d="M221.3,296.6c0,1-0.3,1.8-1,2.5c-0.7,0.7-1.5,1-2.5,1c-1,0-1.8-0.3-2.5-1c-0.7-0.7-1-1.5-1-2.5v-38.2c0-1,0.3-1.8,1-2.5
		c0.7-0.7,1.5-1,2.5-1c1,0,1.8,0.3,2.5,1c0.7,0.7,1,1.5,1,2.5V296.6z"/>
	<path d="M228.3,257.7c0.2-0.5,0.5-0.9,0.8-1.3c0.4-0.4,0.8-0.6,1.2-0.8c0.5-0.2,1-0.3,1.5-0.3s1,0.1,1.5,0.3s0.9,0.5,1.2,0.8
		c0.4,0.4,0.6,0.8,0.8,1.3c0.2,0.5,0.3,1,0.3,1.5s-0.1,1-0.3,1.5c-0.2,0.5-0.5,0.9-0.8,1.2c-0.4,0.4-0.8,0.6-1.2,0.8
		c-0.5,0.2-1,0.3-1.5,0.3s-1-0.1-1.5-0.3c-0.5-0.2-0.9-0.5-1.2-0.8c-0.4-0.4-0.6-0.8-0.8-1.2c-0.2-0.5-0.3-1-0.3-1.5
		S228.1,258.2,228.3,257.7z M235.4,296.6c0,1-0.3,1.8-1,2.5c-0.7,0.7-1.5,1-2.5,1c-0.5,0-0.9-0.1-1.4-0.3c-0.4-0.2-0.8-0.4-1.1-0.7
		c-0.3-0.3-0.6-0.7-0.8-1.1c-0.2-0.4-0.3-0.9-0.3-1.4v-26.2c0-0.5,0.1-1,0.3-1.4c0.2-0.4,0.4-0.8,0.8-1.1c0.3-0.3,0.7-0.6,1.1-0.8
		c0.4-0.2,0.9-0.3,1.4-0.3c0.5,0,1,0.1,1.4,0.3c0.4,0.2,0.8,0.4,1.1,0.8c0.3,0.3,0.5,0.7,0.7,1.1c0.2,0.4,0.3,0.9,0.3,1.4V296.6z"/>
	<path d="M248.1,284.8c-1.3-0.6-2.5-1.2-3.6-2c-1-0.8-1.9-1.7-2.5-2.7c-0.6-1-0.9-2.3-0.9-3.7c0-1.5,0.3-2.8,1-4
		c0.6-1.2,1.5-2.2,2.6-3.1c1.1-0.8,2.3-1.5,3.7-1.9c1.4-0.5,2.9-0.7,4.4-0.7c1,0,2,0.1,3,0.3c1,0.2,2,0.5,3,0.9
		c0.9,0.4,1.8,0.9,2.5,1.5c0.8,0.6,1.3,1.3,1.7,2.1c0.3,0.7,0.4,1.3,0.4,1.9s-0.3,1.1-0.7,1.5c-0.4,0.5-1,0.8-1.6,1
		c-0.6,0.2-1.3,0.1-1.9-0.2c-0.5-0.4-1-0.7-1.4-1c-0.4-0.3-0.9-0.6-1.4-0.9c-0.5-0.3-0.9-0.5-1.4-0.6c-0.5-0.2-1.1-0.2-1.7-0.2
		c-1.4,0-2.6,0.3-3.6,0.8c-1,0.5-1.4,1.4-1.4,2.5c0,0.6,0.2,1.1,0.5,1.5c0.3,0.4,0.7,0.8,1.3,1.1c0.5,0.3,1.2,0.6,1.9,0.9
		c0.7,0.3,1.5,0.5,2.4,0.8c1.4,0.4,2.8,0.9,4,1.4c1.3,0.5,2.4,1.2,3.4,1.9s1.8,1.7,2.3,2.7s0.9,2.3,0.9,3.8c0,1.4-0.3,2.7-0.9,3.9
		s-1.4,2.3-2.5,3.2c-1.1,0.9-2.3,1.6-3.8,2.1c-1.4,0.5-3,0.8-4.7,0.8c-1.1,0-2.3-0.1-3.4-0.3s-2.3-0.6-3.4-1.1
		c-1.1-0.5-2.1-1.1-3-1.9c-0.9-0.8-1.6-1.7-2.2-2.7c-0.4-0.7-0.6-1.3-0.5-1.9c0-0.6,0.2-1.1,0.4-1.6c0.3-0.4,0.6-0.8,1.1-1.1
		c0.5-0.3,1-0.4,1.5-0.5c0.6,0,1.1,0.1,1.7,0.3s1.1,0.7,1.6,1.3c0.8,1.1,1.6,1.9,2.6,2.4c1,0.5,2.2,0.8,3.6,0.8
		c0.6,0,1.3-0.1,1.9-0.2c0.6-0.2,1.2-0.4,1.6-0.7c0.5-0.3,0.9-0.7,1.1-1.1c0.3-0.4,0.4-0.9,0.4-1.5c0-0.7-0.2-1.3-0.6-1.7
		c-0.4-0.5-0.8-0.9-1.4-1.2s-1.2-0.6-1.9-0.8c-0.7-0.2-1.3-0.4-1.9-0.6C250.8,285.9,249.4,285.4,248.1,284.8z"/>
</g>
<g>
	<g>
		<polygon class="st0" points="101.2,143.6 101.2,115.3 76.8,101.3 52.4,115.3 52.4,143.6 76.8,157.6 		"/>
		<polygon class="st1" points="148.8,99.5 148.8,64.3 118.4,46.9 88,64.3 88,99.5 118.4,117 		"/>
		<polygon class="st2" points="255.2,122.1 255.2,89.5 227,73.3 198.8,89.5 198.8,122.1 227,138.3 		"/>
		<polygon class="st3" points="228.9,188.4 228.9,148.5 194.1,128.6 159.7,148.5 159.7,155.8 173.3,187.2 174.8,197.1 194.1,208.3 
					"/>
		<polygon class="st4" points="136.1,228.4 136.1,226.6 118.6,229.9 111,225.8 106.7,211.1 101.1,191.7 98.1,169 96.3,159.5 
			56.6,182.5 56.6,228.4 96.3,251.1 		"/>
		<polygon class="st5" points="219,56.1 219,18.8 186.8,0.4 154.7,18.8 154.7,56.1 186.8,74.5 		"/>
	</g>
	<g class="st6">
		<defs>
			<path id="SVGID_00000145025683934688453860000003219892463577430416_" class="st6" d="M101.3,143.5v-28.3l-24.4-14l-24.4,14v28.3
				l24.4,14L101.3,143.5z M148.9,99.4V64.2l-30.4-17.4L88.1,64.2v35.2l30.4,17.5L148.9,99.4z M255.3,122V89.4l-28.2-16.2l-28.2,16.2
				V122l28.2,16.2L255.3,122z M229,188.3v-39.9l-34.8-19.9l-34.4,19.9v7.3l13.6,31.4l1.5,9.9l19.3,11.2L229,188.3z M136.2,228.3
				v-1.8l-17.5,3.3l-7.6-4.1l-4.3-14.7l-5.6-19.4l-3-22.7l-1.8-9.5l-39.7,23v45.9L96.4,251L136.2,228.3z M219.1,56V18.7L186.9,0.3
				l-32.1,18.4V56l32.1,18.4L219.1,56z"/>
		</defs>
		<clipPath id="SVGID_00000152226119019130218830000006607608752892976026_">
			<use xlink:href="#SVGID_00000145025683934688453860000003219892463577430416_"  style="overflow:visible;"/>
		</clipPath>
	</g>
	<polygon class="st7" points="110.1,74.2 114.6,72.8 120.8,75.8 126.3,81 129.6,84.8 136.9,89 145.7,96.7 151.2,104.1 156.7,115.4 
		161.1,125.2 167.6,145 173.6,163.7 178.9,176.6 184.9,191.1 193.1,203.6 192.8,207.9 185.1,214.6 183.9,216.4 181.9,217.4 
		180.6,218.4 180.1,218.4 179.7,218.4 179.1,218.4 179,218.6 178.4,219 177.6,219.4 176.5,219.8 174.6,220.1 173.2,220.5 
		172.6,221.1 172,221.3 171,221 170.2,220.8 169.3,220.7 167.7,220.8 166.9,221.3 166.6,221.6 166.5,221.7 166.2,221.7 165.6,221.6 
		164.3,221 163.7,221 164.5,221.3 163.4,221.6 162.4,221.5 161.1,220.5 158.6,219.5 155.5,219.6 153,220.4 151.2,221.3 150.8,222.4 
		147.7,223.5 144.3,224.5 135,227.2 125.9,228.5 121.4,229.4 114.5,228.3 111.7,226.2 109.5,219.6 107.7,211.2 104.8,204.7 
		101.5,192.6 101.1,191.7 100.6,186.5 99.1,174.7 97.5,164 97.4,164.4 97.2,162.9 96.3,162 96.5,160.8 96.4,157.5 96.9,153 
		96.1,146.4 94.8,130.1 93.7,122.1 94.4,113.7 96.3,107 100.4,97.7 98.3,93.1 96.3,89.4 101.7,81.6 105.8,76.5 	"/>
	<g>
		<path class="st8" d="M33.1,149.6c4.3-0.8,4.6-0.8,5.6-1.3c1.3-0.5,2.3-0.3,2.5,0.3c0.3,0.8,2.8,1.5,3.5,0.8c0.3-0.3,0.5-0.3,0.8,0
			c0.5,0.5,1.5,0.5,1.5,0s0.5-0.5,1.8-0.8c0.5,0,1.3,0,2,0.5c1.3,0.8,1.3,0.5,0.5-0.5c-0.8-0.8-0.5-1.3,0.3-0.8
			c0.3,0.3,1,0.3,1.5,0.3s0.8,0.3,1,0.3c0.3,0.5,2,1.3,2.3,1c0,0-0.3-0.5-0.5-0.8c-0.5-0.5-0.8-0.5-0.3-0.8c2-0.8,2.5-1,3-0.5
			c0.8,0.8,2.8,1.8,2.8,1.5s0-0.3-0.3-0.3c-0.5,0-1.5-1-1.8-1.5c0-0.3,0.3-0.5,1.8-0.8c0.5,0,3,0.8,3.3,1.3c0.3,0.3,1.5,1,1.8,0.8
			c0.3-0.3-2.8-2.5-3-2.8c-0.5-0.8-4.6,0.8-6.1-0.3c-1.8-1.3-0.5,0.8-3,0.8h-1.3c3.8-2,3.5-2,6.3-2c1.3,0,2.5,0,2.5-0.3
			c0.5-0.5,1.5-1,1.8-0.8c0.3,0.5,0.8,0.3,0.8-0.3c0-0.5,0.5-0.8,1.8-1.5c1-0.5,1.8-1,2-1.3c0.3-0.3,0.5-0.5,0.8-0.5
			c0.3,0,4.3-3,5.3-3c0.3,0,0.5-0.3,0.8-0.5c0-0.3,0.3-0.3,0.3-0.3s0,0.5-0.3,1c-0.5,0.8-0.8,1.3-1,2.8c-0.3,1.3-1,2.5-1.8,4.3
			c-0.5,1.3-1.3,2-1.8,2.5l-0.8-0.8c-3-2.8-8.4-1-4.3-1c2,0,2,0.8,4,2c1,0.5,1,0.5,0.5,1.5c-0.5,1.3,0,1.5,0.5,0.3
			c0.8-1.5,2-0.5,1-1.5l-0.8-0.5l0.8-0.8c0.8-0.8,1.8-1,1.8-0.3c0,0.3,0.3,0.3,0.5,0.3c0.3,0,1,0.5,1.8,1c1,0.8,1.3,0.8,1.3,0.5
			s0-0.5-0.3-0.5c0,0-2.5-2.5-3.3-2.5c-1.5,0-0.3-0.8,2-5.6c2.8-5.8,1.5-2.8,7.6-4.3c1.3-0.3,3.8-1.3,3.8-1.3c2-0.3,1-0.8,4-2.3
			c1.3-0.5,2.8-1.3,3.3-1.8c1.3-0.8,1.8-1,1.8-1c0.5,0.5,0.5,9.4,1.3,16.7c0.3,2,0.3,6.3,0.5,6.3c0.8,0.5,0.5,4.8-0.3,5.8
			c-0.5,0.5-1.3,1.5-2,2c-1.5,1.8-0.5,0.3-1.8,1.8c-1.3,1.5-1.5,0-1.8,1.3c0,0.5-0.5,0.8-0.8,1c-1,0.3-1.5,3.8-0.8,6.6
			c0.5,1.8,1,7.3,0.5,7.3c-0.3,0,0,0.3,0,0.5c0.8,1-0.5-0.3-0.5,0.5c0,1,1,0,0.8,0.5c0,0,0.5,3.8,0.5,5.8c0.3,4,0.5,2,1,5.8
			c0.5,3,0.8,4.8,1.5,7.1c0.5,2,0.8,7.3,0.3,6.8s-2,0.5-0.3,0.8h0.8c0,4,0,6.3-0.5,6.6c-0.3,0.3-0.3,0.3,0,0.5
			c0.5,0.5,0.8,1.3,0.3,1.3s-0.5,0.8,0,1c0.3,0,0.5,3,0,3.8c0,0.3,0,0.3,0,0.3c0.3,0,0.3,3,0,3.8c-0.3,0.3,0,0.5,0.3,0.8
			c0.5,0.3,0.5,8.6,0,8.9c-0.8,0.5-0.5,9.1-1.3,14.4c-0.5,2.5,0.3,3.8-2.3,6.1c-1.8,1.8-2,2.5-0.8,3c1.8,0.8,3.5-0.3,3.5-1.8
			c0-0.8,2-3.8,2.5-3.8c0.3,0,0.5,0,0.8,0c0.5,0,0.5-0.5,0-0.8c-0.5,0-0.3-0.3,0.3-1c0.8-1,1.5-1,2-0.3c0,0.3,0.3,0.3,0.5,0
			c0,0,0-0.5-0.5-0.8c-0.8-0.8-0.8-1,0-1.8c0.5-0.8,0.5-0.8,1.5-0.3c1.3,0.8,1.5,0.5,0.5-0.5s-1-1.3-0.3-2.5
			c0.3-0.5,0.5-0.8,0.5-0.8c0,0.3,0.5,0.5,1.3,0.8c1.5,0.5,1.3-0.3-0.3-1c-1.5-0.8-0.3-1.8,0.5-2.8l1.5,0.8c1.5,0.8,2.5,0.8,1.3,0
			c-1-0.8-2.3-2-2.3-2.3c0-0.5-1-0.8-1.5-0.3s-0.5,1.3,0,1.3c1,0-0.3,1.5-1.5,2c-0.8,0.3-1,1-0.5,1.3s-3.5,4.3-4,4.3
			c-0.3,0-0.3,0.3-0.3,0.5s0.3,0.5,0.3,0.5c0.5,0,0.3,0.5-0.3,0.8c-1,0.3,0.3,0-0.3-1.3c-0.5-1.3,1-2,1-4.8c0-0.8,0.3-1.5,0.3-1.8
			c0.3-0.3,0.3-0.3,0-0.5c-0.5-0.5,0.3-2.8,0-4c-0.3-1.3,0.5-0.5,0.5-1.3c0-0.3-0.3-0.5-0.3-0.5c-0.3,0-0.3-1,0-3.3
			c0.3-4,0.3-5.8,0.8-5.8c0.8-0.3-0.8-0.8,0-1.3c0.5-0.3,0.3-2.3-0.3-10.1c0-0.8-0.3-2.3-0.5-3.3c-0.8-3.8-1-15.7-0.3-15.9
			c1-0.3-1.3-1-0.5-1.5c0.5-0.5-0.8-2-0.5-3.3c0.3-1-0.8-3.8-0.8-5.6s-1-1.5-0.5-2.3c0.5-0.5,0-0.3-0.3-4.3
			c-0.3-4.8-0.8-7.6-0.3-7.6s2.5-3,3-4c0.8-1.5,1-1,1,0.8c0,1,0,1.8,0,1.8c0.3,0,0.3,0.5,0,0.8c0,0.3,0,0.8,0.3,0.8s0.3,0.8,0.3,1.5
			c0,1.8,0,1.3,0.3,2.8c0.8,6.8,3.3,18.2,2.5,18.5c-0.3,0-0.3,0.3-0.3,0.8c0.3,0.8,1.3,5.1,1.3,6.1c0,0.5,0.3,1,0.3,1
			c0.3,0.3,0.5,1.3,0.5,2.5c0,1.3,0.5,3,0.8,4s0.5,2,0.5,2c-0.3,0.5,0.5,1,0.5,1.5c-0.5,1,2.5,9.1,3.3,11.4c0.3,0.8,0.5,1.5,0.8,1.8
			s0.3,0.5,0,0.5s-0.3,2.8,0.3,3.5c0.5,1,5.6,3.3,7.1,3.3c2.5,0-0.3,0.8,4.6,0.5c1.5,0,7.3-0.3,8.9-1.3c0.8-0.5,1.5-0.3,2.8,0.3
			c1.5,0.8,2.8,0.8,2.8,0.5s-0.3-0.3-0.5-0.3s-0.8-0.3-1.3-0.5l-0.8-0.5c1.3,0,2.3,0,4.8,0.8c3,1,4,0.8,1.8-0.3
			c-2.5-1.3-0.5-1.8,2.3-0.5c1.3,0.5,2.3,0.8,2.5,0.8c0.5,0-2-1.8-2.5-1.8s1.3-1.3,4-0.3c1.3,0.5,1.5,0.5,1.5,0.3
			c0-0.3-0.5-0.5-1-0.8c-1-0.3-1.3-0.8-0.3-1.5c0.5-0.5,1.5-0.3,3.5,0.8c2.5,1,1.8,0,1.5,0c-0.5,0-2.5-1.5-2.3-1.8
			c0.5-0.5,1.5-0.3,3.8,0.5c2.5,1,3.3,0.8,1.5-0.3c-2.3-1.5-2.5-1.8-2-2c0.8-0.5,2.5,0,6.1,1.5c1.3,0.5,0.5-0.5-1.3-1.5
			c-3-2-0.3-2.8,4.3-1.5c1,0.3,2,0.5,2.5,0.5c1-0.3,3,1.5,3,0.3c0-0.8,3-0.8,4.3-0.3c4,2,6.3,2.5,3.8,1c-1.8-1.3-2-1.8-0.8-2
			c1-0.3,3-0.3,3,0c0.3,0.5,3.5,2,3.5,1.5c0-0.3-0.8-1-1.8-1.5s-0.8-0.8,0-1.3s1-0.5,1.8,0c1.5,0.8,1.8,0.5,1.8,0.8
			c0,0.5,1.8,0.5,2.5,1c0.5,0.5,1,0,0.5-0.3s-1-1-1.5-1s-0.5-0.8-1.3-1c-0.8-0.3-0.8-0.5,0.3-1c0.8-0.3,1-0.3,2.8,0.5
			c3.8,1.8,3,0.3,2.5,0.3c-0.3,0-0.5-0.3-0.8-0.5c0-0.3-0.3-0.5-0.5-0.5s-0.5-0.3-1-0.5c-1.5-1.3,0.5-2.3,2-1c1.3,1,0.5,0,2.8,1
			c0.8,0.5,1.5,0.8,1.5,0.8c0-0.5-0.5-1-0.8-1s-1-0.5-1.5-1c-1.8-1.3-1-2,1.3-1.3c5.1,2,1.5-0.8,0.8-0.5c-0.8,0.3-1.3-2.3,1.3-1.3
			c4.3,2,4,0.8,3.5,0.8c-0.5-0.3-1.5-1.3-2.3-1.8c-1.5-0.8,2.5-0.8,3.8-0.8l-0.5-0.8c-0.3-0.3-1-0.8-1.5-1.3
			c-1.3-0.8-0.3-1.8,2.3-1.8c0.8,0,0.8-0.3,0-1c-0.3-0.3-0.5-0.8-0.5-1c0.3-0.5-2.3,0-1.5-0.8c1-1,6.8-0.5,3.5-1.5
			c-1.5-0.5-1.5-2.8,0-2.8c2,0,0.5-0.5-1.8-0.5c-3.5,0-5.8-1-3-1.5c0.5,0,1.3-0.3,1.8-0.3c2-0.5,0.5,2.3,2.3,1
			c0.3-0.3,0.3-0.5,0-0.8c-0.5-0.5-0.3-0.8,0.5-0.8c0.5,0,1.3-0.5-1.3-0.5c-1.3,0-2,0-2-0.5c0-0.3-0.3-0.5-0.5-0.5
			c-0.8,0-0.3-0.5-1-0.5c-1,0-0.3-0.5,1-0.8c0.8,0,1.8-0.3,2-0.5c1-0.3-0.3,2,0.5,2c0.5,0-0.3-1.8,1-1.5c0.8,0.3,0.8-0.3,0.3-0.5
			c-0.3,0-0.3-0.3,0.3-0.3c0.8,0,0.8-0.8-0.3-0.5c-1,0.3-1.3-0.5-2.8-1.5l-0.8-0.5c3.3-0.3,3.3-0.3,4.3,0s-1.3-1.8-2.5-2.5
			c-1.3-0.8-1-1,1-1.3c2.5-0.3,2-0.5-1-0.5c-4,0-5.3-1.5-1.8-1.8c1.5-0.3,1.5-0.3,1.8,0.5c0.3,0.5,0.3,0.8,0.5,0.5
			c0.3-0.5,0.8-0.3,2.3,0.3l-0.8-0.8c-2-1.8,0-0.8,0-1.5c0-0.3-0.5-0.3-1-0.3c-0.8,0-1.3,0-2.3-0.8c-3.3-2.5,1.5-0.8,1.5-1.5
			c0-0.3,0.5,0,1,0.5c1.5,0.8,1.8,0.8,0.8-0.3l-0.8-0.8c0.5,0.3,1.3,0.5,1.8,1.5s3.5,3,3.5,3.8c0,0.5,1.8,2,2.5,3.5
			c0.8,1.3,1.8,2,3.5,4.8c1.5,2.3,2,2.5,2,3s1.3,1,1.3,1.5s2.5,3.5,2.5,3.8s0.3,0.3,0.3,0.3c0.5,0,2.5,2,2.5,2.5
			c0,0.3,0,0.3,0.3,0.3s0.5,0.5,1,1.3c1,1.8,2,2,3.8,4.8c2.8,4.6,2.5,1.8,4.8,1.8c3.8,0.3-1.5-4.3-2.3-4.3c-0.5,0,0-1-0.8-1
			s-0.3-1.3-1-1.3c-0.8,0-0.3-0.5-1.3-1.5s-0.8-2-2.8-4.3c-1.8-2.3-0.8-1.5-2-3c-0.5-0.5-0.8-1-0.8-1.3s-0.3-0.5-0.5-0.5
			c-0.5-0.3-0.8-0.8-1.5-2c-2.3-3.3,4.3,2.5,0.5-1.8c-2-2.5-2.8-3-3-3s-0.3-0.3-0.5-0.5c-0.3-0.5,1-0.3,1.3,0.3
			c0,0.3,0.3,0.3,0.5,0.3c1.3,0-1.3-2-3.3-4c-1-1-1.3-1-1.5-0.8c-0.5,0.8-0.3,1.3,0.3,1.5c0.3,0.3,0.5,0.5,0.5,0.5
			c0,0.5,2.3,5.1,2.5,5.1s0.3,0.3,0.3,0.5c0,0.3,0.3,0.8,0.8,1.3c0.5,0.8,0.5,1,0.3,1.5c-0.3,0.5-0.3,0.5-0.3,0.3
			c0-0.8-0.5-0.3-0.8-1.3s-1,0.3-0.8-0.8c0.5-1-1.8-0.8-1.8-2.3c0-0.3-0.3-0.5-0.5-0.5c-0.5,0-2.3-2-2.8-3.3c-0.3-0.8-3-4.3-2.5-4.8
			c0-0.3,0-0.3-0.3-0.3s-0.3-0.3-0.3-0.5c0-1-1-0.8-1-1.5c0-0.5-1.5-1.3-1.5-1.8s-1.3-1.3-1-2c0.3-1-3.5-3.3-1.5-3
			c0.3,0,0.3-0.5,0-0.5s-0.3-0.3,0-0.5c0-0.3,0-0.5-0.5-0.5c-1,0,0-0.5-0.8-0.8c-1-0.3-0.5-1,0.5-1c1.3,0,0.8-0.5-0.5-0.5
			c-0.8,0-1.3,0-1.8,0s-1.3-1.3-1.3-1.8s3.3,0,3.8,0.3c0.3,0.3,0.5,0.5,0.8,0.5c0.5,0-0.5-0.8-0.3-1.3c0-0.3,0-0.3-0.5-0.3
			c-0.8,0-3.3-2-2.8-2.3c0.3-0.3,2,0,2-0.5s-1.8,0-2-0.8c-0.3-0.8-1,0.8-1.5,0.3c-0.3-0.5-2-1-2.3-1.8s3-0.8,4.3,0.3
			c1,0.8,1.8,0.5,0.8-0.3c-0.8-0.5-0.5-1,0.3-1c1.8,0,1.5-0.5-0.3-0.8c-1,0-1.8-0.3-2-0.5c0-0.3-0.3-0.3-0.5-0.3
			c-0.5,0-1.8-1.3-2.3-1.5h0.8c1.5,0,1.8-0.8,1.5,0.5c-0.3,1.5,0-1.3,1.5-1c1.8,0.5-4.8-3.3-0.3-3.3c2,0,0.8-0.5-1.3-0.8
			c-1.8,0-2.3-0.3-3-1c-0.5-0.5-1.3-0.8-1.5-0.8c-0.5,0-0.5-0.5,0-0.8c1.5-0.5,3.5,0.3,3.3,1.5c0,0.5,0,0.8,0.3,0.8
			c0.5,0,0.3-1.3,0.8-1.3s-0.8-1-1.3-1.3h1.3c1.5,0,2-0.5-0.8-0.5c-1.8,0-2.5-0.3-2.3-1.5c0-0.3-0.3-0.3-0.5-0.3
			c-0.8,0.3-1-0.8,2.5-0.8c2,0,0.3-1.5,0-1s-4.8,0-5.3-0.5c-0.3-0.3-0.5-0.5-0.8-0.5c-0.8,0-1.5-1-1-1.5c1.5-0.5,2.3-0.8,2.8-0.3
			c2.8,2.5,5.8,3.3,2.5,0.8c-1.8-1.3-1.8-1.5,1.5-1.8c1.5-0.3,1.3-0.5-0.3-0.5c-2.3,0-1.8-0.5-1-0.5s0.8-0.5,0-1
			c-1-0.5-0.5-0.8,1-0.8c1.3,0,0.3-0.5-1.3-0.5c-0.8,0-1.3,0-1.3-0.3c0,0-0.3-0.5-0.8-0.8c-1.8-1-0.5-1.8,2.8-1.5
			c1.3,0,1.8-0.8-4.8-0.5c-1,0-0.5-1-1-1c-0.3,0-0.5-0.3-0.8-0.5c-0.5-0.8,2.5-1.3,4.3-0.8c1.5,0.5,1.5,0.3,0.3-0.8
			c-2-1.8-2.8-2.5-2.5-2.5c0.8-0.3-1.5-2.8,0-2.8c0.5,0,1.8-0.5-2-0.5c-3,0.3-5.6-1-4-1.8c1-0.5,3-0.5,3.5,0.3c0.8,1,1.8,0,1.3,0.5
			c-0.5,0.8,1.8,0.5,0-0.5c-1-0.5-1-1,0.3-1c1.8-0.3,1.3-0.8-0.5-0.5s-1.8,0.3-1.5-0.5c0.3-0.5,0-0.5,0-0.3
			c-0.3,0.3-0.5,0.3-1.5-0.5c-1.3-1-1.3-1.3,0.3-1.3c4.3,0,2.8-2,2.3-1c-1,1.8-13.4-2.8-4-2.8c2,0,0.8-0.3,2.3-0.5
			c0.8,0,0.8-0.3-0.3-0.3s-4-1.8-4-2.3c0-0.3,2.3-0.8,2.5-0.8h-1.8c-2.5,0-1.8-0.5-3.5-1.5c-0.8-0.3-0.8-0.5-0.5-0.8
			c0.8-0.5,3.3-0.8,3.5-0.3c0.8,1,1.5-1,0.5-1s-2.3-1.8-3-1.8c-1,0-1.3-0.5,3.5-1.8h-1.8c-3.3,0-3.8,0-4.6-0.8
			c-0.3-0.3-0.8-0.8-1-0.8s0-0.3,0.5-0.5c1-0.5,3.8-0.5,3.8,0c0,0.3,0.3,0.3,0.5,0.3c0.3,0,1.5,0.3,2.5,0.8s2.3,1,2.5,1
			s0.8,0.3,0.8,0.3c0.3,0.5,2.3,0.3,2.8,0.3l-1-0.8c-1.3-1-0.8-0.3-2.5-1.5c-1.3-0.8-2-1-2.8-1l0.8-0.3c1.3-0.5,0.5-0.8-1-0.5
			c-0.8,0-1.5,0.3-1.5,0s-2.3-1.3-2.5-1.3l2.3,0.3c2.3-0.8,3.3-1,4-1c0.8,0,2-1,2.8-1s2.8-0.8,4.3-1.3c1.5-0.3,5.8-1.5,8.1-2.3
			c1.8-0.5,0-1.8,10.1-2.3c4.6-0.3,4.8-0.3,7.1-1.3c1-0.5,7.8-0.8,7.8-0.5s-2.8,2.5-3,2.5c0,0-0.5,0.3-0.8,0.5
			c-0.5,0.5-1.3,0.5-0.8,0c0.3-0.3,0-0.3-0.3,0s-0.3,0.5-0.3,0.5c0,0.3-0.5,0.8-1,1.3c-0.8,0.5-1.3,1-1.3,1.3s0,0.3-0.3,0.3
			s-3.3,3-4,3.3c-0.8,0.3-0.5,1,1,0c1.3-0.8,1.5-0.8,4.3,0.8c1.5,0.8,1.8,0.5,0.5-0.8c-0.8-0.8-1.5-1.3-1.5-1.3
			c-0.5,0,0-0.8,0.8-1.3c1.8-1,3.3,0.8,4.3,1.3c1,0.3,0.5-0.3-0.5-1c-0.5-0.3-1-0.8-1-1c0-0.8-1.8-0.3-0.3-1.3
			c0.8-0.5,1-0.5,2.5,0.3c2,1,2,1,1.8,0.3c-0.3-0.3-0.5-0.5-0.8-0.5s-1.3-1-1.3-1.3c0-0.8,1.8-1,3-0.3c1.5,0.8,1.8,0.5,0.5-0.5
			c-1.5-1.5-1-2,1-1c1.3,0.8,1.5,0.3,0.5-0.8c-0.8-0.8,0-1.8,1-1.8c0.8,0,2.5-1.5,2.8-2c0.3-0.8-2.3-1.3-3.3-0.8
			c-0.5,0.3-1.5,0.8-2.3,0.8c-6.1,0.8-8.1,1.5-11.1,1c-1.5-0.3-3,0.3-7.3,1c-11.1,2.3-13.7,2.5-14.2,2.3c-0.3-0.3-0.3-0.3-0.8,0
			c-0.3,0.3-0.5,0.5-0.8,0.3c-0.3,0-0.5,0-0.5,0.3s-2.3,0.8-7.8,2c-5.8,1.5-5.8,1.3-6.6,1.8c-3,1-3.3,1-4.3,0.3
			c-1.3-0.8-1.3-0.8,1.5-1c1.8-0.3,2.3,0,2.3,0.3s0,0.3,0.3,0c0.5-0.8,1.5-0.3,1.5-0.8s-2.3,0.3-3-0.8c-0.5-0.8-1-0.3-1.3-1
			c-0.3-0.5,0.5-0.8,1.5-0.8c0.5,0,0.8,0,0.8-0.3s-2.5,0-2.8-0.5c0-0.3-0.5-0.3-0.8,0c-0.5,0.3-2-1-1.8-1.3c0.3-0.3,5.3-0.8,0.5-1
			c-2.3,0-2.5-0.5-4.6-1.8l1-0.3c0.8-0.3,1.3-0.3,2.5,0.8c1.8,1.3,2.3,1,0.8-0.3c-1.8-1.8,0.3-0.5,0.8-1.3c0.3-0.3-0.3-0.3-1-0.3
			c-1.8,0.3-3.5-1.3-2.5-2c0.5-0.3,0.5-0.5-0.5-0.5c-0.8,0-1.3,0-1.3-0.3c0-0.5-3.3-2-1-2c0.8,0,0.8-0.8-0.8-0.5
			c-0.8,0.3-1.3,0-1.8-0.5c-2.3-2-5.1-2.8-3-0.8c2.5,2.5,0,0.8-0.5,1.5c-0.3,0.5-1.8-0.5-1.8,0s1.3,1.8,1.8,1.8
			c0.8,0,0.5,0.5-0.3,0.8c-1.3,0.5-0.3,1.5,1.5,1.5c1.5,0,1.8,0.5,0.8,0.8s-1.8,0.3-2.8-0.3c-1.5-0.8-2.3-0.5-1.3,0.5
			c0.5,0.5,0.5,0.5-0.3,0.5c-1,0-0.8,1,0.3,1c1.5,0,1.3,0,3.5,1.3l-2,0.3c-3,0.3-2.5,1.3-3.3,0.3c-0.3-0.3-0.8-0.5-1-0.5
			c-0.3,0-0.5-0.3-0.5-0.3c0-0.3-0.5-0.5-0.8-0.5c-1-0.3-3.5-1.5-6.1-3.3c-4.8-3-4.6-1-4.3-9.9c0-2.3-0.8-1.8-0.5-3.3
			s-0.3-0.3-0.3-2.3c0-0.8,0-1.3,0.3-1.3c0.3,0.3,0.8-0.5,0.5-1c-0.5-0.5-0.5-3.8,0-4.3c0.3-0.3,0.5-0.8,0.5-1
			c0-1.3,1.5-0.3,0.5-1.3s0.5-0.5,0-1.3c-0.3-0.5,0.5-4,0.8-4s0.3-0.3,0-0.5c-0.3-1,0.8-1.3,1-4.6c0-0.8,0.3-1.8,0.8-2.3
			s0.5-1,0.3-1c-0.5-0.3-0.5-1.3,0-1.8c0.3-0.3,0.3-1,0.5-1.8c0.3-2,0.8-2.3,0.3-2.8c-0.3-0.3-0.3-0.5,0.3-0.8
			c0.5-0.3,0.5-0.3,0-1.5c-1-2.3,0.5-2.3-1-3.8c-1.3-1-0.3-1-0.5-2.8c0-1.3,0.5,0,0.5-1.3s-0.8,0.3-0.3-2c0.5-3,0.5-5.3,0.8-2.3
			c0.3,1,1.3,7.1,1.3,7.1c0,0.3,0.8,2.8,1,3.5c0.5,0.8,0.3,1.3-0.3,1.8c-0.5,0.5-0.5,0.5,0.3,0.3c0.8-0.3,0.8-0.3,0.5,1
			c-0.3,1,2.8,4.8,4,4.8c0.3,0,0.5,0.3,1,0.8s2,1.5-0.5-2.3c-1.8-2.5-3.5-2.8-3.5-4c0-1.3,0.8,0,3.3,1.8l1.5,1
			c-0.3-0.8-0.8-1.8-2.3-3c-0.8-0.8-1.3-1.3-1-1.3c0,0,0-0.3-0.3-0.5c-0.3-0.3-0.8-0.5-1-0.5c-0.5,0-1-1.5-0.8-1.8
			c0,0,0.5,0.3,0.8,0.5c0.5,0.5,3,1.8,3.3,1.8s0.3-1-0.3-1c-0.3,0-0.8-0.5-1-1s-0.8-1-0.8-1c-0.3,0-0.3-1.5-0.5-1.3s-1-1-1.3-0.8
			s-1-1-1-1.8c0-0.3,2.3,0.8,2.5,1.5c0.3,0.5,1.3,0.8,1.8,0.8l-0.8-0.8c-0.8-0.8-2.5-2.5-2.5-3c0-0.3-1.3-1.3-1.5-1.3
			s-0.3-0.5-0.3-1.3v-1.5c1.5,1,4.6,3,3,1.3c-0.3-0.3-0.5-0.8-0.5-1c0-0.3-0.3-0.3-0.3-0.3l-0.3-0.3c0-0.3-0.5-0.8-1-1.3
			s-1-1-0.8-1.3c0.3-0.3,1.3-0.3,1.3,0s1,0.8,1,0.5c0.3-0.3-1-2-2.3-3.5c-1-1,0-0.8,0.3-0.5c0.3,0.5,1.5,0.5,1.5,0
			c0-0.3,0-0.3-0.3-0.3s-1.5-2.3-0.8-2c1,0.3,1.5,0,1-0.8c-0.5-0.5-0.8-2.8-0.5-4c0.3-1.3-0.5-3-1.3-2.3c-0.3,0.3-0.8,0.5-0.8,0.5
			s-0.3-0.5-0.5-1c-1-1.8-2.3-1-1.8,1c0.5,1.8,0,9.1-0.8,10.1c-0.5,0.5-0.5,1.8-0.3,2.3c0.3,0.3,0,0.5,0,0.8c-0.5,1-0.5,1.8-0.5,2.3
			c0.3,2-0.8-0.3-0.3,1.8c0.3,0.8,0.3,2.5-0.3,2.3c-0.5-0.3-0.3,0.3,0.3,1c0.3,0.3,0.5,0.5,0,0.8c-0.5,0.5-0.3,2.5-1,3.3
			c-0.3,0.3-0.5,1.3-0.5,2s-0.3,1.8-0.3,1.8s0,0.3,0,0.5c0.5,0.5,0.5,1.8,0,2.3c-0.5,0.3-0.5,0.5,0,0.8s0.3,6.1-0.5,8.1
			c-0.8,2,0,2-0.5,2.8c-0.8,0.8,0.5,0.8,0.3,2c-0.3,1.5-0.8,4-1.3,4.3c-0.8,0.5,0.5,0.3,0.5,1c0,0.3-0.3,0.3-0.3,0
			c-0.5-0.3-0.5-0.3-1,7.3c-0.3,2-0.5,3.3-0.8,3.8c-0.3,0.3-0.3,0.8-0.3,0.8c0,0.3-0.3,0.5-0.5,0.5c-0.8,0.3-0.8,0.3,0,0.8
			s0.3,0.3-0.5,3l-0.5,1.8c-0.3-0.3-1.3-1.3-1.8-1.3c-0.3,0-0.3-0.3-0.3-0.5s-1-0.8-2-1.5c-3-1.5-3.5-2.5-4.3-2.5
			c-0.3,0-0.8,0-0.8-0.3c-0.3-0.3-3.3-2.5-3.5-2.5s-0.3-0.3-0.5-0.5c0-0.3-0.3-0.5-0.5-0.5c-1.3,0-2.8-1.3-2.5-2.3
			c0-0.3,0-0.5-0.5-0.5c-1.3,0,0-2-2,0c-0.8,0.8-1,0.8-1.3,0.5c-0.5-0.3-0.5-0.3-0.3,0.5c0.8,3-3.5,2.3-4,3.3c0,0.3-0.3,0.3-0.5,0.3
			s-1.3,0.5-2.3,1c-2,1.3-2.8,1-2.8-0.5c0-2.5-4,0-4,2.5c0,1-2,2.3-2,3s-1,1.5-1.3,2.5c-0.8,3.8-2.3,4.8-3.5,2.3
			c-0.8-1.3-0.8-1.5-3-3.5c-3.5-3.5-2.5-3.8-4-6.8c-0.5-1-1-2.3-0.8-2.5c0-0.3,0-0.5-0.3-0.3c-0.5,0.3-0.5-0.8-1.5-1.8
			s-0.3-1.5-1-2.3c-0.8-0.8,0-1.5-1.3-2c-1-0.5-0.3-0.8-1.3-1.3c-1.3-0.8,0-1.8-1.3-1.8c-1,0-0.5-0.5-1-0.5s-1.3-1.3-2-1.3
			c-0.5,0-0.3-1-0.8-1s-0.3-1-0.5-1c-0.3,0-0.3-0.3-0.3-0.3c0-0.5-1.8-4.3-2.3-4.3c-0.3,0-0.3-0.3-0.3-0.8s-0.3-1-0.5-1.3
			c-0.3-0.3-0.8-1-1-1.5c-0.2-0.5-0.5-1-0.8-1c-0.5,0,0-1-0.5-1.5c-0.5-0.3,0.3-1-0.5-1c-0.8,0-0.3-1.3-0.8-1.3s-1-1.5-1.3-1.8
			c-0.5-0.5-1.5-2.3-1.5-2.5s2.5,1.5,3.5,2.5c1.3,1.3,0.8,0.3,2.5,1.8c1.3,1.3,2.3,2,5.3,4.3c6.8,5.6-3-4-3-4.6c0-0.3-2-1.8-3-2.5
			c-0.3-0.3-0.5-0.8-0.8-1c-0.3-1.5-1.5-0.5-1.8-1.5c0-0.3-0.3-0.5-0.5-0.5c-0.5,0-2.5-1.5-4.6-3.5c-2.5-2.5-2.3-1.5-4-3.3
			c-1-0.8,0-1.5-2.3-1.5h0.5c0.3,1.3,0.3,1.8,2,3.5c1,0.8,1.8,1.8,1.8,2s0.3,0.3,0.5,0.3c0.5,0,0.8,1,1.8,2c3,3.3,3.8,5.6,5.1,7.3
			c0.5,0.8,0.5,1,0.3,1.3c-0.3,0.5,0.8,3,1.5,3.8c0,0,1.8,3.5,3.3,5.3c1,1.3,1,1.5,0.3,1.8c-0.7,2-0.7,2,0.3,2
			c2,0.3,1.8,1.3,3.3,2.8c0.8,1,4.8,10.4,5.3,10.4c0.3,0,0.3,0.3,0.3,0.5c0,0.3,0.3,1,0.8,1.3c0.5,0.5,0.8,1,0.5,1.3
			c0,0.3,0,0.5,0.3,0.5c0.5,0,1.5,1.5,1.5,2c0,0.3,0.5,1,1,1.5c1.3,1.3,2.3,3.3,2.3,4c0,0.3,0.3,1,0.5,1.3c1,1,0.5,1.5,1,2.3
			c0.3,0.3,0.5,0.5,0.5,1c0,0.3,0.5,1.5,1.5,2.5c0.8,1.3,1.5,2.3,1.5,2.3c0,0.3-2.5,5.6-3,5.8c0,0-1.3,3.3-4.3,9.9
			c-7.1,14.9-8.6,21.8-10.9,22.8c-0.8,0.3-0.8,0.5-0.3,0.5c0.8,0.3-1.3,1.3-2.3,1.3c-0.8,0-0.3,0.5-1,0.5c-1.5,0-10.1,5.3-10.4,5.3
			c-1,0.5-1.5,1-2,1.8c-0.5,1-1.8,1.5-2,1c-0.3-0.3-0.3-0.3-0.8,0c-0.3,0.3-1,0.8-2,0.8c-1.5,0.3-9.1,2.3-11.1,2.3
			c-1,0-5.1,0.5-5.3,0.5s-0.5,0-0.8,0.3c-0.5,0.5-3.3,0.3-4.3-0.3c-1.3-0.8-2.8,0-2.5,1c0,0.8,0,1-1.3,1.5
			C26.5,149.4,29,150.4,33.1,149.6z M94.3,162.8c0-0.5,0.5,0,0.8-1c0.3-0.5,1-1,1.3-1C96.6,161,94.3,163.3,94.3,162.8z M215.8,197.5
			c0.3-0.3,1,0,1.3,0.8c0,0.3,0,0.8,0,0.5C216.6,198.7,215.5,197.7,215.8,197.5z M106.2,200.3c-1.8,0-0.5-8.4-0.3-6.6
			C106.7,198.7,106.7,200.3,106.2,200.3z M107,207.1c-0.3-0.8,0-0.8,0.5-0.5c0.3,0,0.5,0.5,0.5,0.5C108,207.9,107.2,207.6,107,207.1
			z M109.2,204.6c-0.5-0.8-0.3-1.5,0.3-1.3c0.5,0.3,0.5,2.3,1,3c0.3,0.5,0.3,0.8,0.5,2.5c0.3,0.8,0,1.3,0,1.3c-0.8,0-1-0.8-1.3-2.8
			C109.7,206.1,109.5,204.8,109.2,204.6z M148.7,222c-0.8-0.3-0.3,0.5-1.3,0.5c-0.5,0-0.8,0.3-1,0.5c-0.3,0.5-1.8,0.8-3,0.8
			c-0.3,0-0.8,0.3-1,0.5c-0.5,0.5-2.8,1.3-3.3,1c-0.3,0-0.5,0-0.5,0c0,0.3-1,0.5-2,0.5c-2.8,0.3-3.3,0.5-4.8,0.5
			c-1.8,0.3-1.8,0.8-2.8,1c-3.8,0.5-7.3,2.3-8.9,1.3c-1-0.8-4.6,0.5-6.1-2.5c-0.3-0.3-0.8-0.8-1-0.8c-0.8,0-1-0.5-0.8-1
			c0.5-0.8-2-4.6-1.8-5.8c0-0.3,0-0.5-0.3-0.5c-0.5-0.3-0.5-0.8,0-0.8c0.3,0,0.3,0.3,0.3,0.5c0,0.3,0.3,0.5,0.5,0.5
			c1.3,0.3,1,3.8,3,6.1c0.3,0.5,0.8,1.3,0.8,1.8s0.3,1,0.5,0.8c0.3-0.3,0.3-1.8,0-2.3c-0.3-0.3-0.3-1-0.5-2.3c-0.3-3.5,0,0.8,1,0.8
			c1.3,0,1.5,3.8,2.3,3.3c0.5-0.5-0.5-1.5,0-2.3s-0.8-0.5-0.8-1.3c0-0.3,0-0.3,0.5,0c0.5,0.5,0.8,0.3,0.5-0.8
			c-1-3.3-1.8-7.3-1.3-7.1c0.3,0,0.3-0.3,0.3-1c0-1.5,0.5-1,0.8,0.8c0,0.8,0.5,2,0.8,2.5c1,2.3-1,0.8-0.3,3.8c0.5,2,0.8,3.3,1,3.3
			s0.3,0.5,0.5,1c0.5,2,0.8,1,0.5-1.8c0-3.8-0.3-3.8-0.5-4.8c0-0.5-1.5-4.3-1.5-5.8v-0.8c0.3,0.5,0.8,2,1.3,2c0.3,0,0.3-0.5,0.3-1
			c-0.3-1-0.3-1,0.3-0.3c0.5,1,0.3,1.8,1,4c0.8,2.3,0.3,3.3,0.8,4.8c0.3,0.8,0.3,1-0.3,1.3c-0.5,0.3-0.5,0.3,0.3,0.5
			c0.5,0.3,0.8,0.5,1,1.8c0.5,1.8,1,2,1,0.8c0-1.5,1-1,0.3-2.3c-0.8-1.3-0.3-3.3-1-4c-0.8-0.8,0-2.5-0.5-3c-0.3,0-0.3-0.3-0.3-0.5
			c0-0.3,0-0.8-0.3-1.3c-0.5-1-0.5-2.8,0.3-1c0.5,0.8,0.8,1,0.8,0.8c0.3-0.3,0.3-0.3,0.3,0.3c0,1.3,1.3,0.5,0.8,2
			c-0.3,0.5-0.3,1,0,1s0.3,0.3,0.3,0.5s0,0.5,0,0.8c0.8,1,1,3,0.5,3.5c-1.5,1.5,0.8,0,1,1.3c0.3,1,0.8,0.8,0.8-0.3
			c0-2.3,2-2.5,2.3-0.5c1.3,5.3,1.3-4.8-0.5-6.8c-0.8-0.8-0.8-2-1-2.8l0.8,0.8c0.5,0.3,0.8,0.8,1,0.8c0.8,0,2,4.3,1.5,5.3
			c-0.5,1.3,0.5-0.3,1,1.5c0.8,4.6,2.3,2.5,1.5,2c-0.5-0.8,0.5-4.6-1.8-6.6c-1.3-1,1.3-0.5,2.5,3.8c1.5,5.3,1.3-1.3,0.5-2
			c-0.5-0.5-0.5-0.5,0.5-0.3c0.5,0.3,1,0.5,1.3,0.8s0.3,0.5,0.5,0.3s1.5,0.5,1.5,1c0,0.3,2.3,5.1,1.5,1.5c-0.5-2.5-0.8-2,3.8-1.5
			c1.5,0.3,1.5,0.3,1,0.5c-0.8,0.5-0.3,0.5,1.5,0c0.8-0.3,2-0.5,2.8-0.5l1.5-0.3C149.7,221.5,149.5,222.3,148.7,222z M112,213.2
			c0,2,3.8,8.6,2,7.1c-0.5-0.3-0.5-0.3-0.8,0c-0.3,0.8-0.8,0.5-0.8-0.5s-2.5-9.9-1.3-8.9c0.3,0,0.3,0.5,0,0.8
			C111.3,212.2,112,212.4,112,213.2z M121.6,212.7c0,0.3-0.3,0-0.5-0.8C120.1,208.9,121.9,211.7,121.6,212.7z M121.9,192.4
			c0.5,0,1.5,9.1,2,11.1c0,0.3,0,0.5,0,0.5c-0.3,0-1.5-5.6-1.8-7.8C121.9,193.4,121.6,192.4,121.9,192.4z M126.5,215.2
			c0,0.3,0.3,0.5,0.3,0.5c0.5,0,0,0.5,0.5,1.5c1,2,1.3,4.6,0.3,4.6c-0.3,0-0.5,0.3-0.5,0.3c0,0.3-0.5,0.5-0.5-0.3
			c0-2.8-1.3-6.1-1.3-7.6v-0.8l0.5,0.8C126.2,214.4,126.5,214.9,126.5,215.2z M127.2,206.6c0,0.3,0.3,0.8,0.3,0.8
			c0.3,0,0.5,1,0.8,2.8c0,0.5,0.3,1.3,0.5,1.5c0.3,0.3,0.3,0.8,0.3,0.8s-0.3,0-0.3-0.3s-0.3-0.5-0.8-0.5c-1.8-0.3-1.3-3.8-1.8-5.6
			C125.9,204.6,127.2,204.8,127.2,206.6z M159.9,218.2c-0.8,0-2.5,0-3-0.3c-0.3-0.3-0.5-0.3-0.5,0c-0.3,0.5-0.3,0.5-1,0.3
			c-1-0.3-0.3-3.8,0.8-3.8c0.3,0,0.3-0.5,0.3-1.3c0-2.3,0.5-1.5,0.5,0.8c0,3.5,0.3,4,0.5,4.3c0.8,0.3,0.3-3,1.5-3.5
			c1-0.5,1.3-0.3,0.8,0.5c-0.3,0.5-0.3,0.5,0,0.8c0.3,0,0.5,0.8,0.5,1.5v0.8h-0.4V218.2z M156.6,208.6c0.3,1-0.3,2.8-0.3,1.3
			c0-0.5,0-1.3-0.3-1.8C155.8,206.6,156.3,207.6,156.6,208.6z M159.4,209.9c0.3,0.3,0.3,3.5,0.3,3.5
			C158.8,213.4,158.8,209.6,159.4,209.9z M161.6,218.5c-1.5,0,0-7.8,0-4c0,1.3,0.5,0.5,0.5-0.5c0-1.8,0.3-2,0.5-2
			c0.5,0,0.8,2.8,0.3,3.5c-0.3,0.3-0.3,0.8,0,0.8c0.5,0.5,0.3,2-0.3,2C161.4,218,162.6,218.5,161.6,218.5z M186.4,160.5
			c0,0.8-2.8,0.3-3.8-0.5c-1-1-0.8-1.3,1.5-1C185.4,159.3,186.4,159.8,186.4,160.5z M184.7,156c0-0.5,1.3-0.3,1.5,0.3
			c0,0.3,0.3,0.8,0,0.8C185.9,157.2,184.7,156.2,184.7,156z M189.7,186.8c-0.8-0.5-0.8-0.8,0.3-0.8c0.8,0,2.8,0.8,2.8,1
			C192.8,187.6,190.2,187.4,189.7,186.8z M192.8,190.6c0,0.3-3.3,0.3-3.5,0c-0.5-0.5-0.3-1.3,0.5-1.3
			C190.2,189.4,192.5,190.1,192.8,190.6z M187.2,181.3c-0.8-0.3-0.8-0.8,0.3-0.8c0.5,0,1,0,1.5,0
			C190.5,180.3,189.7,181.8,187.2,181.3z M163.2,110.4c1-0.3,1.3,0,2,0.5c1.8,1.5,2.3,1.5,1.5,1.5c-3,0.3-3.5,0.3-4.6-0.8
			C161.4,110.9,161.4,110.7,163.2,110.4z M158.8,109.1l1.3-0.5c0.8-0.3,1.5-0.5,1.5-0.5c0.3,0,1.3,1,1,1
			C162.6,108.9,159.1,109.1,158.8,109.1z M175,139.5c0.8,0,2.3,0.5,2.3,0.8C177.3,141,173.8,139.8,175,139.5z M180.1,147.1
			c0.5,0.8,0.3,0.5-0.8,0.3C173.3,145.6,178.8,144.3,180.1,147.1z M175.6,131.4c-1.3-0.3-1.3-1,0.3-1c0.8,0,1.3,0.3,1.5,0.5
			C177.6,131.4,176.6,131.7,175.6,131.4z M171.8,124.3c0-0.3,2.8-0.5,3.5,0c0.8,0.3,0.3,1,1,1c0.3,0,0,0.3-1,0.3
			C174,125.6,171.8,124.8,171.8,124.3z M172.3,128.6c-0.3-0.5-1.5-0.3-1.5-0.5c0-0.5,1.8-0.5,2.5,0
			C174.8,128.6,172.8,129.1,172.3,128.6z M171.8,118.3c-0.3,0.3-1.8-0.8-1.5-1c0.5-0.5,3-0.3,3.5,0.5
			C174.8,118.8,172.5,117.7,171.8,118.3z M166.7,115c-0.8-0.8-0.3-1,1.5-0.8c1.3,0,2.5,0.8,2.5,1C170.7,115.7,167.2,115.5,166.7,115
			z M166.2,117.7c1,0,2.5,0.8,2.3,1c-0.8,0.5-4.6,0.3-4.6-0.5C163.7,118,164.9,117.7,166.2,117.7z M169.5,120.8
			c2.5-0.5,2.3,1.8,1.5,1.8s-1,0.5-2.3-0.5c-0.5-0.5-1-0.8-1-0.5c0,0-0.3,0-0.3-0.3C167.5,120.8,167.7,121,169.5,120.8z
			 M171.5,136.7c0.8-0.3,2,0,2,0.5c0.3,0.5-1,0.5-2,0l-0.8-0.3L171.5,136.7z M172.8,142.8c0.5-0.3,2.3-0.3,2.8,0.3
			c0.5,0.5,0.5,0.5-1,0.5C173,143.6,172,143.1,172.8,142.8z M178.8,149.9c0.5,0.5,0.5,0.5-0.8,0.5c-0.8,0-1.5,0-1.5-0.3
			s-0.5-0.5-0.8-0.5C174.3,149.4,178.1,149.4,178.8,149.9z M182.1,156.7l1,0.8h-0.7c-0.5,0-1.5,0-2,0c-1,0-2.8-0.8-2.8-1.5
			C177.3,155.5,181.4,156,182.1,156.7z M181.6,162.8c1.3,0,3.3,0.8,3.3,1c0,0.5-3.3,0-4-0.5l-0.8-0.5H181.6z M186.4,169.9
			c0,0.5-3.3,0.5-3.8,0s-0.5-0.5,1-0.5C185.2,169.1,186.4,169.4,186.4,169.9z M188.2,175.5l0.8,0.5h-1.8
			C182.9,176,186.4,173.9,188.2,175.5z M191,177.5c1,0,1.5,0.8,0.8,1C189.2,179.3,188,177.5,191,177.5z M185.9,171.9h1.8
			c1.5,0,4,0.5,4,1.3C191.8,173.4,188.7,173.7,185.9,171.9z M188.7,166.9c0,0.3-0.3,0.3-0.3,0.3c-0.3-0.3-2,0.8-2.5,0
			c-0.3-0.3-0.5-0.5-0.8-0.5c-0.5,0-0.5-0.5,0-0.8c0.3,0,0.8,0,1.5,0C187.4,165.6,189,166.3,188.7,166.9z M186.9,163.6
			c-1.3-0.8-1.3-1,0.3-1c1.3,0,2.5,0.8,1.8,1.3C188.7,164.1,188,164.1,186.9,163.6z M181.4,153.4c-0.5-0.3-1-0.5-1.3-0.5
			s-0.5-0.3-0.3-0.3c0.3-0.5,2.8-0.3,2.8,0.3c0.3,0.5,0.8,0,1.3,0.8C184.4,154.2,182.1,154.2,181.4,153.4z M182.9,139.5
			c0.3,0,0.8,0.3,0.8,0.5c0.3,0.8-0.3,0.8-0.8,0.3C182.1,139.5,182.1,139.5,182.9,139.5z M180.6,135.7c0.8-0.5,3.3,0,4,0.8l0.8,0.8
			C181.4,137.2,180.4,136,180.6,135.7z M179.6,133.2c0.3,0,1,0,1.3,0.5l0.8,0.5C178.8,133.9,178.8,133.4,179.6,133.2z M175.3,127.4
			h1.8c1.8,0,4.3,0.3,4.3,0.8C181.4,128.6,178.3,128.9,175.3,127.4z M175.8,121.5c0-0.3-0.3-0.5-0.5-0.5c-1.8-0.3-1.8-1-0.3-1.3
			c1.3-0.3,1.5-0.3,1.8,0.3c0.3,0.3,0.8,0.8,1.3,1s0.8,0.5,0.8,0.5C178.8,122.1,175.8,122.1,175.8,121.5z M174.3,114.7
			c-1,0.5-3.5-1-1.5-1.3c1.5,0,2.3-0.3,3.5,0.5l1,0.5l-1,0.3C174.8,115.2,175.6,114.2,174.3,114.7z M168.2,111.2
			c-1.3-0.8-1-1.3,0.5-1.3c1.3-0.3,1.5,0,2.3,0.5c0.5,0.5,1,0.8,1.3,0.8s0.5,0.3,0.8,0.5C173.8,112.4,169.5,111.9,168.2,111.2z
			 M166.4,108.6c-1.5,0-1.8,0-1.5-0.8c0-0.3-0.3-0.3-0.5-0.3s-0.5,0-0.8-0.3c-0.3-0.8,3.8-0.8,4.3,0.8
			C168,108.6,167.7,108.6,166.4,108.6z M164.7,96.5c1.5,0,2.3,0.3,2.3,0.5C167.2,98.5,160.9,96.5,164.7,96.5z M164.2,100.3
			c0.3,0.3,0.8,0.5,1,0.5s0.5,0,0.5,0.3c0,0.8-3,0.5-4.6-0.3c-1.5-0.8-1.3-1.3,0.8-1.3C163.2,99.5,163.7,99.8,164.2,100.3z
			 M159.6,104.3c0-0.3-0.3-0.5-0.8-0.5c-1.3-0.3-0.5-0.8,0.8-0.8C164.2,103.1,159.6,105.1,159.6,104.3z M160.1,112.7
			c0.8,0.5,0.3,0.8-0.8,0.5c-0.5-0.3-0.8-0.3-0.8,0c0,0-0.3,0-0.5-0.3c-0.5-0.5-0.5-0.5-0.3-0.8
			C158.8,111.2,158.6,111.9,160.1,112.7z M164.4,115.7c0,0.5-3.3,0.5-3.5,0c0-0.3-0.5-0.3-0.8-0.3
			C157.8,115.5,164.4,113.7,164.4,115.7z M165.9,122.1l1,0.8h-1.5C159.9,122.8,163.4,120,165.9,122.1z M165.7,128.1
			c0.8-0.5,1.8-0.3,2.8,0.3c0.8,0.8,0.5,1-1,0.8C165.4,128.9,165.2,128.6,165.7,128.1z M167.7,124.6c0.8-0.3,2.3,0.3,2.5,1
			C170.5,126.6,165.2,125.3,167.7,124.6z M171.8,140.3c0.5,0.5,0.5,0.5-1,0.5C167.5,140.8,170.5,138.8,171.8,140.3z M172,145.8
			c0.8-0.3,2,0.5,2,1s-1.5,0.5-1.5,0c0-0.3-0.3-0.3-0.5-0.3C171.3,146.6,171.3,146.1,172,145.8z M178.6,154.2h-1
			c-1.5,0-1.8-0.8-2.5-0.5c-0.5,0.3-1-0.3-1-0.8C174,152.4,175.3,152.2,178.6,154.2z M178.1,159.5c1.5,0.3,2,0.8,1.3,1.3
			c-0.5,0.5-0.8,0.5-1.5,0C176.1,160.3,176.3,159.3,178.1,159.5z M182.9,167.4h-1.5c-1.5,0-1.8,0-1.8-0.8
			C179.6,166.1,180.6,165.6,182.9,167.4z M183.9,172.9c0.8,0.8-1,0.5-1.5,0C181.6,172.2,183.4,172.4,183.9,172.9z M186.2,178.5
			l1,0.5h-1.5C182.4,178.7,184.7,177.7,186.2,178.5z M187.4,184.1c0.8,0,1,0.5,0.5,0.5c-1,0-1.3-0.3-1.3-0.8
			C186.4,183.1,186.4,184.1,187.4,184.1z M191.8,206.6c-0.3,0-0.5,0.3-0.5,0.8s-0.8,2.8-0.5-0.5c0-7.3-2.8-6.8-1.5-5.6
			c0.5,0.5,0.8,7.3,0.3,7.8c-0.3,0-0.3,0.5-0.3,0.8c0.3,0.8-0.8,1.5-1.5,2l0.3-2c0.3-2.3,0.3-7.3,0-9.6c0-0.8,0-1.5,0.3-1.5
			c0.5,0-0.3-0.5,0.5-0.5c1.5,0,1.8,1,1,0.8c-0.8-0.5-0.3,0.8,0.5,1.5c0.5,0.5,0.8,1,1,1.8c0,1.8,1,1.5,0.8,3c0,0.5,0,1,0,1
			c0.3,0,0.3,0.3,0.3,0.3C192.3,206.6,192,206.6,191.8,206.6z M195.3,209.9c-1.3,0.5-2.3,0-1.8-0.8c0.3-0.3,0.5-0.3,1.3,0
			C195.5,209.6,195.8,209.6,195.3,209.9z M197.3,206.3l-1,0.3c-1,0.3-2-0.3-2-0.8C194.5,204.6,196.6,205.8,197.3,206.3z
			 M194.5,201.3c0.8-0.3,2.5,0.3,2.5,0.8s1,0.3,1.3,0.5c0.3,0.3-3.8,0.5-4.6,0C193,202.3,193.5,201.5,194.5,201.3z M195.3,196.7
			c-0.5,0-2.8-0.3-3.3,0s-1.3-0.5-1-1.3s2-0.5,3,0.3L195.3,196.7z M198.1,193.4c-5.3,0-4.8,0-6.6-1
			C195.8,191.4,194.5,191.9,198.1,193.4z M199.1,190.6c0.3,0.3-0.3,0.3-0.5,0c-0.5-0.3-4.6,0.3-5.3-1.8
			C193,188.1,197.3,189.4,199.1,190.6z M196.1,184.3c0,0.5-4.8,0-5.3-0.5c-0.8-0.8-1.5-0.3-0.8-1C190.5,182,196.1,183.6,196.1,184.3
			z M196.8,181c-0.5,0.5-3,0.3-3.8-0.3c-2.3-1.3,0.5-0.5,1.8-0.8C195,179.8,197.1,180.8,196.8,181z M199.1,180.8c0,0.8-1.3,0-1.3-1
			C197.8,179,199.3,179,199.1,180.8z M197.8,178c0,0.5-2.5,0.3-3.3-0.3l-0.8-0.5h1C196.8,177,197.8,177.5,197.8,178z M195.8,176
			c-4,0-3.8,0-5.6-1C193.3,174.2,193.5,174.2,195.8,176z M196.3,167.1c-0.8,0.5-1,0.3-1.8-0.8C192.5,163.8,197.1,166.9,196.3,167.1z
			 M193.8,172.4c-1.5-0.8-1.8-1.3-0.5-1.3C194.5,171.4,197.1,174.4,193.8,172.4z M193.5,170.1c-0.3,0-6.3-0.3-4.3-1.5
			C191,167.6,193.8,170.4,193.5,170.1z M193,160.5c-1,0-1.5-0.5-1.5-1.3c0-0.3,1-0.3,1.3,0.3C193,160.3,194.8,160.5,193,160.5z
			 M191.2,155.2c0.8,0,1.3,0,1.5,0c0,0.3,0.3,0.3,0.5,0.3s1,0.5,1.5,1l1,1c-2.8,0.3-3.5,0.3-3.8-0.3c-0.3-0.3-0.5-0.5-0.8-0.5
			C190,156.5,189.7,155.5,191.2,155.2z M190.2,149.4c0.3,0.3,0.5,0.5,0.8,0.5s0.5,0.3,0.5,0.3c0,0.3-0.5,0.5-0.8,0.3
			c0,0-0.8-0.3-1.5-0.3c-0.8,0-1.3-0.3-1.5-0.5c0-0.3-0.5-0.5-0.8-0.5C186.2,149.4,189.2,147.9,190.2,149.4z M184.7,143.1
			c-1-0.3-1-0.8,0.3-1.3c0.8-0.3,3,0.8,3,1C188,143.3,185.4,143.3,184.7,143.1z M190.2,141.3c1.5,0,2.3,0.5,1.8,1
			c-0.3,0.3-0.3,0.5-0.3,0.8c0.5,0.5-1,0.3-2.3-0.5C188,141.8,188.2,141.3,190.2,141.3z M189,139.5c0,0.3,0.3,0.5,0.8,0.5
			c1,0.5-2,0.3-3-0.3c-1.8-0.5-1.8-1-0.3-1.3C187.4,138.5,189,139,189,139.5z M187.4,133.9c-2.5,0-1-0.3-2.8-0.3
			c-1.3,0-2.3-0.8-1.8-1C185.7,131.2,192.3,134.2,187.4,133.9z M187.2,129.1c0.8,0,1.3,0.5,1.3,1.8c0,0.5-0.8,0.5-1,0
			c0-0.3-0.5-0.5-1-0.8C185.2,129.6,185.7,129.1,187.2,129.1z M185.9,131.4h-2.5c-3.8,0-5.1-0.8-2-1.3
			C183.4,129.4,183.1,129.6,185.9,131.4z M180.4,123.3c0.8-0.3,1-0.3,2,0.5c0.5,0.5,1.5,1,1.8,1.3c0.5,0.3-1.5,0.5-3,0.3
			c-1.3-0.3-3-1.5-2.5-1.8c0.3,0,0.5,0,0.8,0C179.4,123.6,179.9,123.6,180.4,123.3z M177.6,116.2c1.8-0.5,2-0.3,4.3,1.5
			c0.8,0.8-4.6,0.3-5.6-0.3c-0.8-0.5-1-1-0.5-0.8C175.8,116.5,176.8,116.5,177.6,116.2z M178.8,110.7c1,0.3,1,0.8,0,0.8
			c-0.5,0-1.3,0-1.8,0c-2,0.3-2.3-1.8-3.3-1.8s0.3-0.8,1.5-0.8C177.8,108.9,176.8,110.2,178.8,110.7z M176.3,104.3
			c0.8,0.5,0.5,0.3-2.3,0.5C170.7,105.1,175,103.6,176.3,104.3z M173,106.6c0,0,0.5,0.5,1,0.8l1,0.8c-1,0-3.5,0-3.5-0.3
			s-0.3-0.3-0.5-0.3c-0.5,0-1.8-0.3-1.8-0.8C169.2,106.6,173,106.1,173,106.6z M172.5,96.2c0.5,0.5,1,0.8,1.3,0.8s0.3,0,0.3,0.3
			c-0.5,0.5-4,0.3-5.1,0c-1.3-0.8-1-1.3,0.5-1.3C171.5,96,171.5,95.5,172.5,96.2z M169.5,94.2l1,0.8h-2.3
			C161.9,95,167.5,92.2,169.5,94.2z M166.7,88.6c1.3,1,0.3,0.8,0,0.5c0-0.3-0.5-0.3-0.8-0.3C162.6,88.6,163.9,86.4,166.7,88.6z
			 M160.9,85.3c0.3,0,0.8,0,1,0s0.8,0.3,1.3,0.8c0.8,0.8,0.5,1-1.3,0.5C160.9,85.9,160.4,85.3,160.9,85.3z M161.6,90.9
			c0.3,0,1,0,1.8-0.3c1.3-0.3,1.5,0.3,3.3,1.5h-2C162.6,92.2,159.9,90.9,161.6,90.9z M160.6,94.5c0.5,0.3,0.8,0.3,1.3,0s2.5,0,2,0.5
			s-3.5,0.5-4.3-0.3C158.8,94,159.4,93.7,160.6,94.5z M159.6,98c-1.3,0-1.8,0.5-3.3-0.5l-1-0.8C160.1,97.2,161.1,98,159.6,98z
			 M142.9,88.6c1,0.8,1,0.3,1.5,1.3s1.3,0.3,2,1c0.5,0.8,1.3,0.3,1.8,1c0.5,0.8,1.5,0.5,3,1.5c3.3,2.3,4.3,1.8,3.8,2.8
			c-0.3,0.8-0.3,0.8-3.8-1.8c-0.8-0.5-1.3-0.8-1.5-0.8c-0.3,0.3,1,1,2,2s2.5,1.8,3.3,2.5c0.8,1,1.5,0.5,1,1c-1.3,1.3,1.5,0.3,2.8,2
			c1,1,2,0.8-0.3,1c-2.3,0.3-1.8-0.3-3.5-1c-0.5-0.3-1-0.5-1-0.5c0-0.3-3-1.5-3.3-1.5c-0.3,0.3,1.8,2.3,2.5,2.8
			c0.5,0.3,0.8,0.8,0.8,1.3c0,0.8,0,0.8,0.8,0.5c1-0.3,3.3,1.5,2.5,2c-1,0.5-0.5-0.3-1.8,0c-0.5,0-0.8,0.3-0.5,0.5
			c0,0.3,0,0.3,0,0.3c-0.3,0-1-1.3-1-1.8c0-0.3-0.3-0.5-0.5-0.5c-0.5-0.3-1.5-2-1.3-2c0,0,0-0.3-0.5-0.8c-1-1-1.8-2.3-1.8-3
			c0-0.3-0.3-0.8-0.5-1c-0.8-0.5,0-1.3-1.3-1.8c-0.5-0.3-0.8-0.5-0.8-0.8s-0.3-0.3-0.3-0.3c-0.5,0-1.8-1.3-1.8-1.5
			c0-0.5-2-2.3-2.5-2.3C141.1,90.4,141.4,87.4,142.9,88.6z M139.1,78c0-2.5,1,4.6,0.3,4c-0.3,0-0.3,0-0.3,0.3c0,0.5-0.5,0.5-1,0
			C137.6,81.3,139.1,78.5,139.1,78z M139.1,86.9c0,1-0.5,1-1.5-0.3C135.8,83.6,139.1,85.3,139.1,86.9z M138.1,93.7
			c-0.5,0.8-1.5,0-1.8-1.3c0-0.5-0.5-1-1-1.3c-1-0.5-2.5-3-0.3-1C135.3,90.7,138.6,92.9,138.1,93.7z M135.8,96.5
			c-0.5-0.8-0.8-1.5-1-1.5s-0.5-0.5-0.8-1s-1-1.5-1.8-2.3s-1.5-1.8-1.8-2.3s-0.5-1-0.5-1c-0.5,0-3.5-5.6,2.5,1.8
			c2.5,3,2.3,2.5,3,4.3c0.8,2,1.5,2.3,1.3,3C136.6,97.8,136.3,97.5,135.8,96.5z M135.8,102.6c-1.3-3-4.3-8.9-4.3-8.9
			c-0.3-1.8,1.5,1.5,4,7.1C136.6,103.6,136.3,103.8,135.8,102.6z M130.5,92.7c0-0.5-2.5-2.8-1.5-2.8c0.3,0,0.8,0.8,1.3,1.5
			C131.8,93.7,130.5,93.2,130.5,92.7z M126.5,77.2c0.5,0.5,0.8,0.8,0.8,0.5s1.8,0.8,1.8,1s0.3,0.3,0.3,0.3s1,0.5,1.5,1
			c4.3,3.3,5.1,3.3,4.6,5.3c-0.5,1.8-2.3-0.8-3.5-0.8c-0.5,0,0-0.5-1-0.8c-0.3,0-0.5-0.5-0.5-0.8s0-0.5-0.3-0.5
			c-0.5,0-0.8,0-0.5-0.3s0.3-0.3-0.3-0.5c-2.5-1-1.3-3.3-2.5-3c-1,0.4-1.5-0.8-1.5-0.6s-0.8-0.5-1.5-1.5
			C123.7,75.5,125.4,76.2,126.5,77.2z M127,87.6c0-0.3,0-0.5-0.3-0.5c-0.5,0-2.5-3.3-2.3-3.8c0.5-1.3,0.5,0.8,1.3,1.3
			c0.3,0,0.3,0.5,0.3,0.8s0.3,0.8,0.5,1.3C126.7,86.9,127,87.4,127,87.6c0,0.3,0,0.3,0.3,0.3s0.5,0.3,0.5,0.8
			C129,90.4,127,88.6,127,87.6z M124.2,81c0.3,0.3,0.5,0.8,0.5,1c0,0.5-0.8,0.8-0.8-0.5C123.7,80.5,123.7,80.5,124.2,81z
			 M107.5,76.5v1.3c0,1.5-0.3,2.3-0.8,1.3C106.7,78,107.2,77,107.5,76.5z M99.1,136.5l0.5,1c0.5-1,0.8-1.3,0.5-5.8
			c-0.3-8.1-0.3-9.1,0-9.1c0.3,0.3,0.3,0,0-0.3c-1.5-1.8,1-19,1-19.2c0-1.3,0.5-1.8,0.5-0.3c0,2.3,1-0.3,0.3,4.8
			c-1,9.6-0.5,12.4-1.3,12.9c-0.3,0.3-0.3,0.3,0,0.8c0.3,0.3,0.5,1,0.5,2.3c0,2.8,0.5,5.6,0.5,8.4c0,2.5,0.5,1.8,0.5,3
			c0,1.8,1,2.8,0.8,0.8c0-0.8,0-1.5,0.3-1.8c0.3-0.5,0-0.8,0-0.8c-0.5,0-0.5-6.8,0-6.6c0.3,0.3,0.5-0.5-0.3-0.8s-0.3-6.6-0.8-7.6
			c-0.3-0.8,0.3-1.5,0.3-2c-0.3-1.3,0-8.1,0.3-8.9c0.3-0.5,0.5-2,0.5-3.8c0-3,0.8-5.6,0.8-2.8c0,1.3,0.5,1.3,0.8,0
			c0.3-1,0,5.1,0.5,5.1s0.3-1.3,0.5-3.5c0.3-1.8,1-10.4,1-10.4c0.3-0.5-0.8-1-1.3,2c-0.8,6.1-1.8,1-1.3-0.8c0.8-3.3,0.3-4.6-0.5-1.5
			c-0.3,1.3-1.3,4-1.3,4c0,0.3-0.3,0.3-0.3,0.3c-0.3-0.3-0.3-4,0.3-5.3c0.3-0.8-0.8-1-1,0.8c-0.3,0.8-0.5,1.3-0.8,1.3
			c-0.8,0.3-0.8-4,0-4.3c0.5-0.3,0.3-1,0.8-1c0.3,0,0.5-0.5,0.8-1c0.5-1,0.8-1.3,1-0.3c0,0.8,1.8-2.5,1.8-3.5c0-0.3,0.3,0,0.5,0.5
			c0.8,1.8,0,0.3,1-1.3c0.3-0.5,0.5-1,0.5-1.3c0-1,0.5,0,0.5,1s0.8,4.6,1-4.8c0-1.8,1.3,0.8,1.5,3.3c0.3,1.5,0.8,1.3,0.8-0.3
			c0-7.1,1.8-4.8,1.3-3.8s1,4.3,1.3,5.1c0,0.3,0-1,0-3c-0.3-2.8,0.3-5.6,0.5-3.3s0.5,3,0.8,3.8c0.3,0.5,0.5,1,0.5,1.3s0,0.5,0.3,0.5
			c0.3,0.3,2,4,2,4.6c0,0.8,1.8,5.3,2.5,6.3c0.3,0.5,0.8,1.3,1,1.5c0.3,0.3,6.1,8.1,6.1,9.9c0,0,1.5,3.3,1.8,4.8
			c0.3,2,0.5,0.3,1,3.3c0,1,0.3,2,0.5,2c0.5,0.3,0.3,1.3-0.3,1.3c-0.3,0-0.3,0.3,0.3,0.5c0.8,0.8,0.8,10.4-0.3,14.2
			c-0.3,1,0.8,0.8,0.8-0.8c0-0.5,0.3-1.5,0.5-2c0.8-2,1.3-10.1,0.5-11.1c-0.3-0.5-0.3-4.6-0.8-5.6s-1.5-5.1-2-6.1
			c-1.5-2.8-2.8-5.3-2.8-5.3c-1-2.3-0.8-0.8-2.3-3.5c-1-1.8-2.5-3.5-2.5-3.5c0-0.3-1.5-2.3-1.3-2.8c0-0.3,0-0.5-0.3-0.5
			s-0.5-0.5-0.8-1c-0.5-1.5-1-0.5-1-1.8c0-0.5-0.3-0.8-0.3-1c-0.3-0.3-1.3-3-1.5-3.5c0,0-0.3-0.5-1-2.8c-1-3.8-0.5-3.8,0.8-0.3
			c0.3,1.3,1.3,3.3,1.8,4.6c1.5,3.3,0.8,3.3,1.5,3.5c1,0.3,1,2.5,1.8,3.3c0.5,0.5-0.3,1.3,0.3,1c0.5-0.3,0,0,1.3,1.3
			c1.3,1.5,1.5,2,3,3.8c2.3,2.8,6.3,11.1,6.1,12.7c0,0.3,0,0.5,0.3,0.8c0.5,0.5,0.5,1.5,0.8,2.3c0.5,1,0.8,4.3,0.5,4.3
			s0,0.5,0.3,1.3c0.8,1.5,1,12.7,1.8,11.6c0.3-0.3,0.5-16.5-1.8-20.8c-0.8-1.8-0.5-2.5-1-3c-0.3-0.3-4.3-8.1-5.6-9.4
			c-0.5-0.5-1.5-2.3-1.8-2.3s-0.3-1-0.5-1c-0.5,0-0.3-1-0.5-1s-1-2.3-1.3-2s-1-0.8-1-1.5c0-0.3,0-0.5-0.3-0.5
			c-0.8-0.3-1.8-4.3-2.5-4.8C118,80,117,75,117.5,76c0.3,0.8,2.8,3.3,2.8,4c0,0.8,0.5,0.3,0.5,1c0,0.3,0,0.5,0.3,0.5
			s0.5,0.5,0.8,1.3c0.5,2,2,3.3,2.5,5.1c0.3,0.5,0.8,1.5,1.3,2c2.3,2.3,5.8,8.6,5.6,9.6c0,0.3,0,0.5,0.3,0.8c0.5,0.3,2.3,4,2.3,5.1
			c0,1.3,0.5,1,1.3,3.5c0.8,2.8,1,2.5,1.3,4.6c0.3,2.5,0.5,1.5,0.8,5.1c0.3,4.8,0.5,3.8,0.5,14.7c0,8.1,0.3,9.6,0.8,9.1
			c0.3-0.3,0.3-5.6,0.5-14.7c0-2,0-3.5-0.3-3.8s-0.3-1.5,0.3-1.8c0.3-0.3,0.3-0.3,0-0.5c-0.5-0.3-0.8-6.8-0.5-7.1
			c0.3-0.3,1,4.3,1.3,5.6c0.3,1-0.8,0.5,0,1.3c0.3,0.3,0.5,0.8,0.3,0.8c-0.3,0.5-0.5,14.9-0.3,15.2c0.3,0.5,0.3,2.3,0.8,4.6
			c0.5,2.5,0,18.2,0,18.7c0,0-0.3,20.8,0.5,27.8c0.3,2.3,0.5,10.4,0.8,10.6c0.3,0.3,0,4.3,0.5,4.8c0.3,0.5,1.3,4.8,1,5.1
			c-0.3,0.5-0.8,0.3-0.8-0.3c0-0.8-1-0.8-1-1.3c0-1-1-0.8-0.8-2c0-0.5,0-0.8-0.3-0.8s-0.3-0.3-0.3-0.3c0-0.3,0-0.8-0.3-1.3
			s-0.3-1.8-0.5-2.5c-0.3-2.3-0.8-0.5-0.5-2c0-0.5,0-1,0-1.3c-0.3,0-0.3-0.3-0.3-0.5c0-0.3,0-0.5,0-0.8c-0.8-1.5-1.3-20.5-0.5-20.8
			c0.5-0.3,0.5-1,0-1.8c-0.3-0.5-0.3-0.8-0.3-1.3c0.3-0.5,0.3-0.8,0-1c-0.3-0.5-0.8-9.1-0.5-9.6s0.3-5.6-0.3-6.6
			c-0.3-0.5,0-0.5,0.5-0.5c1-0.3,0.8-0.5,0.5-1.8c0-1.3-0.8-1.3-0.8,0.3c0,1,0,1-0.3,0.5c-0.5-1.3,0.5-1,0.3-2.8
			c-0.5-4.3-0.5-12.1-1-12.7c-0.8-0.8-0.3,12.4-0.8,13.7c0,0.3,0,0.5,0,0.5c0.3,0,0.3,2.5,0.3,5.8c0,4.6,0,5.8-0.3,5.8s-0.3,0,0,0.3
			c0.8,0.5,0.5,11.1,0.8,11.9c0.3,0.5-0.5,0-0.5-0.8c0-0.5-0.3-0.5-0.5-0.5c-0.3,0.3-0.5,0.5-0.3,1.3c0.3,1.3,0.5,1.3,0.8,0.8
			s0.5,0,0.5,1.5c0,3.8,1,12.1,1,18.7c0,2.3,0.3,4,0.3,4s0.3,0.8,0.3,1.8c0,2.3,0.5,3,0.8,5.1c0.3,2,0.8,3.5,0.3,3.5
			c-0.3,0-0.3-0.5-0.3-1s-0.3-1-0.8-1.3c-1.3-1,0.8-0.8-0.5-1.5c-1-0.5-0.8-1.8-1.5-5.1c-0.5-1.5-0.5-1.8,0-2.3
			c0.5-0.8,0.3-2.5-0.5-2.8c-0.8-0.5-0.3-0.8-0.8-2.5c-0.3-1.8-0.3-3.8-0.8-8.4c-0.5-4-0.5-14.7-0.8-15.2c-0.5-0.8,1.5-2.8,0.3-2.8
			c-0.3,0-0.5-0.3-0.3-0.5c0.3-0.3,0.3-1.5,0.3-3c-0.3-2.3,0-2.3,0.5-2.5c0.5-0.3,0.8-0.3,0.5-1c-0.3-1-0.8-1.8-0.8-0.8
			c0,1.3,0,1.5-0.3,1c-0.5-1,0.5-3.3,0-4c-0.3-0.3-0.3-0.5,0-0.5c0.3-0.3,0.3-5.1,0-6.1s0.8-2,0.3-2.3s-0.3-9.6-0.5-9.9
			c-0.8-0.8-1,12.4-1,13.4c0,4-0.3,5.3-0.3,5.3c0.3,0.3,0.3,14.2,0.5,14.4c0,0,0,0.5-0.3,0.8s-0.3,0.5,0,0.8c0.5,0.5,0.5,3.5,0,3.8
			c-0.3,0.3-0.3,0.3,0,0.8c0.3,0.3,0.3,1,0.3,1.5s0,1,0.3,1s0.3,0.3,0,0.5c0,0.3,0,1,0,1.3c0.3,1-0.3,2.8-0.3,2
			c0-0.5-0.3-0.5-0.3-0.3c-0.5,0.5-0.3,3.3,0.5,3.3c0.3,0,0.5,0,0.5,0.5c0,1,1,8.9,1,9.1c0.5,0.8,1.5,10.4,2.3,14.2
			c0.5,2,0.8,3.8,0.5,4c0,0.3,0,0.8,0.3,1c0.5,0.8-0.3,1.3,0.5,1.5c0.3,0,0.5,0.3,0.5,0.5c-0.3,0.8,0,1,0.5,0.8
			c0.8-0.8-0.5-1.8,0-2.5c0.5-0.5,0.8-1.8,0.5-2c-0.3-0.3,0-2,0.3-2s0.8,4,0.8,6.3c0,2,1.3,2.3,1.3,0.3c0-1.5,0.5-4.8,0.8-5.6
			c0-0.3,0-0.5,0-0.8c-0.3-0.3-0.5-1,0-1s1.3,2.8,1.5,5.6c0.3,4.6,1.3,5.3,1.3,1c0-1.3,0-2.5,0.3-3.3c0.3-2.5-2-8.4-2-11.1
			c0-1.5-0.5-0.3-0.8-2.8c-0.3-2.8-0.3-0.8-0.5-3.8c-0.3-3.3-0.8-1.8-0.8-5.6c0-4-0.8-4,0-3.8c1,0.5,0.8-1.3-0.3-2.5
			c-0.3-0.3-0.3-1.5-0.3-3.5c0-0.8-0.3-11.1,0.3-11.6c0.3-0.3,0.3-0.5,0.3-0.8c-0.3-0.3-0.3-2.3-0.3-4.3c0.3-7.3,0-20-0.3-22.5
			c-0.3-1.8-0.3-2.5,0.3-2.5s0.8,1.5,0.5,2.5c0,0.5,0,1,0,1c0.5,0,0.3,1.8,0.8,2.3s0.5,3.5,1.3,6.1c0.8,2.5,0.5,2.5,1,4
			c0.3,1.5,0.3,1.8,1,3.5c0.8,2,0,2,0.5,2.3c0.8,0.3,0.3,0.8,1.3,2c0.5,0.5,2,3,4,3c0.8,0,1,0,1,0.5c0,0.3,0,0.5,0,0.5
			c0.5,0,0.5,2,0,3c-0.3,0.8-0.5,0.8-1.3,0.5l-1-0.3c0,1,0,6.1,2,6.1c1,0,0.5,1,1.3,1c0.5,0,2,1.8,2,2.5c0,0.3,0.3,0.8,0.8,1.3
			s0.8,1.3,0.8,1.8c0,0.8,0.8,1.8,1,1.3c0.8-5.8-2.8-14.2-1-14.2c0.8,0,0.5,0.8,0.8,2.5c0.3,1.8,0.8,11.1,1.5,12.4
			c0.5,0.8,0-4.6-0.5-12.7c-0.3-3-0.3-2.3-0.5-4.3c-1-8.4-2.3-8.4-1.8-5.3c0.5,1.8,0.5,2.3,0.8,4.8c0.3,2,0.3,2-0.5,1.5
			s-1.3-2.8-0.8-3.3c0-0.3,0-0.5,0-0.5c-0.3,0-0.5-0.8-0.5-1.5c-0.8-5.6-3-8.9-1.8-5.1c0.8,2.8-1.5,0.3-2-2
			c-0.5-1.5-1.3-4.3-1.5-5.3c-0.3-0.8-1,0.8-1,0s-2.3-3.5-1.5-4.3c0.3-0.3,0.3-0.5-0.3-0.8c-0.3-0.3-0.8-1-1-1.8c-0.5-2-1-1.8-0.8-3
			c0.3-1.3-0.5-0.8-0.3-1.5c0.3-0.8-0.5-0.3-0.5-0.8c0.3-1-1-2.3-0.8-3c0.3-0.8-1-1.8-0.8-2.3c0.3-0.3-0.8-3.8-1.3-3.8
			c0,0-0.5,0-0.8,0c-0.5,0-0.5,3.5,0,4.3c0,0.3,0,0.3-0.3,0.3c-0.8,0-0.5,1-0.3,1s0.3,2,0,3c-0.3,0.8-0.3,1.5-0.8-5.1
			c0-0.8,0-2,0.3-2.5s0.3-0.8,0-0.8s0-3,0-3c0.3,0,0.5-10.6-0.3-11.6c-0.3-0.5,0-4-0.5-4c-0.3,0-0.8-4.6-1.3-4.6s-0.3-1,0-1
			s2.5,6.6,3,8.9c0.3,1.3,1,1.3,0.8,0.3s-0.8-5.3-0.5-5.8c0-0.3,0-0.5-0.3-0.5s-0.5-4-1-4.3s0.8-1,0-1c-0.5,0-0.3-1-0.5-1.3
			c-0.3,0-0.8-1.3-1.5-2.8c-1.8-3.8-1.3-4.3,0.8-0.8c1,1.8,0,1.5,0.8,2.3c0.5,0.8,1.8,4,1.5,4.6c0,0.3,0,0.3,0.3,0.3
			c0.5,0,0.3,1.5,0.5,1.5c0.5,0,0.8,1.5,0.5,2c-0.3,0.3-0.3,3.3,0,4c0,0.3-0.3,1.3,0.5,1s0.5,1.8,1.3,1.8c0.3,0,0.3-3.3,0-3.8
			s-0.5-3.3-0.3-3.5c0,0,0.3,0.3,0.5,0.8c0.3,1.3,0.8,1,0.8-0.3c0-1-0.5-1.8-1.3-1.5c-0.3,0-0.5-0.3-0.5-1.3c0-0.8-0.3-1.8-0.5-2
			c-0.3-0.5-0.3-1-0.3-1.3c0-0.5-0.8-2.3-1-3.3c-0.3-1-0.8-0.5-0.5-1.3s2,3.5,2.5,4c0.3,0.3,0.3,0.5,0.3,0.8s0.3,1,0.5,1.8
			c0.3,0.8,0.8,1.8,0.8,2.3c0.3,1.3,1,1.3,0.8,0c0-0.5,0-1,0.3-1s0.3-0.3,0-0.5c-0.5-0.3-0.5-3-0.8-3c-0.3,0.3-0.8-1-0.5-1.3
			s0.8,0.3,1,1.3c0,0.5,0.5,1.3,0.5,1.5c1.3,1.5,2,3.5,1.5,4c-0.8,0.5-0.5,1.8,0.3,2.5c0.5,0.5,0.5,0.3,0.3-0.8
			c-0.3-1.3,0.3-1.8,0.5-0.8c0.3,0.5,0.8,0.8,0.5,0c-0.5-2-0.3-3,0.5-1.3c0.5,1,1.8,3.5,2.3,4.8c0.3,0.5,0.5,0.8,0.8,0.8
			s0.3,0.3,0.3,0.3c0,0.3,0.3,0.8,0.8,1.5c0.5,0.5,1,2,1.3,3.3s0.8,2.3,1,2.5c0.3,0.3,0.5,0.8,0.5,1.3c0.3,1.3,0.8,0.3,1,2
			c0,0.8,0.5,1.5,0.8,1.8s0.5,0.8,0.5,1c0,0.8,1.3,2.8,1.3,3.5c0,1.3,3,6.3,2.8,7.3c-0.3,0.8,0.8,0.5,0.8,1.3c0,1,0.5,0.5,0.5,2
			s1,1.5,0.8,2.5c-0.3,0.5,1,2.3,1.3,2s0.8,1.5,0.8,2.5s1,1,1.8,3.3s1,2.3,1,3.3s0.8,1,1.3,2.5c0.5,1.8,0.8,1.5,0.8,2.3
			c0.3,1,0.8,0.5,0.8,2.3c0,0.5,0,1,0.3,1s0.3,0.3,0.3,0.5s0.3,0.5,0.5,0.8c0.3,0.3,0.5,0.8,0.8,1.3c0.3,1.5,1.5,3.3,1.8,4.3
			c0.3,1.5,2.5,4.6,1.3,4.6c-1,0-1.3,2-0.5,3.3c0.5,0.5,1,1,1,1c0.5,0,0.5,1.8,1,2c0.8,0.3,0,1,1,1h0.8c-0.8,0.3-2,0.8-1,1.8
			c0.3,0.3,0.5,0.8,0.3,1.3c-0.3,0.8,0.8,2,1,1.8c0,0,0.5,0.3,0.8,1c0.3,0.8,0.8,1,1,1c0.5,0,1.8,1.5,1.8,2s-0.5,1-1,1
			s-0.8,1.5-0.3,2c0.3,0.3,0.3,0.3,0,0.5c-0.8,0.5,0.8,2.3,1,2c0.5-0.5-1,2.3,0.3,3c0.3,0.3,0.3,1,0.5,2c0,13.4,0.3,12.9-2,13.4
			c-0.8,0.3-2.5,1.5-2,1.5c0.3,0,0,0.3-0.3,0.5c-2.3,2.8-0.3-6.3-0.5-9.9c-0.3-4-0.3-5.8,0-5.8s0.3,0,0-0.3
			c-0.8-0.5-1.5-8.6-2.5-7.8c0,0,1,6.6,0.8,7.1c-0.3,0.3,0,0.8,0,0.8c0.3,0.3,0.3,3,0.3,8.4c0,4.3,0.3,7.8,0.3,7.8
			c1.3,0-2.3,1.8-3.8,2c-1,0-2,0.3-2.3,0.5c-0.3,0.3-0.8,0.3-1,0.3c-1.5-0.5-1.8,2-1.5-2.8c0.5-5.3,0-3.5,0.3-7.1
			c0-2.3-1.8-13.7-1.3-4c0.3,5.1,0,7.3,0.5,7.6c0.3,0,0.3,0.3,0,0.3s-0.3,1-0.3,2.5c0,3.8,0,4-1.3,3.8c-0.8,0-1,0-1.3,0.3
			c-0.3,0.5-0.8,0.3-4.3,0c-3-0.3-3.5-0.5-2-0.8c0.3,0,0.8-0.5,0.8-1c0.5-1.8,1.5-0.8,0.8-1.8c-1-1.3,0.5-3.5,0.5-2c0,1,1-0.5,1,0
			s-0.8,0.5-0.3,1.3c0.5,0.5,0,3.5-0.5,3.5c-0.3,0-0.5,0.3-0.5,0.5c0,0.5,2.5,0,1.8,0c-0.8-0.3-0.8-0.3,0-0.8c0.3-0.3,0.5-1,0.5-3.8
			c0-2,0.3-3.5,0.3-3.8c0.3,0,0.3-0.3,0-0.5c-0.3-0.3-0.3-0.5-0.3-0.5c0.3-0.5,0.5-2.8,0.3-2.8s-0.8-2-1-4.6c0-0.3-0.3-0.3-0.3-0.3
			c-0.3,0-0.3,3.5,0,5.8s0,3-0.8,2.5c-1-0.8-1.3,0.3-1-0.5c0-0.3,0-0.5,0-0.8c-0.3,0-0.3-1-0.3-2c0.3-2.8-0.5-2.3-1-5.3
			c-0.5-5.1-1,0.8-0.3,5.8c0.5,3.3-0.8,4.3-0.8,2.8s-1.5-0.8-1.5-3c0-2.8-2.5-15.9-2-7.3c0.3,4.3,0.3,6.3,0.5,6.8c0.3,0.3,0.3,3,0,3
			s-0.3-0.3-0.3-0.5c0-0.3,0-0.5,0-0.8c-0.5-0.3-1.5-2.8-1.5-2.8c0.3-0.3-1.3-8.1-1.8-8.6c-0.3-0.3-0.5-1.5-1-2.8
			c-0.8-2.3-0.8-2.3-0.8-1c0,0.8,0,1.3,0.3,1.5c1.3,1,2,12.1,2,13.2l-0.8-1.5c-1-2.3-0.3-1.3-0.8-3.3c-0.3-1.3-1.3-9.4-2-10.1
			c-0.5-0.5,0.3,5.8,0.5,13.2c0,2.5,0.8,3,0.3,3s0-1-0.8-2s-1.8-4.8-1.3-4.6c0.5,0.3,0.8-1.3,0.5-2.3s-0.8-1-0.8-0.3
			c0,0.3-0.3-0.5-0.3-1.5c-0.5-3.5-0.5-3-0.8-6.1c-0.5-7.3-1.3,0.5-0.5,4.6c0.8,4.3,1,11.6,0.5,11.4c-0.3,0-0.5-0.5-0.5-1.3
			c0-0.5-0.3-1.3-0.5-1.5c-0.5-0.5-1-2-1.5-5.6c-0.5-3.8-0.5-2.5-1-6.6c-0.8-4.3-1-3.8-1.3-15.9c-0.3-12.1-1,4-0.5,9.9
			c0.3,1.5,0.3,5.6,0.8,9.9c0.5,4.3,0.5,5.6,0.8,6.3c0.5,0.8,0.3,0.5,0.5,1.8s-0.5,1.8-0.3,1c0-0.5,0-0.5-0.5-0.5c-1,0-1,1-0.3,3.5
			c0.3,1.3,0.8,2.8,0.8,3.3c0,1,0.8,2,1,1.3c0-0.3,0.3,0.5,0.3,1.8c0,2.5,0.3,3,0.8,3c0.8,0,0.3-2.3,0.8-3c0.8-0.8,0.3-6.6,0.8-6.1
			c0.3,0.3,0.3,2.5,0.5,4.8c0.3,2-0.8,1.8-0.3,2.5c0.3,0.3,0.3,0.5,0.3,1c0,2,1,0.3,1.3-2.3s0.8-1.8,0.5-1.3c-0.3,1,0.8,2.3,0.8,0.5
			c0-0.5,0-0.8,0.3-0.5c0.3,0.5,0.3,4.6-0.3,4.8c-0.5,0.3,0.3,0.8-0.5,0.8c-4.6,0.3-2.5,0.8-5.6,0.8c-1,0-1.8,0-1.8,0.3
			s-2,0.3-2.3,0c0,0-2.5-0.3-2.8-0.5c-0.5-0.3-4.8-1.5-4.8-1.8s-0.5-0.5-1-0.5c-0.8-0.3-1-0.5-1-1.5c0-0.5,0-2-0.3-3.3
			c0-2.3,0.5-3.3,1-1.5c0.3,1.5,0.8,2,0.8,3.3s0.8,3,1.3,2.5c0.3-0.3,0.3-0.5,0-1c-0.5-1.3,0.8-0.5,0.5-1.5c-0.5-1.3-0.3-4.6-1-5.6
			c-1.5-1.3-1-4-1.5-5.3s-0.3-6.1-1-6.6c-0.5-0.5,0.3,0-0.3-0.8c-0.5-0.8-0.3-4.3-0.8-5.3c-0.5-1.5-0.8-7.6-1-11.1
			c-0.5-9.1-0.3-21-0.3-21c-0.5-1.3,0.8,0,0.5-1.5c0-0.5-0.3-1-0.3-1c-0.3,0,0-9.4,0.3-9.6c0.3,0,0.3-0.5,0-1c-0.3-1-0.3-3.3,0-5.6
			s0.5-4.6,0.8-4.8c0.3,0,0.3-0.5,0.3-1s0-1.8,0-3c0.5-4-0.3-6.8-1,1.8c-0.3,1.8-0.5,1.3-0.5,2.8c0,1.3-1,7.3-1,9.4
			c0,1-0.5,2.8-1,2.8c-0.3,0-0.3,0.3,0,0.5c0.8,0.8-0.5,19.2-0.3,22c0.3,4.3,0.3,7.3,0,7.3c-0.3,0.3-0.3,0.5,0.3,1
			c0.3,0.5,0.5,2,0.5,4.3c0,1.8,0.3,3.3,0.3,3.3c0.3,0,0.5,0.5-0.3,0.5c-1.3,0,0.3,0.5,0.5,2c0.5,2.5,0.8,4.6,0.8,5.1
			c0,1.3,0.3,2.5,0.5,2.8c0.3,0.5,0,1.8,0.5,3.3c0.3,1.5,0.3,2,0.8,3.8c0.3,0.8,0.3,1.3,0.3,1.5s0,0.5,0,0.8c0.3,0.3,0.5,1,0.8,1.8
			c0.5,1.8,0,2.3-0.8,0.8c-0.8-2-1.5-2-1.3-3c0-0.5,0-1-0.3-1.5c-0.5-1-1.3-4.8-1-5.1s-1-0.8,0-1.3c0.3-0.3,0.3-0.3,0-0.5
			c-0.5-0.3-1.3-5.1-1.8-13.4c-0.5-5.1-0.5-16.5-0.3-16.5s0.3-0.3,0-0.5c-0.5-0.5-0.5-4.6,0-4.8c0.3,0,0.3-0.5,0-0.8
			c-0.8-1,0.8-1.5,0.3-1.8s-0.3-3.3,0-12.9c0-5.1,0.5-12.7,0.3-12.7c-0.3,0-0.8,1-0.5,1.3c0,0,0,1.5-0.3,2.8
			c-0.8,6.3-0.5,9.9-1.3,10.4c-1,0.8,0.8,0.3,0.5,1.8c-0.5,3-0.5,20.5-0.8,22.8c-0.5,2.5,0.8,1.3,0.5,4.6c0,2.5,0.5,3.5,0,3.5
			c-0.3,0-0.3,0-0.3,0.3c0.3,0.5,0.5,2.5,0.5,5.1c0,3.5,0.5,1,0.5,4.6c0,4,0.5,1.5,0.8,6.8c0,2,0.5,1.3,0.5,3.5
			c0.3,4.3,2.8,13.2,2,13.2c-2.3,0-0.5-5.8-2-7.1c-1-1-0.5-2.5-1-4c-0.8-2.3-1.8-8.9-1.5-9.4c0.3,0,0-0.3-0.3-0.5
			c-0.8-0.5-0.5-2.8-1-3.5c0-0.3,0-0.5,0.3-0.8c0.5-0.3,0.3-1.8,0-2.3c-0.3-0.3-0.3,0-0.8-10.9c0-1.5,0-2.5,0.3-2.5s0.3-0.3,0.3-0.5
			c-0.5-0.8-0.5-7.8,0-9.1c0.3-0.8,0.5-1.3,0.3-1.5c-0.3-0.3-0.5,1.3-0.8,1.3s-0.3,0,0-0.3s0.5-6.1,0.5-6.8c0-0.8,0-2.5,0-3.8
			s1-1,0.3-1.5c-0.5-0.5-0.5-2,0-2.5s0.5-1,0-1s-0.5-5.6,0-6.1c0-0.3,0-0.5,0-0.5c-0.3,0-0.3-1-0.3-2c0.3-3-0.5-3.3-0.8-0.3
			c-0.3,4-0.5,4.3-0.5,6.6c0,1-0.3,2-0.3,2.3c-0.3,0.3,0,0.5,0,0.5c0.5,0,0.5,0.8,0,0.5c-0.3,0-0.3,1-0.3,2.5c0,1.8-0.3,3-0.5,3.3
			c-0.3,0.3-0.3,0.5,0,0.5s0.3,3,0,4c0,0.3,0,0.8,0,0.8c0.3,0.3,0.3,1.3-0.3,2.3c-0.5,1,0.3,1,0.3,6.1c0,11.4,0.5,13.2,0.8,18.2
			c0,6.8,0.5,1.8,1,8.9c0.3,1.3,0.5,1.8,0.5,3.8c0.3,2.8,0.8,5.1,0.3,5.3c-0.8,0.5-1.3-5.8-1.5-6.3c-0.5-0.8,0-4.6-0.8-4.8
			c-0.5-0.3-0.3-2.3-0.8-3.5c-0.5-1.5,0.8-1,0-1.8c-0.3-0.3-0.5-0.5-0.5-1c0-1-0.5-8.6-0.5-8.9c-0.3-0.3,0.5-2.5,0.3-2.5
			s-0.3-5.6-0.5-6.3c0-0.3,0-0.5,0.3-0.8c0.3,0,0.3-0.3,0.3-0.5c-0.5-0.8,0.3-16.7,0.3-25.6c0-2.8,0-2.8,1-2.8c0.3,0,0.3,0-0.3-0.5
			c-0.3-0.3-0.8-0.5-0.8-0.5c-0.5,0-0.3-5.8,0.3-7.1c0.5-1.3,0.8-2.8,0.8-4.6c0-0.5,0-0.8,0.3-0.8c0.8,0-0.5-4-0.5-7.1
			c0-0.5-0.8-1.8-0.8,5.6c-0.3,9.9-0.8,3.3-1.3,12.9c0,1.8-0.3,3.5-0.5,3.8s-0.3,0.8-0.3,1c0.3,0.5-0.5,3-0.5-0.5c0-3.3,1-3,0.3-3.5
			c-0.5-0.5-0.5-1.8,0.3-5.1c0.5-2.5,0.8-7.8,0.3-10.1c-0.5-3-0.8-2.8-0.8,2.3c0,3,0,3-0.5,2.3c-0.3-0.5-0.8-1-1-1
			c-0.5-0.3-0.5-1.3,0-1.3c1,0,1-1.5,0-0.5c-0.8,0.5-0.8,0.3-1-1.3c-0.3-1.8-0.5-3.3-0.8-3.3c-0.3,0.3,0.3,5.1,0.5,6.1
			c0,0.3,0,0.5-0.5,0.5s-0.8-0.3-1-2.3c-1-6.3-1.3-6.6-1-2.3c0.3,6.1,0.3,9.4,0.5,12.9c0.3,3.3-0.5,2.5-0.5,1c0-1.3,0-0.8-1-10.1
			c-0.8-5.8-0.8-5.6-0.8-6.6v-0.8c-0.3,0.8-0.5,1.3-0.5,3.5c0,1.3-0.3,2-0.5,2c-0.3,0-0.3,0.3,0,0.5c0.5,0.8,0.5,3.3,0.5,3.5
			c0.3,0.3,1.3,8.4,0.8,8.4c-0.3,0-0.3-0.3-0.3-0.5c0-0.8-0.8-1.3-1-0.8c-0.3,0.5-0.3-1.8-0.3-2.8c-0.8-9.6-1.3-9.4-1.3-14.2
			c0-1.3-0.3-1.8-0.3-1.5c-0.3,0.3-0.5,9.1-0.3,9.9s0.5,6.3,0.8,7.6c0.5,1.3,0.5,5.1,0,5.1c-0.3,0-0.3,0.3,0,0.5
			c0.3,0.5,0.3,4.8,0,4.8s-0.3,0,0,0.3c0.5,0.3-0.3,0.8,0,1.5s-0.8,1.3-0.3,1.5c0.8,0.3-0.8,0.8,0,1.5c0.8,0.8,0,6.1,1.3,7.6
			c0.5,0.5,0.5,0.8,0.3,1.5c-0.5,1,1.3,1.3,2.3,0.3c0.3-0.3,0.8-0.5,1-0.5c0.3,0,0.3,0,0.3,0s0-0.8,0.3-1.5s0.5-1.8,0.3-2.8
			c-0.3-3-0.5-11.9-0.3-12.1c0.3-0.3,0.8,1,0.8,3c0,2.3,0.3,4.6,0.3,7.1s0.8,1.3,0.5,0.8s0.5-1.5,0.3,1.8c-1,12.1,0.3,12.1-1.8,12.4
			c-0.8,0.3-1.3,0.5-1.3,1c-0.3,0.8-0.8,1-0.8,0.3c0-0.3-0.8-0.3-0.3,0.8c0.5,1,0.5-0.5,1,0.3c0,0.3,0,0.5,0,0.5
			c-0.5,0.3,0.5,4.8,1,4.8c0,0,0.3,0.3,0.3,0.5c0,0.8,1,4,1.3,4.6c0.5,0.5,0.3,6.3,0.8,6.8c0,0,0.3,0,0.3-0.3c0-1,0.5-0.5,0.5,0.5
			c0,1.8-0.5,0.5-0.5,1.3c0,1,0.8,0,0.8,0.8c0,1,0.5,2.5,0,1.8c-0.5-0.8-0.3,0.5,0,0.5s0.5,1.8,0.8,3c0.5,1.5-0.8-0.8-0.8,0.5
			c0,0.3,0.3,0.8,0.5,1c0.3,0.3,1,3.3,1.3,6.3c0,0.3,0.3,1,0.5,1.5c1,2.5,0.8,4-0.5,2.8s-0.8-2.8-2.3-6.8c-0.5-1.5-0.8-5.1-0.5-5.1
			s0.3-0.3,0.3-0.5c0-0.3,0-0.5-0.3-0.3c-0.5,0.3-1-0.8-1-3.3c-0.3-3.8-0.5-2.5-1-3.8c-0.3-0.8,0.3,4.8,0.3,6.3
			c0,0.5,0.3,1.3,0.3,1.5c0.3,0.3,0,0.5,0,0.5c-0.3,0-0.3,0.8,0.3,1.5c0.8,2.5,1.8,7.6,1.8,9.1c0,0.5,0,0.8,0.3,0.8
			c0.5,0,0.8,1.3,0.3,1.8c-0.8,0.8-0.3,1.8-0.8,0.8c-0.3-0.3-0.3-0.8-0.3-1c0-0.3,0-0.5,0-0.5c-0.5-0.5-0.5-3.3-1.8-7.3
			c-0.3-1-0.3-4.6-0.8-4.8c-0.3-0.3-0.3-1.8,0.3-2.3c0.3-0.3,0.3-0.3,0-0.3c-1,0-1-5.1-1.3-5.6c-0.5-0.3-0.3-2.3-0.8-1.8
			c-0.5,0.3,0,1,0.3,4.6c0.5,7.1,1.3,7.6,0.8,8.6c-0.3,0.3-0.3,0.8,0,1c0.3,0.3,0.5,1.5,0.8,3s0.5,2.8,0.5,2.8
			c0.8,0.5,1.3,4.3,0.8,5.1c-0.8,1-0.3,0.8-1-2.3c-0.5-2.3,0-1.5-0.5-2.8c-0.3-0.5-0.3-1.3-0.3-1.5s0-0.8,0-1
			c-0.5-0.5-1.8-8.6-1.8-9.1c-0.3-1.8-0.8-4.6-0.5-5.1s-0.5-0.3-0.5-0.8c0.3-1.8-1-8.1-1.5-8.1c-0.3,0,0,3.8,0.3,4.6
			c0.3,0.5,1,9.4,0.8,9.6c0,0.3,0,0.3,0.3,0.3s0.3,0.8,0.3,2c0,1,0.3,2.5,0.5,3.3c0.3,1.3,1,5.8,1.3,6.1c0.5,0.8,0,4.8,1,5.6
			s-0.8,0.5-0.3,1.3c0.5,0.5,0.8,2.8,1.8,3.8c2,2.5-1.8,2.8-1,0.3c0.3-1.3-0.5-0.5-1-3.8s-1.3-5.6-1.3-6.8c0-0.5-0.3-1.3-0.5-1.8
			c-0.3-0.8-0.8-3.3-1.3-6.1c-0.3-1.5-1.3-5.3-1-6.1c0-0.3,0-0.8-0.3-0.8s-0.3-0.8-0.3-1.8c0-1.5-0.8-5.6-1-5.8
			c-0.3-0.3,0,10.4,0.3,10.9c0.3,0.3,0.3,2.5,0.5,3c0.5,0.8,0.5,1.8,0.3,1.8s-0.5,0.3-0.5,0.3c-0.3,0.8-1.8-8.6-1.5-9.6
			c0.3-0.8-0.3-1-0.8-0.5c-0.5,1-3-0.8-2.3-1.3c0.3-0.3,0.3-0.5-0.3-0.8c-0.3-0.3-0.5-0.8-0.3-1.8c0.3-2-0.5-0.3-0.5-2.5
			c0-2.8-1.3-6.1-0.8-7.1c0.8-1-1-1-0.3-1.8c0.5-0.8-0.3-0.5-0.5-3c0-0.3-1.8-8.9-1.3-11.1c0.3-1.5-0.8,0-0.8-2
			c0-1.8-0.5-8.4-0.8-10.1c-0.8-7.1-0.8-5.6-1-9.4c0-1.5-0.3-2.8-0.3-2.8c-0.3-0.3-0.5-4.8-0.3-5.3c0-0.3,0-0.3,0-0.5
			c-0.5-0.3-0.5-17.2,0-17.5c0,0,0.3-0.5,0-0.8c-0.3-0.8,0.8-3.5,1.3-3.3c0,0-0.5,18.2,0.5,22.8C100.1,136.2,98.1,133.9,99.1,136.5z
			 M154.5,158.5l0.3,0.8c0.3,0.8,0.8,5.1,1,7.6c0,1,0,1.3-0.8,1.3h-0.8C154.3,158.5,153.5,160.8,154.5,158.5z M153.3,211.4
			c-0.3-3.8,0.3-3,0.5-1C154,212.7,153.5,212.4,153.3,211.4z M147.2,210.9c0-1.5,0.3-1.5,0.5,0.3C148,212.7,147.2,212.7,147.2,210.9
			z M120.6,162.5c-0.3,0.3-0.3-4.6,0.3-6.8C121.1,153.4,120.6,162.3,120.6,162.5z M121.1,150.1c0,0,0,0.8,0,1.8s-0.3,2-0.3,2
			C120.6,153.7,120.9,150.4,121.1,150.1z M120.1,147.1c0-1.8,0.5-1.5,0.5-0.5C120.6,147.4,120.1,149.1,120.1,147.1z M120.9,169.4
			c0.3,6.6,0.3,7.6-0.3,6.6C120.1,174.7,120.4,153.4,120.9,169.4z M121.1,178.5c0,2,0.5,8.4,0.3,8.4s-0.3-1.3-0.3-2.3
			C120.1,176.7,121.1,175.7,121.1,178.5z M115.8,139.8c0.3,0,0.3,0.5,0.3,1.3C116.3,144.8,115.3,140,115.8,139.8z M114,139.3
			c0.8-0.5,0.3,0.5,0.5,2.3c0,0.3,0.5,5.8,0.3,5.8s-0.8-1.8-0.8-2.8c0-0.5-0.3-0.8-0.3-0.8c-0.5,0-0.5-1.3,0-1.3
			C114.8,142.6,113,140,114,139.3z M99.1,87.9v0.8c0.3,1-0.5,2-0.8,1.3C98.4,89.4,98.9,88.4,99.1,87.9z M81.6,123.3
			c0-0.3,0.3-0.8,0.3-1c0.3-1,1.3-0.5,0.3,0.8C81.9,123.6,81.4,123.8,81.6,123.3z M78.4,130.9c0.3,0,0.3-0.5,0.3-1
			c0-1.3,1.3,0,1.3-0.8c0-0.5,2-3,1-3c-0.5,0-0.3,0.5-0.5,0.5c-0.5,0,1-2.5,1-1.3c0,0.8,0.8,0.3,0.8-0.5c0-0.5,0.3-1,0.5-1
			c0.3,0,1.5-2.8,1.8-2.8c0.5-0.5-0.8-1.5-0.8,0c0,1.3-1,0,0-1.5c0.8-1,1-2.5,1-1.3c0,0.3,0,0.8-0.3,0.8c-0.5,0.3-0.5,0.8,0,0.8
			c0.3,0,0.3-0.3,0.5-0.5c0-0.3,0.8-1.5,1.5-2.8c2.3-4,1.5-3.5,7.1-11.4c0.5-0.8,1-1.5,1-1.5c0-0.3,0-0.3,0.3-0.5
			c1-0.5,4.6-7.8-1,0.8c-3,4.6-4.8,6.8-4.8,7.1c0,0.3-3,5.6-3.3,6.1c-1,1.3,0.8-3.3,2.8-7.1c0.8-1.5,1.3-2.5,1.5-2.5
			c0.2,0,0.3-0.3,0.3-0.5s0.3-1,0.8-1.8c1.3-2,2.8-6.3,3.5-7.3c1-1,0.3-3.5,2.5-1c1.3,1.5,1.5,2.8,0.8,2.8c-0.3,0-0.3,0.3-0.3,0.8
			s-0.3,0.8-0.5,1c-0.8,0.5-2,3.8-2,5.6c0,2.3-1.3,8.6-1,9.6c0.3,0.8,0.3,3.5,0.5,6.1c0.5,3.3-0.8,1.8-2,3c-0.3,0.3-0.8,0.5-1,0.5
			c-0.3,0-0.3,0-0.3,0c0.5,0.8-7.6,4-8.9,3.5c-0.3,0-0.5,0-0.5,0.3c0,0.8-0.5-0.5-1,0s-2.5,1.5-2.5,1.3
			C78.1,131.2,78.4,130.9,78.4,130.9z"/>
		<path class="st8" d="M134,224.3c-0.5,0.5,1.3,0,3-0.8c0.8-0.3,1.5-0.8,1.5-0.8C138.1,222.5,134.3,223.8,134,224.3z"/>
		<path class="st8" d="M136.3,222c0,0.3,0.3,0.5,0.3,0.5c0.5,0,0.3-1-0.3-1c-0.3,0-0.5-0.3-0.5-0.5c0-0.3-0.3-0.5-0.3-0.5
			C134.8,220.3,136.3,221.5,136.3,222z"/>
		<path class="st8" d="M168.7,206.8c0.5,0.5,0.8,8.1,0.3,9.4c-1,2,0.5,0.3,0.5,1.5c0,0.5,0,0.5,0.5,0c0.8-1,0.8-10.1,0-12.9
			c-0.8-3-0.3-4.3-0.8-4.3s0.3,3.5-0.3,3.8c-0.3,0.3-0.3,0.3,0,0.5c0.5,0.5,0.5,1.3,0,1.5C168.2,206.6,168.2,206.6,168.7,206.8z"/>
		<path class="st8" d="M174.8,203c0,1,0,2.8,0,4c0,1.5,0,2,0.3,2s0.3,0.3,0.3,0.5c-0.5,1,0.3,12.7,0.8,4.6c0.3-4.3,0.5-6.8,0.3-8.6
			c-0.3-0.8-0.5-2-0.5-2.8C175.3,200.5,174.8,200.8,174.8,203z"/>
		<path class="st8" d="M176.8,188.9c0,0.8,0,1.8,0.5,4c0.5,1.8,1,7.3,1,7.3c0.3,0.5-0.8,1.3-0.3,1.8c0.5,0.3,0.3,7.3,0,8.1
			c-0.3,0.3-0.3,0.5,0,0.8c0.3,0,0.3,1.5,0.3,3c0,2.5,0.3,3.5,0.8,2.5c0.5-1.5,0.3-7.6,0.8-7.3c0.3,0.3,0.8-0.5,0.3-0.8
			s-0.3-4-0.8-5.3c-0.3-0.5,0-0.8,0-0.8c0.3,0,0.3-0.3,0-0.5c0,0-1.5-8.9-2.3-11.6L176.8,188.9z"/>
		<path class="st8" d="M168.2,213.7c0.5-0.3,0.3-1-0.3-1.3C167.2,212.2,167.5,214.2,168.2,213.7z"/>
		<path class="st8" d="M184.4,212.7c1.3,0,0.8-12.7,1.3-13.2c0.3-0.3,0.3-0.8-0.3-0.8c-0.3,0-0.5-0.3-0.3-0.8
			c0.3-1.3-0.5-0.3-0.5-1.5c0-0.3-1.5-6.6-0.3,5.3C184.4,203.3,184.4,212.7,184.4,212.7z"/>
		<path class="st8" d="M167.7,199.8c0.3,0,0-2.5-0.3-2.8s-0.3,0.3-0.3,1.5C167.5,199.2,167.7,199.8,167.7,199.8z"/>
		<path class="st8" d="M174,190.9c0.8,3.3,0.8,5.1,1.3,7.3c1,4.8,0.3-3.5-1-9.6c-0.3-0.8-0.5-2.3-0.8-3.5
			C173,181.8,172.3,182,174,190.9z"/>
		<path class="st8" d="M163.4,198.2c0.3,0,0.3-0.5,0.3-1C163.2,193.7,162.9,198.2,163.4,198.2z"/>
		<path class="st8" d="M170.5,195.5c0.3,1,0.8,0.5,0.5-0.5C170.5,193.4,170.2,194.4,170.5,195.5z"/>
		<path class="st8" d="M171.3,191.9c1,4.8,1.3,3.3,1.3,3c-0.3-0.8-0.5-3.5-1.3-7.6l-1.8-11.4c-0.3-0.3,0,4.3,0.5,7.1
			C170.2,186.8,170.2,187.6,171.3,191.9z"/>
		<path class="st8" d="M158.1,193.7c-0.3-0.5-0.8,0-0.5,0.8C158.1,196,158.8,194.7,158.1,193.7z"/>
		<path class="st8" d="M139.6,191.7c-0.3,0.3,0,1.5,0,2.3c0,0.5,0.5,0.3,0.8-0.3C140.6,193.2,139.9,191.2,139.6,191.7z"/>
		<path class="st8" d="M164.2,191.4c-0.3,0-0.3,1,0,1.8c0,0.3,0.8,0,0.8-0.3C164.9,192.4,164.4,191.4,164.2,191.4z"/>
		<path class="st8" d="M168.7,189.4c-0.3-0.5-0.3-0.5-0.3,0.5C168.5,191.9,169.5,191.2,168.7,189.4z"/>
		<path class="st8" d="M166.9,189.1c0.8,3,0.8,1.5,0-3.3c-0.5-3-0.5-3.3,0-3.3c1,0-0.3-3.5-0.3-1.5c0,1.8-0.3,0-0.8-4
			C163.7,156.7,164.7,179.3,166.9,189.1z"/>
		<path class="st8" d="M104.7,179.8c-0.3,0.5-0.5,1.5-0.3,2c0.3,0.8,0.5,5.8,0.8,7.3c0.5,2.8,1.3-1.8-0.5-8.6V179.8z"/>
		<path class="st8" d="M151.3,188.4c-0.3-1-0.5-0.5-0.5,0.8C151,190.6,152,190.6,151.3,188.4z"/>
		<path class="st8" d="M142.9,188.1c0,1.8,0.5,2,0.5-0.3C143.4,185.8,142.9,186.3,142.9,188.1z"/>
		<path class="st8" d="M158.8,189.4c0.3,0,0-2.3-0.5-2.5c-0.3-0.3-0.5,0.8,0,2C158.3,188.9,158.6,189.4,158.8,189.4z"/>
		<path class="st8" d="M156.3,188.1c-0.3,0-0.3-0.5-0.3-1c0-1-0.5,0-0.5,1C155.3,189.6,157.1,188.6,156.3,188.1z"/>
		<path class="st8" d="M179.9,186.3c-0.5-0.5-0.5,0.8,0,1.5C180.1,188.9,180.4,186.8,179.9,186.3z"/>
		<path class="st8" d="M177.6,187.4c0-0.5,0-1,0-1.3c-0.3-0.8,0-1-0.5-1s-0.5,1,0,2S177.6,188.1,177.6,187.4z"/>
		<path class="st8" d="M162.9,184.8c1,4.8,0.5-6.1-0.5-12.9c0-0.8-0.3-1.8-0.3-2.5c0-1.5-0.3-0.3-0.8-2.8c-0.8-3.8-1.3-3-0.5,1
			C162.1,175,162.4,182,162.9,184.8z"/>
		<path class="st8" d="M151,183.8c0,0.8,0,1.3,0.3,1.5C152.3,186.6,151,180.5,151,183.8z"/>
		<path class="st8" d="M106.5,180.3c-0.3,0,0,4,0.3,4.6c0,0.3,0.3,0,0.5,0C107.5,184.3,107,180.3,106.5,180.3z"/>
		<path class="st8" d="M149.5,184.1c0-0.5,0-1-0.3-1c0-0.8-0.8,0.3-0.8,1C148.7,185.3,149.7,185.3,149.5,184.1z"/>
		<path class="st8" d="M114,181.3c-0.3-1-0.5,0.3-0.5,1.8C113.8,185.3,115.1,185.3,114,181.3z"/>
		<path class="st8" d="M116.3,184.6c1.3,0-1.3-3.5-0.8-1.5C115.8,184.1,115.6,184.6,116.3,184.6z"/>
		<path class="st8" d="M174.5,181.5c-0.5-0.3-0.8,0-0.5,0.8C174.5,184.1,175.3,182,174.5,181.5z"/>
		<path class="st8" d="M178.3,181.5c-0.3-2-0.8-2-0.5,0C177.8,183.1,178.6,183.1,178.3,181.5z"/>
		<path class="st8" d="M154.8,182c0.3,0,0-2-0.3-2.5c-0.3-0.3-0.5,0.3-0.3,1.3C154.3,181.5,154.5,182,154.8,182z"/>
		<path class="st8" d="M160.9,180.5c0,0.8,0,1.3,0.3,1.3s0.3-0.8,0-1.8C161.1,179.3,160.9,179.3,160.9,180.5z"/>
		<path class="st8" d="M150.2,179c0-1.8-0.5-1.8-0.5,0C149.7,180.5,150.2,180.5,150.2,179z"/>
		<path class="st8" d="M104.4,179c0-0.3-0.3-0.8-0.3-1c0-0.3-0.3-0.5-0.3-0.5c-0.3,0-0.5,1.3,0,1.8
			C104.2,179.8,104.7,179.5,104.4,179z"/>
		<path class="st8" d="M108.7,175.5c0,1.8,0,3.8,0.5,3.8c0.8,0,0.8-0.5,0-2.3L108.7,175.5z"/>
		<path class="st8" d="M114.6,178c-0.5-0.5-0.3-2.3-0.8-2.3c-0.3,0-0.5,1,0,2.5C114,179.8,115.3,178.7,114.6,178z"/>
		<path class="st8" d="M174.8,176c-0.5-1-0.5-0.8-0.3,0.8S175.8,178,174.8,176z"/>
		<path class="st8" d="M151.8,175.5c-0.8-0.8-1,0-0.3,0.8C152.3,177,153,176.5,151.8,175.5z"/>
		<path class="st8" d="M105.2,172.7c-0.3,0-0.3,1.8,0.3,2.8c0.3,0.5,0.8,0.8,0.8,0.5C106.2,175.2,105.4,172.7,105.2,172.7z"/>
		<path class="st8" d="M112,176.2c0.5,0,0.5-2.3,0-2.8s0,1.8-0.3,2.3c0,0-0.3,0.3-0.3,0.5C111.5,176.2,111.8,176.2,112,176.2z"/>
		<path class="st8" d="M135.3,175.5c0,0.3,0.3,0.3,0.5,0.3C136.6,175.2,134,171.7,135.3,175.5z"/>
		<path class="st8" d="M170.7,173.4c-0.3,0.3,0,1,0,1.3C172,177.2,171.3,172.4,170.7,173.4z"/>
		<path class="st8" d="M142.9,173.4c0-0.5-0.5-0.8-0.3,0.8c0,0.8,0.3,1,0.8,1C144.7,175.2,142.9,174.2,142.9,173.4z"/>
		<path class="st8" d="M148.2,173.7c0-0.3-0.3-0.5-0.3-0.5c0-1-0.5-0.3-0.5,0.8C147.5,176.7,148.7,174.2,148.2,173.7z"/>
		<path class="st8" d="M107.7,174.2c0,0.8,0.5,0.5,0.8-0.3c0.3-0.5-0.5-2.5-0.8-3C107.2,170.6,107.7,173.4,107.7,174.2z"/>
		<path class="st8" d="M173.3,171.9c-0.3-1.3-0.3-1.3-0.5-0.3c0,0.5,0,1,0,1.3C173.3,173.9,173.5,172.9,173.3,171.9z"/>
		<path class="st8" d="M104.2,170.1c-0.3-0.3-0.3-0.8-0.5-1.5c-0.3-1.5-0.8-1.3-0.5,0.5c0,0.8,0.3,1.5,0.3,1.5
			c0,0.3,0.3,0.3,0.5,0.3C104.4,170.9,104.7,170.4,104.2,170.1z"/>
		<path class="st8" d="M110,170.4c0.5,0.5,0.8,0,0.5-2c0-0.3-0.3-0.3-0.3-0.3C109.7,168.1,109.7,170.1,110,170.4z"/>
		<path class="st8" d="M146.4,169.9c0.5,0,0.8-1.5,0.3-2c-0.3-0.5-0.8,0.5-0.8,1.5C145.9,169.6,146.2,169.9,146.4,169.9z"/>
		<path class="st8" d="M112,167.1c0,0.3,0,0.8,0,1c0,0.5,1,1,1,0.3c0-0.8-0.8-2.3-1.3-2.3C111,166.3,111.8,166.6,112,167.1z"/>
		<path class="st8" d="M106.7,166.1c0,0.8,0,1.3,0.3,1.5C108.5,168.9,106.7,162.8,106.7,166.1z"/>
		<path class="st8" d="M170,166.3c-0.5-1-0.8-0.8-0.5,0.5C169.7,168.1,170.5,167.6,170,166.3z"/>
		<path class="st8" d="M165.9,165.1c0,0.5,0,1,0.3,1.3c0.5,0.5,1-0.3,0.8-0.8c-0.3-0.3-0.3-1-0.5-1.3c-0.3-1.3-1.3-1-0.8-0.5
			C165.7,164.1,165.9,164.6,165.9,165.1z"/>
		<path class="st8" d="M170.2,164.6c0-1-0.5-1.5-0.5-0.3C169.7,165.6,170.2,165.6,170.2,164.6z"/>
		<path class="st8" d="M109,164.3c0.3,0,0.5-0.3,0.3-1c-0.3-1.5-0.8-1.8-0.8-0.3C108.7,164.1,108.7,164.3,109,164.3z"/>
		<path class="st8" d="M143.7,162.5c0,0.5,0,0.8-0.3,0.8s-0.3,0.3-0.3,0.3c0.3,0.5,1.3,0.3,1.3-0.3c0-0.3,0-0.8,0-1.3
			C144.4,161.3,143.7,161.5,143.7,162.5z"/>
		<path class="st8" d="M103.9,162.8c0,1,0.5,1.3,0.8,0.5c0-0.3,0-0.8-0.3-1C103.9,161.8,103.9,161.8,103.9,162.8z"/>
		<path class="st8" d="M167.5,158.2c-0.3-0.5-0.3,0.5,0,1.5C168.2,162,168,159,167.5,158.2z"/>
		<path class="st8" d="M107.2,160c0.5,0,0.3-1.3-0.3-2C106.2,157.2,106.2,160,107.2,160z"/>
		<path class="st8" d="M164.4,157c0.3,0,0.3-0.3,0-1.5c-1-3.3-1-0.5-0.5,1.3C163.9,156.7,164.2,157,164.4,157z"/>
		<path class="st8" d="M104.2,155.5c0-1-0.5-1.5-0.8-0.8C103.2,156,104.2,156.5,104.2,155.5z"/>
		<path class="st8" d="M106.5,153.4v1c0,0.5,0,1.3,0.3,1.3C107,156.2,107.7,156,106.5,153.4z"/>
		<path class="st8" d="M143.2,153.9c0.3-0.3,0-1.5-0.5-1.5c-0.3,0-0.3,1.3,0,1.8C142.9,153.9,143.2,153.9,143.2,153.9z"/>
		<path class="st8" d="M140.1,145.8c-0.5-0.5-0.3-1.3-0.5-2l-0.3,0.8c-0.3,0.5-0.3,1-0.3,1.3C139.4,146.9,140.6,146.3,140.1,145.8z"
			/>
		<path class="st8" d="M104.7,143.3c-0.5,0-0.5,0.5-0.5,1.3C104.7,146.1,105.2,143.3,104.7,143.3z"/>
		<path class="st8" d="M107,125.6c0.3,0,0.5,1.3,0.5,4c0,5.8,0.3,0.8,1.5,11.6c0.5,4.3,1.3,2.5,0.8-1.5c-0.5-4.3-1.5-11.1-1.3-19.7
			c0-0.8-0.3-7.3-0.8-1.5c-0.3,1.8,0,5.8-0.5,6.3C106.7,125.3,106.7,125.6,107,125.6z"/>
		<path class="st8" d="M105.7,142c0.3,0,0.3-1.8,0-2c-0.5-0.3-0.8,0.8-0.3,1.3C105.4,141.5,105.7,142,105.7,142z"/>
		<path class="st8" d="M104.9,114.5c0,0.3-1,9.1,0,17.7c0.5,4.3,0.5,4.6,0.8,5.3c0.8,2.3,0.8,4.8,1.3,3.5c0.5-1-0.3-1.3-0.3-2.8
			c0-1.8-0.5-4,0-5.1c0.5-1-0.3-0.3-0.3-1.3s-0.3-7.6-0.3-8.4c0-1.3-0.3-6.3-0.3-9.9C105.4,113.2,104.9,113.2,104.9,114.5z"/>
		<path class="st8" d="M101.9,141c0.5,0,0.3-1.5,0-1.8C100.6,138.8,101.4,141,101.9,141z"/>
		<path class="st8" d="M103.4,136.7c-0.5-0.3-0.5,0.3-0.5,1.3C103.4,140.3,104.2,137.2,103.4,136.7z"/>
		<path class="st8" d="M155.3,138.5c0.3,0,0-1.5-0.3-1.8C154.5,136,154.8,138.5,155.3,138.5z"/>
		<path class="st8" d="M124.2,134.5c0.5-1,0-2,1-2.3s0-0.5,0.8-2.8c1.3-4.3-0.8-19-0.8-6.1c0,3.5,0,5.8-0.5,7.3
			C123.9,133.9,123.7,135.2,124.2,134.5z"/>
		<path class="st8" d="M151.8,132.4c0.8,1.8,0.8,2.3,1,1.3C153,130.9,151,130.7,151.8,132.4z"/>
		<path class="st8" d="M101.4,133.2c0-0.8-1-1.8-1-1c0,0.3,0,0.8,0.3,1C100.9,133.7,101.4,133.7,101.4,133.2z"/>
		<path class="st8" d="M153.5,131.7l0.3,0.8v-0.8C154.3,129.6,153,130.4,153.5,131.7z"/>
		<path class="st8" d="M128.7,126.1c-0.3-1,0.5-1.8,0.5-3.5c0-1.5,1-1.8-0.8-8.6c0,0-0.5,10.6-1.3,14.7c-0.3,1-0.3,2.3-0.3,2.5
			C127,133.2,129,127.4,128.7,126.1z"/>
		<path class="st8" d="M148.7,127.6c-0.5,0-0.3,0.8,0,1.5c0.3,0.3,0.5,0.5,0.5,0.5C149.5,129.4,149,127.6,148.7,127.6z"/>
		<path class="st8" d="M151.8,129.1c0.3,0.8,1,1,1,0.3C152.8,127.1,150.7,126.4,151.8,129.1z"/>
		<path class="st8" d="M149.2,124.8c-0.3,0.3-0.3,0.5,0.3,1c0.3,0.3,0.5,0.5,0.3,0.5c0,0-0.3,0.3,0,0.3c0.3,0.5,0.8-0.3,0.5-1.3
			C150,124.3,149.7,124.3,149.2,124.8z"/>
		<path class="st8" d="M152.5,125.6c0.3,0.8,0.3,0.8,0.5,0.3C153.3,123.8,151.5,123.3,152.5,125.6z"/>
		<path class="st8" d="M146.2,122.8c0,0.5,0.3,1,0.3,1.3s0.3,0.3,0.5,0.3s0.3-0.3,0-1.5C146.4,121.3,145.9,121.3,146.2,122.8z"/>
		<path class="st8" d="M149.7,122.6c0.3,0.8,0.5,0.8,0.5,0.5C151,121,149,120.3,149.7,122.6z"/>
		<path class="st8" d="M143.2,119.8c-0.3,0.3-0.3,0.5,0,1.8c0.5,2,0.8,2,0.8,0C143.9,119.8,143.9,119.5,143.2,119.8z"/>
		<path class="st8" d="M147.2,120c0-0.5-0.3-1-0.3-1.3c0-0.8-1.5-1-0.5,1C147,121,147.5,121,147.2,120z"/>
		<path class="st8" d="M150.7,118.8c-0.5,0.3,0.3,1.8,0.8,1.5c0.3,0,0.3-0.3,0.3-0.3C151.3,119.5,151,118.5,150.7,118.8z"/>
		<path class="st8" d="M152.5,120c0.5-0.5,0-2-0.5-1.8c-0.3,0-0.3,0.8,0,1.8C152.3,120,152.3,120.3,152.5,120z"/>
		<path class="st8" d="M150,117.2c0.3-1-0.3-2.8-0.8-2.8s-0.8,0.3-0.5,1C149.5,116.7,149.7,118.3,150,117.2z"/>
		<path class="st8" d="M109.7,116.5c0.3,1,0.8,0.8,0.8,0c0-0.5-0.5-1-0.8-0.8C109.5,115.7,109.7,116.2,109.7,116.5z"/>
		<path class="st8" d="M144.9,117.2c0.3-0.3-0.3-2.8-0.5-2.8C143.7,114,144.4,117.7,144.9,117.2z"/>
		<path class="st8" d="M147,114.2c0-0.3-1.3-0.3-1.3,0c0,0,0.3,0.8,0.5,1.5C147,117.5,147.2,117,147,114.2z"/>
		<path class="st8" d="M108.5,114.7c0.3-0.8,0.3-1-0.3-1s-0.8,1-0.3,1.3C108,115.2,108.2,115,108.5,114.7z"/>
		<path class="st8" d="M103.9,111.7c0.3,0,0.3,0.5,0.3,1s0.3,0.8,0.3,0.8c0.5-0.3,0.5-2.5-0.3-2.5
			C103.9,110.9,103.4,111.4,103.9,111.7z"/>
		<path class="st8" d="M147,109.6c-0.8,0-0.8,1.5,0,1.8c1,0.5,1,3.8,1.5,0.5C148.5,110.4,148,109.6,147,109.6z"/>
		<path class="st8" d="M106.7,108.1c-0.3,0-0.3,0.3-0.3,1C106.7,111.7,107.5,108.1,106.7,108.1z"/>
		<path class="st8" d="M105.4,106.1c-0.5-0.5-0.5,0-0.5,1.3C105.2,109.6,105.9,106.6,105.4,106.1z"/>
		<path class="st8" d="M108.2,102.1c-0.3,0.3-0.3,0.5,0,1c0.3,1,1.5,0.8,1.3,0.3c-0.3-0.8-0.3-5.6,0-6.3c0.3-0.5,0.3-0.8,0-0.8
			c-0.5,0,0-4.6-0.5-4.6s-0.3,3-0.8,3.8c-0.5,1.3-0.5,2.5-0.3,4.6C108.5,101,108.5,101.8,108.2,102.1z"/>
		<path class="st8" d="M119.9,95.5c0.5,0.8,2.8,5.3,3,5.3c0.3,0.3,0.8,2.5,1.3,2.5c0.3,0,0-2.3-0.3-3.3c-0.3-0.3-0.3-0.8-0.3-1.3
			c0-1-0.5-0.3-0.5-1c0-0.8-0.5-0.3-0.5-1s-0.8-0.5-1-1.5c-0.5-1.5-0.8-0.8-2.5-4.3c-0.8-1.8-1-2.5-1.8-5.3c0-0.5-0.3-0.8-0.5-0.8
			c-0.5,0-0.5,0.5-0.3,1.8C117.1,88.9,116.6,90.4,119.9,95.5z"/>
		<path class="st8" d="M111.3,92.9c-0.5-6.6-1.8,1.3,0,7.6C113.3,108.6,111.5,97,111.3,92.9z"/>
		<path class="st8" d="M115.1,91.7c0,1.3,0.3,2,0.5,2c0.3,0,2,3.5,2.5,4.8c0.5,1,0.8,1.5,1.3,2.5c1.3,2.8,1.5,1,1,0.3
			c-0.5-1-0.5-2.5-1.5-4.6c-1.8-3-2.3-4.3-2.3-4.8c0-0.3,0-0.8-0.3-0.8c-0.5-0.3-0.5-4.8-1.5-3.8c-0.3,0.3-0.3,0.5,0,1.3
			C114.6,89.1,114.8,90.4,115.1,91.7z"/>
		<path class="st8" d="M114.8,101.5c0,0.3,0.3,0.5,0.3,0.5c0.5,0,0.5-2.5,0-2.5s0-2-0.3-2.3c-0.5-0.2-0.2-2.2-0.5-2.2
			s-1.3-5.6-1.3-6.6l-0.3-0.3c-0.8,0,0.5,9.1,1.5,11.6C114.6,100.5,114.8,101.3,114.8,101.5z"/>
		<path class="st8" d="M106.2,236l0.5-0.8c0.5,0.3,2.5,1.3,2.8,1.5c0.5,0.8,1.3,0,0.5-0.5c-0.5-0.5-1.3-2-1.8-2
			c-0.8,0-1.5-1.8-2.8-1.5c-1,0.3-0.8,1,0,1.5c1,0.5,1,0.8,0.3,1.5C104.9,236.7,105.7,236.7,106.2,236z"/>
		<path class="st8" d="M107.7,230.6c-0.5,0.3-0.3,1.8,0.3,1.8c1,0,4,2,4,1.3C111.8,233.2,108,230.4,107.7,230.6z"/>
		<path class="st8" d="M110,229.1c-1,0-0.5,0.8,0.8,1.3C114.8,232.2,110.5,229.1,110,229.1z"/>
		<path class="st8" d="M212,184.6c0.3,0.5,0.8,0.5,0.8,0.3c0-0.8-2-3-2.3-2.8c0,0-0.3,0-0.3-0.3c0-0.5-0.8-1.3-1.3-1
			s-0.3-0.5-0.5-0.3C206.7,181.5,211.5,183.6,212,184.6z"/>
		<path class="st8" d="M209.2,178.5c2.8,1.8,0.3-0.5-2-3c-1.3-1.3-2.3-1.5-2.3-0.8C204.7,175.7,208.5,178.2,209.2,178.5z"/>
		<path class="st8" d="M204.7,172.7c3,2.3,3.3,2,0.8-0.8c-1.3-1.3-2-1.8-2.3-1.8C202.1,170.4,202.6,171.2,204.7,172.7z"/>
		<path class="st8" d="M203.1,167.1c0,0.5,0.8,0.5,0.8,0c0.3-0.5-2.8-3.3-3.3-2.8C200.1,165.1,203.1,166.3,203.1,167.1z"/>
		<path class="st8" d="M200.6,161.5c1,0.5,1.3,0.3,0.5-0.5c-0.3-0.3-0.8-0.5-1-0.5C199.6,160.8,199.6,161,200.6,161.5z"/>
		<path class="st8" d="M78.6,144.6c-2.3-2-3.8-1,2,2.5C83.2,148.6,80.1,145.8,78.6,144.6z"/>
		<path class="st8" d="M86.5,145.1c-0.3,0.3-2-1-2.5-1.5s-1.8,0-1.5,0.5c0.3,0.3,2.8,2,3,2c0.3,0,0.3,0,0.3,0.3s0.3,0.5,0.8,0.5
			c1.3,0.5,1.8,0.3,0.5-0.5c-0.5-0.3-0.5-0.5-0.5-1C86.5,145.1,86.5,145.1,86.5,145.1z"/>
		<path class="st8" d="M91.8,146.1c0-0.3-2.5-2.5-2.8-2.5c0,0-0.3-0.3-0.5-0.8c-0.3-1.3-0.3,0.3-1-0.3c-0.5-0.5-1,0.3-0.3,0.8
			C89.2,144.6,91.8,147.1,91.8,146.1z"/>
		<path class="st8" d="M70.3,144.3c0.3-0.3,0-0.3-0.3,0c-0.8,0.3-2.3,0-2.3,0.5C67.5,145.1,69.8,144.8,70.3,144.3z"/>
		<path class="st8" d="M94.6,144.1c0.5,0.5,0.8,0.3,0.3-0.5c-0.3-0.5-1.8-1.5-2.3-1.5s0,1,0.8,1.3C93.8,143.3,94.6,143.8,94.6,144.1
			z"/>
		<path class="st8" d="M186.7,119.5c-0.8-0.8-1.8-0.8-1.8-0.3s1.3,0.8,2,1.3c1.8,1.8,2.3,0.8,1.3,0
			C187.7,120.3,187.2,119.8,186.7,119.5z"/>
		<path class="st8" d="M189.2,117.5c-0.8-0.8-1.3-1-1.5-0.8c-0.5,0.5,0,1,2,2.3C194,121.5,191,119,189.2,117.5z"/>
		<path class="st8" d="M195.5,117.7c-0.8-0.3-3.3-3.3-4.3-2c-0.3,0.3,0.3,0.8,2,1.8C196.6,119,195.8,117.7,195.5,117.7z"/>
		<path class="st8" d="M197.8,116.5c0.3,0.3,1,0.3,1,0s0-0.3-0.3-0.3s-0.8-0.5-1.5-1c-3-2-3.5-0.3-0.8,0.5
			C197.1,116,197.8,116.2,197.8,116.5z"/>
		<path class="st8" d="M203.4,114.5c-0.5,0-2.8-2.8-4-2.3c-0.8,0.3-1,1-0.5,1s2.8,1,3.8,1.5C203.9,115.7,203.6,114.5,203.4,114.5z"
			/>
		<path class="st8" d="M202.9,109.9c-0.5,0.3-0.8,1.5,0,1.5c0.3,0,1,0.3,1.8,0.8c2,1,2.8,0.8,1.3-0.3c-0.5-0.3-0.5-0.5-0.5-0.8
			c0.3-0.3,0-0.3-0.3-0.3C203.9,111.4,203.6,109.6,202.9,109.9z"/>
		<path class="st8" d="M206.4,109.1C206.4,109.4,206.4,109.1,206.4,109.1c-0.3-0.8-1.5-0.5-1.8,0.3c0,0.5,0,0.5,0.5,0.5
			s1.3,0.3,1.8,0.5c1.5,0.8,2.3,0.8,1.3,0c-0.5-0.3-1-0.8-1.3-1C206.9,109.1,206.7,109.1,206.4,109.1z"/>
		<path class="st8" d="M209.2,107.6c-0.3,0-0.5-0.3-0.8-0.5c-0.5-0.5-1.5-0.5-1.5,0.3c0,0.3,0.8,0.8,1.5,1
			C212.8,110.7,209.7,107.6,209.2,107.6z"/>
		<path class="st8" d="M209.5,106.1c-1,1.3,0.8,0.8,2.3,1.8C215,109.4,210.7,104.6,209.5,106.1z"/>
		<path class="st8" d="M212.5,104.1c-0.5,0.8-0.5,0.8,1.3,1.5C219.6,108.4,213,103.3,212.5,104.1z"/>
		<path class="st8" d="M159.6,77.2c0,1,7.6,7.1,7.6,6.1c0-0.3-1.8-2-2-2C164.7,81.3,159.6,75.5,159.6,77.2z"/>
		<path class="st8" d="M160.4,72.9c-1-0.5-2,0.3,2.3,3c1,0.5,1.8,1.5,2,1.3c0.3-0.3,0-0.5-2.3-2.3C161.1,73.7,161.4,73.5,160.4,72.9
			z"/>
		<path class="st8" d="M94.8,74.5c0.3-0.3-2-2.3-2.5-2.3C91.3,72.2,94.8,74.7,94.8,74.5z"/>
		<path class="st8" d="M159.6,68.4c0-0.3-0.3-0.5-0.5-0.5c-0.8,0-2.3-2-2.3-1c0,1.8,3.3,3.3,4.3,4.6c0.8,0.8,2.3,1.3-0.3-1.3
			C160.4,69.4,159.6,68.6,159.6,68.4z"/>
		<path class="st8" d="M122.9,69.4c0.5-0.3,0.5-0.3-0.3-0.5c-0.8-0.3-2.5-0.8-1.5,0.3C121.4,69.9,121.9,69.9,122.9,69.4z"/>
		<path class="st8" d="M90.5,68.6c0-0.3-2-2.3-2.5-2.3C86.7,66.4,90.5,69.4,90.5,68.6z"/>
		<path class="st8" d="M156.6,61.6c-1.3-0.8-1.5,0.3-0.3,1.3c2.3,2,4.8,4,4.8,3.3C160.9,65.6,157.6,62.3,156.6,61.6z"/>
		<path class="st8" d="M83.9,61.1c0,0.3,1,1.3,3,2.8c1.8,1.3,2.3,1.5,2.3,1c0-0.3-0.3-0.3-0.3-0.3c-0.3,0-0.8-0.5-1.5-1.3
			C85.4,61.3,83.9,60.3,83.9,61.1z"/>
		<path class="st8" d="M155.1,55.7c0.3-0.5-3-1.3-1.3,0.5c1.3,1,0.5,1.5,1.5,1.8s4,3.3,4,2.3c0,0-3.3-3.3-3.5-3.8
			C155.8,56,154.8,56.2,155.1,55.7z"/>
		<path class="st8" d="M83.7,57.3c1.8,1,2.3,1,0.8,0c-0.5-0.5-1.5-1.3-2.3-2C78.9,52.2,75.8,51.9,83.7,57.3z"/>
		<path class="st8" d="M152.8,48.9c-0.3,0-0.8-0.3-1-0.3c-2-0.5,1.3,3.3,4.3,5.3c1.3,0.8,1.3,0,0-1c-0.5-0.5-1-1-1-1
			C155.1,51.4,153.3,49.2,152.8,48.9z"/>
	</g>
</g>
</svg>
