<?xml version="1.0" encoding="utf-8"?>
<!-- Generator: Adobe Illustrator 27.0.1, SVG Export Plug-In . SVG Version: 6.00 Build 0)  -->
<svg version="1.1" id="Layer_1" xmlns="http://www.w3.org/2000/svg" xmlns:xlink="http://www.w3.org/1999/xlink" x="0px" y="0px"
	 viewBox="0 0 226.8 247.2" style="enable-background:new 0 0 226.8 247.2;" xml:space="preserve">
<style type="text/css">
	.st0{fill:#B98CDE;}
	.st1{fill:#8258A3;}
	.st2{fill:#FFFFFF;}
	.st3{fill:#231F20;}
</style>
<g>
	<polygon class="st0" points="218.2,179.4 218.2,59.3 114.6,0 10.9,59.3 10.9,179.4 114.6,239 	"/>
	<line class="st1" x1="-8" y1="276.4" x2="-8" y2="236.5"/>
	<polygon class="st2" points="81.7,66.3 86.2,64.9 92.4,67.9 97.9,73.1 101.2,76.9 108.5,81.1 117.3,88.8 122.8,96.2 128.3,107.5 
		132.7,117.3 139.2,137.1 145.2,155.8 150.5,168.7 156.5,183.2 164.7,195.7 164.4,200 156.7,206.7 155.5,208.5 153.5,209.5 
		152.2,210.5 151.7,210.5 151.3,210.5 150.7,210.5 150.6,210.7 150,211.1 149.2,211.5 148.1,211.9 146.2,212.2 144.8,212.6 
		144.2,213.2 143.6,213.4 142.6,213.1 141.8,212.9 140.9,212.8 139.3,212.9 138.5,213.4 138.2,213.7 138.1,213.8 137.8,213.8 
		137.2,213.7 135.9,213.1 135.3,213.1 136.1,213.4 135,213.7 134,213.6 132.7,212.6 130.2,211.6 127.1,211.7 124.6,212.5 
		122.8,213.4 122.4,214.5 119.3,215.6 115.9,216.6 106.6,219.3 97.5,220.6 93,221.5 86.1,220.4 83.3,218.3 81.1,211.7 79.3,203.3 
		76.4,196.8 73.1,184.7 72.7,183.8 72.2,178.6 70.7,166.8 69.1,156.1 69,156.5 68.8,155 67.9,154.1 68.1,152.9 68,149.6 68.5,145.1 
		67.7,138.5 66.4,122.2 65.3,114.2 66,105.8 67.9,99.1 72,89.8 69.9,85.2 67.9,81.5 73.3,73.7 77.4,68.6 	"/>
	<g>
		<path class="st3" d="M4.7,141.7c4.3-0.8,4.6-0.8,5.6-1.3c1.3-0.5,2.3-0.3,2.5,0.3c0.3,0.8,2.8,1.5,3.5,0.8c0.3-0.3,0.5-0.3,0.8,0
			c0.5,0.5,1.5,0.5,1.5,0s0.5-0.5,1.8-0.8c0.5,0,1.3,0,2,0.5c1.3,0.8,1.3,0.5,0.5-0.5c-0.8-0.8-0.5-1.3,0.3-0.8
			c0.3,0.3,1,0.3,1.5,0.3s0.8,0.3,1,0.3c0.3,0.5,2,1.3,2.3,1c0,0-0.3-0.5-0.5-0.8c-0.5-0.5-0.8-0.5-0.3-0.8c2-0.8,2.5-1,3-0.5
			c0.8,0.8,2.8,1.8,2.8,1.5s0-0.3-0.3-0.3c-0.5,0-1.5-1-1.8-1.5c0-0.3,0.3-0.5,1.8-0.8c0.5,0,3,0.8,3.3,1.3c0.3,0.3,1.5,1,1.8,0.8
			c0.3-0.3-2.8-2.5-3-2.8c-0.5-0.8-4.6,0.8-6.1-0.3c-1.8-1.3-0.5,0.8-3,0.8h-1.3c3.8-2,3.5-2,6.3-2c1.3,0,2.5,0,2.5-0.3
			c0.5-0.5,1.5-1,1.8-0.8c0.3,0.5,0.8,0.3,0.8-0.3c0-0.5,0.5-0.8,1.8-1.5c1-0.5,1.8-1,2-1.3c0.3-0.3,0.5-0.5,0.8-0.5s4.3-3,5.3-3
			c0.3,0,0.5-0.3,0.8-0.5c0-0.3,0.3-0.3,0.3-0.3s0,0.5-0.3,1c-0.5,0.8-0.8,1.3-1,2.8c-0.3,1.3-1,2.5-1.8,4.3c-0.5,1.3-1.3,2-1.8,2.5
			l-0.8-0.8c-3-2.8-8.4-1-4.3-1c2,0,2,0.8,4,2c1,0.5,1,0.5,0.5,1.5c-0.5,1.3,0,1.5,0.5,0.3c0.8-1.5,2-0.5,1-1.5l-0.8-0.5l0.8-0.8
			c0.8-0.8,1.8-1,1.8-0.3c0,0.3,0.3,0.3,0.5,0.3c0.3,0,1,0.5,1.8,1c1,0.8,1.3,0.8,1.3,0.5s0-0.5-0.3-0.5c0,0-2.5-2.5-3.3-2.5
			c-1.5,0-0.3-0.8,2-5.6c2.8-5.8,1.5-2.8,7.6-4.3c1.3-0.3,3.8-1.3,3.8-1.3c2-0.3,1-0.8,4-2.3c1.3-0.5,2.8-1.3,3.3-1.8
			c1.3-0.8,1.8-1,1.8-1c0.5,0.5,0.5,9.4,1.3,16.7c0.3,2,0.3,6.3,0.5,6.3c0.8,0.5,0.5,4.8-0.3,5.8c-0.5,0.5-1.3,1.5-2,2
			c-1.5,1.8-0.5,0.3-1.8,1.8c-1.3,1.5-1.5,0-1.8,1.3c0,0.5-0.5,0.8-0.8,1c-1,0.3-1.5,3.8-0.8,6.6c0.5,1.8,1,7.3,0.5,7.3
			c-0.3,0,0,0.3,0,0.5c0.8,1-0.5-0.3-0.5,0.5c0,1,1,0,0.8,0.5c0,0,0.5,3.8,0.5,5.8c0.3,4,0.5,2,1,5.8c0.5,3,0.8,4.8,1.5,7.1
			c0.5,2,0.8,7.3,0.3,6.8s-2,0.5-0.3,0.8H66c0,4,0,6.3-0.5,6.6c-0.3,0.3-0.3,0.3,0,0.5c0.5,0.5,0.8,1.3,0.3,1.3s-0.5,0.8,0,1
			c0.3,0,0.5,3,0,3.8c0,0.3,0,0.3,0,0.3c0.3,0,0.3,3,0,3.8c-0.3,0.3,0,0.5,0.3,0.8c0.5,0.3,0.5,8.6,0,8.9c-0.8,0.5-0.5,9.1-1.3,14.4
			c-0.5,2.5,0.3,3.8-2.3,6.1c-1.8,1.8-2,2.5-0.8,3c1.8,0.8,3.5-0.3,3.5-1.8c0-0.8,2-3.8,2.5-3.8c0.3,0,0.5,0,0.8,0
			c0.5,0,0.5-0.5,0-0.8c-0.5,0-0.3-0.3,0.3-1c0.8-1,1.5-1,2-0.3c0,0.3,0.3,0.3,0.5,0c0,0,0-0.5-0.5-0.8c-0.8-0.8-0.8-1,0-1.8
			c0.5-0.8,0.5-0.8,1.5-0.3c1.3,0.8,1.5,0.5,0.5-0.5s-1-1.3-0.3-2.5c0.3-0.5,0.5-0.8,0.5-0.8c0,0.3,0.5,0.5,1.3,0.8
			c1.5,0.5,1.3-0.3-0.3-1c-1.5-0.8-0.3-1.8,0.5-2.8l1.5,0.8c1.5,0.8,2.5,0.8,1.3,0c-1-0.8-2.3-2-2.3-2.3c0-0.5-1-0.8-1.5-0.3
			s-0.5,1.3,0,1.3c1,0-0.3,1.5-1.5,2c-0.8,0.3-1,1-0.5,1.3s-3.5,4.3-4,4.3c-0.3,0-0.3,0.3-0.3,0.5s0.3,0.5,0.3,0.5
			c0.5,0,0.3,0.5-0.3,0.8c-1,0.3,0.3,0-0.3-1.3c-0.5-1.3,1-2,1-4.8c0-0.8,0.3-1.5,0.3-1.8c0.3-0.3,0.3-0.3,0-0.5
			c-0.5-0.5,0.3-2.8,0-4c-0.3-1.3,0.5-0.5,0.5-1.3c0-0.3-0.3-0.5-0.3-0.5c-0.3,0-0.3-1,0-3.3c0.3-4,0.3-5.8,0.8-5.8
			c0.8-0.3-0.8-0.8,0-1.3c0.5-0.3,0.3-2.3-0.3-10.1c0-0.8-0.3-2.3-0.5-3.3c-0.8-3.8-1-15.7-0.3-15.9c1-0.3-1.3-1-0.5-1.5
			c0.5-0.5-0.8-2-0.5-3.3c0.3-1-0.8-3.8-0.8-5.6s-1-1.5-0.5-2.3c0.5-0.5,0-0.3-0.3-4.3c-0.3-4.8-0.8-7.6-0.3-7.6s2.5-3,3-4
			c0.8-1.5,1-1,1,0.8c0,1,0,1.8,0,1.8c0.3,0,0.3,0.5,0,0.8c0,0.3,0,0.8,0.3,0.8s0.3,0.8,0.3,1.5c0,1.8,0,1.3,0.3,2.8
			c0.8,6.8,3.3,18.2,2.5,18.5c-0.3,0-0.3,0.3-0.3,0.8c0.3,0.8,1.3,5.1,1.3,6.1c0,0.5,0.3,1,0.3,1c0.3,0.3,0.5,1.3,0.5,2.5
			c0,1.3,0.5,3,0.8,4s0.5,2,0.5,2c-0.3,0.5,0.5,1,0.5,1.5c-0.5,1,2.5,9.1,3.3,11.4c0.3,0.8,0.5,1.5,0.8,1.8s0.3,0.5,0,0.5
			s-0.3,2.8,0.3,3.5c0.5,1,5.6,3.3,7.1,3.3c2.5,0-0.3,0.8,4.6,0.5c1.5,0,7.3-0.3,8.9-1.3c0.8-0.5,1.5-0.3,2.8,0.3
			c1.5,0.8,2.8,0.8,2.8,0.5s-0.3-0.3-0.5-0.3s-0.8-0.3-1.3-0.5l-0.8-0.5c1.3,0,2.3,0,4.8,0.8c3,1,4,0.8,1.8-0.3
			c-2.5-1.3-0.5-1.8,2.3-0.5c1.3,0.5,2.3,0.8,2.5,0.8c0.5,0-2-1.8-2.5-1.8s1.3-1.3,4-0.3c1.3,0.5,1.5,0.5,1.5,0.3
			c0-0.3-0.5-0.5-1-0.8c-1-0.3-1.3-0.8-0.3-1.5c0.5-0.5,1.5-0.3,3.5,0.8c2.5,1,1.8,0,1.5,0c-0.5,0-2.5-1.5-2.3-1.8
			c0.5-0.5,1.5-0.3,3.8,0.5c2.5,1,3.3,0.8,1.5-0.3c-2.3-1.5-2.5-1.8-2-2c0.8-0.5,2.5,0,6.1,1.5c1.3,0.5,0.5-0.5-1.3-1.5
			c-3-2-0.3-2.8,4.3-1.5c1,0.3,2,0.5,2.5,0.5c1-0.3,3,1.5,3,0.3c0-0.8,3-0.8,4.3-0.3c4,2,6.3,2.5,3.8,1c-1.8-1.3-2-1.8-0.8-2
			c1-0.3,3-0.3,3,0c0.3,0.5,3.5,2,3.5,1.5c0-0.3-0.8-1-1.8-1.5s-0.8-0.8,0-1.3s1-0.5,1.8,0c1.5,0.8,1.8,0.5,1.8,0.8
			c0,0.5,1.8,0.5,2.5,1c0.5,0.5,1,0,0.5-0.3s-1-1-1.5-1s-0.5-0.8-1.3-1c-0.8-0.3-0.8-0.5,0.3-1c0.8-0.3,1-0.3,2.8,0.5
			c3.8,1.8,3,0.3,2.5,0.3c-0.3,0-0.5-0.3-0.8-0.5c0-0.3-0.3-0.5-0.5-0.5s-0.5-0.3-1-0.5c-1.5-1.3,0.5-2.3,2-1c1.3,1,0.5,0,2.8,1
			c0.8,0.5,1.5,0.8,1.5,0.8c0-0.5-0.5-1-0.8-1s-1-0.5-1.5-1c-1.8-1.3-1-2,1.3-1.3c5.1,2,1.5-0.8,0.8-0.5c-0.8,0.3-1.3-2.3,1.3-1.3
			c4.3,2,4,0.8,3.5,0.8c-0.5-0.3-1.5-1.3-2.3-1.8c-1.5-0.8,2.5-0.8,3.8-0.8l-0.5-0.8c-0.3-0.3-1-0.8-1.5-1.3
			c-1.3-0.8-0.3-1.8,2.3-1.8c0.8,0,0.8-0.3,0-1c-0.3-0.3-0.5-0.8-0.5-1c0.3-0.5-2.3,0-1.5-0.8c1-1,6.8-0.5,3.5-1.5
			c-1.5-0.5-1.5-2.8,0-2.8c2,0,0.5-0.5-1.8-0.5c-3.5,0-5.8-1-3-1.5c0.5,0,1.3-0.3,1.8-0.3c2-0.5,0.5,2.3,2.3,1
			c0.3-0.3,0.3-0.5,0-0.8c-0.5-0.5-0.3-0.8,0.5-0.8c0.5,0,1.3-0.5-1.3-0.5c-1.3,0-2,0-2-0.5c0-0.3-0.3-0.5-0.5-0.5
			c-0.8,0-0.3-0.5-1-0.5c-1,0-0.3-0.5,1-0.8c0.8,0,1.8-0.3,2-0.5c1-0.3-0.3,2,0.5,2c0.5,0-0.3-1.8,1-1.5c0.8,0.3,0.8-0.3,0.3-0.5
			c-0.3,0-0.3-0.3,0.3-0.3c0.8,0,0.8-0.8-0.3-0.5c-1,0.3-1.3-0.5-2.8-1.5l-0.8-0.5c3.3-0.3,3.3-0.3,4.3,0s-1.3-1.8-2.5-2.5
			c-1.3-0.8-1-1,1-1.3c2.5-0.3,2-0.5-1-0.5c-4,0-5.3-1.5-1.8-1.8c1.5-0.3,1.5-0.3,1.8,0.5c0.3,0.5,0.3,0.8,0.5,0.5
			c0.3-0.5,0.8-0.3,2.3,0.3l-0.8-0.8c-2-1.8,0-0.8,0-1.5c0-0.3-0.5-0.3-1-0.3c-0.8,0-1.3,0-2.3-0.8c-3.3-2.5,1.5-0.8,1.5-1.5
			c0-0.3,0.5,0,1,0.5c1.5,0.8,1.8,0.8,0.8-0.3l-0.8-0.8c0.5,0.3,1.3,0.5,1.8,1.5s3.5,3,3.5,3.8c0,0.5,1.8,2,2.5,3.5
			c0.8,1.3,1.8,2,3.5,4.8c1.5,2.3,2,2.5,2,3s1.3,1,1.3,1.5s2.5,3.5,2.5,3.8s0.3,0.3,0.3,0.3c0.5,0,2.5,2,2.5,2.5
			c0,0.3,0,0.3,0.3,0.3s0.5,0.5,1,1.3c1,1.8,2,2,3.8,4.8c2.8,4.6,2.5,1.8,4.8,1.8c3.8,0.3-1.5-4.3-2.3-4.3c-0.5,0,0-1-0.8-1
			s-0.3-1.3-1-1.3c-0.8,0-0.3-0.5-1.3-1.5s-0.8-2-2.8-4.3c-1.8-2.3-0.8-1.5-2-3c-0.5-0.5-0.8-1-0.8-1.3s-0.3-0.5-0.5-0.5
			c-0.5-0.3-0.8-0.8-1.5-2c-2.3-3.3,4.3,2.5,0.5-1.8c-2-2.5-2.8-3-3-3s-0.3-0.3-0.5-0.5c-0.3-0.5,1-0.3,1.3,0.3
			c0,0.3,0.3,0.3,0.5,0.3c1.3,0-1.3-2-3.3-4c-1-1-1.3-1-1.5-0.8c-0.5,0.8-0.3,1.3,0.3,1.5c0.3,0.3,0.5,0.5,0.5,0.5
			c0,0.5,2.3,5.1,2.5,5.1s0.3,0.3,0.3,0.5c0,0.3,0.3,0.8,0.8,1.3c0.5,0.8,0.5,1,0.3,1.5c-0.3,0.5-0.3,0.5-0.3,0.3
			c0-0.8-0.5-0.3-0.8-1.3s-1,0.3-0.8-0.8c0.5-1-1.8-0.8-1.8-2.3c0-0.3-0.3-0.5-0.5-0.5c-0.5,0-2.3-2-2.8-3.3c-0.3-0.8-3-4.3-2.5-4.8
			c0-0.3,0-0.3-0.3-0.3s-0.3-0.3-0.3-0.5c0-1-1-0.8-1-1.5c0-0.5-1.5-1.3-1.5-1.8s-1.3-1.3-1-2c0.3-1-3.5-3.3-1.5-3
			c0.3,0,0.3-0.5,0-0.5s-0.3-0.3,0-0.5c0-0.3,0-0.5-0.5-0.5c-1,0,0-0.5-0.8-0.8c-1-0.3-0.5-1,0.5-1c1.3,0,0.8-0.5-0.5-0.5
			c-0.8,0-1.3,0-1.8,0s-1.3-1.3-1.3-1.8s3.3,0,3.8,0.3c0.3,0.3,0.5,0.5,0.8,0.5c0.5,0-0.5-0.8-0.3-1.3c0-0.3,0-0.3-0.5-0.3
			c-0.8,0-3.3-2-2.8-2.3c0.3-0.3,2,0,2-0.5s-1.8,0-2-0.8c-0.3-0.8-1,0.8-1.5,0.3c-0.3-0.5-2-1-2.3-1.8s3-0.8,4.3,0.3
			c1,0.8,1.8,0.5,0.8-0.3c-0.8-0.5-0.5-1,0.3-1c1.8,0,1.5-0.5-0.3-0.8c-1,0-1.8-0.3-2-0.5c0-0.3-0.3-0.3-0.5-0.3
			c-0.5,0-1.8-1.3-2.3-1.5h0.8c1.5,0,1.8-0.8,1.5,0.5c-0.3,1.5,0-1.3,1.5-1c1.8,0.5-4.8-3.3-0.3-3.3c2,0,0.8-0.5-1.3-0.8
			c-1.8,0-2.3-0.3-3-1c-0.5-0.5-1.3-0.8-1.5-0.8c-0.5,0-0.5-0.5,0-0.8c1.5-0.5,3.5,0.3,3.3,1.5c0,0.5,0,0.8,0.3,0.8
			c0.5,0,0.3-1.3,0.8-1.3s-0.8-1-1.3-1.3h1.3c1.5,0,2-0.5-0.8-0.5c-1.8,0-2.5-0.3-2.3-1.5c0-0.3-0.3-0.3-0.5-0.3
			c-0.8,0.3-1-0.8,2.5-0.8c2,0,0.3-1.5,0-1s-4.8,0-5.3-0.5c-0.3-0.3-0.5-0.5-0.8-0.5c-0.8,0-1.5-1-1-1.5c1.5-0.5,2.3-0.8,2.8-0.3
			c2.8,2.5,5.8,3.3,2.5,0.8c-1.8-1.3-1.8-1.5,1.5-1.8c1.5-0.3,1.3-0.5-0.3-0.5c-2.3,0-1.8-0.5-1-0.5s0.8-0.5,0-1
			c-1-0.5-0.5-0.8,1-0.8c1.3,0,0.3-0.5-1.3-0.5c-0.8,0-1.3,0-1.3-0.3c0,0-0.3-0.5-0.8-0.8c-1.8-1-0.5-1.8,2.8-1.5
			c1.3,0,1.8-0.8-4.8-0.5c-1,0-0.5-1-1-1c-0.3,0-0.5-0.3-0.8-0.5c-0.5-0.8,2.5-1.3,4.3-0.8c1.5,0.5,1.5,0.3,0.3-0.8
			c-2-1.8-2.8-2.5-2.5-2.5c0.8-0.3-1.5-2.8,0-2.8c0.5,0,1.8-0.5-2-0.5c-3,0.3-5.6-1-4-1.8c1-0.5,3-0.5,3.5,0.3c0.8,1,1.8,0,1.3,0.5
			c-0.5,0.8,1.8,0.5,0-0.5c-1-0.5-1-1,0.3-1c1.8-0.3,1.3-0.8-0.5-0.5s-1.8,0.3-1.5-0.5c0.3-0.5,0-0.5,0-0.3
			c-0.3,0.3-0.5,0.3-1.5-0.5c-1.3-1-1.3-1.3,0.3-1.3c4.3,0,2.8-2,2.3-1c-1,1.8-13.4-2.8-4-2.8c2,0,0.8-0.3,2.3-0.5
			c0.8,0,0.8-0.3-0.3-0.3s-4-1.8-4-2.3c0-0.3,2.3-0.8,2.5-0.8h-1.8c-2.5,0-1.8-0.5-3.5-1.5c-0.8-0.3-0.8-0.5-0.5-0.8
			c0.8-0.5,3.3-0.8,3.5-0.3c0.8,1,1.5-1,0.5-1s-2.3-1.8-3-1.8c-1,0-1.3-0.5,3.5-1.8h-1.8c-3.3,0-3.8,0-4.6-0.8
			c-0.3-0.3-0.8-0.8-1-0.8s0-0.3,0.5-0.5c1-0.5,3.8-0.5,3.8,0c0,0.3,0.3,0.3,0.5,0.3c0.3,0,1.5,0.3,2.5,0.8s2.3,1,2.5,1
			s0.8,0.3,0.8,0.3c0.3,0.5,2.3,0.3,2.8,0.3l-1-0.8c-1.3-1-0.8-0.3-2.5-1.5c-1.3-0.8-2-1-2.8-1l0.8-0.3c1.3-0.5,0.5-0.8-1-0.5
			c-0.8,0-1.5,0.3-1.5,0s-2.3-1.3-2.5-1.3l2.3,0.3c2.3-0.8,3.3-1,4-1c0.8,0,2-1,2.8-1s2.8-0.8,4.3-1.3c1.5-0.3,5.8-1.5,8.1-2.3
			c1.8-0.5,0-1.8,10.1-2.3c4.6-0.3,4.8-0.3,7.1-1.3c1-0.5,7.8-0.8,7.8-0.5s-2.8,2.5-3,2.5c0,0-0.5,0.3-0.8,0.5
			c-0.5,0.5-1.3,0.5-0.8,0c0.3-0.3,0-0.3-0.3,0s-0.3,0.5-0.3,0.5c0,0.3-0.5,0.8-1,1.3c-0.8,0.5-1.3,1-1.3,1.3s0,0.3-0.3,0.3
			s-3.3,3-4,3.3c-0.8,0.3-0.5,1,1,0c1.3-0.8,1.5-0.8,4.3,0.8c1.5,0.8,1.8,0.5,0.5-0.8c-0.8-0.8-1.5-1.3-1.5-1.3
			c-0.5,0,0-0.8,0.8-1.3c1.8-1,3.3,0.8,4.3,1.3c1,0.3,0.5-0.3-0.5-1c-0.5-0.3-1-0.8-1-1c0-0.8-1.8-0.3-0.3-1.3
			c0.8-0.5,1-0.5,2.5,0.3c2,1,2,1,1.8,0.3c-0.3-0.3-0.5-0.5-0.8-0.5s-1.3-1-1.3-1.3c0-0.8,1.8-1,3-0.3c1.5,0.8,1.8,0.5,0.5-0.5
			c-1.5-1.5-1-2,1-1c1.3,0.8,1.5,0.3,0.5-0.8c-0.8-0.8,0-1.8,1-1.8c0.8,0,2.5-1.5,2.8-2c0.3-0.8-2.3-1.3-3.3-0.8
			c-0.5,0.3-1.5,0.8-2.3,0.8c-6.1,0.8-8.1,1.5-11.1,1c-1.5-0.3-3,0.3-7.3,1c-11.1,2.3-13.7,2.5-14.2,2.3c-0.3-0.3-0.3-0.3-0.8,0
			c-0.3,0.3-0.5,0.5-0.8,0.3c-0.3,0-0.5,0-0.5,0.3s-2.3,0.8-7.8,2c-5.8,1.5-5.8,1.3-6.6,1.8c-3,1-3.3,1-4.3,0.3
			c-1.3-0.8-1.3-0.8,1.5-1c1.8-0.3,2.3,0,2.3,0.3s0,0.3,0.3,0c0.5-0.8,1.5-0.3,1.5-0.8s-2.3,0.3-3-0.8c-0.5-0.8-1-0.3-1.3-1
			c-0.3-0.5,0.5-0.8,1.5-0.8c0.5,0,0.8,0,0.8-0.3s-2.5,0-2.8-0.5c0-0.3-0.5-0.3-0.8,0c-0.5,0.3-2-1-1.8-1.3c0.3-0.3,5.3-0.8,0.5-1
			c-2.3,0-2.5-0.5-4.6-1.8l1-0.3c0.8-0.3,1.3-0.3,2.5,0.8c1.8,1.3,2.3,1,0.8-0.3c-1.8-1.8,0.3-0.5,0.8-1.3c0.3-0.3-0.3-0.3-1-0.3
			c-1.8,0.3-3.5-1.3-2.5-2c0.5-0.3,0.5-0.5-0.5-0.5c-0.8,0-1.3,0-1.3-0.3c0-0.5-3.3-2-1-2c0.8,0,0.8-0.8-0.8-0.5
			c-0.8,0.3-1.3,0-1.8-0.5c-2.3-2-5.1-2.8-3-0.8c2.5,2.5,0,0.8-0.5,1.5c-0.3,0.5-1.8-0.5-1.8,0s1.3,1.8,1.8,1.8
			c0.8,0,0.5,0.5-0.3,0.8c-1.3,0.5-0.3,1.5,1.5,1.5c1.5,0,1.8,0.5,0.8,0.8s-1.8,0.3-2.8-0.3c-1.5-0.8-2.3-0.5-1.3,0.5
			c0.5,0.5,0.5,0.5-0.3,0.5c-1,0-0.8,1,0.3,1c1.5,0,1.3,0,3.5,1.3l-2,0.3c-3,0.3-2.5,1.3-3.3,0.3c-0.3-0.3-0.8-0.5-1-0.5
			c-0.3,0-0.5-0.3-0.5-0.3c0-0.3-0.5-0.5-0.8-0.5c-1-0.3-3.5-1.5-6.1-3.3c-4.8-3-4.6-1-4.3-9.9c0-2.3-0.8-1.8-0.5-3.3
			s-0.3-0.3-0.3-2.3c0-0.8,0-1.3,0.3-1.3c0.3,0.3,0.8-0.5,0.5-1c-0.5-0.5-0.5-3.8,0-4.3c0.3-0.3,0.5-0.8,0.5-1
			c0-1.3,1.5-0.3,0.5-1.3s0.5-0.5,0-1.3c-0.3-0.5,0.5-4,0.8-4s0.3-0.3,0-0.5c-0.3-1,0.8-1.3,1-4.6c0-0.8,0.3-1.8,0.8-2.3
			s0.5-1,0.3-1c-0.5-0.3-0.5-1.3,0-1.8c0.3-0.3,0.3-1,0.5-1.8c0.3-2,0.8-2.3,0.3-2.8c-0.3-0.3-0.3-0.5,0.3-0.8
			c0.5-0.3,0.5-0.3,0-1.5c-1-2.3,0.5-2.3-1-3.8c-1.3-1-0.3-1-0.5-2.8c0-1.3,0.5,0,0.5-1.3s-0.8,0.3-0.3-2c0.5-3,0.5-5.3,0.8-2.3
			c0.3,1,1.3,7.1,1.3,7.1c0,0.3,0.8,2.8,1,3.5c0.5,0.8,0.3,1.3-0.3,1.8c-0.5,0.5-0.5,0.5,0.3,0.3c0.8-0.3,0.8-0.3,0.5,1
			c-0.3,1,2.8,4.8,4,4.8c0.3,0,0.5,0.3,1,0.8s2,1.5-0.5-2.3c-1.8-2.5-3.5-2.8-3.5-4c0-1.3,0.8,0,3.3,1.8l1.5,1
			c-0.3-0.8-0.8-1.8-2.3-3c-0.8-0.8-1.3-1.3-1-1.3c0,0,0-0.3-0.3-0.5c-0.3-0.3-0.8-0.5-1-0.5c-0.5,0-1-1.5-0.8-1.8
			c0,0,0.5,0.3,0.8,0.5c0.5,0.5,3,1.8,3.3,1.8s0.3-1-0.3-1c-0.3,0-0.8-0.5-1-1s-0.8-1-0.8-1c-0.3,0-0.3-1.5-0.5-1.3s-1-1-1.3-0.8
			s-1-1-1-1.8c0-0.3,2.3,0.8,2.5,1.5c0.3,0.5,1.3,0.8,1.8,0.8l-0.8-0.8c-0.8-0.8-2.5-2.5-2.5-3c0-0.3-1.3-1.3-1.5-1.3
			s-0.3-0.5-0.3-1.3V18c1.5,1,4.6,3,3,1.3c-0.3-0.3-0.5-0.8-0.5-1c0-0.3-0.3-0.3-0.3-0.3l-0.3-0.3c0-0.3-0.5-0.8-1-1.3
			c-0.5-0.5-1-1-0.8-1.3c0.3-0.3,1.3-0.3,1.3,0s1,0.8,1,0.5c0.3-0.3-1-2-2.3-3.5c-1-1,0-0.8,0.3-0.5c0.3,0.5,1.5,0.5,1.5,0
			c0-0.3,0-0.3-0.3-0.3s-1.5-2.3-0.8-2c1,0.3,1.5,0,1-0.8c-0.5-0.5-0.8-2.8-0.5-4c0.3-1.3-0.5-3-1.3-2.3c-0.3,0.3-0.8,0.5-0.8,0.5
			s-0.3-0.5-0.5-1c-1-1.8-2.3-1-1.8,1c0.5,1.8,0,9.1-0.8,10.1c-0.5,0.5-0.5,1.8-0.3,2.3c0.3,0.3,0,0.5,0,0.8c-0.5,1-0.5,1.8-0.5,2.3
			c0.3,2-0.8-0.3-0.3,1.8c0.3,0.8,0.3,2.5-0.3,2.3c-0.5-0.3-0.3,0.3,0.3,1c0.3,0.3,0.5,0.5,0,0.8c-0.5,0.5-0.3,2.5-1,3.3
			c-0.3,0.3-0.5,1.3-0.5,2s-0.3,1.8-0.3,1.8s0,0.3,0,0.5c0.5,0.5,0.5,1.8,0,2.3c-0.5,0.3-0.5,0.5,0,0.8s0.3,6.1-0.5,8.1
			c-0.8,2,0,2-0.5,2.8c-0.8,0.8,0.5,0.8,0.3,2c-0.3,1.5-0.8,4-1.3,4.3c-0.8,0.5,0.5,0.3,0.5,1c0,0.3-0.3,0.3-0.3,0
			c-0.5-0.3-0.5-0.3-1,7.3c-0.3,2-0.5,3.3-0.8,3.8c-0.3,0.3-0.3,0.8-0.3,0.8c0,0.3-0.3,0.5-0.5,0.5c-0.8,0.3-0.8,0.3,0,0.8
			s0.3,0.3-0.5,3l-0.5,1.8c-0.3-0.3-1.3-1.3-1.8-1.3c-0.3,0-0.3-0.3-0.3-0.5s-1-0.8-2-1.5c-3-1.5-3.5-2.5-4.3-2.5
			c-0.3,0-0.8,0-0.8-0.3c-0.3-0.3-3.3-2.5-3.5-2.5s-0.3-0.3-0.5-0.5c0-0.3-0.3-0.5-0.5-0.5c-1.3,0-2.8-1.3-2.5-2.3
			c0-0.3,0-0.5-0.5-0.5c-1.3,0,0-2-2,0c-0.8,0.8-1,0.8-1.3,0.5c-0.5-0.3-0.5-0.3-0.3,0.5c0.8,3-3.5,2.3-4,3.3c0,0.3-0.3,0.3-0.5,0.3
			s-1.3,0.5-2.3,1c-2,1.3-2.8,1-2.8-0.5c0-2.5-4,0-4,2.5c0,1-2,2.3-2,3s-1,1.5-1.3,2.5c-0.8,3.8-2.3,4.8-3.5,2.3
			c-0.8-1.3-0.8-1.5-3-3.5c-3.5-3.5-2.5-3.8-4-6.8c-0.5-1-1-2.3-0.8-2.5c0-0.3,0-0.5-0.3-0.3c-0.5,0.3-0.5-0.8-1.5-1.8
			s-0.3-1.5-1-2.3c-0.8-0.8,0-1.5-1.3-2c-1-0.5-0.3-0.8-1.3-1.3c-1.3-0.8,0-1.8-1.3-1.8c-1,0-0.5-0.5-1-0.5s-1.3-1.3-2-1.3
			c-0.5,0-0.3-1-0.8-1s-0.3-1-0.5-1c-0.3,0-0.3-0.3-0.3-0.3c0-0.5-1.8-4.3-2.3-4.3c-0.3,0-0.3-0.3-0.3-0.8s-0.3-1-0.5-1.3
			c-0.3-0.3-0.8-1-1-1.5s-0.5-1-0.8-1c-0.5,0,0-1-0.5-1.5c-0.5-0.3,0.3-1-0.5-1s-0.3-1.3-0.8-1.3s-1-1.5-1.3-1.8
			c-0.5-0.5-1.5-2.3-1.5-2.5s2.5,1.5,3.5,2.5c1.3,1.3,0.8,0.3,2.5,1.8c1.3,1.3,2.3,2,5.3,4.3c6.8,5.6-3-4-3-4.6c0-0.3-2-1.8-3-2.5
			c-0.3-0.3-0.5-0.8-0.8-1c-0.3-1.5-1.5-0.5-1.8-1.5c0-0.3-0.3-0.5-0.5-0.5c-0.5,0-2.5-1.5-4.6-3.5c-2.5-2.5-2.3-1.5-4-3.3
			c-1-0.8,0-1.5-2.3-1.5H29c0.3,1.3,0.3,1.8,2,3.5c1,0.8,1.8,1.8,1.8,2s0.3,0.3,0.5,0.3c0.5,0,0.8,1,1.8,2c3,3.3,3.8,5.6,5.1,7.3
			c0.5,0.8,0.5,1,0.3,1.3c-0.3,0.5,0.8,3,1.5,3.8c0,0,1.8,3.5,3.3,5.3c1,1.3,1,1.5,0.3,1.8c-0.7,2-0.7,2,0.3,2
			c2,0.3,1.8,1.3,3.3,2.8c0.8,1,4.8,10.4,5.3,10.4c0.3,0,0.3,0.3,0.3,0.5c0,0.3,0.3,1,0.8,1.3c0.5,0.5,0.8,1,0.5,1.3
			c0,0.3,0,0.5,0.3,0.5c0.5,0,1.5,1.5,1.5,2c0,0.3,0.5,1,1,1.5c1.3,1.3,2.3,3.3,2.3,4c0,0.3,0.3,1,0.5,1.3c1,1,0.5,1.5,1,2.3
			c0.3,0.3,0.5,0.5,0.5,1c0,0.3,0.5,1.5,1.5,2.5c0.8,1.3,1.5,2.3,1.5,2.3c0,0.3-2.5,5.6-3,5.8c0,0-1.3,3.3-4.3,9.9
			c-7.1,14.9-8.6,21.8-10.9,22.8c-0.8,0.3-0.8,0.5-0.3,0.5c0.8,0.3-1.3,1.3-2.3,1.3c-0.8,0-0.3,0.5-1,0.5c-1.5,0-10.1,5.3-10.4,5.3
			c-1,0.5-1.5,1-2,1.8c-0.5,1-1.8,1.5-2,1c-0.3-0.3-0.3-0.3-0.8,0c-0.3,0.3-1,0.8-2,0.8c-1.5,0.3-9.1,2.3-11.1,2.3
			c-1,0-5.1,0.5-5.3,0.5s-0.5,0-0.8,0.3c-0.5,0.5-3.3,0.3-4.3-0.3c-1.3-0.8-2.8,0-2.5,1c0,0.8,0,1-1.3,1.5
			C-1.9,141.5,0.6,142.5,4.7,141.7z M65.9,154.9c0-0.5,0.5,0,0.8-1c0.3-0.5,1-1,1.3-1C68.2,153.1,65.9,155.4,65.9,154.9z
			 M187.4,189.6c0.3-0.3,1,0,1.3,0.8c0,0.3,0,0.8,0,0.5C188.2,190.8,187.1,189.8,187.4,189.6z M77.8,192.4c-1.8,0-0.5-8.4-0.3-6.6
			C78.3,190.8,78.3,192.4,77.8,192.4z M78.6,199.2c-0.3-0.8,0-0.8,0.5-0.5c0.3,0,0.5,0.5,0.5,0.5C79.6,200,78.8,199.7,78.6,199.2z
			 M80.8,196.7c-0.5-0.8-0.3-1.5,0.3-1.3c0.5,0.3,0.5,2.3,1,3c0.3,0.5,0.3,0.8,0.5,2.5c0.3,0.8,0,1.3,0,1.3c-0.8,0-1-0.8-1.3-2.8
			C81.3,198.2,81.1,196.9,80.8,196.7z M120.3,214.1c-0.8-0.3-0.3,0.5-1.3,0.5c-0.5,0-0.8,0.3-1,0.5c-0.3,0.5-1.8,0.8-3,0.8
			c-0.3,0-0.8,0.3-1,0.5c-0.5,0.5-2.8,1.3-3.3,1c-0.3,0-0.5,0-0.5,0c0,0.3-1,0.5-2,0.5c-2.8,0.3-3.3,0.5-4.8,0.5
			c-1.8,0.3-1.8,0.8-2.8,1c-3.8,0.5-7.3,2.3-8.9,1.3c-1-0.8-4.6,0.5-6.1-2.5c-0.3-0.3-0.8-0.8-1-0.8c-0.8,0-1-0.5-0.8-1
			c0.5-0.8-2-4.6-1.8-5.8c0-0.3,0-0.5-0.3-0.5c-0.5-0.3-0.5-0.8,0-0.8c0.3,0,0.3,0.3,0.3,0.5c0,0.3,0.3,0.5,0.5,0.5
			c1.3,0.3,1,3.8,3,6.1c0.3,0.5,0.8,1.3,0.8,1.8s0.3,1,0.5,0.8c0.3-0.3,0.3-1.8,0-2.3c-0.3-0.3-0.3-1-0.5-2.3c-0.3-3.5,0,0.8,1,0.8
			c1.3,0,1.5,3.8,2.3,3.3c0.5-0.5-0.5-1.5,0-2.3s-0.8-0.5-0.8-1.3c0-0.3,0-0.3,0.5,0c0.5,0.5,0.8,0.3,0.5-0.8
			c-1-3.3-1.8-7.3-1.3-7.1c0.3,0,0.3-0.3,0.3-1c0-1.5,0.5-1,0.8,0.8c0,0.8,0.5,2,0.8,2.5c1,2.3-1,0.8-0.3,3.8c0.5,2,0.8,3.3,1,3.3
			s0.3,0.5,0.5,1c0.5,2,0.8,1,0.5-1.8c0-3.8-0.3-3.8-0.5-4.8c0-0.5-1.5-4.3-1.5-5.8v-0.8c0.3,0.5,0.8,2,1.3,2c0.3,0,0.3-0.5,0.3-1
			c-0.3-1-0.3-1,0.3-0.3c0.5,1,0.3,1.8,1,4c0.8,2.3,0.3,3.3,0.8,4.8c0.3,0.8,0.3,1-0.3,1.3c-0.5,0.3-0.5,0.3,0.3,0.5
			c0.5,0.3,0.8,0.5,1,1.8c0.5,1.8,1,2,1,0.8c0-1.5,1-1,0.3-2.3c-0.8-1.3-0.3-3.3-1-4c-0.8-0.8,0-2.5-0.5-3c-0.3,0-0.3-0.3-0.3-0.5
			c0-0.3,0-0.8-0.3-1.3c-0.5-1-0.5-2.8,0.3-1c0.5,0.8,0.8,1,0.8,0.8c0.3-0.3,0.3-0.3,0.3,0.3c0,1.3,1.3,0.5,0.8,2
			c-0.3,0.5-0.3,1,0,1s0.3,0.3,0.3,0.5s0,0.5,0,0.8c0.8,1,1,3,0.5,3.5c-1.5,1.5,0.8,0,1,1.3c0.3,1,0.8,0.8,0.8-0.3
			c0-2.3,2-2.5,2.3-0.5c1.3,5.3,1.3-4.8-0.5-6.8c-0.8-0.8-0.8-2-1-2.8l0.8,0.8c0.5,0.3,0.8,0.8,1,0.8c0.8,0,2,4.3,1.5,5.3
			c-0.5,1.3,0.5-0.3,1,1.5c0.8,4.6,2.3,2.5,1.5,2c-0.5-0.8,0.5-4.6-1.8-6.6c-1.3-1,1.3-0.5,2.5,3.8c1.5,5.3,1.3-1.3,0.5-2
			c-0.5-0.5-0.5-0.5,0.5-0.3c0.5,0.3,1,0.5,1.3,0.8s0.3,0.5,0.5,0.3s1.5,0.5,1.5,1c0,0.3,2.3,5.1,1.5,1.5c-0.5-2.5-0.8-2,3.8-1.5
			c1.5,0.3,1.5,0.3,1,0.5c-0.8,0.5-0.3,0.5,1.5,0c0.8-0.3,2-0.5,2.8-0.5l1.5-0.3C121.3,213.6,121.1,214.4,120.3,214.1z M83.6,205.3
			c0,2,3.8,8.6,2,7.1c-0.5-0.3-0.5-0.3-0.8,0c-0.3,0.8-0.8,0.5-0.8-0.5s-2.5-9.9-1.3-8.9c0.3,0,0.3,0.5,0,0.8
			C82.9,204.3,83.6,204.5,83.6,205.3z M93.2,204.8c0,0.3-0.3,0-0.5-0.8C91.7,201,93.5,203.8,93.2,204.8z M93.5,184.5
			c0.5,0,1.5,9.1,2,11.1c0,0.3,0,0.5,0,0.5c-0.3,0-1.5-5.6-1.8-7.8C93.5,185.5,93.2,184.5,93.5,184.5z M98.1,207.3
			c0,0.3,0.3,0.5,0.3,0.5c0.5,0,0,0.5,0.5,1.5c1,2,1.3,4.6,0.3,4.6c-0.3,0-0.5,0.3-0.5,0.3c0,0.3-0.5,0.5-0.5-0.3
			c0-2.8-1.3-6.1-1.3-7.6v-0.8l0.5,0.8C97.8,206.5,98.1,207,98.1,207.3z M98.8,198.7c0,0.3,0.3,0.8,0.3,0.8c0.3,0,0.5,1,0.8,2.8
			c0,0.5,0.3,1.3,0.5,1.5c0.3,0.3,0.3,0.8,0.3,0.8s-0.3,0-0.3-0.3s-0.3-0.5-0.8-0.5c-1.8-0.3-1.3-3.8-1.8-5.6
			C97.5,196.7,98.8,196.9,98.8,198.7z M131.5,210.3c-0.8,0-2.5,0-3-0.3c-0.3-0.3-0.5-0.3-0.5,0c-0.3,0.5-0.3,0.5-1,0.3
			c-1-0.3-0.3-3.8,0.8-3.8c0.3,0,0.3-0.5,0.3-1.3c0-2.3,0.5-1.5,0.5,0.8c0,3.5,0.3,4,0.5,4.3c0.8,0.3,0.3-3,1.5-3.5
			c1-0.5,1.3-0.3,0.8,0.5c-0.3,0.5-0.3,0.5,0,0.8c0.3,0,0.5,0.8,0.5,1.5v0.8h-0.4V210.3z M128.2,200.7c0.3,1-0.3,2.8-0.3,1.3
			c0-0.5,0-1.3-0.3-1.8C127.4,198.7,127.9,199.7,128.2,200.7z M131,202c0.3,0.3,0.3,3.5,0.3,3.5C130.4,205.5,130.4,201.7,131,202z
			 M133.2,210.6c-1.5,0,0-7.8,0-4c0,1.3,0.5,0.5,0.5-0.5c0-1.8,0.3-2,0.5-2c0.5,0,0.8,2.8,0.3,3.5c-0.3,0.3-0.3,0.8,0,0.8
			c0.5,0.5,0.3,2-0.3,2C133,210.1,134.2,210.6,133.2,210.6z M158,152.6c0,0.8-2.8,0.3-3.8-0.5c-1-1-0.8-1.3,1.5-1
			C157,151.4,158,151.9,158,152.6z M156.3,148.1c0-0.5,1.3-0.3,1.5,0.3c0,0.3,0.3,0.8,0,0.8C157.5,149.3,156.3,148.3,156.3,148.1z
			 M161.3,178.9c-0.8-0.5-0.8-0.8,0.3-0.8c0.8,0,2.8,0.8,2.8,1C164.4,179.7,161.8,179.5,161.3,178.9z M164.4,182.7
			c0,0.3-3.3,0.3-3.5,0c-0.5-0.5-0.3-1.3,0.5-1.3C161.8,181.5,164.1,182.2,164.4,182.7z M158.8,173.4c-0.8-0.3-0.8-0.8,0.3-0.8
			c0.5,0,1,0,1.5,0C162.1,172.4,161.3,173.9,158.8,173.4z M134.8,102.5c1-0.3,1.3,0,2,0.5c1.8,1.5,2.3,1.5,1.5,1.5
			c-3,0.3-3.5,0.3-4.6-0.8C133,103,133,102.8,134.8,102.5z M130.4,101.2l1.3-0.5c0.8-0.3,1.5-0.5,1.5-0.5c0.3,0,1.3,1,1,1
			C134.2,101,130.7,101.2,130.4,101.2z M146.6,131.6c0.8,0,2.3,0.5,2.3,0.8C148.9,133.1,145.4,131.9,146.6,131.6z M151.7,139.2
			c0.5,0.8,0.3,0.5-0.8,0.3C144.9,137.7,150.4,136.4,151.7,139.2z M147.2,123.5c-1.3-0.3-1.3-1,0.3-1c0.8,0,1.3,0.3,1.5,0.5
			C149.2,123.5,148.2,123.8,147.2,123.5z M143.4,116.4c0-0.3,2.8-0.5,3.5,0c0.8,0.3,0.3,1,1,1c0.3,0,0,0.3-1,0.3
			C145.6,117.7,143.4,116.9,143.4,116.4z M143.9,120.7c-0.3-0.5-1.5-0.3-1.5-0.5c0-0.5,1.8-0.5,2.5,0
			C146.4,120.7,144.4,121.2,143.9,120.7z M143.4,110.4c-0.3,0.3-1.8-0.8-1.5-1c0.5-0.5,3-0.3,3.5,0.5
			C146.4,110.9,144.1,109.8,143.4,110.4z M138.3,107.1c-0.8-0.8-0.3-1,1.5-0.8c1.3,0,2.5,0.8,2.5,1
			C142.3,107.8,138.8,107.6,138.3,107.1z M137.8,109.8c1,0,2.5,0.8,2.3,1c-0.8,0.5-4.6,0.3-4.6-0.5
			C135.3,110.1,136.5,109.8,137.8,109.8z M141.1,112.9c2.5-0.5,2.3,1.8,1.5,1.8s-1,0.5-2.3-0.5c-0.5-0.5-1-0.8-1-0.5
			c0,0-0.3,0-0.3-0.3C139.1,112.9,139.3,113.1,141.1,112.9z M143.1,128.8c0.8-0.3,2,0,2,0.5c0.3,0.5-1,0.5-2,0l-0.8-0.3L143.1,128.8
			z M144.4,134.9c0.5-0.3,2.3-0.3,2.8,0.3c0.5,0.5,0.5,0.5-1,0.5C144.6,135.7,143.6,135.2,144.4,134.9z M150.4,142
			c0.5,0.5,0.5,0.5-0.8,0.5c-0.8,0-1.5,0-1.5-0.3s-0.5-0.5-0.8-0.5C145.9,141.5,149.7,141.5,150.4,142z M153.7,148.8l1,0.8H154
			c-0.5,0-1.5,0-2,0c-1,0-2.8-0.8-2.8-1.5C148.9,147.6,153,148.1,153.7,148.8z M153.2,154.9c1.3,0,3.3,0.8,3.3,1c0,0.5-3.3,0-4-0.5
			l-0.8-0.5H153.2z M158,162c0,0.5-3.3,0.5-3.8,0s-0.5-0.5,1-0.5C156.8,161.2,158,161.5,158,162z M159.8,167.6l0.8,0.5h-1.8
			C154.5,168.1,158,166,159.8,167.6z M162.6,169.6c1,0,1.5,0.8,0.8,1C160.8,171.4,159.6,169.6,162.6,169.6z M157.5,164h1.8
			c1.5,0,4,0.5,4,1.3C163.4,165.5,160.3,165.8,157.5,164z M160.3,159c0,0.3-0.3,0.3-0.3,0.3c-0.3-0.3-2,0.8-2.5,0
			c-0.3-0.3-0.5-0.5-0.8-0.5c-0.5,0-0.5-0.5,0-0.8c0.3,0,0.8,0,1.5,0C159,157.7,160.6,158.4,160.3,159z M158.5,155.7
			c-1.3-0.8-1.3-1,0.3-1c1.3,0,2.5,0.8,1.8,1.3C160.3,156.2,159.6,156.2,158.5,155.7z M153,145.5c-0.5-0.3-1-0.5-1.3-0.5
			s-0.5-0.3-0.3-0.3c0.3-0.5,2.8-0.3,2.8,0.3c0.3,0.5,0.8,0,1.3,0.8C156,146.3,153.7,146.3,153,145.5z M154.5,131.6
			c0.3,0,0.8,0.3,0.8,0.5c0.3,0.8-0.3,0.8-0.8,0.3C153.7,131.6,153.7,131.6,154.5,131.6z M152.2,127.8c0.8-0.5,3.3,0,4,0.8l0.8,0.8
			C153,129.3,152,128.1,152.2,127.8z M151.2,125.3c0.3,0,1,0,1.3,0.5l0.8,0.5C150.4,126,150.4,125.5,151.2,125.3z M146.9,119.5h1.8
			c1.8,0,4.3,0.3,4.3,0.8C153,120.7,149.9,121,146.9,119.5z M147.4,113.6c0-0.3-0.3-0.5-0.5-0.5c-1.8-0.3-1.8-1-0.3-1.3
			c1.3-0.3,1.5-0.3,1.8,0.3c0.3,0.3,0.8,0.8,1.3,1s0.8,0.5,0.8,0.5C150.4,114.2,147.4,114.2,147.4,113.6z M145.9,106.8
			c-1,0.5-3.5-1-1.5-1.3c1.5,0,2.3-0.3,3.5,0.5l1,0.5l-1,0.3C146.4,107.3,147.2,106.3,145.9,106.8z M139.8,103.3
			c-1.3-0.8-1-1.3,0.5-1.3c1.3-0.3,1.5,0,2.3,0.5c0.5,0.5,1,0.8,1.3,0.8s0.5,0.3,0.8,0.5C145.4,104.5,141.1,104,139.8,103.3z
			 M138,100.7c-1.5,0-1.8,0-1.5-0.8c0-0.3-0.3-0.3-0.5-0.3s-0.5,0-0.8-0.3c-0.3-0.8,3.8-0.8,4.3,0.8
			C139.6,100.7,139.3,100.7,138,100.7z M136.3,88.6c1.5,0,2.3,0.3,2.3,0.5C138.8,90.6,132.5,88.6,136.3,88.6z M135.8,92.4
			c0.3,0.3,0.8,0.5,1,0.5s0.5,0,0.5,0.3c0,0.8-3,0.5-4.6-0.3c-1.5-0.8-1.3-1.3,0.8-1.3C134.8,91.6,135.3,91.9,135.8,92.4z
			 M131.2,96.4c0-0.3-0.3-0.5-0.8-0.5c-1.3-0.3-0.5-0.8,0.8-0.8C135.8,95.2,131.2,97.2,131.2,96.4z M131.7,104.8
			c0.8,0.5,0.3,0.8-0.8,0.5c-0.5-0.3-0.8-0.3-0.8,0c0,0-0.3,0-0.5-0.3c-0.5-0.5-0.5-0.5-0.3-0.8C130.4,103.3,130.2,104,131.7,104.8z
			 M136,107.8c0,0.5-3.3,0.5-3.5,0c0-0.3-0.5-0.3-0.8-0.3C129.4,107.6,136,105.8,136,107.8z M137.5,114.2l1,0.8H137
			C131.5,114.9,135,112.1,137.5,114.2z M137.3,120.2c0.8-0.5,1.8-0.3,2.8,0.3c0.8,0.8,0.5,1-1,0.8C137,121,136.8,120.7,137.3,120.2z
			 M139.3,116.7c0.8-0.3,2.3,0.3,2.5,1C142.1,118.7,136.8,117.4,139.3,116.7z M143.4,132.4c0.5,0.5,0.5,0.5-1,0.5
			C139.1,132.9,142.1,130.9,143.4,132.4z M143.6,137.9c0.8-0.3,2,0.5,2,1s-1.5,0.5-1.5,0c0-0.3-0.3-0.3-0.5-0.3
			C142.9,138.7,142.9,138.2,143.6,137.9z M150.2,146.3h-1c-1.5,0-1.8-0.8-2.5-0.5c-0.5,0.3-1-0.3-1-0.8
			C145.6,144.5,146.9,144.3,150.2,146.3z M149.7,151.6c1.5,0.3,2,0.8,1.3,1.3c-0.5,0.5-0.8,0.5-1.5,0
			C147.7,152.4,147.9,151.4,149.7,151.6z M154.5,159.5H153c-1.5,0-1.8,0-1.8-0.8C151.2,158.2,152.2,157.7,154.5,159.5z M155.5,165
			c0.8,0.8-1,0.5-1.5,0C153.2,164.3,155,164.5,155.5,165z M157.8,170.6l1,0.5h-1.5C154,170.8,156.3,169.8,157.8,170.6z M159,176.2
			c0.8,0,1,0.5,0.5,0.5c-1,0-1.3-0.3-1.3-0.8C158,175.2,158,176.2,159,176.2z M163.4,198.7c-0.3,0-0.5,0.3-0.5,0.8s-0.8,2.8-0.5-0.5
			c0-7.3-2.8-6.8-1.5-5.6c0.5,0.5,0.8,7.3,0.3,7.8c-0.3,0-0.3,0.5-0.3,0.8c0.3,0.8-0.8,1.5-1.5,2l0.3-2c0.3-2.3,0.3-7.3,0-9.6
			c0-0.8,0-1.5,0.3-1.5c0.5,0-0.3-0.5,0.5-0.5c1.5,0,1.8,1,1,0.8c-0.8-0.5-0.3,0.8,0.5,1.5c0.5,0.5,0.8,1,1,1.8c0,1.8,1,1.5,0.8,3
			c0,0.5,0,1,0,1c0.3,0,0.3,0.3,0.3,0.3C163.9,198.7,163.6,198.7,163.4,198.7z M166.9,202c-1.3,0.5-2.3,0-1.8-0.8
			c0.3-0.3,0.5-0.3,1.3,0C167.1,201.7,167.4,201.7,166.9,202z M168.9,198.4l-1,0.3c-1,0.3-2-0.3-2-0.8
			C166.1,196.7,168.2,197.9,168.9,198.4z M166.1,193.4c0.8-0.3,2.5,0.3,2.5,0.8s1,0.3,1.3,0.5c0.3,0.3-3.8,0.5-4.6,0
			C164.6,194.4,165.1,193.6,166.1,193.4z M166.9,188.8c-0.5,0-2.8-0.3-3.3,0s-1.3-0.5-1-1.3s2-0.5,3,0.3L166.9,188.8z M169.7,185.5
			c-5.3,0-4.8,0-6.6-1C167.4,183.5,166.1,184,169.7,185.5z M170.7,182.7c0.3,0.3-0.3,0.3-0.5,0c-0.5-0.3-4.6,0.3-5.3-1.8
			C164.6,180.2,168.9,181.5,170.7,182.7z M167.7,176.4c0,0.5-4.8,0-5.3-0.5c-0.8-0.8-1.5-0.3-0.8-1
			C162.1,174.1,167.7,175.7,167.7,176.4z M168.4,173.1c-0.5,0.5-3,0.3-3.8-0.3c-2.3-1.3,0.5-0.5,1.8-0.8
			C166.6,171.9,168.7,172.9,168.4,173.1z M170.7,172.9c0,0.8-1.3,0-1.3-1C169.4,171.1,170.9,171.1,170.7,172.9z M169.4,170.1
			c0,0.5-2.5,0.3-3.3-0.3l-0.8-0.5h1C168.4,169.1,169.4,169.6,169.4,170.1z M167.4,168.1c-4,0-3.8,0-5.6-1
			C164.9,166.3,165.1,166.3,167.4,168.1z M167.9,159.2c-0.8,0.5-1,0.3-1.8-0.8C164.1,155.9,168.7,159,167.9,159.2z M165.4,164.5
			c-1.5-0.8-1.8-1.3-0.5-1.3C166.1,163.5,168.7,166.5,165.4,164.5z M165.1,162.2c-0.3,0-6.3-0.3-4.3-1.5
			C162.6,159.7,165.4,162.5,165.1,162.2z M164.6,152.6c-1,0-1.5-0.5-1.5-1.3c0-0.3,1-0.3,1.3,0.3
			C164.6,152.4,166.4,152.6,164.6,152.6z M162.8,147.3c0.8,0,1.3,0,1.5,0c0,0.3,0.3,0.3,0.5,0.3s1,0.5,1.5,1l1,1
			c-2.8,0.3-3.5,0.3-3.8-0.3c-0.3-0.3-0.5-0.5-0.8-0.5C161.6,148.6,161.3,147.6,162.8,147.3z M161.8,141.5c0.3,0.3,0.5,0.5,0.8,0.5
			s0.5,0.3,0.5,0.3c0,0.3-0.5,0.5-0.8,0.3c0,0-0.8-0.3-1.5-0.3c-0.8,0-1.3-0.3-1.5-0.5c0-0.3-0.5-0.5-0.8-0.5
			C157.8,141.5,160.8,140,161.8,141.5z M156.3,135.2c-1-0.3-1-0.8,0.3-1.3c0.8-0.3,3,0.8,3,1C159.6,135.4,157,135.4,156.3,135.2z
			 M161.8,133.4c1.5,0,2.3,0.5,1.8,1c-0.3,0.3-0.3,0.5-0.3,0.8c0.5,0.5-1,0.3-2.3-0.5C159.6,133.9,159.8,133.4,161.8,133.4z
			 M160.6,131.6c0,0.3,0.3,0.5,0.8,0.5c1,0.5-2,0.3-3-0.3c-1.8-0.5-1.8-1-0.3-1.3C159,130.6,160.6,131.1,160.6,131.6z M159,126
			c-2.5,0-1-0.3-2.8-0.3c-1.3,0-2.3-0.8-1.8-1C157.3,123.3,163.9,126.3,159,126z M158.8,121.2c0.8,0,1.3,0.5,1.3,1.8
			c0,0.5-0.8,0.5-1,0c0-0.3-0.5-0.5-1-0.8C156.8,121.7,157.3,121.2,158.8,121.2z M157.5,123.5H155c-3.8,0-5.1-0.8-2-1.3
			C155,121.5,154.7,121.7,157.5,123.5z M152,115.4c0.8-0.3,1-0.3,2,0.5c0.5,0.5,1.5,1,1.8,1.3c0.5,0.3-1.5,0.5-3,0.3
			c-1.3-0.3-3-1.5-2.5-1.8c0.3,0,0.5,0,0.8,0C151,115.7,151.5,115.7,152,115.4z M149.2,108.3c1.8-0.5,2-0.3,4.3,1.5
			c0.8,0.8-4.6,0.3-5.6-0.3c-0.8-0.5-1-1-0.5-0.8C147.4,108.6,148.4,108.6,149.2,108.3z M150.4,102.8c1,0.3,1,0.8,0,0.8
			c-0.5,0-1.3,0-1.8,0c-2,0.3-2.3-1.8-3.3-1.8s0.3-0.8,1.5-0.8C149.4,101,148.4,102.3,150.4,102.8z M147.9,96.4
			c0.8,0.5,0.5,0.3-2.3,0.5C142.3,97.2,146.6,95.7,147.9,96.4z M144.6,98.7c0,0,0.5,0.5,1,0.8l1,0.8c-1,0-3.5,0-3.5-0.3
			s-0.3-0.3-0.5-0.3c-0.5,0-1.8-0.3-1.8-0.8C140.8,98.7,144.6,98.2,144.6,98.7z M144.1,88.3c0.5,0.5,1,0.8,1.3,0.8s0.3,0,0.3,0.3
			c-0.5,0.5-4,0.3-5.1,0c-1.3-0.8-1-1.3,0.5-1.3C143.1,88.1,143.1,87.6,144.1,88.3z M141.1,86.3l1,0.8h-2.3
			C133.5,87.1,139.1,84.3,141.1,86.3z M138.3,80.7c1.3,1,0.3,0.8,0,0.5c0-0.3-0.5-0.3-0.8-0.3C134.2,80.7,135.5,78.5,138.3,80.7z
			 M132.5,77.4c0.3,0,0.8,0,1,0s0.8,0.3,1.3,0.8c0.8,0.8,0.5,1-1.3,0.5C132.5,78,132,77.4,132.5,77.4z M133.2,83c0.3,0,1,0,1.8-0.3
			c1.3-0.3,1.5,0.3,3.3,1.5h-2C134.2,84.3,131.5,83,133.2,83z M132.2,86.6c0.5,0.3,0.8,0.3,1.3,0s2.5,0,2,0.5s-3.5,0.5-4.3-0.3
			C130.4,86.1,131,85.8,132.2,86.6z M131.2,90.1c-1.3,0-1.8,0.5-3.3-0.5l-1-0.8C131.7,89.3,132.7,90.1,131.2,90.1z M114.5,80.7
			c1,0.8,1,0.3,1.5,1.3s1.3,0.3,2,1c0.5,0.8,1.3,0.3,1.8,1c0.5,0.8,1.5,0.5,3,1.5c3.3,2.3,4.3,1.8,3.8,2.8c-0.3,0.8-0.3,0.8-3.8-1.8
			c-0.8-0.5-1.3-0.8-1.5-0.8c-0.3,0.3,1,1,2,2s2.5,1.8,3.3,2.5c0.8,1,1.5,0.5,1,1c-1.3,1.3,1.5,0.3,2.8,2c1,1,2,0.8-0.3,1
			c-2.3,0.3-1.8-0.3-3.5-1c-0.5-0.3-1-0.5-1-0.5c0-0.3-3-1.5-3.3-1.5c-0.3,0.3,1.8,2.3,2.5,2.8c0.5,0.3,0.8,0.8,0.8,1.3
			c0,0.8,0,0.8,0.8,0.5c1-0.3,3.3,1.5,2.5,2c-1,0.5-0.5-0.3-1.8,0c-0.5,0-0.8,0.3-0.5,0.5c0,0.3,0,0.3,0,0.3c-0.3,0-1-1.3-1-1.8
			c0-0.3-0.3-0.5-0.5-0.5c-0.5-0.3-1.5-2-1.3-2c0,0,0-0.3-0.5-0.8c-1-1-1.8-2.3-1.8-3c0-0.3-0.3-0.8-0.5-1c-0.8-0.5,0-1.3-1.3-1.8
			c-0.5-0.3-0.8-0.5-0.8-0.8s-0.3-0.3-0.3-0.3c-0.5,0-1.8-1.3-1.8-1.5c0-0.5-2-2.3-2.5-2.3C112.7,82.5,113,79.5,114.5,80.7z
			 M110.7,70.1c0-2.5,1,4.6,0.3,4c-0.3,0-0.3,0-0.3,0.3c0,0.5-0.5,0.5-1,0C109.2,73.4,110.7,70.6,110.7,70.1z M110.7,79
			c0,1-0.5,1-1.5-0.3C107.4,75.7,110.7,77.4,110.7,79z M109.7,85.8c-0.5,0.8-1.5,0-1.8-1.3c0-0.5-0.5-1-1-1.3c-1-0.5-2.5-3-0.3-1
			C106.9,82.8,110.2,85,109.7,85.8z M107.4,88.6c-0.5-0.8-0.8-1.5-1-1.5s-0.5-0.5-0.8-1s-1-1.5-1.8-2.3s-1.5-1.8-1.8-2.3
			s-0.5-1-0.5-1c-0.5,0-3.5-5.6,2.5,1.8c2.5,3,2.3,2.5,3,4.3c0.8,2,1.5,2.3,1.3,3C108.2,89.9,107.9,89.6,107.4,88.6z M107.4,94.7
			c-1.3-3-4.3-8.9-4.3-8.9c-0.3-1.8,1.5,1.5,4,7.1C108.2,95.7,107.9,95.9,107.4,94.7z M102.1,84.8c0-0.5-2.5-2.8-1.5-2.8
			c0.3,0,0.8,0.8,1.3,1.5C103.4,85.8,102.1,85.3,102.1,84.8z M98.1,69.3c0.5,0.5,0.8,0.8,0.8,0.5s1.8,0.8,1.8,1s0.3,0.3,0.3,0.3
			s1,0.5,1.5,1c4.3,3.3,5.1,3.3,4.6,5.3c-0.5,1.8-2.3-0.8-3.5-0.8c-0.5,0,0-0.5-1-0.8c-0.3,0-0.5-0.5-0.5-0.8s0-0.5-0.3-0.5
			c-0.5,0-0.8,0-0.5-0.3s0.3-0.3-0.3-0.5c-2.5-1-1.3-3.3-2.5-3c-1,0.4-1.5-0.8-1.5-0.6s-0.8-0.5-1.5-1.5
			C95.3,67.6,97,68.3,98.1,69.3z M98.6,79.7c0-0.3,0-0.5-0.3-0.5c-0.5,0-2.5-3.3-2.3-3.8c0.5-1.3,0.5,0.8,1.3,1.3
			c0.3,0,0.3,0.5,0.3,0.8s0.3,0.8,0.5,1.3C98.3,79,98.6,79.5,98.6,79.7c0,0.3,0,0.3,0.3,0.3s0.5,0.3,0.5,0.8
			C100.6,82.5,98.6,80.7,98.6,79.7z M95.8,73.1c0.3,0.3,0.5,0.8,0.5,1c0,0.5-0.8,0.8-0.8-0.5C95.3,72.6,95.3,72.6,95.8,73.1z
			 M79.1,68.6v1.3c0,1.5-0.3,2.3-0.8,1.3C78.3,70.1,78.8,69.1,79.1,68.6z M70.7,128.6l0.5,1c0.5-1,0.8-1.3,0.5-5.8
			c-0.3-8.1-0.3-9.1,0-9.1c0.3,0.3,0.3,0,0-0.3c-1.5-1.8,1-19,1-19.2c0-1.3,0.5-1.8,0.5-0.3c0,2.3,1-0.3,0.3,4.8
			c-1,9.6-0.5,12.4-1.3,12.9c-0.3,0.3-0.3,0.3,0,0.8c0.3,0.3,0.5,1,0.5,2.3c0,2.8,0.5,5.6,0.5,8.4c0,2.5,0.5,1.8,0.5,3
			c0,1.8,1,2.8,0.8,0.8c0-0.8,0-1.5,0.3-1.8c0.3-0.5,0-0.8,0-0.8c-0.5,0-0.5-6.8,0-6.6c0.3,0.3,0.5-0.5-0.3-0.8s-0.3-6.6-0.8-7.6
			c-0.3-0.8,0.3-1.5,0.3-2c-0.3-1.3,0-8.1,0.3-8.9c0.3-0.5,0.5-2,0.5-3.8c0-3,0.8-5.6,0.8-2.8c0,1.3,0.5,1.3,0.8,0
			c0.3-1,0,5.1,0.5,5.1s0.3-1.3,0.5-3.5c0.3-1.8,1-10.4,1-10.4c0.3-0.5-0.8-1-1.3,2c-0.8,6.1-1.8,1-1.3-0.8c0.8-3.3,0.3-4.6-0.5-1.5
			c-0.3,1.3-1.3,4-1.3,4c0,0.3-0.3,0.3-0.3,0.3c-0.3-0.3-0.3-4,0.3-5.3c0.3-0.8-0.8-1-1,0.8c-0.3,0.8-0.5,1.3-0.8,1.3
			c-0.8,0.3-0.8-4,0-4.3c0.5-0.3,0.3-1,0.8-1c0.3,0,0.5-0.5,0.8-1c0.5-1,0.8-1.3,1-0.3c0,0.8,1.8-2.5,1.8-3.5c0-0.3,0.3,0,0.5,0.5
			c0.8,1.8,0,0.3,1-1.3c0.3-0.5,0.5-1,0.5-1.3c0-1,0.5,0,0.5,1s0.8,4.6,1-4.8c0-1.8,1.3,0.8,1.5,3.3c0.3,1.5,0.8,1.3,0.8-0.3
			c0-7.1,1.8-4.8,1.3-3.8s1,4.3,1.3,5.1c0,0.3,0-1,0-3c-0.3-2.8,0.3-5.6,0.5-3.3s0.5,3,0.8,3.8c0.3,0.5,0.5,1,0.5,1.3s0,0.5,0.3,0.5
			c0.3,0.3,2,4,2,4.6c0,0.8,1.8,5.3,2.5,6.3c0.3,0.5,0.8,1.3,1,1.5c0.3,0.3,6.1,8.1,6.1,9.9c0,0,1.5,3.3,1.8,4.8
			c0.3,2,0.5,0.3,1,3.3c0,1,0.3,2,0.5,2c0.5,0.3,0.3,1.3-0.3,1.3c-0.3,0-0.3,0.3,0.3,0.5c0.8,0.8,0.8,10.4-0.3,14.2
			c-0.3,1,0.8,0.8,0.8-0.8c0-0.5,0.3-1.5,0.5-2c0.8-2,1.3-10.1,0.5-11.1c-0.3-0.5-0.3-4.6-0.8-5.6s-1.5-5.1-2-6.1
			c-1.5-2.8-2.8-5.3-2.8-5.3c-1-2.3-0.8-0.8-2.3-3.5c-1-1.8-2.5-3.5-2.5-3.5c0-0.3-1.5-2.3-1.3-2.8c0-0.3,0-0.5-0.3-0.5
			s-0.5-0.5-0.8-1c-0.5-1.5-1-0.5-1-1.8c0-0.5-0.3-0.8-0.3-1c-0.3-0.3-1.3-3-1.5-3.5c0,0-0.3-0.5-1-2.8c-1-3.8-0.5-3.8,0.8-0.3
			c0.3,1.3,1.3,3.3,1.8,4.6c1.5,3.3,0.8,3.3,1.5,3.5c1,0.3,1,2.5,1.8,3.3c0.5,0.5-0.3,1.3,0.3,1c0.5-0.3,0,0,1.3,1.3
			c1.3,1.5,1.5,2,3,3.8c2.3,2.8,6.3,11.1,6.1,12.7c0,0.3,0,0.5,0.3,0.8c0.5,0.5,0.5,1.5,0.8,2.3c0.5,1,0.8,4.3,0.5,4.3
			s0,0.5,0.3,1.3c0.8,1.5,1,12.7,1.8,11.6c0.3-0.3,0.5-16.5-1.8-20.8c-0.8-1.8-0.5-2.5-1-3c-0.3-0.3-4.3-8.1-5.6-9.4
			c-0.5-0.5-1.5-2.3-1.8-2.3s-0.3-1-0.5-1c-0.5,0-0.3-1-0.5-1s-1-2.3-1.3-2s-1-0.8-1-1.5c0-0.3,0-0.5-0.3-0.5
			c-0.8-0.3-1.8-4.3-2.5-4.8c-1.3-1.3-2.3-6.3-1.8-5.3c0.3,0.8,2.8,3.3,2.8,4c0,0.8,0.5,0.3,0.5,1c0,0.3,0,0.5,0.3,0.5
			s0.5,0.5,0.8,1.3c0.5,2,2,3.3,2.5,5.1c0.3,0.5,0.8,1.5,1.3,2c2.3,2.3,5.8,8.6,5.6,9.6c0,0.3,0,0.5,0.3,0.8c0.5,0.3,2.3,4,2.3,5.1
			c0,1.3,0.5,1,1.3,3.5c0.8,2.8,1,2.5,1.3,4.6c0.3,2.5,0.5,1.5,0.8,5.1c0.3,4.8,0.5,3.8,0.5,14.7c0,8.1,0.3,9.6,0.8,9.1
			c0.3-0.3,0.3-5.6,0.5-14.7c0-2,0-3.5-0.3-3.8s-0.3-1.5,0.3-1.8c0.3-0.3,0.3-0.3,0-0.5c-0.5-0.3-0.8-6.8-0.5-7.1
			c0.3-0.3,1,4.3,1.3,5.6c0.3,1-0.8,0.5,0,1.3c0.3,0.3,0.5,0.8,0.3,0.8c-0.3,0.5-0.5,14.9-0.3,15.2c0.3,0.5,0.3,2.3,0.8,4.6
			c0.5,2.5,0,18.2,0,18.7c0,0-0.3,20.8,0.5,27.8c0.3,2.3,0.5,10.4,0.8,10.6c0.3,0.3,0,4.3,0.5,4.8c0.3,0.5,1.3,4.8,1,5.1
			c-0.3,0.5-0.8,0.3-0.8-0.3c0-0.8-1-0.8-1-1.3c0-1-1-0.8-0.8-2c0-0.5,0-0.8-0.3-0.8s-0.3-0.3-0.3-0.3c0-0.3,0-0.8-0.3-1.3
			s-0.3-1.8-0.5-2.5c-0.3-2.3-0.8-0.5-0.5-2c0-0.5,0-1,0-1.3c-0.3,0-0.3-0.3-0.3-0.5c0-0.3,0-0.5,0-0.8c-0.8-1.5-1.3-20.5-0.5-20.8
			c0.5-0.3,0.5-1,0-1.8c-0.3-0.5-0.3-0.8-0.3-1.3c0.3-0.5,0.3-0.8,0-1c-0.3-0.5-0.8-9.1-0.5-9.6s0.3-5.6-0.3-6.6
			c-0.3-0.5,0-0.5,0.5-0.5c1-0.3,0.8-0.5,0.5-1.8c0-1.3-0.8-1.3-0.8,0.3c0,1,0,1-0.3,0.5c-0.5-1.3,0.5-1,0.3-2.8
			c-0.5-4.3-0.5-12.1-1-12.7c-0.8-0.8-0.3,12.4-0.8,13.7c0,0.3,0,0.5,0,0.5c0.3,0,0.3,2.5,0.3,5.8c0,4.6,0,5.8-0.3,5.8s-0.3,0,0,0.3
			c0.8,0.5,0.5,11.1,0.8,11.9c0.3,0.5-0.5,0-0.5-0.8c0-0.5-0.3-0.5-0.5-0.5c-0.3,0.3-0.5,0.5-0.3,1.3c0.3,1.3,0.5,1.3,0.8,0.8
			s0.5,0,0.5,1.5c0,3.8,1,12.1,1,18.7c0,2.3,0.3,4,0.3,4s0.3,0.8,0.3,1.8c0,2.3,0.5,3,0.8,5.1c0.3,2,0.8,3.5,0.3,3.5
			c-0.3,0-0.3-0.5-0.3-1s-0.3-1-0.8-1.3c-1.3-1,0.8-0.8-0.5-1.5c-1-0.5-0.8-1.8-1.5-5.1c-0.5-1.5-0.5-1.8,0-2.3
			c0.5-0.8,0.3-2.5-0.5-2.8c-0.8-0.5-0.3-0.8-0.8-2.5c-0.3-1.8-0.3-3.8-0.8-8.4c-0.5-4-0.5-14.7-0.8-15.2c-0.5-0.8,1.5-2.8,0.3-2.8
			c-0.3,0-0.5-0.3-0.3-0.5c0.3-0.3,0.3-1.5,0.3-3c-0.3-2.3,0-2.3,0.5-2.5c0.5-0.3,0.8-0.3,0.5-1c-0.3-1-0.8-1.8-0.8-0.8
			c0,1.3,0,1.5-0.3,1c-0.5-1,0.5-3.3,0-4c-0.3-0.3-0.3-0.5,0-0.5c0.3-0.3,0.3-5.1,0-6.1s0.8-2,0.3-2.3s-0.3-9.6-0.5-9.9
			c-0.8-0.8-1,12.4-1,13.4c0,4-0.3,5.3-0.3,5.3c0.3,0.3,0.3,14.2,0.5,14.4c0,0,0,0.5-0.3,0.8s-0.3,0.5,0,0.8c0.5,0.5,0.5,3.5,0,3.8
			c-0.3,0.3-0.3,0.3,0,0.8c0.3,0.3,0.3,1,0.3,1.5s0,1,0.3,1s0.3,0.3,0,0.5c0,0.3,0,1,0,1.3c0.3,1-0.3,2.8-0.3,2
			c0-0.5-0.3-0.5-0.3-0.3c-0.5,0.5-0.3,3.3,0.5,3.3c0.3,0,0.5,0,0.5,0.5c0,1,1,8.9,1,9.1c0.5,0.8,1.5,10.4,2.3,14.2
			c0.5,2,0.8,3.8,0.5,4c0,0.3,0,0.8,0.3,1c0.5,0.8-0.3,1.3,0.5,1.5c0.3,0,0.5,0.3,0.5,0.5c-0.3,0.8,0,1,0.5,0.8
			c0.8-0.8-0.5-1.8,0-2.5c0.5-0.5,0.8-1.8,0.5-2c-0.3-0.3,0-2,0.3-2s0.8,4,0.8,6.3c0,2,1.3,2.3,1.3,0.3c0-1.5,0.5-4.8,0.8-5.6
			c0-0.3,0-0.5,0-0.8c-0.3-0.3-0.5-1,0-1s1.3,2.8,1.5,5.6c0.3,4.6,1.3,5.3,1.3,1c0-1.3,0-2.5,0.3-3.3c0.3-2.5-2-8.4-2-11.1
			c0-1.5-0.5-0.3-0.8-2.8c-0.3-2.8-0.3-0.8-0.5-3.8c-0.3-3.3-0.8-1.8-0.8-5.6c0-4-0.8-4,0-3.8c1,0.5,0.8-1.3-0.3-2.5
			c-0.3-0.3-0.3-1.5-0.3-3.5c0-0.8-0.3-11.1,0.3-11.6c0.3-0.3,0.3-0.5,0.3-0.8c-0.3-0.3-0.3-2.3-0.3-4.3c0.3-7.3,0-20-0.3-22.5
			c-0.3-1.8-0.3-2.5,0.3-2.5s0.8,1.5,0.5,2.5c0,0.5,0,1,0,1c0.5,0,0.3,1.8,0.8,2.3s0.5,3.5,1.3,6.1c0.8,2.5,0.5,2.5,1,4
			c0.3,1.5,0.3,1.8,1,3.5c0.8,2,0,2,0.5,2.3c0.8,0.3,0.3,0.8,1.3,2c0.5,0.5,2,3,4,3c0.8,0,1,0,1,0.5c0,0.3,0,0.5,0,0.5
			c0.5,0,0.5,2,0,3c-0.3,0.8-0.5,0.8-1.3,0.5l-1-0.3c0,1,0,6.1,2,6.1c1,0,0.5,1,1.3,1c0.5,0,2,1.8,2,2.5c0,0.3,0.3,0.8,0.8,1.3
			s0.8,1.3,0.8,1.8c0,0.8,0.8,1.8,1,1.3c0.8-5.8-2.8-14.2-1-14.2c0.8,0,0.5,0.8,0.8,2.5c0.3,1.8,0.8,11.1,1.5,12.4
			c0.5,0.8,0-4.6-0.5-12.7c-0.3-3-0.3-2.3-0.5-4.3c-1-8.4-2.3-8.4-1.8-5.3c0.5,1.8,0.5,2.3,0.8,4.8c0.3,2,0.3,2-0.5,1.5
			s-1.3-2.8-0.8-3.3c0-0.3,0-0.5,0-0.5c-0.3,0-0.5-0.8-0.5-1.5c-0.8-5.6-3-8.9-1.8-5.1c0.8,2.8-1.5,0.3-2-2
			c-0.5-1.5-1.3-4.3-1.5-5.3c-0.3-0.8-1,0.8-1,0s-2.3-3.5-1.5-4.3c0.3-0.3,0.3-0.5-0.3-0.8c-0.3-0.3-0.8-1-1-1.8c-0.5-2-1-1.8-0.8-3
			c0.3-1.3-0.5-0.8-0.3-1.5c0.3-0.8-0.5-0.3-0.5-0.8c0.3-1-1-2.3-0.8-3c0.3-0.8-1-1.8-0.8-2.3c0.3-0.3-0.8-3.8-1.3-3.8
			c0,0-0.5,0-0.8,0c-0.5,0-0.5,3.5,0,4.3c0,0.3,0,0.3-0.3,0.3c-0.8,0-0.5,1-0.3,1s0.3,2,0,3c-0.3,0.8-0.3,1.5-0.8-5.1
			c0-0.8,0-2,0.3-2.5s0.3-0.8,0-0.8s0-3,0-3c0.3,0,0.5-10.6-0.3-11.6c-0.3-0.5,0-4-0.5-4c-0.3,0-0.8-4.6-1.3-4.6s-0.3-1,0-1
			s2.5,6.6,3,8.9c0.3,1.3,1,1.3,0.8,0.3s-0.8-5.3-0.5-5.8c0-0.3,0-0.5-0.3-0.5s-0.5-4-1-4.3s0.8-1,0-1c-0.5,0-0.3-1-0.5-1.3
			c-0.3,0-0.8-1.3-1.5-2.8c-1.8-3.8-1.3-4.3,0.8-0.8c1,1.8,0,1.5,0.8,2.3c0.5,0.8,1.8,4,1.5,4.6c0,0.3,0,0.3,0.3,0.3
			c0.5,0,0.3,1.5,0.5,1.5c0.5,0,0.8,1.5,0.5,2c-0.3,0.3-0.3,3.3,0,4c0,0.3-0.3,1.3,0.5,1s0.5,1.8,1.3,1.8c0.3,0,0.3-3.3,0-3.8
			s-0.5-3.3-0.3-3.5c0,0,0.3,0.3,0.5,0.8c0.3,1.3,0.8,1,0.8-0.3c0-1-0.5-1.8-1.3-1.5c-0.3,0-0.5-0.3-0.5-1.3c0-0.8-0.3-1.8-0.5-2
			c-0.3-0.5-0.3-1-0.3-1.3c0-0.5-0.8-2.3-1-3.3c-0.3-1-0.8-0.5-0.5-1.3s2,3.5,2.5,4c0.3,0.3,0.3,0.5,0.3,0.8s0.3,1,0.5,1.8
			c0.3,0.8,0.8,1.8,0.8,2.3c0.3,1.3,1,1.3,0.8,0c0-0.5,0-1,0.3-1s0.3-0.3,0-0.5c-0.5-0.3-0.5-3-0.8-3c-0.3,0.3-0.8-1-0.5-1.3
			s0.8,0.3,1,1.3c0,0.5,0.5,1.3,0.5,1.5c1.3,1.5,2,3.5,1.5,4c-0.8,0.5-0.5,1.8,0.3,2.5c0.5,0.5,0.5,0.3,0.3-0.8
			c-0.3-1.3,0.3-1.8,0.5-0.8c0.3,0.5,0.8,0.8,0.5,0c-0.5-2-0.3-3,0.5-1.3c0.5,1,1.8,3.5,2.3,4.8c0.3,0.5,0.5,0.8,0.8,0.8
			s0.3,0.3,0.3,0.3c0,0.3,0.3,0.8,0.8,1.5c0.5,0.5,1,2,1.3,3.3s0.8,2.3,1,2.5c0.3,0.3,0.5,0.8,0.5,1.3c0.3,1.3,0.8,0.3,1,2
			c0,0.8,0.5,1.5,0.8,1.8s0.5,0.8,0.5,1c0,0.8,1.3,2.8,1.3,3.5c0,1.3,3,6.3,2.8,7.3c-0.3,0.8,0.8,0.5,0.8,1.3c0,1,0.5,0.5,0.5,2
			s1,1.5,0.8,2.5c-0.3,0.5,1,2.3,1.3,2s0.8,1.5,0.8,2.5s1,1,1.8,3.3s1,2.3,1,3.3s0.8,1,1.3,2.5c0.5,1.8,0.8,1.5,0.8,2.3
			c0.3,1,0.8,0.5,0.8,2.3c0,0.5,0,1,0.3,1s0.3,0.3,0.3,0.5s0.3,0.5,0.5,0.8c0.3,0.3,0.5,0.8,0.8,1.3c0.3,1.5,1.5,3.3,1.8,4.3
			c0.3,1.5,2.5,4.6,1.3,4.6c-1,0-1.3,2-0.5,3.3c0.5,0.5,1,1,1,1c0.5,0,0.5,1.8,1,2c0.8,0.3,0,1,1,1h0.8c-0.8,0.3-2,0.8-1,1.8
			c0.3,0.3,0.5,0.8,0.3,1.3c-0.3,0.8,0.8,2,1,1.8c0,0,0.5,0.3,0.8,1c0.3,0.8,0.8,1,1,1c0.5,0,1.8,1.5,1.8,2s-0.5,1-1,1
			s-0.8,1.5-0.3,2c0.3,0.3,0.3,0.3,0,0.5c-0.8,0.5,0.8,2.3,1,2c0.5-0.5-1,2.3,0.3,3c0.3,0.3,0.3,1,0.5,2c0,13.4,0.3,12.9-2,13.4
			c-0.8,0.3-2.5,1.5-2,1.5c0.3,0,0,0.3-0.3,0.5c-2.3,2.8-0.3-6.3-0.5-9.9c-0.3-4-0.3-5.8,0-5.8s0.3,0,0-0.3
			c-0.8-0.5-1.5-8.6-2.5-7.8c0,0,1,6.6,0.8,7.1c-0.3,0.3,0,0.8,0,0.8c0.3,0.3,0.3,3,0.3,8.4c0,4.3,0.3,7.8,0.3,7.8
			c1.3,0-2.3,1.8-3.8,2c-1,0-2,0.3-2.3,0.5c-0.3,0.3-0.8,0.3-1,0.3c-1.5-0.5-1.8,2-1.5-2.8c0.5-5.3,0-3.5,0.3-7.1
			c0-2.3-1.8-13.7-1.3-4c0.3,5.1,0,7.3,0.5,7.6c0.3,0,0.3,0.3,0,0.3s-0.3,1-0.3,2.5c0,3.8,0,4-1.3,3.8c-0.8,0-1,0-1.3,0.3
			c-0.3,0.5-0.8,0.3-4.3,0c-3-0.3-3.5-0.5-2-0.8c0.3,0,0.8-0.5,0.8-1c0.5-1.8,1.5-0.8,0.8-1.8c-1-1.3,0.5-3.5,0.5-2c0,1,1-0.5,1,0
			s-0.8,0.5-0.3,1.3c0.5,0.5,0,3.5-0.5,3.5c-0.3,0-0.5,0.3-0.5,0.5c0,0.5,2.5,0,1.8,0c-0.8-0.3-0.8-0.3,0-0.8c0.3-0.3,0.5-1,0.5-3.8
			c0-2,0.3-3.5,0.3-3.8c0.3,0,0.3-0.3,0-0.5c-0.3-0.3-0.3-0.5-0.3-0.5c0.3-0.5,0.5-2.8,0.3-2.8s-0.8-2-1-4.6c0-0.3-0.3-0.3-0.3-0.3
			c-0.3,0-0.3,3.5,0,5.8s0,3-0.8,2.5c-1-0.8-1.3,0.3-1-0.5c0-0.3,0-0.5,0-0.8c-0.3,0-0.3-1-0.3-2c0.3-2.8-0.5-2.3-1-5.3
			c-0.5-5.1-1,0.8-0.3,5.8c0.5,3.3-0.8,4.3-0.8,2.8s-1.5-0.8-1.5-3c0-2.8-2.5-15.9-2-7.3c0.3,4.3,0.3,6.3,0.5,6.8c0.3,0.3,0.3,3,0,3
			s-0.3-0.3-0.3-0.5c0-0.3,0-0.5,0-0.8c-0.5-0.3-1.5-2.8-1.5-2.8c0.3-0.3-1.3-8.1-1.8-8.6c-0.3-0.3-0.5-1.5-1-2.8
			c-0.8-2.3-0.8-2.3-0.8-1c0,0.8,0,1.3,0.3,1.5c1.3,1,2,12.1,2,13.2l-0.8-1.5c-1-2.3-0.3-1.3-0.8-3.3c-0.3-1.3-1.3-9.4-2-10.1
			c-0.5-0.5,0.3,5.8,0.5,13.2c0,2.5,0.8,3,0.3,3s0-1-0.8-2s-1.8-4.8-1.3-4.6c0.5,0.3,0.8-1.3,0.5-2.3s-0.8-1-0.8-0.3
			c0,0.3-0.3-0.5-0.3-1.5c-0.5-3.5-0.5-3-0.8-6.1c-0.5-7.3-1.3,0.5-0.5,4.6c0.8,4.3,1,11.6,0.5,11.4c-0.3,0-0.5-0.5-0.5-1.3
			c0-0.5-0.3-1.3-0.5-1.5c-0.5-0.5-1-2-1.5-5.6c-0.5-3.8-0.5-2.5-1-6.6c-0.8-4.3-1-3.8-1.3-15.9c-0.3-12.1-1,4-0.5,9.9
			c0.3,1.5,0.3,5.6,0.8,9.9c0.5,4.3,0.5,5.6,0.8,6.3c0.5,0.8,0.3,0.5,0.5,1.8s-0.5,1.8-0.3,1c0-0.5,0-0.5-0.5-0.5c-1,0-1,1-0.3,3.5
			c0.3,1.3,0.8,2.8,0.8,3.3c0,1,0.8,2,1,1.3c0-0.3,0.3,0.5,0.3,1.8c0,2.5,0.3,3,0.8,3c0.8,0,0.3-2.3,0.8-3c0.8-0.8,0.3-6.6,0.8-6.1
			c0.3,0.3,0.3,2.5,0.5,4.8c0.3,2-0.8,1.8-0.3,2.5c0.3,0.3,0.3,0.5,0.3,1c0,2,1,0.3,1.3-2.3s0.8-1.8,0.5-1.3c-0.3,1,0.8,2.3,0.8,0.5
			c0-0.5,0-0.8,0.3-0.5c0.3,0.5,0.3,4.6-0.3,4.8c-0.5,0.3,0.3,0.8-0.5,0.8c-4.6,0.3-2.5,0.8-5.6,0.8c-1,0-1.8,0-1.8,0.3
			s-2,0.3-2.3,0c0,0-2.5-0.3-2.8-0.5c-0.5-0.3-4.8-1.5-4.8-1.8s-0.5-0.5-1-0.5c-0.8-0.3-1-0.5-1-1.5c0-0.5,0-2-0.3-3.3
			c0-2.3,0.5-3.3,1-1.5c0.3,1.5,0.8,2,0.8,3.3s0.8,3,1.3,2.5c0.3-0.3,0.3-0.5,0-1c-0.5-1.3,0.8-0.5,0.5-1.5c-0.5-1.3-0.3-4.6-1-5.6
			c-1.5-1.3-1-4-1.5-5.3s-0.3-6.1-1-6.6c-0.5-0.5,0.3,0-0.3-0.8c-0.5-0.8-0.3-4.3-0.8-5.3c-0.5-1.5-0.8-7.6-1-11.1
			c-0.5-9.1-0.3-21-0.3-21c-0.5-1.3,0.8,0,0.5-1.5c0-0.5-0.3-1-0.3-1c-0.3,0,0-9.4,0.3-9.6c0.3,0,0.3-0.5,0-1c-0.3-1-0.3-3.3,0-5.6
			s0.5-4.6,0.8-4.8c0.3,0,0.3-0.5,0.3-1s0-1.8,0-3c0.5-4-0.3-6.8-1,1.8c-0.3,1.8-0.5,1.3-0.5,2.8c0,1.3-1,7.3-1,9.4
			c0,1-0.5,2.8-1,2.8c-0.3,0-0.3,0.3,0,0.5c0.8,0.8-0.5,19.2-0.3,22c0.3,4.3,0.3,7.3,0,7.3c-0.3,0.3-0.3,0.5,0.3,1
			c0.3,0.5,0.5,2,0.5,4.3c0,1.8,0.3,3.3,0.3,3.3c0.3,0,0.5,0.5-0.3,0.5c-1.3,0,0.3,0.5,0.5,2c0.5,2.5,0.8,4.6,0.8,5.1
			c0,1.3,0.3,2.5,0.5,2.8c0.3,0.5,0,1.8,0.5,3.3c0.3,1.5,0.3,2,0.8,3.8c0.3,0.8,0.3,1.3,0.3,1.5s0,0.5,0,0.8c0.3,0.3,0.5,1,0.8,1.8
			c0.5,1.8,0,2.3-0.8,0.8c-0.8-2-1.5-2-1.3-3c0-0.5,0-1-0.3-1.5c-0.5-1-1.3-4.8-1-5.1s-1-0.8,0-1.3c0.3-0.3,0.3-0.3,0-0.5
			c-0.5-0.3-1.3-5.1-1.8-13.4c-0.5-5.1-0.5-16.5-0.3-16.5s0.3-0.3,0-0.5c-0.5-0.5-0.5-4.6,0-4.8c0.3,0,0.3-0.5,0-0.8
			c-0.8-1,0.8-1.5,0.3-1.8s-0.3-3.3,0-12.9c0-5.1,0.5-12.7,0.3-12.7c-0.3,0-0.8,1-0.5,1.3c0,0,0,1.5-0.3,2.8
			c-0.8,6.3-0.5,9.9-1.3,10.4c-1,0.8,0.8,0.3,0.5,1.8c-0.5,3-0.5,20.5-0.8,22.8c-0.5,2.5,0.8,1.3,0.5,4.6c0,2.5,0.5,3.5,0,3.5
			c-0.3,0-0.3,0-0.3,0.3c0.3,0.5,0.5,2.5,0.5,5.1c0,3.5,0.5,1,0.5,4.6c0,4,0.5,1.5,0.8,6.8c0,2,0.5,1.3,0.5,3.5
			c0.3,4.3,2.8,13.2,2,13.2c-2.3,0-0.5-5.8-2-7.1c-1-1-0.5-2.5-1-4c-0.8-2.3-1.8-8.9-1.5-9.4c0.3,0,0-0.3-0.3-0.5
			c-0.8-0.5-0.5-2.8-1-3.5c0-0.3,0-0.5,0.3-0.8c0.5-0.3,0.3-1.8,0-2.3c-0.3-0.3-0.3,0-0.8-10.9c0-1.5,0-2.5,0.3-2.5s0.3-0.3,0.3-0.5
			c-0.5-0.8-0.5-7.8,0-9.1c0.3-0.8,0.5-1.3,0.3-1.5c-0.3-0.3-0.5,1.3-0.8,1.3s-0.3,0,0-0.3s0.5-6.1,0.5-6.8c0-0.8,0-2.5,0-3.8
			s1-1,0.3-1.5c-0.5-0.5-0.5-2,0-2.5s0.5-1,0-1s-0.5-5.6,0-6.1c0-0.3,0-0.5,0-0.5c-0.3,0-0.3-1-0.3-2c0.3-3-0.5-3.3-0.8-0.3
			c-0.3,4-0.5,4.3-0.5,6.6c0,1-0.3,2-0.3,2.3c-0.3,0.3,0,0.5,0,0.5c0.5,0,0.5,0.8,0,0.5c-0.3,0-0.3,1-0.3,2.5c0,1.8-0.3,3-0.5,3.3
			c-0.3,0.3-0.3,0.5,0,0.5s0.3,3,0,4c0,0.3,0,0.8,0,0.8c0.3,0.3,0.3,1.3-0.3,2.3c-0.5,1,0.3,1,0.3,6.1c0,11.4,0.5,13.2,0.8,18.2
			c0,6.8,0.5,1.8,1,8.9c0.3,1.3,0.5,1.8,0.5,3.8c0.3,2.8,0.8,5.1,0.3,5.3c-0.8,0.5-1.3-5.8-1.5-6.3c-0.5-0.8,0-4.6-0.8-4.8
			c-0.5-0.3-0.3-2.3-0.8-3.5c-0.5-1.5,0.8-1,0-1.8c-0.3-0.3-0.5-0.5-0.5-1c0-1-0.5-8.6-0.5-8.9c-0.3-0.3,0.5-2.5,0.3-2.5
			s-0.3-5.6-0.5-6.3c0-0.3,0-0.5,0.3-0.8c0.3,0,0.3-0.3,0.3-0.5c-0.5-0.8,0.3-16.7,0.3-25.6c0-2.8,0-2.8,1-2.8c0.3,0,0.3,0-0.3-0.5
			c-0.3-0.3-0.8-0.5-0.8-0.5c-0.5,0-0.3-5.8,0.3-7.1c0.5-1.3,0.8-2.8,0.8-4.6c0-0.5,0-0.8,0.3-0.8c0.8,0-0.5-4-0.5-7.1
			c0-0.5-0.8-1.8-0.8,5.6c-0.3,9.9-0.8,3.3-1.3,12.9c0,1.8-0.3,3.5-0.5,3.8s-0.3,0.8-0.3,1c0.3,0.5-0.5,3-0.5-0.5c0-3.3,1-3,0.3-3.5
			c-0.5-0.5-0.5-1.8,0.3-5.1c0.5-2.5,0.8-7.8,0.3-10.1c-0.5-3-0.8-2.8-0.8,2.3c0,3,0,3-0.5,2.3c-0.3-0.5-0.8-1-1-1
			c-0.5-0.3-0.5-1.3,0-1.3c1,0,1-1.5,0-0.5c-0.8,0.5-0.8,0.3-1-1.3c-0.3-1.8-0.5-3.3-0.8-3.3c-0.3,0.3,0.3,5.1,0.5,6.1
			c0,0.3,0,0.5-0.5,0.5s-0.8-0.3-1-2.3c-1-6.3-1.3-6.6-1-2.3c0.3,6.1,0.3,9.4,0.5,12.9c0.3,3.3-0.5,2.5-0.5,1c0-1.3,0-0.8-1-10.1
			c-0.8-5.8-0.8-5.6-0.8-6.6V114c-0.3,0.8-0.5,1.3-0.5,3.5c0,1.3-0.3,2-0.5,2c-0.3,0-0.3,0.3,0,0.5c0.5,0.8,0.5,3.3,0.5,3.5
			c0.3,0.3,1.3,8.4,0.8,8.4c-0.3,0-0.3-0.3-0.3-0.5c0-0.8-0.8-1.3-1-0.8c-0.3,0.5-0.3-1.8-0.3-2.8c-0.8-9.6-1.3-9.4-1.3-14.2
			c0-1.3-0.3-1.8-0.3-1.5c-0.3,0.3-0.5,9.1-0.3,9.9s0.5,6.3,0.8,7.6c0.5,1.3,0.5,5.1,0,5.1c-0.3,0-0.3,0.3,0,0.5
			c0.3,0.5,0.3,4.8,0,4.8s-0.3,0,0,0.3c0.5,0.3-0.3,0.8,0,1.5s-0.8,1.3-0.3,1.5c0.8,0.3-0.8,0.8,0,1.5c0.8,0.8,0,6.1,1.3,7.6
			c0.5,0.5,0.5,0.8,0.3,1.5c-0.5,1,1.3,1.3,2.3,0.3c0.3-0.3,0.8-0.5,1-0.5c0.3,0,0.3,0,0.3,0s0-0.8,0.3-1.5s0.5-1.8,0.3-2.8
			c-0.3-3-0.5-11.9-0.3-12.1c0.3-0.3,0.8,1,0.8,3c0,2.3,0.3,4.6,0.3,7.1s0.8,1.3,0.5,0.8s0.5-1.5,0.3,1.8c-1,12.1,0.3,12.1-1.8,12.4
			c-0.8,0.3-1.3,0.5-1.3,1c-0.3,0.8-0.8,1-0.8,0.3c0-0.3-0.8-0.3-0.3,0.8c0.5,1,0.5-0.5,1,0.3c0,0.3,0,0.5,0,0.5
			c-0.5,0.3,0.5,4.8,1,4.8c0,0,0.3,0.3,0.3,0.5c0,0.8,1,4,1.3,4.6c0.5,0.5,0.3,6.3,0.8,6.8c0,0,0.3,0,0.3-0.3c0-1,0.5-0.5,0.5,0.5
			c0,1.8-0.5,0.5-0.5,1.3c0,1,0.8,0,0.8,0.8c0,1,0.5,2.5,0,1.8c-0.5-0.8-0.3,0.5,0,0.5s0.5,1.8,0.8,3c0.5,1.5-0.8-0.8-0.8,0.5
			c0,0.3,0.3,0.8,0.5,1c0.3,0.3,1,3.3,1.3,6.3c0,0.3,0.3,1,0.5,1.5c1,2.5,0.8,4-0.5,2.8s-0.8-2.8-2.3-6.8c-0.5-1.5-0.8-5.1-0.5-5.1
			s0.3-0.3,0.3-0.5c0-0.3,0-0.5-0.3-0.3c-0.5,0.3-1-0.8-1-3.3c-0.3-3.8-0.5-2.5-1-3.8c-0.3-0.8,0.3,4.8,0.3,6.3
			c0,0.5,0.3,1.3,0.3,1.5c0.3,0.3,0,0.5,0,0.5c-0.3,0-0.3,0.8,0.3,1.5c0.8,2.5,1.8,7.6,1.8,9.1c0,0.5,0,0.8,0.3,0.8
			c0.5,0,0.8,1.3,0.3,1.8c-0.8,0.8-0.3,1.8-0.8,0.8c-0.3-0.3-0.3-0.8-0.3-1c0-0.3,0-0.5,0-0.5c-0.5-0.5-0.5-3.3-1.8-7.3
			c-0.3-1-0.3-4.6-0.8-4.8c-0.3-0.3-0.3-1.8,0.3-2.3c0.3-0.3,0.3-0.3,0-0.3c-1,0-1-5.1-1.3-5.6c-0.5-0.3-0.3-2.3-0.8-1.8
			c-0.5,0.3,0,1,0.3,4.6c0.5,7.1,1.3,7.6,0.8,8.6c-0.3,0.3-0.3,0.8,0,1c0.3,0.3,0.5,1.5,0.8,3s0.5,2.8,0.5,2.8
			c0.8,0.5,1.3,4.3,0.8,5.1c-0.8,1-0.3,0.8-1-2.3c-0.5-2.3,0-1.5-0.5-2.8c-0.3-0.5-0.3-1.3-0.3-1.5s0-0.8,0-1
			c-0.5-0.5-1.8-8.6-1.8-9.1c-0.3-1.8-0.8-4.6-0.5-5.1s-0.5-0.3-0.5-0.8c0.3-1.8-1-8.1-1.5-8.1c-0.3,0,0,3.8,0.3,4.6
			c0.3,0.5,1,9.4,0.8,9.6c0,0.3,0,0.3,0.3,0.3s0.3,0.8,0.3,2c0,1,0.3,2.5,0.5,3.3c0.3,1.3,1,5.8,1.3,6.1c0.5,0.8,0,4.8,1,5.6
			s-0.8,0.5-0.3,1.3c0.5,0.5,0.8,2.8,1.8,3.8c2,2.5-1.8,2.8-1,0.3c0.3-1.3-0.5-0.5-1-3.8s-1.3-5.6-1.3-6.8c0-0.5-0.3-1.3-0.5-1.8
			c-0.3-0.8-0.8-3.3-1.3-6.1c-0.3-1.5-1.3-5.3-1-6.1c0-0.3,0-0.8-0.3-0.8s-0.3-0.8-0.3-1.8c0-1.5-0.8-5.6-1-5.8
			c-0.3-0.3,0,10.4,0.3,10.9c0.3,0.3,0.3,2.5,0.5,3c0.5,0.8,0.5,1.8,0.3,1.8s-0.5,0.3-0.5,0.3c-0.3,0.8-1.8-8.6-1.5-9.6
			c0.3-0.8-0.3-1-0.8-0.5c-0.5,1-3-0.8-2.3-1.3c0.3-0.3,0.3-0.5-0.3-0.8c-0.3-0.3-0.5-0.8-0.3-1.8c0.3-2-0.5-0.3-0.5-2.5
			c0-2.8-1.3-6.1-0.8-7.1c0.8-1-1-1-0.3-1.8c0.5-0.8-0.3-0.5-0.5-3c0-0.3-1.8-8.9-1.3-11.1c0.3-1.5-0.8,0-0.8-2
			c0-1.8-0.5-8.4-0.8-10.1c-0.8-7.1-0.8-5.6-1-9.4c0-1.5-0.3-2.8-0.3-2.8c-0.3-0.3-0.5-4.8-0.3-5.3c0-0.3,0-0.3,0-0.5
			c-0.5-0.3-0.5-17.2,0-17.5c0,0,0.3-0.5,0-0.8c-0.3-0.8,0.8-3.5,1.3-3.3c0,0-0.5,18.2,0.5,22.8C71.7,128.3,69.7,126,70.7,128.6z
			 M126.1,150.6l0.3,0.8c0.3,0.8,0.8,5.1,1,7.6c0,1,0,1.3-0.8,1.3h-0.8C125.9,150.6,125.1,152.9,126.1,150.6z M124.9,203.5
			c-0.3-3.8,0.3-3,0.5-1C125.6,204.8,125.1,204.5,124.9,203.5z M118.8,203c0-1.5,0.3-1.5,0.5,0.3C119.6,204.8,118.8,204.8,118.8,203
			z M92.2,154.6c-0.3,0.3-0.3-4.6,0.3-6.8C92.7,145.5,92.2,154.4,92.2,154.6z M92.7,142.2c0,0,0,0.8,0,1.8s-0.3,2-0.3,2
			C92.2,145.8,92.5,142.5,92.7,142.2z M91.7,139.2c0-1.8,0.5-1.5,0.5-0.5C92.2,139.5,91.7,141.2,91.7,139.2z M92.5,161.5
			c0.3,6.6,0.3,7.6-0.3,6.6C91.7,166.8,92,145.5,92.5,161.5z M92.7,170.6c0,2,0.5,8.4,0.3,8.4s-0.3-1.3-0.3-2.3
			C91.7,168.8,92.7,167.8,92.7,170.6z M87.4,131.9c0.3,0,0.3,0.5,0.3,1.3C87.9,136.9,86.9,132.1,87.4,131.9z M85.6,131.4
			c0.8-0.5,0.3,0.5,0.5,2.3c0,0.3,0.5,5.8,0.3,5.8s-0.8-1.8-0.8-2.8c0-0.5-0.3-0.8-0.3-0.8c-0.5,0-0.5-1.3,0-1.3
			C86.4,134.7,84.6,132.1,85.6,131.4z M70.7,80v0.8c0.3,1-0.5,2-0.8,1.3C70,81.5,70.5,80.5,70.7,80z M53.2,115.4
			c0-0.3,0.3-0.8,0.3-1c0.3-1,1.3-0.5,0.3,0.8C53.5,115.7,53,115.9,53.2,115.4z M50,123c0.3,0,0.3-0.5,0.3-1c0-1.3,1.3,0,1.3-0.8
			c0-0.5,2-3,1-3c-0.5,0-0.3,0.5-0.5,0.5c-0.5,0,1-2.5,1-1.3c0,0.8,0.8,0.3,0.8-0.5c0-0.5,0.3-1,0.5-1c0.3,0,1.5-2.8,1.8-2.8
			c0.5-0.5-0.8-1.5-0.8,0c0,1.3-1,0,0-1.5c0.8-1,1-2.5,1-1.3c0,0.3,0,0.8-0.3,0.8c-0.5,0.3-0.5,0.8,0,0.8c0.3,0,0.3-0.3,0.5-0.5
			c0-0.3,0.8-1.5,1.5-2.8c2.3-4,1.5-3.5,7.1-11.4c0.5-0.8,1-1.5,1-1.5c0-0.3,0-0.3,0.3-0.5c1-0.5,4.6-7.8-1,0.8
			c-3,4.6-4.8,6.8-4.8,7.1c0,0.3-3,5.6-3.3,6.1c-1,1.3,0.8-3.3,2.8-7.1c0.8-1.5,1.3-2.5,1.5-2.5s0.3-0.3,0.3-0.5s0.3-1,0.8-1.8
			c1.3-2,2.8-6.3,3.5-7.3c1-1,0.3-3.5,2.5-1c1.3,1.5,1.5,2.8,0.8,2.8c-0.3,0-0.3,0.3-0.3,0.8s-0.3,0.8-0.5,1c-0.8,0.5-2,3.8-2,5.6
			c0,2.3-1.3,8.6-1,9.6c0.3,0.8,0.3,3.5,0.5,6.1c0.5,3.3-0.8,1.8-2,3c-0.3,0.3-0.8,0.5-1,0.5c-0.3,0-0.3,0-0.3,0
			c0.5,0.8-7.6,4-8.9,3.5c-0.3,0-0.5,0-0.5,0.3c0,0.8-0.5-0.5-1,0s-2.5,1.5-2.5,1.3C49.7,123.3,50,123,50,123z"/>
		<path class="st3" d="M105.6,216.4c-0.5,0.5,1.3,0,3-0.8c0.8-0.3,1.5-0.8,1.5-0.8C109.7,214.6,105.9,215.9,105.6,216.4z"/>
		<path class="st3" d="M107.9,214.1c0,0.3,0.3,0.5,0.3,0.5c0.5,0,0.3-1-0.3-1c-0.3,0-0.5-0.3-0.5-0.5c0-0.3-0.3-0.5-0.3-0.5
			C106.4,212.4,107.9,213.6,107.9,214.1z"/>
		<path class="st3" d="M140.3,198.9c0.5,0.5,0.8,8.1,0.3,9.4c-1,2,0.5,0.3,0.5,1.5c0,0.5,0,0.5,0.5,0c0.8-1,0.8-10.1,0-12.9
			c-0.8-3-0.3-4.3-0.8-4.3s0.3,3.5-0.3,3.8c-0.3,0.3-0.3,0.3,0,0.5c0.5,0.5,0.5,1.3,0,1.5C139.8,198.7,139.8,198.7,140.3,198.9z"/>
		<path class="st3" d="M146.4,195.1c0,1,0,2.8,0,4c0,1.5,0,2,0.3,2s0.3,0.3,0.3,0.5c-0.5,1,0.3,12.7,0.8,4.6
			c0.3-4.3,0.5-6.8,0.3-8.6c-0.3-0.8-0.5-2-0.5-2.8C146.9,192.6,146.4,192.9,146.4,195.1z"/>
		<path class="st3" d="M148.4,181c0,0.8,0,1.8,0.5,4c0.5,1.8,1,7.3,1,7.3c0.3,0.5-0.8,1.3-0.3,1.8c0.5,0.3,0.3,7.3,0,8.1
			c-0.3,0.3-0.3,0.5,0,0.8c0.3,0,0.3,1.5,0.3,3c0,2.5,0.3,3.5,0.8,2.5c0.5-1.5,0.3-7.6,0.8-7.3c0.3,0.3,0.8-0.5,0.3-0.8
			s-0.3-4-0.8-5.3c-0.3-0.5,0-0.8,0-0.8c0.3,0,0.3-0.3,0-0.5c0,0-1.5-8.9-2.3-11.6L148.4,181z"/>
		<path class="st3" d="M139.8,205.8c0.5-0.3,0.3-1-0.3-1.3C138.8,204.3,139.1,206.3,139.8,205.8z"/>
		<path class="st3" d="M156,204.8c1.3,0,0.8-12.7,1.3-13.2c0.3-0.3,0.3-0.8-0.3-0.8c-0.3,0-0.5-0.3-0.3-0.8c0.3-1.3-0.5-0.3-0.5-1.5
			c0-0.3-1.5-6.6-0.3,5.3C156,195.4,156,204.8,156,204.8z"/>
		<path class="st3" d="M139.3,191.9c0.3,0,0-2.5-0.3-2.8s-0.3,0.3-0.3,1.5C139.1,191.3,139.3,191.9,139.3,191.9z"/>
		<path class="st3" d="M145.6,183c0.8,3.3,0.8,5.1,1.3,7.3c1,4.8,0.3-3.5-1-9.6c-0.3-0.8-0.5-2.3-0.8-3.5
			C144.6,173.9,143.9,174.1,145.6,183z"/>
		<path class="st3" d="M135,190.3c0.3,0,0.3-0.5,0.3-1C134.8,185.8,134.5,190.3,135,190.3z"/>
		<path class="st3" d="M142.1,187.6c0.3,1,0.8,0.5,0.5-0.5C142.1,185.5,141.8,186.5,142.1,187.6z"/>
		<path class="st3" d="M142.9,184c1,4.8,1.3,3.3,1.3,3c-0.3-0.8-0.5-3.5-1.3-7.6l-1.8-11.4c-0.3-0.3,0,4.3,0.5,7.1
			C141.8,178.9,141.8,179.7,142.9,184z"/>
		<path class="st3" d="M129.7,185.8c-0.3-0.5-0.8,0-0.5,0.8C129.7,188.1,130.4,186.8,129.7,185.8z"/>
		<path class="st3" d="M111.2,183.8c-0.3,0.3,0,1.5,0,2.3c0,0.5,0.5,0.3,0.8-0.3C112.2,185.3,111.5,183.3,111.2,183.8z"/>
		<path class="st3" d="M135.8,183.5c-0.3,0-0.3,1,0,1.8c0,0.3,0.8,0,0.8-0.3C136.5,184.5,136,183.5,135.8,183.5z"/>
		<path class="st3" d="M140.3,181.5C140,181,140,181,140,182C140.1,184,141.1,183.3,140.3,181.5z"/>
		<path class="st3" d="M138.5,181.2c0.8,3,0.8,1.5,0-3.3c-0.5-3-0.5-3.3,0-3.3c1,0-0.3-3.5-0.3-1.5c0,1.8-0.3,0-0.8-4
			C135.3,148.8,136.3,171.4,138.5,181.2z"/>
		<path class="st3" d="M76.3,171.9c-0.3,0.5-0.5,1.5-0.3,2c0.3,0.8,0.5,5.8,0.8,7.3c0.5,2.8,1.3-1.8-0.5-8.6V171.9z"/>
		<path class="st3" d="M122.9,180.5c-0.3-1-0.5-0.5-0.5,0.8C122.6,182.7,123.6,182.7,122.9,180.5z"/>
		<path class="st3" d="M114.5,180.2c0,1.8,0.5,2,0.5-0.3C115,177.9,114.5,178.4,114.5,180.2z"/>
		<path class="st3" d="M130.4,181.5c0.3,0,0-2.3-0.5-2.5c-0.3-0.3-0.5,0.8,0,2C129.9,181,130.2,181.5,130.4,181.5z"/>
		<path class="st3" d="M127.9,180.2c-0.3,0-0.3-0.5-0.3-1c0-1-0.5,0-0.5,1C126.9,181.7,128.7,180.7,127.9,180.2z"/>
		<path class="st3" d="M151.5,178.4c-0.5-0.5-0.5,0.8,0,1.5C151.7,181,152,178.9,151.5,178.4z"/>
		<path class="st3" d="M149.2,179.5c0-0.5,0-1,0-1.3c-0.3-0.8,0-1-0.5-1s-0.5,1,0,2S149.2,180.2,149.2,179.5z"/>
		<path class="st3" d="M134.5,176.9c1,4.8,0.5-6.1-0.5-12.9c0-0.8-0.3-1.8-0.3-2.5c0-1.5-0.3-0.3-0.8-2.8c-0.8-3.8-1.3-3-0.5,1
			C133.7,167.1,134,174.1,134.5,176.9z"/>
		<path class="st3" d="M122.6,175.9c0,0.8,0,1.3,0.3,1.5C123.9,178.7,122.6,172.6,122.6,175.9z"/>
		<path class="st3" d="M78.1,172.4c-0.3,0,0,4,0.3,4.6c0,0.3,0.3,0,0.5,0C79.1,176.4,78.6,172.4,78.1,172.4z"/>
		<path class="st3" d="M121.1,176.2c0-0.5,0-1-0.3-1c0-0.8-0.8,0.3-0.8,1C120.3,177.4,121.3,177.4,121.1,176.2z"/>
		<path class="st3" d="M85.6,173.4c-0.3-1-0.5,0.3-0.5,1.8C85.4,177.4,86.7,177.4,85.6,173.4z"/>
		<path class="st3" d="M87.9,176.7c1.3,0-1.3-3.5-0.8-1.5C87.4,176.2,87.2,176.7,87.9,176.7z"/>
		<path class="st3" d="M146.1,173.6c-0.5-0.3-0.8,0-0.5,0.8C146.1,176.2,146.9,174.1,146.1,173.6z"/>
		<path class="st3" d="M149.9,173.6c-0.3-2-0.8-2-0.5,0C149.4,175.2,150.2,175.2,149.9,173.6z"/>
		<path class="st3" d="M126.4,174.1c0.3,0,0-2-0.3-2.5c-0.3-0.3-0.5,0.3-0.3,1.3C125.9,173.6,126.1,174.1,126.4,174.1z"/>
		<path class="st3" d="M132.5,172.6c0,0.8,0,1.3,0.3,1.3s0.3-0.8,0-1.8C132.7,171.4,132.5,171.4,132.5,172.6z"/>
		<path class="st3" d="M121.8,171.1c0-1.8-0.5-1.8-0.5,0C121.3,172.6,121.8,172.6,121.8,171.1z"/>
		<path class="st3" d="M76,171.1c0-0.3-0.3-0.8-0.3-1c0-0.3-0.3-0.5-0.3-0.5c-0.3,0-0.5,1.3,0,1.8C75.8,171.9,76.3,171.6,76,171.1z"
			/>
		<path class="st3" d="M80.3,167.6c0,1.8,0,3.8,0.5,3.8c0.8,0,0.8-0.5,0-2.3L80.3,167.6z"/>
		<path class="st3" d="M86.2,170.1c-0.5-0.5-0.3-2.3-0.8-2.3c-0.3,0-0.5,1,0,2.5C85.6,171.9,86.9,170.8,86.2,170.1z"/>
		<path class="st3" d="M146.4,168.1c-0.5-1-0.5-0.8-0.3,0.8S147.4,170.1,146.4,168.1z"/>
		<path class="st3" d="M123.4,167.6c-0.8-0.8-1,0-0.3,0.8C123.9,169.1,124.6,168.6,123.4,167.6z"/>
		<path class="st3" d="M76.8,164.8c-0.3,0-0.3,1.8,0.3,2.8c0.3,0.5,0.8,0.8,0.8,0.5C77.8,167.3,77,164.8,76.8,164.8z"/>
		<path class="st3" d="M83.6,168.3c0.5,0,0.5-2.3,0-2.8s0,1.8-0.3,2.3c0,0-0.3,0.3-0.3,0.5C83.1,168.3,83.4,168.3,83.6,168.3z"/>
		<path class="st3" d="M106.9,167.6c0,0.3,0.3,0.3,0.5,0.3C108.2,167.3,105.6,163.8,106.9,167.6z"/>
		<path class="st3" d="M142.3,165.5c-0.3,0.3,0,1,0,1.3C143.6,169.3,142.9,164.5,142.3,165.5z"/>
		<path class="st3" d="M114.5,165.5c0-0.5-0.5-0.8-0.3,0.8c0,0.8,0.3,1,0.8,1C116.3,167.3,114.5,166.3,114.5,165.5z"/>
		<path class="st3" d="M119.8,165.8c0-0.3-0.3-0.5-0.3-0.5c0-1-0.5-0.3-0.5,0.8C119.1,168.8,120.3,166.3,119.8,165.8z"/>
		<path class="st3" d="M79.3,166.3c0,0.8,0.5,0.5,0.8-0.3c0.3-0.5-0.5-2.5-0.8-3C78.8,162.7,79.3,165.5,79.3,166.3z"/>
		<path class="st3" d="M144.9,164c-0.3-1.3-0.3-1.3-0.5-0.3c0,0.5,0,1,0,1.3C144.9,166,145.1,165,144.9,164z"/>
		<path class="st3" d="M75.8,162.2c-0.3-0.3-0.3-0.8-0.5-1.5c-0.3-1.5-0.8-1.3-0.5,0.5c0,0.8,0.3,1.5,0.3,1.5c0,0.3,0.3,0.3,0.5,0.3
			C76,163,76.3,162.5,75.8,162.2z"/>
		<path class="st3" d="M81.6,162.5c0.5,0.5,0.8,0,0.5-2c0-0.3-0.3-0.3-0.3-0.3C81.3,160.2,81.3,162.2,81.6,162.5z"/>
		<path class="st3" d="M118,162c0.5,0,0.8-1.5,0.3-2c-0.3-0.5-0.8,0.5-0.8,1.5C117.5,161.7,117.8,162,118,162z"/>
		<path class="st3" d="M83.6,159.2c0,0.3,0,0.8,0,1c0,0.5,1,1,1,0.3c0-0.8-0.8-2.3-1.3-2.3C82.6,158.4,83.4,158.7,83.6,159.2z"/>
		<path class="st3" d="M78.3,158.2c0,0.8,0,1.3,0.3,1.5C80.1,161,78.3,154.9,78.3,158.2z"/>
		<path class="st3" d="M141.6,158.4c-0.5-1-0.8-0.8-0.5,0.5C141.3,160.2,142.1,159.7,141.6,158.4z"/>
		<path class="st3" d="M137.5,157.2c0,0.5,0,1,0.3,1.3c0.5,0.5,1-0.3,0.8-0.8c-0.3-0.3-0.3-1-0.5-1.3c-0.3-1.3-1.3-1-0.8-0.5
			C137.3,156.2,137.5,156.7,137.5,157.2z"/>
		<path class="st3" d="M141.8,156.7c0-1-0.5-1.5-0.5-0.3C141.3,157.7,141.8,157.7,141.8,156.7z"/>
		<path class="st3" d="M80.6,156.4c0.3,0,0.5-0.3,0.3-1c-0.3-1.5-0.8-1.8-0.8-0.3C80.3,156.2,80.3,156.4,80.6,156.4z"/>
		<path class="st3" d="M115.3,154.6c0,0.5,0,0.8-0.3,0.8s-0.3,0.3-0.3,0.3c0.3,0.5,1.3,0.3,1.3-0.3c0-0.3,0-0.8,0-1.3
			C116,153.4,115.3,153.6,115.3,154.6z"/>
		<path class="st3" d="M75.5,154.9c0,1,0.5,1.3,0.8,0.5c0-0.3,0-0.8-0.3-1C75.5,153.9,75.5,153.9,75.5,154.9z"/>
		<path class="st3" d="M139.1,150.3c-0.3-0.5-0.3,0.5,0,1.5C139.8,154.1,139.6,151.1,139.1,150.3z"/>
		<path class="st3" d="M78.8,152.1c0.5,0,0.3-1.3-0.3-2C77.8,149.3,77.8,152.1,78.8,152.1z"/>
		<path class="st3" d="M136,149.1c0.3,0,0.3-0.3,0-1.5c-1-3.3-1-0.5-0.5,1.3C135.5,148.8,135.8,149.1,136,149.1z"/>
		<path class="st3" d="M75.8,147.6c0-1-0.5-1.5-0.8-0.8C74.8,148.1,75.8,148.6,75.8,147.6z"/>
		<path class="st3" d="M78.1,145.5v1c0,0.5,0,1.3,0.3,1.3C78.6,148.3,79.3,148.1,78.1,145.5z"/>
		<path class="st3" d="M114.8,146c0.3-0.3,0-1.5-0.5-1.5c-0.3,0-0.3,1.3,0,1.8C114.5,146,114.8,146,114.8,146z"/>
		<path class="st3" d="M111.7,137.9c-0.5-0.5-0.3-1.3-0.5-2l-0.3,0.8c-0.3,0.5-0.3,1-0.3,1.3C111,139,112.2,138.4,111.7,137.9z"/>
		<path class="st3" d="M76.3,135.4c-0.5,0-0.5,0.5-0.5,1.3C76.3,138.2,76.8,135.4,76.3,135.4z"/>
		<path class="st3" d="M78.6,117.7c0.3,0,0.5,1.3,0.5,4c0,5.8,0.3,0.8,1.5,11.6c0.5,4.3,1.3,2.5,0.8-1.5c-0.5-4.3-1.5-11.1-1.3-19.7
			c0-0.8-0.3-7.3-0.8-1.5c-0.3,1.8,0,5.8-0.5,6.3C78.3,117.4,78.3,117.7,78.6,117.7z"/>
		<path class="st3" d="M77.3,134.1c0.3,0,0.3-1.8,0-2c-0.5-0.3-0.8,0.8-0.3,1.3C77,133.6,77.3,134.1,77.3,134.1z"/>
		<path class="st3" d="M76.5,106.6c0,0.3-1,9.1,0,17.7c0.5,4.3,0.5,4.6,0.8,5.3c0.8,2.3,0.8,4.8,1.3,3.5c0.5-1-0.3-1.3-0.3-2.8
			c0-1.8-0.5-4,0-5.1c0.5-1-0.3-0.3-0.3-1.3s-0.3-7.6-0.3-8.4c0-1.3-0.3-6.3-0.3-9.9C77,105.3,76.5,105.3,76.5,106.6z"/>
		<path class="st3" d="M73.5,133.1c0.5,0,0.3-1.5,0-1.8C72.2,130.9,73,133.1,73.5,133.1z"/>
		<path class="st3" d="M75,128.8c-0.5-0.3-0.5,0.3-0.5,1.3C75,132.4,75.8,129.3,75,128.8z"/>
		<path class="st3" d="M126.9,130.6c0.3,0,0-1.5-0.3-1.8C126.1,128.1,126.4,130.6,126.9,130.6z"/>
		<path class="st3" d="M95.8,126.6c0.5-1,0-2,1-2.3s0-0.5,0.8-2.8c1.3-4.3-0.8-19-0.8-6.1c0,3.5,0,5.8-0.5,7.3
			C95.5,126,95.3,127.3,95.8,126.6z"/>
		<path class="st3" d="M123.4,124.5c0.8,1.8,0.8,2.3,1,1.3C124.6,123,122.6,122.8,123.4,124.5z"/>
		<path class="st3" d="M73,125.3c0-0.8-1-1.8-1-1c0,0.3,0,0.8,0.3,1C72.5,125.8,73,125.8,73,125.3z"/>
		<path class="st3" d="M125.1,123.8l0.3,0.8v-0.8C125.9,121.7,124.6,122.5,125.1,123.8z"/>
		<path class="st3" d="M100.3,118.2c-0.3-1,0.5-1.8,0.5-3.5c0-1.5,1-1.8-0.8-8.6c0,0-0.5,10.6-1.3,14.7c-0.3,1-0.3,2.3-0.3,2.5
			C98.6,125.3,100.6,119.5,100.3,118.2z"/>
		<path class="st3" d="M120.3,119.7c-0.5,0-0.3,0.8,0,1.5c0.3,0.3,0.5,0.5,0.5,0.5C121.1,121.5,120.6,119.7,120.3,119.7z"/>
		<path class="st3" d="M123.4,121.2c0.3,0.8,1,1,1,0.3C124.4,119.2,122.3,118.5,123.4,121.2z"/>
		<path class="st3" d="M120.8,116.9c-0.3,0.3-0.3,0.5,0.3,1c0.3,0.3,0.5,0.5,0.3,0.5c0,0-0.3,0.3,0,0.3c0.3,0.5,0.8-0.3,0.5-1.3
			C121.6,116.4,121.3,116.4,120.8,116.9z"/>
		<path class="st3" d="M124.1,117.7c0.3,0.8,0.3,0.8,0.5,0.3C124.9,115.9,123.1,115.4,124.1,117.7z"/>
		<path class="st3" d="M117.8,114.9c0,0.5,0.3,1,0.3,1.3s0.3,0.3,0.5,0.3s0.3-0.3,0-1.5C118,113.4,117.5,113.4,117.8,114.9z"/>
		<path class="st3" d="M121.3,114.7c0.3,0.8,0.5,0.8,0.5,0.5C122.6,113.1,120.6,112.4,121.3,114.7z"/>
		<path class="st3" d="M114.8,111.9c-0.3,0.3-0.3,0.5,0,1.8c0.5,2,0.8,2,0.8,0C115.5,111.9,115.5,111.6,114.8,111.9z"/>
		<path class="st3" d="M118.8,112.1c0-0.5-0.3-1-0.3-1.3c0-0.8-1.5-1-0.5,1C118.6,113.1,119.1,113.1,118.8,112.1z"/>
		<path class="st3" d="M122.3,110.9c-0.5,0.3,0.3,1.8,0.8,1.5c0.3,0,0.3-0.3,0.3-0.3C122.9,111.6,122.6,110.6,122.3,110.9z"/>
		<path class="st3" d="M124.1,112.1c0.5-0.5,0-2-0.5-1.8c-0.3,0-0.3,0.8,0,1.8C123.9,112.1,123.9,112.4,124.1,112.1z"/>
		<path class="st3" d="M121.6,109.3c0.3-1-0.3-2.8-0.8-2.8s-0.8,0.3-0.5,1C121.1,108.8,121.3,110.4,121.6,109.3z"/>
		<path class="st3" d="M81.3,108.6c0.3,1,0.8,0.8,0.8,0c0-0.5-0.5-1-0.8-0.8C81.1,107.8,81.3,108.3,81.3,108.6z"/>
		<path class="st3" d="M116.5,109.3c0.3-0.3-0.3-2.8-0.5-2.8C115.3,106.1,116,109.8,116.5,109.3z"/>
		<path class="st3" d="M118.6,106.3c0-0.3-1.3-0.3-1.3,0c0,0,0.3,0.8,0.5,1.5C118.6,109.6,118.8,109.1,118.6,106.3z"/>
		<path class="st3" d="M80.1,106.8c0.3-0.8,0.3-1-0.3-1s-0.8,1-0.3,1.3C79.6,107.3,79.8,107.1,80.1,106.8z"/>
		<path class="st3" d="M75.5,103.8c0.3,0,0.3,0.5,0.3,1s0.3,0.8,0.3,0.8c0.5-0.3,0.5-2.5-0.3-2.5C75.5,103,75,103.5,75.5,103.8z"/>
		<path class="st3" d="M118.6,101.7c-0.8,0-0.8,1.5,0,1.8c1,0.5,1,3.8,1.5,0.5C120.1,102.5,119.6,101.7,118.6,101.7z"/>
		<path class="st3" d="M78.3,100.2c-0.3,0-0.3,0.3-0.3,1C78.3,103.8,79.1,100.2,78.3,100.2z"/>
		<path class="st3" d="M77,98.2c-0.5-0.5-0.5,0-0.5,1.3C76.8,101.7,77.5,98.7,77,98.2z"/>
		<path class="st3" d="M79.8,94.2c-0.3,0.3-0.3,0.5,0,1c0.3,1,1.5,0.8,1.3,0.3c-0.3-0.8-0.3-5.6,0-6.3c0.3-0.5,0.3-0.8,0-0.8
			c-0.5,0,0-4.6-0.5-4.6s-0.3,3-0.8,3.8c-0.5,1.3-0.5,2.5-0.3,4.6C80.1,93.1,80.1,93.9,79.8,94.2z"/>
		<path class="st3" d="M91.5,87.6c0.5,0.8,2.8,5.3,3,5.3c0.3,0.3,0.8,2.5,1.3,2.5c0.3,0,0-2.3-0.3-3.3c-0.3-0.3-0.3-0.8-0.3-1.3
			c0-1-0.5-0.3-0.5-1c0-0.8-0.5-0.3-0.5-1s-0.8-0.5-1-1.5c-0.5-1.5-0.8-0.8-2.5-4.3c-0.8-1.8-1-2.5-1.8-5.3c0-0.5-0.3-0.8-0.5-0.8
			c-0.5,0-0.5,0.5-0.3,1.8C88.7,81,88.2,82.5,91.5,87.6z"/>
		<path class="st3" d="M82.9,85c-0.5-6.6-1.8,1.3,0,7.6C84.9,100.7,83.1,89.1,82.9,85z"/>
		<path class="st3" d="M86.7,83.8c0,1.3,0.3,2,0.5,2c0.3,0,2,3.5,2.5,4.8c0.5,1,0.8,1.5,1.3,2.5c1.3,2.8,1.5,1,1,0.3
			c-0.5-1-0.5-2.5-1.5-4.6c-1.8-3-2.3-4.3-2.3-4.8c0-0.3,0-0.8-0.3-0.8c-0.5-0.3-0.5-4.8-1.5-3.8c-0.3,0.3-0.3,0.5,0,1.3
			C86.2,81.2,86.4,82.5,86.7,83.8z"/>
		<path class="st3" d="M86.4,93.6c0,0.3,0.3,0.5,0.3,0.5c0.5,0,0.5-2.5,0-2.5s0-2-0.3-2.3c-0.5-0.2-0.2-2.2-0.5-2.2
			s-1.3-5.6-1.3-6.6l-0.3-0.3c-0.8,0,0.5,9.1,1.5,11.6C86.2,92.6,86.4,93.4,86.4,93.6z"/>
		<path class="st3" d="M77.8,228.1l0.5-0.8c0.5,0.3,2.5,1.3,2.8,1.5c0.5,0.8,1.3,0,0.5-0.5c-0.5-0.5-1.3-2-1.8-2
			c-0.8,0-1.5-1.8-2.8-1.5c-1,0.3-0.8,1,0,1.5c1,0.5,1,0.8,0.3,1.5C76.5,228.8,77.3,228.8,77.8,228.1z"/>
		<path class="st3" d="M79.3,222.7c-0.5,0.3-0.3,1.8,0.3,1.8c1,0,4,2,4,1.3C83.4,225.3,79.6,222.5,79.3,222.7z"/>
		<path class="st3" d="M81.6,221.2c-1,0-0.5,0.8,0.8,1.3C86.4,224.3,82.1,221.2,81.6,221.2z"/>
		<path class="st3" d="M183.6,176.7c0.3,0.5,0.8,0.5,0.8,0.3c0-0.8-2-3-2.3-2.8c0,0-0.3,0-0.3-0.3c0-0.5-0.8-1.3-1.3-1
			s-0.3-0.5-0.5-0.3C178.3,173.6,183.1,175.7,183.6,176.7z"/>
		<path class="st3" d="M180.8,170.6c2.8,1.8,0.3-0.5-2-3c-1.3-1.3-2.3-1.5-2.3-0.8C176.3,167.8,180.1,170.3,180.8,170.6z"/>
		<path class="st3" d="M176.3,164.8c3,2.3,3.3,2,0.8-0.8c-1.3-1.3-2-1.8-2.3-1.8C173.7,162.5,174.2,163.3,176.3,164.8z"/>
		<path class="st3" d="M174.7,159.2c0,0.5,0.8,0.5,0.8,0c0.3-0.5-2.8-3.3-3.3-2.8C171.7,157.2,174.7,158.4,174.7,159.2z"/>
		<path class="st3" d="M172.2,153.6c1,0.5,1.3,0.3,0.5-0.5c-0.3-0.3-0.8-0.5-1-0.5C171.2,152.9,171.2,153.1,172.2,153.6z"/>
		<path class="st3" d="M50.2,136.7c-2.3-2-3.8-1,2,2.5C54.8,140.7,51.7,137.9,50.2,136.7z"/>
		<path class="st3" d="M58.1,137.2c-0.3,0.3-2-1-2.5-1.5s-1.8,0-1.5,0.5c0.3,0.3,2.8,2,3,2c0.3,0,0.3,0,0.3,0.3s0.3,0.5,0.8,0.5
			c1.3,0.5,1.8,0.3,0.5-0.5c-0.5-0.3-0.5-0.5-0.5-1C58.1,137.2,58.1,137.2,58.1,137.2z"/>
		<path class="st3" d="M63.4,138.2c0-0.3-2.5-2.5-2.8-2.5c0,0-0.3-0.3-0.5-0.8c-0.3-1.3-0.3,0.3-1-0.3c-0.5-0.5-1,0.3-0.3,0.8
			C60.8,136.7,63.4,139.2,63.4,138.2z"/>
		<path class="st3" d="M41.9,136.4c0.3-0.3,0-0.3-0.3,0c-0.8,0.3-2.3,0-2.3,0.5C39.1,137.2,41.4,136.9,41.9,136.4z"/>
		<path class="st3" d="M66.2,136.2c0.5,0.5,0.8,0.3,0.3-0.5c-0.3-0.5-1.8-1.5-2.3-1.5s0,1,0.8,1.3C65.4,135.4,66.2,135.9,66.2,136.2
			z"/>
		<path class="st3" d="M158.3,111.6c-0.8-0.8-1.8-0.8-1.8-0.3s1.3,0.8,2,1.3c1.8,1.8,2.3,0.8,1.3,0
			C159.3,112.4,158.8,111.9,158.3,111.6z"/>
		<path class="st3" d="M160.8,109.6c-0.8-0.8-1.3-1-1.5-0.8c-0.5,0.5,0,1,2,2.3C165.6,113.6,162.6,111.1,160.8,109.6z"/>
		<path class="st3" d="M167.1,109.8c-0.8-0.3-3.3-3.3-4.3-2c-0.3,0.3,0.3,0.8,2,1.8C168.2,111.1,167.4,109.8,167.1,109.8z"/>
		<path class="st3" d="M169.4,108.6c0.3,0.3,1,0.3,1,0s0-0.3-0.3-0.3s-0.8-0.5-1.5-1c-3-2-3.5-0.3-0.8,0.5
			C168.7,108.1,169.4,108.3,169.4,108.6z"/>
		<path class="st3" d="M175,106.6c-0.5,0-2.8-2.8-4-2.3c-0.8,0.3-1,1-0.5,1s2.8,1,3.8,1.5C175.5,107.8,175.2,106.6,175,106.6z"/>
		<path class="st3" d="M174.5,102c-0.5,0.3-0.8,1.5,0,1.5c0.3,0,1,0.3,1.8,0.8c2,1,2.8,0.8,1.3-0.3c-0.5-0.3-0.5-0.5-0.5-0.8
			c0.3-0.3,0-0.3-0.3-0.3C175.5,103.5,175.2,101.7,174.5,102z"/>
		<path class="st3" d="M178,101.2C178,101.5,178,101.2,178,101.2c-0.3-0.8-1.5-0.5-1.8,0.3c0,0.5,0,0.5,0.5,0.5s1.3,0.3,1.8,0.5
			c1.5,0.8,2.3,0.8,1.3,0c-0.5-0.3-1-0.8-1.3-1C178.5,101.2,178.3,101.2,178,101.2z"/>
		<path class="st3" d="M180.8,99.7c-0.3,0-0.5-0.3-0.8-0.5c-0.5-0.5-1.5-0.5-1.5,0.3c0,0.3,0.8,0.8,1.5,1
			C184.4,102.8,181.3,99.7,180.8,99.7z"/>
		<path class="st3" d="M181.1,98.2c-1,1.3,0.8,0.8,2.3,1.8C186.6,101.5,182.3,96.7,181.1,98.2z"/>
		<path class="st3" d="M184.1,96.2c-0.5,0.8-0.5,0.8,1.3,1.5C191.2,100.5,184.6,95.4,184.1,96.2z"/>
		<path class="st3" d="M131.2,69.3c0,1,7.6,7.1,7.6,6.1c0-0.3-1.8-2-2-2C136.3,73.4,131.2,67.6,131.2,69.3z"/>
		<path class="st3" d="M132,65c-1-0.5-2,0.3,2.3,3c1,0.5,1.8,1.5,2,1.3c0.3-0.3,0-0.5-2.3-2.3C132.7,65.8,133,65.6,132,65z"/>
		<path class="st3" d="M66.4,66.6c0.3-0.3-2-2.3-2.5-2.3C62.9,64.3,66.4,66.8,66.4,66.6z"/>
		<path class="st3" d="M131.2,60.5c0-0.3-0.3-0.5-0.5-0.5c-0.8,0-2.3-2-2.3-1c0,1.8,3.3,3.3,4.3,4.6c0.8,0.8,2.3,1.3-0.3-1.3
			C132,61.5,131.2,60.7,131.2,60.5z"/>
		<path class="st3" d="M94.5,61.5c0.5-0.3,0.5-0.3-0.3-0.5c-0.8-0.3-2.5-0.8-1.5,0.3C93,62,93.5,62,94.5,61.5z"/>
		<path class="st3" d="M62.1,60.7c0-0.3-2-2.3-2.5-2.3C58.3,58.5,62.1,61.5,62.1,60.7z"/>
		<path class="st3" d="M128.2,53.7c-1.3-0.8-1.5,0.3-0.3,1.3c2.3,2,4.8,4,4.8,3.3C132.5,57.7,129.2,54.4,128.2,53.7z"/>
		<path class="st3" d="M55.5,53.2c0,0.3,1,1.3,3,2.8c1.8,1.3,2.3,1.5,2.3,1c0-0.3-0.3-0.3-0.3-0.3c-0.3,0-0.8-0.5-1.5-1.3
			C57,53.4,55.5,52.4,55.5,53.2z"/>
		<path class="st3" d="M126.7,47.8c0.3-0.5-3-1.3-1.3,0.5c1.3,1,0.5,1.5,1.5,1.8s4,3.3,4,2.3c0,0-3.3-3.3-3.5-3.8
			C127.4,48.1,126.4,48.3,126.7,47.8z"/>
		<path class="st3" d="M55.3,49.4c1.8,1,2.3,1,0.8,0c-0.5-0.5-1.5-1.3-2.3-2C50.5,44.3,47.4,44,55.3,49.4z"/>
		<path class="st3" d="M124.4,41c-0.3,0-0.8-0.3-1-0.3c-2-0.5,1.3,3.3,4.3,5.3c1.3,0.8,1.3,0,0-1c-0.5-0.5-1-1-1-1
			C126.7,43.5,124.9,41.3,124.4,41z"/>
	</g>
</g>
</svg>
