<?xml version="1.0" encoding="utf-8"?>
<!-- Generator: Adobe Illustrator 27.0.1, SVG Export Plug-In . SVG Version: 6.00 Build 0)  -->
<svg version="1.1" id="Layer_1" xmlns="http://www.w3.org/2000/svg" xmlns:xlink="http://www.w3.org/1999/xlink" x="0px" y="0px"
	 viewBox="0 0 226.8 239" style="enable-background:new 0 0 226.8 239;" xml:space="preserve">
<style type="text/css">
	.st0{fill:#B98CDE;}
	.st1{fill:#1F1F1F;}
</style>
<g>
	<polygon class="st0" points="217.1,179.4 217.1,59.3 113.5,0 9.8,59.3 9.8,179.4 113.5,239 	"/>
</g>
<g>
	<path class="st1" d="M102.4,76.7C102.4,76.7,102.4,76.7,102.4,76.7C102.4,76.7,102.4,76.7,102.4,76.7L102.4,76.7z"/>
	<polygon class="st1" points="122.7,74.2 122.7,74.2 122.7,74.2 	"/>
	<path class="st1" d="M92.9,91.6c-1.9-1.1-3.9-2.2-6.1-2.7c-0.8-0.2-1.5-0.5-2.1-1.1c-1.2-1.1-2.6-1.8-4.3-1.8
		c-0.5,0-0.9-0.2-1.3-0.5c-0.6-0.4-1.1-1-1.8-1.1c-1-0.3-1.8-0.6-2.7-1.1c-0.8-0.4-1.6-0.4-2.3,0.1c-0.3,0.2-0.4,0.4-0.2,0.7
		c0.3,0.1,0.6,0.3,0.8,0.4c-0.1,0.4-0.2,0.8-0.3,1.2c0.3,0,0.6,0,0.8,0c1.9-0.4,3.5,0.4,5.2,1c0.2,0.1,0.5,0.2,0.7,0.4
		c1.1,1.4,2.7,1.8,4.2,2.3c0.5,0.2,1,0.3,1.5,0.6c1.1,0.6,2.3,1.1,3.4,1.6c1.5,0.7,3.1,1.4,4.7,1.8c0.6,0.1,1.1,0.4,1.5,1
		c0.1,0.1,0.2,0.2,0.3,0.3c-0.2-1-0.6-1.9-1-2.8C93.5,91.9,93.2,91.8,92.9,91.6z"/>
	<path class="st1" d="M133.8,91.6c1.9-1.1,3.9-2.2,6.1-2.7c0.8-0.2,1.5-0.5,2.1-1.1c1.2-1.1,2.6-1.8,4.3-1.8c0.5,0,0.9-0.2,1.3-0.5
		c0.6-0.4,1.1-1,1.8-1.1c1-0.3,1.8-0.6,2.7-1.1c0.8-0.4,1.6-0.4,2.3,0.1c0.3,0.2,0.4,0.4,0.2,0.7c-0.3,0.1-0.6,0.3-0.8,0.4
		c0.1,0.4,0.2,0.8,0.3,1.2c-0.3,0-0.6,0-0.8,0c-1.9-0.4-3.5,0.4-5.2,1c-0.2,0.1-0.5,0.2-0.7,0.4c-1.1,1.4-2.7,1.8-4.2,2.3
		c-0.5,0.2-1,0.3-1.5,0.6c-1.1,0.6-2.3,1.1-3.4,1.6c-1.5,0.7-3.1,1.4-4.7,1.8c-0.6,0.1-1.1,0.4-1.5,1c-0.1,0.1-0.2,0.2-0.3,0.3
		c0.2-1,0.6-1.9,1-2.8C133.2,92,133.5,91.8,133.8,91.6z"/>
	<polygon class="st1" points="122.7,74.2 122.7,74.2 122.7,74.2 	"/>
	<polygon class="st1" points="122.7,74.2 122.7,74.2 122.7,74.2 	"/>
	<path class="st1" d="M139.6,95.9c-0.3,0.1-0.6,0.3-1,0.4c0,0,0,0,0-0.1l-0.2,0.1c-2.7,1.1-5.3,2.2-8,3.4c-1.3,0.5-2.4,0.1-3.6-0.6
		c0.5-0.7,1-1.3,1.5-1.8c0.3-0.3,0.6-0.5,0.9-0.6c1.2-0.5,2.3-1.2,3.1-2.4c0.3-0.4,0.7-0.7,1.2-0.8c1.4-0.3,2.8-0.8,4.1-1.5
		c0-0.2,0-0.3,0-0.3l-0.8-1.7c-1.1,0.5-2.2,1.2-3.3,1.8c-0.4,0.2-0.7,0.3-1.1,0.2c-1.6-0.2-3,0.5-4.2,1.4c-0.3,0.3-0.6,0.6-1,0.9
		c-0.2,0.2-0.4,0.2-0.8,0.4c-0.1-1.5-0.2-2.8-0.3-4.1c0-0.4,0-0.9-0.1-1.3c-0.4-1.3-0.6-2.7-1.2-3.9c-0.4-0.7-0.3-1.3,0.2-2
		c0.8-1.1,1.5-2.1,2.2-3.2c0.5-0.9,1.2-1.5,2-2.1c0.6-0.4,1.2-0.8,1.7-1.3c0.6-0.6,1.3-0.9,2.2-0.9c0.4,0,0.7,0,1-0.1
		c0.3-0.5-0.1-0.7-0.2-1c0-0.3,0.1-0.7,0.2-1c-0.8-0.3-1.4-0.1-1.9,0.4c-0.4,0.3-0.8,0.6-1.2,0.8c-0.7,0.2-1.2,0.7-1.8,1.2
		c-0.7,0.7-1.3,1.4-2.3,1.8c-0.2,0.1-0.4,0.3-0.6,0.5c-0.5,0.7-1.1,1.3-1.9,1.7c-0.8,0.4-1.4,1-2.1,1.5c-1.2-0.6-1.3-1.7-1.5-2.8
		c0.5,0,0.8-0.1,1.2-0.1c0.8-0.1,1.3-0.7,1.9-1.2c0.4-0.3,0.4-0.7,0.4-1.2c-0.3-0.1-0.4-0.3-0.2-0.5c0.1-0.1,0.2-0.2,0.3-0.3
		c0,0,0,0,0,0c0.1-0.1,0.1-0.2,0.2-0.3c-0.1,0-0.2,0.1-0.4,0.1c-0.6,0.1-1.1,0.6-1.9,0.6c0.5-0.3,0.8-0.5,1.1-0.7
		c-0.1-0.1-0.1-0.2-0.2-0.2c-0.3,0-0.6,0.1-0.8,0.1c0.8-0.5,1.5-1,2.3-1.6c0-0.1-0.1-0.1-0.1-0.2c-0.5,0.1-1.1,0.3-1.6,0.4
		c-0.1,0-0.2,0.1-0.3,0.1c0,0,0,0,0,0c0,0,0,0,0,0c0,0,0,0,0,0c0.1-0.1,0.2-0.1,0.3-0.2c0.5-0.3,1-0.7,1.5-0.9
		c0.5-0.3,1-0.5,1.4-0.7c0.2-0.1,0.4-0.2,0.2-0.5c-0.8,0.3-0.8,0.3-1.5,0.2c0.3-0.3,0.7-0.6,1-0.9c0.3-0.2,0.4-0.4,0-0.6
		c0.4-0.5,1-1,0.7-1.7c-0.2-0.5,0-0.9,0.1-1.4c0.1-0.3,0.4-0.7,0.2-1.1c-0.7,0.2-0.7,0.9-1.1,1.3c-0.6,0.1-1.1,0.2-1.5,0.3
		c-0.5,1.1-0.6,2.2-1.6,3.2c0.1-0.6,0.2-1,0.3-1.3c0.1-0.4,0.3-0.7,0.4-1.1c0.1-0.3,0.5-0.6,0.2-1c-0.8,0.3-0.7,1.3-1.3,1.8
		c-0.3-0.6,0.1-1.2-0.3-1.9c-0.8,1.1-0.3,2.3-0.7,3.6c-0.1-0.9-0.2-1.6-0.2-2.2c0,0-0.2-0.1-0.4-0.2c-0.3,1.5,0,3-0.3,4.4
		c-0.1-1.2-0.2-2.4-0.3-3.5c0-0.1-0.1-0.1-0.3-0.2c-0.1,0.1-0.2,0.2-0.3,0.4c0,0.6-0.1,1.2-0.1,1.8c0,0.7,0,1.4,0,2.1
		c0,0.6-0.2,1.1-0.8,1.8c0-1.1,0-1.9,0-2.7c0-0.8,0.6-1.6,0.4-2.5c-0.7,0-0.5,0.7-0.9,0.9c0,0,0,0,0,0c-0.2-0.1-0.5-0.2-0.7,0.1
		c-0.3,0.5-0.4,1.1-0.4,1.7c0,0.6,0,1.2,0,1.8c-0.2-0.1-0.3-0.2-0.3-0.3c-0.1-0.7-0.1-1.5-0.2-2.2c-0.6,0.2-0.3,0.9-0.7,1.2
		c-0.6,0.4-0.5,1-0.3,1.6c0.2,0.6,0.4,1.2,0.4,2c-1.6-0.6-3.2-0.4-4.8-0.2c-0.4-1.1,0.5-2,0.3-3c-0.3-0.4-0.7-0.8-1-1.3
		c-0.4,0.6,0.1,1.3-0.5,1.8c0-0.4-0.1-0.6-0.1-0.9c0.1-0.8,0-1.5-0.3-2.2c-0.1-0.2-0.1-0.4-0.5-0.2c0,0.2,0,0.5,0,0.7
		c-0.2-0.5-0.4-1-0.7-1.4c0-0.1-0.2-0.1-0.3-0.1c-0.2,0.6,0.1,1.1,0.2,1.6c0.1,0.6,0.1,1.2,0.1,1.8c0,0.5,0.1,1-0.1,1.7
		c-0.6-0.9-0.7-1.8-0.7-2.7c0-0.9,0-1.9,0-2.8c0-0.2-0.1-0.3-0.2-0.5c-0.1,0-0.1,0-0.2,0c-0.1,1.3-0.2,2.7-0.3,4
		c-0.4-0.6-0.3-1.4-0.3-2.1c0-0.9,0.1-1.7-0.1-2.6c-0.4,0.1-0.3,0.5-0.4,0.7c-0.1,0.2-0.1,0.5-0.2,0.7c-0.2-0.7-0.2-1.4-0.3-2.1
		c0-0.2-0.1-0.6-0.5-0.4c0,0.4,0.1,0.8,0.1,1.1c0,0.3,0.2,0.7-0.2,0.9c-0.8-1.8-0.8-1.8-1.6-2.2c0.2,0.5,0.4,0.9,0.5,1.3
		c0.2,0.5,0.4,0.9,0.5,1.4c0.1,0.2,0.2,0.4-0.2,0.5c-0.8-0.8-0.8-2-1.3-2.9c-0.4-0.1-0.7-0.2-1-0.3c-0.1,0-0.2,0.2-0.3,0.3
		c-0.3-0.5-0.6-0.9-0.9-1.4c-0.1-0.1-0.3-0.2-0.5-0.4c-0.1,0.9,0.5,1.5,0.6,2.2c-0.2,0.3-0.3,0.7-0.5,1c0.3,0.4,0.5,0.7,0.7,1
		c-0.3,0.1-0.4,0.2-0.2,0.5c0.1,0.1,0.3,0.1,0.4,0.2c0.4,0.4,0.9,0.8,1.3,1.3c-0.3,0-0.6,0-0.9-0.1c0,0,0,0,0,0
		c-0.2-0.1-0.5-0.2-0.7-0.3c0,0,0,0-0.1,0.1c0,0,0.1-0.1,0.1-0.1c-0.1,0-0.2-0.1-0.3-0.1c0.1,0.1,0.2,0.2,0.3,0.2l0,0
		c0.2,0.1,0.4,0.2,0.6,0.4c0.8,0.5,1.7,0.9,2.5,1.4c0.2,0.1,0.5,0.2,0.7,0.7c-0.6-0.3-1-0.5-1.5-0.7c-0.5-0.2-1.1-0.3-1.6-0.4
		c0.3,0.2,0.6,0.5,1,0.7c0.4,0.3,0.8,0.6,1.2,0.9c-0.3-0.1-0.7-0.2-1-0.3c-0.4-0.1-0.8-0.2-1.2-0.3c0.9,0.6,1.8,1.1,2.7,1.7
		c0,0,0,0.1-0.1,0.1c-0.5-0.2-1.1-0.4-1.6-0.6c0,0-0.1,0.1-0.1,0.1c0.2,0.3,0.4,0.5,0.6,0.8c-0.3,0.1-0.4,0.1-0.5,0.1
		c0,0.6,0.2,1,0.7,1.4c0.7,0.6,1.5,1.1,2.5,1c0.1,0,0.3,0.1,0.5,0.2c-0.3,1-0.4,2.1-1.6,2.6c-0.7-0.5-1.4-1.1-2.2-1.6
		c-0.6-0.3-1.1-0.7-1.5-1.3c-0.3-0.4-0.6-0.8-1.1-1c-0.7-0.3-1.2-0.9-1.8-1.4c-0.5-0.4-0.9-1-1.5-1.2c-0.8-0.3-1.5-0.7-2.1-1.2
		c-0.5-0.4-1.1-0.5-1.6-0.1c0.2,0.4,0.6,0.8,0.1,1.2c-0.1,0.1-0.1,0.4-0.2,0.7c0.5,0,1,0,1.4,0.1c0.5,0.1,1.1,0.2,1.5,0.5
		c1,0.7,2,1.5,3,2.2c0.2,0.2,0.4,0.3,0.6,0.6c0.9,1.3,1.8,2.7,2.8,4.1c0.5,0.7,0.5,1.3,0.2,2.1c-0.9,2.1-1.5,4.2-1.4,6.5
		c0.1,0.9-0.1,1.7-0.4,2.5c-0.7,0-0.9-0.5-1.3-0.8c-1.3-1.1-2.8-2-4.6-1.7c-0.2,0-0.4,0-0.6,0c0.4,0.9,0.7,1.8,1,2.8
		c0.7,0.9,1.6,1.5,2.7,1.9c0.4,0.2,0.8,0.4,1.1,0.7c0.5,0.5,1,1.1,1.5,1.8c-1.4,0.8-2.7,1.1-4.2,0.4c-1.8-0.8-3.6-1.5-5.4-2.3
		c-4-1.8-8.1-3.6-12.1-5.5c-3.7-1.7-7.1-3.9-10.4-6.1c-3.6-2.3-7.1-4.7-10.7-7c-3.7-2.4-7.6-4.6-11.6-6.4c-1.3-0.5-2.5-1-3.9-1.3
		c-1.6-0.3-3.2-0.7-4.8-1c-1-0.2-2-0.6-2.9-1.1c-3.5-2.1-7.2-4-11-5.4c-1-0.4-2.1-0.7-3.1-0.9c-3.1-0.7-6.4-0.9-9.6-1.2
		c-0.7,0-1.3,0-2,0C4.1,61.3,0.7,65,0.4,68c-0.2,1.7-0.6,3.5-0.2,5.2c0.1,0.4,0.1,0.8,0,1.1c-0.5,2.1,0,4.1,0.9,6
		c0.3,0.6,0.5,1.1,0.5,1.7c0,0.9,0.3,1.8,1,2.4c0.7,0.6,1,1.4,1.2,2.3c0.1,0.5,0.3,1,0.6,1.5c0.7,1.3,1.5,2.7,2.2,4
		c0.5,0.9,1.2,1.7,2.2,2.1c0.5,0.2,0.9,0.6,1.1,1.2c0.5,1.4,1.4,2.6,2.3,3.8c0.6,0.8,1.3,1.5,2.2,1.9c0.3,0.2,0.7,0.4,0.9,0.6
		c1.6,2,3.6,3.6,5.6,5.3c0.9,0.8,1.9,1.5,3,2c0.3,0.1,0.6,0.4,0.7,0.6c0.9,1.4,2.2,2.4,3.5,3.5c1,0.9,2.2,1.4,3.6,1.5
		c0.4,0,0.8,0.1,1.1,0.2c2.1,1.1,4.4,1.2,6.7,1.4c0.8,0.1,1.5,0,2.3-0.1c1.4-0.1,2.7-0.3,4.1-0.4c0.7-0.1,1.2,0.1,1.8,0.8
		c-1.8,0.4-3.2,1.1-4.5,2.1c-0.2,0.2-0.5,0.3-0.7,0.4c-2.2,0.8-4.1,2.1-6,3.4c-0.7,0.5-1.4,1-1.7,1.7c-0.5,1.1-1.2,2-1.9,3
		c-0.8,1.2-0.8,2.4-0.2,3.6c0.2,0.3,0.4,0.6,0.6,1c0.1,0.3,0.3,0.6,0.3,0.9c0,1.3,0.6,2.3,1.3,3.3c1.9,2.6,4.3,4.7,7.5,6
		c0.2,1.2,1.1,1.8,2.1,2.2c0.7,0.3,1.3,0.6,2,0.8c1.6,0.5,3.2,0.7,4.7,1.3c1.5,0.7,2.9,1.5,4.5,2.1c0.7,0.3,1.4,0.4,2.1,0.3
		c0.4,0,0.8-0.1,1.2-0.1c0.7,0.6,1.4,1.1,2.3,1.1c1,0,2,0.2,2.9,0.5c0.2,0.1,0.5,0.1,0.8,0.1c1.5,0,2.9,0.1,4.4,0.1
		c0.6,0,1.1,0,1.6,0.3c0.9,0.5,1.9,0.6,2.8,0.8c1.2,0.2,2.3,0,3.4-0.1c1.6-0.1,3.1-0.6,4.4-1.6c0.3-0.2,0.6-0.5,1-0.6
		c1.2-0.2,2-0.9,2.7-1.8c0.9-1.1,1.9-2.1,2.6-3.3c1.3-2,2.5-4.1,3.6-6.2c1-1.9,2.1-3.7,3.5-5.4c0.3-0.4,0.6-0.8,0.7-1.3
		c0.9-2.4,2-4.6,3.2-6.8c0.1-0.2,0.2-0.6,0.6-0.4c0,0.8,0,1.5,0,2.3c-0.2,2.6-0.4,5.1-0.6,7.7c0,0.4-0.1,0.8-0.2,1.1
		c-0.3,1.8-0.8,3.5-1,5.3c-0.2,1.7-0.5,3.4-0.8,5c-0.6,2.7-1.1,5.4-1.8,8c-0.4,1.6-0.6,3.1-0.3,4.7c0.1,0.6,0.1,1.1-0.1,1.6
		c-0.7,2.3-0.2,1.8-2.1,3.4c-0.2,0.2-0.4,0.4-0.6,0.6c-0.1,0.2-0.2,0.4-0.3,0.6c-0.1,0.4,0.2,0.8,0.6,0.6c0.4-0.2,0.6-0.1,0.8,0.2
		c0.1,0.1,0.3,0.1,0.5,0.2c0.1-0.5,0.2-0.9,0.3-1.3c0.1-0.3,0.1-0.6,0.3-0.7c0.8-0.5,0.8-1.4,1-2.2c0.1-0.7,0.2-1.4,0.4-2.1
		c0.2-0.8,0.3-1.5,0.2-2.3c-0.3-1.4,0.1-2.7,0.7-4c0.4-0.8,0.7-1.7,1-2.6c0.8-2.7,1.4-5.5,1.7-8.3c0.1-1,0.2-2,0.5-2.9
		c0.6-1.6,1-3.2,1.4-4.9c0.3-1.4,0.7-2.8,1.1-4.1c0.1-0.3,0.2-0.6,0.4-0.9c0.1,0.9,0.1,1.8,0,2.7c-0.3,2.2-0.2,4.4,0.2,6.5
		c0.1,0.8,0.1,1.5,0.1,2.3c-0.2,1.7-0.3,3.4-0.4,5.1c-0.1,0.9,0,1.8,0.4,2.6c0.5,0.8,0.5,1.6,0.5,2.5c-0.1,1.9-0.2,3.8-0.2,5.7
		c0,0.8,0,1.6,0.4,2.4c0.3,0.6,0.3,1.2,0.3,1.8c0,1.4-0.1,2.8-0.1,4.3c0,1.5,0.4,3,1.1,4.2c0.5,0.8,0.5,1.5,0.6,2.3
		c0.1,1.6,0.2,3.2,0.3,4.7c0.1,0.8,0.2,1.7,0.8,2.3c0.4,0.5,0.5,1.1,0.5,1.7c0.2,1.2,0.3,2.4,0.7,3.5c0.4,1.2,0.7,2.4,0.7,3.7
		c0,0.8,0.1,1.7,0.6,2.3c0.6,0.8,0.6,1.6,0.7,2.5c0.1,1.2,0.3,2.4,0.6,3.5c0.8,2.5,3.8,3.2,5.7,1.4c0.6-0.6,0.9-1.2,1-2
		c0.1-0.9,0.3-1.7,0.4-2.6c0.1-1,0.3-2,0.9-2.9c0.3-0.4,0.4-1,0.5-1.6c0.2-1.7,0.3-3.4,0.9-5c0.2-0.6,0.3-1.3,0.4-1.9
		c0.1-1.1,0.2-2.2,0.9-3.1c0.2-0.3,0.3-0.7,0.4-1.1c0.1-0.9,0.3-1.8,0.3-2.8c0.1-1.1,0-2.3,0.1-3.4c0-0.4,0.1-0.8,0.3-1.1
		c1.3-2.1,1.6-4.4,1.4-6.8c0-0.8-0.1-1.5-0.1-2.3c0-0.6,0-1.2,0.3-1.8c0.2-0.5,0.4-1.2,0.3-1.7c0-2.3-0.1-4.6-0.2-6.9
		c0-0.6,0-1.1,0.3-1.6c0.5-0.8,0.7-1.7,0.6-2.7c-0.1-1.3-0.1-2.5-0.2-3.8c-0.1-1.3-0.3-2.5-0.1-3.8c0.5-2.5,0.4-5,0.2-7.5
		c-0.1-0.7-0.2-1.4-0.1-2.4c0.8,2.2,1.2,4.2,1.7,6.2c0.3,1.3,0.7,2.6,1.1,3.9c0.2,0.7,0.4,1.4,0.5,2.1c0.4,4.3,1.1,8.6,3,12.5
		c0.5,1.1,0.7,2.3,0.5,3.5c-0.1,0.6,0,1.2,0.1,1.8c0.1,0.9,0.4,1.8,0.6,2.7c0.1,0.7,0.2,1.4,0.8,1.9c0.3,0.2,0.3,0.7,0.4,1
		c0.1,0.3,0,0.8,0.5,1c0.4-0.1,0.8-0.7,1.4-0.3c0,0,0.3-0.2,0.3-0.3c0.1-0.4,0-0.8-0.3-1.1c-0.3-0.4-0.7-0.7-1.1-1
		c-0.6-0.5-1-1.2-1.3-2.1c-0.2-1-0.4-1.9-0.3-2.9c0.1-1.2,0.1-2.4-0.2-3.6c-1.2-4.6-2.3-9.2-2.8-13.9c0-0.3-0.1-0.5-0.1-0.8
		c-0.3-1.3-0.6-2.7-0.8-4c-0.3-2.2-0.5-4.5-0.6-6.7c-0.1-1.2-0.1-2.4-0.1-3.6c0-0.2,0.1-0.5,0.1-1c0.3,0.4,0.5,0.6,0.6,0.8
		c1,2,2,4,2.9,6.1c0.3,0.8,0.8,1.6,1.3,2.2c1.1,1.3,2,2.7,2.7,4.3c1.3,2.6,2.7,5.1,4.4,7.5c0.8,1.1,1.7,2.1,2.7,3.1
		c0.4,0.4,0.9,0.8,1.5,1c0.7,0.2,1.4,0.6,2,1.1c0.5,0.3,1,0.6,1.6,0.8c1.8,0.7,3.6,0.8,5.5,0.7c1.1-0.1,2.3-0.3,3.3-0.8
		c0.5-0.3,1-0.3,1.6-0.3c2.2,0,4.5,0.2,6.7-0.6c0.3-0.1,0.7-0.1,1-0.1c0.8,0,1.5-0.2,2.2-0.7c0.5-0.4,1-0.5,1.5-0.4
		c0.9,0.2,1.9,0,2.7-0.4c1.2-0.6,2.5-1.1,3.7-1.8c0.5-0.3,1-0.5,1.5-0.5c2.2-0.3,4.2-1.1,6.2-2c0.6-0.3,1.1-0.7,1.3-1.4
		c0.1-0.2,0.2-0.4,0.2-0.5c3.4-1.4,5.9-3.7,7.8-6.6c0.4-0.6,0.8-1.3,0.8-2.1c0-0.8,0.3-1.3,0.7-1.9c0.9-1.4,0.9-2.9-0.1-4.3
		c-0.2-0.3-0.5-0.6-0.7-0.9c-0.2-0.3-0.5-0.6-0.6-1c-0.4-1.3-1.3-2.1-2.4-2.8c-1.1-0.7-2.2-1.4-3.4-2c-1.7-0.9-3.5-1.6-5.1-2.7
		c-0.7-0.5-1.7-0.7-2.6-1c1-0.8,1-0.8,1.9-0.6c2.9,0.4,5.7,0.7,8.6,0.3c1.3-0.2,2.5-0.4,3.6-0.9c0.6-0.3,1.2-0.5,1.9-0.5
		c1-0.1,1.9-0.4,2.7-1c1.5-1.1,3-2.3,4-3.8c0.2-0.3,0.5-0.6,0.8-0.7c3.2-1.8,5.8-4.3,8.3-6.9c0.4-0.4,0.7-0.8,1.2-1
		c0.9-0.4,1.6-1.1,2.2-1.9c0.9-1.2,1.7-2.4,2.3-3.8c0.2-0.5,0.5-0.9,0.9-1.1c1.2-0.5,2-1.5,2.6-2.6c0.5-0.9,1-1.8,1.5-2.7
		c0.6-1.2,1.2-2.3,1.3-3.7c0.3-0.2,0.6-0.5,0.8-0.8c0.5-0.6,1-1.4,1-2.2c0-0.8,0.3-1.5,0.6-2.2c0.9-1.9,1.3-3.8,0.8-5.9
		c-0.1-0.3-0.1-0.5,0-0.8c0.4-1.9,0.1-3.7-0.2-5.5c-0.2-1.3-0.7-2.5-1.6-3.5c-1.8-2.1-3.9-3.3-6.7-3.2c-0.5,0-1.1,0-1.6,0
		c-2.4,0.2-4.9,0.4-7.3,0.8c-2.4,0.4-4.7,1.1-6.9,2c-3.1,1.3-6.1,2.8-8.9,4.5c-1.2,0.8-2.5,1.2-3.9,1.5c-3.1,0.6-6.2,1.3-9.1,2.7
		c-0.2,0.1-0.5,0.1-0.9,0.2 M126.7,79.3C126.7,79.3,126.7,79.4,126.7,79.3C126.7,79.4,126.7,79.3,126.7,79.3
		c-0.1,0.1-0.2,0.1-0.2,0.2C126.6,79.4,126.6,79.4,126.7,79.3z M97.9,143.8c0,0.1,0,0.2,0,0.3C97.9,143.9,97.9,143.9,97.9,143.8z
		 M119.4,79.5c0.1,0.1,0.2,0.2,0.3,0.3C119.6,79.8,119.5,79.7,119.4,79.5z M129.4,147c0-0.1,0-0.2,0-0.3
		C129.4,146.8,129.4,146.9,129.4,147z M127.8,138.2c0.1,0.3,0.3,0.7,0.5,1v0C128.1,138.9,127.9,138.6,127.8,138.2
		c-0.1-0.3-0.3-0.7-0.4-1.1C127.5,137.5,127.6,137.9,127.8,138.2z"/>
	<path class="st1" d="M126.3,73.1c-0.6,0-1.2,0.2-1.6,0.6c0,0.1,0.1,0.1,0.1,0.2C125.3,73.7,125.8,73.5,126.3,73.1z"/>
	<path class="st1" d="M126.3,73C126.3,73.1,126.3,73.1,126.3,73C126.3,73.1,126.3,73.1,126.3,73L126.3,73z"/>
	<path class="st1" d="M101.2,74.2c-0.1,0-0.2,0-0.3,0c0.1,0.1,0.1,0.2,0.2,0.2c0.1,0,0.2,0,0.3,0C101.3,74.3,101.2,74.2,101.2,74.2z
		"/>
	<polygon class="st1" points="101.4,74.4 101.4,74.4 101.4,74.4 101.4,74.4 	"/>
	<path class="st1" d="M126.5,72.9c-0.1,0-0.1,0.1-0.2,0.1C126.4,73,126.4,73,126.5,72.9C126.5,73,126.5,73,126.5,72.9z"/>
	<path class="st1" d="M126.3,73L126.3,73C126.3,73.1,126.3,73,126.3,73C126.3,73,126.3,73,126.3,73z"/>
	<path class="st1" d="M101.5,75.3c0,0,0.1,0,0.1,0.1l0,0C101.6,75.3,101.6,75.3,101.5,75.3z"/>
	<path class="st1" d="M101.8,75.4c0.2,0.1,0.4,0.2,0.5,0.3c0,0,0.1-0.1,0.1-0.1C102.2,75.5,102,75.5,101.8,75.4z"/>
	<path class="st1" d="M101.7,75.4C101.7,75.4,101.7,75.4,101.7,75.4C101.7,75.4,101.7,75.4,101.7,75.4
		C101.7,75.4,101.7,75.4,101.7,75.4z"/>
	<path class="st1" d="M124.1,75.1c0.2-0.1,0.4-0.2,0.6-0.4l0,0c0.2-0.1,0.4-0.3,0.6-0.4c0.1,0,0.2,0,0.3,0c0.1,0,0.1-0.1,0.2-0.2
		c-0.1,0-0.2-0.1-0.3,0c-0.1,0-0.2,0.1-0.2,0.2l0,0c-0.2,0.1-0.5,0.2-0.7,0.3c0,0,0.1,0.1,0.1,0.1l-0.1-0.1
		c-0.2,0.1-0.5,0.2-0.7,0.3c0,0,0,0,0,0c-0.2,0.1-0.5,0.2-0.7,0.3c0.1,0.1,0.1,0.2,0.2,0.2C123.7,75.4,123.9,75.2,124.1,75.1z"/>
	<path class="st1" d="M102.4,76.7L102.4,76.7C102.4,76.6,102.3,76.6,102.4,76.7C102.3,76.6,102.3,76.7,102.4,76.7z"/>
	<path class="st1" d="M102.1,76.5c0.1,0,0.1,0.1,0.2,0.1c0,0,0-0.1-0.1-0.1C102.2,76.5,102.2,76.5,102.1,76.5z"/>
	<path class="st1" d="M100.7,73L100.7,73c0.2,0.1,0.4,0.2,0.6,0.3c0,0,0,0,0.1,0c0,0,0,0,0,0C101.2,73.3,100.9,73.2,100.7,73z"/>
	<path class="st1" d="M100.7,73.1C100.7,73.1,100.7,73,100.7,73.1C100.7,73,100.7,73,100.7,73.1C100.7,73,100.7,73,100.7,73.1z"/>
	<path class="st1" d="M100.5,73c0.1,0,0.1,0,0.2,0.1c0,0,0,0-0.1,0C100.6,73,100.5,73,100.5,73z"/>
	<path class="st1" d="M124.3,76.7L124.3,76.7L124.3,76.7L124.3,76.7C124.4,76.7,124.4,76.7,124.3,76.7
		C124.4,76.6,124.3,76.6,124.3,76.7C124.3,76.7,124.3,76.7,124.3,76.7L124.3,76.7C124.3,76.7,124.3,76.7,124.3,76.7
		C124.3,76.7,124.3,76.7,124.3,76.7L124.3,76.7z"/>
	<path class="st1" d="M124.6,76.5c-0.1,0-0.1,0.1-0.2,0.1C124.4,76.6,124.4,76.6,124.6,76.5C124.5,76.6,124.5,76.6,124.6,76.5z"/>
	<path class="st1" d="M123,74C123,74,123,74,123,74c-0.1,0-0.2,0.1-0.3,0.1C122.8,74.1,122.9,74.1,123,74z"/>
</g>
</svg>
